M48
; DRILL file {KiCad 7.0.1} date Wed May 17 13:30:48 2023
; FORMAT={-:-/ absolute / metric / decimal}
; #@! TF.CreationDate,2023-05-17T13:30:48+02:00
; #@! TF.GenerationSoftware,Kicad,Pcbnew,7.0.1
; #@! TF.FileFunction,Plated,1,2,PTH
FMAT,2
METRIC
; #@! TA.AperFunction,Plated,PTH,ViaDrill
T1C0.400
; #@! TA.AperFunction,Plated,PTH,ComponentDrill
T2C0.800
; #@! TA.AperFunction,Plated,PTH,ComponentDrill
T3C1.000
; #@! TA.AperFunction,Plated,PTH,ComponentDrill
T4C1.100
; #@! TA.AperFunction,Plated,PTH,ComponentDrill
T5C1.300
%
G90
G05
T1
X110.92Y-81.13
X111.01Y-82.45
X111.03Y-86.33
X112.86Y-88.53
X113.275Y-121.25
X116.06Y-73.805
X116.26Y-95.73
X116.26Y-99.93
X116.975Y-126.425
X118.26Y-75.63
X119.56Y-75.63
X119.96Y-100.03
X120.71Y-87.154
X122.375Y-123.525
X122.96Y-95.73
X123.63Y-99.7
X124.155Y-126.705
X125.1Y-107.51
X125.1Y-111.27
X125.16Y-95.73
X125.825Y-65.65
X126.29Y-56.6
X126.6Y-128.55
X126.96Y-100.01
X127.09Y-111.17
X127.16Y-76.43
X127.75Y-106.77
X127.892Y-105.338
X129.475Y-74.605
X129.63Y-94.578
X129.66Y-121.93
X130.46Y-112.13
X131.05Y-101.83
X131.11Y-109.13
X131.28Y-113.55
X132.0Y-70.75
X134.31Y-87.18
X135.575Y-97.15
X135.575Y-98.75
X136.16Y-81.13
X136.285Y-83.392
X136.425Y-102.25
X136.56Y-138.53
X137.342Y-102.647
X137.69Y-122.93
X138.06Y-93.53
X138.07Y-126.31
X138.83Y-81.05
X139.36Y-93.53
X139.66Y-123.13
X140.56Y-83.192
X142.29Y-123.47
X142.959Y-77.3
X143.46Y-95.15
X143.66Y-88.73
X144.21Y-66.51
X145.16Y-124.04
X145.66Y-102.13
X147.72Y-103.34
X149.56Y-89.43
X149.56Y-124.53
X150.26Y-111.23
X150.5Y-91.25
X150.76Y-108.83
X152.105Y-111.485
X152.26Y-109.53
X152.56Y-93.56
X154.16Y-114.93
T2
X151.94Y-68.86
X151.94Y-77.86
T3
X132.075Y-89.005
X132.075Y-91.545
X132.075Y-94.085
X132.075Y-96.625
X147.63Y-96.16
X147.63Y-98.7
X150.17Y-96.16
X150.17Y-98.7
X152.71Y-96.16
X152.71Y-98.7
T4
X129.47Y-68.725
X132.01Y-68.725
X134.55Y-68.725
T5
X120.36Y-134.33
X125.36Y-134.33
X129.96Y-60.13
X130.36Y-134.33
X134.96Y-60.13
X139.96Y-60.13
X144.96Y-60.13
T0
M30
