%TF.GenerationSoftware,KiCad,Pcbnew,7.0.7*%
%TF.CreationDate,2023-11-28T10:24:48+01:00*%
%TF.ProjectId,wireless_Slave,77697265-6c65-4737-935f-536c6176652e,rev?*%
%TF.SameCoordinates,PXc751640PY92dda80*%
%TF.FileFunction,Legend,Top*%
%TF.FilePolarity,Positive*%
%FSLAX46Y46*%
G04 Gerber Fmt 4.6, Leading zero omitted, Abs format (unit mm)*
G04 Created by KiCad (PCBNEW 7.0.7) date 2023-11-28 10:24:48*
%MOMM*%
%LPD*%
G01*
G04 APERTURE LIST*
G04 Aperture macros list*
%AMRoundRect*
0 Rectangle with rounded corners*
0 $1 Rounding radius*
0 $2 $3 $4 $5 $6 $7 $8 $9 X,Y pos of 4 corners*
0 Add a 4 corners polygon primitive as box body*
4,1,4,$2,$3,$4,$5,$6,$7,$8,$9,$2,$3,0*
0 Add four circle primitives for the rounded corners*
1,1,$1+$1,$2,$3*
1,1,$1+$1,$4,$5*
1,1,$1+$1,$6,$7*
1,1,$1+$1,$8,$9*
0 Add four rect primitives between the rounded corners*
20,1,$1+$1,$2,$3,$4,$5,0*
20,1,$1+$1,$4,$5,$6,$7,0*
20,1,$1+$1,$6,$7,$8,$9,0*
20,1,$1+$1,$8,$9,$2,$3,0*%
G04 Aperture macros list end*
%ADD10C,0.300000*%
%ADD11C,0.254000*%
%ADD12C,0.150000*%
%ADD13C,0.200000*%
%ADD14C,0.100000*%
%ADD15C,0.250000*%
%ADD16C,0.120000*%
%ADD17C,1.192000*%
%ADD18R,1.447000X1.447000*%
%ADD19C,1.447000*%
%ADD20R,0.400000X1.350000*%
%ADD21R,2.100000X1.600000*%
%ADD22R,1.800000X1.900000*%
%ADD23R,1.900000X1.900000*%
%ADD24R,2.300000X1.000000*%
%ADD25R,1.000000X2.300000*%
%ADD26R,0.300000X0.850000*%
%ADD27R,0.850000X0.300000*%
%ADD28R,2.200000X2.200000*%
%ADD29R,0.300000X0.800000*%
%ADD30R,1.900000X1.200000*%
%ADD31R,0.250000X0.500000*%
%ADD32R,0.500000X0.250000*%
%ADD33R,3.000000X1.600000*%
%ADD34R,6.200000X5.800000*%
%ADD35R,1.700000X1.700000*%
%ADD36O,1.700000X1.700000*%
%ADD37RoundRect,0.250000X0.250000X0.475000X-0.250000X0.475000X-0.250000X-0.475000X0.250000X-0.475000X0*%
%ADD38RoundRect,0.135000X-0.135000X-0.185000X0.135000X-0.185000X0.135000X0.185000X-0.135000X0.185000X0*%
%ADD39RoundRect,0.140000X-0.140000X-0.170000X0.140000X-0.170000X0.140000X0.170000X-0.140000X0.170000X0*%
%ADD40RoundRect,0.135000X0.185000X-0.135000X0.185000X0.135000X-0.185000X0.135000X-0.185000X-0.135000X0*%
%ADD41RoundRect,0.135000X0.135000X0.185000X-0.135000X0.185000X-0.135000X-0.185000X0.135000X-0.185000X0*%
%ADD42RoundRect,0.140000X0.170000X-0.140000X0.170000X0.140000X-0.170000X0.140000X-0.170000X-0.140000X0*%
%ADD43RoundRect,0.140000X0.140000X0.170000X-0.140000X0.170000X-0.140000X-0.170000X0.140000X-0.170000X0*%
%ADD44RoundRect,0.250000X-0.250000X-0.475000X0.250000X-0.475000X0.250000X0.475000X-0.250000X0.475000X0*%
%ADD45C,3.200000*%
%ADD46RoundRect,0.150000X0.650000X0.150000X-0.650000X0.150000X-0.650000X-0.150000X0.650000X-0.150000X0*%
%ADD47RoundRect,0.135000X-0.185000X0.135000X-0.185000X-0.135000X0.185000X-0.135000X0.185000X0.135000X0*%
%ADD48RoundRect,0.225000X0.225000X0.250000X-0.225000X0.250000X-0.225000X-0.250000X0.225000X-0.250000X0*%
%ADD49RoundRect,0.250000X-0.475000X0.250000X-0.475000X-0.250000X0.475000X-0.250000X0.475000X0.250000X0*%
%ADD50RoundRect,0.050000X0.050000X-0.387500X0.050000X0.387500X-0.050000X0.387500X-0.050000X-0.387500X0*%
%ADD51RoundRect,0.050000X0.387500X-0.050000X0.387500X0.050000X-0.387500X0.050000X-0.387500X-0.050000X0*%
%ADD52R,3.200000X3.200000*%
%ADD53RoundRect,0.140000X-0.170000X0.140000X-0.170000X-0.140000X0.170000X-0.140000X0.170000X0.140000X0*%
%ADD54R,1.200000X1.400000*%
%ADD55C,1.200000*%
%ADD56C,3.590000*%
%ADD57RoundRect,0.225000X0.250000X-0.225000X0.250000X0.225000X-0.250000X0.225000X-0.250000X-0.225000X0*%
%ADD58C,4.780000*%
%ADD59C,1.770000*%
%ADD60C,3.560000*%
G04 APERTURE END LIST*
D10*
X1529510Y11474172D02*
X1529510Y12974172D01*
X1529510Y12974172D02*
X1886653Y12974172D01*
X1886653Y12974172D02*
X2100939Y12902743D01*
X2100939Y12902743D02*
X2243796Y12759886D01*
X2243796Y12759886D02*
X2315225Y12617029D01*
X2315225Y12617029D02*
X2386653Y12331315D01*
X2386653Y12331315D02*
X2386653Y12117029D01*
X2386653Y12117029D02*
X2315225Y11831315D01*
X2315225Y11831315D02*
X2243796Y11688458D01*
X2243796Y11688458D02*
X2100939Y11545600D01*
X2100939Y11545600D02*
X1886653Y11474172D01*
X1886653Y11474172D02*
X1529510Y11474172D01*
X3029510Y11474172D02*
X3029510Y12474172D01*
X3029510Y12974172D02*
X2958082Y12902743D01*
X2958082Y12902743D02*
X3029510Y12831315D01*
X3029510Y12831315D02*
X3100939Y12902743D01*
X3100939Y12902743D02*
X3029510Y12974172D01*
X3029510Y12974172D02*
X3029510Y12831315D01*
X4386654Y12474172D02*
X4386654Y11259886D01*
X4386654Y11259886D02*
X4315225Y11117029D01*
X4315225Y11117029D02*
X4243796Y11045600D01*
X4243796Y11045600D02*
X4100939Y10974172D01*
X4100939Y10974172D02*
X3886654Y10974172D01*
X3886654Y10974172D02*
X3743796Y11045600D01*
X4386654Y11545600D02*
X4243796Y11474172D01*
X4243796Y11474172D02*
X3958082Y11474172D01*
X3958082Y11474172D02*
X3815225Y11545600D01*
X3815225Y11545600D02*
X3743796Y11617029D01*
X3743796Y11617029D02*
X3672368Y11759886D01*
X3672368Y11759886D02*
X3672368Y12188458D01*
X3672368Y12188458D02*
X3743796Y12331315D01*
X3743796Y12331315D02*
X3815225Y12402743D01*
X3815225Y12402743D02*
X3958082Y12474172D01*
X3958082Y12474172D02*
X4243796Y12474172D01*
X4243796Y12474172D02*
X4386654Y12402743D01*
X5100939Y11474172D02*
X5100939Y12474172D01*
X5100939Y12974172D02*
X5029511Y12902743D01*
X5029511Y12902743D02*
X5100939Y12831315D01*
X5100939Y12831315D02*
X5172368Y12902743D01*
X5172368Y12902743D02*
X5100939Y12974172D01*
X5100939Y12974172D02*
X5100939Y12831315D01*
X5600940Y12474172D02*
X6172368Y12474172D01*
X5815225Y12974172D02*
X5815225Y11688458D01*
X5815225Y11688458D02*
X5886654Y11545600D01*
X5886654Y11545600D02*
X6029511Y11474172D01*
X6029511Y11474172D02*
X6172368Y11474172D01*
X7315226Y11474172D02*
X7315226Y12259886D01*
X7315226Y12259886D02*
X7243797Y12402743D01*
X7243797Y12402743D02*
X7100940Y12474172D01*
X7100940Y12474172D02*
X6815226Y12474172D01*
X6815226Y12474172D02*
X6672368Y12402743D01*
X7315226Y11545600D02*
X7172368Y11474172D01*
X7172368Y11474172D02*
X6815226Y11474172D01*
X6815226Y11474172D02*
X6672368Y11545600D01*
X6672368Y11545600D02*
X6600940Y11688458D01*
X6600940Y11688458D02*
X6600940Y11831315D01*
X6600940Y11831315D02*
X6672368Y11974172D01*
X6672368Y11974172D02*
X6815226Y12045600D01*
X6815226Y12045600D02*
X7172368Y12045600D01*
X7172368Y12045600D02*
X7315226Y12117029D01*
X8243797Y11474172D02*
X8100940Y11545600D01*
X8100940Y11545600D02*
X8029511Y11688458D01*
X8029511Y11688458D02*
X8029511Y12974172D01*
X9958082Y11474172D02*
X9958082Y12974172D01*
X10672368Y11474172D02*
X10672368Y12974172D01*
X10672368Y12974172D02*
X11529511Y11474172D01*
X11529511Y11474172D02*
X11529511Y12974172D01*
X5704510Y20949172D02*
X5704510Y22449172D01*
X6347368Y22306315D02*
X6418796Y22377743D01*
X6418796Y22377743D02*
X6561654Y22449172D01*
X6561654Y22449172D02*
X6918796Y22449172D01*
X6918796Y22449172D02*
X7061654Y22377743D01*
X7061654Y22377743D02*
X7133082Y22306315D01*
X7133082Y22306315D02*
X7204511Y22163458D01*
X7204511Y22163458D02*
X7204511Y22020600D01*
X7204511Y22020600D02*
X7133082Y21806315D01*
X7133082Y21806315D02*
X6275939Y20949172D01*
X6275939Y20949172D02*
X7204511Y20949172D01*
X8704510Y21092029D02*
X8633082Y21020600D01*
X8633082Y21020600D02*
X8418796Y20949172D01*
X8418796Y20949172D02*
X8275939Y20949172D01*
X8275939Y20949172D02*
X8061653Y21020600D01*
X8061653Y21020600D02*
X7918796Y21163458D01*
X7918796Y21163458D02*
X7847367Y21306315D01*
X7847367Y21306315D02*
X7775939Y21592029D01*
X7775939Y21592029D02*
X7775939Y21806315D01*
X7775939Y21806315D02*
X7847367Y22092029D01*
X7847367Y22092029D02*
X7918796Y22234886D01*
X7918796Y22234886D02*
X8061653Y22377743D01*
X8061653Y22377743D02*
X8275939Y22449172D01*
X8275939Y22449172D02*
X8418796Y22449172D01*
X8418796Y22449172D02*
X8633082Y22377743D01*
X8633082Y22377743D02*
X8704510Y22306315D01*
D11*
X26224318Y9132381D02*
X27252413Y9132381D01*
X27252413Y9132381D02*
X27373365Y9192858D01*
X27373365Y9192858D02*
X27433842Y9253334D01*
X27433842Y9253334D02*
X27494318Y9374286D01*
X27494318Y9374286D02*
X27494318Y9616191D01*
X27494318Y9616191D02*
X27433842Y9737143D01*
X27433842Y9737143D02*
X27373365Y9797620D01*
X27373365Y9797620D02*
X27252413Y9858096D01*
X27252413Y9858096D02*
X26224318Y9858096D01*
X27494318Y11128096D02*
X27494318Y10402381D01*
X27494318Y10765238D02*
X26224318Y10765238D01*
X26224318Y10765238D02*
X26405746Y10644286D01*
X26405746Y10644286D02*
X26526699Y10523334D01*
X26526699Y10523334D02*
X26587175Y10402381D01*
X49342380Y9836158D02*
X49523809Y9775682D01*
X49523809Y9775682D02*
X49826190Y9775682D01*
X49826190Y9775682D02*
X49947142Y9836158D01*
X49947142Y9836158D02*
X50007618Y9896635D01*
X50007618Y9896635D02*
X50068095Y10017587D01*
X50068095Y10017587D02*
X50068095Y10138539D01*
X50068095Y10138539D02*
X50007618Y10259492D01*
X50007618Y10259492D02*
X49947142Y10319968D01*
X49947142Y10319968D02*
X49826190Y10380444D01*
X49826190Y10380444D02*
X49584285Y10440920D01*
X49584285Y10440920D02*
X49463333Y10501397D01*
X49463333Y10501397D02*
X49402856Y10561873D01*
X49402856Y10561873D02*
X49342380Y10682825D01*
X49342380Y10682825D02*
X49342380Y10803778D01*
X49342380Y10803778D02*
X49402856Y10924730D01*
X49402856Y10924730D02*
X49463333Y10985206D01*
X49463333Y10985206D02*
X49584285Y11045682D01*
X49584285Y11045682D02*
X49886666Y11045682D01*
X49886666Y11045682D02*
X50068095Y10985206D01*
X51277619Y9775682D02*
X50551904Y9775682D01*
X50914761Y9775682D02*
X50914761Y11045682D01*
X50914761Y11045682D02*
X50793809Y10864254D01*
X50793809Y10864254D02*
X50672857Y10743301D01*
X50672857Y10743301D02*
X50551904Y10682825D01*
X5476667Y54995682D02*
X5476667Y54088539D01*
X5476667Y54088539D02*
X5416190Y53907111D01*
X5416190Y53907111D02*
X5295238Y53786158D01*
X5295238Y53786158D02*
X5113809Y53725682D01*
X5113809Y53725682D02*
X4992857Y53725682D01*
X6020952Y54874730D02*
X6081428Y54935206D01*
X6081428Y54935206D02*
X6202381Y54995682D01*
X6202381Y54995682D02*
X6504762Y54995682D01*
X6504762Y54995682D02*
X6625714Y54935206D01*
X6625714Y54935206D02*
X6686190Y54874730D01*
X6686190Y54874730D02*
X6746667Y54753778D01*
X6746667Y54753778D02*
X6746667Y54632825D01*
X6746667Y54632825D02*
X6686190Y54451397D01*
X6686190Y54451397D02*
X5960476Y53725682D01*
X5960476Y53725682D02*
X6746667Y53725682D01*
X42080237Y43305682D02*
X42080237Y44575682D01*
X43410714Y43426635D02*
X43350238Y43366158D01*
X43350238Y43366158D02*
X43168809Y43305682D01*
X43168809Y43305682D02*
X43047857Y43305682D01*
X43047857Y43305682D02*
X42866428Y43366158D01*
X42866428Y43366158D02*
X42745476Y43487111D01*
X42745476Y43487111D02*
X42684999Y43608063D01*
X42684999Y43608063D02*
X42624523Y43849968D01*
X42624523Y43849968D02*
X42624523Y44031397D01*
X42624523Y44031397D02*
X42684999Y44273301D01*
X42684999Y44273301D02*
X42745476Y44394254D01*
X42745476Y44394254D02*
X42866428Y44515206D01*
X42866428Y44515206D02*
X43047857Y44575682D01*
X43047857Y44575682D02*
X43168809Y44575682D01*
X43168809Y44575682D02*
X43350238Y44515206D01*
X43350238Y44515206D02*
X43410714Y44454730D01*
X44559761Y44575682D02*
X43954999Y44575682D01*
X43954999Y44575682D02*
X43894523Y43970920D01*
X43894523Y43970920D02*
X43954999Y44031397D01*
X43954999Y44031397D02*
X44075952Y44091873D01*
X44075952Y44091873D02*
X44378333Y44091873D01*
X44378333Y44091873D02*
X44499285Y44031397D01*
X44499285Y44031397D02*
X44559761Y43970920D01*
X44559761Y43970920D02*
X44620238Y43849968D01*
X44620238Y43849968D02*
X44620238Y43547587D01*
X44620238Y43547587D02*
X44559761Y43426635D01*
X44559761Y43426635D02*
X44499285Y43366158D01*
X44499285Y43366158D02*
X44378333Y43305682D01*
X44378333Y43305682D02*
X44075952Y43305682D01*
X44075952Y43305682D02*
X43954999Y43366158D01*
X43954999Y43366158D02*
X43894523Y43426635D01*
X42764318Y24770238D02*
X41494318Y24770238D01*
X42643365Y26100715D02*
X42703842Y26040239D01*
X42703842Y26040239D02*
X42764318Y25858810D01*
X42764318Y25858810D02*
X42764318Y25737858D01*
X42764318Y25737858D02*
X42703842Y25556429D01*
X42703842Y25556429D02*
X42582889Y25435477D01*
X42582889Y25435477D02*
X42461937Y25375000D01*
X42461937Y25375000D02*
X42220032Y25314524D01*
X42220032Y25314524D02*
X42038603Y25314524D01*
X42038603Y25314524D02*
X41796699Y25375000D01*
X41796699Y25375000D02*
X41675746Y25435477D01*
X41675746Y25435477D02*
X41554794Y25556429D01*
X41554794Y25556429D02*
X41494318Y25737858D01*
X41494318Y25737858D02*
X41494318Y25858810D01*
X41494318Y25858810D02*
X41554794Y26040239D01*
X41554794Y26040239D02*
X41615270Y26100715D01*
X41917651Y27189286D02*
X42764318Y27189286D01*
X41433842Y26886905D02*
X42340984Y26584524D01*
X42340984Y26584524D02*
X42340984Y27370715D01*
X13954318Y7160238D02*
X12684318Y7160238D01*
X13833365Y8490715D02*
X13893842Y8430239D01*
X13893842Y8430239D02*
X13954318Y8248810D01*
X13954318Y8248810D02*
X13954318Y8127858D01*
X13954318Y8127858D02*
X13893842Y7946429D01*
X13893842Y7946429D02*
X13772889Y7825477D01*
X13772889Y7825477D02*
X13651937Y7765000D01*
X13651937Y7765000D02*
X13410032Y7704524D01*
X13410032Y7704524D02*
X13228603Y7704524D01*
X13228603Y7704524D02*
X12986699Y7765000D01*
X12986699Y7765000D02*
X12865746Y7825477D01*
X12865746Y7825477D02*
X12744794Y7946429D01*
X12744794Y7946429D02*
X12684318Y8127858D01*
X12684318Y8127858D02*
X12684318Y8248810D01*
X12684318Y8248810D02*
X12744794Y8430239D01*
X12744794Y8430239D02*
X12805270Y8490715D01*
X12684318Y8914048D02*
X12684318Y9700239D01*
X12684318Y9700239D02*
X13168127Y9276905D01*
X13168127Y9276905D02*
X13168127Y9458334D01*
X13168127Y9458334D02*
X13228603Y9579286D01*
X13228603Y9579286D02*
X13289080Y9639762D01*
X13289080Y9639762D02*
X13410032Y9700239D01*
X13410032Y9700239D02*
X13712413Y9700239D01*
X13712413Y9700239D02*
X13833365Y9639762D01*
X13833365Y9639762D02*
X13893842Y9579286D01*
X13893842Y9579286D02*
X13954318Y9458334D01*
X13954318Y9458334D02*
X13954318Y9095477D01*
X13954318Y9095477D02*
X13893842Y8974524D01*
X13893842Y8974524D02*
X13833365Y8914048D01*
X16400237Y8930682D02*
X16400237Y10200682D01*
X17730714Y9051635D02*
X17670238Y8991158D01*
X17670238Y8991158D02*
X17488809Y8930682D01*
X17488809Y8930682D02*
X17367857Y8930682D01*
X17367857Y8930682D02*
X17186428Y8991158D01*
X17186428Y8991158D02*
X17065476Y9112111D01*
X17065476Y9112111D02*
X17004999Y9233063D01*
X17004999Y9233063D02*
X16944523Y9474968D01*
X16944523Y9474968D02*
X16944523Y9656397D01*
X16944523Y9656397D02*
X17004999Y9898301D01*
X17004999Y9898301D02*
X17065476Y10019254D01*
X17065476Y10019254D02*
X17186428Y10140206D01*
X17186428Y10140206D02*
X17367857Y10200682D01*
X17367857Y10200682D02*
X17488809Y10200682D01*
X17488809Y10200682D02*
X17670238Y10140206D01*
X17670238Y10140206D02*
X17730714Y10079730D01*
X18214523Y10079730D02*
X18274999Y10140206D01*
X18274999Y10140206D02*
X18395952Y10200682D01*
X18395952Y10200682D02*
X18698333Y10200682D01*
X18698333Y10200682D02*
X18819285Y10140206D01*
X18819285Y10140206D02*
X18879761Y10079730D01*
X18879761Y10079730D02*
X18940238Y9958778D01*
X18940238Y9958778D02*
X18940238Y9837825D01*
X18940238Y9837825D02*
X18879761Y9656397D01*
X18879761Y9656397D02*
X18154047Y8930682D01*
X18154047Y8930682D02*
X18940238Y8930682D01*
X18330237Y52025682D02*
X18330237Y53295682D01*
X19660714Y52146635D02*
X19600238Y52086158D01*
X19600238Y52086158D02*
X19418809Y52025682D01*
X19418809Y52025682D02*
X19297857Y52025682D01*
X19297857Y52025682D02*
X19116428Y52086158D01*
X19116428Y52086158D02*
X18995476Y52207111D01*
X18995476Y52207111D02*
X18934999Y52328063D01*
X18934999Y52328063D02*
X18874523Y52569968D01*
X18874523Y52569968D02*
X18874523Y52751397D01*
X18874523Y52751397D02*
X18934999Y52993301D01*
X18934999Y52993301D02*
X18995476Y53114254D01*
X18995476Y53114254D02*
X19116428Y53235206D01*
X19116428Y53235206D02*
X19297857Y53295682D01*
X19297857Y53295682D02*
X19418809Y53295682D01*
X19418809Y53295682D02*
X19600238Y53235206D01*
X19600238Y53235206D02*
X19660714Y53174730D01*
X20870238Y52025682D02*
X20144523Y52025682D01*
X20507380Y52025682D02*
X20507380Y53295682D01*
X20507380Y53295682D02*
X20386428Y53114254D01*
X20386428Y53114254D02*
X20265476Y52993301D01*
X20265476Y52993301D02*
X20144523Y52932825D01*
D12*
X1637142Y26370420D02*
X1589523Y26322800D01*
X1589523Y26322800D02*
X1446666Y26275181D01*
X1446666Y26275181D02*
X1351428Y26275181D01*
X1351428Y26275181D02*
X1208571Y26322800D01*
X1208571Y26322800D02*
X1113333Y26418039D01*
X1113333Y26418039D02*
X1065714Y26513277D01*
X1065714Y26513277D02*
X1018095Y26703753D01*
X1018095Y26703753D02*
X1018095Y26846610D01*
X1018095Y26846610D02*
X1065714Y27037086D01*
X1065714Y27037086D02*
X1113333Y27132324D01*
X1113333Y27132324D02*
X1208571Y27227562D01*
X1208571Y27227562D02*
X1351428Y27275181D01*
X1351428Y27275181D02*
X1446666Y27275181D01*
X1446666Y27275181D02*
X1589523Y27227562D01*
X1589523Y27227562D02*
X1637142Y27179943D01*
X2018095Y27179943D02*
X2065714Y27227562D01*
X2065714Y27227562D02*
X2160952Y27275181D01*
X2160952Y27275181D02*
X2399047Y27275181D01*
X2399047Y27275181D02*
X2494285Y27227562D01*
X2494285Y27227562D02*
X2541904Y27179943D01*
X2541904Y27179943D02*
X2589523Y27084705D01*
X2589523Y27084705D02*
X2589523Y26989467D01*
X2589523Y26989467D02*
X2541904Y26846610D01*
X2541904Y26846610D02*
X1970476Y26275181D01*
X1970476Y26275181D02*
X2589523Y26275181D01*
X3494285Y27275181D02*
X3018095Y27275181D01*
X3018095Y27275181D02*
X2970476Y26798991D01*
X2970476Y26798991D02*
X3018095Y26846610D01*
X3018095Y26846610D02*
X3113333Y26894229D01*
X3113333Y26894229D02*
X3351428Y26894229D01*
X3351428Y26894229D02*
X3446666Y26846610D01*
X3446666Y26846610D02*
X3494285Y26798991D01*
X3494285Y26798991D02*
X3541904Y26703753D01*
X3541904Y26703753D02*
X3541904Y26465658D01*
X3541904Y26465658D02*
X3494285Y26370420D01*
X3494285Y26370420D02*
X3446666Y26322800D01*
X3446666Y26322800D02*
X3351428Y26275181D01*
X3351428Y26275181D02*
X3113333Y26275181D01*
X3113333Y26275181D02*
X3018095Y26322800D01*
X3018095Y26322800D02*
X2970476Y26370420D01*
X10058333Y40995181D02*
X9725000Y41471372D01*
X9486905Y40995181D02*
X9486905Y41995181D01*
X9486905Y41995181D02*
X9867857Y41995181D01*
X9867857Y41995181D02*
X9963095Y41947562D01*
X9963095Y41947562D02*
X10010714Y41899943D01*
X10010714Y41899943D02*
X10058333Y41804705D01*
X10058333Y41804705D02*
X10058333Y41661848D01*
X10058333Y41661848D02*
X10010714Y41566610D01*
X10010714Y41566610D02*
X9963095Y41518991D01*
X9963095Y41518991D02*
X9867857Y41471372D01*
X9867857Y41471372D02*
X9486905Y41471372D01*
X10391667Y41995181D02*
X11010714Y41995181D01*
X11010714Y41995181D02*
X10677381Y41614229D01*
X10677381Y41614229D02*
X10820238Y41614229D01*
X10820238Y41614229D02*
X10915476Y41566610D01*
X10915476Y41566610D02*
X10963095Y41518991D01*
X10963095Y41518991D02*
X11010714Y41423753D01*
X11010714Y41423753D02*
X11010714Y41185658D01*
X11010714Y41185658D02*
X10963095Y41090420D01*
X10963095Y41090420D02*
X10915476Y41042800D01*
X10915476Y41042800D02*
X10820238Y40995181D01*
X10820238Y40995181D02*
X10534524Y40995181D01*
X10534524Y40995181D02*
X10439286Y41042800D01*
X10439286Y41042800D02*
X10391667Y41090420D01*
X24078333Y43625420D02*
X24030714Y43577800D01*
X24030714Y43577800D02*
X23887857Y43530181D01*
X23887857Y43530181D02*
X23792619Y43530181D01*
X23792619Y43530181D02*
X23649762Y43577800D01*
X23649762Y43577800D02*
X23554524Y43673039D01*
X23554524Y43673039D02*
X23506905Y43768277D01*
X23506905Y43768277D02*
X23459286Y43958753D01*
X23459286Y43958753D02*
X23459286Y44101610D01*
X23459286Y44101610D02*
X23506905Y44292086D01*
X23506905Y44292086D02*
X23554524Y44387324D01*
X23554524Y44387324D02*
X23649762Y44482562D01*
X23649762Y44482562D02*
X23792619Y44530181D01*
X23792619Y44530181D02*
X23887857Y44530181D01*
X23887857Y44530181D02*
X24030714Y44482562D01*
X24030714Y44482562D02*
X24078333Y44434943D01*
X24983095Y44530181D02*
X24506905Y44530181D01*
X24506905Y44530181D02*
X24459286Y44053991D01*
X24459286Y44053991D02*
X24506905Y44101610D01*
X24506905Y44101610D02*
X24602143Y44149229D01*
X24602143Y44149229D02*
X24840238Y44149229D01*
X24840238Y44149229D02*
X24935476Y44101610D01*
X24935476Y44101610D02*
X24983095Y44053991D01*
X24983095Y44053991D02*
X25030714Y43958753D01*
X25030714Y43958753D02*
X25030714Y43720658D01*
X25030714Y43720658D02*
X24983095Y43625420D01*
X24983095Y43625420D02*
X24935476Y43577800D01*
X24935476Y43577800D02*
X24840238Y43530181D01*
X24840238Y43530181D02*
X24602143Y43530181D01*
X24602143Y43530181D02*
X24506905Y43577800D01*
X24506905Y43577800D02*
X24459286Y43625420D01*
X11714819Y30313334D02*
X11238628Y29980001D01*
X11714819Y29741906D02*
X10714819Y29741906D01*
X10714819Y29741906D02*
X10714819Y30122858D01*
X10714819Y30122858D02*
X10762438Y30218096D01*
X10762438Y30218096D02*
X10810057Y30265715D01*
X10810057Y30265715D02*
X10905295Y30313334D01*
X10905295Y30313334D02*
X11048152Y30313334D01*
X11048152Y30313334D02*
X11143390Y30265715D01*
X11143390Y30265715D02*
X11191009Y30218096D01*
X11191009Y30218096D02*
X11238628Y30122858D01*
X11238628Y30122858D02*
X11238628Y29741906D01*
X11143390Y30884763D02*
X11095771Y30789525D01*
X11095771Y30789525D02*
X11048152Y30741906D01*
X11048152Y30741906D02*
X10952914Y30694287D01*
X10952914Y30694287D02*
X10905295Y30694287D01*
X10905295Y30694287D02*
X10810057Y30741906D01*
X10810057Y30741906D02*
X10762438Y30789525D01*
X10762438Y30789525D02*
X10714819Y30884763D01*
X10714819Y30884763D02*
X10714819Y31075239D01*
X10714819Y31075239D02*
X10762438Y31170477D01*
X10762438Y31170477D02*
X10810057Y31218096D01*
X10810057Y31218096D02*
X10905295Y31265715D01*
X10905295Y31265715D02*
X10952914Y31265715D01*
X10952914Y31265715D02*
X11048152Y31218096D01*
X11048152Y31218096D02*
X11095771Y31170477D01*
X11095771Y31170477D02*
X11143390Y31075239D01*
X11143390Y31075239D02*
X11143390Y30884763D01*
X11143390Y30884763D02*
X11191009Y30789525D01*
X11191009Y30789525D02*
X11238628Y30741906D01*
X11238628Y30741906D02*
X11333866Y30694287D01*
X11333866Y30694287D02*
X11524342Y30694287D01*
X11524342Y30694287D02*
X11619580Y30741906D01*
X11619580Y30741906D02*
X11667200Y30789525D01*
X11667200Y30789525D02*
X11714819Y30884763D01*
X11714819Y30884763D02*
X11714819Y31075239D01*
X11714819Y31075239D02*
X11667200Y31170477D01*
X11667200Y31170477D02*
X11619580Y31218096D01*
X11619580Y31218096D02*
X11524342Y31265715D01*
X11524342Y31265715D02*
X11333866Y31265715D01*
X11333866Y31265715D02*
X11238628Y31218096D01*
X11238628Y31218096D02*
X11191009Y31170477D01*
X11191009Y31170477D02*
X11143390Y31075239D01*
X8108333Y10320181D02*
X7775000Y10796372D01*
X7536905Y10320181D02*
X7536905Y11320181D01*
X7536905Y11320181D02*
X7917857Y11320181D01*
X7917857Y11320181D02*
X8013095Y11272562D01*
X8013095Y11272562D02*
X8060714Y11224943D01*
X8060714Y11224943D02*
X8108333Y11129705D01*
X8108333Y11129705D02*
X8108333Y10986848D01*
X8108333Y10986848D02*
X8060714Y10891610D01*
X8060714Y10891610D02*
X8013095Y10843991D01*
X8013095Y10843991D02*
X7917857Y10796372D01*
X7917857Y10796372D02*
X7536905Y10796372D01*
X8584524Y10320181D02*
X8775000Y10320181D01*
X8775000Y10320181D02*
X8870238Y10367800D01*
X8870238Y10367800D02*
X8917857Y10415420D01*
X8917857Y10415420D02*
X9013095Y10558277D01*
X9013095Y10558277D02*
X9060714Y10748753D01*
X9060714Y10748753D02*
X9060714Y11129705D01*
X9060714Y11129705D02*
X9013095Y11224943D01*
X9013095Y11224943D02*
X8965476Y11272562D01*
X8965476Y11272562D02*
X8870238Y11320181D01*
X8870238Y11320181D02*
X8679762Y11320181D01*
X8679762Y11320181D02*
X8584524Y11272562D01*
X8584524Y11272562D02*
X8536905Y11224943D01*
X8536905Y11224943D02*
X8489286Y11129705D01*
X8489286Y11129705D02*
X8489286Y10891610D01*
X8489286Y10891610D02*
X8536905Y10796372D01*
X8536905Y10796372D02*
X8584524Y10748753D01*
X8584524Y10748753D02*
X8679762Y10701134D01*
X8679762Y10701134D02*
X8870238Y10701134D01*
X8870238Y10701134D02*
X8965476Y10748753D01*
X8965476Y10748753D02*
X9013095Y10796372D01*
X9013095Y10796372D02*
X9060714Y10891610D01*
X43482142Y15570181D02*
X43148809Y16046372D01*
X42910714Y15570181D02*
X42910714Y16570181D01*
X42910714Y16570181D02*
X43291666Y16570181D01*
X43291666Y16570181D02*
X43386904Y16522562D01*
X43386904Y16522562D02*
X43434523Y16474943D01*
X43434523Y16474943D02*
X43482142Y16379705D01*
X43482142Y16379705D02*
X43482142Y16236848D01*
X43482142Y16236848D02*
X43434523Y16141610D01*
X43434523Y16141610D02*
X43386904Y16093991D01*
X43386904Y16093991D02*
X43291666Y16046372D01*
X43291666Y16046372D02*
X42910714Y16046372D01*
X44434523Y15570181D02*
X43863095Y15570181D01*
X44148809Y15570181D02*
X44148809Y16570181D01*
X44148809Y16570181D02*
X44053571Y16427324D01*
X44053571Y16427324D02*
X43958333Y16332086D01*
X43958333Y16332086D02*
X43863095Y16284467D01*
X44815476Y16474943D02*
X44863095Y16522562D01*
X44863095Y16522562D02*
X44958333Y16570181D01*
X44958333Y16570181D02*
X45196428Y16570181D01*
X45196428Y16570181D02*
X45291666Y16522562D01*
X45291666Y16522562D02*
X45339285Y16474943D01*
X45339285Y16474943D02*
X45386904Y16379705D01*
X45386904Y16379705D02*
X45386904Y16284467D01*
X45386904Y16284467D02*
X45339285Y16141610D01*
X45339285Y16141610D02*
X44767857Y15570181D01*
X44767857Y15570181D02*
X45386904Y15570181D01*
X45177142Y28775181D02*
X44843809Y29251372D01*
X44605714Y28775181D02*
X44605714Y29775181D01*
X44605714Y29775181D02*
X44986666Y29775181D01*
X44986666Y29775181D02*
X45081904Y29727562D01*
X45081904Y29727562D02*
X45129523Y29679943D01*
X45129523Y29679943D02*
X45177142Y29584705D01*
X45177142Y29584705D02*
X45177142Y29441848D01*
X45177142Y29441848D02*
X45129523Y29346610D01*
X45129523Y29346610D02*
X45081904Y29298991D01*
X45081904Y29298991D02*
X44986666Y29251372D01*
X44986666Y29251372D02*
X44605714Y29251372D01*
X46129523Y28775181D02*
X45558095Y28775181D01*
X45843809Y28775181D02*
X45843809Y29775181D01*
X45843809Y29775181D02*
X45748571Y29632324D01*
X45748571Y29632324D02*
X45653333Y29537086D01*
X45653333Y29537086D02*
X45558095Y29489467D01*
X46748571Y29775181D02*
X46843809Y29775181D01*
X46843809Y29775181D02*
X46939047Y29727562D01*
X46939047Y29727562D02*
X46986666Y29679943D01*
X46986666Y29679943D02*
X47034285Y29584705D01*
X47034285Y29584705D02*
X47081904Y29394229D01*
X47081904Y29394229D02*
X47081904Y29156134D01*
X47081904Y29156134D02*
X47034285Y28965658D01*
X47034285Y28965658D02*
X46986666Y28870420D01*
X46986666Y28870420D02*
X46939047Y28822800D01*
X46939047Y28822800D02*
X46843809Y28775181D01*
X46843809Y28775181D02*
X46748571Y28775181D01*
X46748571Y28775181D02*
X46653333Y28822800D01*
X46653333Y28822800D02*
X46605714Y28870420D01*
X46605714Y28870420D02*
X46558095Y28965658D01*
X46558095Y28965658D02*
X46510476Y29156134D01*
X46510476Y29156134D02*
X46510476Y29394229D01*
X46510476Y29394229D02*
X46558095Y29584705D01*
X46558095Y29584705D02*
X46605714Y29679943D01*
X46605714Y29679943D02*
X46653333Y29727562D01*
X46653333Y29727562D02*
X46748571Y29775181D01*
X24784580Y35507143D02*
X24832200Y35459524D01*
X24832200Y35459524D02*
X24879819Y35316667D01*
X24879819Y35316667D02*
X24879819Y35221429D01*
X24879819Y35221429D02*
X24832200Y35078572D01*
X24832200Y35078572D02*
X24736961Y34983334D01*
X24736961Y34983334D02*
X24641723Y34935715D01*
X24641723Y34935715D02*
X24451247Y34888096D01*
X24451247Y34888096D02*
X24308390Y34888096D01*
X24308390Y34888096D02*
X24117914Y34935715D01*
X24117914Y34935715D02*
X24022676Y34983334D01*
X24022676Y34983334D02*
X23927438Y35078572D01*
X23927438Y35078572D02*
X23879819Y35221429D01*
X23879819Y35221429D02*
X23879819Y35316667D01*
X23879819Y35316667D02*
X23927438Y35459524D01*
X23927438Y35459524D02*
X23975057Y35507143D01*
X24879819Y36459524D02*
X24879819Y35888096D01*
X24879819Y36173810D02*
X23879819Y36173810D01*
X23879819Y36173810D02*
X24022676Y36078572D01*
X24022676Y36078572D02*
X24117914Y35983334D01*
X24117914Y35983334D02*
X24165533Y35888096D01*
X23879819Y37316667D02*
X23879819Y37126191D01*
X23879819Y37126191D02*
X23927438Y37030953D01*
X23927438Y37030953D02*
X23975057Y36983334D01*
X23975057Y36983334D02*
X24117914Y36888096D01*
X24117914Y36888096D02*
X24308390Y36840477D01*
X24308390Y36840477D02*
X24689342Y36840477D01*
X24689342Y36840477D02*
X24784580Y36888096D01*
X24784580Y36888096D02*
X24832200Y36935715D01*
X24832200Y36935715D02*
X24879819Y37030953D01*
X24879819Y37030953D02*
X24879819Y37221429D01*
X24879819Y37221429D02*
X24832200Y37316667D01*
X24832200Y37316667D02*
X24784580Y37364286D01*
X24784580Y37364286D02*
X24689342Y37411905D01*
X24689342Y37411905D02*
X24451247Y37411905D01*
X24451247Y37411905D02*
X24356009Y37364286D01*
X24356009Y37364286D02*
X24308390Y37316667D01*
X24308390Y37316667D02*
X24260771Y37221429D01*
X24260771Y37221429D02*
X24260771Y37030953D01*
X24260771Y37030953D02*
X24308390Y36935715D01*
X24308390Y36935715D02*
X24356009Y36888096D01*
X24356009Y36888096D02*
X24451247Y36840477D01*
X19373333Y31615181D02*
X19040000Y32091372D01*
X18801905Y31615181D02*
X18801905Y32615181D01*
X18801905Y32615181D02*
X19182857Y32615181D01*
X19182857Y32615181D02*
X19278095Y32567562D01*
X19278095Y32567562D02*
X19325714Y32519943D01*
X19325714Y32519943D02*
X19373333Y32424705D01*
X19373333Y32424705D02*
X19373333Y32281848D01*
X19373333Y32281848D02*
X19325714Y32186610D01*
X19325714Y32186610D02*
X19278095Y32138991D01*
X19278095Y32138991D02*
X19182857Y32091372D01*
X19182857Y32091372D02*
X18801905Y32091372D01*
X20230476Y32281848D02*
X20230476Y31615181D01*
X19992381Y32662800D02*
X19754286Y31948515D01*
X19754286Y31948515D02*
X20373333Y31948515D01*
X22283333Y34765420D02*
X22235714Y34717800D01*
X22235714Y34717800D02*
X22092857Y34670181D01*
X22092857Y34670181D02*
X21997619Y34670181D01*
X21997619Y34670181D02*
X21854762Y34717800D01*
X21854762Y34717800D02*
X21759524Y34813039D01*
X21759524Y34813039D02*
X21711905Y34908277D01*
X21711905Y34908277D02*
X21664286Y35098753D01*
X21664286Y35098753D02*
X21664286Y35241610D01*
X21664286Y35241610D02*
X21711905Y35432086D01*
X21711905Y35432086D02*
X21759524Y35527324D01*
X21759524Y35527324D02*
X21854762Y35622562D01*
X21854762Y35622562D02*
X21997619Y35670181D01*
X21997619Y35670181D02*
X22092857Y35670181D01*
X22092857Y35670181D02*
X22235714Y35622562D01*
X22235714Y35622562D02*
X22283333Y35574943D01*
X22759524Y34670181D02*
X22950000Y34670181D01*
X22950000Y34670181D02*
X23045238Y34717800D01*
X23045238Y34717800D02*
X23092857Y34765420D01*
X23092857Y34765420D02*
X23188095Y34908277D01*
X23188095Y34908277D02*
X23235714Y35098753D01*
X23235714Y35098753D02*
X23235714Y35479705D01*
X23235714Y35479705D02*
X23188095Y35574943D01*
X23188095Y35574943D02*
X23140476Y35622562D01*
X23140476Y35622562D02*
X23045238Y35670181D01*
X23045238Y35670181D02*
X22854762Y35670181D01*
X22854762Y35670181D02*
X22759524Y35622562D01*
X22759524Y35622562D02*
X22711905Y35574943D01*
X22711905Y35574943D02*
X22664286Y35479705D01*
X22664286Y35479705D02*
X22664286Y35241610D01*
X22664286Y35241610D02*
X22711905Y35146372D01*
X22711905Y35146372D02*
X22759524Y35098753D01*
X22759524Y35098753D02*
X22854762Y35051134D01*
X22854762Y35051134D02*
X23045238Y35051134D01*
X23045238Y35051134D02*
X23140476Y35098753D01*
X23140476Y35098753D02*
X23188095Y35146372D01*
X23188095Y35146372D02*
X23235714Y35241610D01*
X31158333Y19965420D02*
X31110714Y19917800D01*
X31110714Y19917800D02*
X30967857Y19870181D01*
X30967857Y19870181D02*
X30872619Y19870181D01*
X30872619Y19870181D02*
X30729762Y19917800D01*
X30729762Y19917800D02*
X30634524Y20013039D01*
X30634524Y20013039D02*
X30586905Y20108277D01*
X30586905Y20108277D02*
X30539286Y20298753D01*
X30539286Y20298753D02*
X30539286Y20441610D01*
X30539286Y20441610D02*
X30586905Y20632086D01*
X30586905Y20632086D02*
X30634524Y20727324D01*
X30634524Y20727324D02*
X30729762Y20822562D01*
X30729762Y20822562D02*
X30872619Y20870181D01*
X30872619Y20870181D02*
X30967857Y20870181D01*
X30967857Y20870181D02*
X31110714Y20822562D01*
X31110714Y20822562D02*
X31158333Y20774943D01*
X32110714Y19870181D02*
X31539286Y19870181D01*
X31825000Y19870181D02*
X31825000Y20870181D01*
X31825000Y20870181D02*
X31729762Y20727324D01*
X31729762Y20727324D02*
X31634524Y20632086D01*
X31634524Y20632086D02*
X31539286Y20584467D01*
X20433333Y47265420D02*
X20385714Y47217800D01*
X20385714Y47217800D02*
X20242857Y47170181D01*
X20242857Y47170181D02*
X20147619Y47170181D01*
X20147619Y47170181D02*
X20004762Y47217800D01*
X20004762Y47217800D02*
X19909524Y47313039D01*
X19909524Y47313039D02*
X19861905Y47408277D01*
X19861905Y47408277D02*
X19814286Y47598753D01*
X19814286Y47598753D02*
X19814286Y47741610D01*
X19814286Y47741610D02*
X19861905Y47932086D01*
X19861905Y47932086D02*
X19909524Y48027324D01*
X19909524Y48027324D02*
X20004762Y48122562D01*
X20004762Y48122562D02*
X20147619Y48170181D01*
X20147619Y48170181D02*
X20242857Y48170181D01*
X20242857Y48170181D02*
X20385714Y48122562D01*
X20385714Y48122562D02*
X20433333Y48074943D01*
X20814286Y48074943D02*
X20861905Y48122562D01*
X20861905Y48122562D02*
X20957143Y48170181D01*
X20957143Y48170181D02*
X21195238Y48170181D01*
X21195238Y48170181D02*
X21290476Y48122562D01*
X21290476Y48122562D02*
X21338095Y48074943D01*
X21338095Y48074943D02*
X21385714Y47979705D01*
X21385714Y47979705D02*
X21385714Y47884467D01*
X21385714Y47884467D02*
X21338095Y47741610D01*
X21338095Y47741610D02*
X20766667Y47170181D01*
X20766667Y47170181D02*
X21385714Y47170181D01*
X37108333Y14920181D02*
X36775000Y15396372D01*
X36536905Y14920181D02*
X36536905Y15920181D01*
X36536905Y15920181D02*
X36917857Y15920181D01*
X36917857Y15920181D02*
X37013095Y15872562D01*
X37013095Y15872562D02*
X37060714Y15824943D01*
X37060714Y15824943D02*
X37108333Y15729705D01*
X37108333Y15729705D02*
X37108333Y15586848D01*
X37108333Y15586848D02*
X37060714Y15491610D01*
X37060714Y15491610D02*
X37013095Y15443991D01*
X37013095Y15443991D02*
X36917857Y15396372D01*
X36917857Y15396372D02*
X36536905Y15396372D01*
X37441667Y15920181D02*
X38108333Y15920181D01*
X38108333Y15920181D02*
X37679762Y14920181D01*
X11933333Y36955420D02*
X11885714Y36907800D01*
X11885714Y36907800D02*
X11742857Y36860181D01*
X11742857Y36860181D02*
X11647619Y36860181D01*
X11647619Y36860181D02*
X11504762Y36907800D01*
X11504762Y36907800D02*
X11409524Y37003039D01*
X11409524Y37003039D02*
X11361905Y37098277D01*
X11361905Y37098277D02*
X11314286Y37288753D01*
X11314286Y37288753D02*
X11314286Y37431610D01*
X11314286Y37431610D02*
X11361905Y37622086D01*
X11361905Y37622086D02*
X11409524Y37717324D01*
X11409524Y37717324D02*
X11504762Y37812562D01*
X11504762Y37812562D02*
X11647619Y37860181D01*
X11647619Y37860181D02*
X11742857Y37860181D01*
X11742857Y37860181D02*
X11885714Y37812562D01*
X11885714Y37812562D02*
X11933333Y37764943D01*
X12790476Y37526848D02*
X12790476Y36860181D01*
X12552381Y37907800D02*
X12314286Y37193515D01*
X12314286Y37193515D02*
X12933333Y37193515D01*
X10029819Y7866667D02*
X10744104Y7866667D01*
X10744104Y7866667D02*
X10886961Y7819048D01*
X10886961Y7819048D02*
X10982200Y7723810D01*
X10982200Y7723810D02*
X11029819Y7580953D01*
X11029819Y7580953D02*
X11029819Y7485715D01*
X10029819Y8819048D02*
X10029819Y8342858D01*
X10029819Y8342858D02*
X10506009Y8295239D01*
X10506009Y8295239D02*
X10458390Y8342858D01*
X10458390Y8342858D02*
X10410771Y8438096D01*
X10410771Y8438096D02*
X10410771Y8676191D01*
X10410771Y8676191D02*
X10458390Y8771429D01*
X10458390Y8771429D02*
X10506009Y8819048D01*
X10506009Y8819048D02*
X10601247Y8866667D01*
X10601247Y8866667D02*
X10839342Y8866667D01*
X10839342Y8866667D02*
X10934580Y8819048D01*
X10934580Y8819048D02*
X10982200Y8771429D01*
X10982200Y8771429D02*
X11029819Y8676191D01*
X11029819Y8676191D02*
X11029819Y8438096D01*
X11029819Y8438096D02*
X10982200Y8342858D01*
X10982200Y8342858D02*
X10934580Y8295239D01*
X25233333Y19820181D02*
X24900000Y20296372D01*
X24661905Y19820181D02*
X24661905Y20820181D01*
X24661905Y20820181D02*
X25042857Y20820181D01*
X25042857Y20820181D02*
X25138095Y20772562D01*
X25138095Y20772562D02*
X25185714Y20724943D01*
X25185714Y20724943D02*
X25233333Y20629705D01*
X25233333Y20629705D02*
X25233333Y20486848D01*
X25233333Y20486848D02*
X25185714Y20391610D01*
X25185714Y20391610D02*
X25138095Y20343991D01*
X25138095Y20343991D02*
X25042857Y20296372D01*
X25042857Y20296372D02*
X24661905Y20296372D01*
X26185714Y19820181D02*
X25614286Y19820181D01*
X25900000Y19820181D02*
X25900000Y20820181D01*
X25900000Y20820181D02*
X25804762Y20677324D01*
X25804762Y20677324D02*
X25709524Y20582086D01*
X25709524Y20582086D02*
X25614286Y20534467D01*
X56238095Y6745181D02*
X56238095Y7745181D01*
X56238095Y7268991D02*
X56809523Y7268991D01*
X56809523Y6745181D02*
X56809523Y7745181D01*
X57238095Y7649943D02*
X57285714Y7697562D01*
X57285714Y7697562D02*
X57380952Y7745181D01*
X57380952Y7745181D02*
X57619047Y7745181D01*
X57619047Y7745181D02*
X57714285Y7697562D01*
X57714285Y7697562D02*
X57761904Y7649943D01*
X57761904Y7649943D02*
X57809523Y7554705D01*
X57809523Y7554705D02*
X57809523Y7459467D01*
X57809523Y7459467D02*
X57761904Y7316610D01*
X57761904Y7316610D02*
X57190476Y6745181D01*
X57190476Y6745181D02*
X57809523Y6745181D01*
X8068095Y31395181D02*
X8068095Y30585658D01*
X8068095Y30585658D02*
X8115714Y30490420D01*
X8115714Y30490420D02*
X8163333Y30442800D01*
X8163333Y30442800D02*
X8258571Y30395181D01*
X8258571Y30395181D02*
X8449047Y30395181D01*
X8449047Y30395181D02*
X8544285Y30442800D01*
X8544285Y30442800D02*
X8591904Y30490420D01*
X8591904Y30490420D02*
X8639523Y30585658D01*
X8639523Y30585658D02*
X8639523Y31395181D01*
X9020476Y31395181D02*
X9639523Y31395181D01*
X9639523Y31395181D02*
X9306190Y31014229D01*
X9306190Y31014229D02*
X9449047Y31014229D01*
X9449047Y31014229D02*
X9544285Y30966610D01*
X9544285Y30966610D02*
X9591904Y30918991D01*
X9591904Y30918991D02*
X9639523Y30823753D01*
X9639523Y30823753D02*
X9639523Y30585658D01*
X9639523Y30585658D02*
X9591904Y30490420D01*
X9591904Y30490420D02*
X9544285Y30442800D01*
X9544285Y30442800D02*
X9449047Y30395181D01*
X9449047Y30395181D02*
X9163333Y30395181D01*
X9163333Y30395181D02*
X9068095Y30442800D01*
X9068095Y30442800D02*
X9020476Y30490420D01*
X10083333Y39820181D02*
X9750000Y40296372D01*
X9511905Y39820181D02*
X9511905Y40820181D01*
X9511905Y40820181D02*
X9892857Y40820181D01*
X9892857Y40820181D02*
X9988095Y40772562D01*
X9988095Y40772562D02*
X10035714Y40724943D01*
X10035714Y40724943D02*
X10083333Y40629705D01*
X10083333Y40629705D02*
X10083333Y40486848D01*
X10083333Y40486848D02*
X10035714Y40391610D01*
X10035714Y40391610D02*
X9988095Y40343991D01*
X9988095Y40343991D02*
X9892857Y40296372D01*
X9892857Y40296372D02*
X9511905Y40296372D01*
X10464286Y40724943D02*
X10511905Y40772562D01*
X10511905Y40772562D02*
X10607143Y40820181D01*
X10607143Y40820181D02*
X10845238Y40820181D01*
X10845238Y40820181D02*
X10940476Y40772562D01*
X10940476Y40772562D02*
X10988095Y40724943D01*
X10988095Y40724943D02*
X11035714Y40629705D01*
X11035714Y40629705D02*
X11035714Y40534467D01*
X11035714Y40534467D02*
X10988095Y40391610D01*
X10988095Y40391610D02*
X10416667Y39820181D01*
X10416667Y39820181D02*
X11035714Y39820181D01*
X9132142Y38715420D02*
X9084523Y38667800D01*
X9084523Y38667800D02*
X8941666Y38620181D01*
X8941666Y38620181D02*
X8846428Y38620181D01*
X8846428Y38620181D02*
X8703571Y38667800D01*
X8703571Y38667800D02*
X8608333Y38763039D01*
X8608333Y38763039D02*
X8560714Y38858277D01*
X8560714Y38858277D02*
X8513095Y39048753D01*
X8513095Y39048753D02*
X8513095Y39191610D01*
X8513095Y39191610D02*
X8560714Y39382086D01*
X8560714Y39382086D02*
X8608333Y39477324D01*
X8608333Y39477324D02*
X8703571Y39572562D01*
X8703571Y39572562D02*
X8846428Y39620181D01*
X8846428Y39620181D02*
X8941666Y39620181D01*
X8941666Y39620181D02*
X9084523Y39572562D01*
X9084523Y39572562D02*
X9132142Y39524943D01*
X10084523Y38620181D02*
X9513095Y38620181D01*
X9798809Y38620181D02*
X9798809Y39620181D01*
X9798809Y39620181D02*
X9703571Y39477324D01*
X9703571Y39477324D02*
X9608333Y39382086D01*
X9608333Y39382086D02*
X9513095Y39334467D01*
X10465476Y39524943D02*
X10513095Y39572562D01*
X10513095Y39572562D02*
X10608333Y39620181D01*
X10608333Y39620181D02*
X10846428Y39620181D01*
X10846428Y39620181D02*
X10941666Y39572562D01*
X10941666Y39572562D02*
X10989285Y39524943D01*
X10989285Y39524943D02*
X11036904Y39429705D01*
X11036904Y39429705D02*
X11036904Y39334467D01*
X11036904Y39334467D02*
X10989285Y39191610D01*
X10989285Y39191610D02*
X10417857Y38620181D01*
X10417857Y38620181D02*
X11036904Y38620181D01*
X53158333Y39245181D02*
X52682143Y39245181D01*
X52682143Y39245181D02*
X52682143Y40245181D01*
X54015476Y39245181D02*
X53444048Y39245181D01*
X53729762Y39245181D02*
X53729762Y40245181D01*
X53729762Y40245181D02*
X53634524Y40102324D01*
X53634524Y40102324D02*
X53539286Y40007086D01*
X53539286Y40007086D02*
X53444048Y39959467D01*
X11758333Y45390420D02*
X11710714Y45342800D01*
X11710714Y45342800D02*
X11567857Y45295181D01*
X11567857Y45295181D02*
X11472619Y45295181D01*
X11472619Y45295181D02*
X11329762Y45342800D01*
X11329762Y45342800D02*
X11234524Y45438039D01*
X11234524Y45438039D02*
X11186905Y45533277D01*
X11186905Y45533277D02*
X11139286Y45723753D01*
X11139286Y45723753D02*
X11139286Y45866610D01*
X11139286Y45866610D02*
X11186905Y46057086D01*
X11186905Y46057086D02*
X11234524Y46152324D01*
X11234524Y46152324D02*
X11329762Y46247562D01*
X11329762Y46247562D02*
X11472619Y46295181D01*
X11472619Y46295181D02*
X11567857Y46295181D01*
X11567857Y46295181D02*
X11710714Y46247562D01*
X11710714Y46247562D02*
X11758333Y46199943D01*
X12091667Y46295181D02*
X12758333Y46295181D01*
X12758333Y46295181D02*
X12329762Y45295181D01*
X26032142Y42215420D02*
X25984523Y42167800D01*
X25984523Y42167800D02*
X25841666Y42120181D01*
X25841666Y42120181D02*
X25746428Y42120181D01*
X25746428Y42120181D02*
X25603571Y42167800D01*
X25603571Y42167800D02*
X25508333Y42263039D01*
X25508333Y42263039D02*
X25460714Y42358277D01*
X25460714Y42358277D02*
X25413095Y42548753D01*
X25413095Y42548753D02*
X25413095Y42691610D01*
X25413095Y42691610D02*
X25460714Y42882086D01*
X25460714Y42882086D02*
X25508333Y42977324D01*
X25508333Y42977324D02*
X25603571Y43072562D01*
X25603571Y43072562D02*
X25746428Y43120181D01*
X25746428Y43120181D02*
X25841666Y43120181D01*
X25841666Y43120181D02*
X25984523Y43072562D01*
X25984523Y43072562D02*
X26032142Y43024943D01*
X26984523Y42120181D02*
X26413095Y42120181D01*
X26698809Y42120181D02*
X26698809Y43120181D01*
X26698809Y43120181D02*
X26603571Y42977324D01*
X26603571Y42977324D02*
X26508333Y42882086D01*
X26508333Y42882086D02*
X26413095Y42834467D01*
X27936904Y42120181D02*
X27365476Y42120181D01*
X27651190Y42120181D02*
X27651190Y43120181D01*
X27651190Y43120181D02*
X27555952Y42977324D01*
X27555952Y42977324D02*
X27460714Y42882086D01*
X27460714Y42882086D02*
X27365476Y42834467D01*
X30133333Y52490420D02*
X30085714Y52442800D01*
X30085714Y52442800D02*
X29942857Y52395181D01*
X29942857Y52395181D02*
X29847619Y52395181D01*
X29847619Y52395181D02*
X29704762Y52442800D01*
X29704762Y52442800D02*
X29609524Y52538039D01*
X29609524Y52538039D02*
X29561905Y52633277D01*
X29561905Y52633277D02*
X29514286Y52823753D01*
X29514286Y52823753D02*
X29514286Y52966610D01*
X29514286Y52966610D02*
X29561905Y53157086D01*
X29561905Y53157086D02*
X29609524Y53252324D01*
X29609524Y53252324D02*
X29704762Y53347562D01*
X29704762Y53347562D02*
X29847619Y53395181D01*
X29847619Y53395181D02*
X29942857Y53395181D01*
X29942857Y53395181D02*
X30085714Y53347562D01*
X30085714Y53347562D02*
X30133333Y53299943D01*
X30466667Y53395181D02*
X31085714Y53395181D01*
X31085714Y53395181D02*
X30752381Y53014229D01*
X30752381Y53014229D02*
X30895238Y53014229D01*
X30895238Y53014229D02*
X30990476Y52966610D01*
X30990476Y52966610D02*
X31038095Y52918991D01*
X31038095Y52918991D02*
X31085714Y52823753D01*
X31085714Y52823753D02*
X31085714Y52585658D01*
X31085714Y52585658D02*
X31038095Y52490420D01*
X31038095Y52490420D02*
X30990476Y52442800D01*
X30990476Y52442800D02*
X30895238Y52395181D01*
X30895238Y52395181D02*
X30609524Y52395181D01*
X30609524Y52395181D02*
X30514286Y52442800D01*
X30514286Y52442800D02*
X30466667Y52490420D01*
X13414819Y39368096D02*
X14224342Y39368096D01*
X14224342Y39368096D02*
X14319580Y39415715D01*
X14319580Y39415715D02*
X14367200Y39463334D01*
X14367200Y39463334D02*
X14414819Y39558572D01*
X14414819Y39558572D02*
X14414819Y39749048D01*
X14414819Y39749048D02*
X14367200Y39844286D01*
X14367200Y39844286D02*
X14319580Y39891905D01*
X14319580Y39891905D02*
X14224342Y39939524D01*
X14224342Y39939524D02*
X13414819Y39939524D01*
X13510057Y40368096D02*
X13462438Y40415715D01*
X13462438Y40415715D02*
X13414819Y40510953D01*
X13414819Y40510953D02*
X13414819Y40749048D01*
X13414819Y40749048D02*
X13462438Y40844286D01*
X13462438Y40844286D02*
X13510057Y40891905D01*
X13510057Y40891905D02*
X13605295Y40939524D01*
X13605295Y40939524D02*
X13700533Y40939524D01*
X13700533Y40939524D02*
X13843390Y40891905D01*
X13843390Y40891905D02*
X14414819Y40320477D01*
X14414819Y40320477D02*
X14414819Y40939524D01*
X15317142Y33397920D02*
X15269523Y33350300D01*
X15269523Y33350300D02*
X15126666Y33302681D01*
X15126666Y33302681D02*
X15031428Y33302681D01*
X15031428Y33302681D02*
X14888571Y33350300D01*
X14888571Y33350300D02*
X14793333Y33445539D01*
X14793333Y33445539D02*
X14745714Y33540777D01*
X14745714Y33540777D02*
X14698095Y33731253D01*
X14698095Y33731253D02*
X14698095Y33874110D01*
X14698095Y33874110D02*
X14745714Y34064586D01*
X14745714Y34064586D02*
X14793333Y34159824D01*
X14793333Y34159824D02*
X14888571Y34255062D01*
X14888571Y34255062D02*
X15031428Y34302681D01*
X15031428Y34302681D02*
X15126666Y34302681D01*
X15126666Y34302681D02*
X15269523Y34255062D01*
X15269523Y34255062D02*
X15317142Y34207443D01*
X16269523Y33302681D02*
X15698095Y33302681D01*
X15983809Y33302681D02*
X15983809Y34302681D01*
X15983809Y34302681D02*
X15888571Y34159824D01*
X15888571Y34159824D02*
X15793333Y34064586D01*
X15793333Y34064586D02*
X15698095Y34016967D01*
X16888571Y34302681D02*
X16983809Y34302681D01*
X16983809Y34302681D02*
X17079047Y34255062D01*
X17079047Y34255062D02*
X17126666Y34207443D01*
X17126666Y34207443D02*
X17174285Y34112205D01*
X17174285Y34112205D02*
X17221904Y33921729D01*
X17221904Y33921729D02*
X17221904Y33683634D01*
X17221904Y33683634D02*
X17174285Y33493158D01*
X17174285Y33493158D02*
X17126666Y33397920D01*
X17126666Y33397920D02*
X17079047Y33350300D01*
X17079047Y33350300D02*
X16983809Y33302681D01*
X16983809Y33302681D02*
X16888571Y33302681D01*
X16888571Y33302681D02*
X16793333Y33350300D01*
X16793333Y33350300D02*
X16745714Y33397920D01*
X16745714Y33397920D02*
X16698095Y33493158D01*
X16698095Y33493158D02*
X16650476Y33683634D01*
X16650476Y33683634D02*
X16650476Y33921729D01*
X16650476Y33921729D02*
X16698095Y34112205D01*
X16698095Y34112205D02*
X16745714Y34207443D01*
X16745714Y34207443D02*
X16793333Y34255062D01*
X16793333Y34255062D02*
X16888571Y34302681D01*
X23784580Y39407143D02*
X23832200Y39359524D01*
X23832200Y39359524D02*
X23879819Y39216667D01*
X23879819Y39216667D02*
X23879819Y39121429D01*
X23879819Y39121429D02*
X23832200Y38978572D01*
X23832200Y38978572D02*
X23736961Y38883334D01*
X23736961Y38883334D02*
X23641723Y38835715D01*
X23641723Y38835715D02*
X23451247Y38788096D01*
X23451247Y38788096D02*
X23308390Y38788096D01*
X23308390Y38788096D02*
X23117914Y38835715D01*
X23117914Y38835715D02*
X23022676Y38883334D01*
X23022676Y38883334D02*
X22927438Y38978572D01*
X22927438Y38978572D02*
X22879819Y39121429D01*
X22879819Y39121429D02*
X22879819Y39216667D01*
X22879819Y39216667D02*
X22927438Y39359524D01*
X22927438Y39359524D02*
X22975057Y39407143D01*
X23879819Y40359524D02*
X23879819Y39788096D01*
X23879819Y40073810D02*
X22879819Y40073810D01*
X22879819Y40073810D02*
X23022676Y39978572D01*
X23022676Y39978572D02*
X23117914Y39883334D01*
X23117914Y39883334D02*
X23165533Y39788096D01*
X22879819Y40692858D02*
X22879819Y41359524D01*
X22879819Y41359524D02*
X23879819Y40930953D01*
X53307142Y41190420D02*
X53259523Y41142800D01*
X53259523Y41142800D02*
X53116666Y41095181D01*
X53116666Y41095181D02*
X53021428Y41095181D01*
X53021428Y41095181D02*
X52878571Y41142800D01*
X52878571Y41142800D02*
X52783333Y41238039D01*
X52783333Y41238039D02*
X52735714Y41333277D01*
X52735714Y41333277D02*
X52688095Y41523753D01*
X52688095Y41523753D02*
X52688095Y41666610D01*
X52688095Y41666610D02*
X52735714Y41857086D01*
X52735714Y41857086D02*
X52783333Y41952324D01*
X52783333Y41952324D02*
X52878571Y42047562D01*
X52878571Y42047562D02*
X53021428Y42095181D01*
X53021428Y42095181D02*
X53116666Y42095181D01*
X53116666Y42095181D02*
X53259523Y42047562D01*
X53259523Y42047562D02*
X53307142Y41999943D01*
X53688095Y41999943D02*
X53735714Y42047562D01*
X53735714Y42047562D02*
X53830952Y42095181D01*
X53830952Y42095181D02*
X54069047Y42095181D01*
X54069047Y42095181D02*
X54164285Y42047562D01*
X54164285Y42047562D02*
X54211904Y41999943D01*
X54211904Y41999943D02*
X54259523Y41904705D01*
X54259523Y41904705D02*
X54259523Y41809467D01*
X54259523Y41809467D02*
X54211904Y41666610D01*
X54211904Y41666610D02*
X53640476Y41095181D01*
X53640476Y41095181D02*
X54259523Y41095181D01*
X54878571Y42095181D02*
X54973809Y42095181D01*
X54973809Y42095181D02*
X55069047Y42047562D01*
X55069047Y42047562D02*
X55116666Y41999943D01*
X55116666Y41999943D02*
X55164285Y41904705D01*
X55164285Y41904705D02*
X55211904Y41714229D01*
X55211904Y41714229D02*
X55211904Y41476134D01*
X55211904Y41476134D02*
X55164285Y41285658D01*
X55164285Y41285658D02*
X55116666Y41190420D01*
X55116666Y41190420D02*
X55069047Y41142800D01*
X55069047Y41142800D02*
X54973809Y41095181D01*
X54973809Y41095181D02*
X54878571Y41095181D01*
X54878571Y41095181D02*
X54783333Y41142800D01*
X54783333Y41142800D02*
X54735714Y41190420D01*
X54735714Y41190420D02*
X54688095Y41285658D01*
X54688095Y41285658D02*
X54640476Y41476134D01*
X54640476Y41476134D02*
X54640476Y41714229D01*
X54640476Y41714229D02*
X54688095Y41904705D01*
X54688095Y41904705D02*
X54735714Y41999943D01*
X54735714Y41999943D02*
X54783333Y42047562D01*
X54783333Y42047562D02*
X54878571Y42095181D01*
X31982142Y46840420D02*
X31934523Y46792800D01*
X31934523Y46792800D02*
X31791666Y46745181D01*
X31791666Y46745181D02*
X31696428Y46745181D01*
X31696428Y46745181D02*
X31553571Y46792800D01*
X31553571Y46792800D02*
X31458333Y46888039D01*
X31458333Y46888039D02*
X31410714Y46983277D01*
X31410714Y46983277D02*
X31363095Y47173753D01*
X31363095Y47173753D02*
X31363095Y47316610D01*
X31363095Y47316610D02*
X31410714Y47507086D01*
X31410714Y47507086D02*
X31458333Y47602324D01*
X31458333Y47602324D02*
X31553571Y47697562D01*
X31553571Y47697562D02*
X31696428Y47745181D01*
X31696428Y47745181D02*
X31791666Y47745181D01*
X31791666Y47745181D02*
X31934523Y47697562D01*
X31934523Y47697562D02*
X31982142Y47649943D01*
X32934523Y46745181D02*
X32363095Y46745181D01*
X32648809Y46745181D02*
X32648809Y47745181D01*
X32648809Y47745181D02*
X32553571Y47602324D01*
X32553571Y47602324D02*
X32458333Y47507086D01*
X32458333Y47507086D02*
X32363095Y47459467D01*
X33410714Y46745181D02*
X33601190Y46745181D01*
X33601190Y46745181D02*
X33696428Y46792800D01*
X33696428Y46792800D02*
X33744047Y46840420D01*
X33744047Y46840420D02*
X33839285Y46983277D01*
X33839285Y46983277D02*
X33886904Y47173753D01*
X33886904Y47173753D02*
X33886904Y47554705D01*
X33886904Y47554705D02*
X33839285Y47649943D01*
X33839285Y47649943D02*
X33791666Y47697562D01*
X33791666Y47697562D02*
X33696428Y47745181D01*
X33696428Y47745181D02*
X33505952Y47745181D01*
X33505952Y47745181D02*
X33410714Y47697562D01*
X33410714Y47697562D02*
X33363095Y47649943D01*
X33363095Y47649943D02*
X33315476Y47554705D01*
X33315476Y47554705D02*
X33315476Y47316610D01*
X33315476Y47316610D02*
X33363095Y47221372D01*
X33363095Y47221372D02*
X33410714Y47173753D01*
X33410714Y47173753D02*
X33505952Y47126134D01*
X33505952Y47126134D02*
X33696428Y47126134D01*
X33696428Y47126134D02*
X33791666Y47173753D01*
X33791666Y47173753D02*
X33839285Y47221372D01*
X33839285Y47221372D02*
X33886904Y47316610D01*
D11*
X31270238Y39130444D02*
X31270238Y38525682D01*
X30846905Y39795682D02*
X31270238Y39130444D01*
X31270238Y39130444D02*
X31693572Y39795682D01*
X32782143Y38525682D02*
X32056428Y38525682D01*
X32419285Y38525682D02*
X32419285Y39795682D01*
X32419285Y39795682D02*
X32298333Y39614254D01*
X32298333Y39614254D02*
X32177381Y39493301D01*
X32177381Y39493301D02*
X32056428Y39432825D01*
D12*
X13257142Y11465420D02*
X13209523Y11417800D01*
X13209523Y11417800D02*
X13066666Y11370181D01*
X13066666Y11370181D02*
X12971428Y11370181D01*
X12971428Y11370181D02*
X12828571Y11417800D01*
X12828571Y11417800D02*
X12733333Y11513039D01*
X12733333Y11513039D02*
X12685714Y11608277D01*
X12685714Y11608277D02*
X12638095Y11798753D01*
X12638095Y11798753D02*
X12638095Y11941610D01*
X12638095Y11941610D02*
X12685714Y12132086D01*
X12685714Y12132086D02*
X12733333Y12227324D01*
X12733333Y12227324D02*
X12828571Y12322562D01*
X12828571Y12322562D02*
X12971428Y12370181D01*
X12971428Y12370181D02*
X13066666Y12370181D01*
X13066666Y12370181D02*
X13209523Y12322562D01*
X13209523Y12322562D02*
X13257142Y12274943D01*
X14209523Y11370181D02*
X13638095Y11370181D01*
X13923809Y11370181D02*
X13923809Y12370181D01*
X13923809Y12370181D02*
X13828571Y12227324D01*
X13828571Y12227324D02*
X13733333Y12132086D01*
X13733333Y12132086D02*
X13638095Y12084467D01*
X15114285Y12370181D02*
X14638095Y12370181D01*
X14638095Y12370181D02*
X14590476Y11893991D01*
X14590476Y11893991D02*
X14638095Y11941610D01*
X14638095Y11941610D02*
X14733333Y11989229D01*
X14733333Y11989229D02*
X14971428Y11989229D01*
X14971428Y11989229D02*
X15066666Y11941610D01*
X15066666Y11941610D02*
X15114285Y11893991D01*
X15114285Y11893991D02*
X15161904Y11798753D01*
X15161904Y11798753D02*
X15161904Y11560658D01*
X15161904Y11560658D02*
X15114285Y11465420D01*
X15114285Y11465420D02*
X15066666Y11417800D01*
X15066666Y11417800D02*
X14971428Y11370181D01*
X14971428Y11370181D02*
X14733333Y11370181D01*
X14733333Y11370181D02*
X14638095Y11417800D01*
X14638095Y11417800D02*
X14590476Y11465420D01*
X45582142Y25745181D02*
X45248809Y26221372D01*
X45010714Y25745181D02*
X45010714Y26745181D01*
X45010714Y26745181D02*
X45391666Y26745181D01*
X45391666Y26745181D02*
X45486904Y26697562D01*
X45486904Y26697562D02*
X45534523Y26649943D01*
X45534523Y26649943D02*
X45582142Y26554705D01*
X45582142Y26554705D02*
X45582142Y26411848D01*
X45582142Y26411848D02*
X45534523Y26316610D01*
X45534523Y26316610D02*
X45486904Y26268991D01*
X45486904Y26268991D02*
X45391666Y26221372D01*
X45391666Y26221372D02*
X45010714Y26221372D01*
X46534523Y25745181D02*
X45963095Y25745181D01*
X46248809Y25745181D02*
X46248809Y26745181D01*
X46248809Y26745181D02*
X46153571Y26602324D01*
X46153571Y26602324D02*
X46058333Y26507086D01*
X46058333Y26507086D02*
X45963095Y26459467D01*
X47486904Y25745181D02*
X46915476Y25745181D01*
X47201190Y25745181D02*
X47201190Y26745181D01*
X47201190Y26745181D02*
X47105952Y26602324D01*
X47105952Y26602324D02*
X47010714Y26507086D01*
X47010714Y26507086D02*
X46915476Y26459467D01*
D11*
X36513333Y5000682D02*
X36089999Y5605444D01*
X35787618Y5000682D02*
X35787618Y6270682D01*
X35787618Y6270682D02*
X36271428Y6270682D01*
X36271428Y6270682D02*
X36392380Y6210206D01*
X36392380Y6210206D02*
X36452857Y6149730D01*
X36452857Y6149730D02*
X36513333Y6028778D01*
X36513333Y6028778D02*
X36513333Y5847349D01*
X36513333Y5847349D02*
X36452857Y5726397D01*
X36452857Y5726397D02*
X36392380Y5665920D01*
X36392380Y5665920D02*
X36271428Y5605444D01*
X36271428Y5605444D02*
X35787618Y5605444D01*
X37601904Y6270682D02*
X37359999Y6270682D01*
X37359999Y6270682D02*
X37239047Y6210206D01*
X37239047Y6210206D02*
X37178571Y6149730D01*
X37178571Y6149730D02*
X37057618Y5968301D01*
X37057618Y5968301D02*
X36997142Y5726397D01*
X36997142Y5726397D02*
X36997142Y5242587D01*
X36997142Y5242587D02*
X37057618Y5121635D01*
X37057618Y5121635D02*
X37118095Y5061158D01*
X37118095Y5061158D02*
X37239047Y5000682D01*
X37239047Y5000682D02*
X37480952Y5000682D01*
X37480952Y5000682D02*
X37601904Y5061158D01*
X37601904Y5061158D02*
X37662380Y5121635D01*
X37662380Y5121635D02*
X37722857Y5242587D01*
X37722857Y5242587D02*
X37722857Y5544968D01*
X37722857Y5544968D02*
X37662380Y5665920D01*
X37662380Y5665920D02*
X37601904Y5726397D01*
X37601904Y5726397D02*
X37480952Y5786873D01*
X37480952Y5786873D02*
X37239047Y5786873D01*
X37239047Y5786873D02*
X37118095Y5726397D01*
X37118095Y5726397D02*
X37057618Y5665920D01*
X37057618Y5665920D02*
X36997142Y5544968D01*
D12*
X55280895Y30816667D02*
X55280895Y30340477D01*
X54995180Y30911905D02*
X55995180Y30578572D01*
X55995180Y30578572D02*
X54995180Y30245239D01*
X55518990Y29911905D02*
X55518990Y29578572D01*
X54995180Y29435715D02*
X54995180Y29911905D01*
X54995180Y29911905D02*
X55995180Y29911905D01*
X55995180Y29911905D02*
X55995180Y29435715D01*
X54995180Y28483334D02*
X54995180Y29054762D01*
X54995180Y28769048D02*
X55995180Y28769048D01*
X55995180Y28769048D02*
X55852323Y28864286D01*
X55852323Y28864286D02*
X55757085Y28959524D01*
X55757085Y28959524D02*
X55709466Y29054762D01*
X21733333Y33395181D02*
X21400000Y33871372D01*
X21161905Y33395181D02*
X21161905Y34395181D01*
X21161905Y34395181D02*
X21542857Y34395181D01*
X21542857Y34395181D02*
X21638095Y34347562D01*
X21638095Y34347562D02*
X21685714Y34299943D01*
X21685714Y34299943D02*
X21733333Y34204705D01*
X21733333Y34204705D02*
X21733333Y34061848D01*
X21733333Y34061848D02*
X21685714Y33966610D01*
X21685714Y33966610D02*
X21638095Y33918991D01*
X21638095Y33918991D02*
X21542857Y33871372D01*
X21542857Y33871372D02*
X21161905Y33871372D01*
X22638095Y34395181D02*
X22161905Y34395181D01*
X22161905Y34395181D02*
X22114286Y33918991D01*
X22114286Y33918991D02*
X22161905Y33966610D01*
X22161905Y33966610D02*
X22257143Y34014229D01*
X22257143Y34014229D02*
X22495238Y34014229D01*
X22495238Y34014229D02*
X22590476Y33966610D01*
X22590476Y33966610D02*
X22638095Y33918991D01*
X22638095Y33918991D02*
X22685714Y33823753D01*
X22685714Y33823753D02*
X22685714Y33585658D01*
X22685714Y33585658D02*
X22638095Y33490420D01*
X22638095Y33490420D02*
X22590476Y33442800D01*
X22590476Y33442800D02*
X22495238Y33395181D01*
X22495238Y33395181D02*
X22257143Y33395181D01*
X22257143Y33395181D02*
X22161905Y33442800D01*
X22161905Y33442800D02*
X22114286Y33490420D01*
X2082142Y30465420D02*
X2034523Y30417800D01*
X2034523Y30417800D02*
X1891666Y30370181D01*
X1891666Y30370181D02*
X1796428Y30370181D01*
X1796428Y30370181D02*
X1653571Y30417800D01*
X1653571Y30417800D02*
X1558333Y30513039D01*
X1558333Y30513039D02*
X1510714Y30608277D01*
X1510714Y30608277D02*
X1463095Y30798753D01*
X1463095Y30798753D02*
X1463095Y30941610D01*
X1463095Y30941610D02*
X1510714Y31132086D01*
X1510714Y31132086D02*
X1558333Y31227324D01*
X1558333Y31227324D02*
X1653571Y31322562D01*
X1653571Y31322562D02*
X1796428Y31370181D01*
X1796428Y31370181D02*
X1891666Y31370181D01*
X1891666Y31370181D02*
X2034523Y31322562D01*
X2034523Y31322562D02*
X2082142Y31274943D01*
X3034523Y30370181D02*
X2463095Y30370181D01*
X2748809Y30370181D02*
X2748809Y31370181D01*
X2748809Y31370181D02*
X2653571Y31227324D01*
X2653571Y31227324D02*
X2558333Y31132086D01*
X2558333Y31132086D02*
X2463095Y31084467D01*
X3891666Y31036848D02*
X3891666Y30370181D01*
X3653571Y31417800D02*
X3415476Y30703515D01*
X3415476Y30703515D02*
X4034523Y30703515D01*
X45737142Y22040420D02*
X45689523Y21992800D01*
X45689523Y21992800D02*
X45546666Y21945181D01*
X45546666Y21945181D02*
X45451428Y21945181D01*
X45451428Y21945181D02*
X45308571Y21992800D01*
X45308571Y21992800D02*
X45213333Y22088039D01*
X45213333Y22088039D02*
X45165714Y22183277D01*
X45165714Y22183277D02*
X45118095Y22373753D01*
X45118095Y22373753D02*
X45118095Y22516610D01*
X45118095Y22516610D02*
X45165714Y22707086D01*
X45165714Y22707086D02*
X45213333Y22802324D01*
X45213333Y22802324D02*
X45308571Y22897562D01*
X45308571Y22897562D02*
X45451428Y22945181D01*
X45451428Y22945181D02*
X45546666Y22945181D01*
X45546666Y22945181D02*
X45689523Y22897562D01*
X45689523Y22897562D02*
X45737142Y22849943D01*
X46689523Y21945181D02*
X46118095Y21945181D01*
X46403809Y21945181D02*
X46403809Y22945181D01*
X46403809Y22945181D02*
X46308571Y22802324D01*
X46308571Y22802324D02*
X46213333Y22707086D01*
X46213333Y22707086D02*
X46118095Y22659467D01*
X47260952Y22516610D02*
X47165714Y22564229D01*
X47165714Y22564229D02*
X47118095Y22611848D01*
X47118095Y22611848D02*
X47070476Y22707086D01*
X47070476Y22707086D02*
X47070476Y22754705D01*
X47070476Y22754705D02*
X47118095Y22849943D01*
X47118095Y22849943D02*
X47165714Y22897562D01*
X47165714Y22897562D02*
X47260952Y22945181D01*
X47260952Y22945181D02*
X47451428Y22945181D01*
X47451428Y22945181D02*
X47546666Y22897562D01*
X47546666Y22897562D02*
X47594285Y22849943D01*
X47594285Y22849943D02*
X47641904Y22754705D01*
X47641904Y22754705D02*
X47641904Y22707086D01*
X47641904Y22707086D02*
X47594285Y22611848D01*
X47594285Y22611848D02*
X47546666Y22564229D01*
X47546666Y22564229D02*
X47451428Y22516610D01*
X47451428Y22516610D02*
X47260952Y22516610D01*
X47260952Y22516610D02*
X47165714Y22468991D01*
X47165714Y22468991D02*
X47118095Y22421372D01*
X47118095Y22421372D02*
X47070476Y22326134D01*
X47070476Y22326134D02*
X47070476Y22135658D01*
X47070476Y22135658D02*
X47118095Y22040420D01*
X47118095Y22040420D02*
X47165714Y21992800D01*
X47165714Y21992800D02*
X47260952Y21945181D01*
X47260952Y21945181D02*
X47451428Y21945181D01*
X47451428Y21945181D02*
X47546666Y21992800D01*
X47546666Y21992800D02*
X47594285Y22040420D01*
X47594285Y22040420D02*
X47641904Y22135658D01*
X47641904Y22135658D02*
X47641904Y22326134D01*
X47641904Y22326134D02*
X47594285Y22421372D01*
X47594285Y22421372D02*
X47546666Y22468991D01*
X47546666Y22468991D02*
X47451428Y22516610D01*
X6897142Y19215181D02*
X6563809Y19691372D01*
X6325714Y19215181D02*
X6325714Y20215181D01*
X6325714Y20215181D02*
X6706666Y20215181D01*
X6706666Y20215181D02*
X6801904Y20167562D01*
X6801904Y20167562D02*
X6849523Y20119943D01*
X6849523Y20119943D02*
X6897142Y20024705D01*
X6897142Y20024705D02*
X6897142Y19881848D01*
X6897142Y19881848D02*
X6849523Y19786610D01*
X6849523Y19786610D02*
X6801904Y19738991D01*
X6801904Y19738991D02*
X6706666Y19691372D01*
X6706666Y19691372D02*
X6325714Y19691372D01*
X7230476Y20215181D02*
X7849523Y20215181D01*
X7849523Y20215181D02*
X7516190Y19834229D01*
X7516190Y19834229D02*
X7659047Y19834229D01*
X7659047Y19834229D02*
X7754285Y19786610D01*
X7754285Y19786610D02*
X7801904Y19738991D01*
X7801904Y19738991D02*
X7849523Y19643753D01*
X7849523Y19643753D02*
X7849523Y19405658D01*
X7849523Y19405658D02*
X7801904Y19310420D01*
X7801904Y19310420D02*
X7754285Y19262800D01*
X7754285Y19262800D02*
X7659047Y19215181D01*
X7659047Y19215181D02*
X7373333Y19215181D01*
X7373333Y19215181D02*
X7278095Y19262800D01*
X7278095Y19262800D02*
X7230476Y19310420D01*
X8230476Y20119943D02*
X8278095Y20167562D01*
X8278095Y20167562D02*
X8373333Y20215181D01*
X8373333Y20215181D02*
X8611428Y20215181D01*
X8611428Y20215181D02*
X8706666Y20167562D01*
X8706666Y20167562D02*
X8754285Y20119943D01*
X8754285Y20119943D02*
X8801904Y20024705D01*
X8801904Y20024705D02*
X8801904Y19929467D01*
X8801904Y19929467D02*
X8754285Y19786610D01*
X8754285Y19786610D02*
X8182857Y19215181D01*
X8182857Y19215181D02*
X8801904Y19215181D01*
X21358333Y45465420D02*
X21310714Y45417800D01*
X21310714Y45417800D02*
X21167857Y45370181D01*
X21167857Y45370181D02*
X21072619Y45370181D01*
X21072619Y45370181D02*
X20929762Y45417800D01*
X20929762Y45417800D02*
X20834524Y45513039D01*
X20834524Y45513039D02*
X20786905Y45608277D01*
X20786905Y45608277D02*
X20739286Y45798753D01*
X20739286Y45798753D02*
X20739286Y45941610D01*
X20739286Y45941610D02*
X20786905Y46132086D01*
X20786905Y46132086D02*
X20834524Y46227324D01*
X20834524Y46227324D02*
X20929762Y46322562D01*
X20929762Y46322562D02*
X21072619Y46370181D01*
X21072619Y46370181D02*
X21167857Y46370181D01*
X21167857Y46370181D02*
X21310714Y46322562D01*
X21310714Y46322562D02*
X21358333Y46274943D01*
X21929762Y45941610D02*
X21834524Y45989229D01*
X21834524Y45989229D02*
X21786905Y46036848D01*
X21786905Y46036848D02*
X21739286Y46132086D01*
X21739286Y46132086D02*
X21739286Y46179705D01*
X21739286Y46179705D02*
X21786905Y46274943D01*
X21786905Y46274943D02*
X21834524Y46322562D01*
X21834524Y46322562D02*
X21929762Y46370181D01*
X21929762Y46370181D02*
X22120238Y46370181D01*
X22120238Y46370181D02*
X22215476Y46322562D01*
X22215476Y46322562D02*
X22263095Y46274943D01*
X22263095Y46274943D02*
X22310714Y46179705D01*
X22310714Y46179705D02*
X22310714Y46132086D01*
X22310714Y46132086D02*
X22263095Y46036848D01*
X22263095Y46036848D02*
X22215476Y45989229D01*
X22215476Y45989229D02*
X22120238Y45941610D01*
X22120238Y45941610D02*
X21929762Y45941610D01*
X21929762Y45941610D02*
X21834524Y45893991D01*
X21834524Y45893991D02*
X21786905Y45846372D01*
X21786905Y45846372D02*
X21739286Y45751134D01*
X21739286Y45751134D02*
X21739286Y45560658D01*
X21739286Y45560658D02*
X21786905Y45465420D01*
X21786905Y45465420D02*
X21834524Y45417800D01*
X21834524Y45417800D02*
X21929762Y45370181D01*
X21929762Y45370181D02*
X22120238Y45370181D01*
X22120238Y45370181D02*
X22215476Y45417800D01*
X22215476Y45417800D02*
X22263095Y45465420D01*
X22263095Y45465420D02*
X22310714Y45560658D01*
X22310714Y45560658D02*
X22310714Y45751134D01*
X22310714Y45751134D02*
X22263095Y45846372D01*
X22263095Y45846372D02*
X22215476Y45893991D01*
X22215476Y45893991D02*
X22120238Y45941610D01*
X11858333Y43165420D02*
X11810714Y43117800D01*
X11810714Y43117800D02*
X11667857Y43070181D01*
X11667857Y43070181D02*
X11572619Y43070181D01*
X11572619Y43070181D02*
X11429762Y43117800D01*
X11429762Y43117800D02*
X11334524Y43213039D01*
X11334524Y43213039D02*
X11286905Y43308277D01*
X11286905Y43308277D02*
X11239286Y43498753D01*
X11239286Y43498753D02*
X11239286Y43641610D01*
X11239286Y43641610D02*
X11286905Y43832086D01*
X11286905Y43832086D02*
X11334524Y43927324D01*
X11334524Y43927324D02*
X11429762Y44022562D01*
X11429762Y44022562D02*
X11572619Y44070181D01*
X11572619Y44070181D02*
X11667857Y44070181D01*
X11667857Y44070181D02*
X11810714Y44022562D01*
X11810714Y44022562D02*
X11858333Y43974943D01*
X12715476Y44070181D02*
X12525000Y44070181D01*
X12525000Y44070181D02*
X12429762Y44022562D01*
X12429762Y44022562D02*
X12382143Y43974943D01*
X12382143Y43974943D02*
X12286905Y43832086D01*
X12286905Y43832086D02*
X12239286Y43641610D01*
X12239286Y43641610D02*
X12239286Y43260658D01*
X12239286Y43260658D02*
X12286905Y43165420D01*
X12286905Y43165420D02*
X12334524Y43117800D01*
X12334524Y43117800D02*
X12429762Y43070181D01*
X12429762Y43070181D02*
X12620238Y43070181D01*
X12620238Y43070181D02*
X12715476Y43117800D01*
X12715476Y43117800D02*
X12763095Y43165420D01*
X12763095Y43165420D02*
X12810714Y43260658D01*
X12810714Y43260658D02*
X12810714Y43498753D01*
X12810714Y43498753D02*
X12763095Y43593991D01*
X12763095Y43593991D02*
X12715476Y43641610D01*
X12715476Y43641610D02*
X12620238Y43689229D01*
X12620238Y43689229D02*
X12429762Y43689229D01*
X12429762Y43689229D02*
X12334524Y43641610D01*
X12334524Y43641610D02*
X12286905Y43593991D01*
X12286905Y43593991D02*
X12239286Y43498753D01*
X3116666Y18445181D02*
X3116666Y17730896D01*
X3116666Y17730896D02*
X3069047Y17588039D01*
X3069047Y17588039D02*
X2973809Y17492800D01*
X2973809Y17492800D02*
X2830952Y17445181D01*
X2830952Y17445181D02*
X2735714Y17445181D01*
X4021428Y18111848D02*
X4021428Y17445181D01*
X3783333Y18492800D02*
X3545238Y17778515D01*
X3545238Y17778515D02*
X4164285Y17778515D01*
X31107142Y50370420D02*
X31059523Y50322800D01*
X31059523Y50322800D02*
X30916666Y50275181D01*
X30916666Y50275181D02*
X30821428Y50275181D01*
X30821428Y50275181D02*
X30678571Y50322800D01*
X30678571Y50322800D02*
X30583333Y50418039D01*
X30583333Y50418039D02*
X30535714Y50513277D01*
X30535714Y50513277D02*
X30488095Y50703753D01*
X30488095Y50703753D02*
X30488095Y50846610D01*
X30488095Y50846610D02*
X30535714Y51037086D01*
X30535714Y51037086D02*
X30583333Y51132324D01*
X30583333Y51132324D02*
X30678571Y51227562D01*
X30678571Y51227562D02*
X30821428Y51275181D01*
X30821428Y51275181D02*
X30916666Y51275181D01*
X30916666Y51275181D02*
X31059523Y51227562D01*
X31059523Y51227562D02*
X31107142Y51179943D01*
X31488095Y51179943D02*
X31535714Y51227562D01*
X31535714Y51227562D02*
X31630952Y51275181D01*
X31630952Y51275181D02*
X31869047Y51275181D01*
X31869047Y51275181D02*
X31964285Y51227562D01*
X31964285Y51227562D02*
X32011904Y51179943D01*
X32011904Y51179943D02*
X32059523Y51084705D01*
X32059523Y51084705D02*
X32059523Y50989467D01*
X32059523Y50989467D02*
X32011904Y50846610D01*
X32011904Y50846610D02*
X31440476Y50275181D01*
X31440476Y50275181D02*
X32059523Y50275181D01*
X32916666Y50941848D02*
X32916666Y50275181D01*
X32678571Y51322800D02*
X32440476Y50608515D01*
X32440476Y50608515D02*
X33059523Y50608515D01*
X35188095Y53145181D02*
X35188095Y54145181D01*
X35188095Y53668991D02*
X35759523Y53668991D01*
X35759523Y53145181D02*
X35759523Y54145181D01*
X36759523Y53145181D02*
X36188095Y53145181D01*
X36473809Y53145181D02*
X36473809Y54145181D01*
X36473809Y54145181D02*
X36378571Y54002324D01*
X36378571Y54002324D02*
X36283333Y53907086D01*
X36283333Y53907086D02*
X36188095Y53859467D01*
X11982142Y46965420D02*
X11934523Y46917800D01*
X11934523Y46917800D02*
X11791666Y46870181D01*
X11791666Y46870181D02*
X11696428Y46870181D01*
X11696428Y46870181D02*
X11553571Y46917800D01*
X11553571Y46917800D02*
X11458333Y47013039D01*
X11458333Y47013039D02*
X11410714Y47108277D01*
X11410714Y47108277D02*
X11363095Y47298753D01*
X11363095Y47298753D02*
X11363095Y47441610D01*
X11363095Y47441610D02*
X11410714Y47632086D01*
X11410714Y47632086D02*
X11458333Y47727324D01*
X11458333Y47727324D02*
X11553571Y47822562D01*
X11553571Y47822562D02*
X11696428Y47870181D01*
X11696428Y47870181D02*
X11791666Y47870181D01*
X11791666Y47870181D02*
X11934523Y47822562D01*
X11934523Y47822562D02*
X11982142Y47774943D01*
X12934523Y46870181D02*
X12363095Y46870181D01*
X12648809Y46870181D02*
X12648809Y47870181D01*
X12648809Y47870181D02*
X12553571Y47727324D01*
X12553571Y47727324D02*
X12458333Y47632086D01*
X12458333Y47632086D02*
X12363095Y47584467D01*
X13267857Y47870181D02*
X13886904Y47870181D01*
X13886904Y47870181D02*
X13553571Y47489229D01*
X13553571Y47489229D02*
X13696428Y47489229D01*
X13696428Y47489229D02*
X13791666Y47441610D01*
X13791666Y47441610D02*
X13839285Y47393991D01*
X13839285Y47393991D02*
X13886904Y47298753D01*
X13886904Y47298753D02*
X13886904Y47060658D01*
X13886904Y47060658D02*
X13839285Y46965420D01*
X13839285Y46965420D02*
X13791666Y46917800D01*
X13791666Y46917800D02*
X13696428Y46870181D01*
X13696428Y46870181D02*
X13410714Y46870181D01*
X13410714Y46870181D02*
X13315476Y46917800D01*
X13315476Y46917800D02*
X13267857Y46965420D01*
X7238095Y7770181D02*
X7238095Y8770181D01*
X7238095Y8293991D02*
X7809523Y8293991D01*
X7809523Y7770181D02*
X7809523Y8770181D01*
X8190476Y8770181D02*
X8809523Y8770181D01*
X8809523Y8770181D02*
X8476190Y8389229D01*
X8476190Y8389229D02*
X8619047Y8389229D01*
X8619047Y8389229D02*
X8714285Y8341610D01*
X8714285Y8341610D02*
X8761904Y8293991D01*
X8761904Y8293991D02*
X8809523Y8198753D01*
X8809523Y8198753D02*
X8809523Y7960658D01*
X8809523Y7960658D02*
X8761904Y7865420D01*
X8761904Y7865420D02*
X8714285Y7817800D01*
X8714285Y7817800D02*
X8619047Y7770181D01*
X8619047Y7770181D02*
X8333333Y7770181D01*
X8333333Y7770181D02*
X8238095Y7817800D01*
X8238095Y7817800D02*
X8190476Y7865420D01*
X53332142Y37315420D02*
X53284523Y37267800D01*
X53284523Y37267800D02*
X53141666Y37220181D01*
X53141666Y37220181D02*
X53046428Y37220181D01*
X53046428Y37220181D02*
X52903571Y37267800D01*
X52903571Y37267800D02*
X52808333Y37363039D01*
X52808333Y37363039D02*
X52760714Y37458277D01*
X52760714Y37458277D02*
X52713095Y37648753D01*
X52713095Y37648753D02*
X52713095Y37791610D01*
X52713095Y37791610D02*
X52760714Y37982086D01*
X52760714Y37982086D02*
X52808333Y38077324D01*
X52808333Y38077324D02*
X52903571Y38172562D01*
X52903571Y38172562D02*
X53046428Y38220181D01*
X53046428Y38220181D02*
X53141666Y38220181D01*
X53141666Y38220181D02*
X53284523Y38172562D01*
X53284523Y38172562D02*
X53332142Y38124943D01*
X53713095Y38124943D02*
X53760714Y38172562D01*
X53760714Y38172562D02*
X53855952Y38220181D01*
X53855952Y38220181D02*
X54094047Y38220181D01*
X54094047Y38220181D02*
X54189285Y38172562D01*
X54189285Y38172562D02*
X54236904Y38124943D01*
X54236904Y38124943D02*
X54284523Y38029705D01*
X54284523Y38029705D02*
X54284523Y37934467D01*
X54284523Y37934467D02*
X54236904Y37791610D01*
X54236904Y37791610D02*
X53665476Y37220181D01*
X53665476Y37220181D02*
X54284523Y37220181D01*
X55236904Y37220181D02*
X54665476Y37220181D01*
X54951190Y37220181D02*
X54951190Y38220181D01*
X54951190Y38220181D02*
X54855952Y38077324D01*
X54855952Y38077324D02*
X54760714Y37982086D01*
X54760714Y37982086D02*
X54665476Y37934467D01*
X6957142Y23345181D02*
X6623809Y23821372D01*
X6385714Y23345181D02*
X6385714Y24345181D01*
X6385714Y24345181D02*
X6766666Y24345181D01*
X6766666Y24345181D02*
X6861904Y24297562D01*
X6861904Y24297562D02*
X6909523Y24249943D01*
X6909523Y24249943D02*
X6957142Y24154705D01*
X6957142Y24154705D02*
X6957142Y24011848D01*
X6957142Y24011848D02*
X6909523Y23916610D01*
X6909523Y23916610D02*
X6861904Y23868991D01*
X6861904Y23868991D02*
X6766666Y23821372D01*
X6766666Y23821372D02*
X6385714Y23821372D01*
X7290476Y24345181D02*
X7909523Y24345181D01*
X7909523Y24345181D02*
X7576190Y23964229D01*
X7576190Y23964229D02*
X7719047Y23964229D01*
X7719047Y23964229D02*
X7814285Y23916610D01*
X7814285Y23916610D02*
X7861904Y23868991D01*
X7861904Y23868991D02*
X7909523Y23773753D01*
X7909523Y23773753D02*
X7909523Y23535658D01*
X7909523Y23535658D02*
X7861904Y23440420D01*
X7861904Y23440420D02*
X7814285Y23392800D01*
X7814285Y23392800D02*
X7719047Y23345181D01*
X7719047Y23345181D02*
X7433333Y23345181D01*
X7433333Y23345181D02*
X7338095Y23392800D01*
X7338095Y23392800D02*
X7290476Y23440420D01*
X8861904Y23345181D02*
X8290476Y23345181D01*
X8576190Y23345181D02*
X8576190Y24345181D01*
X8576190Y24345181D02*
X8480952Y24202324D01*
X8480952Y24202324D02*
X8385714Y24107086D01*
X8385714Y24107086D02*
X8290476Y24059467D01*
D13*
%TO.C,U1*%
X26920000Y4600000D02*
X26920000Y4600000D01*
X26920000Y15600000D02*
X26920000Y15600000D01*
X33160000Y10100000D02*
X33160000Y10100000D01*
X33060000Y10100000D02*
X33060000Y10100000D01*
X33160000Y10100000D02*
X33160000Y10100000D01*
X26920000Y4600000D02*
G75*
G03*
X26920000Y15600000I0J5500000D01*
G01*
X26920000Y15600000D02*
G75*
G03*
X26920000Y4600000I0J-5500000D01*
G01*
X33160000Y10100000D02*
G75*
G03*
X33060000Y10100000I-50000J0D01*
G01*
X33060000Y10100000D02*
G75*
G03*
X33160000Y10100000I50000J0D01*
G01*
X33160000Y10100000D02*
G75*
G03*
X33060000Y10100000I-50000J0D01*
G01*
%TO.C,S1*%
X59310000Y7600000D02*
X41310000Y7600000D01*
X41310000Y7600000D02*
X41310000Y13100000D01*
X41310000Y13100000D02*
X59310000Y13100000D01*
X59310000Y13100000D02*
X59310000Y7600000D01*
D14*
X59810000Y9600000D02*
X59810000Y9600000D01*
X59910000Y9600000D02*
X59910000Y9600000D01*
X59810000Y9600000D02*
G75*
G03*
X59910000Y9600000I50000J0D01*
G01*
X59910000Y9600000D02*
G75*
G03*
X59810000Y9600000I-50000J0D01*
G01*
D13*
%TO.C,J2*%
X9650000Y56325000D02*
X9650000Y56850000D01*
X9650000Y56850000D02*
X2150000Y56850000D01*
X2150000Y56850000D02*
X2150000Y56325000D01*
D14*
X7200000Y51325000D02*
X7200000Y51325000D01*
X7200000Y51225000D02*
X7200000Y51225000D01*
X7200000Y51325000D02*
G75*
G03*
X7200000Y51225000I0J-50000D01*
G01*
X7200000Y51225000D02*
G75*
G03*
X7200000Y51325000I0J50000D01*
G01*
D13*
%TO.C,IC5*%
X47920000Y49880000D02*
X49320000Y49880000D01*
X49320000Y49880000D02*
X49320000Y48480000D01*
X49320000Y39280000D02*
X49320000Y37880000D01*
X49320000Y37880000D02*
X47920000Y37880000D01*
X37320000Y39280000D02*
X37320000Y37880000D01*
X37320000Y37880000D02*
X38720000Y37880000D01*
X38720000Y49880000D02*
X37320000Y49880000D01*
X37320000Y49880000D02*
X37320000Y48480000D01*
D14*
X35720000Y47630000D02*
X35720000Y47630000D01*
X35620000Y47630000D02*
X35620000Y47630000D01*
X35720000Y47630000D02*
G75*
G03*
X35620000Y47630000I-50000J0D01*
G01*
X35620000Y47630000D02*
G75*
G03*
X35720000Y47630000I50000J0D01*
G01*
D15*
%TO.C,IC4*%
X44315000Y28385000D02*
G75*
G03*
X44315000Y28385000I-125000J0D01*
G01*
%TO.C,IC3*%
X12105000Y6800000D02*
G75*
G03*
X12105000Y6800000I-125000J0D01*
G01*
D14*
%TO.C,IC2*%
X16140000Y11380000D02*
X16640000Y11380000D01*
X16640000Y11380000D02*
X16640000Y11380000D01*
X16640000Y11380000D02*
X16140000Y11380000D01*
X16140000Y11380000D02*
X16140000Y11380000D01*
X18640000Y11380000D02*
X19140000Y11380000D01*
X19140000Y11380000D02*
X19140000Y11380000D01*
X19140000Y11380000D02*
X18640000Y11380000D01*
X18640000Y11380000D02*
X18640000Y11380000D01*
X18640000Y8380000D02*
X19140000Y8380000D01*
X19140000Y8380000D02*
X19140000Y8380000D01*
X19140000Y8380000D02*
X18640000Y8380000D01*
X18640000Y8380000D02*
X18640000Y8380000D01*
X16140000Y8380000D02*
X16640000Y8380000D01*
X16640000Y8380000D02*
X16640000Y8380000D01*
X16640000Y8380000D02*
X16140000Y8380000D01*
X16140000Y8380000D02*
X16140000Y8380000D01*
D13*
X17140000Y7580000D02*
X17140000Y7580000D01*
X17140000Y7680000D02*
X17140000Y7680000D01*
X17140000Y7580000D02*
X17140000Y7580000D01*
X17140000Y7580000D02*
G75*
G03*
X17140000Y7680000I0J50000D01*
G01*
X17140000Y7680000D02*
G75*
G03*
X17140000Y7580000I0J-50000D01*
G01*
X17140000Y7580000D02*
G75*
G03*
X17140000Y7680000I0J50000D01*
G01*
%TO.C,IC1*%
X14980000Y55870000D02*
X21075000Y55870000D01*
X21075000Y55870000D02*
X21075000Y49330000D01*
X21075000Y49330000D02*
X14980000Y49330000D01*
D14*
X26190000Y50400000D02*
X26190000Y50400000D01*
X26190000Y50300000D02*
X26190000Y50300000D01*
X26190000Y50400000D02*
G75*
G03*
X26190000Y50300000I0J-50000D01*
G01*
X26190000Y50300000D02*
G75*
G03*
X26190000Y50400000I0J50000D01*
G01*
D16*
%TO.C,C25*%
X2541252Y27675000D02*
X2018748Y27675000D01*
X2541252Y29145000D02*
X2018748Y29145000D01*
%TO.C,R3*%
X11976359Y41905000D02*
X12283641Y41905000D01*
X11976359Y41145000D02*
X12283641Y41145000D01*
%TO.C,C5*%
X24137164Y43185000D02*
X24352836Y43185000D01*
X24137164Y42465000D02*
X24352836Y42465000D01*
%TO.C,R8*%
X12050000Y30326359D02*
X12050000Y30633641D01*
X12810000Y30326359D02*
X12810000Y30633641D01*
%TO.C,R9*%
X6186359Y11080000D02*
X6493641Y11080000D01*
X6186359Y10320000D02*
X6493641Y10320000D01*
%TO.C,R12*%
X44473641Y14320000D02*
X44166359Y14320000D01*
X44473641Y15080000D02*
X44166359Y15080000D01*
%TO.C,R10*%
X45666359Y28440000D02*
X45973641Y28440000D01*
X45666359Y27680000D02*
X45973641Y27680000D01*
%TO.C,C16*%
X24060000Y38392164D02*
X24060000Y38607836D01*
X24780000Y38392164D02*
X24780000Y38607836D01*
%TO.C,R4*%
X19386359Y31280000D02*
X19693641Y31280000D01*
X19386359Y30520000D02*
X19693641Y30520000D01*
%TO.C,C9*%
X20462164Y35420000D02*
X20677836Y35420000D01*
X20462164Y34700000D02*
X20677836Y34700000D01*
%TO.C,C1*%
X29477836Y19820000D02*
X29262164Y19820000D01*
X29477836Y20540000D02*
X29262164Y20540000D01*
%TO.C,C2*%
X17638748Y47935000D02*
X18161252Y47935000D01*
X17638748Y46465000D02*
X18161252Y46465000D01*
%TO.C,R7*%
X37431141Y13900000D02*
X37123859Y13900000D01*
X37431141Y14660000D02*
X37123859Y14660000D01*
%TO.C,C4*%
X12207836Y38115000D02*
X11992164Y38115000D01*
X12207836Y38835000D02*
X11992164Y38835000D01*
%TO.C,J5*%
X11270000Y9680000D02*
X11270000Y8350000D01*
X9940000Y9680000D02*
X11270000Y9680000D01*
X8670000Y9680000D02*
X6070000Y9680000D01*
X8670000Y9680000D02*
X8670000Y7020000D01*
X6070000Y9680000D02*
X6070000Y7020000D01*
X8670000Y7020000D02*
X6070000Y7020000D01*
%TO.C,R1*%
X27593641Y19800000D02*
X27286359Y19800000D01*
X27593641Y20560000D02*
X27286359Y20560000D01*
%TO.C,U3*%
X11555000Y31685000D02*
X11555000Y31945000D01*
X11555000Y31945000D02*
X13230000Y31945000D01*
X11555000Y37135000D02*
X11555000Y36875000D01*
X8830000Y31685000D02*
X11555000Y31685000D01*
X8830000Y31685000D02*
X6105000Y31685000D01*
X8830000Y37135000D02*
X11555000Y37135000D01*
X8830000Y37135000D02*
X6105000Y37135000D01*
X6105000Y31685000D02*
X6105000Y31945000D01*
X6105000Y37135000D02*
X6105000Y36875000D01*
%TO.C,R2*%
X11976359Y40880000D02*
X12283641Y40880000D01*
X11976359Y40120000D02*
X12283641Y40120000D01*
%TO.C,C12*%
X12207836Y39140000D02*
X11992164Y39140000D01*
X12207836Y39860000D02*
X11992164Y39860000D01*
%TO.C,L1*%
X52440000Y39773641D02*
X52440000Y39466359D01*
X51680000Y39773641D02*
X51680000Y39466359D01*
%TO.C,C7*%
X14635580Y45315000D02*
X14354420Y45315000D01*
X14635580Y46335000D02*
X14354420Y46335000D01*
%TO.C,C11*%
X24137164Y42185000D02*
X24352836Y42185000D01*
X24137164Y41465000D02*
X24352836Y41465000D01*
%TO.C,C3*%
X29135000Y53161252D02*
X29135000Y52638748D01*
X27665000Y53161252D02*
X27665000Y52638748D01*
%TO.C,U2*%
X22540000Y36220000D02*
X21890000Y36220000D01*
X15320000Y36870000D02*
X15320000Y36220000D01*
X22540000Y36870000D02*
X22540000Y36220000D01*
X15320000Y42790000D02*
X15320000Y43440000D01*
X22540000Y42790000D02*
X22540000Y43440000D01*
X15320000Y43440000D02*
X15970000Y43440000D01*
X22540000Y43440000D02*
X21890000Y43440000D01*
%TO.C,C10*%
X15777836Y34820000D02*
X15562164Y34820000D01*
X15777836Y35540000D02*
X15562164Y35540000D01*
%TO.C,C17*%
X24780000Y40507836D02*
X24780000Y40292164D01*
X24060000Y40507836D02*
X24060000Y40292164D01*
%TO.C,C20*%
X51700000Y41432164D02*
X51700000Y41647836D01*
X52420000Y41432164D02*
X52420000Y41647836D01*
%TO.C,C19*%
X34980000Y47257836D02*
X34980000Y47042164D01*
X34260000Y47257836D02*
X34260000Y47042164D01*
D14*
%TO.C,Y1*%
X28240000Y40720000D02*
X27840000Y40720000D01*
D10*
X26340000Y40420000D02*
X26340000Y40420000D01*
X26240000Y40420000D02*
X26240000Y40420000D01*
D14*
X29290000Y39420000D02*
X29290000Y38820000D01*
X26790000Y39420000D02*
X26790000Y38820000D01*
X28240000Y37520000D02*
X27840000Y37520000D01*
D10*
X26240000Y40420000D02*
G75*
G03*
X26340000Y40420000I50000J0D01*
G01*
X26340000Y40420000D02*
G75*
G03*
X26240000Y40420000I-50000J0D01*
G01*
D16*
%TO.C,C15*%
X13757836Y10415000D02*
X13542164Y10415000D01*
X13757836Y11135000D02*
X13542164Y11135000D01*
%TO.C,R11*%
X45676359Y25470000D02*
X45983641Y25470000D01*
X45676359Y24710000D02*
X45983641Y24710000D01*
D13*
%TO.C,R6*%
X34620000Y12710000D02*
X34620000Y7610000D01*
X34620000Y7610000D02*
X35770000Y7610000D01*
X35770000Y12710000D02*
X34620000Y12710000D01*
X37770000Y7610000D02*
X38920000Y7610000D01*
X38920000Y12710000D02*
X37770000Y12710000D01*
X38920000Y7610000D02*
X38920000Y12710000D01*
D16*
%TO.C,AE1*%
X60263000Y31635000D02*
X48263000Y31635000D01*
X48263000Y31635000D02*
X48263000Y20235000D01*
X48263000Y20235000D02*
X60263000Y20235000D01*
X60263000Y20235000D02*
X60263000Y31635000D01*
%TO.C,R5*%
X19896359Y34450000D02*
X20203641Y34450000D01*
X19896359Y33690000D02*
X20203641Y33690000D01*
%TO.C,C14*%
X5002164Y31320000D02*
X5217836Y31320000D01*
X5002164Y30600000D02*
X5217836Y30600000D01*
%TO.C,C18*%
X46520580Y23320000D02*
X46239420Y23320000D01*
X46520580Y24340000D02*
X46239420Y24340000D01*
%TO.C,R32*%
X6055000Y20728641D02*
X6055000Y20421359D01*
X5295000Y20728641D02*
X5295000Y20421359D01*
%TO.C,C8*%
X19780000Y45822164D02*
X19780000Y46037836D01*
X20500000Y45822164D02*
X20500000Y46037836D01*
%TO.C,C6*%
X13235000Y43409420D02*
X13235000Y43690580D01*
X14255000Y43409420D02*
X14255000Y43690580D01*
%TO.C,J4*%
X4620000Y16610000D02*
X3290000Y16610000D01*
X4620000Y17940000D02*
X4620000Y16610000D01*
X4620000Y19210000D02*
X4620000Y26890000D01*
X4620000Y19210000D02*
X1960000Y19210000D01*
X4620000Y26890000D02*
X1960000Y26890000D01*
X1960000Y19210000D02*
X1960000Y26890000D01*
%TO.C,C24*%
X31488748Y49785000D02*
X32011252Y49785000D01*
X31488748Y48315000D02*
X32011252Y48315000D01*
%TO.C,C13*%
X15167836Y46730000D02*
X14952164Y46730000D01*
X15167836Y47450000D02*
X14952164Y47450000D01*
%TO.C,G\u002A\u002A\u002A*%
G36*
X60422327Y53611981D02*
G01*
X60415374Y51320814D01*
X59715405Y51313556D01*
X59015436Y51306299D01*
X59008339Y52434116D01*
X59001241Y53561932D01*
X58418759Y52720120D01*
X58287424Y52530930D01*
X58165614Y52356648D01*
X58056807Y52202158D01*
X57964480Y52072347D01*
X57892110Y51972099D01*
X57843174Y51906301D01*
X57821150Y51879837D01*
X57820472Y51879537D01*
X57802273Y51901627D01*
X57757376Y51963983D01*
X57689225Y52061596D01*
X57601264Y52189460D01*
X57496937Y52342567D01*
X57379689Y52515909D01*
X57252962Y52704478D01*
X57247173Y52713120D01*
X56689678Y53545474D01*
X56676081Y52433144D01*
X56662483Y51320814D01*
X56104989Y51315694D01*
X55547494Y51310573D01*
X55689950Y51361520D01*
X55946181Y51473466D01*
X56156081Y51611250D01*
X56323096Y51778792D01*
X56450673Y51980012D01*
X56542257Y52218829D01*
X56579713Y52373468D01*
X56619321Y52677122D01*
X56612428Y52958053D01*
X56559258Y53213974D01*
X56477944Y53409948D01*
X56383429Y53555212D01*
X56259425Y53684905D01*
X56102306Y53800738D01*
X55908445Y53904421D01*
X55674215Y53997666D01*
X55395990Y54082185D01*
X55070144Y54159688D01*
X54761749Y54219766D01*
X54603914Y54249567D01*
X54459810Y54279546D01*
X54340135Y54307265D01*
X54255592Y54330285D01*
X54222178Y54342735D01*
X54145771Y54409512D01*
X54106502Y54501191D01*
X54106547Y54601006D01*
X54148085Y54692195D01*
X54173265Y54719367D01*
X54253835Y54761516D01*
X54377208Y54786641D01*
X54534845Y54795674D01*
X54718210Y54789548D01*
X54918765Y54769195D01*
X55127972Y54735548D01*
X55337294Y54689538D01*
X55538193Y54632099D01*
X55722132Y54564162D01*
X55764604Y54545584D01*
X55866115Y54503372D01*
X55929009Y54487431D01*
X55961204Y54495870D01*
X55963168Y54498150D01*
X55983412Y54530977D01*
X56025378Y54603487D01*
X56084549Y54707721D01*
X56156410Y54835718D01*
X56236444Y54979521D01*
X56240998Y54987740D01*
X56330763Y55151487D01*
X56395478Y55274228D01*
X56437740Y55361799D01*
X56460145Y55420034D01*
X56465287Y55454767D01*
X56456214Y55471540D01*
X56339695Y55539435D01*
X56185042Y55614598D01*
X56006850Y55690952D01*
X55819710Y55762421D01*
X55638218Y55822929D01*
X55553940Y55847230D01*
X55357130Y55900373D01*
X56008102Y55894962D01*
X56659073Y55889550D01*
X57231870Y54956052D01*
X57357189Y54752937D01*
X57474371Y54565157D01*
X57580259Y54397611D01*
X57671701Y54255193D01*
X57745540Y54142802D01*
X57798623Y54065332D01*
X57827795Y54027680D01*
X57831862Y54024818D01*
X57851834Y54047551D01*
X57897503Y54111510D01*
X57965667Y54211845D01*
X58053122Y54343707D01*
X58156661Y54502249D01*
X58273083Y54682619D01*
X58399182Y54879971D01*
X58453219Y54965115D01*
X59047380Y55903148D01*
X59738330Y55903148D01*
X60429281Y55903148D01*
X60422327Y53611981D01*
G37*
G36*
X51933848Y55961545D02*
G01*
X52251882Y55917422D01*
X52548167Y55846099D01*
X52813653Y55747593D01*
X52998642Y55648687D01*
X53114887Y55575286D01*
X53033620Y55488331D01*
X52910513Y55320568D01*
X52813643Y55112784D01*
X52745963Y54874114D01*
X52710427Y54613691D01*
X52705631Y54473977D01*
X52704221Y54352981D01*
X52698734Y54275657D01*
X52687284Y54231330D01*
X52667986Y54209329D01*
X52658040Y54204538D01*
X52605591Y54208096D01*
X52583254Y54232753D01*
X52438144Y54435440D01*
X52266251Y54591321D01*
X52065669Y54701959D01*
X51968498Y54736507D01*
X51865727Y54764145D01*
X51769386Y54780057D01*
X51660542Y54786063D01*
X51520259Y54783988D01*
X51487597Y54782796D01*
X51285820Y54766937D01*
X51124577Y54733741D01*
X50991485Y54678438D01*
X50874160Y54596256D01*
X50788517Y54513528D01*
X50672814Y54364283D01*
X50588907Y54194627D01*
X50534944Y53997622D01*
X50509075Y53766331D01*
X50509450Y53493817D01*
X50510490Y53471418D01*
X50538540Y53200662D01*
X50595368Y52975109D01*
X50683393Y52792386D01*
X50805037Y52650117D01*
X50962721Y52545930D01*
X51158865Y52477449D01*
X51395891Y52442301D01*
X51566099Y52436204D01*
X51703139Y52436729D01*
X51800765Y52440605D01*
X51873952Y52450667D01*
X51937673Y52469749D01*
X52006904Y52500686D01*
X52066800Y52530985D01*
X52229022Y52632618D01*
X52345618Y52746082D01*
X52412811Y52867407D01*
X52422827Y52905024D01*
X52440481Y52993297D01*
X51879587Y52993297D01*
X51318693Y52993297D01*
X51318693Y53469208D01*
X51318693Y53945118D01*
X52052402Y53945118D01*
X52786110Y53945118D01*
X52838856Y53843137D01*
X52904315Y53746488D01*
X53002572Y53637121D01*
X53119183Y53529270D01*
X53239704Y53437171D01*
X53272011Y53416251D01*
X53418380Y53339049D01*
X53607002Y53259936D01*
X53826043Y53182705D01*
X54063665Y53111150D01*
X54308032Y53049063D01*
X54547309Y53000238D01*
X54595674Y52992046D01*
X54787169Y52957025D01*
X54947566Y52919893D01*
X55069839Y52882577D01*
X55146966Y52847004D01*
X55159967Y52837215D01*
X55192602Y52778255D01*
X55207161Y52690730D01*
X55202044Y52597911D01*
X55180938Y52532057D01*
X55137209Y52485716D01*
X55059554Y52452970D01*
X54942273Y52432544D01*
X54779662Y52423163D01*
X54689802Y52422205D01*
X54300872Y52447101D01*
X53911921Y52519623D01*
X53537879Y52636525D01*
X53358785Y52711673D01*
X53257627Y52756932D01*
X53193819Y52780553D01*
X53155890Y52784874D01*
X53132370Y52772232D01*
X53122155Y52759907D01*
X53097426Y52718947D01*
X53055007Y52641428D01*
X52999669Y52536744D01*
X52936182Y52414292D01*
X52869315Y52283465D01*
X52803839Y52153659D01*
X52744524Y52034269D01*
X52696139Y51934690D01*
X52663456Y51864317D01*
X52651244Y51832545D01*
X52651241Y51832408D01*
X52673177Y51808302D01*
X52731225Y51766402D01*
X52813751Y51714957D01*
X52831395Y51704693D01*
X53011548Y51601078D01*
X52903297Y51536525D01*
X52788610Y51479746D01*
X52636979Y51420999D01*
X52465351Y51365644D01*
X52290675Y51319044D01*
X52129899Y51286563D01*
X52098578Y51281913D01*
X51946749Y51267285D01*
X51760677Y51258728D01*
X51555635Y51256062D01*
X51346898Y51259109D01*
X51149740Y51267689D01*
X50979435Y51281624D01*
X50874201Y51296251D01*
X50520695Y51382973D01*
X50204730Y51508414D01*
X49926800Y51672175D01*
X49687402Y51873858D01*
X49487031Y52113066D01*
X49326184Y52389399D01*
X49234473Y52612996D01*
X49168403Y52853007D01*
X49121869Y53128520D01*
X49095948Y53423876D01*
X49091716Y53723416D01*
X49110251Y54011481D01*
X49128841Y54149079D01*
X49168522Y54362300D01*
X49214361Y54540795D01*
X49272550Y54704230D01*
X49349282Y54872269D01*
X49368614Y54910535D01*
X49469382Y55074006D01*
X49603425Y55243931D01*
X49757351Y55406230D01*
X49917773Y55546823D01*
X50071300Y55651632D01*
X50075775Y55654141D01*
X50334232Y55773572D01*
X50625245Y55865701D01*
X50939764Y55930547D01*
X51268738Y55968124D01*
X51603116Y55978452D01*
X51933848Y55961545D01*
G37*
%TO.C,C21*%
X52420000Y37817836D02*
X52420000Y37602164D01*
X51700000Y37817836D02*
X51700000Y37602164D01*
%TO.C,R31*%
X5295000Y23396359D02*
X5295000Y23703641D01*
X6055000Y23396359D02*
X6055000Y23703641D01*
%TD*%
%LPC*%
D17*
%TO.C,U1*%
X29460000Y10100000D03*
X26920000Y12640000D03*
X24380000Y10100000D03*
%TD*%
D18*
%TO.C,S1*%
X56810000Y9600000D03*
D19*
X43810000Y9600000D03*
%TD*%
D20*
%TO.C,J2*%
X7200000Y52425000D03*
X6550000Y52425000D03*
X5900000Y52425000D03*
X5250000Y52425000D03*
X4600000Y52425000D03*
D21*
X9000000Y52550000D03*
X2800000Y52550000D03*
D22*
X9700000Y55100000D03*
D23*
X7100000Y55100000D03*
X4700000Y55100000D03*
D22*
X2100000Y55100000D03*
%TD*%
D24*
%TO.C,IC5*%
X37320000Y47630000D03*
X37320000Y46380000D03*
X37320000Y45130000D03*
X37320000Y43880000D03*
X37320000Y42630000D03*
X37320000Y41380000D03*
X37320000Y40130000D03*
D25*
X39570000Y37880000D03*
X40820000Y37880000D03*
X42070000Y37880000D03*
X43320000Y37880000D03*
X44570000Y37880000D03*
X45820000Y37880000D03*
X47070000Y37880000D03*
D24*
X49320000Y40130000D03*
X49320000Y41380000D03*
X49320000Y42630000D03*
X49320000Y43880000D03*
X49320000Y45130000D03*
X49320000Y46380000D03*
X49320000Y47630000D03*
D25*
X47070000Y49880000D03*
X45820000Y49880000D03*
X44570000Y49880000D03*
X43320000Y49880000D03*
X42070000Y49880000D03*
X40820000Y49880000D03*
X39570000Y49880000D03*
%TD*%
D26*
%TO.C,IC4*%
X43440000Y27960000D03*
X42940000Y27960000D03*
X42440000Y27960000D03*
X41940000Y27960000D03*
X41440000Y27960000D03*
X40940000Y27960000D03*
D27*
X40240000Y27260000D03*
X40240000Y26760000D03*
X40240000Y26260000D03*
X40240000Y25760000D03*
X40240000Y25260000D03*
X40240000Y24760000D03*
D26*
X40940000Y24060000D03*
X41440000Y24060000D03*
X41940000Y24060000D03*
X42440000Y24060000D03*
X42940000Y24060000D03*
X43440000Y24060000D03*
D27*
X44140000Y24760000D03*
X44140000Y25260000D03*
X44140000Y25760000D03*
X44140000Y26260000D03*
X44140000Y26760000D03*
X44140000Y27260000D03*
D28*
X42190000Y26010000D03*
%TD*%
D29*
%TO.C,IC3*%
X12630000Y7200000D03*
X13130000Y7200000D03*
X13630000Y7200000D03*
X14130000Y7200000D03*
X14130000Y9600000D03*
X13630000Y9600000D03*
X13130000Y9600000D03*
X12630000Y9600000D03*
D30*
X13380000Y8400000D03*
%TD*%
D31*
%TO.C,IC2*%
X17140000Y8580000D03*
X17640000Y8580000D03*
X18140000Y8580000D03*
D32*
X18940000Y8880000D03*
X18940000Y9880000D03*
X18940000Y10880000D03*
D31*
X18140000Y11180000D03*
X17640000Y11180000D03*
X17140000Y11180000D03*
D32*
X16340000Y10880000D03*
X16340000Y9880000D03*
X16340000Y8880000D03*
%TD*%
D33*
%TO.C,IC1*%
X23180000Y50310000D03*
D34*
X16000000Y52600000D03*
D33*
X23180000Y54890000D03*
%TD*%
D35*
%TO.C,J7*%
X41285000Y54840000D03*
D36*
X43825000Y54840000D03*
%TD*%
D37*
%TO.C,C25*%
X3230000Y28410000D03*
X1330000Y28410000D03*
%TD*%
D38*
%TO.C,R3*%
X11620000Y41525000D03*
X12640000Y41525000D03*
%TD*%
D39*
%TO.C,C5*%
X23765000Y42825000D03*
X24725000Y42825000D03*
%TD*%
D40*
%TO.C,R8*%
X12430000Y29970000D03*
X12430000Y30990000D03*
%TD*%
D38*
%TO.C,R9*%
X5830000Y10700000D03*
X6850000Y10700000D03*
%TD*%
D41*
%TO.C,R12*%
X44830000Y14700000D03*
X43810000Y14700000D03*
%TD*%
D38*
%TO.C,R10*%
X45310000Y28060000D03*
X46330000Y28060000D03*
%TD*%
D42*
%TO.C,C16*%
X24420000Y38020000D03*
X24420000Y38980000D03*
%TD*%
D38*
%TO.C,R4*%
X19030000Y30900000D03*
X20050000Y30900000D03*
%TD*%
D39*
%TO.C,C9*%
X20090000Y35060000D03*
X21050000Y35060000D03*
%TD*%
D43*
%TO.C,C1*%
X29850000Y20180000D03*
X28890000Y20180000D03*
%TD*%
D44*
%TO.C,C2*%
X16950000Y47200000D03*
X18850000Y47200000D03*
%TD*%
D41*
%TO.C,R7*%
X37787500Y14280000D03*
X36767500Y14280000D03*
%TD*%
D43*
%TO.C,C4*%
X12580000Y38475000D03*
X11620000Y38475000D03*
%TD*%
D35*
%TO.C,J5*%
X9940000Y8350000D03*
D36*
X7400000Y8350000D03*
%TD*%
D41*
%TO.C,R1*%
X27950000Y20180000D03*
X26930000Y20180000D03*
%TD*%
D45*
%TO.C,H2*%
X57000000Y3000000D03*
%TD*%
D46*
%TO.C,U3*%
X12430000Y32505000D03*
X12430000Y33775000D03*
X12430000Y35045000D03*
X12430000Y36315000D03*
X5230000Y36315000D03*
X5230000Y35045000D03*
X5230000Y33775000D03*
X5230000Y32505000D03*
%TD*%
D38*
%TO.C,R2*%
X11620000Y40500000D03*
X12640000Y40500000D03*
%TD*%
D43*
%TO.C,C12*%
X12580000Y39500000D03*
X11620000Y39500000D03*
%TD*%
D47*
%TO.C,L1*%
X52060000Y40130000D03*
X52060000Y39110000D03*
%TD*%
D48*
%TO.C,C7*%
X15270000Y45825000D03*
X13720000Y45825000D03*
%TD*%
D39*
%TO.C,C11*%
X23765000Y41825000D03*
X24725000Y41825000D03*
%TD*%
D49*
%TO.C,C3*%
X28400000Y53850000D03*
X28400000Y51950000D03*
%TD*%
D50*
%TO.C,U2*%
X16330000Y36392500D03*
X16730000Y36392500D03*
X17130000Y36392500D03*
X17530000Y36392500D03*
X17930000Y36392500D03*
X18330000Y36392500D03*
X18730000Y36392500D03*
X19130000Y36392500D03*
X19530000Y36392500D03*
X19930000Y36392500D03*
X20330000Y36392500D03*
X20730000Y36392500D03*
X21130000Y36392500D03*
X21530000Y36392500D03*
D51*
X22367500Y37230000D03*
X22367500Y37630000D03*
X22367500Y38030000D03*
X22367500Y38430000D03*
X22367500Y38830000D03*
X22367500Y39230000D03*
X22367500Y39630000D03*
X22367500Y40030000D03*
X22367500Y40430000D03*
X22367500Y40830000D03*
X22367500Y41230000D03*
X22367500Y41630000D03*
X22367500Y42030000D03*
X22367500Y42430000D03*
D50*
X21530000Y43267500D03*
X21130000Y43267500D03*
X20730000Y43267500D03*
X20330000Y43267500D03*
X19930000Y43267500D03*
X19530000Y43267500D03*
X19130000Y43267500D03*
X18730000Y43267500D03*
X18330000Y43267500D03*
X17930000Y43267500D03*
X17530000Y43267500D03*
X17130000Y43267500D03*
X16730000Y43267500D03*
X16330000Y43267500D03*
D51*
X15492500Y42430000D03*
X15492500Y42030000D03*
X15492500Y41630000D03*
X15492500Y41230000D03*
X15492500Y40830000D03*
X15492500Y40430000D03*
X15492500Y40030000D03*
X15492500Y39630000D03*
X15492500Y39230000D03*
X15492500Y38830000D03*
X15492500Y38430000D03*
X15492500Y38030000D03*
X15492500Y37630000D03*
X15492500Y37230000D03*
D52*
X18930000Y39830000D03*
%TD*%
D43*
%TO.C,C10*%
X16150000Y35180000D03*
X15190000Y35180000D03*
%TD*%
D53*
%TO.C,C17*%
X24420000Y40880000D03*
X24420000Y39920000D03*
%TD*%
D42*
%TO.C,C20*%
X52060000Y41060000D03*
X52060000Y42020000D03*
%TD*%
D53*
%TO.C,C19*%
X34620000Y47630000D03*
X34620000Y46670000D03*
%TD*%
D54*
%TO.C,Y1*%
X27190000Y40220000D03*
X27190000Y38020000D03*
X28890000Y38020000D03*
X28890000Y40220000D03*
%TD*%
D43*
%TO.C,C15*%
X14130000Y10775000D03*
X13170000Y10775000D03*
%TD*%
D38*
%TO.C,R11*%
X45320000Y25090000D03*
X46340000Y25090000D03*
%TD*%
D55*
%TO.C,R6*%
X36770000Y8460000D03*
X36770000Y11860000D03*
%TD*%
D56*
%TO.C,AE1*%
X55480000Y29730000D03*
X50450000Y29730000D03*
X55480000Y22110000D03*
X50450000Y22110000D03*
%TD*%
D38*
%TO.C,R5*%
X19540000Y34070000D03*
X20560000Y34070000D03*
%TD*%
D39*
%TO.C,C14*%
X4630000Y30960000D03*
X5590000Y30960000D03*
%TD*%
D48*
%TO.C,C18*%
X47155000Y23830000D03*
X45605000Y23830000D03*
%TD*%
D47*
%TO.C,R32*%
X5675000Y21085000D03*
X5675000Y20065000D03*
%TD*%
D42*
%TO.C,C8*%
X20140000Y45450000D03*
X20140000Y46410000D03*
%TD*%
D57*
%TO.C,C6*%
X13745000Y42775000D03*
X13745000Y44325000D03*
%TD*%
D35*
%TO.C,J4*%
X3290000Y17940000D03*
D36*
X3290000Y20480000D03*
X3290000Y23020000D03*
X3290000Y25560000D03*
%TD*%
D44*
%TO.C,C24*%
X30800000Y49050000D03*
X32700000Y49050000D03*
%TD*%
D45*
%TO.C,H1*%
X35950000Y53400000D03*
%TD*%
D43*
%TO.C,C13*%
X15540000Y47090000D03*
X14580000Y47090000D03*
%TD*%
D45*
%TO.C,H3*%
X8000000Y3000000D03*
%TD*%
D53*
%TO.C,C21*%
X52060000Y38190000D03*
X52060000Y37230000D03*
%TD*%
D40*
%TO.C,R31*%
X5675000Y23040000D03*
X5675000Y24060000D03*
%TD*%
D35*
%TO.C,J1*%
X28660000Y25120000D03*
D36*
X31200000Y25120000D03*
%TD*%
D35*
%TO.C,J3*%
X5920000Y28580000D03*
D36*
X8460000Y28580000D03*
%TD*%
D58*
%TO.C,BT1*%
X48130000Y14870000D03*
X13590000Y14870000D03*
D59*
X58290000Y14870000D03*
X3430000Y14870000D03*
D60*
X3430000Y7400000D03*
%TD*%
%LPD*%
M02*
