%TF.GenerationSoftware,KiCad,Pcbnew,7.0.7*%
%TF.CreationDate,2023-11-28T10:24:48+01:00*%
%TF.ProjectId,wireless_Slave,77697265-6c65-4737-935f-536c6176652e,rev?*%
%TF.SameCoordinates,PXc751640PY92dda80*%
%TF.FileFunction,Paste,Bot*%
%TF.FilePolarity,Positive*%
%FSLAX46Y46*%
G04 Gerber Fmt 4.6, Leading zero omitted, Abs format (unit mm)*
G04 Created by KiCad (PCBNEW 7.0.7) date 2023-11-28 10:24:48*
%MOMM*%
%LPD*%
G01*
G04 APERTURE LIST*
G04 Aperture macros list*
%AMRoundRect*
0 Rectangle with rounded corners*
0 $1 Rounding radius*
0 $2 $3 $4 $5 $6 $7 $8 $9 X,Y pos of 4 corners*
0 Add a 4 corners polygon primitive as box body*
4,1,4,$2,$3,$4,$5,$6,$7,$8,$9,$2,$3,0*
0 Add four circle primitives for the rounded corners*
1,1,$1+$1,$2,$3*
1,1,$1+$1,$4,$5*
1,1,$1+$1,$6,$7*
1,1,$1+$1,$8,$9*
0 Add four rect primitives between the rounded corners*
20,1,$1+$1,$2,$3,$4,$5,0*
20,1,$1+$1,$4,$5,$6,$7,0*
20,1,$1+$1,$6,$7,$8,$9,0*
20,1,$1+$1,$8,$9,$2,$3,0*%
%AMFreePoly0*
4,1,9,3.862500,-0.866500,0.737500,-0.866500,0.737500,-0.450000,-0.737500,-0.450000,-0.737500,0.450000,0.737500,0.450000,0.737500,0.866500,3.862500,0.866500,3.862500,-0.866500,3.862500,-0.866500,$1*%
G04 Aperture macros list end*
%ADD10R,1.130000X2.440000*%
%ADD11R,1.050000X1.000000*%
%ADD12R,2.200000X1.050000*%
%ADD13RoundRect,0.200000X-0.275000X0.200000X-0.275000X-0.200000X0.275000X-0.200000X0.275000X0.200000X0*%
%ADD14RoundRect,0.135000X0.185000X-0.135000X0.185000X0.135000X-0.185000X0.135000X-0.185000X-0.135000X0*%
%ADD15R,1.300000X0.900000*%
%ADD16FreePoly0,0.000000*%
%ADD17RoundRect,0.243750X0.243750X0.456250X-0.243750X0.456250X-0.243750X-0.456250X0.243750X-0.456250X0*%
%ADD18RoundRect,0.250000X-0.475000X0.250000X-0.475000X-0.250000X0.475000X-0.250000X0.475000X0.250000X0*%
%ADD19RoundRect,0.135000X-0.135000X-0.185000X0.135000X-0.185000X0.135000X0.185000X-0.135000X0.185000X0*%
%ADD20RoundRect,0.140000X0.170000X-0.140000X0.170000X0.140000X-0.170000X0.140000X-0.170000X-0.140000X0*%
G04 APERTURE END LIST*
D10*
%TO.C,SW1*%
X19260000Y37005000D03*
X16720000Y37005000D03*
X14180000Y37005000D03*
X11640000Y37005000D03*
X9100000Y37005000D03*
X6560000Y37005000D03*
X19260000Y45605000D03*
X16720000Y45605000D03*
X14180000Y45605000D03*
X11640000Y45605000D03*
X9100000Y45605000D03*
X6560000Y45605000D03*
%TD*%
D11*
%TO.C,J6*%
X56445000Y25935000D03*
D12*
X57970000Y24460000D03*
X57970000Y27410000D03*
%TD*%
D13*
%TO.C,R34*%
X22420000Y50855000D03*
X22420000Y49205000D03*
%TD*%
D14*
%TO.C,R33*%
X23390000Y34690000D03*
X23390000Y35710000D03*
%TD*%
D15*
%TO.C,Q1*%
X24180000Y51470000D03*
D16*
X24267500Y52970000D03*
D15*
X24180000Y54470000D03*
%TD*%
D17*
%TO.C,D1*%
X23763690Y33205000D03*
X21888690Y33205000D03*
%TD*%
D18*
%TO.C,C26*%
X2490000Y45600000D03*
X2490000Y43700000D03*
%TD*%
%TO.C,C23*%
X58930000Y45610000D03*
X58930000Y43710000D03*
%TD*%
D10*
%TO.C,SW2*%
X54850000Y37000000D03*
X52310000Y37000000D03*
X49770000Y37000000D03*
X47230000Y37000000D03*
X44690000Y37000000D03*
X42150000Y37000000D03*
X39610000Y37000000D03*
X37070000Y37000000D03*
X34530000Y37000000D03*
X31990000Y37000000D03*
X29450000Y37000000D03*
X26910000Y37000000D03*
X54850000Y45610000D03*
X52310000Y45610000D03*
X49770000Y45610000D03*
X47230000Y45610000D03*
X44690000Y45610000D03*
X42150000Y45610000D03*
X39610000Y45610000D03*
X37070000Y45610000D03*
X34530000Y45610000D03*
X31990000Y45610000D03*
X29450000Y45610000D03*
X26910000Y45610000D03*
%TD*%
D19*
%TO.C,R23*%
X43690000Y33580000D03*
X44710000Y33580000D03*
%TD*%
%TO.C,R19*%
X53830000Y33580000D03*
X54850000Y33580000D03*
%TD*%
%TO.C,R25*%
X38590000Y33580000D03*
X39610000Y33580000D03*
%TD*%
%TO.C,R21*%
X48750000Y33580000D03*
X49770000Y33580000D03*
%TD*%
D20*
%TO.C,C22*%
X14920000Y6960000D03*
X14920000Y7920000D03*
%TD*%
D19*
%TO.C,R16*%
X10620000Y33580000D03*
X11640000Y33580000D03*
%TD*%
%TO.C,R15*%
X13160000Y33580000D03*
X14180000Y33580000D03*
%TD*%
%TO.C,R28*%
X30960000Y33580000D03*
X31980000Y33580000D03*
%TD*%
%TO.C,R18*%
X5540000Y33580000D03*
X6560000Y33580000D03*
%TD*%
%TO.C,R30*%
X25900000Y33580000D03*
X26920000Y33580000D03*
%TD*%
%TO.C,R13*%
X18240000Y33580000D03*
X19260000Y33580000D03*
%TD*%
%TO.C,R14*%
X15700000Y33580000D03*
X16720000Y33580000D03*
%TD*%
%TO.C,R17*%
X8080000Y33580000D03*
X9100000Y33580000D03*
%TD*%
%TO.C,R27*%
X33510000Y33580000D03*
X34530000Y33580000D03*
%TD*%
%TO.C,R22*%
X46210000Y33580000D03*
X47230000Y33580000D03*
%TD*%
%TO.C,R20*%
X51290000Y33580000D03*
X52310000Y33580000D03*
%TD*%
%TO.C,R29*%
X28430000Y33580000D03*
X29450000Y33580000D03*
%TD*%
%TO.C,R24*%
X41130000Y33580000D03*
X42150000Y33580000D03*
%TD*%
%TO.C,R26*%
X36050000Y33580000D03*
X37070000Y33580000D03*
%TD*%
M02*
