%TF.GenerationSoftware,KiCad,Pcbnew,7.0.7*%
%TF.CreationDate,2023-11-28T10:24:49+01:00*%
%TF.ProjectId,wireless_Slave,77697265-6c65-4737-935f-536c6176652e,rev?*%
%TF.SameCoordinates,PXc751640PY92dda80*%
%TF.FileFunction,Legend,Bot*%
%TF.FilePolarity,Positive*%
%FSLAX46Y46*%
G04 Gerber Fmt 4.6, Leading zero omitted, Abs format (unit mm)*
G04 Created by KiCad (PCBNEW 7.0.7) date 2023-11-28 10:24:49*
%MOMM*%
%LPD*%
G01*
G04 APERTURE LIST*
G04 Aperture macros list*
%AMRoundRect*
0 Rectangle with rounded corners*
0 $1 Rounding radius*
0 $2 $3 $4 $5 $6 $7 $8 $9 X,Y pos of 4 corners*
0 Add a 4 corners polygon primitive as box body*
4,1,4,$2,$3,$4,$5,$6,$7,$8,$9,$2,$3,0*
0 Add four circle primitives for the rounded corners*
1,1,$1+$1,$2,$3*
1,1,$1+$1,$4,$5*
1,1,$1+$1,$6,$7*
1,1,$1+$1,$8,$9*
0 Add four rect primitives between the rounded corners*
20,1,$1+$1,$2,$3,$4,$5,0*
20,1,$1+$1,$4,$5,$6,$7,0*
20,1,$1+$1,$6,$7,$8,$9,0*
20,1,$1+$1,$8,$9,$2,$3,0*%
%AMFreePoly0*
4,1,9,3.862500,-0.866500,0.737500,-0.866500,0.737500,-0.450000,-0.737500,-0.450000,-0.737500,0.450000,0.737500,0.450000,0.737500,0.866500,3.862500,0.866500,3.862500,-0.866500,3.862500,-0.866500,$1*%
%AMFreePoly1*
4,1,19,0.500000,-0.750000,0.000000,-0.750000,0.000000,-0.744911,-0.071157,-0.744911,-0.207708,-0.704816,-0.327430,-0.627875,-0.420627,-0.520320,-0.479746,-0.390866,-0.500000,-0.250000,-0.500000,0.250000,-0.479746,0.390866,-0.420627,0.520320,-0.327430,0.627875,-0.207708,0.704816,-0.071157,0.744911,0.000000,0.744911,0.000000,0.750000,0.500000,0.750000,0.500000,-0.750000,0.500000,-0.750000,
$1*%
%AMFreePoly2*
4,1,19,0.000000,0.744911,0.071157,0.744911,0.207708,0.704816,0.327430,0.627875,0.420627,0.520320,0.479746,0.390866,0.500000,0.250000,0.500000,-0.250000,0.479746,-0.390866,0.420627,-0.520320,0.327430,-0.627875,0.207708,-0.704816,0.071157,-0.744911,0.000000,-0.744911,0.000000,-0.750000,-0.500000,-0.750000,-0.500000,0.750000,0.000000,0.750000,0.000000,0.744911,0.000000,0.744911,
$1*%
G04 Aperture macros list end*
%ADD10C,0.150000*%
%ADD11C,0.300000*%
%ADD12C,0.900000*%
%ADD13C,0.254000*%
%ADD14C,0.100000*%
%ADD15C,0.400000*%
%ADD16C,0.200000*%
%ADD17C,0.120000*%
%ADD18R,1.130000X2.440000*%
%ADD19C,1.192000*%
%ADD20R,1.447000X1.447000*%
%ADD21C,1.447000*%
%ADD22R,1.050000X1.000000*%
%ADD23R,2.200000X1.050000*%
%ADD24RoundRect,0.200000X-0.275000X0.200000X-0.275000X-0.200000X0.275000X-0.200000X0.275000X0.200000X0*%
%ADD25RoundRect,0.135000X0.185000X-0.135000X0.185000X0.135000X-0.185000X0.135000X-0.185000X-0.135000X0*%
%ADD26R,1.300000X0.900000*%
%ADD27FreePoly0,0.000000*%
%ADD28R,1.700000X1.700000*%
%ADD29O,1.700000X1.700000*%
%ADD30RoundRect,0.243750X0.243750X0.456250X-0.243750X0.456250X-0.243750X-0.456250X0.243750X-0.456250X0*%
%ADD31C,3.200000*%
%ADD32C,1.200000*%
%ADD33C,3.590000*%
%ADD34RoundRect,0.250000X-0.475000X0.250000X-0.475000X-0.250000X0.475000X-0.250000X0.475000X0.250000X0*%
%ADD35RoundRect,0.135000X-0.135000X-0.185000X0.135000X-0.185000X0.135000X0.185000X-0.135000X0.185000X0*%
%ADD36RoundRect,0.140000X0.170000X-0.140000X0.170000X0.140000X-0.170000X0.140000X-0.170000X-0.140000X0*%
%ADD37C,2.500000*%
%ADD38FreePoly1,0.000000*%
%ADD39FreePoly2,0.000000*%
%ADD40C,4.780000*%
%ADD41C,1.770000*%
%ADD42C,3.560000*%
G04 APERTURE END LIST*
D10*
X45910000Y50750000D02*
X56160000Y50750000D01*
X56160000Y34500000D01*
X45910000Y34500000D01*
X45910000Y50750000D01*
X5160000Y50750000D02*
X20660000Y50750000D01*
X20660000Y34500000D01*
X5160000Y34500000D01*
X5160000Y50750000D01*
X35660000Y50750000D02*
X45910000Y50750000D01*
X45910000Y34500000D01*
X35660000Y34500000D01*
X35660000Y50750000D01*
X4150000Y30400000D02*
X16800000Y30400000D01*
X16800000Y27350000D01*
X4150000Y27350000D01*
X4150000Y30400000D01*
X25660000Y50750000D02*
X35660000Y50750000D01*
X35660000Y34500000D01*
X25660000Y34500000D01*
X25660000Y50750000D01*
X25650000Y30400000D02*
X34200000Y30400000D01*
X34200000Y23150000D01*
X25650000Y23150000D01*
X25650000Y30400000D01*
D11*
X54779774Y47479172D02*
X55636917Y47479172D01*
X55208346Y47479172D02*
X55208346Y48979172D01*
X55208346Y48979172D02*
X55351203Y48764886D01*
X55351203Y48764886D02*
X55494060Y48622029D01*
X55494060Y48622029D02*
X55636917Y48550600D01*
X16926917Y48877743D02*
X16212632Y48877743D01*
X17069774Y48449172D02*
X16569774Y49949172D01*
X16569774Y49949172D02*
X16069774Y48449172D01*
X14926918Y48449172D02*
X14926918Y49949172D01*
X14926918Y48520600D02*
X15069775Y48449172D01*
X15069775Y48449172D02*
X15355489Y48449172D01*
X15355489Y48449172D02*
X15498346Y48520600D01*
X15498346Y48520600D02*
X15569775Y48592029D01*
X15569775Y48592029D02*
X15641203Y48734886D01*
X15641203Y48734886D02*
X15641203Y49163458D01*
X15641203Y49163458D02*
X15569775Y49306315D01*
X15569775Y49306315D02*
X15498346Y49377743D01*
X15498346Y49377743D02*
X15355489Y49449172D01*
X15355489Y49449172D02*
X15069775Y49449172D01*
X15069775Y49449172D02*
X14926918Y49377743D01*
X13569775Y48449172D02*
X13569775Y49949172D01*
X13569775Y48520600D02*
X13712632Y48449172D01*
X13712632Y48449172D02*
X13998346Y48449172D01*
X13998346Y48449172D02*
X14141203Y48520600D01*
X14141203Y48520600D02*
X14212632Y48592029D01*
X14212632Y48592029D02*
X14284060Y48734886D01*
X14284060Y48734886D02*
X14284060Y49163458D01*
X14284060Y49163458D02*
X14212632Y49306315D01*
X14212632Y49306315D02*
X14141203Y49377743D01*
X14141203Y49377743D02*
X13998346Y49449172D01*
X13998346Y49449172D02*
X13712632Y49449172D01*
X13712632Y49449172D02*
X13569775Y49377743D01*
X12855489Y48449172D02*
X12855489Y49449172D01*
X12855489Y49163458D02*
X12784060Y49306315D01*
X12784060Y49306315D02*
X12712632Y49377743D01*
X12712632Y49377743D02*
X12569774Y49449172D01*
X12569774Y49449172D02*
X12426917Y49449172D01*
X11355489Y48520600D02*
X11498346Y48449172D01*
X11498346Y48449172D02*
X11784061Y48449172D01*
X11784061Y48449172D02*
X11926918Y48520600D01*
X11926918Y48520600D02*
X11998346Y48663458D01*
X11998346Y48663458D02*
X11998346Y49234886D01*
X11998346Y49234886D02*
X11926918Y49377743D01*
X11926918Y49377743D02*
X11784061Y49449172D01*
X11784061Y49449172D02*
X11498346Y49449172D01*
X11498346Y49449172D02*
X11355489Y49377743D01*
X11355489Y49377743D02*
X11284061Y49234886D01*
X11284061Y49234886D02*
X11284061Y49092029D01*
X11284061Y49092029D02*
X11998346Y48949172D01*
X10712632Y48520600D02*
X10569775Y48449172D01*
X10569775Y48449172D02*
X10284061Y48449172D01*
X10284061Y48449172D02*
X10141204Y48520600D01*
X10141204Y48520600D02*
X10069775Y48663458D01*
X10069775Y48663458D02*
X10069775Y48734886D01*
X10069775Y48734886D02*
X10141204Y48877743D01*
X10141204Y48877743D02*
X10284061Y48949172D01*
X10284061Y48949172D02*
X10498347Y48949172D01*
X10498347Y48949172D02*
X10641204Y49020600D01*
X10641204Y49020600D02*
X10712632Y49163458D01*
X10712632Y49163458D02*
X10712632Y49234886D01*
X10712632Y49234886D02*
X10641204Y49377743D01*
X10641204Y49377743D02*
X10498347Y49449172D01*
X10498347Y49449172D02*
X10284061Y49449172D01*
X10284061Y49449172D02*
X10141204Y49377743D01*
X9498346Y48520600D02*
X9355489Y48449172D01*
X9355489Y48449172D02*
X9069775Y48449172D01*
X9069775Y48449172D02*
X8926918Y48520600D01*
X8926918Y48520600D02*
X8855489Y48663458D01*
X8855489Y48663458D02*
X8855489Y48734886D01*
X8855489Y48734886D02*
X8926918Y48877743D01*
X8926918Y48877743D02*
X9069775Y48949172D01*
X9069775Y48949172D02*
X9284061Y48949172D01*
X9284061Y48949172D02*
X9426918Y49020600D01*
X9426918Y49020600D02*
X9498346Y49163458D01*
X9498346Y49163458D02*
X9498346Y49234886D01*
X9498346Y49234886D02*
X9426918Y49377743D01*
X9426918Y49377743D02*
X9284061Y49449172D01*
X9284061Y49449172D02*
X9069775Y49449172D01*
X9069775Y49449172D02*
X8926918Y49377743D01*
X44109774Y47449172D02*
X44966917Y47449172D01*
X44538346Y47449172D02*
X44538346Y48949172D01*
X44538346Y48949172D02*
X44681203Y48734886D01*
X44681203Y48734886D02*
X44824060Y48592029D01*
X44824060Y48592029D02*
X44966917Y48520600D01*
X18759774Y47539172D02*
X19616917Y47539172D01*
X19188346Y47539172D02*
X19188346Y49039172D01*
X19188346Y49039172D02*
X19331203Y48824886D01*
X19331203Y48824886D02*
X19474060Y48682029D01*
X19474060Y48682029D02*
X19616917Y48610600D01*
D12*
X47529323Y26256800D02*
X42957895Y26256800D01*
X45243609Y23971086D02*
X45243609Y28542515D01*
D11*
X33159774Y29199172D02*
X32874060Y29199172D01*
X32874060Y29199172D02*
X32731203Y29127743D01*
X32731203Y29127743D02*
X32588346Y28984886D01*
X32588346Y28984886D02*
X32516917Y28699172D01*
X32516917Y28699172D02*
X32516917Y28199172D01*
X32516917Y28199172D02*
X32588346Y27913458D01*
X32588346Y27913458D02*
X32731203Y27770600D01*
X32731203Y27770600D02*
X32874060Y27699172D01*
X32874060Y27699172D02*
X33159774Y27699172D01*
X33159774Y27699172D02*
X33302632Y27770600D01*
X33302632Y27770600D02*
X33445489Y27913458D01*
X33445489Y27913458D02*
X33516917Y28199172D01*
X33516917Y28199172D02*
X33516917Y28699172D01*
X33516917Y28699172D02*
X33445489Y28984886D01*
X33445489Y28984886D02*
X33302632Y29127743D01*
X33302632Y29127743D02*
X33159774Y29199172D01*
X31874060Y28699172D02*
X31874060Y27699172D01*
X31874060Y28556315D02*
X31802631Y28627743D01*
X31802631Y28627743D02*
X31659774Y28699172D01*
X31659774Y28699172D02*
X31445488Y28699172D01*
X31445488Y28699172D02*
X31302631Y28627743D01*
X31302631Y28627743D02*
X31231203Y28484886D01*
X31231203Y28484886D02*
X31231203Y27699172D01*
X29445488Y29270600D02*
X30731202Y27342029D01*
X28659773Y29199172D02*
X28374059Y29199172D01*
X28374059Y29199172D02*
X28231202Y29127743D01*
X28231202Y29127743D02*
X28088345Y28984886D01*
X28088345Y28984886D02*
X28016916Y28699172D01*
X28016916Y28699172D02*
X28016916Y28199172D01*
X28016916Y28199172D02*
X28088345Y27913458D01*
X28088345Y27913458D02*
X28231202Y27770600D01*
X28231202Y27770600D02*
X28374059Y27699172D01*
X28374059Y27699172D02*
X28659773Y27699172D01*
X28659773Y27699172D02*
X28802631Y27770600D01*
X28802631Y27770600D02*
X28945488Y27913458D01*
X28945488Y27913458D02*
X29016916Y28199172D01*
X29016916Y28199172D02*
X29016916Y28699172D01*
X29016916Y28699172D02*
X28945488Y28984886D01*
X28945488Y28984886D02*
X28802631Y29127743D01*
X28802631Y29127743D02*
X28659773Y29199172D01*
X27588344Y28699172D02*
X27016916Y28699172D01*
X27374059Y27699172D02*
X27374059Y28984886D01*
X27374059Y28984886D02*
X27302630Y29127743D01*
X27302630Y29127743D02*
X27159773Y29199172D01*
X27159773Y29199172D02*
X27016916Y29199172D01*
X26731201Y28699172D02*
X26159773Y28699172D01*
X26516916Y27699172D02*
X26516916Y28984886D01*
X26516916Y28984886D02*
X26445487Y29127743D01*
X26445487Y29127743D02*
X26302630Y29199172D01*
X26302630Y29199172D02*
X26159773Y29199172D01*
X43245489Y48699172D02*
X43245489Y50199172D01*
X43245489Y50199172D02*
X42888346Y50199172D01*
X42888346Y50199172D02*
X42674060Y50127743D01*
X42674060Y50127743D02*
X42531203Y49984886D01*
X42531203Y49984886D02*
X42459774Y49842029D01*
X42459774Y49842029D02*
X42388346Y49556315D01*
X42388346Y49556315D02*
X42388346Y49342029D01*
X42388346Y49342029D02*
X42459774Y49056315D01*
X42459774Y49056315D02*
X42531203Y48913458D01*
X42531203Y48913458D02*
X42674060Y48770600D01*
X42674060Y48770600D02*
X42888346Y48699172D01*
X42888346Y48699172D02*
X43245489Y48699172D01*
X41174060Y48770600D02*
X41316917Y48699172D01*
X41316917Y48699172D02*
X41602632Y48699172D01*
X41602632Y48699172D02*
X41745489Y48770600D01*
X41745489Y48770600D02*
X41816917Y48913458D01*
X41816917Y48913458D02*
X41816917Y49484886D01*
X41816917Y49484886D02*
X41745489Y49627743D01*
X41745489Y49627743D02*
X41602632Y49699172D01*
X41602632Y49699172D02*
X41316917Y49699172D01*
X41316917Y49699172D02*
X41174060Y49627743D01*
X41174060Y49627743D02*
X41102632Y49484886D01*
X41102632Y49484886D02*
X41102632Y49342029D01*
X41102632Y49342029D02*
X41816917Y49199172D01*
X40245489Y48699172D02*
X40388346Y48770600D01*
X40388346Y48770600D02*
X40459775Y48913458D01*
X40459775Y48913458D02*
X40459775Y50199172D01*
X39888346Y49699172D02*
X39316918Y49699172D01*
X39674061Y50199172D02*
X39674061Y48913458D01*
X39674061Y48913458D02*
X39602632Y48770600D01*
X39602632Y48770600D02*
X39459775Y48699172D01*
X39459775Y48699172D02*
X39316918Y48699172D01*
X38174061Y48699172D02*
X38174061Y49484886D01*
X38174061Y49484886D02*
X38245489Y49627743D01*
X38245489Y49627743D02*
X38388346Y49699172D01*
X38388346Y49699172D02*
X38674061Y49699172D01*
X38674061Y49699172D02*
X38816918Y49627743D01*
X38174061Y48770600D02*
X38316918Y48699172D01*
X38316918Y48699172D02*
X38674061Y48699172D01*
X38674061Y48699172D02*
X38816918Y48770600D01*
X38816918Y48770600D02*
X38888346Y48913458D01*
X38888346Y48913458D02*
X38888346Y49056315D01*
X38888346Y49056315D02*
X38816918Y49199172D01*
X38816918Y49199172D02*
X38674061Y49270600D01*
X38674061Y49270600D02*
X38316918Y49270600D01*
X38316918Y49270600D02*
X38174061Y49342029D01*
X34039774Y47519172D02*
X34896917Y47519172D01*
X34468346Y47519172D02*
X34468346Y49019172D01*
X34468346Y49019172D02*
X34611203Y48804886D01*
X34611203Y48804886D02*
X34754060Y48662029D01*
X34754060Y48662029D02*
X34896917Y48590600D01*
X15645489Y28784886D02*
X15431203Y28713458D01*
X15431203Y28713458D02*
X15359774Y28642029D01*
X15359774Y28642029D02*
X15288346Y28499172D01*
X15288346Y28499172D02*
X15288346Y28284886D01*
X15288346Y28284886D02*
X15359774Y28142029D01*
X15359774Y28142029D02*
X15431203Y28070600D01*
X15431203Y28070600D02*
X15574060Y27999172D01*
X15574060Y27999172D02*
X16145489Y27999172D01*
X16145489Y27999172D02*
X16145489Y29499172D01*
X16145489Y29499172D02*
X15645489Y29499172D01*
X15645489Y29499172D02*
X15502632Y29427743D01*
X15502632Y29427743D02*
X15431203Y29356315D01*
X15431203Y29356315D02*
X15359774Y29213458D01*
X15359774Y29213458D02*
X15359774Y29070600D01*
X15359774Y29070600D02*
X15431203Y28927743D01*
X15431203Y28927743D02*
X15502632Y28856315D01*
X15502632Y28856315D02*
X15645489Y28784886D01*
X15645489Y28784886D02*
X16145489Y28784886D01*
X14359774Y29499172D02*
X14074060Y29499172D01*
X14074060Y29499172D02*
X13931203Y29427743D01*
X13931203Y29427743D02*
X13788346Y29284886D01*
X13788346Y29284886D02*
X13716917Y28999172D01*
X13716917Y28999172D02*
X13716917Y28499172D01*
X13716917Y28499172D02*
X13788346Y28213458D01*
X13788346Y28213458D02*
X13931203Y28070600D01*
X13931203Y28070600D02*
X14074060Y27999172D01*
X14074060Y27999172D02*
X14359774Y27999172D01*
X14359774Y27999172D02*
X14502632Y28070600D01*
X14502632Y28070600D02*
X14645489Y28213458D01*
X14645489Y28213458D02*
X14716917Y28499172D01*
X14716917Y28499172D02*
X14716917Y28999172D01*
X14716917Y28999172D02*
X14645489Y29284886D01*
X14645489Y29284886D02*
X14502632Y29427743D01*
X14502632Y29427743D02*
X14359774Y29499172D01*
X12788345Y29499172D02*
X12502631Y29499172D01*
X12502631Y29499172D02*
X12359774Y29427743D01*
X12359774Y29427743D02*
X12216917Y29284886D01*
X12216917Y29284886D02*
X12145488Y28999172D01*
X12145488Y28999172D02*
X12145488Y28499172D01*
X12145488Y28499172D02*
X12216917Y28213458D01*
X12216917Y28213458D02*
X12359774Y28070600D01*
X12359774Y28070600D02*
X12502631Y27999172D01*
X12502631Y27999172D02*
X12788345Y27999172D01*
X12788345Y27999172D02*
X12931203Y28070600D01*
X12931203Y28070600D02*
X13074060Y28213458D01*
X13074060Y28213458D02*
X13145488Y28499172D01*
X13145488Y28499172D02*
X13145488Y28999172D01*
X13145488Y28999172D02*
X13074060Y29284886D01*
X13074060Y29284886D02*
X12931203Y29427743D01*
X12931203Y29427743D02*
X12788345Y29499172D01*
X11716916Y29499172D02*
X10859774Y29499172D01*
X11288345Y27999172D02*
X11288345Y29499172D01*
X54605489Y48699172D02*
X54605489Y50199172D01*
X53891203Y49699172D02*
X53891203Y48699172D01*
X53891203Y49556315D02*
X53819774Y49627743D01*
X53819774Y49627743D02*
X53676917Y49699172D01*
X53676917Y49699172D02*
X53462631Y49699172D01*
X53462631Y49699172D02*
X53319774Y49627743D01*
X53319774Y49627743D02*
X53248346Y49484886D01*
X53248346Y49484886D02*
X53248346Y48699172D01*
X52748345Y49699172D02*
X52176917Y49699172D01*
X52534060Y50199172D02*
X52534060Y48913458D01*
X52534060Y48913458D02*
X52462631Y48770600D01*
X52462631Y48770600D02*
X52319774Y48699172D01*
X52319774Y48699172D02*
X52176917Y48699172D01*
X51105488Y48770600D02*
X51248345Y48699172D01*
X51248345Y48699172D02*
X51534060Y48699172D01*
X51534060Y48699172D02*
X51676917Y48770600D01*
X51676917Y48770600D02*
X51748345Y48913458D01*
X51748345Y48913458D02*
X51748345Y49484886D01*
X51748345Y49484886D02*
X51676917Y49627743D01*
X51676917Y49627743D02*
X51534060Y49699172D01*
X51534060Y49699172D02*
X51248345Y49699172D01*
X51248345Y49699172D02*
X51105488Y49627743D01*
X51105488Y49627743D02*
X51034060Y49484886D01*
X51034060Y49484886D02*
X51034060Y49342029D01*
X51034060Y49342029D02*
X51748345Y49199172D01*
X50391203Y48699172D02*
X50391203Y49699172D01*
X50391203Y49413458D02*
X50319774Y49556315D01*
X50319774Y49556315D02*
X50248346Y49627743D01*
X50248346Y49627743D02*
X50105488Y49699172D01*
X50105488Y49699172D02*
X49962631Y49699172D01*
X49605489Y49699172D02*
X49248346Y48699172D01*
X49248346Y48699172D02*
X48891203Y49699172D01*
X47676918Y48699172D02*
X47676918Y49484886D01*
X47676918Y49484886D02*
X47748346Y49627743D01*
X47748346Y49627743D02*
X47891203Y49699172D01*
X47891203Y49699172D02*
X48176918Y49699172D01*
X48176918Y49699172D02*
X48319775Y49627743D01*
X47676918Y48770600D02*
X47819775Y48699172D01*
X47819775Y48699172D02*
X48176918Y48699172D01*
X48176918Y48699172D02*
X48319775Y48770600D01*
X48319775Y48770600D02*
X48391203Y48913458D01*
X48391203Y48913458D02*
X48391203Y49056315D01*
X48391203Y49056315D02*
X48319775Y49199172D01*
X48319775Y49199172D02*
X48176918Y49270600D01*
X48176918Y49270600D02*
X47819775Y49270600D01*
X47819775Y49270600D02*
X47676918Y49342029D01*
X46748346Y48699172D02*
X46891203Y48770600D01*
X46891203Y48770600D02*
X46962632Y48913458D01*
X46962632Y48913458D02*
X46962632Y50199172D01*
D12*
X13099323Y25106800D02*
X8527895Y25106800D01*
D11*
X33605489Y48699172D02*
X33605489Y50199172D01*
X33605489Y50199172D02*
X33034060Y50199172D01*
X33034060Y50199172D02*
X32891203Y50127743D01*
X32891203Y50127743D02*
X32819774Y50056315D01*
X32819774Y50056315D02*
X32748346Y49913458D01*
X32748346Y49913458D02*
X32748346Y49699172D01*
X32748346Y49699172D02*
X32819774Y49556315D01*
X32819774Y49556315D02*
X32891203Y49484886D01*
X32891203Y49484886D02*
X33034060Y49413458D01*
X33034060Y49413458D02*
X33605489Y49413458D01*
X31462632Y48699172D02*
X31462632Y49484886D01*
X31462632Y49484886D02*
X31534060Y49627743D01*
X31534060Y49627743D02*
X31676917Y49699172D01*
X31676917Y49699172D02*
X31962632Y49699172D01*
X31962632Y49699172D02*
X32105489Y49627743D01*
X31462632Y48770600D02*
X31605489Y48699172D01*
X31605489Y48699172D02*
X31962632Y48699172D01*
X31962632Y48699172D02*
X32105489Y48770600D01*
X32105489Y48770600D02*
X32176917Y48913458D01*
X32176917Y48913458D02*
X32176917Y49056315D01*
X32176917Y49056315D02*
X32105489Y49199172D01*
X32105489Y49199172D02*
X31962632Y49270600D01*
X31962632Y49270600D02*
X31605489Y49270600D01*
X31605489Y49270600D02*
X31462632Y49342029D01*
X30105489Y49699172D02*
X30105489Y48699172D01*
X30748346Y49699172D02*
X30748346Y48913458D01*
X30748346Y48913458D02*
X30676917Y48770600D01*
X30676917Y48770600D02*
X30534060Y48699172D01*
X30534060Y48699172D02*
X30319774Y48699172D01*
X30319774Y48699172D02*
X30176917Y48770600D01*
X30176917Y48770600D02*
X30105489Y48842029D01*
X29462631Y48770600D02*
X29319774Y48699172D01*
X29319774Y48699172D02*
X29034060Y48699172D01*
X29034060Y48699172D02*
X28891203Y48770600D01*
X28891203Y48770600D02*
X28819774Y48913458D01*
X28819774Y48913458D02*
X28819774Y48984886D01*
X28819774Y48984886D02*
X28891203Y49127743D01*
X28891203Y49127743D02*
X29034060Y49199172D01*
X29034060Y49199172D02*
X29248346Y49199172D01*
X29248346Y49199172D02*
X29391203Y49270600D01*
X29391203Y49270600D02*
X29462631Y49413458D01*
X29462631Y49413458D02*
X29462631Y49484886D01*
X29462631Y49484886D02*
X29391203Y49627743D01*
X29391203Y49627743D02*
X29248346Y49699172D01*
X29248346Y49699172D02*
X29034060Y49699172D01*
X29034060Y49699172D02*
X28891203Y49627743D01*
X27605488Y48770600D02*
X27748345Y48699172D01*
X27748345Y48699172D02*
X28034060Y48699172D01*
X28034060Y48699172D02*
X28176917Y48770600D01*
X28176917Y48770600D02*
X28248345Y48913458D01*
X28248345Y48913458D02*
X28248345Y49484886D01*
X28248345Y49484886D02*
X28176917Y49627743D01*
X28176917Y49627743D02*
X28034060Y49699172D01*
X28034060Y49699172D02*
X27748345Y49699172D01*
X27748345Y49699172D02*
X27605488Y49627743D01*
X27605488Y49627743D02*
X27534060Y49484886D01*
X27534060Y49484886D02*
X27534060Y49342029D01*
X27534060Y49342029D02*
X28248345Y49199172D01*
D13*
X14603333Y40501158D02*
X14421904Y40440682D01*
X14421904Y40440682D02*
X14119523Y40440682D01*
X14119523Y40440682D02*
X13998571Y40501158D01*
X13998571Y40501158D02*
X13938095Y40561635D01*
X13938095Y40561635D02*
X13877618Y40682587D01*
X13877618Y40682587D02*
X13877618Y40803539D01*
X13877618Y40803539D02*
X13938095Y40924492D01*
X13938095Y40924492D02*
X13998571Y40984968D01*
X13998571Y40984968D02*
X14119523Y41045444D01*
X14119523Y41045444D02*
X14361428Y41105920D01*
X14361428Y41105920D02*
X14482380Y41166397D01*
X14482380Y41166397D02*
X14542857Y41226873D01*
X14542857Y41226873D02*
X14603333Y41347825D01*
X14603333Y41347825D02*
X14603333Y41468778D01*
X14603333Y41468778D02*
X14542857Y41589730D01*
X14542857Y41589730D02*
X14482380Y41650206D01*
X14482380Y41650206D02*
X14361428Y41710682D01*
X14361428Y41710682D02*
X14059047Y41710682D01*
X14059047Y41710682D02*
X13877618Y41650206D01*
X13454285Y41710682D02*
X13151904Y40440682D01*
X13151904Y40440682D02*
X12909999Y41347825D01*
X12909999Y41347825D02*
X12668094Y40440682D01*
X12668094Y40440682D02*
X12365714Y41710682D01*
X11216665Y40440682D02*
X11942380Y40440682D01*
X11579523Y40440682D02*
X11579523Y41710682D01*
X11579523Y41710682D02*
X11700475Y41529254D01*
X11700475Y41529254D02*
X11821427Y41408301D01*
X11821427Y41408301D02*
X11942380Y41347825D01*
X56899318Y26358333D02*
X57806461Y26358333D01*
X57806461Y26358333D02*
X57987889Y26418810D01*
X57987889Y26418810D02*
X58108842Y26539762D01*
X58108842Y26539762D02*
X58169318Y26721191D01*
X58169318Y26721191D02*
X58169318Y26842143D01*
X56899318Y25209286D02*
X56899318Y25451191D01*
X56899318Y25451191D02*
X56959794Y25572143D01*
X56959794Y25572143D02*
X57020270Y25632619D01*
X57020270Y25632619D02*
X57201699Y25753572D01*
X57201699Y25753572D02*
X57443603Y25814048D01*
X57443603Y25814048D02*
X57927413Y25814048D01*
X57927413Y25814048D02*
X58048365Y25753572D01*
X58048365Y25753572D02*
X58108842Y25693095D01*
X58108842Y25693095D02*
X58169318Y25572143D01*
X58169318Y25572143D02*
X58169318Y25330238D01*
X58169318Y25330238D02*
X58108842Y25209286D01*
X58108842Y25209286D02*
X58048365Y25148810D01*
X58048365Y25148810D02*
X57927413Y25088333D01*
X57927413Y25088333D02*
X57625032Y25088333D01*
X57625032Y25088333D02*
X57504080Y25148810D01*
X57504080Y25148810D02*
X57443603Y25209286D01*
X57443603Y25209286D02*
X57383127Y25330238D01*
X57383127Y25330238D02*
X57383127Y25572143D01*
X57383127Y25572143D02*
X57443603Y25693095D01*
X57443603Y25693095D02*
X57504080Y25753572D01*
X57504080Y25753572D02*
X57625032Y25814048D01*
D10*
X21444819Y50672858D02*
X20968628Y51006191D01*
X21444819Y51244286D02*
X20444819Y51244286D01*
X20444819Y51244286D02*
X20444819Y50863334D01*
X20444819Y50863334D02*
X20492438Y50768096D01*
X20492438Y50768096D02*
X20540057Y50720477D01*
X20540057Y50720477D02*
X20635295Y50672858D01*
X20635295Y50672858D02*
X20778152Y50672858D01*
X20778152Y50672858D02*
X20873390Y50720477D01*
X20873390Y50720477D02*
X20921009Y50768096D01*
X20921009Y50768096D02*
X20968628Y50863334D01*
X20968628Y50863334D02*
X20968628Y51244286D01*
X20444819Y50339524D02*
X20444819Y49720477D01*
X20444819Y49720477D02*
X20825771Y50053810D01*
X20825771Y50053810D02*
X20825771Y49910953D01*
X20825771Y49910953D02*
X20873390Y49815715D01*
X20873390Y49815715D02*
X20921009Y49768096D01*
X20921009Y49768096D02*
X21016247Y49720477D01*
X21016247Y49720477D02*
X21254342Y49720477D01*
X21254342Y49720477D02*
X21349580Y49768096D01*
X21349580Y49768096D02*
X21397200Y49815715D01*
X21397200Y49815715D02*
X21444819Y49910953D01*
X21444819Y49910953D02*
X21444819Y50196667D01*
X21444819Y50196667D02*
X21397200Y50291905D01*
X21397200Y50291905D02*
X21349580Y50339524D01*
X20778152Y48863334D02*
X21444819Y48863334D01*
X20397200Y49101429D02*
X21111485Y49339524D01*
X21111485Y49339524D02*
X21111485Y48720477D01*
X25014819Y35842858D02*
X24538628Y36176191D01*
X25014819Y36414286D02*
X24014819Y36414286D01*
X24014819Y36414286D02*
X24014819Y36033334D01*
X24014819Y36033334D02*
X24062438Y35938096D01*
X24062438Y35938096D02*
X24110057Y35890477D01*
X24110057Y35890477D02*
X24205295Y35842858D01*
X24205295Y35842858D02*
X24348152Y35842858D01*
X24348152Y35842858D02*
X24443390Y35890477D01*
X24443390Y35890477D02*
X24491009Y35938096D01*
X24491009Y35938096D02*
X24538628Y36033334D01*
X24538628Y36033334D02*
X24538628Y36414286D01*
X24014819Y35509524D02*
X24014819Y34890477D01*
X24014819Y34890477D02*
X24395771Y35223810D01*
X24395771Y35223810D02*
X24395771Y35080953D01*
X24395771Y35080953D02*
X24443390Y34985715D01*
X24443390Y34985715D02*
X24491009Y34938096D01*
X24491009Y34938096D02*
X24586247Y34890477D01*
X24586247Y34890477D02*
X24824342Y34890477D01*
X24824342Y34890477D02*
X24919580Y34938096D01*
X24919580Y34938096D02*
X24967200Y34985715D01*
X24967200Y34985715D02*
X25014819Y35080953D01*
X25014819Y35080953D02*
X25014819Y35366667D01*
X25014819Y35366667D02*
X24967200Y35461905D01*
X24967200Y35461905D02*
X24919580Y35509524D01*
X24014819Y34557143D02*
X24014819Y33938096D01*
X24014819Y33938096D02*
X24395771Y34271429D01*
X24395771Y34271429D02*
X24395771Y34128572D01*
X24395771Y34128572D02*
X24443390Y34033334D01*
X24443390Y34033334D02*
X24491009Y33985715D01*
X24491009Y33985715D02*
X24586247Y33938096D01*
X24586247Y33938096D02*
X24824342Y33938096D01*
X24824342Y33938096D02*
X24919580Y33985715D01*
X24919580Y33985715D02*
X24967200Y34033334D01*
X24967200Y34033334D02*
X25014819Y34128572D01*
X25014819Y34128572D02*
X25014819Y34414286D01*
X25014819Y34414286D02*
X24967200Y34509524D01*
X24967200Y34509524D02*
X24919580Y34557143D01*
X22215238Y52399943D02*
X22310476Y52447562D01*
X22310476Y52447562D02*
X22405714Y52542800D01*
X22405714Y52542800D02*
X22548571Y52685658D01*
X22548571Y52685658D02*
X22643809Y52733277D01*
X22643809Y52733277D02*
X22739047Y52733277D01*
X22691428Y52495181D02*
X22786666Y52542800D01*
X22786666Y52542800D02*
X22881904Y52638039D01*
X22881904Y52638039D02*
X22929523Y52828515D01*
X22929523Y52828515D02*
X22929523Y53161848D01*
X22929523Y53161848D02*
X22881904Y53352324D01*
X22881904Y53352324D02*
X22786666Y53447562D01*
X22786666Y53447562D02*
X22691428Y53495181D01*
X22691428Y53495181D02*
X22500952Y53495181D01*
X22500952Y53495181D02*
X22405714Y53447562D01*
X22405714Y53447562D02*
X22310476Y53352324D01*
X22310476Y53352324D02*
X22262857Y53161848D01*
X22262857Y53161848D02*
X22262857Y52828515D01*
X22262857Y52828515D02*
X22310476Y52638039D01*
X22310476Y52638039D02*
X22405714Y52542800D01*
X22405714Y52542800D02*
X22500952Y52495181D01*
X22500952Y52495181D02*
X22691428Y52495181D01*
X21310476Y52495181D02*
X21881904Y52495181D01*
X21596190Y52495181D02*
X21596190Y53495181D01*
X21596190Y53495181D02*
X21691428Y53352324D01*
X21691428Y53352324D02*
X21786666Y53257086D01*
X21786666Y53257086D02*
X21881904Y53209467D01*
X40919819Y55153334D02*
X41634104Y55153334D01*
X41634104Y55153334D02*
X41776961Y55200953D01*
X41776961Y55200953D02*
X41872200Y55296191D01*
X41872200Y55296191D02*
X41919819Y55439048D01*
X41919819Y55439048D02*
X41919819Y55534286D01*
X40919819Y54772381D02*
X40919819Y54105715D01*
X40919819Y54105715D02*
X41919819Y54534286D01*
X23548094Y31135181D02*
X23548094Y32135181D01*
X23548094Y32135181D02*
X23309999Y32135181D01*
X23309999Y32135181D02*
X23167142Y32087562D01*
X23167142Y32087562D02*
X23071904Y31992324D01*
X23071904Y31992324D02*
X23024285Y31897086D01*
X23024285Y31897086D02*
X22976666Y31706610D01*
X22976666Y31706610D02*
X22976666Y31563753D01*
X22976666Y31563753D02*
X23024285Y31373277D01*
X23024285Y31373277D02*
X23071904Y31278039D01*
X23071904Y31278039D02*
X23167142Y31182800D01*
X23167142Y31182800D02*
X23309999Y31135181D01*
X23309999Y31135181D02*
X23548094Y31135181D01*
X22024285Y31135181D02*
X22595713Y31135181D01*
X22309999Y31135181D02*
X22309999Y32135181D01*
X22309999Y32135181D02*
X22405237Y31992324D01*
X22405237Y31992324D02*
X22500475Y31897086D01*
X22500475Y31897086D02*
X22595713Y31849467D01*
X1169580Y45292858D02*
X1217200Y45340477D01*
X1217200Y45340477D02*
X1264819Y45483334D01*
X1264819Y45483334D02*
X1264819Y45578572D01*
X1264819Y45578572D02*
X1217200Y45721429D01*
X1217200Y45721429D02*
X1121961Y45816667D01*
X1121961Y45816667D02*
X1026723Y45864286D01*
X1026723Y45864286D02*
X836247Y45911905D01*
X836247Y45911905D02*
X693390Y45911905D01*
X693390Y45911905D02*
X502914Y45864286D01*
X502914Y45864286D02*
X407676Y45816667D01*
X407676Y45816667D02*
X312438Y45721429D01*
X312438Y45721429D02*
X264819Y45578572D01*
X264819Y45578572D02*
X264819Y45483334D01*
X264819Y45483334D02*
X312438Y45340477D01*
X312438Y45340477D02*
X360057Y45292858D01*
X360057Y44911905D02*
X312438Y44864286D01*
X312438Y44864286D02*
X264819Y44769048D01*
X264819Y44769048D02*
X264819Y44530953D01*
X264819Y44530953D02*
X312438Y44435715D01*
X312438Y44435715D02*
X360057Y44388096D01*
X360057Y44388096D02*
X455295Y44340477D01*
X455295Y44340477D02*
X550533Y44340477D01*
X550533Y44340477D02*
X693390Y44388096D01*
X693390Y44388096D02*
X1264819Y44959524D01*
X1264819Y44959524D02*
X1264819Y44340477D01*
X264819Y43483334D02*
X264819Y43673810D01*
X264819Y43673810D02*
X312438Y43769048D01*
X312438Y43769048D02*
X360057Y43816667D01*
X360057Y43816667D02*
X502914Y43911905D01*
X502914Y43911905D02*
X693390Y43959524D01*
X693390Y43959524D02*
X1074342Y43959524D01*
X1074342Y43959524D02*
X1169580Y43911905D01*
X1169580Y43911905D02*
X1217200Y43864286D01*
X1217200Y43864286D02*
X1264819Y43769048D01*
X1264819Y43769048D02*
X1264819Y43578572D01*
X1264819Y43578572D02*
X1217200Y43483334D01*
X1217200Y43483334D02*
X1169580Y43435715D01*
X1169580Y43435715D02*
X1074342Y43388096D01*
X1074342Y43388096D02*
X836247Y43388096D01*
X836247Y43388096D02*
X741009Y43435715D01*
X741009Y43435715D02*
X693390Y43483334D01*
X693390Y43483334D02*
X645771Y43578572D01*
X645771Y43578572D02*
X645771Y43769048D01*
X645771Y43769048D02*
X693390Y43864286D01*
X693390Y43864286D02*
X741009Y43911905D01*
X741009Y43911905D02*
X836247Y43959524D01*
X57609580Y45302858D02*
X57657200Y45350477D01*
X57657200Y45350477D02*
X57704819Y45493334D01*
X57704819Y45493334D02*
X57704819Y45588572D01*
X57704819Y45588572D02*
X57657200Y45731429D01*
X57657200Y45731429D02*
X57561961Y45826667D01*
X57561961Y45826667D02*
X57466723Y45874286D01*
X57466723Y45874286D02*
X57276247Y45921905D01*
X57276247Y45921905D02*
X57133390Y45921905D01*
X57133390Y45921905D02*
X56942914Y45874286D01*
X56942914Y45874286D02*
X56847676Y45826667D01*
X56847676Y45826667D02*
X56752438Y45731429D01*
X56752438Y45731429D02*
X56704819Y45588572D01*
X56704819Y45588572D02*
X56704819Y45493334D01*
X56704819Y45493334D02*
X56752438Y45350477D01*
X56752438Y45350477D02*
X56800057Y45302858D01*
X56800057Y44921905D02*
X56752438Y44874286D01*
X56752438Y44874286D02*
X56704819Y44779048D01*
X56704819Y44779048D02*
X56704819Y44540953D01*
X56704819Y44540953D02*
X56752438Y44445715D01*
X56752438Y44445715D02*
X56800057Y44398096D01*
X56800057Y44398096D02*
X56895295Y44350477D01*
X56895295Y44350477D02*
X56990533Y44350477D01*
X56990533Y44350477D02*
X57133390Y44398096D01*
X57133390Y44398096D02*
X57704819Y44969524D01*
X57704819Y44969524D02*
X57704819Y44350477D01*
X56704819Y44017143D02*
X56704819Y43398096D01*
X56704819Y43398096D02*
X57085771Y43731429D01*
X57085771Y43731429D02*
X57085771Y43588572D01*
X57085771Y43588572D02*
X57133390Y43493334D01*
X57133390Y43493334D02*
X57181009Y43445715D01*
X57181009Y43445715D02*
X57276247Y43398096D01*
X57276247Y43398096D02*
X57514342Y43398096D01*
X57514342Y43398096D02*
X57609580Y43445715D01*
X57609580Y43445715D02*
X57657200Y43493334D01*
X57657200Y43493334D02*
X57704819Y43588572D01*
X57704819Y43588572D02*
X57704819Y43874286D01*
X57704819Y43874286D02*
X57657200Y43969524D01*
X57657200Y43969524D02*
X57609580Y44017143D01*
D13*
X46513333Y40831158D02*
X46331904Y40770682D01*
X46331904Y40770682D02*
X46029523Y40770682D01*
X46029523Y40770682D02*
X45908571Y40831158D01*
X45908571Y40831158D02*
X45848095Y40891635D01*
X45848095Y40891635D02*
X45787618Y41012587D01*
X45787618Y41012587D02*
X45787618Y41133539D01*
X45787618Y41133539D02*
X45848095Y41254492D01*
X45848095Y41254492D02*
X45908571Y41314968D01*
X45908571Y41314968D02*
X46029523Y41375444D01*
X46029523Y41375444D02*
X46271428Y41435920D01*
X46271428Y41435920D02*
X46392380Y41496397D01*
X46392380Y41496397D02*
X46452857Y41556873D01*
X46452857Y41556873D02*
X46513333Y41677825D01*
X46513333Y41677825D02*
X46513333Y41798778D01*
X46513333Y41798778D02*
X46452857Y41919730D01*
X46452857Y41919730D02*
X46392380Y41980206D01*
X46392380Y41980206D02*
X46271428Y42040682D01*
X46271428Y42040682D02*
X45969047Y42040682D01*
X45969047Y42040682D02*
X45787618Y41980206D01*
X45364285Y42040682D02*
X45061904Y40770682D01*
X45061904Y40770682D02*
X44819999Y41677825D01*
X44819999Y41677825D02*
X44578094Y40770682D01*
X44578094Y40770682D02*
X44275714Y42040682D01*
X43852380Y41919730D02*
X43791904Y41980206D01*
X43791904Y41980206D02*
X43670951Y42040682D01*
X43670951Y42040682D02*
X43368570Y42040682D01*
X43368570Y42040682D02*
X43247618Y41980206D01*
X43247618Y41980206D02*
X43187142Y41919730D01*
X43187142Y41919730D02*
X43126665Y41798778D01*
X43126665Y41798778D02*
X43126665Y41677825D01*
X43126665Y41677825D02*
X43187142Y41496397D01*
X43187142Y41496397D02*
X43912856Y40770682D01*
X43912856Y40770682D02*
X43126665Y40770682D01*
D10*
X44654819Y32592858D02*
X44178628Y32926191D01*
X44654819Y33164286D02*
X43654819Y33164286D01*
X43654819Y33164286D02*
X43654819Y32783334D01*
X43654819Y32783334D02*
X43702438Y32688096D01*
X43702438Y32688096D02*
X43750057Y32640477D01*
X43750057Y32640477D02*
X43845295Y32592858D01*
X43845295Y32592858D02*
X43988152Y32592858D01*
X43988152Y32592858D02*
X44083390Y32640477D01*
X44083390Y32640477D02*
X44131009Y32688096D01*
X44131009Y32688096D02*
X44178628Y32783334D01*
X44178628Y32783334D02*
X44178628Y33164286D01*
X43750057Y32211905D02*
X43702438Y32164286D01*
X43702438Y32164286D02*
X43654819Y32069048D01*
X43654819Y32069048D02*
X43654819Y31830953D01*
X43654819Y31830953D02*
X43702438Y31735715D01*
X43702438Y31735715D02*
X43750057Y31688096D01*
X43750057Y31688096D02*
X43845295Y31640477D01*
X43845295Y31640477D02*
X43940533Y31640477D01*
X43940533Y31640477D02*
X44083390Y31688096D01*
X44083390Y31688096D02*
X44654819Y32259524D01*
X44654819Y32259524D02*
X44654819Y31640477D01*
X43654819Y31307143D02*
X43654819Y30688096D01*
X43654819Y30688096D02*
X44035771Y31021429D01*
X44035771Y31021429D02*
X44035771Y30878572D01*
X44035771Y30878572D02*
X44083390Y30783334D01*
X44083390Y30783334D02*
X44131009Y30735715D01*
X44131009Y30735715D02*
X44226247Y30688096D01*
X44226247Y30688096D02*
X44464342Y30688096D01*
X44464342Y30688096D02*
X44559580Y30735715D01*
X44559580Y30735715D02*
X44607200Y30783334D01*
X44607200Y30783334D02*
X44654819Y30878572D01*
X44654819Y30878572D02*
X44654819Y31164286D01*
X44654819Y31164286D02*
X44607200Y31259524D01*
X44607200Y31259524D02*
X44559580Y31307143D01*
X25784819Y25453334D02*
X26499104Y25453334D01*
X26499104Y25453334D02*
X26641961Y25500953D01*
X26641961Y25500953D02*
X26737200Y25596191D01*
X26737200Y25596191D02*
X26784819Y25739048D01*
X26784819Y25739048D02*
X26784819Y25834286D01*
X26784819Y24453334D02*
X26784819Y25024762D01*
X26784819Y24739048D02*
X25784819Y24739048D01*
X25784819Y24739048D02*
X25927676Y24834286D01*
X25927676Y24834286D02*
X26022914Y24929524D01*
X26022914Y24929524D02*
X26070533Y25024762D01*
X57392857Y33095181D02*
X57726190Y33571372D01*
X57964285Y33095181D02*
X57964285Y34095181D01*
X57964285Y34095181D02*
X57583333Y34095181D01*
X57583333Y34095181D02*
X57488095Y34047562D01*
X57488095Y34047562D02*
X57440476Y33999943D01*
X57440476Y33999943D02*
X57392857Y33904705D01*
X57392857Y33904705D02*
X57392857Y33761848D01*
X57392857Y33761848D02*
X57440476Y33666610D01*
X57440476Y33666610D02*
X57488095Y33618991D01*
X57488095Y33618991D02*
X57583333Y33571372D01*
X57583333Y33571372D02*
X57964285Y33571372D01*
X56440476Y33095181D02*
X57011904Y33095181D01*
X56726190Y33095181D02*
X56726190Y34095181D01*
X56726190Y34095181D02*
X56821428Y33952324D01*
X56821428Y33952324D02*
X56916666Y33857086D01*
X56916666Y33857086D02*
X57011904Y33809467D01*
X55964285Y33095181D02*
X55773809Y33095181D01*
X55773809Y33095181D02*
X55678571Y33142800D01*
X55678571Y33142800D02*
X55630952Y33190420D01*
X55630952Y33190420D02*
X55535714Y33333277D01*
X55535714Y33333277D02*
X55488095Y33523753D01*
X55488095Y33523753D02*
X55488095Y33904705D01*
X55488095Y33904705D02*
X55535714Y33999943D01*
X55535714Y33999943D02*
X55583333Y34047562D01*
X55583333Y34047562D02*
X55678571Y34095181D01*
X55678571Y34095181D02*
X55869047Y34095181D01*
X55869047Y34095181D02*
X55964285Y34047562D01*
X55964285Y34047562D02*
X56011904Y33999943D01*
X56011904Y33999943D02*
X56059523Y33904705D01*
X56059523Y33904705D02*
X56059523Y33666610D01*
X56059523Y33666610D02*
X56011904Y33571372D01*
X56011904Y33571372D02*
X55964285Y33523753D01*
X55964285Y33523753D02*
X55869047Y33476134D01*
X55869047Y33476134D02*
X55678571Y33476134D01*
X55678571Y33476134D02*
X55583333Y33523753D01*
X55583333Y33523753D02*
X55535714Y33571372D01*
X55535714Y33571372D02*
X55488095Y33666610D01*
X39544819Y32612858D02*
X39068628Y32946191D01*
X39544819Y33184286D02*
X38544819Y33184286D01*
X38544819Y33184286D02*
X38544819Y32803334D01*
X38544819Y32803334D02*
X38592438Y32708096D01*
X38592438Y32708096D02*
X38640057Y32660477D01*
X38640057Y32660477D02*
X38735295Y32612858D01*
X38735295Y32612858D02*
X38878152Y32612858D01*
X38878152Y32612858D02*
X38973390Y32660477D01*
X38973390Y32660477D02*
X39021009Y32708096D01*
X39021009Y32708096D02*
X39068628Y32803334D01*
X39068628Y32803334D02*
X39068628Y33184286D01*
X38640057Y32231905D02*
X38592438Y32184286D01*
X38592438Y32184286D02*
X38544819Y32089048D01*
X38544819Y32089048D02*
X38544819Y31850953D01*
X38544819Y31850953D02*
X38592438Y31755715D01*
X38592438Y31755715D02*
X38640057Y31708096D01*
X38640057Y31708096D02*
X38735295Y31660477D01*
X38735295Y31660477D02*
X38830533Y31660477D01*
X38830533Y31660477D02*
X38973390Y31708096D01*
X38973390Y31708096D02*
X39544819Y32279524D01*
X39544819Y32279524D02*
X39544819Y31660477D01*
X38544819Y30755715D02*
X38544819Y31231905D01*
X38544819Y31231905D02*
X39021009Y31279524D01*
X39021009Y31279524D02*
X38973390Y31231905D01*
X38973390Y31231905D02*
X38925771Y31136667D01*
X38925771Y31136667D02*
X38925771Y30898572D01*
X38925771Y30898572D02*
X38973390Y30803334D01*
X38973390Y30803334D02*
X39021009Y30755715D01*
X39021009Y30755715D02*
X39116247Y30708096D01*
X39116247Y30708096D02*
X39354342Y30708096D01*
X39354342Y30708096D02*
X39449580Y30755715D01*
X39449580Y30755715D02*
X39497200Y30803334D01*
X39497200Y30803334D02*
X39544819Y30898572D01*
X39544819Y30898572D02*
X39544819Y31136667D01*
X39544819Y31136667D02*
X39497200Y31231905D01*
X39497200Y31231905D02*
X39449580Y31279524D01*
X49562857Y31985181D02*
X49896190Y32461372D01*
X50134285Y31985181D02*
X50134285Y32985181D01*
X50134285Y32985181D02*
X49753333Y32985181D01*
X49753333Y32985181D02*
X49658095Y32937562D01*
X49658095Y32937562D02*
X49610476Y32889943D01*
X49610476Y32889943D02*
X49562857Y32794705D01*
X49562857Y32794705D02*
X49562857Y32651848D01*
X49562857Y32651848D02*
X49610476Y32556610D01*
X49610476Y32556610D02*
X49658095Y32508991D01*
X49658095Y32508991D02*
X49753333Y32461372D01*
X49753333Y32461372D02*
X50134285Y32461372D01*
X49181904Y32889943D02*
X49134285Y32937562D01*
X49134285Y32937562D02*
X49039047Y32985181D01*
X49039047Y32985181D02*
X48800952Y32985181D01*
X48800952Y32985181D02*
X48705714Y32937562D01*
X48705714Y32937562D02*
X48658095Y32889943D01*
X48658095Y32889943D02*
X48610476Y32794705D01*
X48610476Y32794705D02*
X48610476Y32699467D01*
X48610476Y32699467D02*
X48658095Y32556610D01*
X48658095Y32556610D02*
X49229523Y31985181D01*
X49229523Y31985181D02*
X48610476Y31985181D01*
X47658095Y31985181D02*
X48229523Y31985181D01*
X47943809Y31985181D02*
X47943809Y32985181D01*
X47943809Y32985181D02*
X48039047Y32842324D01*
X48039047Y32842324D02*
X48134285Y32747086D01*
X48134285Y32747086D02*
X48229523Y32699467D01*
X16439580Y8082858D02*
X16487200Y8130477D01*
X16487200Y8130477D02*
X16534819Y8273334D01*
X16534819Y8273334D02*
X16534819Y8368572D01*
X16534819Y8368572D02*
X16487200Y8511429D01*
X16487200Y8511429D02*
X16391961Y8606667D01*
X16391961Y8606667D02*
X16296723Y8654286D01*
X16296723Y8654286D02*
X16106247Y8701905D01*
X16106247Y8701905D02*
X15963390Y8701905D01*
X15963390Y8701905D02*
X15772914Y8654286D01*
X15772914Y8654286D02*
X15677676Y8606667D01*
X15677676Y8606667D02*
X15582438Y8511429D01*
X15582438Y8511429D02*
X15534819Y8368572D01*
X15534819Y8368572D02*
X15534819Y8273334D01*
X15534819Y8273334D02*
X15582438Y8130477D01*
X15582438Y8130477D02*
X15630057Y8082858D01*
X15630057Y7701905D02*
X15582438Y7654286D01*
X15582438Y7654286D02*
X15534819Y7559048D01*
X15534819Y7559048D02*
X15534819Y7320953D01*
X15534819Y7320953D02*
X15582438Y7225715D01*
X15582438Y7225715D02*
X15630057Y7178096D01*
X15630057Y7178096D02*
X15725295Y7130477D01*
X15725295Y7130477D02*
X15820533Y7130477D01*
X15820533Y7130477D02*
X15963390Y7178096D01*
X15963390Y7178096D02*
X16534819Y7749524D01*
X16534819Y7749524D02*
X16534819Y7130477D01*
X15630057Y6749524D02*
X15582438Y6701905D01*
X15582438Y6701905D02*
X15534819Y6606667D01*
X15534819Y6606667D02*
X15534819Y6368572D01*
X15534819Y6368572D02*
X15582438Y6273334D01*
X15582438Y6273334D02*
X15630057Y6225715D01*
X15630057Y6225715D02*
X15725295Y6178096D01*
X15725295Y6178096D02*
X15820533Y6178096D01*
X15820533Y6178096D02*
X15963390Y6225715D01*
X15963390Y6225715D02*
X16534819Y6797143D01*
X16534819Y6797143D02*
X16534819Y6178096D01*
X60579104Y29758096D02*
X60579104Y29281906D01*
X60864819Y29853334D02*
X59864819Y29520001D01*
X59864819Y29520001D02*
X60864819Y29186668D01*
X60198152Y28853334D02*
X60864819Y28853334D01*
X60293390Y28853334D02*
X60245771Y28805715D01*
X60245771Y28805715D02*
X60198152Y28710477D01*
X60198152Y28710477D02*
X60198152Y28567620D01*
X60198152Y28567620D02*
X60245771Y28472382D01*
X60245771Y28472382D02*
X60341009Y28424763D01*
X60341009Y28424763D02*
X60864819Y28424763D01*
X60198152Y28091429D02*
X60198152Y27710477D01*
X59864819Y27948572D02*
X60721961Y27948572D01*
X60721961Y27948572D02*
X60817200Y27900953D01*
X60817200Y27900953D02*
X60864819Y27805715D01*
X60864819Y27805715D02*
X60864819Y27710477D01*
X60817200Y26996191D02*
X60864819Y27091429D01*
X60864819Y27091429D02*
X60864819Y27281905D01*
X60864819Y27281905D02*
X60817200Y27377143D01*
X60817200Y27377143D02*
X60721961Y27424762D01*
X60721961Y27424762D02*
X60341009Y27424762D01*
X60341009Y27424762D02*
X60245771Y27377143D01*
X60245771Y27377143D02*
X60198152Y27281905D01*
X60198152Y27281905D02*
X60198152Y27091429D01*
X60198152Y27091429D02*
X60245771Y26996191D01*
X60245771Y26996191D02*
X60341009Y26948572D01*
X60341009Y26948572D02*
X60436247Y26948572D01*
X60436247Y26948572D02*
X60531485Y27424762D01*
X60198152Y26520000D02*
X60864819Y26520000D01*
X60293390Y26520000D02*
X60245771Y26472381D01*
X60245771Y26472381D02*
X60198152Y26377143D01*
X60198152Y26377143D02*
X60198152Y26234286D01*
X60198152Y26234286D02*
X60245771Y26139048D01*
X60245771Y26139048D02*
X60341009Y26091429D01*
X60341009Y26091429D02*
X60864819Y26091429D01*
X60198152Y25615238D02*
X60864819Y25615238D01*
X60293390Y25615238D02*
X60245771Y25567619D01*
X60245771Y25567619D02*
X60198152Y25472381D01*
X60198152Y25472381D02*
X60198152Y25329524D01*
X60198152Y25329524D02*
X60245771Y25234286D01*
X60245771Y25234286D02*
X60341009Y25186667D01*
X60341009Y25186667D02*
X60864819Y25186667D01*
X60864819Y24281905D02*
X60341009Y24281905D01*
X60341009Y24281905D02*
X60245771Y24329524D01*
X60245771Y24329524D02*
X60198152Y24424762D01*
X60198152Y24424762D02*
X60198152Y24615238D01*
X60198152Y24615238D02*
X60245771Y24710476D01*
X60817200Y24281905D02*
X60864819Y24377143D01*
X60864819Y24377143D02*
X60864819Y24615238D01*
X60864819Y24615238D02*
X60817200Y24710476D01*
X60817200Y24710476D02*
X60721961Y24758095D01*
X60721961Y24758095D02*
X60626723Y24758095D01*
X60626723Y24758095D02*
X60531485Y24710476D01*
X60531485Y24710476D02*
X60483866Y24615238D01*
X60483866Y24615238D02*
X60483866Y24377143D01*
X60483866Y24377143D02*
X60436247Y24281905D01*
X60864819Y23281905D02*
X60864819Y23853333D01*
X60864819Y23567619D02*
X59864819Y23567619D01*
X59864819Y23567619D02*
X60007676Y23662857D01*
X60007676Y23662857D02*
X60102914Y23758095D01*
X60102914Y23758095D02*
X60150533Y23853333D01*
X11574819Y32602858D02*
X11098628Y32936191D01*
X11574819Y33174286D02*
X10574819Y33174286D01*
X10574819Y33174286D02*
X10574819Y32793334D01*
X10574819Y32793334D02*
X10622438Y32698096D01*
X10622438Y32698096D02*
X10670057Y32650477D01*
X10670057Y32650477D02*
X10765295Y32602858D01*
X10765295Y32602858D02*
X10908152Y32602858D01*
X10908152Y32602858D02*
X11003390Y32650477D01*
X11003390Y32650477D02*
X11051009Y32698096D01*
X11051009Y32698096D02*
X11098628Y32793334D01*
X11098628Y32793334D02*
X11098628Y33174286D01*
X11574819Y31650477D02*
X11574819Y32221905D01*
X11574819Y31936191D02*
X10574819Y31936191D01*
X10574819Y31936191D02*
X10717676Y32031429D01*
X10717676Y32031429D02*
X10812914Y32126667D01*
X10812914Y32126667D02*
X10860533Y32221905D01*
X10574819Y30793334D02*
X10574819Y30983810D01*
X10574819Y30983810D02*
X10622438Y31079048D01*
X10622438Y31079048D02*
X10670057Y31126667D01*
X10670057Y31126667D02*
X10812914Y31221905D01*
X10812914Y31221905D02*
X11003390Y31269524D01*
X11003390Y31269524D02*
X11384342Y31269524D01*
X11384342Y31269524D02*
X11479580Y31221905D01*
X11479580Y31221905D02*
X11527200Y31174286D01*
X11527200Y31174286D02*
X11574819Y31079048D01*
X11574819Y31079048D02*
X11574819Y30888572D01*
X11574819Y30888572D02*
X11527200Y30793334D01*
X11527200Y30793334D02*
X11479580Y30745715D01*
X11479580Y30745715D02*
X11384342Y30698096D01*
X11384342Y30698096D02*
X11146247Y30698096D01*
X11146247Y30698096D02*
X11051009Y30745715D01*
X11051009Y30745715D02*
X11003390Y30793334D01*
X11003390Y30793334D02*
X10955771Y30888572D01*
X10955771Y30888572D02*
X10955771Y31079048D01*
X10955771Y31079048D02*
X11003390Y31174286D01*
X11003390Y31174286D02*
X11051009Y31221905D01*
X11051009Y31221905D02*
X11146247Y31269524D01*
X14124819Y32602858D02*
X13648628Y32936191D01*
X14124819Y33174286D02*
X13124819Y33174286D01*
X13124819Y33174286D02*
X13124819Y32793334D01*
X13124819Y32793334D02*
X13172438Y32698096D01*
X13172438Y32698096D02*
X13220057Y32650477D01*
X13220057Y32650477D02*
X13315295Y32602858D01*
X13315295Y32602858D02*
X13458152Y32602858D01*
X13458152Y32602858D02*
X13553390Y32650477D01*
X13553390Y32650477D02*
X13601009Y32698096D01*
X13601009Y32698096D02*
X13648628Y32793334D01*
X13648628Y32793334D02*
X13648628Y33174286D01*
X14124819Y31650477D02*
X14124819Y32221905D01*
X14124819Y31936191D02*
X13124819Y31936191D01*
X13124819Y31936191D02*
X13267676Y32031429D01*
X13267676Y32031429D02*
X13362914Y32126667D01*
X13362914Y32126667D02*
X13410533Y32221905D01*
X13124819Y30745715D02*
X13124819Y31221905D01*
X13124819Y31221905D02*
X13601009Y31269524D01*
X13601009Y31269524D02*
X13553390Y31221905D01*
X13553390Y31221905D02*
X13505771Y31126667D01*
X13505771Y31126667D02*
X13505771Y30888572D01*
X13505771Y30888572D02*
X13553390Y30793334D01*
X13553390Y30793334D02*
X13601009Y30745715D01*
X13601009Y30745715D02*
X13696247Y30698096D01*
X13696247Y30698096D02*
X13934342Y30698096D01*
X13934342Y30698096D02*
X14029580Y30745715D01*
X14029580Y30745715D02*
X14077200Y30793334D01*
X14077200Y30793334D02*
X14124819Y30888572D01*
X14124819Y30888572D02*
X14124819Y31126667D01*
X14124819Y31126667D02*
X14077200Y31221905D01*
X14077200Y31221905D02*
X14029580Y31269524D01*
X31924819Y32602858D02*
X31448628Y32936191D01*
X31924819Y33174286D02*
X30924819Y33174286D01*
X30924819Y33174286D02*
X30924819Y32793334D01*
X30924819Y32793334D02*
X30972438Y32698096D01*
X30972438Y32698096D02*
X31020057Y32650477D01*
X31020057Y32650477D02*
X31115295Y32602858D01*
X31115295Y32602858D02*
X31258152Y32602858D01*
X31258152Y32602858D02*
X31353390Y32650477D01*
X31353390Y32650477D02*
X31401009Y32698096D01*
X31401009Y32698096D02*
X31448628Y32793334D01*
X31448628Y32793334D02*
X31448628Y33174286D01*
X31020057Y32221905D02*
X30972438Y32174286D01*
X30972438Y32174286D02*
X30924819Y32079048D01*
X30924819Y32079048D02*
X30924819Y31840953D01*
X30924819Y31840953D02*
X30972438Y31745715D01*
X30972438Y31745715D02*
X31020057Y31698096D01*
X31020057Y31698096D02*
X31115295Y31650477D01*
X31115295Y31650477D02*
X31210533Y31650477D01*
X31210533Y31650477D02*
X31353390Y31698096D01*
X31353390Y31698096D02*
X31924819Y32269524D01*
X31924819Y32269524D02*
X31924819Y31650477D01*
X31353390Y31079048D02*
X31305771Y31174286D01*
X31305771Y31174286D02*
X31258152Y31221905D01*
X31258152Y31221905D02*
X31162914Y31269524D01*
X31162914Y31269524D02*
X31115295Y31269524D01*
X31115295Y31269524D02*
X31020057Y31221905D01*
X31020057Y31221905D02*
X30972438Y31174286D01*
X30972438Y31174286D02*
X30924819Y31079048D01*
X30924819Y31079048D02*
X30924819Y30888572D01*
X30924819Y30888572D02*
X30972438Y30793334D01*
X30972438Y30793334D02*
X31020057Y30745715D01*
X31020057Y30745715D02*
X31115295Y30698096D01*
X31115295Y30698096D02*
X31162914Y30698096D01*
X31162914Y30698096D02*
X31258152Y30745715D01*
X31258152Y30745715D02*
X31305771Y30793334D01*
X31305771Y30793334D02*
X31353390Y30888572D01*
X31353390Y30888572D02*
X31353390Y31079048D01*
X31353390Y31079048D02*
X31401009Y31174286D01*
X31401009Y31174286D02*
X31448628Y31221905D01*
X31448628Y31221905D02*
X31543866Y31269524D01*
X31543866Y31269524D02*
X31734342Y31269524D01*
X31734342Y31269524D02*
X31829580Y31221905D01*
X31829580Y31221905D02*
X31877200Y31174286D01*
X31877200Y31174286D02*
X31924819Y31079048D01*
X31924819Y31079048D02*
X31924819Y30888572D01*
X31924819Y30888572D02*
X31877200Y30793334D01*
X31877200Y30793334D02*
X31829580Y30745715D01*
X31829580Y30745715D02*
X31734342Y30698096D01*
X31734342Y30698096D02*
X31543866Y30698096D01*
X31543866Y30698096D02*
X31448628Y30745715D01*
X31448628Y30745715D02*
X31401009Y30793334D01*
X31401009Y30793334D02*
X31353390Y30888572D01*
X6504819Y32602858D02*
X6028628Y32936191D01*
X6504819Y33174286D02*
X5504819Y33174286D01*
X5504819Y33174286D02*
X5504819Y32793334D01*
X5504819Y32793334D02*
X5552438Y32698096D01*
X5552438Y32698096D02*
X5600057Y32650477D01*
X5600057Y32650477D02*
X5695295Y32602858D01*
X5695295Y32602858D02*
X5838152Y32602858D01*
X5838152Y32602858D02*
X5933390Y32650477D01*
X5933390Y32650477D02*
X5981009Y32698096D01*
X5981009Y32698096D02*
X6028628Y32793334D01*
X6028628Y32793334D02*
X6028628Y33174286D01*
X6504819Y31650477D02*
X6504819Y32221905D01*
X6504819Y31936191D02*
X5504819Y31936191D01*
X5504819Y31936191D02*
X5647676Y32031429D01*
X5647676Y32031429D02*
X5742914Y32126667D01*
X5742914Y32126667D02*
X5790533Y32221905D01*
X5933390Y31079048D02*
X5885771Y31174286D01*
X5885771Y31174286D02*
X5838152Y31221905D01*
X5838152Y31221905D02*
X5742914Y31269524D01*
X5742914Y31269524D02*
X5695295Y31269524D01*
X5695295Y31269524D02*
X5600057Y31221905D01*
X5600057Y31221905D02*
X5552438Y31174286D01*
X5552438Y31174286D02*
X5504819Y31079048D01*
X5504819Y31079048D02*
X5504819Y30888572D01*
X5504819Y30888572D02*
X5552438Y30793334D01*
X5552438Y30793334D02*
X5600057Y30745715D01*
X5600057Y30745715D02*
X5695295Y30698096D01*
X5695295Y30698096D02*
X5742914Y30698096D01*
X5742914Y30698096D02*
X5838152Y30745715D01*
X5838152Y30745715D02*
X5885771Y30793334D01*
X5885771Y30793334D02*
X5933390Y30888572D01*
X5933390Y30888572D02*
X5933390Y31079048D01*
X5933390Y31079048D02*
X5981009Y31174286D01*
X5981009Y31174286D02*
X6028628Y31221905D01*
X6028628Y31221905D02*
X6123866Y31269524D01*
X6123866Y31269524D02*
X6314342Y31269524D01*
X6314342Y31269524D02*
X6409580Y31221905D01*
X6409580Y31221905D02*
X6457200Y31174286D01*
X6457200Y31174286D02*
X6504819Y31079048D01*
X6504819Y31079048D02*
X6504819Y30888572D01*
X6504819Y30888572D02*
X6457200Y30793334D01*
X6457200Y30793334D02*
X6409580Y30745715D01*
X6409580Y30745715D02*
X6314342Y30698096D01*
X6314342Y30698096D02*
X6123866Y30698096D01*
X6123866Y30698096D02*
X6028628Y30745715D01*
X6028628Y30745715D02*
X5981009Y30793334D01*
X5981009Y30793334D02*
X5933390Y30888572D01*
X26854819Y32602858D02*
X26378628Y32936191D01*
X26854819Y33174286D02*
X25854819Y33174286D01*
X25854819Y33174286D02*
X25854819Y32793334D01*
X25854819Y32793334D02*
X25902438Y32698096D01*
X25902438Y32698096D02*
X25950057Y32650477D01*
X25950057Y32650477D02*
X26045295Y32602858D01*
X26045295Y32602858D02*
X26188152Y32602858D01*
X26188152Y32602858D02*
X26283390Y32650477D01*
X26283390Y32650477D02*
X26331009Y32698096D01*
X26331009Y32698096D02*
X26378628Y32793334D01*
X26378628Y32793334D02*
X26378628Y33174286D01*
X25854819Y32269524D02*
X25854819Y31650477D01*
X25854819Y31650477D02*
X26235771Y31983810D01*
X26235771Y31983810D02*
X26235771Y31840953D01*
X26235771Y31840953D02*
X26283390Y31745715D01*
X26283390Y31745715D02*
X26331009Y31698096D01*
X26331009Y31698096D02*
X26426247Y31650477D01*
X26426247Y31650477D02*
X26664342Y31650477D01*
X26664342Y31650477D02*
X26759580Y31698096D01*
X26759580Y31698096D02*
X26807200Y31745715D01*
X26807200Y31745715D02*
X26854819Y31840953D01*
X26854819Y31840953D02*
X26854819Y32126667D01*
X26854819Y32126667D02*
X26807200Y32221905D01*
X26807200Y32221905D02*
X26759580Y32269524D01*
X25854819Y31031429D02*
X25854819Y30936191D01*
X25854819Y30936191D02*
X25902438Y30840953D01*
X25902438Y30840953D02*
X25950057Y30793334D01*
X25950057Y30793334D02*
X26045295Y30745715D01*
X26045295Y30745715D02*
X26235771Y30698096D01*
X26235771Y30698096D02*
X26473866Y30698096D01*
X26473866Y30698096D02*
X26664342Y30745715D01*
X26664342Y30745715D02*
X26759580Y30793334D01*
X26759580Y30793334D02*
X26807200Y30840953D01*
X26807200Y30840953D02*
X26854819Y30936191D01*
X26854819Y30936191D02*
X26854819Y31031429D01*
X26854819Y31031429D02*
X26807200Y31126667D01*
X26807200Y31126667D02*
X26759580Y31174286D01*
X26759580Y31174286D02*
X26664342Y31221905D01*
X26664342Y31221905D02*
X26473866Y31269524D01*
X26473866Y31269524D02*
X26235771Y31269524D01*
X26235771Y31269524D02*
X26045295Y31221905D01*
X26045295Y31221905D02*
X25950057Y31174286D01*
X25950057Y31174286D02*
X25902438Y31126667D01*
X25902438Y31126667D02*
X25854819Y31031429D01*
X19194819Y32602858D02*
X18718628Y32936191D01*
X19194819Y33174286D02*
X18194819Y33174286D01*
X18194819Y33174286D02*
X18194819Y32793334D01*
X18194819Y32793334D02*
X18242438Y32698096D01*
X18242438Y32698096D02*
X18290057Y32650477D01*
X18290057Y32650477D02*
X18385295Y32602858D01*
X18385295Y32602858D02*
X18528152Y32602858D01*
X18528152Y32602858D02*
X18623390Y32650477D01*
X18623390Y32650477D02*
X18671009Y32698096D01*
X18671009Y32698096D02*
X18718628Y32793334D01*
X18718628Y32793334D02*
X18718628Y33174286D01*
X19194819Y31650477D02*
X19194819Y32221905D01*
X19194819Y31936191D02*
X18194819Y31936191D01*
X18194819Y31936191D02*
X18337676Y32031429D01*
X18337676Y32031429D02*
X18432914Y32126667D01*
X18432914Y32126667D02*
X18480533Y32221905D01*
X18194819Y31317143D02*
X18194819Y30698096D01*
X18194819Y30698096D02*
X18575771Y31031429D01*
X18575771Y31031429D02*
X18575771Y30888572D01*
X18575771Y30888572D02*
X18623390Y30793334D01*
X18623390Y30793334D02*
X18671009Y30745715D01*
X18671009Y30745715D02*
X18766247Y30698096D01*
X18766247Y30698096D02*
X19004342Y30698096D01*
X19004342Y30698096D02*
X19099580Y30745715D01*
X19099580Y30745715D02*
X19147200Y30793334D01*
X19147200Y30793334D02*
X19194819Y30888572D01*
X19194819Y30888572D02*
X19194819Y31174286D01*
X19194819Y31174286D02*
X19147200Y31269524D01*
X19147200Y31269524D02*
X19099580Y31317143D01*
X16664819Y32602858D02*
X16188628Y32936191D01*
X16664819Y33174286D02*
X15664819Y33174286D01*
X15664819Y33174286D02*
X15664819Y32793334D01*
X15664819Y32793334D02*
X15712438Y32698096D01*
X15712438Y32698096D02*
X15760057Y32650477D01*
X15760057Y32650477D02*
X15855295Y32602858D01*
X15855295Y32602858D02*
X15998152Y32602858D01*
X15998152Y32602858D02*
X16093390Y32650477D01*
X16093390Y32650477D02*
X16141009Y32698096D01*
X16141009Y32698096D02*
X16188628Y32793334D01*
X16188628Y32793334D02*
X16188628Y33174286D01*
X16664819Y31650477D02*
X16664819Y32221905D01*
X16664819Y31936191D02*
X15664819Y31936191D01*
X15664819Y31936191D02*
X15807676Y32031429D01*
X15807676Y32031429D02*
X15902914Y32126667D01*
X15902914Y32126667D02*
X15950533Y32221905D01*
X15998152Y30793334D02*
X16664819Y30793334D01*
X15617200Y31031429D02*
X16331485Y31269524D01*
X16331485Y31269524D02*
X16331485Y30650477D01*
X9044819Y32602858D02*
X8568628Y32936191D01*
X9044819Y33174286D02*
X8044819Y33174286D01*
X8044819Y33174286D02*
X8044819Y32793334D01*
X8044819Y32793334D02*
X8092438Y32698096D01*
X8092438Y32698096D02*
X8140057Y32650477D01*
X8140057Y32650477D02*
X8235295Y32602858D01*
X8235295Y32602858D02*
X8378152Y32602858D01*
X8378152Y32602858D02*
X8473390Y32650477D01*
X8473390Y32650477D02*
X8521009Y32698096D01*
X8521009Y32698096D02*
X8568628Y32793334D01*
X8568628Y32793334D02*
X8568628Y33174286D01*
X9044819Y31650477D02*
X9044819Y32221905D01*
X9044819Y31936191D02*
X8044819Y31936191D01*
X8044819Y31936191D02*
X8187676Y32031429D01*
X8187676Y32031429D02*
X8282914Y32126667D01*
X8282914Y32126667D02*
X8330533Y32221905D01*
X8044819Y31317143D02*
X8044819Y30650477D01*
X8044819Y30650477D02*
X9044819Y31079048D01*
X34474819Y32602858D02*
X33998628Y32936191D01*
X34474819Y33174286D02*
X33474819Y33174286D01*
X33474819Y33174286D02*
X33474819Y32793334D01*
X33474819Y32793334D02*
X33522438Y32698096D01*
X33522438Y32698096D02*
X33570057Y32650477D01*
X33570057Y32650477D02*
X33665295Y32602858D01*
X33665295Y32602858D02*
X33808152Y32602858D01*
X33808152Y32602858D02*
X33903390Y32650477D01*
X33903390Y32650477D02*
X33951009Y32698096D01*
X33951009Y32698096D02*
X33998628Y32793334D01*
X33998628Y32793334D02*
X33998628Y33174286D01*
X33570057Y32221905D02*
X33522438Y32174286D01*
X33522438Y32174286D02*
X33474819Y32079048D01*
X33474819Y32079048D02*
X33474819Y31840953D01*
X33474819Y31840953D02*
X33522438Y31745715D01*
X33522438Y31745715D02*
X33570057Y31698096D01*
X33570057Y31698096D02*
X33665295Y31650477D01*
X33665295Y31650477D02*
X33760533Y31650477D01*
X33760533Y31650477D02*
X33903390Y31698096D01*
X33903390Y31698096D02*
X34474819Y32269524D01*
X34474819Y32269524D02*
X34474819Y31650477D01*
X33474819Y31317143D02*
X33474819Y30650477D01*
X33474819Y30650477D02*
X34474819Y31079048D01*
X47174819Y32602858D02*
X46698628Y32936191D01*
X47174819Y33174286D02*
X46174819Y33174286D01*
X46174819Y33174286D02*
X46174819Y32793334D01*
X46174819Y32793334D02*
X46222438Y32698096D01*
X46222438Y32698096D02*
X46270057Y32650477D01*
X46270057Y32650477D02*
X46365295Y32602858D01*
X46365295Y32602858D02*
X46508152Y32602858D01*
X46508152Y32602858D02*
X46603390Y32650477D01*
X46603390Y32650477D02*
X46651009Y32698096D01*
X46651009Y32698096D02*
X46698628Y32793334D01*
X46698628Y32793334D02*
X46698628Y33174286D01*
X46270057Y32221905D02*
X46222438Y32174286D01*
X46222438Y32174286D02*
X46174819Y32079048D01*
X46174819Y32079048D02*
X46174819Y31840953D01*
X46174819Y31840953D02*
X46222438Y31745715D01*
X46222438Y31745715D02*
X46270057Y31698096D01*
X46270057Y31698096D02*
X46365295Y31650477D01*
X46365295Y31650477D02*
X46460533Y31650477D01*
X46460533Y31650477D02*
X46603390Y31698096D01*
X46603390Y31698096D02*
X47174819Y32269524D01*
X47174819Y32269524D02*
X47174819Y31650477D01*
X46270057Y31269524D02*
X46222438Y31221905D01*
X46222438Y31221905D02*
X46174819Y31126667D01*
X46174819Y31126667D02*
X46174819Y30888572D01*
X46174819Y30888572D02*
X46222438Y30793334D01*
X46222438Y30793334D02*
X46270057Y30745715D01*
X46270057Y30745715D02*
X46365295Y30698096D01*
X46365295Y30698096D02*
X46460533Y30698096D01*
X46460533Y30698096D02*
X46603390Y30745715D01*
X46603390Y30745715D02*
X47174819Y31317143D01*
X47174819Y31317143D02*
X47174819Y30698096D01*
X52702857Y31945181D02*
X53036190Y32421372D01*
X53274285Y31945181D02*
X53274285Y32945181D01*
X53274285Y32945181D02*
X52893333Y32945181D01*
X52893333Y32945181D02*
X52798095Y32897562D01*
X52798095Y32897562D02*
X52750476Y32849943D01*
X52750476Y32849943D02*
X52702857Y32754705D01*
X52702857Y32754705D02*
X52702857Y32611848D01*
X52702857Y32611848D02*
X52750476Y32516610D01*
X52750476Y32516610D02*
X52798095Y32468991D01*
X52798095Y32468991D02*
X52893333Y32421372D01*
X52893333Y32421372D02*
X53274285Y32421372D01*
X52321904Y32849943D02*
X52274285Y32897562D01*
X52274285Y32897562D02*
X52179047Y32945181D01*
X52179047Y32945181D02*
X51940952Y32945181D01*
X51940952Y32945181D02*
X51845714Y32897562D01*
X51845714Y32897562D02*
X51798095Y32849943D01*
X51798095Y32849943D02*
X51750476Y32754705D01*
X51750476Y32754705D02*
X51750476Y32659467D01*
X51750476Y32659467D02*
X51798095Y32516610D01*
X51798095Y32516610D02*
X52369523Y31945181D01*
X52369523Y31945181D02*
X51750476Y31945181D01*
X51131428Y32945181D02*
X51036190Y32945181D01*
X51036190Y32945181D02*
X50940952Y32897562D01*
X50940952Y32897562D02*
X50893333Y32849943D01*
X50893333Y32849943D02*
X50845714Y32754705D01*
X50845714Y32754705D02*
X50798095Y32564229D01*
X50798095Y32564229D02*
X50798095Y32326134D01*
X50798095Y32326134D02*
X50845714Y32135658D01*
X50845714Y32135658D02*
X50893333Y32040420D01*
X50893333Y32040420D02*
X50940952Y31992800D01*
X50940952Y31992800D02*
X51036190Y31945181D01*
X51036190Y31945181D02*
X51131428Y31945181D01*
X51131428Y31945181D02*
X51226666Y31992800D01*
X51226666Y31992800D02*
X51274285Y32040420D01*
X51274285Y32040420D02*
X51321904Y32135658D01*
X51321904Y32135658D02*
X51369523Y32326134D01*
X51369523Y32326134D02*
X51369523Y32564229D01*
X51369523Y32564229D02*
X51321904Y32754705D01*
X51321904Y32754705D02*
X51274285Y32849943D01*
X51274285Y32849943D02*
X51226666Y32897562D01*
X51226666Y32897562D02*
X51131428Y32945181D01*
X29394819Y32602858D02*
X28918628Y32936191D01*
X29394819Y33174286D02*
X28394819Y33174286D01*
X28394819Y33174286D02*
X28394819Y32793334D01*
X28394819Y32793334D02*
X28442438Y32698096D01*
X28442438Y32698096D02*
X28490057Y32650477D01*
X28490057Y32650477D02*
X28585295Y32602858D01*
X28585295Y32602858D02*
X28728152Y32602858D01*
X28728152Y32602858D02*
X28823390Y32650477D01*
X28823390Y32650477D02*
X28871009Y32698096D01*
X28871009Y32698096D02*
X28918628Y32793334D01*
X28918628Y32793334D02*
X28918628Y33174286D01*
X28490057Y32221905D02*
X28442438Y32174286D01*
X28442438Y32174286D02*
X28394819Y32079048D01*
X28394819Y32079048D02*
X28394819Y31840953D01*
X28394819Y31840953D02*
X28442438Y31745715D01*
X28442438Y31745715D02*
X28490057Y31698096D01*
X28490057Y31698096D02*
X28585295Y31650477D01*
X28585295Y31650477D02*
X28680533Y31650477D01*
X28680533Y31650477D02*
X28823390Y31698096D01*
X28823390Y31698096D02*
X29394819Y32269524D01*
X29394819Y32269524D02*
X29394819Y31650477D01*
X29394819Y31174286D02*
X29394819Y30983810D01*
X29394819Y30983810D02*
X29347200Y30888572D01*
X29347200Y30888572D02*
X29299580Y30840953D01*
X29299580Y30840953D02*
X29156723Y30745715D01*
X29156723Y30745715D02*
X28966247Y30698096D01*
X28966247Y30698096D02*
X28585295Y30698096D01*
X28585295Y30698096D02*
X28490057Y30745715D01*
X28490057Y30745715D02*
X28442438Y30793334D01*
X28442438Y30793334D02*
X28394819Y30888572D01*
X28394819Y30888572D02*
X28394819Y31079048D01*
X28394819Y31079048D02*
X28442438Y31174286D01*
X28442438Y31174286D02*
X28490057Y31221905D01*
X28490057Y31221905D02*
X28585295Y31269524D01*
X28585295Y31269524D02*
X28823390Y31269524D01*
X28823390Y31269524D02*
X28918628Y31221905D01*
X28918628Y31221905D02*
X28966247Y31174286D01*
X28966247Y31174286D02*
X29013866Y31079048D01*
X29013866Y31079048D02*
X29013866Y30888572D01*
X29013866Y30888572D02*
X28966247Y30793334D01*
X28966247Y30793334D02*
X28918628Y30745715D01*
X28918628Y30745715D02*
X28823390Y30698096D01*
X14473333Y53525181D02*
X14473333Y52715658D01*
X14473333Y52715658D02*
X14425714Y52620420D01*
X14425714Y52620420D02*
X14378095Y52572800D01*
X14378095Y52572800D02*
X14282857Y52525181D01*
X14282857Y52525181D02*
X14092381Y52525181D01*
X14092381Y52525181D02*
X13997143Y52572800D01*
X13997143Y52572800D02*
X13949524Y52620420D01*
X13949524Y52620420D02*
X13901905Y52715658D01*
X13901905Y52715658D02*
X13901905Y53525181D01*
X13473333Y52572800D02*
X13330476Y52525181D01*
X13330476Y52525181D02*
X13092381Y52525181D01*
X13092381Y52525181D02*
X12997143Y52572800D01*
X12997143Y52572800D02*
X12949524Y52620420D01*
X12949524Y52620420D02*
X12901905Y52715658D01*
X12901905Y52715658D02*
X12901905Y52810896D01*
X12901905Y52810896D02*
X12949524Y52906134D01*
X12949524Y52906134D02*
X12997143Y52953753D01*
X12997143Y52953753D02*
X13092381Y53001372D01*
X13092381Y53001372D02*
X13282857Y53048991D01*
X13282857Y53048991D02*
X13378095Y53096610D01*
X13378095Y53096610D02*
X13425714Y53144229D01*
X13425714Y53144229D02*
X13473333Y53239467D01*
X13473333Y53239467D02*
X13473333Y53334705D01*
X13473333Y53334705D02*
X13425714Y53429943D01*
X13425714Y53429943D02*
X13378095Y53477562D01*
X13378095Y53477562D02*
X13282857Y53525181D01*
X13282857Y53525181D02*
X13044762Y53525181D01*
X13044762Y53525181D02*
X12901905Y53477562D01*
X12140000Y53048991D02*
X11997143Y53001372D01*
X11997143Y53001372D02*
X11949524Y52953753D01*
X11949524Y52953753D02*
X11901905Y52858515D01*
X11901905Y52858515D02*
X11901905Y52715658D01*
X11901905Y52715658D02*
X11949524Y52620420D01*
X11949524Y52620420D02*
X11997143Y52572800D01*
X11997143Y52572800D02*
X12092381Y52525181D01*
X12092381Y52525181D02*
X12473333Y52525181D01*
X12473333Y52525181D02*
X12473333Y53525181D01*
X12473333Y53525181D02*
X12140000Y53525181D01*
X12140000Y53525181D02*
X12044762Y53477562D01*
X12044762Y53477562D02*
X11997143Y53429943D01*
X11997143Y53429943D02*
X11949524Y53334705D01*
X11949524Y53334705D02*
X11949524Y53239467D01*
X11949524Y53239467D02*
X11997143Y53144229D01*
X11997143Y53144229D02*
X12044762Y53096610D01*
X12044762Y53096610D02*
X12140000Y53048991D01*
X12140000Y53048991D02*
X12473333Y53048991D01*
X11711429Y52429943D02*
X10949524Y52429943D01*
X10711428Y52525181D02*
X10711428Y53525181D01*
X10711428Y53525181D02*
X10330476Y53525181D01*
X10330476Y53525181D02*
X10235238Y53477562D01*
X10235238Y53477562D02*
X10187619Y53429943D01*
X10187619Y53429943D02*
X10140000Y53334705D01*
X10140000Y53334705D02*
X10140000Y53191848D01*
X10140000Y53191848D02*
X10187619Y53096610D01*
X10187619Y53096610D02*
X10235238Y53048991D01*
X10235238Y53048991D02*
X10330476Y53001372D01*
X10330476Y53001372D02*
X10711428Y53001372D01*
X9568571Y52525181D02*
X9663809Y52572800D01*
X9663809Y52572800D02*
X9711428Y52620420D01*
X9711428Y52620420D02*
X9759047Y52715658D01*
X9759047Y52715658D02*
X9759047Y53001372D01*
X9759047Y53001372D02*
X9711428Y53096610D01*
X9711428Y53096610D02*
X9663809Y53144229D01*
X9663809Y53144229D02*
X9568571Y53191848D01*
X9568571Y53191848D02*
X9425714Y53191848D01*
X9425714Y53191848D02*
X9330476Y53144229D01*
X9330476Y53144229D02*
X9282857Y53096610D01*
X9282857Y53096610D02*
X9235238Y53001372D01*
X9235238Y53001372D02*
X9235238Y52715658D01*
X9235238Y52715658D02*
X9282857Y52620420D01*
X9282857Y52620420D02*
X9330476Y52572800D01*
X9330476Y52572800D02*
X9425714Y52525181D01*
X9425714Y52525181D02*
X9568571Y52525181D01*
X8901904Y53191848D02*
X8711428Y52525181D01*
X8711428Y52525181D02*
X8520952Y53001372D01*
X8520952Y53001372D02*
X8330476Y52525181D01*
X8330476Y52525181D02*
X8140000Y53191848D01*
X7378095Y52572800D02*
X7473333Y52525181D01*
X7473333Y52525181D02*
X7663809Y52525181D01*
X7663809Y52525181D02*
X7759047Y52572800D01*
X7759047Y52572800D02*
X7806666Y52668039D01*
X7806666Y52668039D02*
X7806666Y53048991D01*
X7806666Y53048991D02*
X7759047Y53144229D01*
X7759047Y53144229D02*
X7663809Y53191848D01*
X7663809Y53191848D02*
X7473333Y53191848D01*
X7473333Y53191848D02*
X7378095Y53144229D01*
X7378095Y53144229D02*
X7330476Y53048991D01*
X7330476Y53048991D02*
X7330476Y52953753D01*
X7330476Y52953753D02*
X7806666Y52858515D01*
X6901904Y52525181D02*
X6901904Y53191848D01*
X6901904Y53001372D02*
X6854285Y53096610D01*
X6854285Y53096610D02*
X6806666Y53144229D01*
X6806666Y53144229D02*
X6711428Y53191848D01*
X6711428Y53191848D02*
X6616190Y53191848D01*
X5759047Y52525181D02*
X6330475Y52525181D01*
X6044761Y52525181D02*
X6044761Y53525181D01*
X6044761Y53525181D02*
X6139999Y53382324D01*
X6139999Y53382324D02*
X6235237Y53287086D01*
X6235237Y53287086D02*
X6330475Y53239467D01*
X42094819Y32602858D02*
X41618628Y32936191D01*
X42094819Y33174286D02*
X41094819Y33174286D01*
X41094819Y33174286D02*
X41094819Y32793334D01*
X41094819Y32793334D02*
X41142438Y32698096D01*
X41142438Y32698096D02*
X41190057Y32650477D01*
X41190057Y32650477D02*
X41285295Y32602858D01*
X41285295Y32602858D02*
X41428152Y32602858D01*
X41428152Y32602858D02*
X41523390Y32650477D01*
X41523390Y32650477D02*
X41571009Y32698096D01*
X41571009Y32698096D02*
X41618628Y32793334D01*
X41618628Y32793334D02*
X41618628Y33174286D01*
X41190057Y32221905D02*
X41142438Y32174286D01*
X41142438Y32174286D02*
X41094819Y32079048D01*
X41094819Y32079048D02*
X41094819Y31840953D01*
X41094819Y31840953D02*
X41142438Y31745715D01*
X41142438Y31745715D02*
X41190057Y31698096D01*
X41190057Y31698096D02*
X41285295Y31650477D01*
X41285295Y31650477D02*
X41380533Y31650477D01*
X41380533Y31650477D02*
X41523390Y31698096D01*
X41523390Y31698096D02*
X42094819Y32269524D01*
X42094819Y32269524D02*
X42094819Y31650477D01*
X41428152Y30793334D02*
X42094819Y30793334D01*
X41047200Y31031429D02*
X41761485Y31269524D01*
X41761485Y31269524D02*
X41761485Y30650477D01*
X37014819Y32602858D02*
X36538628Y32936191D01*
X37014819Y33174286D02*
X36014819Y33174286D01*
X36014819Y33174286D02*
X36014819Y32793334D01*
X36014819Y32793334D02*
X36062438Y32698096D01*
X36062438Y32698096D02*
X36110057Y32650477D01*
X36110057Y32650477D02*
X36205295Y32602858D01*
X36205295Y32602858D02*
X36348152Y32602858D01*
X36348152Y32602858D02*
X36443390Y32650477D01*
X36443390Y32650477D02*
X36491009Y32698096D01*
X36491009Y32698096D02*
X36538628Y32793334D01*
X36538628Y32793334D02*
X36538628Y33174286D01*
X36110057Y32221905D02*
X36062438Y32174286D01*
X36062438Y32174286D02*
X36014819Y32079048D01*
X36014819Y32079048D02*
X36014819Y31840953D01*
X36014819Y31840953D02*
X36062438Y31745715D01*
X36062438Y31745715D02*
X36110057Y31698096D01*
X36110057Y31698096D02*
X36205295Y31650477D01*
X36205295Y31650477D02*
X36300533Y31650477D01*
X36300533Y31650477D02*
X36443390Y31698096D01*
X36443390Y31698096D02*
X37014819Y32269524D01*
X37014819Y32269524D02*
X37014819Y31650477D01*
X36014819Y30793334D02*
X36014819Y30983810D01*
X36014819Y30983810D02*
X36062438Y31079048D01*
X36062438Y31079048D02*
X36110057Y31126667D01*
X36110057Y31126667D02*
X36252914Y31221905D01*
X36252914Y31221905D02*
X36443390Y31269524D01*
X36443390Y31269524D02*
X36824342Y31269524D01*
X36824342Y31269524D02*
X36919580Y31221905D01*
X36919580Y31221905D02*
X36967200Y31174286D01*
X36967200Y31174286D02*
X37014819Y31079048D01*
X37014819Y31079048D02*
X37014819Y30888572D01*
X37014819Y30888572D02*
X36967200Y30793334D01*
X36967200Y30793334D02*
X36919580Y30745715D01*
X36919580Y30745715D02*
X36824342Y30698096D01*
X36824342Y30698096D02*
X36586247Y30698096D01*
X36586247Y30698096D02*
X36491009Y30745715D01*
X36491009Y30745715D02*
X36443390Y30793334D01*
X36443390Y30793334D02*
X36395771Y30888572D01*
X36395771Y30888572D02*
X36395771Y31079048D01*
X36395771Y31079048D02*
X36443390Y31174286D01*
X36443390Y31174286D02*
X36491009Y31221905D01*
X36491009Y31221905D02*
X36586247Y31269524D01*
D13*
X20847856Y21195920D02*
X20666428Y21135444D01*
X20666428Y21135444D02*
X20605951Y21074968D01*
X20605951Y21074968D02*
X20545475Y20954016D01*
X20545475Y20954016D02*
X20545475Y20772587D01*
X20545475Y20772587D02*
X20605951Y20651635D01*
X20605951Y20651635D02*
X20666428Y20591158D01*
X20666428Y20591158D02*
X20787380Y20530682D01*
X20787380Y20530682D02*
X21271190Y20530682D01*
X21271190Y20530682D02*
X21271190Y21800682D01*
X21271190Y21800682D02*
X20847856Y21800682D01*
X20847856Y21800682D02*
X20726904Y21740206D01*
X20726904Y21740206D02*
X20666428Y21679730D01*
X20666428Y21679730D02*
X20605951Y21558778D01*
X20605951Y21558778D02*
X20605951Y21437825D01*
X20605951Y21437825D02*
X20666428Y21316873D01*
X20666428Y21316873D02*
X20726904Y21256397D01*
X20726904Y21256397D02*
X20847856Y21195920D01*
X20847856Y21195920D02*
X21271190Y21195920D01*
X20182618Y21800682D02*
X19456904Y21800682D01*
X19819761Y20530682D02*
X19819761Y21800682D01*
X18368332Y20530682D02*
X19094047Y20530682D01*
X18731190Y20530682D02*
X18731190Y21800682D01*
X18731190Y21800682D02*
X18852142Y21619254D01*
X18852142Y21619254D02*
X18973094Y21498301D01*
X18973094Y21498301D02*
X19094047Y21437825D01*
D14*
%TO.C,SW1*%
X21265000Y37955000D02*
X21265000Y37955000D01*
X21265000Y37955000D02*
X21265000Y44655000D01*
X21265000Y44655000D02*
X21265000Y37955000D01*
X21265000Y44655000D02*
X21265000Y44655000D01*
D15*
X19410000Y35205000D02*
X19410000Y35205000D01*
X19410000Y35305000D02*
X19410000Y35305000D01*
D14*
X4555000Y44655000D02*
X4555000Y37955000D01*
D15*
X19410000Y35305000D02*
G75*
G03*
X19410000Y35205000I0J-50000D01*
G01*
X19410000Y35205000D02*
G75*
G03*
X19410000Y35305000I0J50000D01*
G01*
D14*
%TO.C,J6*%
X59270000Y24635000D02*
X59270000Y27235000D01*
D16*
X55470000Y25835000D02*
X55470000Y25835000D01*
X55470000Y26035000D02*
X55470000Y26035000D01*
X55470000Y26035000D02*
G75*
G03*
X55470000Y25835000I0J-100000D01*
G01*
X55470000Y25835000D02*
G75*
G03*
X55470000Y26035000I0J100000D01*
G01*
D17*
%TO.C,R34*%
X22942500Y50267258D02*
X22942500Y49792742D01*
X21897500Y50267258D02*
X21897500Y49792742D01*
%TO.C,R33*%
X23770000Y35046359D02*
X23770000Y35353641D01*
X23010000Y35046359D02*
X23010000Y35353641D01*
%TO.C,Q1*%
X27490000Y50610000D02*
X27490000Y51920000D01*
X24770000Y50610000D02*
X27490000Y50610000D01*
X24770000Y50610000D02*
X24770000Y50840000D01*
X27490000Y54020000D02*
X27490000Y55330000D01*
X23630000Y50840000D02*
X24770000Y50840000D01*
X24770000Y55330000D02*
X24770000Y55100000D01*
X27490000Y55330000D02*
X24770000Y55330000D01*
%TO.C,J7*%
X41285000Y56170000D02*
X39955000Y56170000D01*
X45155000Y56170000D02*
X45155000Y53510000D01*
X42555000Y56170000D02*
X45155000Y56170000D01*
X42555000Y56170000D02*
X42555000Y53510000D01*
X39955000Y56170000D02*
X39955000Y54840000D01*
X42555000Y53510000D02*
X45155000Y53510000D01*
%TO.C,D1*%
X24511190Y32245000D02*
X21826190Y32245000D01*
X24511190Y34165000D02*
X24511190Y32245000D01*
X21826190Y34165000D02*
X24511190Y34165000D01*
%TO.C,C26*%
X3225000Y44911252D02*
X3225000Y44388748D01*
X1755000Y44911252D02*
X1755000Y44388748D01*
%TO.C,C23*%
X59665000Y44921252D02*
X59665000Y44398748D01*
X58195000Y44921252D02*
X58195000Y44398748D01*
D16*
%TO.C,SW2*%
X56855000Y37955000D02*
X55680000Y37955000D01*
X56855000Y44655000D02*
X56855000Y37955000D01*
X55680000Y44655000D02*
X56855000Y44655000D01*
D14*
X54880000Y35205000D02*
X54880000Y35205000D01*
X54880000Y35305000D02*
X54880000Y35305000D01*
D16*
X26080000Y37955000D02*
X24905000Y37955000D01*
X24905000Y37955000D02*
X24905000Y44655000D01*
X24905000Y44655000D02*
X26080000Y44655000D01*
D14*
X54880000Y35305000D02*
G75*
G03*
X54880000Y35205000I0J-50000D01*
G01*
X54880000Y35205000D02*
G75*
G03*
X54880000Y35305000I0J50000D01*
G01*
D17*
%TO.C,R23*%
X44046359Y33960000D02*
X44353641Y33960000D01*
X44046359Y33200000D02*
X44353641Y33200000D01*
%TO.C,J1*%
X32530000Y26450000D02*
X32530000Y23790000D01*
X29930000Y26450000D02*
X32530000Y26450000D01*
X29930000Y26450000D02*
X29930000Y23790000D01*
X28660000Y26450000D02*
X27330000Y26450000D01*
X27330000Y26450000D02*
X27330000Y25120000D01*
X29930000Y23790000D02*
X32530000Y23790000D01*
%TO.C,R19*%
X54186359Y33960000D02*
X54493641Y33960000D01*
X54186359Y33200000D02*
X54493641Y33200000D01*
%TO.C,J3*%
X9790000Y29910000D02*
X9790000Y27250000D01*
X7190000Y29910000D02*
X9790000Y29910000D01*
X7190000Y29910000D02*
X7190000Y27250000D01*
X5920000Y29910000D02*
X4590000Y29910000D01*
X4590000Y29910000D02*
X4590000Y28580000D01*
X7190000Y27250000D02*
X9790000Y27250000D01*
%TO.C,R25*%
X38946359Y33960000D02*
X39253641Y33960000D01*
X38946359Y33200000D02*
X39253641Y33200000D01*
%TO.C,R21*%
X49106359Y33960000D02*
X49413641Y33960000D01*
X49106359Y33200000D02*
X49413641Y33200000D01*
%TO.C,C22*%
X14560000Y7332164D02*
X14560000Y7547836D01*
X15280000Y7332164D02*
X15280000Y7547836D01*
%TO.C,Antenna1*%
X54480000Y25946000D02*
G75*
G03*
X54480000Y25946000I-1450000J0D01*
G01*
%TO.C,R16*%
X10976359Y33960000D02*
X11283641Y33960000D01*
X10976359Y33200000D02*
X11283641Y33200000D01*
%TO.C,R15*%
X13516359Y33960000D02*
X13823641Y33960000D01*
X13516359Y33200000D02*
X13823641Y33200000D01*
%TO.C,R28*%
X31316359Y33960000D02*
X31623641Y33960000D01*
X31316359Y33200000D02*
X31623641Y33200000D01*
%TO.C,R18*%
X5896359Y33960000D02*
X6203641Y33960000D01*
X5896359Y33200000D02*
X6203641Y33200000D01*
%TO.C,R30*%
X26256359Y33960000D02*
X26563641Y33960000D01*
X26256359Y33200000D02*
X26563641Y33200000D01*
%TO.C,R13*%
X18596359Y33960000D02*
X18903641Y33960000D01*
X18596359Y33200000D02*
X18903641Y33200000D01*
%TO.C,R14*%
X16056359Y33960000D02*
X16363641Y33960000D01*
X16056359Y33200000D02*
X16363641Y33200000D01*
%TO.C,R17*%
X8436359Y33960000D02*
X8743641Y33960000D01*
X8436359Y33200000D02*
X8743641Y33200000D01*
%TO.C,R27*%
X33866359Y33960000D02*
X34173641Y33960000D01*
X33866359Y33200000D02*
X34173641Y33200000D01*
%TO.C,R22*%
X46566359Y33960000D02*
X46873641Y33960000D01*
X46566359Y33200000D02*
X46873641Y33200000D01*
%TO.C,R20*%
X51646359Y33960000D02*
X51953641Y33960000D01*
X51646359Y33200000D02*
X51953641Y33200000D01*
%TO.C,R29*%
X28786359Y33960000D02*
X29093641Y33960000D01*
X28786359Y33200000D02*
X29093641Y33200000D01*
%TO.C,USB_Power1*%
X8750000Y51250000D02*
X8750000Y50650000D01*
X9450000Y49950000D02*
X10850000Y49950000D01*
X10850000Y51950000D02*
X9450000Y51950000D01*
X11550000Y50650000D02*
X11550000Y51250000D01*
X9450000Y51950000D02*
G75*
G03*
X8750000Y51250000I-1J-699999D01*
G01*
X8750000Y50650000D02*
G75*
G03*
X9450000Y49950000I699999J-1D01*
G01*
X11550000Y51250000D02*
G75*
G03*
X10850000Y51950000I-700000J0D01*
G01*
X10850000Y49950000D02*
G75*
G03*
X11550000Y50650000I0J700000D01*
G01*
%TO.C,R24*%
X41486359Y33960000D02*
X41793641Y33960000D01*
X41486359Y33200000D02*
X41793641Y33200000D01*
%TO.C,G\u002A\u002A\u002A*%
G36*
X51107280Y54977858D02*
G01*
X51161317Y54892714D01*
X51287416Y54695362D01*
X51403838Y54514992D01*
X51507377Y54356450D01*
X51594832Y54224588D01*
X51662996Y54124253D01*
X51708665Y54060294D01*
X51728637Y54037561D01*
X51732704Y54040423D01*
X51761876Y54078075D01*
X51814959Y54155545D01*
X51888798Y54267936D01*
X51980240Y54410354D01*
X52086128Y54577900D01*
X52203310Y54765680D01*
X52328629Y54968795D01*
X52901426Y55902293D01*
X53552397Y55907705D01*
X54203369Y55913116D01*
X54006559Y55859973D01*
X53922281Y55835672D01*
X53740789Y55775164D01*
X53553649Y55703695D01*
X53375457Y55627341D01*
X53220804Y55552178D01*
X53104285Y55484283D01*
X53095212Y55467510D01*
X53100354Y55432777D01*
X53122759Y55374542D01*
X53165021Y55286971D01*
X53229736Y55164230D01*
X53319501Y55000483D01*
X53324055Y54992264D01*
X53404089Y54848461D01*
X53475950Y54720464D01*
X53535121Y54616230D01*
X53577087Y54543720D01*
X53597331Y54510893D01*
X53599295Y54508613D01*
X53631490Y54500174D01*
X53694384Y54516115D01*
X53795895Y54558327D01*
X53838367Y54576905D01*
X54022306Y54644842D01*
X54223205Y54702281D01*
X54432527Y54748291D01*
X54641734Y54781938D01*
X54842289Y54802291D01*
X55025654Y54808417D01*
X55183291Y54799384D01*
X55306664Y54774259D01*
X55387234Y54732110D01*
X55412414Y54704938D01*
X55453952Y54613749D01*
X55453997Y54513934D01*
X55414728Y54422255D01*
X55338321Y54355478D01*
X55304907Y54343028D01*
X55220364Y54320008D01*
X55100689Y54292289D01*
X54956585Y54262310D01*
X54798750Y54232509D01*
X54490355Y54172431D01*
X54164509Y54094928D01*
X53886284Y54010409D01*
X53652054Y53917164D01*
X53458193Y53813481D01*
X53301074Y53697648D01*
X53177070Y53567955D01*
X53082555Y53422691D01*
X53001241Y53226717D01*
X52948071Y52970796D01*
X52941178Y52689865D01*
X52980786Y52386211D01*
X53018242Y52231572D01*
X53109826Y51992755D01*
X53237403Y51791535D01*
X53404418Y51623993D01*
X53614318Y51486209D01*
X53870549Y51374263D01*
X54013005Y51323316D01*
X53455510Y51328437D01*
X52898016Y51333557D01*
X52884418Y52445887D01*
X52870821Y53558217D01*
X52313326Y52725863D01*
X52307537Y52717221D01*
X52180810Y52528652D01*
X52063562Y52355310D01*
X51959235Y52202203D01*
X51871274Y52074339D01*
X51803123Y51976726D01*
X51758226Y51914370D01*
X51740027Y51892280D01*
X51739349Y51892580D01*
X51717325Y51919044D01*
X51668389Y51984842D01*
X51596019Y52085090D01*
X51503692Y52214901D01*
X51394885Y52369391D01*
X51273075Y52543673D01*
X51141740Y52732863D01*
X50559258Y53574675D01*
X50552160Y52446859D01*
X50545063Y51319042D01*
X49845094Y51326299D01*
X49145125Y51333557D01*
X49138172Y53624724D01*
X49131218Y55915891D01*
X49822169Y55915891D01*
X50513119Y55915891D01*
X51107280Y54977858D01*
G37*
G36*
X58291761Y55980867D02*
G01*
X58620735Y55943290D01*
X58935254Y55878444D01*
X59226267Y55786315D01*
X59484724Y55666884D01*
X59489199Y55664375D01*
X59642726Y55559566D01*
X59803148Y55418973D01*
X59957074Y55256674D01*
X60091117Y55086749D01*
X60191885Y54923278D01*
X60211217Y54885012D01*
X60287949Y54716973D01*
X60346138Y54553538D01*
X60391977Y54375043D01*
X60431658Y54161822D01*
X60450248Y54024224D01*
X60468783Y53736159D01*
X60464551Y53436619D01*
X60438630Y53141263D01*
X60392096Y52865750D01*
X60326026Y52625739D01*
X60234315Y52402142D01*
X60073468Y52125809D01*
X59873097Y51886601D01*
X59633699Y51684918D01*
X59355769Y51521157D01*
X59039804Y51395716D01*
X58686298Y51308994D01*
X58581064Y51294367D01*
X58410759Y51280432D01*
X58213601Y51271852D01*
X58004864Y51268805D01*
X57799822Y51271471D01*
X57613750Y51280028D01*
X57461921Y51294656D01*
X57430600Y51299306D01*
X57269824Y51331787D01*
X57095148Y51378387D01*
X56923520Y51433742D01*
X56771889Y51492489D01*
X56657202Y51549268D01*
X56548951Y51613821D01*
X56729104Y51717436D01*
X56746748Y51727700D01*
X56829274Y51779145D01*
X56887322Y51821045D01*
X56909258Y51845151D01*
X56909255Y51845288D01*
X56897043Y51877060D01*
X56864360Y51947433D01*
X56815975Y52047012D01*
X56756660Y52166402D01*
X56691184Y52296208D01*
X56624317Y52427035D01*
X56560830Y52549487D01*
X56505492Y52654171D01*
X56463073Y52731690D01*
X56438344Y52772650D01*
X56428129Y52784975D01*
X56404609Y52797617D01*
X56366680Y52793296D01*
X56302872Y52769675D01*
X56201714Y52724416D01*
X56022620Y52649268D01*
X55648578Y52532366D01*
X55259627Y52459844D01*
X54870697Y52434948D01*
X54780837Y52435906D01*
X54618226Y52445287D01*
X54500945Y52465713D01*
X54423290Y52498459D01*
X54379561Y52544800D01*
X54358455Y52610654D01*
X54353338Y52703473D01*
X54367897Y52790998D01*
X54400532Y52849958D01*
X54413533Y52859747D01*
X54490660Y52895320D01*
X54612933Y52932636D01*
X54773330Y52969768D01*
X54964825Y53004789D01*
X55013190Y53012981D01*
X55252467Y53061806D01*
X55496834Y53123893D01*
X55734456Y53195448D01*
X55953497Y53272679D01*
X56142119Y53351792D01*
X56288488Y53428994D01*
X56320795Y53449914D01*
X56441316Y53542013D01*
X56557927Y53649864D01*
X56656184Y53759231D01*
X56721643Y53855880D01*
X56774389Y53957861D01*
X57508097Y53957861D01*
X58241806Y53957861D01*
X58241806Y53481951D01*
X58241806Y53006040D01*
X57680912Y53006040D01*
X57120018Y53006040D01*
X57137672Y52917767D01*
X57147688Y52880150D01*
X57214881Y52758825D01*
X57331477Y52645361D01*
X57493699Y52543728D01*
X57553595Y52513429D01*
X57622826Y52482492D01*
X57686547Y52463410D01*
X57759734Y52453348D01*
X57857360Y52449472D01*
X57994400Y52448947D01*
X58164608Y52455044D01*
X58401634Y52490192D01*
X58597778Y52558673D01*
X58755462Y52662860D01*
X58877106Y52805129D01*
X58965131Y52987852D01*
X59021959Y53213405D01*
X59050009Y53484161D01*
X59051049Y53506560D01*
X59051424Y53779074D01*
X59025555Y54010365D01*
X58971592Y54207370D01*
X58887685Y54377026D01*
X58771982Y54526271D01*
X58686339Y54608999D01*
X58569014Y54691181D01*
X58435922Y54746484D01*
X58274679Y54779680D01*
X58072902Y54795539D01*
X58040240Y54796731D01*
X57899957Y54798806D01*
X57791113Y54792800D01*
X57694772Y54776888D01*
X57592001Y54749250D01*
X57494830Y54714702D01*
X57294248Y54604064D01*
X57122355Y54448183D01*
X56977245Y54245496D01*
X56954908Y54220839D01*
X56902459Y54217281D01*
X56892513Y54222072D01*
X56873215Y54244073D01*
X56861765Y54288400D01*
X56856278Y54365724D01*
X56854868Y54486720D01*
X56850072Y54626434D01*
X56814536Y54886857D01*
X56746856Y55125527D01*
X56649986Y55333311D01*
X56526879Y55501074D01*
X56445612Y55588029D01*
X56561857Y55661430D01*
X56746846Y55760336D01*
X57012332Y55858842D01*
X57308617Y55930165D01*
X57626651Y55974288D01*
X57957383Y55991195D01*
X58291761Y55980867D01*
G37*
%TO.C,R26*%
X36406359Y33960000D02*
X36713641Y33960000D01*
X36406359Y33200000D02*
X36713641Y33200000D01*
D13*
%TO.C,BT1*%
X60320000Y6615000D02*
X5879000Y6615000D01*
X60320000Y23125000D02*
X60320000Y6615000D01*
X1400000Y23125000D02*
X60320000Y23125000D01*
X1400000Y23125000D02*
X1400000Y6615000D01*
%TD*%
%LPC*%
D18*
%TO.C,SW1*%
X19260000Y37005000D03*
X16720000Y37005000D03*
X14180000Y37005000D03*
X11640000Y37005000D03*
X9100000Y37005000D03*
X6560000Y37005000D03*
X19260000Y45605000D03*
X16720000Y45605000D03*
X14180000Y45605000D03*
X11640000Y45605000D03*
X9100000Y45605000D03*
X6560000Y45605000D03*
%TD*%
D19*
%TO.C,U1*%
X29460000Y10100000D03*
X26920000Y12640000D03*
X24380000Y10100000D03*
%TD*%
D20*
%TO.C,S1*%
X56810000Y9600000D03*
D21*
X43810000Y9600000D03*
%TD*%
D22*
%TO.C,J6*%
X56445000Y25935000D03*
D23*
X57970000Y24460000D03*
X57970000Y27410000D03*
%TD*%
D24*
%TO.C,R34*%
X22420000Y50855000D03*
X22420000Y49205000D03*
%TD*%
D25*
%TO.C,R33*%
X23390000Y34690000D03*
X23390000Y35710000D03*
%TD*%
D26*
%TO.C,Q1*%
X24180000Y51470000D03*
D27*
X24267500Y52970000D03*
D26*
X24180000Y54470000D03*
%TD*%
D28*
%TO.C,J7*%
X41285000Y54840000D03*
D29*
X43825000Y54840000D03*
%TD*%
D30*
%TO.C,D1*%
X23763690Y33205000D03*
X21888690Y33205000D03*
%TD*%
D28*
%TO.C,J5*%
X9940000Y8350000D03*
D29*
X7400000Y8350000D03*
%TD*%
D31*
%TO.C,H2*%
X57000000Y3000000D03*
%TD*%
D32*
%TO.C,R6*%
X36770000Y8460000D03*
X36770000Y11860000D03*
%TD*%
D33*
%TO.C,AE1*%
X55480000Y29730000D03*
X50450000Y29730000D03*
X55480000Y22110000D03*
X50450000Y22110000D03*
%TD*%
D28*
%TO.C,J4*%
X3290000Y17940000D03*
D29*
X3290000Y20480000D03*
X3290000Y23020000D03*
X3290000Y25560000D03*
%TD*%
D31*
%TO.C,H1*%
X35950000Y53400000D03*
%TD*%
%TO.C,H3*%
X8000000Y3000000D03*
%TD*%
D34*
%TO.C,C26*%
X2490000Y45600000D03*
X2490000Y43700000D03*
%TD*%
%TO.C,C23*%
X58930000Y45610000D03*
X58930000Y43710000D03*
%TD*%
D18*
%TO.C,SW2*%
X54850000Y37000000D03*
X52310000Y37000000D03*
X49770000Y37000000D03*
X47230000Y37000000D03*
X44690000Y37000000D03*
X42150000Y37000000D03*
X39610000Y37000000D03*
X37070000Y37000000D03*
X34530000Y37000000D03*
X31990000Y37000000D03*
X29450000Y37000000D03*
X26910000Y37000000D03*
X54850000Y45610000D03*
X52310000Y45610000D03*
X49770000Y45610000D03*
X47230000Y45610000D03*
X44690000Y45610000D03*
X42150000Y45610000D03*
X39610000Y45610000D03*
X37070000Y45610000D03*
X34530000Y45610000D03*
X31990000Y45610000D03*
X29450000Y45610000D03*
X26910000Y45610000D03*
%TD*%
D35*
%TO.C,R23*%
X43690000Y33580000D03*
X44710000Y33580000D03*
%TD*%
D28*
%TO.C,J1*%
X28660000Y25120000D03*
D29*
X31200000Y25120000D03*
%TD*%
D35*
%TO.C,R19*%
X53830000Y33580000D03*
X54850000Y33580000D03*
%TD*%
D28*
%TO.C,J3*%
X5920000Y28580000D03*
D29*
X8460000Y28580000D03*
%TD*%
D35*
%TO.C,R25*%
X38590000Y33580000D03*
X39610000Y33580000D03*
%TD*%
%TO.C,R21*%
X48750000Y33580000D03*
X49770000Y33580000D03*
%TD*%
D36*
%TO.C,C22*%
X14920000Y6960000D03*
X14920000Y7920000D03*
%TD*%
D37*
%TO.C,Antenna1*%
X53030000Y25946000D03*
%TD*%
D35*
%TO.C,R16*%
X10620000Y33580000D03*
X11640000Y33580000D03*
%TD*%
%TO.C,R15*%
X13160000Y33580000D03*
X14180000Y33580000D03*
%TD*%
%TO.C,R28*%
X30960000Y33580000D03*
X31980000Y33580000D03*
%TD*%
%TO.C,R18*%
X5540000Y33580000D03*
X6560000Y33580000D03*
%TD*%
%TO.C,R30*%
X25900000Y33580000D03*
X26920000Y33580000D03*
%TD*%
%TO.C,R13*%
X18240000Y33580000D03*
X19260000Y33580000D03*
%TD*%
%TO.C,R14*%
X15700000Y33580000D03*
X16720000Y33580000D03*
%TD*%
%TO.C,R17*%
X8080000Y33580000D03*
X9100000Y33580000D03*
%TD*%
%TO.C,R27*%
X33510000Y33580000D03*
X34530000Y33580000D03*
%TD*%
%TO.C,R22*%
X46210000Y33580000D03*
X47230000Y33580000D03*
%TD*%
%TO.C,R20*%
X51290000Y33580000D03*
X52310000Y33580000D03*
%TD*%
%TO.C,R29*%
X28430000Y33580000D03*
X29450000Y33580000D03*
%TD*%
D38*
%TO.C,USB_Power1*%
X9500000Y50950000D03*
D39*
X10800000Y50950000D03*
%TD*%
D35*
%TO.C,R24*%
X41130000Y33580000D03*
X42150000Y33580000D03*
%TD*%
%TO.C,R26*%
X36050000Y33580000D03*
X37070000Y33580000D03*
%TD*%
D40*
%TO.C,BT1*%
X48130000Y14870000D03*
X13590000Y14870000D03*
D41*
X58290000Y14870000D03*
X3430000Y14870000D03*
D42*
X3430000Y7400000D03*
%TD*%
%LPD*%
M02*
