%TF.GenerationSoftware,KiCad,Pcbnew,7.0.7*%
%TF.CreationDate,2023-11-28T10:24:49+01:00*%
%TF.ProjectId,wireless_Slave,77697265-6c65-4737-935f-536c6176652e,rev?*%
%TF.SameCoordinates,PXc751640PY92dda80*%
%TF.FileFunction,Soldermask,Top*%
%TF.FilePolarity,Negative*%
%FSLAX46Y46*%
G04 Gerber Fmt 4.6, Leading zero omitted, Abs format (unit mm)*
G04 Created by KiCad (PCBNEW 7.0.7) date 2023-11-28 10:24:49*
%MOMM*%
%LPD*%
G01*
G04 APERTURE LIST*
G04 Aperture macros list*
%AMRoundRect*
0 Rectangle with rounded corners*
0 $1 Rounding radius*
0 $2 $3 $4 $5 $6 $7 $8 $9 X,Y pos of 4 corners*
0 Add a 4 corners polygon primitive as box body*
4,1,4,$2,$3,$4,$5,$6,$7,$8,$9,$2,$3,0*
0 Add four circle primitives for the rounded corners*
1,1,$1+$1,$2,$3*
1,1,$1+$1,$4,$5*
1,1,$1+$1,$6,$7*
1,1,$1+$1,$8,$9*
0 Add four rect primitives between the rounded corners*
20,1,$1+$1,$2,$3,$4,$5,0*
20,1,$1+$1,$4,$5,$6,$7,0*
20,1,$1+$1,$6,$7,$8,$9,0*
20,1,$1+$1,$8,$9,$2,$3,0*%
G04 Aperture macros list end*
%ADD10C,1.192000*%
%ADD11R,1.447000X1.447000*%
%ADD12C,1.447000*%
%ADD13R,0.400000X1.350000*%
%ADD14R,2.100000X1.600000*%
%ADD15R,1.800000X1.900000*%
%ADD16R,1.900000X1.900000*%
%ADD17R,2.300000X1.000000*%
%ADD18R,1.000000X2.300000*%
%ADD19R,0.300000X0.850000*%
%ADD20R,0.850000X0.300000*%
%ADD21R,2.200000X2.200000*%
%ADD22R,0.300000X0.800000*%
%ADD23R,1.900000X1.200000*%
%ADD24R,0.250000X0.500000*%
%ADD25R,0.500000X0.250000*%
%ADD26R,3.000000X1.600000*%
%ADD27R,6.200000X5.800000*%
%ADD28R,1.700000X1.700000*%
%ADD29O,1.700000X1.700000*%
%ADD30RoundRect,0.250000X0.250000X0.475000X-0.250000X0.475000X-0.250000X-0.475000X0.250000X-0.475000X0*%
%ADD31RoundRect,0.135000X-0.135000X-0.185000X0.135000X-0.185000X0.135000X0.185000X-0.135000X0.185000X0*%
%ADD32RoundRect,0.140000X-0.140000X-0.170000X0.140000X-0.170000X0.140000X0.170000X-0.140000X0.170000X0*%
%ADD33RoundRect,0.135000X0.185000X-0.135000X0.185000X0.135000X-0.185000X0.135000X-0.185000X-0.135000X0*%
%ADD34RoundRect,0.135000X0.135000X0.185000X-0.135000X0.185000X-0.135000X-0.185000X0.135000X-0.185000X0*%
%ADD35RoundRect,0.140000X0.170000X-0.140000X0.170000X0.140000X-0.170000X0.140000X-0.170000X-0.140000X0*%
%ADD36RoundRect,0.140000X0.140000X0.170000X-0.140000X0.170000X-0.140000X-0.170000X0.140000X-0.170000X0*%
%ADD37RoundRect,0.250000X-0.250000X-0.475000X0.250000X-0.475000X0.250000X0.475000X-0.250000X0.475000X0*%
%ADD38C,3.200000*%
%ADD39RoundRect,0.150000X0.650000X0.150000X-0.650000X0.150000X-0.650000X-0.150000X0.650000X-0.150000X0*%
%ADD40RoundRect,0.135000X-0.185000X0.135000X-0.185000X-0.135000X0.185000X-0.135000X0.185000X0.135000X0*%
%ADD41RoundRect,0.225000X0.225000X0.250000X-0.225000X0.250000X-0.225000X-0.250000X0.225000X-0.250000X0*%
%ADD42RoundRect,0.250000X-0.475000X0.250000X-0.475000X-0.250000X0.475000X-0.250000X0.475000X0.250000X0*%
%ADD43RoundRect,0.050000X0.050000X-0.387500X0.050000X0.387500X-0.050000X0.387500X-0.050000X-0.387500X0*%
%ADD44RoundRect,0.050000X0.387500X-0.050000X0.387500X0.050000X-0.387500X0.050000X-0.387500X-0.050000X0*%
%ADD45R,3.200000X3.200000*%
%ADD46RoundRect,0.140000X-0.170000X0.140000X-0.170000X-0.140000X0.170000X-0.140000X0.170000X0.140000X0*%
%ADD47R,1.200000X1.400000*%
%ADD48C,1.200000*%
%ADD49C,3.590000*%
%ADD50RoundRect,0.225000X0.250000X-0.225000X0.250000X0.225000X-0.250000X0.225000X-0.250000X-0.225000X0*%
%ADD51C,4.780000*%
%ADD52C,1.770000*%
%ADD53C,3.560000*%
G04 APERTURE END LIST*
D10*
%TO.C,U1*%
X29460000Y10100000D03*
X26920000Y12640000D03*
X24380000Y10100000D03*
%TD*%
D11*
%TO.C,S1*%
X56810000Y9600000D03*
D12*
X43810000Y9600000D03*
%TD*%
D13*
%TO.C,J2*%
X7200000Y52425000D03*
X6550000Y52425000D03*
X5900000Y52425000D03*
X5250000Y52425000D03*
X4600000Y52425000D03*
D14*
X9000000Y52550000D03*
X2800000Y52550000D03*
D15*
X9700000Y55100000D03*
D16*
X7100000Y55100000D03*
X4700000Y55100000D03*
D15*
X2100000Y55100000D03*
%TD*%
D17*
%TO.C,IC5*%
X37320000Y47630000D03*
X37320000Y46380000D03*
X37320000Y45130000D03*
X37320000Y43880000D03*
X37320000Y42630000D03*
X37320000Y41380000D03*
X37320000Y40130000D03*
D18*
X39570000Y37880000D03*
X40820000Y37880000D03*
X42070000Y37880000D03*
X43320000Y37880000D03*
X44570000Y37880000D03*
X45820000Y37880000D03*
X47070000Y37880000D03*
D17*
X49320000Y40130000D03*
X49320000Y41380000D03*
X49320000Y42630000D03*
X49320000Y43880000D03*
X49320000Y45130000D03*
X49320000Y46380000D03*
X49320000Y47630000D03*
D18*
X47070000Y49880000D03*
X45820000Y49880000D03*
X44570000Y49880000D03*
X43320000Y49880000D03*
X42070000Y49880000D03*
X40820000Y49880000D03*
X39570000Y49880000D03*
%TD*%
D19*
%TO.C,IC4*%
X43440000Y27960000D03*
X42940000Y27960000D03*
X42440000Y27960000D03*
X41940000Y27960000D03*
X41440000Y27960000D03*
X40940000Y27960000D03*
D20*
X40240000Y27260000D03*
X40240000Y26760000D03*
X40240000Y26260000D03*
X40240000Y25760000D03*
X40240000Y25260000D03*
X40240000Y24760000D03*
D19*
X40940000Y24060000D03*
X41440000Y24060000D03*
X41940000Y24060000D03*
X42440000Y24060000D03*
X42940000Y24060000D03*
X43440000Y24060000D03*
D20*
X44140000Y24760000D03*
X44140000Y25260000D03*
X44140000Y25760000D03*
X44140000Y26260000D03*
X44140000Y26760000D03*
X44140000Y27260000D03*
D21*
X42190000Y26010000D03*
%TD*%
D22*
%TO.C,IC3*%
X12630000Y7200000D03*
X13130000Y7200000D03*
X13630000Y7200000D03*
X14130000Y7200000D03*
X14130000Y9600000D03*
X13630000Y9600000D03*
X13130000Y9600000D03*
X12630000Y9600000D03*
D23*
X13380000Y8400000D03*
%TD*%
D24*
%TO.C,IC2*%
X17140000Y8580000D03*
X17640000Y8580000D03*
X18140000Y8580000D03*
D25*
X18940000Y8880000D03*
X18940000Y9880000D03*
X18940000Y10880000D03*
D24*
X18140000Y11180000D03*
X17640000Y11180000D03*
X17140000Y11180000D03*
D25*
X16340000Y10880000D03*
X16340000Y9880000D03*
X16340000Y8880000D03*
%TD*%
D26*
%TO.C,IC1*%
X23180000Y50310000D03*
D27*
X16000000Y52600000D03*
D26*
X23180000Y54890000D03*
%TD*%
D28*
%TO.C,J7*%
X41285000Y54840000D03*
D29*
X43825000Y54840000D03*
%TD*%
D30*
%TO.C,C25*%
X3230000Y28410000D03*
X1330000Y28410000D03*
%TD*%
D31*
%TO.C,R3*%
X11620000Y41525000D03*
X12640000Y41525000D03*
%TD*%
D32*
%TO.C,C5*%
X23765000Y42825000D03*
X24725000Y42825000D03*
%TD*%
D33*
%TO.C,R8*%
X12430000Y29970000D03*
X12430000Y30990000D03*
%TD*%
D31*
%TO.C,R9*%
X5830000Y10700000D03*
X6850000Y10700000D03*
%TD*%
D34*
%TO.C,R12*%
X44830000Y14700000D03*
X43810000Y14700000D03*
%TD*%
D31*
%TO.C,R10*%
X45310000Y28060000D03*
X46330000Y28060000D03*
%TD*%
D35*
%TO.C,C16*%
X24420000Y38020000D03*
X24420000Y38980000D03*
%TD*%
D31*
%TO.C,R4*%
X19030000Y30900000D03*
X20050000Y30900000D03*
%TD*%
D32*
%TO.C,C9*%
X20090000Y35060000D03*
X21050000Y35060000D03*
%TD*%
D36*
%TO.C,C1*%
X29850000Y20180000D03*
X28890000Y20180000D03*
%TD*%
D37*
%TO.C,C2*%
X16950000Y47200000D03*
X18850000Y47200000D03*
%TD*%
D34*
%TO.C,R7*%
X37787500Y14280000D03*
X36767500Y14280000D03*
%TD*%
D36*
%TO.C,C4*%
X12580000Y38475000D03*
X11620000Y38475000D03*
%TD*%
D28*
%TO.C,J5*%
X9940000Y8350000D03*
D29*
X7400000Y8350000D03*
%TD*%
D34*
%TO.C,R1*%
X27950000Y20180000D03*
X26930000Y20180000D03*
%TD*%
D38*
%TO.C,H2*%
X57000000Y3000000D03*
%TD*%
D39*
%TO.C,U3*%
X12430000Y32505000D03*
X12430000Y33775000D03*
X12430000Y35045000D03*
X12430000Y36315000D03*
X5230000Y36315000D03*
X5230000Y35045000D03*
X5230000Y33775000D03*
X5230000Y32505000D03*
%TD*%
D31*
%TO.C,R2*%
X11620000Y40500000D03*
X12640000Y40500000D03*
%TD*%
D36*
%TO.C,C12*%
X12580000Y39500000D03*
X11620000Y39500000D03*
%TD*%
D40*
%TO.C,L1*%
X52060000Y40130000D03*
X52060000Y39110000D03*
%TD*%
D41*
%TO.C,C7*%
X15270000Y45825000D03*
X13720000Y45825000D03*
%TD*%
D32*
%TO.C,C11*%
X23765000Y41825000D03*
X24725000Y41825000D03*
%TD*%
D42*
%TO.C,C3*%
X28400000Y53850000D03*
X28400000Y51950000D03*
%TD*%
D43*
%TO.C,U2*%
X16330000Y36392500D03*
X16730000Y36392500D03*
X17130000Y36392500D03*
X17530000Y36392500D03*
X17930000Y36392500D03*
X18330000Y36392500D03*
X18730000Y36392500D03*
X19130000Y36392500D03*
X19530000Y36392500D03*
X19930000Y36392500D03*
X20330000Y36392500D03*
X20730000Y36392500D03*
X21130000Y36392500D03*
X21530000Y36392500D03*
D44*
X22367500Y37230000D03*
X22367500Y37630000D03*
X22367500Y38030000D03*
X22367500Y38430000D03*
X22367500Y38830000D03*
X22367500Y39230000D03*
X22367500Y39630000D03*
X22367500Y40030000D03*
X22367500Y40430000D03*
X22367500Y40830000D03*
X22367500Y41230000D03*
X22367500Y41630000D03*
X22367500Y42030000D03*
X22367500Y42430000D03*
D43*
X21530000Y43267500D03*
X21130000Y43267500D03*
X20730000Y43267500D03*
X20330000Y43267500D03*
X19930000Y43267500D03*
X19530000Y43267500D03*
X19130000Y43267500D03*
X18730000Y43267500D03*
X18330000Y43267500D03*
X17930000Y43267500D03*
X17530000Y43267500D03*
X17130000Y43267500D03*
X16730000Y43267500D03*
X16330000Y43267500D03*
D44*
X15492500Y42430000D03*
X15492500Y42030000D03*
X15492500Y41630000D03*
X15492500Y41230000D03*
X15492500Y40830000D03*
X15492500Y40430000D03*
X15492500Y40030000D03*
X15492500Y39630000D03*
X15492500Y39230000D03*
X15492500Y38830000D03*
X15492500Y38430000D03*
X15492500Y38030000D03*
X15492500Y37630000D03*
X15492500Y37230000D03*
D45*
X18930000Y39830000D03*
%TD*%
D36*
%TO.C,C10*%
X16150000Y35180000D03*
X15190000Y35180000D03*
%TD*%
D46*
%TO.C,C17*%
X24420000Y40880000D03*
X24420000Y39920000D03*
%TD*%
D35*
%TO.C,C20*%
X52060000Y41060000D03*
X52060000Y42020000D03*
%TD*%
D46*
%TO.C,C19*%
X34620000Y47630000D03*
X34620000Y46670000D03*
%TD*%
D47*
%TO.C,Y1*%
X27190000Y40220000D03*
X27190000Y38020000D03*
X28890000Y38020000D03*
X28890000Y40220000D03*
%TD*%
D36*
%TO.C,C15*%
X14130000Y10775000D03*
X13170000Y10775000D03*
%TD*%
D31*
%TO.C,R11*%
X45320000Y25090000D03*
X46340000Y25090000D03*
%TD*%
D48*
%TO.C,R6*%
X36770000Y8460000D03*
X36770000Y11860000D03*
%TD*%
D49*
%TO.C,AE1*%
X55480000Y29730000D03*
X50450000Y29730000D03*
X55480000Y22110000D03*
X50450000Y22110000D03*
%TD*%
D31*
%TO.C,R5*%
X19540000Y34070000D03*
X20560000Y34070000D03*
%TD*%
D32*
%TO.C,C14*%
X4630000Y30960000D03*
X5590000Y30960000D03*
%TD*%
D41*
%TO.C,C18*%
X47155000Y23830000D03*
X45605000Y23830000D03*
%TD*%
D40*
%TO.C,R32*%
X5675000Y21085000D03*
X5675000Y20065000D03*
%TD*%
D35*
%TO.C,C8*%
X20140000Y45450000D03*
X20140000Y46410000D03*
%TD*%
D50*
%TO.C,C6*%
X13745000Y42775000D03*
X13745000Y44325000D03*
%TD*%
D28*
%TO.C,J4*%
X3290000Y17940000D03*
D29*
X3290000Y20480000D03*
X3290000Y23020000D03*
X3290000Y25560000D03*
%TD*%
D37*
%TO.C,C24*%
X30800000Y49050000D03*
X32700000Y49050000D03*
%TD*%
D38*
%TO.C,H1*%
X35950000Y53400000D03*
%TD*%
D36*
%TO.C,C13*%
X15540000Y47090000D03*
X14580000Y47090000D03*
%TD*%
D38*
%TO.C,H3*%
X8000000Y3000000D03*
%TD*%
D46*
%TO.C,C21*%
X52060000Y38190000D03*
X52060000Y37230000D03*
%TD*%
D33*
%TO.C,R31*%
X5675000Y23040000D03*
X5675000Y24060000D03*
%TD*%
D28*
%TO.C,J1*%
X28660000Y25120000D03*
D29*
X31200000Y25120000D03*
%TD*%
D28*
%TO.C,J3*%
X5920000Y28580000D03*
D29*
X8460000Y28580000D03*
%TD*%
D51*
%TO.C,BT1*%
X48130000Y14870000D03*
X13590000Y14870000D03*
D52*
X58290000Y14870000D03*
X3430000Y14870000D03*
D53*
X3430000Y7400000D03*
%TD*%
M02*
