M48
; DRILL file {KiCad 7.0.7} date Tue Nov 28 10:25:26 2023
; FORMAT={-:-/ absolute / metric / decimal}
; #@! TF.CreationDate,2023-11-28T10:25:26+01:00
; #@! TF.GenerationSoftware,Kicad,Pcbnew,7.0.7
; #@! TF.FileFunction,Plated,1,2,PTH
FMAT,2
METRIC
; #@! TA.AperFunction,Plated,PTH,ViaDrill
T1C0.300
; #@! TA.AperFunction,Plated,PTH,ViaDrill
T2C0.400
; #@! TA.AperFunction,Plated,PTH,ViaDrill
T3C0.600
; #@! TA.AperFunction,Plated,PTH,ComponentDrill
T4C0.650
; #@! TA.AperFunction,Plated,PTH,ComponentDrill
T5C0.700
; #@! TA.AperFunction,Plated,PTH,ComponentDrill
T6C0.930
; #@! TA.AperFunction,Plated,PTH,ComponentDrill
T7C1.000
; #@! TA.AperFunction,Plated,PTH,ComponentDrill
T8C1.170
; #@! TA.AperFunction,Plated,PTH,ComponentDrill
T9C1.955
; #@! TA.AperFunction,Plated,PTH,ComponentDrill
T10C2.360
; #@! TA.AperFunction,Plated,PTH,ComponentDrill
T11C3.180
%
G90
G05
T1
X4.28Y33.04
X4.32Y50.66
X5.675Y18.775
X7.8Y50.6
X8.08Y34.76
X8.3Y32.24
X10.6Y34.7
X10.63Y32.62
X10.84Y39.06
X11.8Y50.6
X12.5Y43.6
X12.9Y47.0
X12.939Y39.754
X13.022Y38.824
X13.07Y35.794
X14.405Y42.115
X14.6Y47.9
X15.6Y9.2
X15.62Y34.5
X16.34Y11.455
X16.34Y10.29
X17.2Y9.7
X17.53Y42.37
X17.7Y41.1
X17.7Y39.9
X17.7Y38.7
X17.8Y7.62
X18.0Y44.4
X18.14Y12.82
X18.14Y10.39
X18.839Y14.7
X19.0Y41.1
X19.0Y39.9
X19.0Y38.7
X19.0Y26.111
X19.1Y17.1
X19.93Y44.05
X19.934Y32.027
X20.2Y41.1
X20.2Y39.9
X20.2Y38.7
X20.4Y12.1
X20.5Y25.12
X20.8Y6.945
X20.98Y40.45
X21.37Y37.43
X21.4Y32.01
X21.507Y42.207
X21.779Y34.46
X22.1Y44.4
X22.37Y42.886
X23.51Y38.68
X24.2Y44.3
X24.6Y34.2
X25.58Y43.44
X25.7Y41.0
X25.7Y38.0
X25.7Y35.0
X28.2Y34.8
X28.88Y41.28
X29.5Y21.3
X30.28Y40.21
X30.7Y34.9
X33.2Y34.9
X33.3Y32.2
X35.57Y46.67
X35.8Y34.9
X35.9Y32.2
X38.35Y35.02
X38.4Y32.8
X39.2Y42.15
X39.446Y41.076
X40.9Y32.8
X40.91Y35.05
X40.95Y43.65
X41.36Y41.57
X41.4Y25.2
X42.8Y39.9
X43.0Y25.2
X43.36Y43.65
X43.38Y35.01
X43.4Y32.5
X44.38Y23.83
X45.92Y43.61
X46.0Y34.9
X47.03Y52.23
X47.05Y41.42
X47.05Y40.03
X47.06Y47.83
X48.31Y49.87
X48.5Y34.9
X51.1Y34.9
X51.12Y41.41
X52.03Y43.32
X53.42Y42.12
X53.6Y34.9
T2
X1.48Y40.54
X4.88Y40.01
X6.72Y41.73
X11.31Y23.95
X14.69Y4.18
X15.522Y44.703
X16.24Y23.98
X22.41Y48.4
X22.61Y23.98
X24.61Y47.62
X26.59Y54.651
X26.82Y28.447
X26.82Y26.785
X26.91Y32.81
X27.06Y30.27
X28.24Y29.272
X28.26Y31.27
X28.36Y27.61
X29.419Y52.859
X29.45Y32.81
X31.73Y18.46
X31.99Y32.81
X32.93Y40.8
X34.53Y32.81
X37.07Y32.81
X39.2Y14.48
X39.31Y47.62
X39.48Y43.44
X39.61Y32.81
X40.51Y4.43
X42.15Y32.81
X43.44Y29.09
X43.85Y17.02
X44.69Y32.81
X45.278Y27.009
X45.37Y12.1
X46.081Y26.387
X47.23Y32.81
X47.3Y21.7
X49.77Y32.81
X51.91Y4.74
X52.9Y31.988
X52.93Y18.8
X57.87Y33.1
X58.89Y18.54
T3
X30.8Y45.605
T4
X24.38Y10.1
X26.92Y12.64
X29.46Y10.1
T5
X36.77Y11.86
X36.77Y8.46
T6
X43.81Y9.6
X56.81Y9.6
T7
X3.29Y25.56
X3.29Y23.02
X3.29Y20.48
X3.29Y17.94
X5.92Y28.58
X7.4Y8.35
X8.46Y28.58
X9.94Y8.35
X28.66Y25.12
X31.2Y25.12
X41.285Y54.84
X43.825Y54.84
T8
X3.43Y14.87
X58.29Y14.87
T9
X50.45Y29.73
X50.45Y22.11
X55.48Y29.73
X55.48Y22.11
T10
X3.43Y7.4
T11
X13.59Y14.87
X48.13Y14.87
T0
M30
