%TF.GenerationSoftware,KiCad,Pcbnew,7.0.7*%
%TF.CreationDate,2023-11-28T10:25:27+01:00*%
%TF.ProjectId,wireless_Slave,77697265-6c65-4737-935f-536c6176652e,rev?*%
%TF.SameCoordinates,PXc751640PY92dda80*%
%TF.FileFunction,Drillmap*%
%TF.FilePolarity,Positive*%
%FSLAX45Y45*%
G04 Gerber Fmt 4.5, Leading zero omitted, Abs format (unit mm)*
G04 Created by KiCad (PCBNEW 7.0.7) date 2023-11-28 10:25:27*
%MOMM*%
%LPD*%
G01*
G04 APERTURE LIST*
%ADD10C,0.100000*%
%ADD11C,0.200000*%
%ADD12C,0.030000*%
%ADD13C,0.040000*%
%ADD14C,0.060000*%
%ADD15C,0.065000*%
%ADD16C,0.070000*%
%ADD17C,0.093000*%
%ADD18C,0.117000*%
%ADD19C,0.195500*%
%ADD20C,0.236000*%
%ADD21C,0.318000*%
G04 APERTURE END LIST*
D10*
X0Y5700000D02*
X6200000Y5700000D01*
X6200000Y0D01*
X0Y0D01*
X0Y5700000D01*
D11*
D12*
X413000Y3319000D02*
X443000Y3289000D01*
X443000Y3319000D02*
X413000Y3289000D01*
X417000Y5081000D02*
X447000Y5051000D01*
X447000Y5081000D02*
X417000Y5051000D01*
X552500Y1892500D02*
X582500Y1862500D01*
X582500Y1892500D02*
X552500Y1862500D01*
X765000Y5075000D02*
X795000Y5045000D01*
X795000Y5075000D02*
X765000Y5045000D01*
X793000Y3491000D02*
X823000Y3461000D01*
X823000Y3491000D02*
X793000Y3461000D01*
X815000Y3239000D02*
X845000Y3209000D01*
X845000Y3239000D02*
X815000Y3209000D01*
X1045000Y3485000D02*
X1075000Y3455000D01*
X1075000Y3485000D02*
X1045000Y3455000D01*
X1048000Y3277000D02*
X1078000Y3247000D01*
X1078000Y3277000D02*
X1048000Y3247000D01*
X1069000Y3921000D02*
X1099000Y3891000D01*
X1099000Y3921000D02*
X1069000Y3891000D01*
X1165000Y5075000D02*
X1195000Y5045000D01*
X1195000Y5075000D02*
X1165000Y5045000D01*
X1235000Y4375000D02*
X1265000Y4345000D01*
X1265000Y4375000D02*
X1235000Y4345000D01*
X1275000Y4715000D02*
X1305000Y4685000D01*
X1305000Y4715000D02*
X1275000Y4685000D01*
X1278866Y3990388D02*
X1308866Y3960388D01*
X1308866Y3990388D02*
X1278866Y3960388D01*
X1287246Y3897401D02*
X1317246Y3867401D01*
X1317246Y3897401D02*
X1287246Y3867401D01*
X1292000Y3594450D02*
X1322000Y3564450D01*
X1322000Y3594450D02*
X1292000Y3564450D01*
X1425500Y4226500D02*
X1455500Y4196500D01*
X1455500Y4226500D02*
X1425500Y4196500D01*
X1445000Y4805000D02*
X1475000Y4775000D01*
X1475000Y4805000D02*
X1445000Y4775000D01*
X1545000Y935000D02*
X1575000Y905000D01*
X1575000Y935000D02*
X1545000Y905000D01*
X1547000Y3465000D02*
X1577000Y3435000D01*
X1577000Y3465000D02*
X1547000Y3435000D01*
X1619000Y1160450D02*
X1649000Y1130450D01*
X1649000Y1160450D02*
X1619000Y1130450D01*
X1619000Y1044000D02*
X1649000Y1014000D01*
X1649000Y1044000D02*
X1619000Y1014000D01*
X1705000Y985000D02*
X1735000Y955000D01*
X1735000Y985000D02*
X1705000Y955000D01*
X1738000Y4252000D02*
X1768000Y4222000D01*
X1768000Y4252000D02*
X1738000Y4222000D01*
X1755000Y4125000D02*
X1785000Y4095000D01*
X1785000Y4125000D02*
X1755000Y4095000D01*
X1755000Y4005000D02*
X1785000Y3975000D01*
X1785000Y4005000D02*
X1755000Y3975000D01*
X1755000Y3885000D02*
X1785000Y3855000D01*
X1785000Y3885000D02*
X1755000Y3855000D01*
X1765000Y777000D02*
X1795000Y747000D01*
X1795000Y777000D02*
X1765000Y747000D01*
X1785000Y4455000D02*
X1815000Y4425000D01*
X1815000Y4455000D02*
X1785000Y4425000D01*
X1799000Y1297000D02*
X1829000Y1267000D01*
X1829000Y1297000D02*
X1799000Y1267000D01*
X1799000Y1054000D02*
X1829000Y1024000D01*
X1829000Y1054000D02*
X1799000Y1024000D01*
X1868950Y1485000D02*
X1898950Y1455000D01*
X1898950Y1485000D02*
X1868950Y1455000D01*
X1885000Y4125000D02*
X1915000Y4095000D01*
X1915000Y4125000D02*
X1885000Y4095000D01*
X1885000Y4005000D02*
X1915000Y3975000D01*
X1915000Y4005000D02*
X1885000Y3975000D01*
X1885000Y3885000D02*
X1915000Y3855000D01*
X1915000Y3885000D02*
X1885000Y3855000D01*
X1885000Y2626100D02*
X1915000Y2596100D01*
X1915000Y2626100D02*
X1885000Y2596100D01*
X1895000Y1725000D02*
X1925000Y1695000D01*
X1925000Y1725000D02*
X1895000Y1695000D01*
X1978000Y4420000D02*
X2008000Y4390000D01*
X2008000Y4420000D02*
X1978000Y4390000D01*
X1978450Y3217694D02*
X2008450Y3187694D01*
X2008450Y3217694D02*
X1978450Y3187694D01*
X2005000Y4125000D02*
X2035000Y4095000D01*
X2035000Y4125000D02*
X2005000Y4095000D01*
X2005000Y4005000D02*
X2035000Y3975000D01*
X2035000Y4005000D02*
X2005000Y3975000D01*
X2005000Y3885000D02*
X2035000Y3855000D01*
X2035000Y3885000D02*
X2005000Y3855000D01*
X2025000Y1225000D02*
X2055000Y1195000D01*
X2055000Y1225000D02*
X2025000Y1195000D01*
X2035000Y2527000D02*
X2065000Y2497000D01*
X2065000Y2527000D02*
X2035000Y2497000D01*
X2065000Y709500D02*
X2095000Y679500D01*
X2095000Y709500D02*
X2065000Y679500D01*
X2082950Y4060000D02*
X2112950Y4030000D01*
X2112950Y4060000D02*
X2082950Y4030000D01*
X2122000Y3758000D02*
X2152000Y3728000D01*
X2152000Y3758000D02*
X2122000Y3728000D01*
X2125000Y3216000D02*
X2155000Y3186000D01*
X2155000Y3216000D02*
X2125000Y3186000D01*
X2135694Y4235694D02*
X2165694Y4205694D01*
X2165694Y4235694D02*
X2135694Y4205694D01*
X2162950Y3461000D02*
X2192950Y3431000D01*
X2192950Y3461000D02*
X2162950Y3431000D01*
X2195000Y4455000D02*
X2225000Y4425000D01*
X2225000Y4455000D02*
X2195000Y4425000D01*
X2222000Y4303550D02*
X2252000Y4273550D01*
X2252000Y4303550D02*
X2222000Y4273550D01*
X2336000Y3883050D02*
X2366000Y3853050D01*
X2366000Y3883050D02*
X2336000Y3853050D01*
X2405000Y4445000D02*
X2435000Y4415000D01*
X2435000Y4445000D02*
X2405000Y4415000D01*
X2445000Y3435000D02*
X2475000Y3405000D01*
X2475000Y3435000D02*
X2445000Y3405000D01*
X2543000Y4359000D02*
X2573000Y4329000D01*
X2573000Y4359000D02*
X2543000Y4329000D01*
X2555000Y4115000D02*
X2585000Y4085000D01*
X2585000Y4115000D02*
X2555000Y4085000D01*
X2555000Y3815000D02*
X2585000Y3785000D01*
X2585000Y3815000D02*
X2555000Y3785000D01*
X2555000Y3515000D02*
X2585000Y3485000D01*
X2585000Y3515000D02*
X2555000Y3485000D01*
X2805000Y3495000D02*
X2835000Y3465000D01*
X2835000Y3495000D02*
X2805000Y3465000D01*
X2873000Y4143000D02*
X2903000Y4113000D01*
X2903000Y4143000D02*
X2873000Y4113000D01*
X2935000Y2145000D02*
X2965000Y2115000D01*
X2965000Y2145000D02*
X2935000Y2115000D01*
X3013000Y4036000D02*
X3043000Y4006000D01*
X3043000Y4036000D02*
X3013000Y4006000D01*
X3055000Y3505000D02*
X3085000Y3475000D01*
X3085000Y3505000D02*
X3055000Y3475000D01*
X3305000Y3505000D02*
X3335000Y3475000D01*
X3335000Y3505000D02*
X3305000Y3475000D01*
X3315000Y3235000D02*
X3345000Y3205000D01*
X3345000Y3235000D02*
X3315000Y3205000D01*
X3542000Y4682000D02*
X3572000Y4652000D01*
X3572000Y4682000D02*
X3542000Y4652000D01*
X3565000Y3505000D02*
X3595000Y3475000D01*
X3595000Y3505000D02*
X3565000Y3475000D01*
X3575000Y3235000D02*
X3605000Y3205000D01*
X3605000Y3235000D02*
X3575000Y3205000D01*
X3820000Y3517000D02*
X3850000Y3487000D01*
X3850000Y3517000D02*
X3820000Y3487000D01*
X3825000Y3295000D02*
X3855000Y3265000D01*
X3855000Y3295000D02*
X3825000Y3265000D01*
X3905000Y4230000D02*
X3935000Y4200000D01*
X3935000Y4230000D02*
X3905000Y4200000D01*
X3929644Y4122644D02*
X3959644Y4092644D01*
X3959644Y4122644D02*
X3929644Y4092644D01*
X4075000Y3295000D02*
X4105000Y3265000D01*
X4105000Y3295000D02*
X4075000Y3265000D01*
X4076000Y3520000D02*
X4106000Y3490000D01*
X4106000Y3520000D02*
X4076000Y3490000D01*
X4080000Y4380000D02*
X4110000Y4350000D01*
X4110000Y4380000D02*
X4080000Y4350000D01*
X4121000Y4172000D02*
X4151000Y4142000D01*
X4151000Y4172000D02*
X4121000Y4142000D01*
X4125000Y2535000D02*
X4155000Y2505000D01*
X4155000Y2535000D02*
X4125000Y2505000D01*
X4265000Y4005000D02*
X4295000Y3975000D01*
X4295000Y4005000D02*
X4265000Y3975000D01*
X4285000Y2535000D02*
X4315000Y2505000D01*
X4315000Y2535000D02*
X4285000Y2505000D01*
X4321000Y4380000D02*
X4351000Y4350000D01*
X4351000Y4380000D02*
X4321000Y4350000D01*
X4323000Y3516000D02*
X4353000Y3486000D01*
X4353000Y3516000D02*
X4323000Y3486000D01*
X4325000Y3265000D02*
X4355000Y3235000D01*
X4355000Y3265000D02*
X4325000Y3235000D01*
X4423000Y2398000D02*
X4453000Y2368000D01*
X4453000Y2398000D02*
X4423000Y2368000D01*
X4577000Y4376000D02*
X4607000Y4346000D01*
X4607000Y4376000D02*
X4577000Y4346000D01*
X4585000Y3505000D02*
X4615000Y3475000D01*
X4615000Y3505000D02*
X4585000Y3475000D01*
X4688000Y5238000D02*
X4718000Y5208000D01*
X4718000Y5238000D02*
X4688000Y5208000D01*
X4690000Y4157000D02*
X4720000Y4127000D01*
X4720000Y4157000D02*
X4690000Y4127000D01*
X4690000Y4018000D02*
X4720000Y3988000D01*
X4720000Y4018000D02*
X4690000Y3988000D01*
X4691000Y4798000D02*
X4721000Y4768000D01*
X4721000Y4798000D02*
X4691000Y4768000D01*
X4816000Y5002000D02*
X4846000Y4972000D01*
X4846000Y5002000D02*
X4816000Y4972000D01*
X4835000Y3505000D02*
X4865000Y3475000D01*
X4865000Y3505000D02*
X4835000Y3475000D01*
X5095000Y3505000D02*
X5125000Y3475000D01*
X5125000Y3505000D02*
X5095000Y3475000D01*
X5097000Y4156000D02*
X5127000Y4126000D01*
X5127000Y4156000D02*
X5097000Y4126000D01*
X5188000Y4347000D02*
X5218000Y4317000D01*
X5218000Y4347000D02*
X5188000Y4317000D01*
X5327000Y4227000D02*
X5357000Y4197000D01*
X5357000Y4227000D02*
X5327000Y4197000D01*
X5345000Y3505000D02*
X5375000Y3475000D01*
X5375000Y3505000D02*
X5345000Y3475000D01*
D13*
X168000Y4054000D02*
G75*
G03*
X168000Y4054000I-20000J0D01*
G01*
X508000Y4001000D02*
G75*
G03*
X508000Y4001000I-20000J0D01*
G01*
X692000Y4173000D02*
G75*
G03*
X692000Y4173000I-20000J0D01*
G01*
X1151000Y2395000D02*
G75*
G03*
X1151000Y2395000I-20000J0D01*
G01*
X1489000Y418000D02*
G75*
G03*
X1489000Y418000I-20000J0D01*
G01*
X1572250Y4470250D02*
G75*
G03*
X1572250Y4470250I-20000J0D01*
G01*
X1644000Y2398000D02*
G75*
G03*
X1644000Y2398000I-20000J0D01*
G01*
X2261000Y4840000D02*
G75*
G03*
X2261000Y4840000I-20000J0D01*
G01*
X2281000Y2398000D02*
G75*
G03*
X2281000Y2398000I-20000J0D01*
G01*
X2481000Y4762000D02*
G75*
G03*
X2481000Y4762000I-20000J0D01*
G01*
X2679000Y5465050D02*
G75*
G03*
X2679000Y5465050I-20000J0D01*
G01*
X2702000Y2844718D02*
G75*
G03*
X2702000Y2844718I-20000J0D01*
G01*
X2702000Y2678550D02*
G75*
G03*
X2702000Y2678550I-20000J0D01*
G01*
X2711000Y3281000D02*
G75*
G03*
X2711000Y3281000I-20000J0D01*
G01*
X2726000Y3027000D02*
G75*
G03*
X2726000Y3027000I-20000J0D01*
G01*
X2843983Y2927168D02*
G75*
G03*
X2843983Y2927168I-20000J0D01*
G01*
X2846000Y3127050D02*
G75*
G03*
X2846000Y3127050I-20000J0D01*
G01*
X2856000Y2761000D02*
G75*
G03*
X2856000Y2761000I-20000J0D01*
G01*
X2961854Y5285854D02*
G75*
G03*
X2961854Y5285854I-20000J0D01*
G01*
X2965000Y3281000D02*
G75*
G03*
X2965000Y3281000I-20000J0D01*
G01*
X3193000Y1846000D02*
G75*
G03*
X3193000Y1846000I-20000J0D01*
G01*
X3219000Y3281000D02*
G75*
G03*
X3219000Y3281000I-20000J0D01*
G01*
X3313000Y4080000D02*
G75*
G03*
X3313000Y4080000I-20000J0D01*
G01*
X3473000Y3281000D02*
G75*
G03*
X3473000Y3281000I-20000J0D01*
G01*
X3727000Y3281000D02*
G75*
G03*
X3727000Y3281000I-20000J0D01*
G01*
X3940000Y1448000D02*
G75*
G03*
X3940000Y1448000I-20000J0D01*
G01*
X3951000Y4762000D02*
G75*
G03*
X3951000Y4762000I-20000J0D01*
G01*
X3968000Y4344000D02*
G75*
G03*
X3968000Y4344000I-20000J0D01*
G01*
X3981000Y3281000D02*
G75*
G03*
X3981000Y3281000I-20000J0D01*
G01*
X4071000Y443000D02*
G75*
G03*
X4071000Y443000I-20000J0D01*
G01*
X4235000Y3281000D02*
G75*
G03*
X4235000Y3281000I-20000J0D01*
G01*
X4364000Y2909000D02*
G75*
G03*
X4364000Y2909000I-20000J0D01*
G01*
X4405000Y1702000D02*
G75*
G03*
X4405000Y1702000I-20000J0D01*
G01*
X4489000Y3281000D02*
G75*
G03*
X4489000Y3281000I-20000J0D01*
G01*
X4547823Y2700950D02*
G75*
G03*
X4547823Y2700950I-20000J0D01*
G01*
X4557000Y1210000D02*
G75*
G03*
X4557000Y1210000I-20000J0D01*
G01*
X4628122Y2638662D02*
G75*
G03*
X4628122Y2638662I-20000J0D01*
G01*
X4743000Y3281000D02*
G75*
G03*
X4743000Y3281000I-20000J0D01*
G01*
X4750000Y2170000D02*
G75*
G03*
X4750000Y2170000I-20000J0D01*
G01*
X4997000Y3281000D02*
G75*
G03*
X4997000Y3281000I-20000J0D01*
G01*
X5211000Y474000D02*
G75*
G03*
X5211000Y474000I-20000J0D01*
G01*
X5310046Y3198837D02*
G75*
G03*
X5310046Y3198837I-20000J0D01*
G01*
X5313000Y1880000D02*
G75*
G03*
X5313000Y1880000I-20000J0D01*
G01*
X5807000Y3310000D02*
G75*
G03*
X5807000Y3310000I-20000J0D01*
G01*
X5909000Y1854000D02*
G75*
G03*
X5909000Y1854000I-20000J0D01*
G01*
D14*
X3080000Y4590500D02*
X3080000Y4530500D01*
X3050000Y4560500D02*
X3110000Y4560500D01*
D15*
X2460981Y987019D02*
X2460981Y1032981D01*
X2415019Y1032981D01*
X2415019Y987019D01*
X2460981Y987019D01*
X2714981Y1241019D02*
X2714981Y1286981D01*
X2669019Y1286981D01*
X2669019Y1241019D01*
X2714981Y1241019D01*
X2968981Y987019D02*
X2968981Y1032981D01*
X2923019Y1032981D01*
X2923019Y987019D01*
X2968981Y987019D01*
D16*
X3677000Y1151000D02*
X3712000Y1186000D01*
X3677000Y1221000D01*
X3642000Y1186000D01*
X3677000Y1151000D01*
X3677000Y811000D02*
X3712000Y846000D01*
X3677000Y881000D01*
X3642000Y846000D01*
X3677000Y811000D01*
D17*
X4334500Y1006500D02*
X4427500Y913500D01*
X4427500Y1006500D02*
X4334500Y913500D01*
X4427500Y960000D02*
G75*
G03*
X4427500Y960000I-46500J0D01*
G01*
X5634500Y1006500D02*
X5727500Y913500D01*
X5727500Y1006500D02*
X5634500Y913500D01*
X5727500Y960000D02*
G75*
G03*
X5727500Y960000I-46500J0D01*
G01*
D10*
X279000Y2606000D02*
X379000Y2506000D01*
X379000Y2606000D02*
X279000Y2506000D01*
X329000Y2606000D02*
X329000Y2506000D01*
X279000Y2556000D02*
X379000Y2556000D01*
X279000Y2352000D02*
X379000Y2252000D01*
X379000Y2352000D02*
X279000Y2252000D01*
X329000Y2352000D02*
X329000Y2252000D01*
X279000Y2302000D02*
X379000Y2302000D01*
X279000Y2098000D02*
X379000Y1998000D01*
X379000Y2098000D02*
X279000Y1998000D01*
X329000Y2098000D02*
X329000Y1998000D01*
X279000Y2048000D02*
X379000Y2048000D01*
X279000Y1844000D02*
X379000Y1744000D01*
X379000Y1844000D02*
X279000Y1744000D01*
X329000Y1844000D02*
X329000Y1744000D01*
X279000Y1794000D02*
X379000Y1794000D01*
X542000Y2908000D02*
X642000Y2808000D01*
X642000Y2908000D02*
X542000Y2808000D01*
X592000Y2908000D02*
X592000Y2808000D01*
X542000Y2858000D02*
X642000Y2858000D01*
X690000Y885000D02*
X790000Y785000D01*
X790000Y885000D02*
X690000Y785000D01*
X740000Y885000D02*
X740000Y785000D01*
X690000Y835000D02*
X790000Y835000D01*
X796000Y2908000D02*
X896000Y2808000D01*
X896000Y2908000D02*
X796000Y2808000D01*
X846000Y2908000D02*
X846000Y2808000D01*
X796000Y2858000D02*
X896000Y2858000D01*
X944000Y885000D02*
X1044000Y785000D01*
X1044000Y885000D02*
X944000Y785000D01*
X994000Y885000D02*
X994000Y785000D01*
X944000Y835000D02*
X1044000Y835000D01*
X2816000Y2562000D02*
X2916000Y2462000D01*
X2916000Y2562000D02*
X2816000Y2462000D01*
X2866000Y2562000D02*
X2866000Y2462000D01*
X2816000Y2512000D02*
X2916000Y2512000D01*
X3070000Y2562000D02*
X3170000Y2462000D01*
X3170000Y2562000D02*
X3070000Y2462000D01*
X3120000Y2562000D02*
X3120000Y2462000D01*
X3070000Y2512000D02*
X3170000Y2512000D01*
X4078500Y5534000D02*
X4178500Y5434000D01*
X4178500Y5534000D02*
X4078500Y5434000D01*
X4128500Y5534000D02*
X4128500Y5434000D01*
X4078500Y5484000D02*
X4178500Y5484000D01*
X4332500Y5534000D02*
X4432500Y5434000D01*
X4432500Y5534000D02*
X4332500Y5434000D01*
X4382500Y5534000D02*
X4382500Y5434000D01*
X4332500Y5484000D02*
X4432500Y5484000D01*
D18*
X284500Y1545500D02*
X401500Y1428500D01*
X401500Y1545500D02*
X284500Y1428500D01*
X384366Y1445634D02*
X384366Y1528366D01*
X301634Y1528366D01*
X301634Y1445634D01*
X384366Y1445634D01*
X5770500Y1545500D02*
X5887500Y1428500D01*
X5887500Y1545500D02*
X5770500Y1428500D01*
X5870366Y1445634D02*
X5870366Y1528366D01*
X5787634Y1528366D01*
X5787634Y1445634D01*
X5870366Y1445634D01*
D19*
X4947250Y3070750D02*
X5142750Y2875250D01*
X5142750Y3070750D02*
X4947250Y2875250D01*
X5045000Y2875250D02*
X5142750Y2973000D01*
X5045000Y3070750D01*
X4947250Y2973000D01*
X5045000Y2875250D01*
X4947250Y2308750D02*
X5142750Y2113250D01*
X5142750Y2308750D02*
X4947250Y2113250D01*
X5045000Y2113250D02*
X5142750Y2211000D01*
X5045000Y2308750D01*
X4947250Y2211000D01*
X5045000Y2113250D01*
X5450250Y3070750D02*
X5645750Y2875250D01*
X5645750Y3070750D02*
X5450250Y2875250D01*
X5548000Y2875250D02*
X5645750Y2973000D01*
X5548000Y3070750D01*
X5450250Y2973000D01*
X5548000Y2875250D01*
X5450250Y2308750D02*
X5645750Y2113250D01*
X5645750Y2308750D02*
X5450250Y2113250D01*
X5548000Y2113250D02*
X5645750Y2211000D01*
X5548000Y2308750D01*
X5450250Y2211000D01*
X5548000Y2113250D01*
D20*
X343000Y858000D02*
X343000Y622000D01*
X225000Y740000D02*
X461000Y740000D01*
X461000Y740000D02*
G75*
G03*
X461000Y740000I-118000J0D01*
G01*
D21*
X1471431Y1374569D02*
X1471431Y1599431D01*
X1246569Y1599431D01*
X1246569Y1374569D01*
X1471431Y1374569D01*
X1518000Y1487000D02*
G75*
G03*
X1518000Y1487000I-159000J0D01*
G01*
X4925431Y1374569D02*
X4925431Y1599431D01*
X4700569Y1599431D01*
X4700569Y1374569D01*
X4925431Y1374569D01*
X4972000Y1487000D02*
G75*
G03*
X4972000Y1487000I-159000J0D01*
G01*
D11*
X255777Y-316484D02*
X255777Y-116484D01*
X255777Y-116484D02*
X303396Y-116484D01*
X303396Y-116484D02*
X331967Y-126008D01*
X331967Y-126008D02*
X351015Y-145055D01*
X351015Y-145055D02*
X360539Y-164103D01*
X360539Y-164103D02*
X370062Y-202198D01*
X370062Y-202198D02*
X370062Y-230769D01*
X370062Y-230769D02*
X360539Y-268865D01*
X360539Y-268865D02*
X351015Y-287912D01*
X351015Y-287912D02*
X331967Y-306960D01*
X331967Y-306960D02*
X303396Y-316484D01*
X303396Y-316484D02*
X255777Y-316484D01*
X455777Y-316484D02*
X455777Y-183150D01*
X455777Y-221246D02*
X465301Y-202198D01*
X465301Y-202198D02*
X474824Y-192674D01*
X474824Y-192674D02*
X493872Y-183150D01*
X493872Y-183150D02*
X512920Y-183150D01*
X579586Y-316484D02*
X579586Y-183150D01*
X579586Y-116484D02*
X570063Y-126008D01*
X570063Y-126008D02*
X579586Y-135531D01*
X579586Y-135531D02*
X589110Y-126008D01*
X589110Y-126008D02*
X579586Y-116484D01*
X579586Y-116484D02*
X579586Y-135531D01*
X703396Y-316484D02*
X684348Y-306960D01*
X684348Y-306960D02*
X674824Y-287912D01*
X674824Y-287912D02*
X674824Y-116484D01*
X808158Y-316484D02*
X789110Y-306960D01*
X789110Y-306960D02*
X779586Y-287912D01*
X779586Y-287912D02*
X779586Y-116484D01*
X1036729Y-316484D02*
X1036729Y-116484D01*
X1036729Y-116484D02*
X1103396Y-259341D01*
X1103396Y-259341D02*
X1170063Y-116484D01*
X1170063Y-116484D02*
X1170063Y-316484D01*
X1351015Y-316484D02*
X1351015Y-211722D01*
X1351015Y-211722D02*
X1341491Y-192674D01*
X1341491Y-192674D02*
X1322444Y-183150D01*
X1322444Y-183150D02*
X1284348Y-183150D01*
X1284348Y-183150D02*
X1265301Y-192674D01*
X1351015Y-306960D02*
X1331967Y-316484D01*
X1331967Y-316484D02*
X1284348Y-316484D01*
X1284348Y-316484D02*
X1265301Y-306960D01*
X1265301Y-306960D02*
X1255777Y-287912D01*
X1255777Y-287912D02*
X1255777Y-268865D01*
X1255777Y-268865D02*
X1265301Y-249817D01*
X1265301Y-249817D02*
X1284348Y-240293D01*
X1284348Y-240293D02*
X1331967Y-240293D01*
X1331967Y-240293D02*
X1351015Y-230769D01*
X1446253Y-183150D02*
X1446253Y-383150D01*
X1446253Y-192674D02*
X1465301Y-183150D01*
X1465301Y-183150D02*
X1503396Y-183150D01*
X1503396Y-183150D02*
X1522443Y-192674D01*
X1522443Y-192674D02*
X1531967Y-202198D01*
X1531967Y-202198D02*
X1541491Y-221246D01*
X1541491Y-221246D02*
X1541491Y-278389D01*
X1541491Y-278389D02*
X1531967Y-297436D01*
X1531967Y-297436D02*
X1522443Y-306960D01*
X1522443Y-306960D02*
X1503396Y-316484D01*
X1503396Y-316484D02*
X1465301Y-316484D01*
X1465301Y-316484D02*
X1446253Y-306960D01*
X1627205Y-297436D02*
X1636729Y-306960D01*
X1636729Y-306960D02*
X1627205Y-316484D01*
X1627205Y-316484D02*
X1617682Y-306960D01*
X1617682Y-306960D02*
X1627205Y-297436D01*
X1627205Y-297436D02*
X1627205Y-316484D01*
X1627205Y-192674D02*
X1636729Y-202198D01*
X1636729Y-202198D02*
X1627205Y-211722D01*
X1627205Y-211722D02*
X1617682Y-202198D01*
X1617682Y-202198D02*
X1627205Y-192674D01*
X1627205Y-192674D02*
X1627205Y-211722D01*
D12*
X-35000Y-630000D02*
X-5000Y-660000D01*
X-5000Y-630000D02*
X-35000Y-660000D01*
D11*
X293872Y-536484D02*
X312920Y-536484D01*
X312920Y-536484D02*
X331967Y-546008D01*
X331967Y-546008D02*
X341491Y-555531D01*
X341491Y-555531D02*
X351015Y-574579D01*
X351015Y-574579D02*
X360539Y-612674D01*
X360539Y-612674D02*
X360539Y-660293D01*
X360539Y-660293D02*
X351015Y-698389D01*
X351015Y-698389D02*
X341491Y-717436D01*
X341491Y-717436D02*
X331967Y-726960D01*
X331967Y-726960D02*
X312920Y-736484D01*
X312920Y-736484D02*
X293872Y-736484D01*
X293872Y-736484D02*
X274824Y-726960D01*
X274824Y-726960D02*
X265301Y-717436D01*
X265301Y-717436D02*
X255777Y-698389D01*
X255777Y-698389D02*
X246253Y-660293D01*
X246253Y-660293D02*
X246253Y-612674D01*
X246253Y-612674D02*
X255777Y-574579D01*
X255777Y-574579D02*
X265301Y-555531D01*
X265301Y-555531D02*
X274824Y-546008D01*
X274824Y-546008D02*
X293872Y-536484D01*
X446253Y-717436D02*
X455777Y-726960D01*
X455777Y-726960D02*
X446253Y-736484D01*
X446253Y-736484D02*
X436729Y-726960D01*
X436729Y-726960D02*
X446253Y-717436D01*
X446253Y-717436D02*
X446253Y-736484D01*
X522443Y-536484D02*
X646253Y-536484D01*
X646253Y-536484D02*
X579586Y-612674D01*
X579586Y-612674D02*
X608158Y-612674D01*
X608158Y-612674D02*
X627205Y-622198D01*
X627205Y-622198D02*
X636729Y-631722D01*
X636729Y-631722D02*
X646253Y-650770D01*
X646253Y-650770D02*
X646253Y-698389D01*
X646253Y-698389D02*
X636729Y-717436D01*
X636729Y-717436D02*
X627205Y-726960D01*
X627205Y-726960D02*
X608158Y-736484D01*
X608158Y-736484D02*
X551015Y-736484D01*
X551015Y-736484D02*
X531967Y-726960D01*
X531967Y-726960D02*
X522443Y-717436D01*
X770062Y-536484D02*
X789110Y-536484D01*
X789110Y-536484D02*
X808158Y-546008D01*
X808158Y-546008D02*
X817682Y-555531D01*
X817682Y-555531D02*
X827205Y-574579D01*
X827205Y-574579D02*
X836729Y-612674D01*
X836729Y-612674D02*
X836729Y-660293D01*
X836729Y-660293D02*
X827205Y-698389D01*
X827205Y-698389D02*
X817682Y-717436D01*
X817682Y-717436D02*
X808158Y-726960D01*
X808158Y-726960D02*
X789110Y-736484D01*
X789110Y-736484D02*
X770062Y-736484D01*
X770062Y-736484D02*
X751015Y-726960D01*
X751015Y-726960D02*
X741491Y-717436D01*
X741491Y-717436D02*
X731967Y-698389D01*
X731967Y-698389D02*
X722443Y-660293D01*
X722443Y-660293D02*
X722443Y-612674D01*
X722443Y-612674D02*
X731967Y-574579D01*
X731967Y-574579D02*
X741491Y-555531D01*
X741491Y-555531D02*
X751015Y-546008D01*
X751015Y-546008D02*
X770062Y-536484D01*
X960539Y-536484D02*
X979586Y-536484D01*
X979586Y-536484D02*
X998634Y-546008D01*
X998634Y-546008D02*
X1008158Y-555531D01*
X1008158Y-555531D02*
X1017682Y-574579D01*
X1017682Y-574579D02*
X1027205Y-612674D01*
X1027205Y-612674D02*
X1027205Y-660293D01*
X1027205Y-660293D02*
X1017682Y-698389D01*
X1017682Y-698389D02*
X1008158Y-717436D01*
X1008158Y-717436D02*
X998634Y-726960D01*
X998634Y-726960D02*
X979586Y-736484D01*
X979586Y-736484D02*
X960539Y-736484D01*
X960539Y-736484D02*
X941491Y-726960D01*
X941491Y-726960D02*
X931967Y-717436D01*
X931967Y-717436D02*
X922443Y-698389D01*
X922443Y-698389D02*
X912920Y-660293D01*
X912920Y-660293D02*
X912920Y-612674D01*
X912920Y-612674D02*
X922443Y-574579D01*
X922443Y-574579D02*
X931967Y-555531D01*
X931967Y-555531D02*
X941491Y-546008D01*
X941491Y-546008D02*
X960539Y-536484D01*
X1112920Y-736484D02*
X1112920Y-603150D01*
X1112920Y-622198D02*
X1122444Y-612674D01*
X1122444Y-612674D02*
X1141491Y-603150D01*
X1141491Y-603150D02*
X1170063Y-603150D01*
X1170063Y-603150D02*
X1189110Y-612674D01*
X1189110Y-612674D02*
X1198634Y-631722D01*
X1198634Y-631722D02*
X1198634Y-736484D01*
X1198634Y-631722D02*
X1208158Y-612674D01*
X1208158Y-612674D02*
X1227205Y-603150D01*
X1227205Y-603150D02*
X1255777Y-603150D01*
X1255777Y-603150D02*
X1274825Y-612674D01*
X1274825Y-612674D02*
X1284348Y-631722D01*
X1284348Y-631722D02*
X1284348Y-736484D01*
X1379586Y-736484D02*
X1379586Y-603150D01*
X1379586Y-622198D02*
X1389110Y-612674D01*
X1389110Y-612674D02*
X1408158Y-603150D01*
X1408158Y-603150D02*
X1436729Y-603150D01*
X1436729Y-603150D02*
X1455777Y-612674D01*
X1455777Y-612674D02*
X1465301Y-631722D01*
X1465301Y-631722D02*
X1465301Y-736484D01*
X1465301Y-631722D02*
X1474824Y-612674D01*
X1474824Y-612674D02*
X1493872Y-603150D01*
X1493872Y-603150D02*
X1522443Y-603150D01*
X1522443Y-603150D02*
X1541491Y-612674D01*
X1541491Y-612674D02*
X1551015Y-631722D01*
X1551015Y-631722D02*
X1551015Y-736484D01*
X1941491Y-526960D02*
X1770063Y-784103D01*
X2198634Y-536484D02*
X2217682Y-536484D01*
X2217682Y-536484D02*
X2236729Y-546008D01*
X2236729Y-546008D02*
X2246253Y-555531D01*
X2246253Y-555531D02*
X2255777Y-574579D01*
X2255777Y-574579D02*
X2265301Y-612674D01*
X2265301Y-612674D02*
X2265301Y-660293D01*
X2265301Y-660293D02*
X2255777Y-698389D01*
X2255777Y-698389D02*
X2246253Y-717436D01*
X2246253Y-717436D02*
X2236729Y-726960D01*
X2236729Y-726960D02*
X2217682Y-736484D01*
X2217682Y-736484D02*
X2198634Y-736484D01*
X2198634Y-736484D02*
X2179587Y-726960D01*
X2179587Y-726960D02*
X2170063Y-717436D01*
X2170063Y-717436D02*
X2160539Y-698389D01*
X2160539Y-698389D02*
X2151015Y-660293D01*
X2151015Y-660293D02*
X2151015Y-612674D01*
X2151015Y-612674D02*
X2160539Y-574579D01*
X2160539Y-574579D02*
X2170063Y-555531D01*
X2170063Y-555531D02*
X2179587Y-546008D01*
X2179587Y-546008D02*
X2198634Y-536484D01*
X2351015Y-717436D02*
X2360539Y-726960D01*
X2360539Y-726960D02*
X2351015Y-736484D01*
X2351015Y-736484D02*
X2341491Y-726960D01*
X2341491Y-726960D02*
X2351015Y-717436D01*
X2351015Y-717436D02*
X2351015Y-736484D01*
X2484348Y-536484D02*
X2503396Y-536484D01*
X2503396Y-536484D02*
X2522444Y-546008D01*
X2522444Y-546008D02*
X2531968Y-555531D01*
X2531968Y-555531D02*
X2541491Y-574579D01*
X2541491Y-574579D02*
X2551015Y-612674D01*
X2551015Y-612674D02*
X2551015Y-660293D01*
X2551015Y-660293D02*
X2541491Y-698389D01*
X2541491Y-698389D02*
X2531968Y-717436D01*
X2531968Y-717436D02*
X2522444Y-726960D01*
X2522444Y-726960D02*
X2503396Y-736484D01*
X2503396Y-736484D02*
X2484348Y-736484D01*
X2484348Y-736484D02*
X2465301Y-726960D01*
X2465301Y-726960D02*
X2455777Y-717436D01*
X2455777Y-717436D02*
X2446253Y-698389D01*
X2446253Y-698389D02*
X2436729Y-660293D01*
X2436729Y-660293D02*
X2436729Y-612674D01*
X2436729Y-612674D02*
X2446253Y-574579D01*
X2446253Y-574579D02*
X2455777Y-555531D01*
X2455777Y-555531D02*
X2465301Y-546008D01*
X2465301Y-546008D02*
X2484348Y-536484D01*
X2741491Y-736484D02*
X2627206Y-736484D01*
X2684348Y-736484D02*
X2684348Y-536484D01*
X2684348Y-536484D02*
X2665301Y-565055D01*
X2665301Y-565055D02*
X2646253Y-584103D01*
X2646253Y-584103D02*
X2627206Y-593627D01*
X2931967Y-736484D02*
X2817682Y-736484D01*
X2874825Y-736484D02*
X2874825Y-536484D01*
X2874825Y-536484D02*
X2855777Y-565055D01*
X2855777Y-565055D02*
X2836729Y-584103D01*
X2836729Y-584103D02*
X2817682Y-593627D01*
X3046253Y-622198D02*
X3027206Y-612674D01*
X3027206Y-612674D02*
X3017682Y-603150D01*
X3017682Y-603150D02*
X3008158Y-584103D01*
X3008158Y-584103D02*
X3008158Y-574579D01*
X3008158Y-574579D02*
X3017682Y-555531D01*
X3017682Y-555531D02*
X3027206Y-546008D01*
X3027206Y-546008D02*
X3046253Y-536484D01*
X3046253Y-536484D02*
X3084348Y-536484D01*
X3084348Y-536484D02*
X3103396Y-546008D01*
X3103396Y-546008D02*
X3112920Y-555531D01*
X3112920Y-555531D02*
X3122444Y-574579D01*
X3122444Y-574579D02*
X3122444Y-584103D01*
X3122444Y-584103D02*
X3112920Y-603150D01*
X3112920Y-603150D02*
X3103396Y-612674D01*
X3103396Y-612674D02*
X3084348Y-622198D01*
X3084348Y-622198D02*
X3046253Y-622198D01*
X3046253Y-622198D02*
X3027206Y-631722D01*
X3027206Y-631722D02*
X3017682Y-641246D01*
X3017682Y-641246D02*
X3008158Y-660293D01*
X3008158Y-660293D02*
X3008158Y-698389D01*
X3008158Y-698389D02*
X3017682Y-717436D01*
X3017682Y-717436D02*
X3027206Y-726960D01*
X3027206Y-726960D02*
X3046253Y-736484D01*
X3046253Y-736484D02*
X3084348Y-736484D01*
X3084348Y-736484D02*
X3103396Y-726960D01*
X3103396Y-726960D02*
X3112920Y-717436D01*
X3112920Y-717436D02*
X3122444Y-698389D01*
X3122444Y-698389D02*
X3122444Y-660293D01*
X3122444Y-660293D02*
X3112920Y-641246D01*
X3112920Y-641246D02*
X3103396Y-631722D01*
X3103396Y-631722D02*
X3084348Y-622198D01*
X3198634Y-536484D02*
X3198634Y-574579D01*
X3274825Y-536484D02*
X3274825Y-574579D01*
X3570063Y-812674D02*
X3560539Y-803150D01*
X3560539Y-803150D02*
X3541491Y-774579D01*
X3541491Y-774579D02*
X3531968Y-755531D01*
X3531968Y-755531D02*
X3522444Y-726960D01*
X3522444Y-726960D02*
X3512920Y-679341D01*
X3512920Y-679341D02*
X3512920Y-641246D01*
X3512920Y-641246D02*
X3522444Y-593627D01*
X3522444Y-593627D02*
X3531968Y-565055D01*
X3531968Y-565055D02*
X3541491Y-546008D01*
X3541491Y-546008D02*
X3560539Y-517436D01*
X3560539Y-517436D02*
X3570063Y-507912D01*
X3655777Y-736484D02*
X3693872Y-736484D01*
X3693872Y-736484D02*
X3712920Y-726960D01*
X3712920Y-726960D02*
X3722444Y-717436D01*
X3722444Y-717436D02*
X3741491Y-688865D01*
X3741491Y-688865D02*
X3751015Y-650770D01*
X3751015Y-650770D02*
X3751015Y-574579D01*
X3751015Y-574579D02*
X3741491Y-555531D01*
X3741491Y-555531D02*
X3731968Y-546008D01*
X3731968Y-546008D02*
X3712920Y-536484D01*
X3712920Y-536484D02*
X3674825Y-536484D01*
X3674825Y-536484D02*
X3655777Y-546008D01*
X3655777Y-546008D02*
X3646253Y-555531D01*
X3646253Y-555531D02*
X3636729Y-574579D01*
X3636729Y-574579D02*
X3636729Y-622198D01*
X3636729Y-622198D02*
X3646253Y-641246D01*
X3646253Y-641246D02*
X3655777Y-650770D01*
X3655777Y-650770D02*
X3674825Y-660293D01*
X3674825Y-660293D02*
X3712920Y-660293D01*
X3712920Y-660293D02*
X3731968Y-650770D01*
X3731968Y-650770D02*
X3741491Y-641246D01*
X3741491Y-641246D02*
X3751015Y-622198D01*
X3922444Y-536484D02*
X3884348Y-536484D01*
X3884348Y-536484D02*
X3865301Y-546008D01*
X3865301Y-546008D02*
X3855777Y-555531D01*
X3855777Y-555531D02*
X3836729Y-584103D01*
X3836729Y-584103D02*
X3827206Y-622198D01*
X3827206Y-622198D02*
X3827206Y-698389D01*
X3827206Y-698389D02*
X3836729Y-717436D01*
X3836729Y-717436D02*
X3846253Y-726960D01*
X3846253Y-726960D02*
X3865301Y-736484D01*
X3865301Y-736484D02*
X3903396Y-736484D01*
X3903396Y-736484D02*
X3922444Y-726960D01*
X3922444Y-726960D02*
X3931968Y-717436D01*
X3931968Y-717436D02*
X3941491Y-698389D01*
X3941491Y-698389D02*
X3941491Y-650770D01*
X3941491Y-650770D02*
X3931968Y-631722D01*
X3931968Y-631722D02*
X3922444Y-622198D01*
X3922444Y-622198D02*
X3903396Y-612674D01*
X3903396Y-612674D02*
X3865301Y-612674D01*
X3865301Y-612674D02*
X3846253Y-622198D01*
X3846253Y-622198D02*
X3836729Y-631722D01*
X3836729Y-631722D02*
X3827206Y-650770D01*
X4179587Y-736484D02*
X4179587Y-536484D01*
X4265301Y-736484D02*
X4265301Y-631722D01*
X4265301Y-631722D02*
X4255777Y-612674D01*
X4255777Y-612674D02*
X4236730Y-603150D01*
X4236730Y-603150D02*
X4208158Y-603150D01*
X4208158Y-603150D02*
X4189110Y-612674D01*
X4189110Y-612674D02*
X4179587Y-622198D01*
X4389111Y-736484D02*
X4370063Y-726960D01*
X4370063Y-726960D02*
X4360539Y-717436D01*
X4360539Y-717436D02*
X4351015Y-698389D01*
X4351015Y-698389D02*
X4351015Y-641246D01*
X4351015Y-641246D02*
X4360539Y-622198D01*
X4360539Y-622198D02*
X4370063Y-612674D01*
X4370063Y-612674D02*
X4389111Y-603150D01*
X4389111Y-603150D02*
X4417682Y-603150D01*
X4417682Y-603150D02*
X4436730Y-612674D01*
X4436730Y-612674D02*
X4446253Y-622198D01*
X4446253Y-622198D02*
X4455777Y-641246D01*
X4455777Y-641246D02*
X4455777Y-698389D01*
X4455777Y-698389D02*
X4446253Y-717436D01*
X4446253Y-717436D02*
X4436730Y-726960D01*
X4436730Y-726960D02*
X4417682Y-736484D01*
X4417682Y-736484D02*
X4389111Y-736484D01*
X4570063Y-736484D02*
X4551015Y-726960D01*
X4551015Y-726960D02*
X4541492Y-707912D01*
X4541492Y-707912D02*
X4541492Y-536484D01*
X4722444Y-726960D02*
X4703396Y-736484D01*
X4703396Y-736484D02*
X4665301Y-736484D01*
X4665301Y-736484D02*
X4646253Y-726960D01*
X4646253Y-726960D02*
X4636730Y-707912D01*
X4636730Y-707912D02*
X4636730Y-631722D01*
X4636730Y-631722D02*
X4646253Y-612674D01*
X4646253Y-612674D02*
X4665301Y-603150D01*
X4665301Y-603150D02*
X4703396Y-603150D01*
X4703396Y-603150D02*
X4722444Y-612674D01*
X4722444Y-612674D02*
X4731968Y-631722D01*
X4731968Y-631722D02*
X4731968Y-650770D01*
X4731968Y-650770D02*
X4636730Y-669817D01*
X4808158Y-726960D02*
X4827206Y-736484D01*
X4827206Y-736484D02*
X4865301Y-736484D01*
X4865301Y-736484D02*
X4884349Y-726960D01*
X4884349Y-726960D02*
X4893873Y-707912D01*
X4893873Y-707912D02*
X4893873Y-698389D01*
X4893873Y-698389D02*
X4884349Y-679341D01*
X4884349Y-679341D02*
X4865301Y-669817D01*
X4865301Y-669817D02*
X4836730Y-669817D01*
X4836730Y-669817D02*
X4817682Y-660293D01*
X4817682Y-660293D02*
X4808158Y-641246D01*
X4808158Y-641246D02*
X4808158Y-631722D01*
X4808158Y-631722D02*
X4817682Y-612674D01*
X4817682Y-612674D02*
X4836730Y-603150D01*
X4836730Y-603150D02*
X4865301Y-603150D01*
X4865301Y-603150D02*
X4884349Y-612674D01*
X4960539Y-812674D02*
X4970063Y-803150D01*
X4970063Y-803150D02*
X4989111Y-774579D01*
X4989111Y-774579D02*
X4998634Y-755531D01*
X4998634Y-755531D02*
X5008158Y-726960D01*
X5008158Y-726960D02*
X5017682Y-679341D01*
X5017682Y-679341D02*
X5017682Y-641246D01*
X5017682Y-641246D02*
X5008158Y-593627D01*
X5008158Y-593627D02*
X4998634Y-565055D01*
X4998634Y-565055D02*
X4989111Y-546008D01*
X4989111Y-546008D02*
X4970063Y-517436D01*
X4970063Y-517436D02*
X4960539Y-507912D01*
D13*
X-5000Y-909000D02*
G75*
G03*
X-5000Y-909000I-20000J0D01*
G01*
D11*
X293872Y-800484D02*
X312920Y-800484D01*
X312920Y-800484D02*
X331967Y-810008D01*
X331967Y-810008D02*
X341491Y-819531D01*
X341491Y-819531D02*
X351015Y-838579D01*
X351015Y-838579D02*
X360539Y-876674D01*
X360539Y-876674D02*
X360539Y-924293D01*
X360539Y-924293D02*
X351015Y-962388D01*
X351015Y-962388D02*
X341491Y-981436D01*
X341491Y-981436D02*
X331967Y-990960D01*
X331967Y-990960D02*
X312920Y-1000484D01*
X312920Y-1000484D02*
X293872Y-1000484D01*
X293872Y-1000484D02*
X274824Y-990960D01*
X274824Y-990960D02*
X265301Y-981436D01*
X265301Y-981436D02*
X255777Y-962388D01*
X255777Y-962388D02*
X246253Y-924293D01*
X246253Y-924293D02*
X246253Y-876674D01*
X246253Y-876674D02*
X255777Y-838579D01*
X255777Y-838579D02*
X265301Y-819531D01*
X265301Y-819531D02*
X274824Y-810008D01*
X274824Y-810008D02*
X293872Y-800484D01*
X446253Y-981436D02*
X455777Y-990960D01*
X455777Y-990960D02*
X446253Y-1000484D01*
X446253Y-1000484D02*
X436729Y-990960D01*
X436729Y-990960D02*
X446253Y-981436D01*
X446253Y-981436D02*
X446253Y-1000484D01*
X627205Y-867150D02*
X627205Y-1000484D01*
X579586Y-790960D02*
X531967Y-933817D01*
X531967Y-933817D02*
X655777Y-933817D01*
X770062Y-800484D02*
X789110Y-800484D01*
X789110Y-800484D02*
X808158Y-810008D01*
X808158Y-810008D02*
X817682Y-819531D01*
X817682Y-819531D02*
X827205Y-838579D01*
X827205Y-838579D02*
X836729Y-876674D01*
X836729Y-876674D02*
X836729Y-924293D01*
X836729Y-924293D02*
X827205Y-962388D01*
X827205Y-962388D02*
X817682Y-981436D01*
X817682Y-981436D02*
X808158Y-990960D01*
X808158Y-990960D02*
X789110Y-1000484D01*
X789110Y-1000484D02*
X770062Y-1000484D01*
X770062Y-1000484D02*
X751015Y-990960D01*
X751015Y-990960D02*
X741491Y-981436D01*
X741491Y-981436D02*
X731967Y-962388D01*
X731967Y-962388D02*
X722443Y-924293D01*
X722443Y-924293D02*
X722443Y-876674D01*
X722443Y-876674D02*
X731967Y-838579D01*
X731967Y-838579D02*
X741491Y-819531D01*
X741491Y-819531D02*
X751015Y-810008D01*
X751015Y-810008D02*
X770062Y-800484D01*
X960539Y-800484D02*
X979586Y-800484D01*
X979586Y-800484D02*
X998634Y-810008D01*
X998634Y-810008D02*
X1008158Y-819531D01*
X1008158Y-819531D02*
X1017682Y-838579D01*
X1017682Y-838579D02*
X1027205Y-876674D01*
X1027205Y-876674D02*
X1027205Y-924293D01*
X1027205Y-924293D02*
X1017682Y-962388D01*
X1017682Y-962388D02*
X1008158Y-981436D01*
X1008158Y-981436D02*
X998634Y-990960D01*
X998634Y-990960D02*
X979586Y-1000484D01*
X979586Y-1000484D02*
X960539Y-1000484D01*
X960539Y-1000484D02*
X941491Y-990960D01*
X941491Y-990960D02*
X931967Y-981436D01*
X931967Y-981436D02*
X922443Y-962388D01*
X922443Y-962388D02*
X912920Y-924293D01*
X912920Y-924293D02*
X912920Y-876674D01*
X912920Y-876674D02*
X922443Y-838579D01*
X922443Y-838579D02*
X931967Y-819531D01*
X931967Y-819531D02*
X941491Y-810008D01*
X941491Y-810008D02*
X960539Y-800484D01*
X1112920Y-1000484D02*
X1112920Y-867150D01*
X1112920Y-886198D02*
X1122444Y-876674D01*
X1122444Y-876674D02*
X1141491Y-867150D01*
X1141491Y-867150D02*
X1170063Y-867150D01*
X1170063Y-867150D02*
X1189110Y-876674D01*
X1189110Y-876674D02*
X1198634Y-895722D01*
X1198634Y-895722D02*
X1198634Y-1000484D01*
X1198634Y-895722D02*
X1208158Y-876674D01*
X1208158Y-876674D02*
X1227205Y-867150D01*
X1227205Y-867150D02*
X1255777Y-867150D01*
X1255777Y-867150D02*
X1274825Y-876674D01*
X1274825Y-876674D02*
X1284348Y-895722D01*
X1284348Y-895722D02*
X1284348Y-1000484D01*
X1379586Y-1000484D02*
X1379586Y-867150D01*
X1379586Y-886198D02*
X1389110Y-876674D01*
X1389110Y-876674D02*
X1408158Y-867150D01*
X1408158Y-867150D02*
X1436729Y-867150D01*
X1436729Y-867150D02*
X1455777Y-876674D01*
X1455777Y-876674D02*
X1465301Y-895722D01*
X1465301Y-895722D02*
X1465301Y-1000484D01*
X1465301Y-895722D02*
X1474824Y-876674D01*
X1474824Y-876674D02*
X1493872Y-867150D01*
X1493872Y-867150D02*
X1522443Y-867150D01*
X1522443Y-867150D02*
X1541491Y-876674D01*
X1541491Y-876674D02*
X1551015Y-895722D01*
X1551015Y-895722D02*
X1551015Y-1000484D01*
X1941491Y-790960D02*
X1770063Y-1048103D01*
X2198634Y-800484D02*
X2217682Y-800484D01*
X2217682Y-800484D02*
X2236729Y-810008D01*
X2236729Y-810008D02*
X2246253Y-819531D01*
X2246253Y-819531D02*
X2255777Y-838579D01*
X2255777Y-838579D02*
X2265301Y-876674D01*
X2265301Y-876674D02*
X2265301Y-924293D01*
X2265301Y-924293D02*
X2255777Y-962388D01*
X2255777Y-962388D02*
X2246253Y-981436D01*
X2246253Y-981436D02*
X2236729Y-990960D01*
X2236729Y-990960D02*
X2217682Y-1000484D01*
X2217682Y-1000484D02*
X2198634Y-1000484D01*
X2198634Y-1000484D02*
X2179587Y-990960D01*
X2179587Y-990960D02*
X2170063Y-981436D01*
X2170063Y-981436D02*
X2160539Y-962388D01*
X2160539Y-962388D02*
X2151015Y-924293D01*
X2151015Y-924293D02*
X2151015Y-876674D01*
X2151015Y-876674D02*
X2160539Y-838579D01*
X2160539Y-838579D02*
X2170063Y-819531D01*
X2170063Y-819531D02*
X2179587Y-810008D01*
X2179587Y-810008D02*
X2198634Y-800484D01*
X2351015Y-981436D02*
X2360539Y-990960D01*
X2360539Y-990960D02*
X2351015Y-1000484D01*
X2351015Y-1000484D02*
X2341491Y-990960D01*
X2341491Y-990960D02*
X2351015Y-981436D01*
X2351015Y-981436D02*
X2351015Y-1000484D01*
X2484348Y-800484D02*
X2503396Y-800484D01*
X2503396Y-800484D02*
X2522444Y-810008D01*
X2522444Y-810008D02*
X2531968Y-819531D01*
X2531968Y-819531D02*
X2541491Y-838579D01*
X2541491Y-838579D02*
X2551015Y-876674D01*
X2551015Y-876674D02*
X2551015Y-924293D01*
X2551015Y-924293D02*
X2541491Y-962388D01*
X2541491Y-962388D02*
X2531968Y-981436D01*
X2531968Y-981436D02*
X2522444Y-990960D01*
X2522444Y-990960D02*
X2503396Y-1000484D01*
X2503396Y-1000484D02*
X2484348Y-1000484D01*
X2484348Y-1000484D02*
X2465301Y-990960D01*
X2465301Y-990960D02*
X2455777Y-981436D01*
X2455777Y-981436D02*
X2446253Y-962388D01*
X2446253Y-962388D02*
X2436729Y-924293D01*
X2436729Y-924293D02*
X2436729Y-876674D01*
X2436729Y-876674D02*
X2446253Y-838579D01*
X2446253Y-838579D02*
X2455777Y-819531D01*
X2455777Y-819531D02*
X2465301Y-810008D01*
X2465301Y-810008D02*
X2484348Y-800484D01*
X2741491Y-1000484D02*
X2627206Y-1000484D01*
X2684348Y-1000484D02*
X2684348Y-800484D01*
X2684348Y-800484D02*
X2665301Y-829055D01*
X2665301Y-829055D02*
X2646253Y-848103D01*
X2646253Y-848103D02*
X2627206Y-857627D01*
X2922444Y-800484D02*
X2827206Y-800484D01*
X2827206Y-800484D02*
X2817682Y-895722D01*
X2817682Y-895722D02*
X2827206Y-886198D01*
X2827206Y-886198D02*
X2846253Y-876674D01*
X2846253Y-876674D02*
X2893872Y-876674D01*
X2893872Y-876674D02*
X2912920Y-886198D01*
X2912920Y-886198D02*
X2922444Y-895722D01*
X2922444Y-895722D02*
X2931967Y-914769D01*
X2931967Y-914769D02*
X2931967Y-962388D01*
X2931967Y-962388D02*
X2922444Y-981436D01*
X2922444Y-981436D02*
X2912920Y-990960D01*
X2912920Y-990960D02*
X2893872Y-1000484D01*
X2893872Y-1000484D02*
X2846253Y-1000484D01*
X2846253Y-1000484D02*
X2827206Y-990960D01*
X2827206Y-990960D02*
X2817682Y-981436D01*
X2998634Y-800484D02*
X3131967Y-800484D01*
X3131967Y-800484D02*
X3046253Y-1000484D01*
X3198634Y-800484D02*
X3198634Y-838579D01*
X3274825Y-800484D02*
X3274825Y-838579D01*
X3570063Y-1076674D02*
X3560539Y-1067150D01*
X3560539Y-1067150D02*
X3541491Y-1038579D01*
X3541491Y-1038579D02*
X3531968Y-1019531D01*
X3531968Y-1019531D02*
X3522444Y-990960D01*
X3522444Y-990960D02*
X3512920Y-943341D01*
X3512920Y-943341D02*
X3512920Y-905246D01*
X3512920Y-905246D02*
X3522444Y-857627D01*
X3522444Y-857627D02*
X3531968Y-829055D01*
X3531968Y-829055D02*
X3541491Y-810008D01*
X3541491Y-810008D02*
X3560539Y-781436D01*
X3560539Y-781436D02*
X3570063Y-771912D01*
X3731968Y-867150D02*
X3731968Y-1000484D01*
X3684348Y-790960D02*
X3636729Y-933817D01*
X3636729Y-933817D02*
X3760539Y-933817D01*
X3931968Y-800484D02*
X3836729Y-800484D01*
X3836729Y-800484D02*
X3827206Y-895722D01*
X3827206Y-895722D02*
X3836729Y-886198D01*
X3836729Y-886198D02*
X3855777Y-876674D01*
X3855777Y-876674D02*
X3903396Y-876674D01*
X3903396Y-876674D02*
X3922444Y-886198D01*
X3922444Y-886198D02*
X3931968Y-895722D01*
X3931968Y-895722D02*
X3941491Y-914769D01*
X3941491Y-914769D02*
X3941491Y-962388D01*
X3941491Y-962388D02*
X3931968Y-981436D01*
X3931968Y-981436D02*
X3922444Y-990960D01*
X3922444Y-990960D02*
X3903396Y-1000484D01*
X3903396Y-1000484D02*
X3855777Y-1000484D01*
X3855777Y-1000484D02*
X3836729Y-990960D01*
X3836729Y-990960D02*
X3827206Y-981436D01*
X4179587Y-1000484D02*
X4179587Y-800484D01*
X4265301Y-1000484D02*
X4265301Y-895722D01*
X4265301Y-895722D02*
X4255777Y-876674D01*
X4255777Y-876674D02*
X4236730Y-867150D01*
X4236730Y-867150D02*
X4208158Y-867150D01*
X4208158Y-867150D02*
X4189110Y-876674D01*
X4189110Y-876674D02*
X4179587Y-886198D01*
X4389111Y-1000484D02*
X4370063Y-990960D01*
X4370063Y-990960D02*
X4360539Y-981436D01*
X4360539Y-981436D02*
X4351015Y-962388D01*
X4351015Y-962388D02*
X4351015Y-905246D01*
X4351015Y-905246D02*
X4360539Y-886198D01*
X4360539Y-886198D02*
X4370063Y-876674D01*
X4370063Y-876674D02*
X4389111Y-867150D01*
X4389111Y-867150D02*
X4417682Y-867150D01*
X4417682Y-867150D02*
X4436730Y-876674D01*
X4436730Y-876674D02*
X4446253Y-886198D01*
X4446253Y-886198D02*
X4455777Y-905246D01*
X4455777Y-905246D02*
X4455777Y-962388D01*
X4455777Y-962388D02*
X4446253Y-981436D01*
X4446253Y-981436D02*
X4436730Y-990960D01*
X4436730Y-990960D02*
X4417682Y-1000484D01*
X4417682Y-1000484D02*
X4389111Y-1000484D01*
X4570063Y-1000484D02*
X4551015Y-990960D01*
X4551015Y-990960D02*
X4541492Y-971912D01*
X4541492Y-971912D02*
X4541492Y-800484D01*
X4722444Y-990960D02*
X4703396Y-1000484D01*
X4703396Y-1000484D02*
X4665301Y-1000484D01*
X4665301Y-1000484D02*
X4646253Y-990960D01*
X4646253Y-990960D02*
X4636730Y-971912D01*
X4636730Y-971912D02*
X4636730Y-895722D01*
X4636730Y-895722D02*
X4646253Y-876674D01*
X4646253Y-876674D02*
X4665301Y-867150D01*
X4665301Y-867150D02*
X4703396Y-867150D01*
X4703396Y-867150D02*
X4722444Y-876674D01*
X4722444Y-876674D02*
X4731968Y-895722D01*
X4731968Y-895722D02*
X4731968Y-914769D01*
X4731968Y-914769D02*
X4636730Y-933817D01*
X4808158Y-990960D02*
X4827206Y-1000484D01*
X4827206Y-1000484D02*
X4865301Y-1000484D01*
X4865301Y-1000484D02*
X4884349Y-990960D01*
X4884349Y-990960D02*
X4893873Y-971912D01*
X4893873Y-971912D02*
X4893873Y-962388D01*
X4893873Y-962388D02*
X4884349Y-943341D01*
X4884349Y-943341D02*
X4865301Y-933817D01*
X4865301Y-933817D02*
X4836730Y-933817D01*
X4836730Y-933817D02*
X4817682Y-924293D01*
X4817682Y-924293D02*
X4808158Y-905246D01*
X4808158Y-905246D02*
X4808158Y-895722D01*
X4808158Y-895722D02*
X4817682Y-876674D01*
X4817682Y-876674D02*
X4836730Y-867150D01*
X4836730Y-867150D02*
X4865301Y-867150D01*
X4865301Y-867150D02*
X4884349Y-876674D01*
X4960539Y-1076674D02*
X4970063Y-1067150D01*
X4970063Y-1067150D02*
X4989111Y-1038579D01*
X4989111Y-1038579D02*
X4998634Y-1019531D01*
X4998634Y-1019531D02*
X5008158Y-990960D01*
X5008158Y-990960D02*
X5017682Y-943341D01*
X5017682Y-943341D02*
X5017682Y-905246D01*
X5017682Y-905246D02*
X5008158Y-857627D01*
X5008158Y-857627D02*
X4998634Y-829055D01*
X4998634Y-829055D02*
X4989111Y-810008D01*
X4989111Y-810008D02*
X4970063Y-781436D01*
X4970063Y-781436D02*
X4960539Y-771912D01*
D14*
X-35000Y-1143000D02*
X-35000Y-1203000D01*
X-65000Y-1173000D02*
X-5000Y-1173000D01*
D11*
X293872Y-1064484D02*
X312920Y-1064484D01*
X312920Y-1064484D02*
X331967Y-1074008D01*
X331967Y-1074008D02*
X341491Y-1083531D01*
X341491Y-1083531D02*
X351015Y-1102579D01*
X351015Y-1102579D02*
X360539Y-1140674D01*
X360539Y-1140674D02*
X360539Y-1188293D01*
X360539Y-1188293D02*
X351015Y-1226389D01*
X351015Y-1226389D02*
X341491Y-1245436D01*
X341491Y-1245436D02*
X331967Y-1254960D01*
X331967Y-1254960D02*
X312920Y-1264484D01*
X312920Y-1264484D02*
X293872Y-1264484D01*
X293872Y-1264484D02*
X274824Y-1254960D01*
X274824Y-1254960D02*
X265301Y-1245436D01*
X265301Y-1245436D02*
X255777Y-1226389D01*
X255777Y-1226389D02*
X246253Y-1188293D01*
X246253Y-1188293D02*
X246253Y-1140674D01*
X246253Y-1140674D02*
X255777Y-1102579D01*
X255777Y-1102579D02*
X265301Y-1083531D01*
X265301Y-1083531D02*
X274824Y-1074008D01*
X274824Y-1074008D02*
X293872Y-1064484D01*
X446253Y-1245436D02*
X455777Y-1254960D01*
X455777Y-1254960D02*
X446253Y-1264484D01*
X446253Y-1264484D02*
X436729Y-1254960D01*
X436729Y-1254960D02*
X446253Y-1245436D01*
X446253Y-1245436D02*
X446253Y-1264484D01*
X627205Y-1064484D02*
X589110Y-1064484D01*
X589110Y-1064484D02*
X570063Y-1074008D01*
X570063Y-1074008D02*
X560539Y-1083531D01*
X560539Y-1083531D02*
X541491Y-1112103D01*
X541491Y-1112103D02*
X531967Y-1150198D01*
X531967Y-1150198D02*
X531967Y-1226389D01*
X531967Y-1226389D02*
X541491Y-1245436D01*
X541491Y-1245436D02*
X551015Y-1254960D01*
X551015Y-1254960D02*
X570063Y-1264484D01*
X570063Y-1264484D02*
X608158Y-1264484D01*
X608158Y-1264484D02*
X627205Y-1254960D01*
X627205Y-1254960D02*
X636729Y-1245436D01*
X636729Y-1245436D02*
X646253Y-1226389D01*
X646253Y-1226389D02*
X646253Y-1178770D01*
X646253Y-1178770D02*
X636729Y-1159722D01*
X636729Y-1159722D02*
X627205Y-1150198D01*
X627205Y-1150198D02*
X608158Y-1140674D01*
X608158Y-1140674D02*
X570063Y-1140674D01*
X570063Y-1140674D02*
X551015Y-1150198D01*
X551015Y-1150198D02*
X541491Y-1159722D01*
X541491Y-1159722D02*
X531967Y-1178770D01*
X770062Y-1064484D02*
X789110Y-1064484D01*
X789110Y-1064484D02*
X808158Y-1074008D01*
X808158Y-1074008D02*
X817682Y-1083531D01*
X817682Y-1083531D02*
X827205Y-1102579D01*
X827205Y-1102579D02*
X836729Y-1140674D01*
X836729Y-1140674D02*
X836729Y-1188293D01*
X836729Y-1188293D02*
X827205Y-1226389D01*
X827205Y-1226389D02*
X817682Y-1245436D01*
X817682Y-1245436D02*
X808158Y-1254960D01*
X808158Y-1254960D02*
X789110Y-1264484D01*
X789110Y-1264484D02*
X770062Y-1264484D01*
X770062Y-1264484D02*
X751015Y-1254960D01*
X751015Y-1254960D02*
X741491Y-1245436D01*
X741491Y-1245436D02*
X731967Y-1226389D01*
X731967Y-1226389D02*
X722443Y-1188293D01*
X722443Y-1188293D02*
X722443Y-1140674D01*
X722443Y-1140674D02*
X731967Y-1102579D01*
X731967Y-1102579D02*
X741491Y-1083531D01*
X741491Y-1083531D02*
X751015Y-1074008D01*
X751015Y-1074008D02*
X770062Y-1064484D01*
X960539Y-1064484D02*
X979586Y-1064484D01*
X979586Y-1064484D02*
X998634Y-1074008D01*
X998634Y-1074008D02*
X1008158Y-1083531D01*
X1008158Y-1083531D02*
X1017682Y-1102579D01*
X1017682Y-1102579D02*
X1027205Y-1140674D01*
X1027205Y-1140674D02*
X1027205Y-1188293D01*
X1027205Y-1188293D02*
X1017682Y-1226389D01*
X1017682Y-1226389D02*
X1008158Y-1245436D01*
X1008158Y-1245436D02*
X998634Y-1254960D01*
X998634Y-1254960D02*
X979586Y-1264484D01*
X979586Y-1264484D02*
X960539Y-1264484D01*
X960539Y-1264484D02*
X941491Y-1254960D01*
X941491Y-1254960D02*
X931967Y-1245436D01*
X931967Y-1245436D02*
X922443Y-1226389D01*
X922443Y-1226389D02*
X912920Y-1188293D01*
X912920Y-1188293D02*
X912920Y-1140674D01*
X912920Y-1140674D02*
X922443Y-1102579D01*
X922443Y-1102579D02*
X931967Y-1083531D01*
X931967Y-1083531D02*
X941491Y-1074008D01*
X941491Y-1074008D02*
X960539Y-1064484D01*
X1112920Y-1264484D02*
X1112920Y-1131150D01*
X1112920Y-1150198D02*
X1122444Y-1140674D01*
X1122444Y-1140674D02*
X1141491Y-1131150D01*
X1141491Y-1131150D02*
X1170063Y-1131150D01*
X1170063Y-1131150D02*
X1189110Y-1140674D01*
X1189110Y-1140674D02*
X1198634Y-1159722D01*
X1198634Y-1159722D02*
X1198634Y-1264484D01*
X1198634Y-1159722D02*
X1208158Y-1140674D01*
X1208158Y-1140674D02*
X1227205Y-1131150D01*
X1227205Y-1131150D02*
X1255777Y-1131150D01*
X1255777Y-1131150D02*
X1274825Y-1140674D01*
X1274825Y-1140674D02*
X1284348Y-1159722D01*
X1284348Y-1159722D02*
X1284348Y-1264484D01*
X1379586Y-1264484D02*
X1379586Y-1131150D01*
X1379586Y-1150198D02*
X1389110Y-1140674D01*
X1389110Y-1140674D02*
X1408158Y-1131150D01*
X1408158Y-1131150D02*
X1436729Y-1131150D01*
X1436729Y-1131150D02*
X1455777Y-1140674D01*
X1455777Y-1140674D02*
X1465301Y-1159722D01*
X1465301Y-1159722D02*
X1465301Y-1264484D01*
X1465301Y-1159722D02*
X1474824Y-1140674D01*
X1474824Y-1140674D02*
X1493872Y-1131150D01*
X1493872Y-1131150D02*
X1522443Y-1131150D01*
X1522443Y-1131150D02*
X1541491Y-1140674D01*
X1541491Y-1140674D02*
X1551015Y-1159722D01*
X1551015Y-1159722D02*
X1551015Y-1264484D01*
X1941491Y-1054960D02*
X1770063Y-1312103D01*
X2198634Y-1064484D02*
X2217682Y-1064484D01*
X2217682Y-1064484D02*
X2236729Y-1074008D01*
X2236729Y-1074008D02*
X2246253Y-1083531D01*
X2246253Y-1083531D02*
X2255777Y-1102579D01*
X2255777Y-1102579D02*
X2265301Y-1140674D01*
X2265301Y-1140674D02*
X2265301Y-1188293D01*
X2265301Y-1188293D02*
X2255777Y-1226389D01*
X2255777Y-1226389D02*
X2246253Y-1245436D01*
X2246253Y-1245436D02*
X2236729Y-1254960D01*
X2236729Y-1254960D02*
X2217682Y-1264484D01*
X2217682Y-1264484D02*
X2198634Y-1264484D01*
X2198634Y-1264484D02*
X2179587Y-1254960D01*
X2179587Y-1254960D02*
X2170063Y-1245436D01*
X2170063Y-1245436D02*
X2160539Y-1226389D01*
X2160539Y-1226389D02*
X2151015Y-1188293D01*
X2151015Y-1188293D02*
X2151015Y-1140674D01*
X2151015Y-1140674D02*
X2160539Y-1102579D01*
X2160539Y-1102579D02*
X2170063Y-1083531D01*
X2170063Y-1083531D02*
X2179587Y-1074008D01*
X2179587Y-1074008D02*
X2198634Y-1064484D01*
X2351015Y-1245436D02*
X2360539Y-1254960D01*
X2360539Y-1254960D02*
X2351015Y-1264484D01*
X2351015Y-1264484D02*
X2341491Y-1254960D01*
X2341491Y-1254960D02*
X2351015Y-1245436D01*
X2351015Y-1245436D02*
X2351015Y-1264484D01*
X2484348Y-1064484D02*
X2503396Y-1064484D01*
X2503396Y-1064484D02*
X2522444Y-1074008D01*
X2522444Y-1074008D02*
X2531968Y-1083531D01*
X2531968Y-1083531D02*
X2541491Y-1102579D01*
X2541491Y-1102579D02*
X2551015Y-1140674D01*
X2551015Y-1140674D02*
X2551015Y-1188293D01*
X2551015Y-1188293D02*
X2541491Y-1226389D01*
X2541491Y-1226389D02*
X2531968Y-1245436D01*
X2531968Y-1245436D02*
X2522444Y-1254960D01*
X2522444Y-1254960D02*
X2503396Y-1264484D01*
X2503396Y-1264484D02*
X2484348Y-1264484D01*
X2484348Y-1264484D02*
X2465301Y-1254960D01*
X2465301Y-1254960D02*
X2455777Y-1245436D01*
X2455777Y-1245436D02*
X2446253Y-1226389D01*
X2446253Y-1226389D02*
X2436729Y-1188293D01*
X2436729Y-1188293D02*
X2436729Y-1140674D01*
X2436729Y-1140674D02*
X2446253Y-1102579D01*
X2446253Y-1102579D02*
X2455777Y-1083531D01*
X2455777Y-1083531D02*
X2465301Y-1074008D01*
X2465301Y-1074008D02*
X2484348Y-1064484D01*
X2627206Y-1083531D02*
X2636729Y-1074008D01*
X2636729Y-1074008D02*
X2655777Y-1064484D01*
X2655777Y-1064484D02*
X2703396Y-1064484D01*
X2703396Y-1064484D02*
X2722444Y-1074008D01*
X2722444Y-1074008D02*
X2731968Y-1083531D01*
X2731968Y-1083531D02*
X2741491Y-1102579D01*
X2741491Y-1102579D02*
X2741491Y-1121627D01*
X2741491Y-1121627D02*
X2731968Y-1150198D01*
X2731968Y-1150198D02*
X2617682Y-1264484D01*
X2617682Y-1264484D02*
X2741491Y-1264484D01*
X2808158Y-1064484D02*
X2931967Y-1064484D01*
X2931967Y-1064484D02*
X2865301Y-1140674D01*
X2865301Y-1140674D02*
X2893872Y-1140674D01*
X2893872Y-1140674D02*
X2912920Y-1150198D01*
X2912920Y-1150198D02*
X2922444Y-1159722D01*
X2922444Y-1159722D02*
X2931967Y-1178770D01*
X2931967Y-1178770D02*
X2931967Y-1226389D01*
X2931967Y-1226389D02*
X2922444Y-1245436D01*
X2922444Y-1245436D02*
X2912920Y-1254960D01*
X2912920Y-1254960D02*
X2893872Y-1264484D01*
X2893872Y-1264484D02*
X2836729Y-1264484D01*
X2836729Y-1264484D02*
X2817682Y-1254960D01*
X2817682Y-1254960D02*
X2808158Y-1245436D01*
X3103396Y-1064484D02*
X3065301Y-1064484D01*
X3065301Y-1064484D02*
X3046253Y-1074008D01*
X3046253Y-1074008D02*
X3036729Y-1083531D01*
X3036729Y-1083531D02*
X3017682Y-1112103D01*
X3017682Y-1112103D02*
X3008158Y-1150198D01*
X3008158Y-1150198D02*
X3008158Y-1226389D01*
X3008158Y-1226389D02*
X3017682Y-1245436D01*
X3017682Y-1245436D02*
X3027206Y-1254960D01*
X3027206Y-1254960D02*
X3046253Y-1264484D01*
X3046253Y-1264484D02*
X3084348Y-1264484D01*
X3084348Y-1264484D02*
X3103396Y-1254960D01*
X3103396Y-1254960D02*
X3112920Y-1245436D01*
X3112920Y-1245436D02*
X3122444Y-1226389D01*
X3122444Y-1226389D02*
X3122444Y-1178770D01*
X3122444Y-1178770D02*
X3112920Y-1159722D01*
X3112920Y-1159722D02*
X3103396Y-1150198D01*
X3103396Y-1150198D02*
X3084348Y-1140674D01*
X3084348Y-1140674D02*
X3046253Y-1140674D01*
X3046253Y-1140674D02*
X3027206Y-1150198D01*
X3027206Y-1150198D02*
X3017682Y-1159722D01*
X3017682Y-1159722D02*
X3008158Y-1178770D01*
X3198634Y-1064484D02*
X3198634Y-1102579D01*
X3274825Y-1064484D02*
X3274825Y-1102579D01*
X3570063Y-1340674D02*
X3560539Y-1331150D01*
X3560539Y-1331150D02*
X3541491Y-1302579D01*
X3541491Y-1302579D02*
X3531968Y-1283531D01*
X3531968Y-1283531D02*
X3522444Y-1254960D01*
X3522444Y-1254960D02*
X3512920Y-1207341D01*
X3512920Y-1207341D02*
X3512920Y-1169246D01*
X3512920Y-1169246D02*
X3522444Y-1121627D01*
X3522444Y-1121627D02*
X3531968Y-1093055D01*
X3531968Y-1093055D02*
X3541491Y-1074008D01*
X3541491Y-1074008D02*
X3560539Y-1045436D01*
X3560539Y-1045436D02*
X3570063Y-1035912D01*
X3751015Y-1264484D02*
X3636729Y-1264484D01*
X3693872Y-1264484D02*
X3693872Y-1064484D01*
X3693872Y-1064484D02*
X3674825Y-1093055D01*
X3674825Y-1093055D02*
X3655777Y-1112103D01*
X3655777Y-1112103D02*
X3636729Y-1121627D01*
X3989110Y-1264484D02*
X3989110Y-1064484D01*
X4074825Y-1264484D02*
X4074825Y-1159722D01*
X4074825Y-1159722D02*
X4065301Y-1140674D01*
X4065301Y-1140674D02*
X4046253Y-1131150D01*
X4046253Y-1131150D02*
X4017682Y-1131150D01*
X4017682Y-1131150D02*
X3998634Y-1140674D01*
X3998634Y-1140674D02*
X3989110Y-1150198D01*
X4198634Y-1264484D02*
X4179587Y-1254960D01*
X4179587Y-1254960D02*
X4170063Y-1245436D01*
X4170063Y-1245436D02*
X4160539Y-1226389D01*
X4160539Y-1226389D02*
X4160539Y-1169246D01*
X4160539Y-1169246D02*
X4170063Y-1150198D01*
X4170063Y-1150198D02*
X4179587Y-1140674D01*
X4179587Y-1140674D02*
X4198634Y-1131150D01*
X4198634Y-1131150D02*
X4227206Y-1131150D01*
X4227206Y-1131150D02*
X4246253Y-1140674D01*
X4246253Y-1140674D02*
X4255777Y-1150198D01*
X4255777Y-1150198D02*
X4265301Y-1169246D01*
X4265301Y-1169246D02*
X4265301Y-1226389D01*
X4265301Y-1226389D02*
X4255777Y-1245436D01*
X4255777Y-1245436D02*
X4246253Y-1254960D01*
X4246253Y-1254960D02*
X4227206Y-1264484D01*
X4227206Y-1264484D02*
X4198634Y-1264484D01*
X4379587Y-1264484D02*
X4360539Y-1254960D01*
X4360539Y-1254960D02*
X4351015Y-1235912D01*
X4351015Y-1235912D02*
X4351015Y-1064484D01*
X4531968Y-1254960D02*
X4512920Y-1264484D01*
X4512920Y-1264484D02*
X4474825Y-1264484D01*
X4474825Y-1264484D02*
X4455777Y-1254960D01*
X4455777Y-1254960D02*
X4446253Y-1235912D01*
X4446253Y-1235912D02*
X4446253Y-1159722D01*
X4446253Y-1159722D02*
X4455777Y-1140674D01*
X4455777Y-1140674D02*
X4474825Y-1131150D01*
X4474825Y-1131150D02*
X4512920Y-1131150D01*
X4512920Y-1131150D02*
X4531968Y-1140674D01*
X4531968Y-1140674D02*
X4541492Y-1159722D01*
X4541492Y-1159722D02*
X4541492Y-1178770D01*
X4541492Y-1178770D02*
X4446253Y-1197817D01*
X4608158Y-1340674D02*
X4617682Y-1331150D01*
X4617682Y-1331150D02*
X4636730Y-1302579D01*
X4636730Y-1302579D02*
X4646253Y-1283531D01*
X4646253Y-1283531D02*
X4655777Y-1254960D01*
X4655777Y-1254960D02*
X4665301Y-1207341D01*
X4665301Y-1207341D02*
X4665301Y-1169246D01*
X4665301Y-1169246D02*
X4655777Y-1121627D01*
X4655777Y-1121627D02*
X4646253Y-1093055D01*
X4646253Y-1093055D02*
X4636730Y-1074008D01*
X4636730Y-1074008D02*
X4617682Y-1045436D01*
X4617682Y-1045436D02*
X4608158Y-1035912D01*
D15*
X-14519Y-1459981D02*
X-14519Y-1414019D01*
X-60481Y-1414019D01*
X-60481Y-1459981D01*
X-14519Y-1459981D01*
D11*
X293872Y-1328484D02*
X312920Y-1328484D01*
X312920Y-1328484D02*
X331967Y-1338008D01*
X331967Y-1338008D02*
X341491Y-1347531D01*
X341491Y-1347531D02*
X351015Y-1366579D01*
X351015Y-1366579D02*
X360539Y-1404674D01*
X360539Y-1404674D02*
X360539Y-1452293D01*
X360539Y-1452293D02*
X351015Y-1490388D01*
X351015Y-1490388D02*
X341491Y-1509436D01*
X341491Y-1509436D02*
X331967Y-1518960D01*
X331967Y-1518960D02*
X312920Y-1528484D01*
X312920Y-1528484D02*
X293872Y-1528484D01*
X293872Y-1528484D02*
X274824Y-1518960D01*
X274824Y-1518960D02*
X265301Y-1509436D01*
X265301Y-1509436D02*
X255777Y-1490388D01*
X255777Y-1490388D02*
X246253Y-1452293D01*
X246253Y-1452293D02*
X246253Y-1404674D01*
X246253Y-1404674D02*
X255777Y-1366579D01*
X255777Y-1366579D02*
X265301Y-1347531D01*
X265301Y-1347531D02*
X274824Y-1338008D01*
X274824Y-1338008D02*
X293872Y-1328484D01*
X446253Y-1509436D02*
X455777Y-1518960D01*
X455777Y-1518960D02*
X446253Y-1528484D01*
X446253Y-1528484D02*
X436729Y-1518960D01*
X436729Y-1518960D02*
X446253Y-1509436D01*
X446253Y-1509436D02*
X446253Y-1528484D01*
X627205Y-1328484D02*
X589110Y-1328484D01*
X589110Y-1328484D02*
X570063Y-1338008D01*
X570063Y-1338008D02*
X560539Y-1347531D01*
X560539Y-1347531D02*
X541491Y-1376103D01*
X541491Y-1376103D02*
X531967Y-1414198D01*
X531967Y-1414198D02*
X531967Y-1490388D01*
X531967Y-1490388D02*
X541491Y-1509436D01*
X541491Y-1509436D02*
X551015Y-1518960D01*
X551015Y-1518960D02*
X570063Y-1528484D01*
X570063Y-1528484D02*
X608158Y-1528484D01*
X608158Y-1528484D02*
X627205Y-1518960D01*
X627205Y-1518960D02*
X636729Y-1509436D01*
X636729Y-1509436D02*
X646253Y-1490388D01*
X646253Y-1490388D02*
X646253Y-1442769D01*
X646253Y-1442769D02*
X636729Y-1423722D01*
X636729Y-1423722D02*
X627205Y-1414198D01*
X627205Y-1414198D02*
X608158Y-1404674D01*
X608158Y-1404674D02*
X570063Y-1404674D01*
X570063Y-1404674D02*
X551015Y-1414198D01*
X551015Y-1414198D02*
X541491Y-1423722D01*
X541491Y-1423722D02*
X531967Y-1442769D01*
X827205Y-1328484D02*
X731967Y-1328484D01*
X731967Y-1328484D02*
X722443Y-1423722D01*
X722443Y-1423722D02*
X731967Y-1414198D01*
X731967Y-1414198D02*
X751015Y-1404674D01*
X751015Y-1404674D02*
X798634Y-1404674D01*
X798634Y-1404674D02*
X817682Y-1414198D01*
X817682Y-1414198D02*
X827205Y-1423722D01*
X827205Y-1423722D02*
X836729Y-1442769D01*
X836729Y-1442769D02*
X836729Y-1490388D01*
X836729Y-1490388D02*
X827205Y-1509436D01*
X827205Y-1509436D02*
X817682Y-1518960D01*
X817682Y-1518960D02*
X798634Y-1528484D01*
X798634Y-1528484D02*
X751015Y-1528484D01*
X751015Y-1528484D02*
X731967Y-1518960D01*
X731967Y-1518960D02*
X722443Y-1509436D01*
X960539Y-1328484D02*
X979586Y-1328484D01*
X979586Y-1328484D02*
X998634Y-1338008D01*
X998634Y-1338008D02*
X1008158Y-1347531D01*
X1008158Y-1347531D02*
X1017682Y-1366579D01*
X1017682Y-1366579D02*
X1027205Y-1404674D01*
X1027205Y-1404674D02*
X1027205Y-1452293D01*
X1027205Y-1452293D02*
X1017682Y-1490388D01*
X1017682Y-1490388D02*
X1008158Y-1509436D01*
X1008158Y-1509436D02*
X998634Y-1518960D01*
X998634Y-1518960D02*
X979586Y-1528484D01*
X979586Y-1528484D02*
X960539Y-1528484D01*
X960539Y-1528484D02*
X941491Y-1518960D01*
X941491Y-1518960D02*
X931967Y-1509436D01*
X931967Y-1509436D02*
X922443Y-1490388D01*
X922443Y-1490388D02*
X912920Y-1452293D01*
X912920Y-1452293D02*
X912920Y-1404674D01*
X912920Y-1404674D02*
X922443Y-1366579D01*
X922443Y-1366579D02*
X931967Y-1347531D01*
X931967Y-1347531D02*
X941491Y-1338008D01*
X941491Y-1338008D02*
X960539Y-1328484D01*
X1112920Y-1528484D02*
X1112920Y-1395150D01*
X1112920Y-1414198D02*
X1122444Y-1404674D01*
X1122444Y-1404674D02*
X1141491Y-1395150D01*
X1141491Y-1395150D02*
X1170063Y-1395150D01*
X1170063Y-1395150D02*
X1189110Y-1404674D01*
X1189110Y-1404674D02*
X1198634Y-1423722D01*
X1198634Y-1423722D02*
X1198634Y-1528484D01*
X1198634Y-1423722D02*
X1208158Y-1404674D01*
X1208158Y-1404674D02*
X1227205Y-1395150D01*
X1227205Y-1395150D02*
X1255777Y-1395150D01*
X1255777Y-1395150D02*
X1274825Y-1404674D01*
X1274825Y-1404674D02*
X1284348Y-1423722D01*
X1284348Y-1423722D02*
X1284348Y-1528484D01*
X1379586Y-1528484D02*
X1379586Y-1395150D01*
X1379586Y-1414198D02*
X1389110Y-1404674D01*
X1389110Y-1404674D02*
X1408158Y-1395150D01*
X1408158Y-1395150D02*
X1436729Y-1395150D01*
X1436729Y-1395150D02*
X1455777Y-1404674D01*
X1455777Y-1404674D02*
X1465301Y-1423722D01*
X1465301Y-1423722D02*
X1465301Y-1528484D01*
X1465301Y-1423722D02*
X1474824Y-1404674D01*
X1474824Y-1404674D02*
X1493872Y-1395150D01*
X1493872Y-1395150D02*
X1522443Y-1395150D01*
X1522443Y-1395150D02*
X1541491Y-1404674D01*
X1541491Y-1404674D02*
X1551015Y-1423722D01*
X1551015Y-1423722D02*
X1551015Y-1528484D01*
X1941491Y-1318960D02*
X1770063Y-1576103D01*
X2198634Y-1328484D02*
X2217682Y-1328484D01*
X2217682Y-1328484D02*
X2236729Y-1338008D01*
X2236729Y-1338008D02*
X2246253Y-1347531D01*
X2246253Y-1347531D02*
X2255777Y-1366579D01*
X2255777Y-1366579D02*
X2265301Y-1404674D01*
X2265301Y-1404674D02*
X2265301Y-1452293D01*
X2265301Y-1452293D02*
X2255777Y-1490388D01*
X2255777Y-1490388D02*
X2246253Y-1509436D01*
X2246253Y-1509436D02*
X2236729Y-1518960D01*
X2236729Y-1518960D02*
X2217682Y-1528484D01*
X2217682Y-1528484D02*
X2198634Y-1528484D01*
X2198634Y-1528484D02*
X2179587Y-1518960D01*
X2179587Y-1518960D02*
X2170063Y-1509436D01*
X2170063Y-1509436D02*
X2160539Y-1490388D01*
X2160539Y-1490388D02*
X2151015Y-1452293D01*
X2151015Y-1452293D02*
X2151015Y-1404674D01*
X2151015Y-1404674D02*
X2160539Y-1366579D01*
X2160539Y-1366579D02*
X2170063Y-1347531D01*
X2170063Y-1347531D02*
X2179587Y-1338008D01*
X2179587Y-1338008D02*
X2198634Y-1328484D01*
X2351015Y-1509436D02*
X2360539Y-1518960D01*
X2360539Y-1518960D02*
X2351015Y-1528484D01*
X2351015Y-1528484D02*
X2341491Y-1518960D01*
X2341491Y-1518960D02*
X2351015Y-1509436D01*
X2351015Y-1509436D02*
X2351015Y-1528484D01*
X2484348Y-1328484D02*
X2503396Y-1328484D01*
X2503396Y-1328484D02*
X2522444Y-1338008D01*
X2522444Y-1338008D02*
X2531968Y-1347531D01*
X2531968Y-1347531D02*
X2541491Y-1366579D01*
X2541491Y-1366579D02*
X2551015Y-1404674D01*
X2551015Y-1404674D02*
X2551015Y-1452293D01*
X2551015Y-1452293D02*
X2541491Y-1490388D01*
X2541491Y-1490388D02*
X2531968Y-1509436D01*
X2531968Y-1509436D02*
X2522444Y-1518960D01*
X2522444Y-1518960D02*
X2503396Y-1528484D01*
X2503396Y-1528484D02*
X2484348Y-1528484D01*
X2484348Y-1528484D02*
X2465301Y-1518960D01*
X2465301Y-1518960D02*
X2455777Y-1509436D01*
X2455777Y-1509436D02*
X2446253Y-1490388D01*
X2446253Y-1490388D02*
X2436729Y-1452293D01*
X2436729Y-1452293D02*
X2436729Y-1404674D01*
X2436729Y-1404674D02*
X2446253Y-1366579D01*
X2446253Y-1366579D02*
X2455777Y-1347531D01*
X2455777Y-1347531D02*
X2465301Y-1338008D01*
X2465301Y-1338008D02*
X2484348Y-1328484D01*
X2627206Y-1347531D02*
X2636729Y-1338008D01*
X2636729Y-1338008D02*
X2655777Y-1328484D01*
X2655777Y-1328484D02*
X2703396Y-1328484D01*
X2703396Y-1328484D02*
X2722444Y-1338008D01*
X2722444Y-1338008D02*
X2731968Y-1347531D01*
X2731968Y-1347531D02*
X2741491Y-1366579D01*
X2741491Y-1366579D02*
X2741491Y-1385627D01*
X2741491Y-1385627D02*
X2731968Y-1414198D01*
X2731968Y-1414198D02*
X2617682Y-1528484D01*
X2617682Y-1528484D02*
X2741491Y-1528484D01*
X2922444Y-1328484D02*
X2827206Y-1328484D01*
X2827206Y-1328484D02*
X2817682Y-1423722D01*
X2817682Y-1423722D02*
X2827206Y-1414198D01*
X2827206Y-1414198D02*
X2846253Y-1404674D01*
X2846253Y-1404674D02*
X2893872Y-1404674D01*
X2893872Y-1404674D02*
X2912920Y-1414198D01*
X2912920Y-1414198D02*
X2922444Y-1423722D01*
X2922444Y-1423722D02*
X2931967Y-1442769D01*
X2931967Y-1442769D02*
X2931967Y-1490388D01*
X2931967Y-1490388D02*
X2922444Y-1509436D01*
X2922444Y-1509436D02*
X2912920Y-1518960D01*
X2912920Y-1518960D02*
X2893872Y-1528484D01*
X2893872Y-1528484D02*
X2846253Y-1528484D01*
X2846253Y-1528484D02*
X2827206Y-1518960D01*
X2827206Y-1518960D02*
X2817682Y-1509436D01*
X3103396Y-1328484D02*
X3065301Y-1328484D01*
X3065301Y-1328484D02*
X3046253Y-1338008D01*
X3046253Y-1338008D02*
X3036729Y-1347531D01*
X3036729Y-1347531D02*
X3017682Y-1376103D01*
X3017682Y-1376103D02*
X3008158Y-1414198D01*
X3008158Y-1414198D02*
X3008158Y-1490388D01*
X3008158Y-1490388D02*
X3017682Y-1509436D01*
X3017682Y-1509436D02*
X3027206Y-1518960D01*
X3027206Y-1518960D02*
X3046253Y-1528484D01*
X3046253Y-1528484D02*
X3084348Y-1528484D01*
X3084348Y-1528484D02*
X3103396Y-1518960D01*
X3103396Y-1518960D02*
X3112920Y-1509436D01*
X3112920Y-1509436D02*
X3122444Y-1490388D01*
X3122444Y-1490388D02*
X3122444Y-1442769D01*
X3122444Y-1442769D02*
X3112920Y-1423722D01*
X3112920Y-1423722D02*
X3103396Y-1414198D01*
X3103396Y-1414198D02*
X3084348Y-1404674D01*
X3084348Y-1404674D02*
X3046253Y-1404674D01*
X3046253Y-1404674D02*
X3027206Y-1414198D01*
X3027206Y-1414198D02*
X3017682Y-1423722D01*
X3017682Y-1423722D02*
X3008158Y-1442769D01*
X3198634Y-1328484D02*
X3198634Y-1366579D01*
X3274825Y-1328484D02*
X3274825Y-1366579D01*
X3570063Y-1604674D02*
X3560539Y-1595150D01*
X3560539Y-1595150D02*
X3541491Y-1566579D01*
X3541491Y-1566579D02*
X3531968Y-1547531D01*
X3531968Y-1547531D02*
X3522444Y-1518960D01*
X3522444Y-1518960D02*
X3512920Y-1471341D01*
X3512920Y-1471341D02*
X3512920Y-1433246D01*
X3512920Y-1433246D02*
X3522444Y-1385627D01*
X3522444Y-1385627D02*
X3531968Y-1357055D01*
X3531968Y-1357055D02*
X3541491Y-1338008D01*
X3541491Y-1338008D02*
X3560539Y-1309436D01*
X3560539Y-1309436D02*
X3570063Y-1299912D01*
X3627206Y-1328484D02*
X3751015Y-1328484D01*
X3751015Y-1328484D02*
X3684348Y-1404674D01*
X3684348Y-1404674D02*
X3712920Y-1404674D01*
X3712920Y-1404674D02*
X3731968Y-1414198D01*
X3731968Y-1414198D02*
X3741491Y-1423722D01*
X3741491Y-1423722D02*
X3751015Y-1442769D01*
X3751015Y-1442769D02*
X3751015Y-1490388D01*
X3751015Y-1490388D02*
X3741491Y-1509436D01*
X3741491Y-1509436D02*
X3731968Y-1518960D01*
X3731968Y-1518960D02*
X3712920Y-1528484D01*
X3712920Y-1528484D02*
X3655777Y-1528484D01*
X3655777Y-1528484D02*
X3636729Y-1518960D01*
X3636729Y-1518960D02*
X3627206Y-1509436D01*
X3989110Y-1528484D02*
X3989110Y-1328484D01*
X4074825Y-1528484D02*
X4074825Y-1423722D01*
X4074825Y-1423722D02*
X4065301Y-1404674D01*
X4065301Y-1404674D02*
X4046253Y-1395150D01*
X4046253Y-1395150D02*
X4017682Y-1395150D01*
X4017682Y-1395150D02*
X3998634Y-1404674D01*
X3998634Y-1404674D02*
X3989110Y-1414198D01*
X4198634Y-1528484D02*
X4179587Y-1518960D01*
X4179587Y-1518960D02*
X4170063Y-1509436D01*
X4170063Y-1509436D02*
X4160539Y-1490388D01*
X4160539Y-1490388D02*
X4160539Y-1433246D01*
X4160539Y-1433246D02*
X4170063Y-1414198D01*
X4170063Y-1414198D02*
X4179587Y-1404674D01*
X4179587Y-1404674D02*
X4198634Y-1395150D01*
X4198634Y-1395150D02*
X4227206Y-1395150D01*
X4227206Y-1395150D02*
X4246253Y-1404674D01*
X4246253Y-1404674D02*
X4255777Y-1414198D01*
X4255777Y-1414198D02*
X4265301Y-1433246D01*
X4265301Y-1433246D02*
X4265301Y-1490388D01*
X4265301Y-1490388D02*
X4255777Y-1509436D01*
X4255777Y-1509436D02*
X4246253Y-1518960D01*
X4246253Y-1518960D02*
X4227206Y-1528484D01*
X4227206Y-1528484D02*
X4198634Y-1528484D01*
X4379587Y-1528484D02*
X4360539Y-1518960D01*
X4360539Y-1518960D02*
X4351015Y-1499912D01*
X4351015Y-1499912D02*
X4351015Y-1328484D01*
X4531968Y-1518960D02*
X4512920Y-1528484D01*
X4512920Y-1528484D02*
X4474825Y-1528484D01*
X4474825Y-1528484D02*
X4455777Y-1518960D01*
X4455777Y-1518960D02*
X4446253Y-1499912D01*
X4446253Y-1499912D02*
X4446253Y-1423722D01*
X4446253Y-1423722D02*
X4455777Y-1404674D01*
X4455777Y-1404674D02*
X4474825Y-1395150D01*
X4474825Y-1395150D02*
X4512920Y-1395150D01*
X4512920Y-1395150D02*
X4531968Y-1404674D01*
X4531968Y-1404674D02*
X4541492Y-1423722D01*
X4541492Y-1423722D02*
X4541492Y-1442769D01*
X4541492Y-1442769D02*
X4446253Y-1461817D01*
X4617682Y-1518960D02*
X4636730Y-1528484D01*
X4636730Y-1528484D02*
X4674825Y-1528484D01*
X4674825Y-1528484D02*
X4693873Y-1518960D01*
X4693873Y-1518960D02*
X4703396Y-1499912D01*
X4703396Y-1499912D02*
X4703396Y-1490388D01*
X4703396Y-1490388D02*
X4693873Y-1471341D01*
X4693873Y-1471341D02*
X4674825Y-1461817D01*
X4674825Y-1461817D02*
X4646253Y-1461817D01*
X4646253Y-1461817D02*
X4627206Y-1452293D01*
X4627206Y-1452293D02*
X4617682Y-1433246D01*
X4617682Y-1433246D02*
X4617682Y-1423722D01*
X4617682Y-1423722D02*
X4627206Y-1404674D01*
X4627206Y-1404674D02*
X4646253Y-1395150D01*
X4646253Y-1395150D02*
X4674825Y-1395150D01*
X4674825Y-1395150D02*
X4693873Y-1404674D01*
X4770063Y-1604674D02*
X4779587Y-1595150D01*
X4779587Y-1595150D02*
X4798634Y-1566579D01*
X4798634Y-1566579D02*
X4808158Y-1547531D01*
X4808158Y-1547531D02*
X4817682Y-1518960D01*
X4817682Y-1518960D02*
X4827206Y-1471341D01*
X4827206Y-1471341D02*
X4827206Y-1433246D01*
X4827206Y-1433246D02*
X4817682Y-1385627D01*
X4817682Y-1385627D02*
X4808158Y-1357055D01*
X4808158Y-1357055D02*
X4798634Y-1338008D01*
X4798634Y-1338008D02*
X4779587Y-1309436D01*
X4779587Y-1309436D02*
X4770063Y-1299912D01*
D16*
X-40000Y-1736000D02*
X-5000Y-1701000D01*
X-40000Y-1666000D01*
X-75000Y-1701000D01*
X-40000Y-1736000D01*
D11*
X293872Y-1592484D02*
X312920Y-1592484D01*
X312920Y-1592484D02*
X331967Y-1602008D01*
X331967Y-1602008D02*
X341491Y-1611531D01*
X341491Y-1611531D02*
X351015Y-1630579D01*
X351015Y-1630579D02*
X360539Y-1668674D01*
X360539Y-1668674D02*
X360539Y-1716293D01*
X360539Y-1716293D02*
X351015Y-1754388D01*
X351015Y-1754388D02*
X341491Y-1773436D01*
X341491Y-1773436D02*
X331967Y-1782960D01*
X331967Y-1782960D02*
X312920Y-1792484D01*
X312920Y-1792484D02*
X293872Y-1792484D01*
X293872Y-1792484D02*
X274824Y-1782960D01*
X274824Y-1782960D02*
X265301Y-1773436D01*
X265301Y-1773436D02*
X255777Y-1754388D01*
X255777Y-1754388D02*
X246253Y-1716293D01*
X246253Y-1716293D02*
X246253Y-1668674D01*
X246253Y-1668674D02*
X255777Y-1630579D01*
X255777Y-1630579D02*
X265301Y-1611531D01*
X265301Y-1611531D02*
X274824Y-1602008D01*
X274824Y-1602008D02*
X293872Y-1592484D01*
X446253Y-1773436D02*
X455777Y-1782960D01*
X455777Y-1782960D02*
X446253Y-1792484D01*
X446253Y-1792484D02*
X436729Y-1782960D01*
X436729Y-1782960D02*
X446253Y-1773436D01*
X446253Y-1773436D02*
X446253Y-1792484D01*
X522443Y-1592484D02*
X655777Y-1592484D01*
X655777Y-1592484D02*
X570063Y-1792484D01*
X770062Y-1592484D02*
X789110Y-1592484D01*
X789110Y-1592484D02*
X808158Y-1602008D01*
X808158Y-1602008D02*
X817682Y-1611531D01*
X817682Y-1611531D02*
X827205Y-1630579D01*
X827205Y-1630579D02*
X836729Y-1668674D01*
X836729Y-1668674D02*
X836729Y-1716293D01*
X836729Y-1716293D02*
X827205Y-1754388D01*
X827205Y-1754388D02*
X817682Y-1773436D01*
X817682Y-1773436D02*
X808158Y-1782960D01*
X808158Y-1782960D02*
X789110Y-1792484D01*
X789110Y-1792484D02*
X770062Y-1792484D01*
X770062Y-1792484D02*
X751015Y-1782960D01*
X751015Y-1782960D02*
X741491Y-1773436D01*
X741491Y-1773436D02*
X731967Y-1754388D01*
X731967Y-1754388D02*
X722443Y-1716293D01*
X722443Y-1716293D02*
X722443Y-1668674D01*
X722443Y-1668674D02*
X731967Y-1630579D01*
X731967Y-1630579D02*
X741491Y-1611531D01*
X741491Y-1611531D02*
X751015Y-1602008D01*
X751015Y-1602008D02*
X770062Y-1592484D01*
X960539Y-1592484D02*
X979586Y-1592484D01*
X979586Y-1592484D02*
X998634Y-1602008D01*
X998634Y-1602008D02*
X1008158Y-1611531D01*
X1008158Y-1611531D02*
X1017682Y-1630579D01*
X1017682Y-1630579D02*
X1027205Y-1668674D01*
X1027205Y-1668674D02*
X1027205Y-1716293D01*
X1027205Y-1716293D02*
X1017682Y-1754388D01*
X1017682Y-1754388D02*
X1008158Y-1773436D01*
X1008158Y-1773436D02*
X998634Y-1782960D01*
X998634Y-1782960D02*
X979586Y-1792484D01*
X979586Y-1792484D02*
X960539Y-1792484D01*
X960539Y-1792484D02*
X941491Y-1782960D01*
X941491Y-1782960D02*
X931967Y-1773436D01*
X931967Y-1773436D02*
X922443Y-1754388D01*
X922443Y-1754388D02*
X912920Y-1716293D01*
X912920Y-1716293D02*
X912920Y-1668674D01*
X912920Y-1668674D02*
X922443Y-1630579D01*
X922443Y-1630579D02*
X931967Y-1611531D01*
X931967Y-1611531D02*
X941491Y-1602008D01*
X941491Y-1602008D02*
X960539Y-1592484D01*
X1112920Y-1792484D02*
X1112920Y-1659150D01*
X1112920Y-1678198D02*
X1122444Y-1668674D01*
X1122444Y-1668674D02*
X1141491Y-1659150D01*
X1141491Y-1659150D02*
X1170063Y-1659150D01*
X1170063Y-1659150D02*
X1189110Y-1668674D01*
X1189110Y-1668674D02*
X1198634Y-1687722D01*
X1198634Y-1687722D02*
X1198634Y-1792484D01*
X1198634Y-1687722D02*
X1208158Y-1668674D01*
X1208158Y-1668674D02*
X1227205Y-1659150D01*
X1227205Y-1659150D02*
X1255777Y-1659150D01*
X1255777Y-1659150D02*
X1274825Y-1668674D01*
X1274825Y-1668674D02*
X1284348Y-1687722D01*
X1284348Y-1687722D02*
X1284348Y-1792484D01*
X1379586Y-1792484D02*
X1379586Y-1659150D01*
X1379586Y-1678198D02*
X1389110Y-1668674D01*
X1389110Y-1668674D02*
X1408158Y-1659150D01*
X1408158Y-1659150D02*
X1436729Y-1659150D01*
X1436729Y-1659150D02*
X1455777Y-1668674D01*
X1455777Y-1668674D02*
X1465301Y-1687722D01*
X1465301Y-1687722D02*
X1465301Y-1792484D01*
X1465301Y-1687722D02*
X1474824Y-1668674D01*
X1474824Y-1668674D02*
X1493872Y-1659150D01*
X1493872Y-1659150D02*
X1522443Y-1659150D01*
X1522443Y-1659150D02*
X1541491Y-1668674D01*
X1541491Y-1668674D02*
X1551015Y-1687722D01*
X1551015Y-1687722D02*
X1551015Y-1792484D01*
X1941491Y-1582960D02*
X1770063Y-1840103D01*
X2198634Y-1592484D02*
X2217682Y-1592484D01*
X2217682Y-1592484D02*
X2236729Y-1602008D01*
X2236729Y-1602008D02*
X2246253Y-1611531D01*
X2246253Y-1611531D02*
X2255777Y-1630579D01*
X2255777Y-1630579D02*
X2265301Y-1668674D01*
X2265301Y-1668674D02*
X2265301Y-1716293D01*
X2265301Y-1716293D02*
X2255777Y-1754388D01*
X2255777Y-1754388D02*
X2246253Y-1773436D01*
X2246253Y-1773436D02*
X2236729Y-1782960D01*
X2236729Y-1782960D02*
X2217682Y-1792484D01*
X2217682Y-1792484D02*
X2198634Y-1792484D01*
X2198634Y-1792484D02*
X2179587Y-1782960D01*
X2179587Y-1782960D02*
X2170063Y-1773436D01*
X2170063Y-1773436D02*
X2160539Y-1754388D01*
X2160539Y-1754388D02*
X2151015Y-1716293D01*
X2151015Y-1716293D02*
X2151015Y-1668674D01*
X2151015Y-1668674D02*
X2160539Y-1630579D01*
X2160539Y-1630579D02*
X2170063Y-1611531D01*
X2170063Y-1611531D02*
X2179587Y-1602008D01*
X2179587Y-1602008D02*
X2198634Y-1592484D01*
X2351015Y-1773436D02*
X2360539Y-1782960D01*
X2360539Y-1782960D02*
X2351015Y-1792484D01*
X2351015Y-1792484D02*
X2341491Y-1782960D01*
X2341491Y-1782960D02*
X2351015Y-1773436D01*
X2351015Y-1773436D02*
X2351015Y-1792484D01*
X2484348Y-1592484D02*
X2503396Y-1592484D01*
X2503396Y-1592484D02*
X2522444Y-1602008D01*
X2522444Y-1602008D02*
X2531968Y-1611531D01*
X2531968Y-1611531D02*
X2541491Y-1630579D01*
X2541491Y-1630579D02*
X2551015Y-1668674D01*
X2551015Y-1668674D02*
X2551015Y-1716293D01*
X2551015Y-1716293D02*
X2541491Y-1754388D01*
X2541491Y-1754388D02*
X2531968Y-1773436D01*
X2531968Y-1773436D02*
X2522444Y-1782960D01*
X2522444Y-1782960D02*
X2503396Y-1792484D01*
X2503396Y-1792484D02*
X2484348Y-1792484D01*
X2484348Y-1792484D02*
X2465301Y-1782960D01*
X2465301Y-1782960D02*
X2455777Y-1773436D01*
X2455777Y-1773436D02*
X2446253Y-1754388D01*
X2446253Y-1754388D02*
X2436729Y-1716293D01*
X2436729Y-1716293D02*
X2436729Y-1668674D01*
X2436729Y-1668674D02*
X2446253Y-1630579D01*
X2446253Y-1630579D02*
X2455777Y-1611531D01*
X2455777Y-1611531D02*
X2465301Y-1602008D01*
X2465301Y-1602008D02*
X2484348Y-1592484D01*
X2627206Y-1611531D02*
X2636729Y-1602008D01*
X2636729Y-1602008D02*
X2655777Y-1592484D01*
X2655777Y-1592484D02*
X2703396Y-1592484D01*
X2703396Y-1592484D02*
X2722444Y-1602008D01*
X2722444Y-1602008D02*
X2731968Y-1611531D01*
X2731968Y-1611531D02*
X2741491Y-1630579D01*
X2741491Y-1630579D02*
X2741491Y-1649627D01*
X2741491Y-1649627D02*
X2731968Y-1678198D01*
X2731968Y-1678198D02*
X2617682Y-1792484D01*
X2617682Y-1792484D02*
X2741491Y-1792484D01*
X2808158Y-1592484D02*
X2941491Y-1592484D01*
X2941491Y-1592484D02*
X2855777Y-1792484D01*
X3103396Y-1592484D02*
X3065301Y-1592484D01*
X3065301Y-1592484D02*
X3046253Y-1602008D01*
X3046253Y-1602008D02*
X3036729Y-1611531D01*
X3036729Y-1611531D02*
X3017682Y-1640103D01*
X3017682Y-1640103D02*
X3008158Y-1678198D01*
X3008158Y-1678198D02*
X3008158Y-1754388D01*
X3008158Y-1754388D02*
X3017682Y-1773436D01*
X3017682Y-1773436D02*
X3027206Y-1782960D01*
X3027206Y-1782960D02*
X3046253Y-1792484D01*
X3046253Y-1792484D02*
X3084348Y-1792484D01*
X3084348Y-1792484D02*
X3103396Y-1782960D01*
X3103396Y-1782960D02*
X3112920Y-1773436D01*
X3112920Y-1773436D02*
X3122444Y-1754388D01*
X3122444Y-1754388D02*
X3122444Y-1706769D01*
X3122444Y-1706769D02*
X3112920Y-1687722D01*
X3112920Y-1687722D02*
X3103396Y-1678198D01*
X3103396Y-1678198D02*
X3084348Y-1668674D01*
X3084348Y-1668674D02*
X3046253Y-1668674D01*
X3046253Y-1668674D02*
X3027206Y-1678198D01*
X3027206Y-1678198D02*
X3017682Y-1687722D01*
X3017682Y-1687722D02*
X3008158Y-1706769D01*
X3198634Y-1592484D02*
X3198634Y-1630579D01*
X3274825Y-1592484D02*
X3274825Y-1630579D01*
X3570063Y-1868674D02*
X3560539Y-1859150D01*
X3560539Y-1859150D02*
X3541491Y-1830579D01*
X3541491Y-1830579D02*
X3531968Y-1811531D01*
X3531968Y-1811531D02*
X3522444Y-1782960D01*
X3522444Y-1782960D02*
X3512920Y-1735341D01*
X3512920Y-1735341D02*
X3512920Y-1697246D01*
X3512920Y-1697246D02*
X3522444Y-1649627D01*
X3522444Y-1649627D02*
X3531968Y-1621055D01*
X3531968Y-1621055D02*
X3541491Y-1602008D01*
X3541491Y-1602008D02*
X3560539Y-1573436D01*
X3560539Y-1573436D02*
X3570063Y-1563912D01*
X3636729Y-1611531D02*
X3646253Y-1602008D01*
X3646253Y-1602008D02*
X3665301Y-1592484D01*
X3665301Y-1592484D02*
X3712920Y-1592484D01*
X3712920Y-1592484D02*
X3731968Y-1602008D01*
X3731968Y-1602008D02*
X3741491Y-1611531D01*
X3741491Y-1611531D02*
X3751015Y-1630579D01*
X3751015Y-1630579D02*
X3751015Y-1649627D01*
X3751015Y-1649627D02*
X3741491Y-1678198D01*
X3741491Y-1678198D02*
X3627206Y-1792484D01*
X3627206Y-1792484D02*
X3751015Y-1792484D01*
X3989110Y-1792484D02*
X3989110Y-1592484D01*
X4074825Y-1792484D02*
X4074825Y-1687722D01*
X4074825Y-1687722D02*
X4065301Y-1668674D01*
X4065301Y-1668674D02*
X4046253Y-1659150D01*
X4046253Y-1659150D02*
X4017682Y-1659150D01*
X4017682Y-1659150D02*
X3998634Y-1668674D01*
X3998634Y-1668674D02*
X3989110Y-1678198D01*
X4198634Y-1792484D02*
X4179587Y-1782960D01*
X4179587Y-1782960D02*
X4170063Y-1773436D01*
X4170063Y-1773436D02*
X4160539Y-1754388D01*
X4160539Y-1754388D02*
X4160539Y-1697246D01*
X4160539Y-1697246D02*
X4170063Y-1678198D01*
X4170063Y-1678198D02*
X4179587Y-1668674D01*
X4179587Y-1668674D02*
X4198634Y-1659150D01*
X4198634Y-1659150D02*
X4227206Y-1659150D01*
X4227206Y-1659150D02*
X4246253Y-1668674D01*
X4246253Y-1668674D02*
X4255777Y-1678198D01*
X4255777Y-1678198D02*
X4265301Y-1697246D01*
X4265301Y-1697246D02*
X4265301Y-1754388D01*
X4265301Y-1754388D02*
X4255777Y-1773436D01*
X4255777Y-1773436D02*
X4246253Y-1782960D01*
X4246253Y-1782960D02*
X4227206Y-1792484D01*
X4227206Y-1792484D02*
X4198634Y-1792484D01*
X4379587Y-1792484D02*
X4360539Y-1782960D01*
X4360539Y-1782960D02*
X4351015Y-1763912D01*
X4351015Y-1763912D02*
X4351015Y-1592484D01*
X4531968Y-1782960D02*
X4512920Y-1792484D01*
X4512920Y-1792484D02*
X4474825Y-1792484D01*
X4474825Y-1792484D02*
X4455777Y-1782960D01*
X4455777Y-1782960D02*
X4446253Y-1763912D01*
X4446253Y-1763912D02*
X4446253Y-1687722D01*
X4446253Y-1687722D02*
X4455777Y-1668674D01*
X4455777Y-1668674D02*
X4474825Y-1659150D01*
X4474825Y-1659150D02*
X4512920Y-1659150D01*
X4512920Y-1659150D02*
X4531968Y-1668674D01*
X4531968Y-1668674D02*
X4541492Y-1687722D01*
X4541492Y-1687722D02*
X4541492Y-1706769D01*
X4541492Y-1706769D02*
X4446253Y-1725817D01*
X4617682Y-1782960D02*
X4636730Y-1792484D01*
X4636730Y-1792484D02*
X4674825Y-1792484D01*
X4674825Y-1792484D02*
X4693873Y-1782960D01*
X4693873Y-1782960D02*
X4703396Y-1763912D01*
X4703396Y-1763912D02*
X4703396Y-1754388D01*
X4703396Y-1754388D02*
X4693873Y-1735341D01*
X4693873Y-1735341D02*
X4674825Y-1725817D01*
X4674825Y-1725817D02*
X4646253Y-1725817D01*
X4646253Y-1725817D02*
X4627206Y-1716293D01*
X4627206Y-1716293D02*
X4617682Y-1697246D01*
X4617682Y-1697246D02*
X4617682Y-1687722D01*
X4617682Y-1687722D02*
X4627206Y-1668674D01*
X4627206Y-1668674D02*
X4646253Y-1659150D01*
X4646253Y-1659150D02*
X4674825Y-1659150D01*
X4674825Y-1659150D02*
X4693873Y-1668674D01*
X4770063Y-1868674D02*
X4779587Y-1859150D01*
X4779587Y-1859150D02*
X4798634Y-1830579D01*
X4798634Y-1830579D02*
X4808158Y-1811531D01*
X4808158Y-1811531D02*
X4817682Y-1782960D01*
X4817682Y-1782960D02*
X4827206Y-1735341D01*
X4827206Y-1735341D02*
X4827206Y-1697246D01*
X4827206Y-1697246D02*
X4817682Y-1649627D01*
X4817682Y-1649627D02*
X4808158Y-1621055D01*
X4808158Y-1621055D02*
X4798634Y-1602008D01*
X4798634Y-1602008D02*
X4779587Y-1573436D01*
X4779587Y-1573436D02*
X4770063Y-1563912D01*
D17*
X-98000Y-1918500D02*
X-5000Y-2011500D01*
X-5000Y-1918500D02*
X-98000Y-2011500D01*
X-5000Y-1965000D02*
G75*
G03*
X-5000Y-1965000I-46500J0D01*
G01*
D11*
X293872Y-1856484D02*
X312920Y-1856484D01*
X312920Y-1856484D02*
X331967Y-1866008D01*
X331967Y-1866008D02*
X341491Y-1875531D01*
X341491Y-1875531D02*
X351015Y-1894579D01*
X351015Y-1894579D02*
X360539Y-1932674D01*
X360539Y-1932674D02*
X360539Y-1980293D01*
X360539Y-1980293D02*
X351015Y-2018388D01*
X351015Y-2018388D02*
X341491Y-2037436D01*
X341491Y-2037436D02*
X331967Y-2046960D01*
X331967Y-2046960D02*
X312920Y-2056484D01*
X312920Y-2056484D02*
X293872Y-2056484D01*
X293872Y-2056484D02*
X274824Y-2046960D01*
X274824Y-2046960D02*
X265301Y-2037436D01*
X265301Y-2037436D02*
X255777Y-2018388D01*
X255777Y-2018388D02*
X246253Y-1980293D01*
X246253Y-1980293D02*
X246253Y-1932674D01*
X246253Y-1932674D02*
X255777Y-1894579D01*
X255777Y-1894579D02*
X265301Y-1875531D01*
X265301Y-1875531D02*
X274824Y-1866008D01*
X274824Y-1866008D02*
X293872Y-1856484D01*
X446253Y-2037436D02*
X455777Y-2046960D01*
X455777Y-2046960D02*
X446253Y-2056484D01*
X446253Y-2056484D02*
X436729Y-2046960D01*
X436729Y-2046960D02*
X446253Y-2037436D01*
X446253Y-2037436D02*
X446253Y-2056484D01*
X551015Y-2056484D02*
X589110Y-2056484D01*
X589110Y-2056484D02*
X608158Y-2046960D01*
X608158Y-2046960D02*
X617682Y-2037436D01*
X617682Y-2037436D02*
X636729Y-2008865D01*
X636729Y-2008865D02*
X646253Y-1970769D01*
X646253Y-1970769D02*
X646253Y-1894579D01*
X646253Y-1894579D02*
X636729Y-1875531D01*
X636729Y-1875531D02*
X627205Y-1866008D01*
X627205Y-1866008D02*
X608158Y-1856484D01*
X608158Y-1856484D02*
X570063Y-1856484D01*
X570063Y-1856484D02*
X551015Y-1866008D01*
X551015Y-1866008D02*
X541491Y-1875531D01*
X541491Y-1875531D02*
X531967Y-1894579D01*
X531967Y-1894579D02*
X531967Y-1942198D01*
X531967Y-1942198D02*
X541491Y-1961246D01*
X541491Y-1961246D02*
X551015Y-1970769D01*
X551015Y-1970769D02*
X570063Y-1980293D01*
X570063Y-1980293D02*
X608158Y-1980293D01*
X608158Y-1980293D02*
X627205Y-1970769D01*
X627205Y-1970769D02*
X636729Y-1961246D01*
X636729Y-1961246D02*
X646253Y-1942198D01*
X712920Y-1856484D02*
X836729Y-1856484D01*
X836729Y-1856484D02*
X770062Y-1932674D01*
X770062Y-1932674D02*
X798634Y-1932674D01*
X798634Y-1932674D02*
X817682Y-1942198D01*
X817682Y-1942198D02*
X827205Y-1951722D01*
X827205Y-1951722D02*
X836729Y-1970769D01*
X836729Y-1970769D02*
X836729Y-2018388D01*
X836729Y-2018388D02*
X827205Y-2037436D01*
X827205Y-2037436D02*
X817682Y-2046960D01*
X817682Y-2046960D02*
X798634Y-2056484D01*
X798634Y-2056484D02*
X741491Y-2056484D01*
X741491Y-2056484D02*
X722443Y-2046960D01*
X722443Y-2046960D02*
X712920Y-2037436D01*
X960539Y-1856484D02*
X979586Y-1856484D01*
X979586Y-1856484D02*
X998634Y-1866008D01*
X998634Y-1866008D02*
X1008158Y-1875531D01*
X1008158Y-1875531D02*
X1017682Y-1894579D01*
X1017682Y-1894579D02*
X1027205Y-1932674D01*
X1027205Y-1932674D02*
X1027205Y-1980293D01*
X1027205Y-1980293D02*
X1017682Y-2018388D01*
X1017682Y-2018388D02*
X1008158Y-2037436D01*
X1008158Y-2037436D02*
X998634Y-2046960D01*
X998634Y-2046960D02*
X979586Y-2056484D01*
X979586Y-2056484D02*
X960539Y-2056484D01*
X960539Y-2056484D02*
X941491Y-2046960D01*
X941491Y-2046960D02*
X931967Y-2037436D01*
X931967Y-2037436D02*
X922443Y-2018388D01*
X922443Y-2018388D02*
X912920Y-1980293D01*
X912920Y-1980293D02*
X912920Y-1932674D01*
X912920Y-1932674D02*
X922443Y-1894579D01*
X922443Y-1894579D02*
X931967Y-1875531D01*
X931967Y-1875531D02*
X941491Y-1866008D01*
X941491Y-1866008D02*
X960539Y-1856484D01*
X1112920Y-2056484D02*
X1112920Y-1923150D01*
X1112920Y-1942198D02*
X1122444Y-1932674D01*
X1122444Y-1932674D02*
X1141491Y-1923150D01*
X1141491Y-1923150D02*
X1170063Y-1923150D01*
X1170063Y-1923150D02*
X1189110Y-1932674D01*
X1189110Y-1932674D02*
X1198634Y-1951722D01*
X1198634Y-1951722D02*
X1198634Y-2056484D01*
X1198634Y-1951722D02*
X1208158Y-1932674D01*
X1208158Y-1932674D02*
X1227205Y-1923150D01*
X1227205Y-1923150D02*
X1255777Y-1923150D01*
X1255777Y-1923150D02*
X1274825Y-1932674D01*
X1274825Y-1932674D02*
X1284348Y-1951722D01*
X1284348Y-1951722D02*
X1284348Y-2056484D01*
X1379586Y-2056484D02*
X1379586Y-1923150D01*
X1379586Y-1942198D02*
X1389110Y-1932674D01*
X1389110Y-1932674D02*
X1408158Y-1923150D01*
X1408158Y-1923150D02*
X1436729Y-1923150D01*
X1436729Y-1923150D02*
X1455777Y-1932674D01*
X1455777Y-1932674D02*
X1465301Y-1951722D01*
X1465301Y-1951722D02*
X1465301Y-2056484D01*
X1465301Y-1951722D02*
X1474824Y-1932674D01*
X1474824Y-1932674D02*
X1493872Y-1923150D01*
X1493872Y-1923150D02*
X1522443Y-1923150D01*
X1522443Y-1923150D02*
X1541491Y-1932674D01*
X1541491Y-1932674D02*
X1551015Y-1951722D01*
X1551015Y-1951722D02*
X1551015Y-2056484D01*
X1941491Y-1846960D02*
X1770063Y-2104103D01*
X2198634Y-1856484D02*
X2217682Y-1856484D01*
X2217682Y-1856484D02*
X2236729Y-1866008D01*
X2236729Y-1866008D02*
X2246253Y-1875531D01*
X2246253Y-1875531D02*
X2255777Y-1894579D01*
X2255777Y-1894579D02*
X2265301Y-1932674D01*
X2265301Y-1932674D02*
X2265301Y-1980293D01*
X2265301Y-1980293D02*
X2255777Y-2018388D01*
X2255777Y-2018388D02*
X2246253Y-2037436D01*
X2246253Y-2037436D02*
X2236729Y-2046960D01*
X2236729Y-2046960D02*
X2217682Y-2056484D01*
X2217682Y-2056484D02*
X2198634Y-2056484D01*
X2198634Y-2056484D02*
X2179587Y-2046960D01*
X2179587Y-2046960D02*
X2170063Y-2037436D01*
X2170063Y-2037436D02*
X2160539Y-2018388D01*
X2160539Y-2018388D02*
X2151015Y-1980293D01*
X2151015Y-1980293D02*
X2151015Y-1932674D01*
X2151015Y-1932674D02*
X2160539Y-1894579D01*
X2160539Y-1894579D02*
X2170063Y-1875531D01*
X2170063Y-1875531D02*
X2179587Y-1866008D01*
X2179587Y-1866008D02*
X2198634Y-1856484D01*
X2351015Y-2037436D02*
X2360539Y-2046960D01*
X2360539Y-2046960D02*
X2351015Y-2056484D01*
X2351015Y-2056484D02*
X2341491Y-2046960D01*
X2341491Y-2046960D02*
X2351015Y-2037436D01*
X2351015Y-2037436D02*
X2351015Y-2056484D01*
X2484348Y-1856484D02*
X2503396Y-1856484D01*
X2503396Y-1856484D02*
X2522444Y-1866008D01*
X2522444Y-1866008D02*
X2531968Y-1875531D01*
X2531968Y-1875531D02*
X2541491Y-1894579D01*
X2541491Y-1894579D02*
X2551015Y-1932674D01*
X2551015Y-1932674D02*
X2551015Y-1980293D01*
X2551015Y-1980293D02*
X2541491Y-2018388D01*
X2541491Y-2018388D02*
X2531968Y-2037436D01*
X2531968Y-2037436D02*
X2522444Y-2046960D01*
X2522444Y-2046960D02*
X2503396Y-2056484D01*
X2503396Y-2056484D02*
X2484348Y-2056484D01*
X2484348Y-2056484D02*
X2465301Y-2046960D01*
X2465301Y-2046960D02*
X2455777Y-2037436D01*
X2455777Y-2037436D02*
X2446253Y-2018388D01*
X2446253Y-2018388D02*
X2436729Y-1980293D01*
X2436729Y-1980293D02*
X2436729Y-1932674D01*
X2436729Y-1932674D02*
X2446253Y-1894579D01*
X2446253Y-1894579D02*
X2455777Y-1875531D01*
X2455777Y-1875531D02*
X2465301Y-1866008D01*
X2465301Y-1866008D02*
X2484348Y-1856484D01*
X2617682Y-1856484D02*
X2741491Y-1856484D01*
X2741491Y-1856484D02*
X2674825Y-1932674D01*
X2674825Y-1932674D02*
X2703396Y-1932674D01*
X2703396Y-1932674D02*
X2722444Y-1942198D01*
X2722444Y-1942198D02*
X2731968Y-1951722D01*
X2731968Y-1951722D02*
X2741491Y-1970769D01*
X2741491Y-1970769D02*
X2741491Y-2018388D01*
X2741491Y-2018388D02*
X2731968Y-2037436D01*
X2731968Y-2037436D02*
X2722444Y-2046960D01*
X2722444Y-2046960D02*
X2703396Y-2056484D01*
X2703396Y-2056484D02*
X2646253Y-2056484D01*
X2646253Y-2056484D02*
X2627206Y-2046960D01*
X2627206Y-2046960D02*
X2617682Y-2037436D01*
X2912920Y-1856484D02*
X2874825Y-1856484D01*
X2874825Y-1856484D02*
X2855777Y-1866008D01*
X2855777Y-1866008D02*
X2846253Y-1875531D01*
X2846253Y-1875531D02*
X2827206Y-1904103D01*
X2827206Y-1904103D02*
X2817682Y-1942198D01*
X2817682Y-1942198D02*
X2817682Y-2018388D01*
X2817682Y-2018388D02*
X2827206Y-2037436D01*
X2827206Y-2037436D02*
X2836729Y-2046960D01*
X2836729Y-2046960D02*
X2855777Y-2056484D01*
X2855777Y-2056484D02*
X2893872Y-2056484D01*
X2893872Y-2056484D02*
X2912920Y-2046960D01*
X2912920Y-2046960D02*
X2922444Y-2037436D01*
X2922444Y-2037436D02*
X2931967Y-2018388D01*
X2931967Y-2018388D02*
X2931967Y-1970769D01*
X2931967Y-1970769D02*
X2922444Y-1951722D01*
X2922444Y-1951722D02*
X2912920Y-1942198D01*
X2912920Y-1942198D02*
X2893872Y-1932674D01*
X2893872Y-1932674D02*
X2855777Y-1932674D01*
X2855777Y-1932674D02*
X2836729Y-1942198D01*
X2836729Y-1942198D02*
X2827206Y-1951722D01*
X2827206Y-1951722D02*
X2817682Y-1970769D01*
X3103396Y-1856484D02*
X3065301Y-1856484D01*
X3065301Y-1856484D02*
X3046253Y-1866008D01*
X3046253Y-1866008D02*
X3036729Y-1875531D01*
X3036729Y-1875531D02*
X3017682Y-1904103D01*
X3017682Y-1904103D02*
X3008158Y-1942198D01*
X3008158Y-1942198D02*
X3008158Y-2018388D01*
X3008158Y-2018388D02*
X3017682Y-2037436D01*
X3017682Y-2037436D02*
X3027206Y-2046960D01*
X3027206Y-2046960D02*
X3046253Y-2056484D01*
X3046253Y-2056484D02*
X3084348Y-2056484D01*
X3084348Y-2056484D02*
X3103396Y-2046960D01*
X3103396Y-2046960D02*
X3112920Y-2037436D01*
X3112920Y-2037436D02*
X3122444Y-2018388D01*
X3122444Y-2018388D02*
X3122444Y-1970769D01*
X3122444Y-1970769D02*
X3112920Y-1951722D01*
X3112920Y-1951722D02*
X3103396Y-1942198D01*
X3103396Y-1942198D02*
X3084348Y-1932674D01*
X3084348Y-1932674D02*
X3046253Y-1932674D01*
X3046253Y-1932674D02*
X3027206Y-1942198D01*
X3027206Y-1942198D02*
X3017682Y-1951722D01*
X3017682Y-1951722D02*
X3008158Y-1970769D01*
X3198634Y-1856484D02*
X3198634Y-1894579D01*
X3274825Y-1856484D02*
X3274825Y-1894579D01*
X3570063Y-2132674D02*
X3560539Y-2123150D01*
X3560539Y-2123150D02*
X3541491Y-2094579D01*
X3541491Y-2094579D02*
X3531968Y-2075531D01*
X3531968Y-2075531D02*
X3522444Y-2046960D01*
X3522444Y-2046960D02*
X3512920Y-1999341D01*
X3512920Y-1999341D02*
X3512920Y-1961246D01*
X3512920Y-1961246D02*
X3522444Y-1913627D01*
X3522444Y-1913627D02*
X3531968Y-1885055D01*
X3531968Y-1885055D02*
X3541491Y-1866008D01*
X3541491Y-1866008D02*
X3560539Y-1837436D01*
X3560539Y-1837436D02*
X3570063Y-1827912D01*
X3636729Y-1875531D02*
X3646253Y-1866008D01*
X3646253Y-1866008D02*
X3665301Y-1856484D01*
X3665301Y-1856484D02*
X3712920Y-1856484D01*
X3712920Y-1856484D02*
X3731968Y-1866008D01*
X3731968Y-1866008D02*
X3741491Y-1875531D01*
X3741491Y-1875531D02*
X3751015Y-1894579D01*
X3751015Y-1894579D02*
X3751015Y-1913627D01*
X3751015Y-1913627D02*
X3741491Y-1942198D01*
X3741491Y-1942198D02*
X3627206Y-2056484D01*
X3627206Y-2056484D02*
X3751015Y-2056484D01*
X3989110Y-2056484D02*
X3989110Y-1856484D01*
X4074825Y-2056484D02*
X4074825Y-1951722D01*
X4074825Y-1951722D02*
X4065301Y-1932674D01*
X4065301Y-1932674D02*
X4046253Y-1923150D01*
X4046253Y-1923150D02*
X4017682Y-1923150D01*
X4017682Y-1923150D02*
X3998634Y-1932674D01*
X3998634Y-1932674D02*
X3989110Y-1942198D01*
X4198634Y-2056484D02*
X4179587Y-2046960D01*
X4179587Y-2046960D02*
X4170063Y-2037436D01*
X4170063Y-2037436D02*
X4160539Y-2018388D01*
X4160539Y-2018388D02*
X4160539Y-1961246D01*
X4160539Y-1961246D02*
X4170063Y-1942198D01*
X4170063Y-1942198D02*
X4179587Y-1932674D01*
X4179587Y-1932674D02*
X4198634Y-1923150D01*
X4198634Y-1923150D02*
X4227206Y-1923150D01*
X4227206Y-1923150D02*
X4246253Y-1932674D01*
X4246253Y-1932674D02*
X4255777Y-1942198D01*
X4255777Y-1942198D02*
X4265301Y-1961246D01*
X4265301Y-1961246D02*
X4265301Y-2018388D01*
X4265301Y-2018388D02*
X4255777Y-2037436D01*
X4255777Y-2037436D02*
X4246253Y-2046960D01*
X4246253Y-2046960D02*
X4227206Y-2056484D01*
X4227206Y-2056484D02*
X4198634Y-2056484D01*
X4379587Y-2056484D02*
X4360539Y-2046960D01*
X4360539Y-2046960D02*
X4351015Y-2027912D01*
X4351015Y-2027912D02*
X4351015Y-1856484D01*
X4531968Y-2046960D02*
X4512920Y-2056484D01*
X4512920Y-2056484D02*
X4474825Y-2056484D01*
X4474825Y-2056484D02*
X4455777Y-2046960D01*
X4455777Y-2046960D02*
X4446253Y-2027912D01*
X4446253Y-2027912D02*
X4446253Y-1951722D01*
X4446253Y-1951722D02*
X4455777Y-1932674D01*
X4455777Y-1932674D02*
X4474825Y-1923150D01*
X4474825Y-1923150D02*
X4512920Y-1923150D01*
X4512920Y-1923150D02*
X4531968Y-1932674D01*
X4531968Y-1932674D02*
X4541492Y-1951722D01*
X4541492Y-1951722D02*
X4541492Y-1970769D01*
X4541492Y-1970769D02*
X4446253Y-1989817D01*
X4617682Y-2046960D02*
X4636730Y-2056484D01*
X4636730Y-2056484D02*
X4674825Y-2056484D01*
X4674825Y-2056484D02*
X4693873Y-2046960D01*
X4693873Y-2046960D02*
X4703396Y-2027912D01*
X4703396Y-2027912D02*
X4703396Y-2018388D01*
X4703396Y-2018388D02*
X4693873Y-1999341D01*
X4693873Y-1999341D02*
X4674825Y-1989817D01*
X4674825Y-1989817D02*
X4646253Y-1989817D01*
X4646253Y-1989817D02*
X4627206Y-1980293D01*
X4627206Y-1980293D02*
X4617682Y-1961246D01*
X4617682Y-1961246D02*
X4617682Y-1951722D01*
X4617682Y-1951722D02*
X4627206Y-1932674D01*
X4627206Y-1932674D02*
X4646253Y-1923150D01*
X4646253Y-1923150D02*
X4674825Y-1923150D01*
X4674825Y-1923150D02*
X4693873Y-1932674D01*
X4770063Y-2132674D02*
X4779587Y-2123150D01*
X4779587Y-2123150D02*
X4798634Y-2094579D01*
X4798634Y-2094579D02*
X4808158Y-2075531D01*
X4808158Y-2075531D02*
X4817682Y-2046960D01*
X4817682Y-2046960D02*
X4827206Y-1999341D01*
X4827206Y-1999341D02*
X4827206Y-1961246D01*
X4827206Y-1961246D02*
X4817682Y-1913627D01*
X4817682Y-1913627D02*
X4808158Y-1885055D01*
X4808158Y-1885055D02*
X4798634Y-1866008D01*
X4798634Y-1866008D02*
X4779587Y-1837436D01*
X4779587Y-1837436D02*
X4770063Y-1827912D01*
D10*
X-105000Y-2179000D02*
X-5000Y-2279000D01*
X-5000Y-2179000D02*
X-105000Y-2279000D01*
X-55000Y-2179000D02*
X-55000Y-2279000D01*
X-105000Y-2229000D02*
X-5000Y-2229000D01*
D11*
X360539Y-2320484D02*
X246253Y-2320484D01*
X303396Y-2320484D02*
X303396Y-2120484D01*
X303396Y-2120484D02*
X284348Y-2149055D01*
X284348Y-2149055D02*
X265301Y-2168103D01*
X265301Y-2168103D02*
X246253Y-2177627D01*
X446253Y-2301436D02*
X455777Y-2310960D01*
X455777Y-2310960D02*
X446253Y-2320484D01*
X446253Y-2320484D02*
X436729Y-2310960D01*
X436729Y-2310960D02*
X446253Y-2301436D01*
X446253Y-2301436D02*
X446253Y-2320484D01*
X579586Y-2120484D02*
X598634Y-2120484D01*
X598634Y-2120484D02*
X617682Y-2130008D01*
X617682Y-2130008D02*
X627205Y-2139531D01*
X627205Y-2139531D02*
X636729Y-2158579D01*
X636729Y-2158579D02*
X646253Y-2196674D01*
X646253Y-2196674D02*
X646253Y-2244293D01*
X646253Y-2244293D02*
X636729Y-2282389D01*
X636729Y-2282389D02*
X627205Y-2301436D01*
X627205Y-2301436D02*
X617682Y-2310960D01*
X617682Y-2310960D02*
X598634Y-2320484D01*
X598634Y-2320484D02*
X579586Y-2320484D01*
X579586Y-2320484D02*
X560539Y-2310960D01*
X560539Y-2310960D02*
X551015Y-2301436D01*
X551015Y-2301436D02*
X541491Y-2282389D01*
X541491Y-2282389D02*
X531967Y-2244293D01*
X531967Y-2244293D02*
X531967Y-2196674D01*
X531967Y-2196674D02*
X541491Y-2158579D01*
X541491Y-2158579D02*
X551015Y-2139531D01*
X551015Y-2139531D02*
X560539Y-2130008D01*
X560539Y-2130008D02*
X579586Y-2120484D01*
X770062Y-2120484D02*
X789110Y-2120484D01*
X789110Y-2120484D02*
X808158Y-2130008D01*
X808158Y-2130008D02*
X817682Y-2139531D01*
X817682Y-2139531D02*
X827205Y-2158579D01*
X827205Y-2158579D02*
X836729Y-2196674D01*
X836729Y-2196674D02*
X836729Y-2244293D01*
X836729Y-2244293D02*
X827205Y-2282389D01*
X827205Y-2282389D02*
X817682Y-2301436D01*
X817682Y-2301436D02*
X808158Y-2310960D01*
X808158Y-2310960D02*
X789110Y-2320484D01*
X789110Y-2320484D02*
X770062Y-2320484D01*
X770062Y-2320484D02*
X751015Y-2310960D01*
X751015Y-2310960D02*
X741491Y-2301436D01*
X741491Y-2301436D02*
X731967Y-2282389D01*
X731967Y-2282389D02*
X722443Y-2244293D01*
X722443Y-2244293D02*
X722443Y-2196674D01*
X722443Y-2196674D02*
X731967Y-2158579D01*
X731967Y-2158579D02*
X741491Y-2139531D01*
X741491Y-2139531D02*
X751015Y-2130008D01*
X751015Y-2130008D02*
X770062Y-2120484D01*
X960539Y-2120484D02*
X979586Y-2120484D01*
X979586Y-2120484D02*
X998634Y-2130008D01*
X998634Y-2130008D02*
X1008158Y-2139531D01*
X1008158Y-2139531D02*
X1017682Y-2158579D01*
X1017682Y-2158579D02*
X1027205Y-2196674D01*
X1027205Y-2196674D02*
X1027205Y-2244293D01*
X1027205Y-2244293D02*
X1017682Y-2282389D01*
X1017682Y-2282389D02*
X1008158Y-2301436D01*
X1008158Y-2301436D02*
X998634Y-2310960D01*
X998634Y-2310960D02*
X979586Y-2320484D01*
X979586Y-2320484D02*
X960539Y-2320484D01*
X960539Y-2320484D02*
X941491Y-2310960D01*
X941491Y-2310960D02*
X931967Y-2301436D01*
X931967Y-2301436D02*
X922443Y-2282389D01*
X922443Y-2282389D02*
X912920Y-2244293D01*
X912920Y-2244293D02*
X912920Y-2196674D01*
X912920Y-2196674D02*
X922443Y-2158579D01*
X922443Y-2158579D02*
X931967Y-2139531D01*
X931967Y-2139531D02*
X941491Y-2130008D01*
X941491Y-2130008D02*
X960539Y-2120484D01*
X1112920Y-2320484D02*
X1112920Y-2187150D01*
X1112920Y-2206198D02*
X1122444Y-2196674D01*
X1122444Y-2196674D02*
X1141491Y-2187150D01*
X1141491Y-2187150D02*
X1170063Y-2187150D01*
X1170063Y-2187150D02*
X1189110Y-2196674D01*
X1189110Y-2196674D02*
X1198634Y-2215722D01*
X1198634Y-2215722D02*
X1198634Y-2320484D01*
X1198634Y-2215722D02*
X1208158Y-2196674D01*
X1208158Y-2196674D02*
X1227205Y-2187150D01*
X1227205Y-2187150D02*
X1255777Y-2187150D01*
X1255777Y-2187150D02*
X1274825Y-2196674D01*
X1274825Y-2196674D02*
X1284348Y-2215722D01*
X1284348Y-2215722D02*
X1284348Y-2320484D01*
X1379586Y-2320484D02*
X1379586Y-2187150D01*
X1379586Y-2206198D02*
X1389110Y-2196674D01*
X1389110Y-2196674D02*
X1408158Y-2187150D01*
X1408158Y-2187150D02*
X1436729Y-2187150D01*
X1436729Y-2187150D02*
X1455777Y-2196674D01*
X1455777Y-2196674D02*
X1465301Y-2215722D01*
X1465301Y-2215722D02*
X1465301Y-2320484D01*
X1465301Y-2215722D02*
X1474824Y-2196674D01*
X1474824Y-2196674D02*
X1493872Y-2187150D01*
X1493872Y-2187150D02*
X1522443Y-2187150D01*
X1522443Y-2187150D02*
X1541491Y-2196674D01*
X1541491Y-2196674D02*
X1551015Y-2215722D01*
X1551015Y-2215722D02*
X1551015Y-2320484D01*
X1941491Y-2110960D02*
X1770063Y-2368103D01*
X2198634Y-2120484D02*
X2217682Y-2120484D01*
X2217682Y-2120484D02*
X2236729Y-2130008D01*
X2236729Y-2130008D02*
X2246253Y-2139531D01*
X2246253Y-2139531D02*
X2255777Y-2158579D01*
X2255777Y-2158579D02*
X2265301Y-2196674D01*
X2265301Y-2196674D02*
X2265301Y-2244293D01*
X2265301Y-2244293D02*
X2255777Y-2282389D01*
X2255777Y-2282389D02*
X2246253Y-2301436D01*
X2246253Y-2301436D02*
X2236729Y-2310960D01*
X2236729Y-2310960D02*
X2217682Y-2320484D01*
X2217682Y-2320484D02*
X2198634Y-2320484D01*
X2198634Y-2320484D02*
X2179587Y-2310960D01*
X2179587Y-2310960D02*
X2170063Y-2301436D01*
X2170063Y-2301436D02*
X2160539Y-2282389D01*
X2160539Y-2282389D02*
X2151015Y-2244293D01*
X2151015Y-2244293D02*
X2151015Y-2196674D01*
X2151015Y-2196674D02*
X2160539Y-2158579D01*
X2160539Y-2158579D02*
X2170063Y-2139531D01*
X2170063Y-2139531D02*
X2179587Y-2130008D01*
X2179587Y-2130008D02*
X2198634Y-2120484D01*
X2351015Y-2301436D02*
X2360539Y-2310960D01*
X2360539Y-2310960D02*
X2351015Y-2320484D01*
X2351015Y-2320484D02*
X2341491Y-2310960D01*
X2341491Y-2310960D02*
X2351015Y-2301436D01*
X2351015Y-2301436D02*
X2351015Y-2320484D01*
X2484348Y-2120484D02*
X2503396Y-2120484D01*
X2503396Y-2120484D02*
X2522444Y-2130008D01*
X2522444Y-2130008D02*
X2531968Y-2139531D01*
X2531968Y-2139531D02*
X2541491Y-2158579D01*
X2541491Y-2158579D02*
X2551015Y-2196674D01*
X2551015Y-2196674D02*
X2551015Y-2244293D01*
X2551015Y-2244293D02*
X2541491Y-2282389D01*
X2541491Y-2282389D02*
X2531968Y-2301436D01*
X2531968Y-2301436D02*
X2522444Y-2310960D01*
X2522444Y-2310960D02*
X2503396Y-2320484D01*
X2503396Y-2320484D02*
X2484348Y-2320484D01*
X2484348Y-2320484D02*
X2465301Y-2310960D01*
X2465301Y-2310960D02*
X2455777Y-2301436D01*
X2455777Y-2301436D02*
X2446253Y-2282389D01*
X2446253Y-2282389D02*
X2436729Y-2244293D01*
X2436729Y-2244293D02*
X2436729Y-2196674D01*
X2436729Y-2196674D02*
X2446253Y-2158579D01*
X2446253Y-2158579D02*
X2455777Y-2139531D01*
X2455777Y-2139531D02*
X2465301Y-2130008D01*
X2465301Y-2130008D02*
X2484348Y-2120484D01*
X2617682Y-2120484D02*
X2741491Y-2120484D01*
X2741491Y-2120484D02*
X2674825Y-2196674D01*
X2674825Y-2196674D02*
X2703396Y-2196674D01*
X2703396Y-2196674D02*
X2722444Y-2206198D01*
X2722444Y-2206198D02*
X2731968Y-2215722D01*
X2731968Y-2215722D02*
X2741491Y-2234770D01*
X2741491Y-2234770D02*
X2741491Y-2282389D01*
X2741491Y-2282389D02*
X2731968Y-2301436D01*
X2731968Y-2301436D02*
X2722444Y-2310960D01*
X2722444Y-2310960D02*
X2703396Y-2320484D01*
X2703396Y-2320484D02*
X2646253Y-2320484D01*
X2646253Y-2320484D02*
X2627206Y-2310960D01*
X2627206Y-2310960D02*
X2617682Y-2301436D01*
X2836729Y-2320484D02*
X2874825Y-2320484D01*
X2874825Y-2320484D02*
X2893872Y-2310960D01*
X2893872Y-2310960D02*
X2903396Y-2301436D01*
X2903396Y-2301436D02*
X2922444Y-2272865D01*
X2922444Y-2272865D02*
X2931967Y-2234770D01*
X2931967Y-2234770D02*
X2931967Y-2158579D01*
X2931967Y-2158579D02*
X2922444Y-2139531D01*
X2922444Y-2139531D02*
X2912920Y-2130008D01*
X2912920Y-2130008D02*
X2893872Y-2120484D01*
X2893872Y-2120484D02*
X2855777Y-2120484D01*
X2855777Y-2120484D02*
X2836729Y-2130008D01*
X2836729Y-2130008D02*
X2827206Y-2139531D01*
X2827206Y-2139531D02*
X2817682Y-2158579D01*
X2817682Y-2158579D02*
X2817682Y-2206198D01*
X2817682Y-2206198D02*
X2827206Y-2225246D01*
X2827206Y-2225246D02*
X2836729Y-2234770D01*
X2836729Y-2234770D02*
X2855777Y-2244293D01*
X2855777Y-2244293D02*
X2893872Y-2244293D01*
X2893872Y-2244293D02*
X2912920Y-2234770D01*
X2912920Y-2234770D02*
X2922444Y-2225246D01*
X2922444Y-2225246D02*
X2931967Y-2206198D01*
X3103396Y-2187150D02*
X3103396Y-2320484D01*
X3055777Y-2110960D02*
X3008158Y-2253817D01*
X3008158Y-2253817D02*
X3131967Y-2253817D01*
X3198634Y-2120484D02*
X3198634Y-2158579D01*
X3274825Y-2120484D02*
X3274825Y-2158579D01*
X3570063Y-2396674D02*
X3560539Y-2387150D01*
X3560539Y-2387150D02*
X3541491Y-2358579D01*
X3541491Y-2358579D02*
X3531968Y-2339531D01*
X3531968Y-2339531D02*
X3522444Y-2310960D01*
X3522444Y-2310960D02*
X3512920Y-2263341D01*
X3512920Y-2263341D02*
X3512920Y-2225246D01*
X3512920Y-2225246D02*
X3522444Y-2177627D01*
X3522444Y-2177627D02*
X3531968Y-2149055D01*
X3531968Y-2149055D02*
X3541491Y-2130008D01*
X3541491Y-2130008D02*
X3560539Y-2101436D01*
X3560539Y-2101436D02*
X3570063Y-2091912D01*
X3751015Y-2320484D02*
X3636729Y-2320484D01*
X3693872Y-2320484D02*
X3693872Y-2120484D01*
X3693872Y-2120484D02*
X3674825Y-2149055D01*
X3674825Y-2149055D02*
X3655777Y-2168103D01*
X3655777Y-2168103D02*
X3636729Y-2177627D01*
X3827206Y-2139531D02*
X3836729Y-2130008D01*
X3836729Y-2130008D02*
X3855777Y-2120484D01*
X3855777Y-2120484D02*
X3903396Y-2120484D01*
X3903396Y-2120484D02*
X3922444Y-2130008D01*
X3922444Y-2130008D02*
X3931968Y-2139531D01*
X3931968Y-2139531D02*
X3941491Y-2158579D01*
X3941491Y-2158579D02*
X3941491Y-2177627D01*
X3941491Y-2177627D02*
X3931968Y-2206198D01*
X3931968Y-2206198D02*
X3817682Y-2320484D01*
X3817682Y-2320484D02*
X3941491Y-2320484D01*
X4179587Y-2320484D02*
X4179587Y-2120484D01*
X4265301Y-2320484D02*
X4265301Y-2215722D01*
X4265301Y-2215722D02*
X4255777Y-2196674D01*
X4255777Y-2196674D02*
X4236730Y-2187150D01*
X4236730Y-2187150D02*
X4208158Y-2187150D01*
X4208158Y-2187150D02*
X4189110Y-2196674D01*
X4189110Y-2196674D02*
X4179587Y-2206198D01*
X4389111Y-2320484D02*
X4370063Y-2310960D01*
X4370063Y-2310960D02*
X4360539Y-2301436D01*
X4360539Y-2301436D02*
X4351015Y-2282389D01*
X4351015Y-2282389D02*
X4351015Y-2225246D01*
X4351015Y-2225246D02*
X4360539Y-2206198D01*
X4360539Y-2206198D02*
X4370063Y-2196674D01*
X4370063Y-2196674D02*
X4389111Y-2187150D01*
X4389111Y-2187150D02*
X4417682Y-2187150D01*
X4417682Y-2187150D02*
X4436730Y-2196674D01*
X4436730Y-2196674D02*
X4446253Y-2206198D01*
X4446253Y-2206198D02*
X4455777Y-2225246D01*
X4455777Y-2225246D02*
X4455777Y-2282389D01*
X4455777Y-2282389D02*
X4446253Y-2301436D01*
X4446253Y-2301436D02*
X4436730Y-2310960D01*
X4436730Y-2310960D02*
X4417682Y-2320484D01*
X4417682Y-2320484D02*
X4389111Y-2320484D01*
X4570063Y-2320484D02*
X4551015Y-2310960D01*
X4551015Y-2310960D02*
X4541492Y-2291912D01*
X4541492Y-2291912D02*
X4541492Y-2120484D01*
X4722444Y-2310960D02*
X4703396Y-2320484D01*
X4703396Y-2320484D02*
X4665301Y-2320484D01*
X4665301Y-2320484D02*
X4646253Y-2310960D01*
X4646253Y-2310960D02*
X4636730Y-2291912D01*
X4636730Y-2291912D02*
X4636730Y-2215722D01*
X4636730Y-2215722D02*
X4646253Y-2196674D01*
X4646253Y-2196674D02*
X4665301Y-2187150D01*
X4665301Y-2187150D02*
X4703396Y-2187150D01*
X4703396Y-2187150D02*
X4722444Y-2196674D01*
X4722444Y-2196674D02*
X4731968Y-2215722D01*
X4731968Y-2215722D02*
X4731968Y-2234770D01*
X4731968Y-2234770D02*
X4636730Y-2253817D01*
X4808158Y-2310960D02*
X4827206Y-2320484D01*
X4827206Y-2320484D02*
X4865301Y-2320484D01*
X4865301Y-2320484D02*
X4884349Y-2310960D01*
X4884349Y-2310960D02*
X4893873Y-2291912D01*
X4893873Y-2291912D02*
X4893873Y-2282389D01*
X4893873Y-2282389D02*
X4884349Y-2263341D01*
X4884349Y-2263341D02*
X4865301Y-2253817D01*
X4865301Y-2253817D02*
X4836730Y-2253817D01*
X4836730Y-2253817D02*
X4817682Y-2244293D01*
X4817682Y-2244293D02*
X4808158Y-2225246D01*
X4808158Y-2225246D02*
X4808158Y-2215722D01*
X4808158Y-2215722D02*
X4817682Y-2196674D01*
X4817682Y-2196674D02*
X4836730Y-2187150D01*
X4836730Y-2187150D02*
X4865301Y-2187150D01*
X4865301Y-2187150D02*
X4884349Y-2196674D01*
X4960539Y-2396674D02*
X4970063Y-2387150D01*
X4970063Y-2387150D02*
X4989111Y-2358579D01*
X4989111Y-2358579D02*
X4998634Y-2339531D01*
X4998634Y-2339531D02*
X5008158Y-2310960D01*
X5008158Y-2310960D02*
X5017682Y-2263341D01*
X5017682Y-2263341D02*
X5017682Y-2225246D01*
X5017682Y-2225246D02*
X5008158Y-2177627D01*
X5008158Y-2177627D02*
X4998634Y-2149055D01*
X4998634Y-2149055D02*
X4989111Y-2130008D01*
X4989111Y-2130008D02*
X4970063Y-2101436D01*
X4970063Y-2101436D02*
X4960539Y-2091912D01*
D18*
X-122000Y-2434500D02*
X-5000Y-2551500D01*
X-5000Y-2434500D02*
X-122000Y-2551500D01*
X-22134Y-2534366D02*
X-22134Y-2451634D01*
X-104866Y-2451634D01*
X-104866Y-2534366D01*
X-22134Y-2534366D01*
D11*
X360539Y-2584484D02*
X246253Y-2584484D01*
X303396Y-2584484D02*
X303396Y-2384484D01*
X303396Y-2384484D02*
X284348Y-2413055D01*
X284348Y-2413055D02*
X265301Y-2432103D01*
X265301Y-2432103D02*
X246253Y-2441627D01*
X446253Y-2565436D02*
X455777Y-2574960D01*
X455777Y-2574960D02*
X446253Y-2584484D01*
X446253Y-2584484D02*
X436729Y-2574960D01*
X436729Y-2574960D02*
X446253Y-2565436D01*
X446253Y-2565436D02*
X446253Y-2584484D01*
X646253Y-2584484D02*
X531967Y-2584484D01*
X589110Y-2584484D02*
X589110Y-2384484D01*
X589110Y-2384484D02*
X570063Y-2413055D01*
X570063Y-2413055D02*
X551015Y-2432103D01*
X551015Y-2432103D02*
X531967Y-2441627D01*
X712920Y-2384484D02*
X846253Y-2384484D01*
X846253Y-2384484D02*
X760539Y-2584484D01*
X960539Y-2384484D02*
X979586Y-2384484D01*
X979586Y-2384484D02*
X998634Y-2394008D01*
X998634Y-2394008D02*
X1008158Y-2403531D01*
X1008158Y-2403531D02*
X1017682Y-2422579D01*
X1017682Y-2422579D02*
X1027205Y-2460674D01*
X1027205Y-2460674D02*
X1027205Y-2508293D01*
X1027205Y-2508293D02*
X1017682Y-2546389D01*
X1017682Y-2546389D02*
X1008158Y-2565436D01*
X1008158Y-2565436D02*
X998634Y-2574960D01*
X998634Y-2574960D02*
X979586Y-2584484D01*
X979586Y-2584484D02*
X960539Y-2584484D01*
X960539Y-2584484D02*
X941491Y-2574960D01*
X941491Y-2574960D02*
X931967Y-2565436D01*
X931967Y-2565436D02*
X922443Y-2546389D01*
X922443Y-2546389D02*
X912920Y-2508293D01*
X912920Y-2508293D02*
X912920Y-2460674D01*
X912920Y-2460674D02*
X922443Y-2422579D01*
X922443Y-2422579D02*
X931967Y-2403531D01*
X931967Y-2403531D02*
X941491Y-2394008D01*
X941491Y-2394008D02*
X960539Y-2384484D01*
X1112920Y-2584484D02*
X1112920Y-2451150D01*
X1112920Y-2470198D02*
X1122444Y-2460674D01*
X1122444Y-2460674D02*
X1141491Y-2451150D01*
X1141491Y-2451150D02*
X1170063Y-2451150D01*
X1170063Y-2451150D02*
X1189110Y-2460674D01*
X1189110Y-2460674D02*
X1198634Y-2479722D01*
X1198634Y-2479722D02*
X1198634Y-2584484D01*
X1198634Y-2479722D02*
X1208158Y-2460674D01*
X1208158Y-2460674D02*
X1227205Y-2451150D01*
X1227205Y-2451150D02*
X1255777Y-2451150D01*
X1255777Y-2451150D02*
X1274825Y-2460674D01*
X1274825Y-2460674D02*
X1284348Y-2479722D01*
X1284348Y-2479722D02*
X1284348Y-2584484D01*
X1379586Y-2584484D02*
X1379586Y-2451150D01*
X1379586Y-2470198D02*
X1389110Y-2460674D01*
X1389110Y-2460674D02*
X1408158Y-2451150D01*
X1408158Y-2451150D02*
X1436729Y-2451150D01*
X1436729Y-2451150D02*
X1455777Y-2460674D01*
X1455777Y-2460674D02*
X1465301Y-2479722D01*
X1465301Y-2479722D02*
X1465301Y-2584484D01*
X1465301Y-2479722D02*
X1474824Y-2460674D01*
X1474824Y-2460674D02*
X1493872Y-2451150D01*
X1493872Y-2451150D02*
X1522443Y-2451150D01*
X1522443Y-2451150D02*
X1541491Y-2460674D01*
X1541491Y-2460674D02*
X1551015Y-2479722D01*
X1551015Y-2479722D02*
X1551015Y-2584484D01*
X1941491Y-2374960D02*
X1770063Y-2632103D01*
X2198634Y-2384484D02*
X2217682Y-2384484D01*
X2217682Y-2384484D02*
X2236729Y-2394008D01*
X2236729Y-2394008D02*
X2246253Y-2403531D01*
X2246253Y-2403531D02*
X2255777Y-2422579D01*
X2255777Y-2422579D02*
X2265301Y-2460674D01*
X2265301Y-2460674D02*
X2265301Y-2508293D01*
X2265301Y-2508293D02*
X2255777Y-2546389D01*
X2255777Y-2546389D02*
X2246253Y-2565436D01*
X2246253Y-2565436D02*
X2236729Y-2574960D01*
X2236729Y-2574960D02*
X2217682Y-2584484D01*
X2217682Y-2584484D02*
X2198634Y-2584484D01*
X2198634Y-2584484D02*
X2179587Y-2574960D01*
X2179587Y-2574960D02*
X2170063Y-2565436D01*
X2170063Y-2565436D02*
X2160539Y-2546389D01*
X2160539Y-2546389D02*
X2151015Y-2508293D01*
X2151015Y-2508293D02*
X2151015Y-2460674D01*
X2151015Y-2460674D02*
X2160539Y-2422579D01*
X2160539Y-2422579D02*
X2170063Y-2403531D01*
X2170063Y-2403531D02*
X2179587Y-2394008D01*
X2179587Y-2394008D02*
X2198634Y-2384484D01*
X2351015Y-2565436D02*
X2360539Y-2574960D01*
X2360539Y-2574960D02*
X2351015Y-2584484D01*
X2351015Y-2584484D02*
X2341491Y-2574960D01*
X2341491Y-2574960D02*
X2351015Y-2565436D01*
X2351015Y-2565436D02*
X2351015Y-2584484D01*
X2484348Y-2384484D02*
X2503396Y-2384484D01*
X2503396Y-2384484D02*
X2522444Y-2394008D01*
X2522444Y-2394008D02*
X2531968Y-2403531D01*
X2531968Y-2403531D02*
X2541491Y-2422579D01*
X2541491Y-2422579D02*
X2551015Y-2460674D01*
X2551015Y-2460674D02*
X2551015Y-2508293D01*
X2551015Y-2508293D02*
X2541491Y-2546389D01*
X2541491Y-2546389D02*
X2531968Y-2565436D01*
X2531968Y-2565436D02*
X2522444Y-2574960D01*
X2522444Y-2574960D02*
X2503396Y-2584484D01*
X2503396Y-2584484D02*
X2484348Y-2584484D01*
X2484348Y-2584484D02*
X2465301Y-2574960D01*
X2465301Y-2574960D02*
X2455777Y-2565436D01*
X2455777Y-2565436D02*
X2446253Y-2546389D01*
X2446253Y-2546389D02*
X2436729Y-2508293D01*
X2436729Y-2508293D02*
X2436729Y-2460674D01*
X2436729Y-2460674D02*
X2446253Y-2422579D01*
X2446253Y-2422579D02*
X2455777Y-2403531D01*
X2455777Y-2403531D02*
X2465301Y-2394008D01*
X2465301Y-2394008D02*
X2484348Y-2384484D01*
X2722444Y-2451150D02*
X2722444Y-2584484D01*
X2674825Y-2374960D02*
X2627206Y-2517817D01*
X2627206Y-2517817D02*
X2751015Y-2517817D01*
X2912920Y-2384484D02*
X2874825Y-2384484D01*
X2874825Y-2384484D02*
X2855777Y-2394008D01*
X2855777Y-2394008D02*
X2846253Y-2403531D01*
X2846253Y-2403531D02*
X2827206Y-2432103D01*
X2827206Y-2432103D02*
X2817682Y-2470198D01*
X2817682Y-2470198D02*
X2817682Y-2546389D01*
X2817682Y-2546389D02*
X2827206Y-2565436D01*
X2827206Y-2565436D02*
X2836729Y-2574960D01*
X2836729Y-2574960D02*
X2855777Y-2584484D01*
X2855777Y-2584484D02*
X2893872Y-2584484D01*
X2893872Y-2584484D02*
X2912920Y-2574960D01*
X2912920Y-2574960D02*
X2922444Y-2565436D01*
X2922444Y-2565436D02*
X2931967Y-2546389D01*
X2931967Y-2546389D02*
X2931967Y-2498770D01*
X2931967Y-2498770D02*
X2922444Y-2479722D01*
X2922444Y-2479722D02*
X2912920Y-2470198D01*
X2912920Y-2470198D02*
X2893872Y-2460674D01*
X2893872Y-2460674D02*
X2855777Y-2460674D01*
X2855777Y-2460674D02*
X2836729Y-2470198D01*
X2836729Y-2470198D02*
X2827206Y-2479722D01*
X2827206Y-2479722D02*
X2817682Y-2498770D01*
X3122444Y-2584484D02*
X3008158Y-2584484D01*
X3065301Y-2584484D02*
X3065301Y-2384484D01*
X3065301Y-2384484D02*
X3046253Y-2413055D01*
X3046253Y-2413055D02*
X3027206Y-2432103D01*
X3027206Y-2432103D02*
X3008158Y-2441627D01*
X3198634Y-2384484D02*
X3198634Y-2422579D01*
X3274825Y-2384484D02*
X3274825Y-2422579D01*
X3570063Y-2660674D02*
X3560539Y-2651150D01*
X3560539Y-2651150D02*
X3541491Y-2622579D01*
X3541491Y-2622579D02*
X3531968Y-2603531D01*
X3531968Y-2603531D02*
X3522444Y-2574960D01*
X3522444Y-2574960D02*
X3512920Y-2527341D01*
X3512920Y-2527341D02*
X3512920Y-2489246D01*
X3512920Y-2489246D02*
X3522444Y-2441627D01*
X3522444Y-2441627D02*
X3531968Y-2413055D01*
X3531968Y-2413055D02*
X3541491Y-2394008D01*
X3541491Y-2394008D02*
X3560539Y-2365436D01*
X3560539Y-2365436D02*
X3570063Y-2355912D01*
X3636729Y-2403531D02*
X3646253Y-2394008D01*
X3646253Y-2394008D02*
X3665301Y-2384484D01*
X3665301Y-2384484D02*
X3712920Y-2384484D01*
X3712920Y-2384484D02*
X3731968Y-2394008D01*
X3731968Y-2394008D02*
X3741491Y-2403531D01*
X3741491Y-2403531D02*
X3751015Y-2422579D01*
X3751015Y-2422579D02*
X3751015Y-2441627D01*
X3751015Y-2441627D02*
X3741491Y-2470198D01*
X3741491Y-2470198D02*
X3627206Y-2584484D01*
X3627206Y-2584484D02*
X3751015Y-2584484D01*
X3989110Y-2584484D02*
X3989110Y-2384484D01*
X4074825Y-2584484D02*
X4074825Y-2479722D01*
X4074825Y-2479722D02*
X4065301Y-2460674D01*
X4065301Y-2460674D02*
X4046253Y-2451150D01*
X4046253Y-2451150D02*
X4017682Y-2451150D01*
X4017682Y-2451150D02*
X3998634Y-2460674D01*
X3998634Y-2460674D02*
X3989110Y-2470198D01*
X4198634Y-2584484D02*
X4179587Y-2574960D01*
X4179587Y-2574960D02*
X4170063Y-2565436D01*
X4170063Y-2565436D02*
X4160539Y-2546389D01*
X4160539Y-2546389D02*
X4160539Y-2489246D01*
X4160539Y-2489246D02*
X4170063Y-2470198D01*
X4170063Y-2470198D02*
X4179587Y-2460674D01*
X4179587Y-2460674D02*
X4198634Y-2451150D01*
X4198634Y-2451150D02*
X4227206Y-2451150D01*
X4227206Y-2451150D02*
X4246253Y-2460674D01*
X4246253Y-2460674D02*
X4255777Y-2470198D01*
X4255777Y-2470198D02*
X4265301Y-2489246D01*
X4265301Y-2489246D02*
X4265301Y-2546389D01*
X4265301Y-2546389D02*
X4255777Y-2565436D01*
X4255777Y-2565436D02*
X4246253Y-2574960D01*
X4246253Y-2574960D02*
X4227206Y-2584484D01*
X4227206Y-2584484D02*
X4198634Y-2584484D01*
X4379587Y-2584484D02*
X4360539Y-2574960D01*
X4360539Y-2574960D02*
X4351015Y-2555912D01*
X4351015Y-2555912D02*
X4351015Y-2384484D01*
X4531968Y-2574960D02*
X4512920Y-2584484D01*
X4512920Y-2584484D02*
X4474825Y-2584484D01*
X4474825Y-2584484D02*
X4455777Y-2574960D01*
X4455777Y-2574960D02*
X4446253Y-2555912D01*
X4446253Y-2555912D02*
X4446253Y-2479722D01*
X4446253Y-2479722D02*
X4455777Y-2460674D01*
X4455777Y-2460674D02*
X4474825Y-2451150D01*
X4474825Y-2451150D02*
X4512920Y-2451150D01*
X4512920Y-2451150D02*
X4531968Y-2460674D01*
X4531968Y-2460674D02*
X4541492Y-2479722D01*
X4541492Y-2479722D02*
X4541492Y-2498770D01*
X4541492Y-2498770D02*
X4446253Y-2517817D01*
X4617682Y-2574960D02*
X4636730Y-2584484D01*
X4636730Y-2584484D02*
X4674825Y-2584484D01*
X4674825Y-2584484D02*
X4693873Y-2574960D01*
X4693873Y-2574960D02*
X4703396Y-2555912D01*
X4703396Y-2555912D02*
X4703396Y-2546389D01*
X4703396Y-2546389D02*
X4693873Y-2527341D01*
X4693873Y-2527341D02*
X4674825Y-2517817D01*
X4674825Y-2517817D02*
X4646253Y-2517817D01*
X4646253Y-2517817D02*
X4627206Y-2508293D01*
X4627206Y-2508293D02*
X4617682Y-2489246D01*
X4617682Y-2489246D02*
X4617682Y-2479722D01*
X4617682Y-2479722D02*
X4627206Y-2460674D01*
X4627206Y-2460674D02*
X4646253Y-2451150D01*
X4646253Y-2451150D02*
X4674825Y-2451150D01*
X4674825Y-2451150D02*
X4693873Y-2460674D01*
X4770063Y-2660674D02*
X4779587Y-2651150D01*
X4779587Y-2651150D02*
X4798634Y-2622579D01*
X4798634Y-2622579D02*
X4808158Y-2603531D01*
X4808158Y-2603531D02*
X4817682Y-2574960D01*
X4817682Y-2574960D02*
X4827206Y-2527341D01*
X4827206Y-2527341D02*
X4827206Y-2489246D01*
X4827206Y-2489246D02*
X4817682Y-2441627D01*
X4817682Y-2441627D02*
X4808158Y-2413055D01*
X4808158Y-2413055D02*
X4798634Y-2394008D01*
X4798634Y-2394008D02*
X4779587Y-2365436D01*
X4779587Y-2365436D02*
X4770063Y-2355912D01*
D19*
X-200500Y-2659250D02*
X-5000Y-2854750D01*
X-5000Y-2659250D02*
X-200500Y-2854750D01*
X-102750Y-2854750D02*
X-5000Y-2757000D01*
X-102750Y-2659250D01*
X-200500Y-2757000D01*
X-102750Y-2854750D01*
D11*
X360539Y-2848484D02*
X246253Y-2848484D01*
X303396Y-2848484D02*
X303396Y-2648484D01*
X303396Y-2648484D02*
X284348Y-2677055D01*
X284348Y-2677055D02*
X265301Y-2696103D01*
X265301Y-2696103D02*
X246253Y-2705627D01*
X446253Y-2829436D02*
X455777Y-2838960D01*
X455777Y-2838960D02*
X446253Y-2848484D01*
X446253Y-2848484D02*
X436729Y-2838960D01*
X436729Y-2838960D02*
X446253Y-2829436D01*
X446253Y-2829436D02*
X446253Y-2848484D01*
X551015Y-2848484D02*
X589110Y-2848484D01*
X589110Y-2848484D02*
X608158Y-2838960D01*
X608158Y-2838960D02*
X617682Y-2829436D01*
X617682Y-2829436D02*
X636729Y-2800865D01*
X636729Y-2800865D02*
X646253Y-2762770D01*
X646253Y-2762770D02*
X646253Y-2686579D01*
X646253Y-2686579D02*
X636729Y-2667531D01*
X636729Y-2667531D02*
X627205Y-2658008D01*
X627205Y-2658008D02*
X608158Y-2648484D01*
X608158Y-2648484D02*
X570063Y-2648484D01*
X570063Y-2648484D02*
X551015Y-2658008D01*
X551015Y-2658008D02*
X541491Y-2667531D01*
X541491Y-2667531D02*
X531967Y-2686579D01*
X531967Y-2686579D02*
X531967Y-2734198D01*
X531967Y-2734198D02*
X541491Y-2753246D01*
X541491Y-2753246D02*
X551015Y-2762770D01*
X551015Y-2762770D02*
X570063Y-2772293D01*
X570063Y-2772293D02*
X608158Y-2772293D01*
X608158Y-2772293D02*
X627205Y-2762770D01*
X627205Y-2762770D02*
X636729Y-2753246D01*
X636729Y-2753246D02*
X646253Y-2734198D01*
X827205Y-2648484D02*
X731967Y-2648484D01*
X731967Y-2648484D02*
X722443Y-2743722D01*
X722443Y-2743722D02*
X731967Y-2734198D01*
X731967Y-2734198D02*
X751015Y-2724674D01*
X751015Y-2724674D02*
X798634Y-2724674D01*
X798634Y-2724674D02*
X817682Y-2734198D01*
X817682Y-2734198D02*
X827205Y-2743722D01*
X827205Y-2743722D02*
X836729Y-2762770D01*
X836729Y-2762770D02*
X836729Y-2810388D01*
X836729Y-2810388D02*
X827205Y-2829436D01*
X827205Y-2829436D02*
X817682Y-2838960D01*
X817682Y-2838960D02*
X798634Y-2848484D01*
X798634Y-2848484D02*
X751015Y-2848484D01*
X751015Y-2848484D02*
X731967Y-2838960D01*
X731967Y-2838960D02*
X722443Y-2829436D01*
X1017682Y-2648484D02*
X922443Y-2648484D01*
X922443Y-2648484D02*
X912920Y-2743722D01*
X912920Y-2743722D02*
X922443Y-2734198D01*
X922443Y-2734198D02*
X941491Y-2724674D01*
X941491Y-2724674D02*
X989110Y-2724674D01*
X989110Y-2724674D02*
X1008158Y-2734198D01*
X1008158Y-2734198D02*
X1017682Y-2743722D01*
X1017682Y-2743722D02*
X1027205Y-2762770D01*
X1027205Y-2762770D02*
X1027205Y-2810388D01*
X1027205Y-2810388D02*
X1017682Y-2829436D01*
X1017682Y-2829436D02*
X1008158Y-2838960D01*
X1008158Y-2838960D02*
X989110Y-2848484D01*
X989110Y-2848484D02*
X941491Y-2848484D01*
X941491Y-2848484D02*
X922443Y-2838960D01*
X922443Y-2838960D02*
X912920Y-2829436D01*
X1112920Y-2848484D02*
X1112920Y-2715150D01*
X1112920Y-2734198D02*
X1122444Y-2724674D01*
X1122444Y-2724674D02*
X1141491Y-2715150D01*
X1141491Y-2715150D02*
X1170063Y-2715150D01*
X1170063Y-2715150D02*
X1189110Y-2724674D01*
X1189110Y-2724674D02*
X1198634Y-2743722D01*
X1198634Y-2743722D02*
X1198634Y-2848484D01*
X1198634Y-2743722D02*
X1208158Y-2724674D01*
X1208158Y-2724674D02*
X1227205Y-2715150D01*
X1227205Y-2715150D02*
X1255777Y-2715150D01*
X1255777Y-2715150D02*
X1274825Y-2724674D01*
X1274825Y-2724674D02*
X1284348Y-2743722D01*
X1284348Y-2743722D02*
X1284348Y-2848484D01*
X1379586Y-2848484D02*
X1379586Y-2715150D01*
X1379586Y-2734198D02*
X1389110Y-2724674D01*
X1389110Y-2724674D02*
X1408158Y-2715150D01*
X1408158Y-2715150D02*
X1436729Y-2715150D01*
X1436729Y-2715150D02*
X1455777Y-2724674D01*
X1455777Y-2724674D02*
X1465301Y-2743722D01*
X1465301Y-2743722D02*
X1465301Y-2848484D01*
X1465301Y-2743722D02*
X1474824Y-2724674D01*
X1474824Y-2724674D02*
X1493872Y-2715150D01*
X1493872Y-2715150D02*
X1522443Y-2715150D01*
X1522443Y-2715150D02*
X1541491Y-2724674D01*
X1541491Y-2724674D02*
X1551015Y-2743722D01*
X1551015Y-2743722D02*
X1551015Y-2848484D01*
X1941491Y-2638960D02*
X1770063Y-2896103D01*
X2198634Y-2648484D02*
X2217682Y-2648484D01*
X2217682Y-2648484D02*
X2236729Y-2658008D01*
X2236729Y-2658008D02*
X2246253Y-2667531D01*
X2246253Y-2667531D02*
X2255777Y-2686579D01*
X2255777Y-2686579D02*
X2265301Y-2724674D01*
X2265301Y-2724674D02*
X2265301Y-2772293D01*
X2265301Y-2772293D02*
X2255777Y-2810388D01*
X2255777Y-2810388D02*
X2246253Y-2829436D01*
X2246253Y-2829436D02*
X2236729Y-2838960D01*
X2236729Y-2838960D02*
X2217682Y-2848484D01*
X2217682Y-2848484D02*
X2198634Y-2848484D01*
X2198634Y-2848484D02*
X2179587Y-2838960D01*
X2179587Y-2838960D02*
X2170063Y-2829436D01*
X2170063Y-2829436D02*
X2160539Y-2810388D01*
X2160539Y-2810388D02*
X2151015Y-2772293D01*
X2151015Y-2772293D02*
X2151015Y-2724674D01*
X2151015Y-2724674D02*
X2160539Y-2686579D01*
X2160539Y-2686579D02*
X2170063Y-2667531D01*
X2170063Y-2667531D02*
X2179587Y-2658008D01*
X2179587Y-2658008D02*
X2198634Y-2648484D01*
X2351015Y-2829436D02*
X2360539Y-2838960D01*
X2360539Y-2838960D02*
X2351015Y-2848484D01*
X2351015Y-2848484D02*
X2341491Y-2838960D01*
X2341491Y-2838960D02*
X2351015Y-2829436D01*
X2351015Y-2829436D02*
X2351015Y-2848484D01*
X2484348Y-2648484D02*
X2503396Y-2648484D01*
X2503396Y-2648484D02*
X2522444Y-2658008D01*
X2522444Y-2658008D02*
X2531968Y-2667531D01*
X2531968Y-2667531D02*
X2541491Y-2686579D01*
X2541491Y-2686579D02*
X2551015Y-2724674D01*
X2551015Y-2724674D02*
X2551015Y-2772293D01*
X2551015Y-2772293D02*
X2541491Y-2810388D01*
X2541491Y-2810388D02*
X2531968Y-2829436D01*
X2531968Y-2829436D02*
X2522444Y-2838960D01*
X2522444Y-2838960D02*
X2503396Y-2848484D01*
X2503396Y-2848484D02*
X2484348Y-2848484D01*
X2484348Y-2848484D02*
X2465301Y-2838960D01*
X2465301Y-2838960D02*
X2455777Y-2829436D01*
X2455777Y-2829436D02*
X2446253Y-2810388D01*
X2446253Y-2810388D02*
X2436729Y-2772293D01*
X2436729Y-2772293D02*
X2436729Y-2724674D01*
X2436729Y-2724674D02*
X2446253Y-2686579D01*
X2446253Y-2686579D02*
X2455777Y-2667531D01*
X2455777Y-2667531D02*
X2465301Y-2658008D01*
X2465301Y-2658008D02*
X2484348Y-2648484D01*
X2617682Y-2648484D02*
X2751015Y-2648484D01*
X2751015Y-2648484D02*
X2665301Y-2848484D01*
X2808158Y-2648484D02*
X2941491Y-2648484D01*
X2941491Y-2648484D02*
X2855777Y-2848484D01*
X3055777Y-2648484D02*
X3074825Y-2648484D01*
X3074825Y-2648484D02*
X3093872Y-2658008D01*
X3093872Y-2658008D02*
X3103396Y-2667531D01*
X3103396Y-2667531D02*
X3112920Y-2686579D01*
X3112920Y-2686579D02*
X3122444Y-2724674D01*
X3122444Y-2724674D02*
X3122444Y-2772293D01*
X3122444Y-2772293D02*
X3112920Y-2810388D01*
X3112920Y-2810388D02*
X3103396Y-2829436D01*
X3103396Y-2829436D02*
X3093872Y-2838960D01*
X3093872Y-2838960D02*
X3074825Y-2848484D01*
X3074825Y-2848484D02*
X3055777Y-2848484D01*
X3055777Y-2848484D02*
X3036729Y-2838960D01*
X3036729Y-2838960D02*
X3027206Y-2829436D01*
X3027206Y-2829436D02*
X3017682Y-2810388D01*
X3017682Y-2810388D02*
X3008158Y-2772293D01*
X3008158Y-2772293D02*
X3008158Y-2724674D01*
X3008158Y-2724674D02*
X3017682Y-2686579D01*
X3017682Y-2686579D02*
X3027206Y-2667531D01*
X3027206Y-2667531D02*
X3036729Y-2658008D01*
X3036729Y-2658008D02*
X3055777Y-2648484D01*
X3198634Y-2648484D02*
X3198634Y-2686579D01*
X3274825Y-2648484D02*
X3274825Y-2686579D01*
X3570063Y-2924674D02*
X3560539Y-2915150D01*
X3560539Y-2915150D02*
X3541491Y-2886579D01*
X3541491Y-2886579D02*
X3531968Y-2867531D01*
X3531968Y-2867531D02*
X3522444Y-2838960D01*
X3522444Y-2838960D02*
X3512920Y-2791341D01*
X3512920Y-2791341D02*
X3512920Y-2753246D01*
X3512920Y-2753246D02*
X3522444Y-2705627D01*
X3522444Y-2705627D02*
X3531968Y-2677055D01*
X3531968Y-2677055D02*
X3541491Y-2658008D01*
X3541491Y-2658008D02*
X3560539Y-2629436D01*
X3560539Y-2629436D02*
X3570063Y-2619912D01*
X3731968Y-2715150D02*
X3731968Y-2848484D01*
X3684348Y-2638960D02*
X3636729Y-2781817D01*
X3636729Y-2781817D02*
X3760539Y-2781817D01*
X3989110Y-2848484D02*
X3989110Y-2648484D01*
X4074825Y-2848484D02*
X4074825Y-2743722D01*
X4074825Y-2743722D02*
X4065301Y-2724674D01*
X4065301Y-2724674D02*
X4046253Y-2715150D01*
X4046253Y-2715150D02*
X4017682Y-2715150D01*
X4017682Y-2715150D02*
X3998634Y-2724674D01*
X3998634Y-2724674D02*
X3989110Y-2734198D01*
X4198634Y-2848484D02*
X4179587Y-2838960D01*
X4179587Y-2838960D02*
X4170063Y-2829436D01*
X4170063Y-2829436D02*
X4160539Y-2810388D01*
X4160539Y-2810388D02*
X4160539Y-2753246D01*
X4160539Y-2753246D02*
X4170063Y-2734198D01*
X4170063Y-2734198D02*
X4179587Y-2724674D01*
X4179587Y-2724674D02*
X4198634Y-2715150D01*
X4198634Y-2715150D02*
X4227206Y-2715150D01*
X4227206Y-2715150D02*
X4246253Y-2724674D01*
X4246253Y-2724674D02*
X4255777Y-2734198D01*
X4255777Y-2734198D02*
X4265301Y-2753246D01*
X4265301Y-2753246D02*
X4265301Y-2810388D01*
X4265301Y-2810388D02*
X4255777Y-2829436D01*
X4255777Y-2829436D02*
X4246253Y-2838960D01*
X4246253Y-2838960D02*
X4227206Y-2848484D01*
X4227206Y-2848484D02*
X4198634Y-2848484D01*
X4379587Y-2848484D02*
X4360539Y-2838960D01*
X4360539Y-2838960D02*
X4351015Y-2819912D01*
X4351015Y-2819912D02*
X4351015Y-2648484D01*
X4531968Y-2838960D02*
X4512920Y-2848484D01*
X4512920Y-2848484D02*
X4474825Y-2848484D01*
X4474825Y-2848484D02*
X4455777Y-2838960D01*
X4455777Y-2838960D02*
X4446253Y-2819912D01*
X4446253Y-2819912D02*
X4446253Y-2743722D01*
X4446253Y-2743722D02*
X4455777Y-2724674D01*
X4455777Y-2724674D02*
X4474825Y-2715150D01*
X4474825Y-2715150D02*
X4512920Y-2715150D01*
X4512920Y-2715150D02*
X4531968Y-2724674D01*
X4531968Y-2724674D02*
X4541492Y-2743722D01*
X4541492Y-2743722D02*
X4541492Y-2762770D01*
X4541492Y-2762770D02*
X4446253Y-2781817D01*
X4617682Y-2838960D02*
X4636730Y-2848484D01*
X4636730Y-2848484D02*
X4674825Y-2848484D01*
X4674825Y-2848484D02*
X4693873Y-2838960D01*
X4693873Y-2838960D02*
X4703396Y-2819912D01*
X4703396Y-2819912D02*
X4703396Y-2810388D01*
X4703396Y-2810388D02*
X4693873Y-2791341D01*
X4693873Y-2791341D02*
X4674825Y-2781817D01*
X4674825Y-2781817D02*
X4646253Y-2781817D01*
X4646253Y-2781817D02*
X4627206Y-2772293D01*
X4627206Y-2772293D02*
X4617682Y-2753246D01*
X4617682Y-2753246D02*
X4617682Y-2743722D01*
X4617682Y-2743722D02*
X4627206Y-2724674D01*
X4627206Y-2724674D02*
X4646253Y-2715150D01*
X4646253Y-2715150D02*
X4674825Y-2715150D01*
X4674825Y-2715150D02*
X4693873Y-2724674D01*
X4770063Y-2924674D02*
X4779587Y-2915150D01*
X4779587Y-2915150D02*
X4798634Y-2886579D01*
X4798634Y-2886579D02*
X4808158Y-2867531D01*
X4808158Y-2867531D02*
X4817682Y-2838960D01*
X4817682Y-2838960D02*
X4827206Y-2791341D01*
X4827206Y-2791341D02*
X4827206Y-2753246D01*
X4827206Y-2753246D02*
X4817682Y-2705627D01*
X4817682Y-2705627D02*
X4808158Y-2677055D01*
X4808158Y-2677055D02*
X4798634Y-2658008D01*
X4798634Y-2658008D02*
X4779587Y-2629436D01*
X4779587Y-2629436D02*
X4770063Y-2619912D01*
X-105000Y-2972500D02*
X-105000Y-3172500D01*
X-205000Y-3072500D02*
X-5000Y-3072500D01*
X-5000Y-3072500D02*
G75*
G03*
X-5000Y-3072500I-100000J0D01*
G01*
X246253Y-2983031D02*
X255777Y-2973508D01*
X255777Y-2973508D02*
X274824Y-2963984D01*
X274824Y-2963984D02*
X322444Y-2963984D01*
X322444Y-2963984D02*
X341491Y-2973508D01*
X341491Y-2973508D02*
X351015Y-2983031D01*
X351015Y-2983031D02*
X360539Y-3002079D01*
X360539Y-3002079D02*
X360539Y-3021127D01*
X360539Y-3021127D02*
X351015Y-3049698D01*
X351015Y-3049698D02*
X236729Y-3163984D01*
X236729Y-3163984D02*
X360539Y-3163984D01*
X446253Y-3144936D02*
X455777Y-3154460D01*
X455777Y-3154460D02*
X446253Y-3163984D01*
X446253Y-3163984D02*
X436729Y-3154460D01*
X436729Y-3154460D02*
X446253Y-3144936D01*
X446253Y-3144936D02*
X446253Y-3163984D01*
X522443Y-2963984D02*
X646253Y-2963984D01*
X646253Y-2963984D02*
X579586Y-3040174D01*
X579586Y-3040174D02*
X608158Y-3040174D01*
X608158Y-3040174D02*
X627205Y-3049698D01*
X627205Y-3049698D02*
X636729Y-3059222D01*
X636729Y-3059222D02*
X646253Y-3078269D01*
X646253Y-3078269D02*
X646253Y-3125888D01*
X646253Y-3125888D02*
X636729Y-3144936D01*
X636729Y-3144936D02*
X627205Y-3154460D01*
X627205Y-3154460D02*
X608158Y-3163984D01*
X608158Y-3163984D02*
X551015Y-3163984D01*
X551015Y-3163984D02*
X531967Y-3154460D01*
X531967Y-3154460D02*
X522443Y-3144936D01*
X817682Y-2963984D02*
X779586Y-2963984D01*
X779586Y-2963984D02*
X760539Y-2973508D01*
X760539Y-2973508D02*
X751015Y-2983031D01*
X751015Y-2983031D02*
X731967Y-3011603D01*
X731967Y-3011603D02*
X722443Y-3049698D01*
X722443Y-3049698D02*
X722443Y-3125888D01*
X722443Y-3125888D02*
X731967Y-3144936D01*
X731967Y-3144936D02*
X741491Y-3154460D01*
X741491Y-3154460D02*
X760539Y-3163984D01*
X760539Y-3163984D02*
X798634Y-3163984D01*
X798634Y-3163984D02*
X817682Y-3154460D01*
X817682Y-3154460D02*
X827205Y-3144936D01*
X827205Y-3144936D02*
X836729Y-3125888D01*
X836729Y-3125888D02*
X836729Y-3078269D01*
X836729Y-3078269D02*
X827205Y-3059222D01*
X827205Y-3059222D02*
X817682Y-3049698D01*
X817682Y-3049698D02*
X798634Y-3040174D01*
X798634Y-3040174D02*
X760539Y-3040174D01*
X760539Y-3040174D02*
X741491Y-3049698D01*
X741491Y-3049698D02*
X731967Y-3059222D01*
X731967Y-3059222D02*
X722443Y-3078269D01*
X960539Y-2963984D02*
X979586Y-2963984D01*
X979586Y-2963984D02*
X998634Y-2973508D01*
X998634Y-2973508D02*
X1008158Y-2983031D01*
X1008158Y-2983031D02*
X1017682Y-3002079D01*
X1017682Y-3002079D02*
X1027205Y-3040174D01*
X1027205Y-3040174D02*
X1027205Y-3087793D01*
X1027205Y-3087793D02*
X1017682Y-3125888D01*
X1017682Y-3125888D02*
X1008158Y-3144936D01*
X1008158Y-3144936D02*
X998634Y-3154460D01*
X998634Y-3154460D02*
X979586Y-3163984D01*
X979586Y-3163984D02*
X960539Y-3163984D01*
X960539Y-3163984D02*
X941491Y-3154460D01*
X941491Y-3154460D02*
X931967Y-3144936D01*
X931967Y-3144936D02*
X922443Y-3125888D01*
X922443Y-3125888D02*
X912920Y-3087793D01*
X912920Y-3087793D02*
X912920Y-3040174D01*
X912920Y-3040174D02*
X922443Y-3002079D01*
X922443Y-3002079D02*
X931967Y-2983031D01*
X931967Y-2983031D02*
X941491Y-2973508D01*
X941491Y-2973508D02*
X960539Y-2963984D01*
X1112920Y-3163984D02*
X1112920Y-3030650D01*
X1112920Y-3049698D02*
X1122444Y-3040174D01*
X1122444Y-3040174D02*
X1141491Y-3030650D01*
X1141491Y-3030650D02*
X1170063Y-3030650D01*
X1170063Y-3030650D02*
X1189110Y-3040174D01*
X1189110Y-3040174D02*
X1198634Y-3059222D01*
X1198634Y-3059222D02*
X1198634Y-3163984D01*
X1198634Y-3059222D02*
X1208158Y-3040174D01*
X1208158Y-3040174D02*
X1227205Y-3030650D01*
X1227205Y-3030650D02*
X1255777Y-3030650D01*
X1255777Y-3030650D02*
X1274825Y-3040174D01*
X1274825Y-3040174D02*
X1284348Y-3059222D01*
X1284348Y-3059222D02*
X1284348Y-3163984D01*
X1379586Y-3163984D02*
X1379586Y-3030650D01*
X1379586Y-3049698D02*
X1389110Y-3040174D01*
X1389110Y-3040174D02*
X1408158Y-3030650D01*
X1408158Y-3030650D02*
X1436729Y-3030650D01*
X1436729Y-3030650D02*
X1455777Y-3040174D01*
X1455777Y-3040174D02*
X1465301Y-3059222D01*
X1465301Y-3059222D02*
X1465301Y-3163984D01*
X1465301Y-3059222D02*
X1474824Y-3040174D01*
X1474824Y-3040174D02*
X1493872Y-3030650D01*
X1493872Y-3030650D02*
X1522443Y-3030650D01*
X1522443Y-3030650D02*
X1541491Y-3040174D01*
X1541491Y-3040174D02*
X1551015Y-3059222D01*
X1551015Y-3059222D02*
X1551015Y-3163984D01*
X1941491Y-2954460D02*
X1770063Y-3211603D01*
X2198634Y-2963984D02*
X2217682Y-2963984D01*
X2217682Y-2963984D02*
X2236729Y-2973508D01*
X2236729Y-2973508D02*
X2246253Y-2983031D01*
X2246253Y-2983031D02*
X2255777Y-3002079D01*
X2255777Y-3002079D02*
X2265301Y-3040174D01*
X2265301Y-3040174D02*
X2265301Y-3087793D01*
X2265301Y-3087793D02*
X2255777Y-3125888D01*
X2255777Y-3125888D02*
X2246253Y-3144936D01*
X2246253Y-3144936D02*
X2236729Y-3154460D01*
X2236729Y-3154460D02*
X2217682Y-3163984D01*
X2217682Y-3163984D02*
X2198634Y-3163984D01*
X2198634Y-3163984D02*
X2179587Y-3154460D01*
X2179587Y-3154460D02*
X2170063Y-3144936D01*
X2170063Y-3144936D02*
X2160539Y-3125888D01*
X2160539Y-3125888D02*
X2151015Y-3087793D01*
X2151015Y-3087793D02*
X2151015Y-3040174D01*
X2151015Y-3040174D02*
X2160539Y-3002079D01*
X2160539Y-3002079D02*
X2170063Y-2983031D01*
X2170063Y-2983031D02*
X2179587Y-2973508D01*
X2179587Y-2973508D02*
X2198634Y-2963984D01*
X2351015Y-3144936D02*
X2360539Y-3154460D01*
X2360539Y-3154460D02*
X2351015Y-3163984D01*
X2351015Y-3163984D02*
X2341491Y-3154460D01*
X2341491Y-3154460D02*
X2351015Y-3144936D01*
X2351015Y-3144936D02*
X2351015Y-3163984D01*
X2484348Y-2963984D02*
X2503396Y-2963984D01*
X2503396Y-2963984D02*
X2522444Y-2973508D01*
X2522444Y-2973508D02*
X2531968Y-2983031D01*
X2531968Y-2983031D02*
X2541491Y-3002079D01*
X2541491Y-3002079D02*
X2551015Y-3040174D01*
X2551015Y-3040174D02*
X2551015Y-3087793D01*
X2551015Y-3087793D02*
X2541491Y-3125888D01*
X2541491Y-3125888D02*
X2531968Y-3144936D01*
X2531968Y-3144936D02*
X2522444Y-3154460D01*
X2522444Y-3154460D02*
X2503396Y-3163984D01*
X2503396Y-3163984D02*
X2484348Y-3163984D01*
X2484348Y-3163984D02*
X2465301Y-3154460D01*
X2465301Y-3154460D02*
X2455777Y-3144936D01*
X2455777Y-3144936D02*
X2446253Y-3125888D01*
X2446253Y-3125888D02*
X2436729Y-3087793D01*
X2436729Y-3087793D02*
X2436729Y-3040174D01*
X2436729Y-3040174D02*
X2446253Y-3002079D01*
X2446253Y-3002079D02*
X2455777Y-2983031D01*
X2455777Y-2983031D02*
X2465301Y-2973508D01*
X2465301Y-2973508D02*
X2484348Y-2963984D01*
X2646253Y-3163984D02*
X2684348Y-3163984D01*
X2684348Y-3163984D02*
X2703396Y-3154460D01*
X2703396Y-3154460D02*
X2712920Y-3144936D01*
X2712920Y-3144936D02*
X2731968Y-3116365D01*
X2731968Y-3116365D02*
X2741491Y-3078269D01*
X2741491Y-3078269D02*
X2741491Y-3002079D01*
X2741491Y-3002079D02*
X2731968Y-2983031D01*
X2731968Y-2983031D02*
X2722444Y-2973508D01*
X2722444Y-2973508D02*
X2703396Y-2963984D01*
X2703396Y-2963984D02*
X2665301Y-2963984D01*
X2665301Y-2963984D02*
X2646253Y-2973508D01*
X2646253Y-2973508D02*
X2636729Y-2983031D01*
X2636729Y-2983031D02*
X2627206Y-3002079D01*
X2627206Y-3002079D02*
X2627206Y-3049698D01*
X2627206Y-3049698D02*
X2636729Y-3068746D01*
X2636729Y-3068746D02*
X2646253Y-3078269D01*
X2646253Y-3078269D02*
X2665301Y-3087793D01*
X2665301Y-3087793D02*
X2703396Y-3087793D01*
X2703396Y-3087793D02*
X2722444Y-3078269D01*
X2722444Y-3078269D02*
X2731968Y-3068746D01*
X2731968Y-3068746D02*
X2741491Y-3049698D01*
X2817682Y-2983031D02*
X2827206Y-2973508D01*
X2827206Y-2973508D02*
X2846253Y-2963984D01*
X2846253Y-2963984D02*
X2893872Y-2963984D01*
X2893872Y-2963984D02*
X2912920Y-2973508D01*
X2912920Y-2973508D02*
X2922444Y-2983031D01*
X2922444Y-2983031D02*
X2931967Y-3002079D01*
X2931967Y-3002079D02*
X2931967Y-3021127D01*
X2931967Y-3021127D02*
X2922444Y-3049698D01*
X2922444Y-3049698D02*
X2808158Y-3163984D01*
X2808158Y-3163984D02*
X2931967Y-3163984D01*
X3027206Y-3163984D02*
X3065301Y-3163984D01*
X3065301Y-3163984D02*
X3084348Y-3154460D01*
X3084348Y-3154460D02*
X3093872Y-3144936D01*
X3093872Y-3144936D02*
X3112920Y-3116365D01*
X3112920Y-3116365D02*
X3122444Y-3078269D01*
X3122444Y-3078269D02*
X3122444Y-3002079D01*
X3122444Y-3002079D02*
X3112920Y-2983031D01*
X3112920Y-2983031D02*
X3103396Y-2973508D01*
X3103396Y-2973508D02*
X3084348Y-2963984D01*
X3084348Y-2963984D02*
X3046253Y-2963984D01*
X3046253Y-2963984D02*
X3027206Y-2973508D01*
X3027206Y-2973508D02*
X3017682Y-2983031D01*
X3017682Y-2983031D02*
X3008158Y-3002079D01*
X3008158Y-3002079D02*
X3008158Y-3049698D01*
X3008158Y-3049698D02*
X3017682Y-3068746D01*
X3017682Y-3068746D02*
X3027206Y-3078269D01*
X3027206Y-3078269D02*
X3046253Y-3087793D01*
X3046253Y-3087793D02*
X3084348Y-3087793D01*
X3084348Y-3087793D02*
X3103396Y-3078269D01*
X3103396Y-3078269D02*
X3112920Y-3068746D01*
X3112920Y-3068746D02*
X3122444Y-3049698D01*
X3198634Y-2963984D02*
X3198634Y-3002079D01*
X3274825Y-2963984D02*
X3274825Y-3002079D01*
X3570063Y-3240174D02*
X3560539Y-3230650D01*
X3560539Y-3230650D02*
X3541491Y-3202079D01*
X3541491Y-3202079D02*
X3531968Y-3183031D01*
X3531968Y-3183031D02*
X3522444Y-3154460D01*
X3522444Y-3154460D02*
X3512920Y-3106841D01*
X3512920Y-3106841D02*
X3512920Y-3068746D01*
X3512920Y-3068746D02*
X3522444Y-3021127D01*
X3522444Y-3021127D02*
X3531968Y-2992555D01*
X3531968Y-2992555D02*
X3541491Y-2973508D01*
X3541491Y-2973508D02*
X3560539Y-2944936D01*
X3560539Y-2944936D02*
X3570063Y-2935412D01*
X3751015Y-3163984D02*
X3636729Y-3163984D01*
X3693872Y-3163984D02*
X3693872Y-2963984D01*
X3693872Y-2963984D02*
X3674825Y-2992555D01*
X3674825Y-2992555D02*
X3655777Y-3011603D01*
X3655777Y-3011603D02*
X3636729Y-3021127D01*
X3989110Y-3163984D02*
X3989110Y-2963984D01*
X4074825Y-3163984D02*
X4074825Y-3059222D01*
X4074825Y-3059222D02*
X4065301Y-3040174D01*
X4065301Y-3040174D02*
X4046253Y-3030650D01*
X4046253Y-3030650D02*
X4017682Y-3030650D01*
X4017682Y-3030650D02*
X3998634Y-3040174D01*
X3998634Y-3040174D02*
X3989110Y-3049698D01*
X4198634Y-3163984D02*
X4179587Y-3154460D01*
X4179587Y-3154460D02*
X4170063Y-3144936D01*
X4170063Y-3144936D02*
X4160539Y-3125888D01*
X4160539Y-3125888D02*
X4160539Y-3068746D01*
X4160539Y-3068746D02*
X4170063Y-3049698D01*
X4170063Y-3049698D02*
X4179587Y-3040174D01*
X4179587Y-3040174D02*
X4198634Y-3030650D01*
X4198634Y-3030650D02*
X4227206Y-3030650D01*
X4227206Y-3030650D02*
X4246253Y-3040174D01*
X4246253Y-3040174D02*
X4255777Y-3049698D01*
X4255777Y-3049698D02*
X4265301Y-3068746D01*
X4265301Y-3068746D02*
X4265301Y-3125888D01*
X4265301Y-3125888D02*
X4255777Y-3144936D01*
X4255777Y-3144936D02*
X4246253Y-3154460D01*
X4246253Y-3154460D02*
X4227206Y-3163984D01*
X4227206Y-3163984D02*
X4198634Y-3163984D01*
X4379587Y-3163984D02*
X4360539Y-3154460D01*
X4360539Y-3154460D02*
X4351015Y-3135412D01*
X4351015Y-3135412D02*
X4351015Y-2963984D01*
X4531968Y-3154460D02*
X4512920Y-3163984D01*
X4512920Y-3163984D02*
X4474825Y-3163984D01*
X4474825Y-3163984D02*
X4455777Y-3154460D01*
X4455777Y-3154460D02*
X4446253Y-3135412D01*
X4446253Y-3135412D02*
X4446253Y-3059222D01*
X4446253Y-3059222D02*
X4455777Y-3040174D01*
X4455777Y-3040174D02*
X4474825Y-3030650D01*
X4474825Y-3030650D02*
X4512920Y-3030650D01*
X4512920Y-3030650D02*
X4531968Y-3040174D01*
X4531968Y-3040174D02*
X4541492Y-3059222D01*
X4541492Y-3059222D02*
X4541492Y-3078269D01*
X4541492Y-3078269D02*
X4446253Y-3097317D01*
X4608158Y-3240174D02*
X4617682Y-3230650D01*
X4617682Y-3230650D02*
X4636730Y-3202079D01*
X4636730Y-3202079D02*
X4646253Y-3183031D01*
X4646253Y-3183031D02*
X4655777Y-3154460D01*
X4655777Y-3154460D02*
X4665301Y-3106841D01*
X4665301Y-3106841D02*
X4665301Y-3068746D01*
X4665301Y-3068746D02*
X4655777Y-3021127D01*
X4655777Y-3021127D02*
X4646253Y-2992555D01*
X4646253Y-2992555D02*
X4636730Y-2973508D01*
X4636730Y-2973508D02*
X4617682Y-2944936D01*
X4617682Y-2944936D02*
X4608158Y-2935412D01*
X-34289Y-3463211D02*
X-34289Y-3321789D01*
X-175711Y-3321789D01*
X-175711Y-3463211D01*
X-34289Y-3463211D01*
X-5000Y-3392500D02*
G75*
G03*
X-5000Y-3392500I-100000J0D01*
G01*
X236729Y-3283984D02*
X360539Y-3283984D01*
X360539Y-3283984D02*
X293872Y-3360174D01*
X293872Y-3360174D02*
X322444Y-3360174D01*
X322444Y-3360174D02*
X341491Y-3369698D01*
X341491Y-3369698D02*
X351015Y-3379222D01*
X351015Y-3379222D02*
X360539Y-3398269D01*
X360539Y-3398269D02*
X360539Y-3445888D01*
X360539Y-3445888D02*
X351015Y-3464936D01*
X351015Y-3464936D02*
X341491Y-3474460D01*
X341491Y-3474460D02*
X322444Y-3483984D01*
X322444Y-3483984D02*
X265301Y-3483984D01*
X265301Y-3483984D02*
X246253Y-3474460D01*
X246253Y-3474460D02*
X236729Y-3464936D01*
X446253Y-3464936D02*
X455777Y-3474460D01*
X455777Y-3474460D02*
X446253Y-3483984D01*
X446253Y-3483984D02*
X436729Y-3474460D01*
X436729Y-3474460D02*
X446253Y-3464936D01*
X446253Y-3464936D02*
X446253Y-3483984D01*
X646253Y-3483984D02*
X531967Y-3483984D01*
X589110Y-3483984D02*
X589110Y-3283984D01*
X589110Y-3283984D02*
X570063Y-3312555D01*
X570063Y-3312555D02*
X551015Y-3331603D01*
X551015Y-3331603D02*
X531967Y-3341127D01*
X760539Y-3369698D02*
X741491Y-3360174D01*
X741491Y-3360174D02*
X731967Y-3350650D01*
X731967Y-3350650D02*
X722443Y-3331603D01*
X722443Y-3331603D02*
X722443Y-3322079D01*
X722443Y-3322079D02*
X731967Y-3303031D01*
X731967Y-3303031D02*
X741491Y-3293508D01*
X741491Y-3293508D02*
X760539Y-3283984D01*
X760539Y-3283984D02*
X798634Y-3283984D01*
X798634Y-3283984D02*
X817682Y-3293508D01*
X817682Y-3293508D02*
X827205Y-3303031D01*
X827205Y-3303031D02*
X836729Y-3322079D01*
X836729Y-3322079D02*
X836729Y-3331603D01*
X836729Y-3331603D02*
X827205Y-3350650D01*
X827205Y-3350650D02*
X817682Y-3360174D01*
X817682Y-3360174D02*
X798634Y-3369698D01*
X798634Y-3369698D02*
X760539Y-3369698D01*
X760539Y-3369698D02*
X741491Y-3379222D01*
X741491Y-3379222D02*
X731967Y-3388746D01*
X731967Y-3388746D02*
X722443Y-3407793D01*
X722443Y-3407793D02*
X722443Y-3445888D01*
X722443Y-3445888D02*
X731967Y-3464936D01*
X731967Y-3464936D02*
X741491Y-3474460D01*
X741491Y-3474460D02*
X760539Y-3483984D01*
X760539Y-3483984D02*
X798634Y-3483984D01*
X798634Y-3483984D02*
X817682Y-3474460D01*
X817682Y-3474460D02*
X827205Y-3464936D01*
X827205Y-3464936D02*
X836729Y-3445888D01*
X836729Y-3445888D02*
X836729Y-3407793D01*
X836729Y-3407793D02*
X827205Y-3388746D01*
X827205Y-3388746D02*
X817682Y-3379222D01*
X817682Y-3379222D02*
X798634Y-3369698D01*
X960539Y-3283984D02*
X979586Y-3283984D01*
X979586Y-3283984D02*
X998634Y-3293508D01*
X998634Y-3293508D02*
X1008158Y-3303031D01*
X1008158Y-3303031D02*
X1017682Y-3322079D01*
X1017682Y-3322079D02*
X1027205Y-3360174D01*
X1027205Y-3360174D02*
X1027205Y-3407793D01*
X1027205Y-3407793D02*
X1017682Y-3445888D01*
X1017682Y-3445888D02*
X1008158Y-3464936D01*
X1008158Y-3464936D02*
X998634Y-3474460D01*
X998634Y-3474460D02*
X979586Y-3483984D01*
X979586Y-3483984D02*
X960539Y-3483984D01*
X960539Y-3483984D02*
X941491Y-3474460D01*
X941491Y-3474460D02*
X931967Y-3464936D01*
X931967Y-3464936D02*
X922443Y-3445888D01*
X922443Y-3445888D02*
X912920Y-3407793D01*
X912920Y-3407793D02*
X912920Y-3360174D01*
X912920Y-3360174D02*
X922443Y-3322079D01*
X922443Y-3322079D02*
X931967Y-3303031D01*
X931967Y-3303031D02*
X941491Y-3293508D01*
X941491Y-3293508D02*
X960539Y-3283984D01*
X1112920Y-3483984D02*
X1112920Y-3350650D01*
X1112920Y-3369698D02*
X1122444Y-3360174D01*
X1122444Y-3360174D02*
X1141491Y-3350650D01*
X1141491Y-3350650D02*
X1170063Y-3350650D01*
X1170063Y-3350650D02*
X1189110Y-3360174D01*
X1189110Y-3360174D02*
X1198634Y-3379222D01*
X1198634Y-3379222D02*
X1198634Y-3483984D01*
X1198634Y-3379222D02*
X1208158Y-3360174D01*
X1208158Y-3360174D02*
X1227205Y-3350650D01*
X1227205Y-3350650D02*
X1255777Y-3350650D01*
X1255777Y-3350650D02*
X1274825Y-3360174D01*
X1274825Y-3360174D02*
X1284348Y-3379222D01*
X1284348Y-3379222D02*
X1284348Y-3483984D01*
X1379586Y-3483984D02*
X1379586Y-3350650D01*
X1379586Y-3369698D02*
X1389110Y-3360174D01*
X1389110Y-3360174D02*
X1408158Y-3350650D01*
X1408158Y-3350650D02*
X1436729Y-3350650D01*
X1436729Y-3350650D02*
X1455777Y-3360174D01*
X1455777Y-3360174D02*
X1465301Y-3379222D01*
X1465301Y-3379222D02*
X1465301Y-3483984D01*
X1465301Y-3379222D02*
X1474824Y-3360174D01*
X1474824Y-3360174D02*
X1493872Y-3350650D01*
X1493872Y-3350650D02*
X1522443Y-3350650D01*
X1522443Y-3350650D02*
X1541491Y-3360174D01*
X1541491Y-3360174D02*
X1551015Y-3379222D01*
X1551015Y-3379222D02*
X1551015Y-3483984D01*
X1941491Y-3274460D02*
X1770063Y-3531603D01*
X2198634Y-3283984D02*
X2217682Y-3283984D01*
X2217682Y-3283984D02*
X2236729Y-3293508D01*
X2236729Y-3293508D02*
X2246253Y-3303031D01*
X2246253Y-3303031D02*
X2255777Y-3322079D01*
X2255777Y-3322079D02*
X2265301Y-3360174D01*
X2265301Y-3360174D02*
X2265301Y-3407793D01*
X2265301Y-3407793D02*
X2255777Y-3445888D01*
X2255777Y-3445888D02*
X2246253Y-3464936D01*
X2246253Y-3464936D02*
X2236729Y-3474460D01*
X2236729Y-3474460D02*
X2217682Y-3483984D01*
X2217682Y-3483984D02*
X2198634Y-3483984D01*
X2198634Y-3483984D02*
X2179587Y-3474460D01*
X2179587Y-3474460D02*
X2170063Y-3464936D01*
X2170063Y-3464936D02*
X2160539Y-3445888D01*
X2160539Y-3445888D02*
X2151015Y-3407793D01*
X2151015Y-3407793D02*
X2151015Y-3360174D01*
X2151015Y-3360174D02*
X2160539Y-3322079D01*
X2160539Y-3322079D02*
X2170063Y-3303031D01*
X2170063Y-3303031D02*
X2179587Y-3293508D01*
X2179587Y-3293508D02*
X2198634Y-3283984D01*
X2351015Y-3464936D02*
X2360539Y-3474460D01*
X2360539Y-3474460D02*
X2351015Y-3483984D01*
X2351015Y-3483984D02*
X2341491Y-3474460D01*
X2341491Y-3474460D02*
X2351015Y-3464936D01*
X2351015Y-3464936D02*
X2351015Y-3483984D01*
X2551015Y-3483984D02*
X2436729Y-3483984D01*
X2493872Y-3483984D02*
X2493872Y-3283984D01*
X2493872Y-3283984D02*
X2474825Y-3312555D01*
X2474825Y-3312555D02*
X2455777Y-3331603D01*
X2455777Y-3331603D02*
X2436729Y-3341127D01*
X2627206Y-3303031D02*
X2636729Y-3293508D01*
X2636729Y-3293508D02*
X2655777Y-3283984D01*
X2655777Y-3283984D02*
X2703396Y-3283984D01*
X2703396Y-3283984D02*
X2722444Y-3293508D01*
X2722444Y-3293508D02*
X2731968Y-3303031D01*
X2731968Y-3303031D02*
X2741491Y-3322079D01*
X2741491Y-3322079D02*
X2741491Y-3341127D01*
X2741491Y-3341127D02*
X2731968Y-3369698D01*
X2731968Y-3369698D02*
X2617682Y-3483984D01*
X2617682Y-3483984D02*
X2741491Y-3483984D01*
X2922444Y-3283984D02*
X2827206Y-3283984D01*
X2827206Y-3283984D02*
X2817682Y-3379222D01*
X2817682Y-3379222D02*
X2827206Y-3369698D01*
X2827206Y-3369698D02*
X2846253Y-3360174D01*
X2846253Y-3360174D02*
X2893872Y-3360174D01*
X2893872Y-3360174D02*
X2912920Y-3369698D01*
X2912920Y-3369698D02*
X2922444Y-3379222D01*
X2922444Y-3379222D02*
X2931967Y-3398269D01*
X2931967Y-3398269D02*
X2931967Y-3445888D01*
X2931967Y-3445888D02*
X2922444Y-3464936D01*
X2922444Y-3464936D02*
X2912920Y-3474460D01*
X2912920Y-3474460D02*
X2893872Y-3483984D01*
X2893872Y-3483984D02*
X2846253Y-3483984D01*
X2846253Y-3483984D02*
X2827206Y-3474460D01*
X2827206Y-3474460D02*
X2817682Y-3464936D01*
X3008158Y-3303031D02*
X3017682Y-3293508D01*
X3017682Y-3293508D02*
X3036729Y-3283984D01*
X3036729Y-3283984D02*
X3084348Y-3283984D01*
X3084348Y-3283984D02*
X3103396Y-3293508D01*
X3103396Y-3293508D02*
X3112920Y-3303031D01*
X3112920Y-3303031D02*
X3122444Y-3322079D01*
X3122444Y-3322079D02*
X3122444Y-3341127D01*
X3122444Y-3341127D02*
X3112920Y-3369698D01*
X3112920Y-3369698D02*
X2998634Y-3483984D01*
X2998634Y-3483984D02*
X3122444Y-3483984D01*
X3198634Y-3283984D02*
X3198634Y-3322079D01*
X3274825Y-3283984D02*
X3274825Y-3322079D01*
X3570063Y-3560174D02*
X3560539Y-3550650D01*
X3560539Y-3550650D02*
X3541491Y-3522079D01*
X3541491Y-3522079D02*
X3531968Y-3503031D01*
X3531968Y-3503031D02*
X3522444Y-3474460D01*
X3522444Y-3474460D02*
X3512920Y-3426841D01*
X3512920Y-3426841D02*
X3512920Y-3388746D01*
X3512920Y-3388746D02*
X3522444Y-3341127D01*
X3522444Y-3341127D02*
X3531968Y-3312555D01*
X3531968Y-3312555D02*
X3541491Y-3293508D01*
X3541491Y-3293508D02*
X3560539Y-3264936D01*
X3560539Y-3264936D02*
X3570063Y-3255412D01*
X3636729Y-3303031D02*
X3646253Y-3293508D01*
X3646253Y-3293508D02*
X3665301Y-3283984D01*
X3665301Y-3283984D02*
X3712920Y-3283984D01*
X3712920Y-3283984D02*
X3731968Y-3293508D01*
X3731968Y-3293508D02*
X3741491Y-3303031D01*
X3741491Y-3303031D02*
X3751015Y-3322079D01*
X3751015Y-3322079D02*
X3751015Y-3341127D01*
X3751015Y-3341127D02*
X3741491Y-3369698D01*
X3741491Y-3369698D02*
X3627206Y-3483984D01*
X3627206Y-3483984D02*
X3751015Y-3483984D01*
X3989110Y-3483984D02*
X3989110Y-3283984D01*
X4074825Y-3483984D02*
X4074825Y-3379222D01*
X4074825Y-3379222D02*
X4065301Y-3360174D01*
X4065301Y-3360174D02*
X4046253Y-3350650D01*
X4046253Y-3350650D02*
X4017682Y-3350650D01*
X4017682Y-3350650D02*
X3998634Y-3360174D01*
X3998634Y-3360174D02*
X3989110Y-3369698D01*
X4198634Y-3483984D02*
X4179587Y-3474460D01*
X4179587Y-3474460D02*
X4170063Y-3464936D01*
X4170063Y-3464936D02*
X4160539Y-3445888D01*
X4160539Y-3445888D02*
X4160539Y-3388746D01*
X4160539Y-3388746D02*
X4170063Y-3369698D01*
X4170063Y-3369698D02*
X4179587Y-3360174D01*
X4179587Y-3360174D02*
X4198634Y-3350650D01*
X4198634Y-3350650D02*
X4227206Y-3350650D01*
X4227206Y-3350650D02*
X4246253Y-3360174D01*
X4246253Y-3360174D02*
X4255777Y-3369698D01*
X4255777Y-3369698D02*
X4265301Y-3388746D01*
X4265301Y-3388746D02*
X4265301Y-3445888D01*
X4265301Y-3445888D02*
X4255777Y-3464936D01*
X4255777Y-3464936D02*
X4246253Y-3474460D01*
X4246253Y-3474460D02*
X4227206Y-3483984D01*
X4227206Y-3483984D02*
X4198634Y-3483984D01*
X4379587Y-3483984D02*
X4360539Y-3474460D01*
X4360539Y-3474460D02*
X4351015Y-3455412D01*
X4351015Y-3455412D02*
X4351015Y-3283984D01*
X4531968Y-3474460D02*
X4512920Y-3483984D01*
X4512920Y-3483984D02*
X4474825Y-3483984D01*
X4474825Y-3483984D02*
X4455777Y-3474460D01*
X4455777Y-3474460D02*
X4446253Y-3455412D01*
X4446253Y-3455412D02*
X4446253Y-3379222D01*
X4446253Y-3379222D02*
X4455777Y-3360174D01*
X4455777Y-3360174D02*
X4474825Y-3350650D01*
X4474825Y-3350650D02*
X4512920Y-3350650D01*
X4512920Y-3350650D02*
X4531968Y-3360174D01*
X4531968Y-3360174D02*
X4541492Y-3379222D01*
X4541492Y-3379222D02*
X4541492Y-3398269D01*
X4541492Y-3398269D02*
X4446253Y-3417317D01*
X4617682Y-3474460D02*
X4636730Y-3483984D01*
X4636730Y-3483984D02*
X4674825Y-3483984D01*
X4674825Y-3483984D02*
X4693873Y-3474460D01*
X4693873Y-3474460D02*
X4703396Y-3455412D01*
X4703396Y-3455412D02*
X4703396Y-3445888D01*
X4703396Y-3445888D02*
X4693873Y-3426841D01*
X4693873Y-3426841D02*
X4674825Y-3417317D01*
X4674825Y-3417317D02*
X4646253Y-3417317D01*
X4646253Y-3417317D02*
X4627206Y-3407793D01*
X4627206Y-3407793D02*
X4617682Y-3388746D01*
X4617682Y-3388746D02*
X4617682Y-3379222D01*
X4617682Y-3379222D02*
X4627206Y-3360174D01*
X4627206Y-3360174D02*
X4646253Y-3350650D01*
X4646253Y-3350650D02*
X4674825Y-3350650D01*
X4674825Y-3350650D02*
X4693873Y-3360174D01*
X4770063Y-3560174D02*
X4779587Y-3550650D01*
X4779587Y-3550650D02*
X4798634Y-3522079D01*
X4798634Y-3522079D02*
X4808158Y-3503031D01*
X4808158Y-3503031D02*
X4817682Y-3474460D01*
X4817682Y-3474460D02*
X4827206Y-3426841D01*
X4827206Y-3426841D02*
X4827206Y-3388746D01*
X4827206Y-3388746D02*
X4817682Y-3341127D01*
X4817682Y-3341127D02*
X4808158Y-3312555D01*
X4808158Y-3312555D02*
X4798634Y-3293508D01*
X4798634Y-3293508D02*
X4779587Y-3264936D01*
X4779587Y-3264936D02*
X4770063Y-3255412D01*
M02*
