%TF.GenerationSoftware,KiCad,Pcbnew,7.0.1*%
%TF.CreationDate,2023-05-17T13:30:03+02:00*%
%TF.ProjectId,Modbus_master,4d6f6462-7573-45f6-9d61-737465722e6b,rev?*%
%TF.SameCoordinates,Original*%
%TF.FileFunction,Profile,NP*%
%FSLAX46Y46*%
G04 Gerber Fmt 4.6, Leading zero omitted, Abs format (unit mm)*
G04 Created by KiCad (PCBNEW 7.0.1) date 2023-05-17 13:30:03*
%MOMM*%
%LPD*%
G01*
G04 APERTURE LIST*
%TA.AperFunction,Profile*%
%ADD10C,0.100000*%
%TD*%
G04 APERTURE END LIST*
D10*
X107560000Y-96130000D02*
X107559801Y-76020000D01*
X81000000Y-32000000D02*
X185000000Y-32000000D01*
X185000000Y-161000000D01*
X81000000Y-161000000D01*
X81000000Y-32000000D01*
X107559208Y-72030000D02*
X107560000Y-64130000D01*
X181000000Y-97000000D02*
G75*
G03*
X181000000Y-97000000I-2000000J0D01*
G01*
X84000000Y-40000000D02*
X84000000Y-37000000D01*
X148060000Y-53130000D02*
X134685000Y-53130000D01*
X155560000Y-112540000D02*
X155560000Y-120630000D01*
X177000000Y-40000000D02*
G75*
G03*
X181000000Y-40000000I2000000J0D01*
G01*
X155540001Y-89920000D02*
G75*
G03*
X157540049Y-89910000I999999J10000D01*
G01*
X134500000Y-40000000D02*
X134500000Y-37000000D01*
X148060000Y-66130000D02*
X155560000Y-66130000D01*
X130260000Y-143130000D02*
G75*
G03*
X130260000Y-141130000I0J1000000D01*
G01*
X134885000Y-141130000D02*
X148060000Y-141130000D01*
X155560000Y-66130000D02*
X155540000Y-89920000D01*
X155560000Y-128130000D02*
X155560000Y-121620000D01*
X157540049Y-89910000D02*
X157560000Y-64130000D01*
X109559999Y-76040000D02*
G75*
G03*
X107559801Y-76020000I-999999J20000D01*
G01*
X157560000Y-93920000D02*
G75*
G03*
X155560000Y-93920000I-1000000J0D01*
G01*
X84000000Y-40000000D02*
G75*
G03*
X88000000Y-40000000I2000000J0D01*
G01*
X134260000Y-143130000D02*
X150060000Y-143130000D01*
X109560000Y-100155000D02*
X109560000Y-128130000D01*
X155560000Y-128130000D02*
X148060000Y-128130000D01*
X109559688Y-100154992D02*
G75*
G03*
X107560000Y-100130000I-999688J24992D01*
G01*
X155560000Y-108555000D02*
G75*
G03*
X157560012Y-108560000I1000000J-5000D01*
G01*
X130260000Y-143130000D02*
X115060000Y-143130000D01*
X107560000Y-64130000D02*
X115060000Y-64130000D01*
X117060000Y-66130000D02*
X109560000Y-66130000D01*
X121560000Y-121130000D02*
G75*
G03*
X121560000Y-121130000I-2000000J0D01*
G01*
X107560000Y-130130000D02*
X107560000Y-100130000D01*
X130500000Y-40000000D02*
G75*
G03*
X134500000Y-40000000I2000000J0D01*
G01*
X157560000Y-130130000D02*
X157560000Y-112540000D01*
X134260000Y-141130000D02*
X134885000Y-141130000D01*
X107560000Y-96130000D02*
G75*
G03*
X109560000Y-96130000I1000000J0D01*
G01*
X117060000Y-66130000D02*
X117060000Y-53130000D01*
X88000000Y-40000000D02*
X88000000Y-37000000D01*
X88000000Y-97000000D02*
G75*
G03*
X88000000Y-97000000I-2000000J0D01*
G01*
X126060000Y-73630000D02*
G75*
G03*
X126060000Y-73630000I-2000000J0D01*
G01*
X150060000Y-130130000D02*
X150060000Y-143130000D01*
X134685000Y-53130000D02*
X134060000Y-53130000D01*
X109560000Y-66130000D02*
X109560000Y-72005000D01*
X142060000Y-73630000D02*
G75*
G03*
X142060000Y-73630000I-2000000J0D01*
G01*
X155557604Y-120630617D02*
G75*
G03*
X155559998Y-121620000I-1937604J-499383D01*
G01*
X150060000Y-51130000D02*
X150060000Y-64130000D01*
X148060000Y-53130000D02*
X148060000Y-66130000D01*
X115060000Y-64130000D02*
X115060000Y-51130000D01*
X157560000Y-130130000D02*
X150060000Y-130130000D01*
X115060000Y-143130000D02*
X115060000Y-130130000D01*
X88000000Y-37000000D02*
G75*
G03*
X84000000Y-37000000I-2000000J0D01*
G01*
X134500000Y-37000000D02*
G75*
G03*
X130500000Y-37000000I-2000000J0D01*
G01*
X181000000Y-156000000D02*
G75*
G03*
X181000000Y-156000000I-2000000J0D01*
G01*
X134060000Y-51130000D02*
G75*
G03*
X134060000Y-53130000I0J-1000000D01*
G01*
X109559999Y-76040000D02*
X109560000Y-96130000D01*
X107559288Y-72030000D02*
G75*
G03*
X109560000Y-72005000I1000512J0D01*
G01*
X134260000Y-141130000D02*
G75*
G03*
X134260000Y-143130000I0J-1000000D01*
G01*
X130035000Y-53130000D02*
X117060000Y-53130000D01*
X177000000Y-40000000D02*
X177000000Y-37000000D01*
X115060000Y-51130000D02*
X130060000Y-51129688D01*
X181000000Y-37000000D02*
G75*
G03*
X177000000Y-37000000I-2000000J0D01*
G01*
X130035000Y-53130000D02*
G75*
G03*
X130060000Y-51129688I25000J1000000D01*
G01*
X157560000Y-93920000D02*
X157560012Y-108560000D01*
X117060000Y-128130000D02*
X109560000Y-128130000D01*
X134500000Y-156000000D02*
G75*
G03*
X134500000Y-156000000I-2000000J0D01*
G01*
X117060000Y-141130000D02*
X117060000Y-128130000D01*
X155560000Y-108555000D02*
X155560000Y-93920000D01*
X130500000Y-40000000D02*
X130500000Y-37000000D01*
X150060000Y-64130000D02*
X157560000Y-64130000D01*
X117060000Y-141130000D02*
X130260000Y-141130000D01*
X148060000Y-141130000D02*
X148060000Y-128130000D01*
X88000000Y-156000000D02*
G75*
G03*
X88000000Y-156000000I-2000000J0D01*
G01*
X181000000Y-40000000D02*
X181000000Y-37000000D01*
X134060000Y-51130000D02*
X150060000Y-51130000D01*
X115060000Y-130130000D02*
X107560000Y-130130000D01*
X157560000Y-112540000D02*
G75*
G03*
X155560000Y-112540000I-1000000J0D01*
G01*
M02*
