%TF.GenerationSoftware,KiCad,Pcbnew,7.0.7*%
%TF.CreationDate,2023-10-05T08:39:18+02:00*%
%TF.ProjectId,Modbus_master,4d6f6462-7573-45f6-9d61-737465722e6b,rev?*%
%TF.SameCoordinates,PX4d3f640PY9988330*%
%TF.FileFunction,Drillmap*%
%TF.FilePolarity,Positive*%
%FSLAX45Y45*%
G04 Gerber Fmt 4.5, Leading zero omitted, Abs format (unit mm)*
G04 Created by KiCad (PCBNEW 7.0.7) date 2023-10-05 08:39:18*
%MOMM*%
%LPD*%
G01*
G04 APERTURE LIST*
%ADD10C,0.100000*%
%ADD11C,0.200000*%
%ADD12C,0.040000*%
%ADD13C,0.080000*%
%ADD14C,0.110000*%
%ADD15C,0.130000*%
G04 APERTURE END LIST*
D10*
X2656000Y6486000D02*
X2655980Y8497000D01*
X0Y12899000D02*
X10400000Y12899000D01*
X10400000Y-1000D01*
X0Y-1000D01*
X0Y12899000D01*
X2655921Y8896000D02*
X2656000Y9686000D01*
X10000000Y6399000D02*
G75*
G03*
X10000000Y6399000I-200000J0D01*
G01*
X300000Y12099000D02*
X300000Y12399000D01*
X6706000Y10786000D02*
X5368500Y10786000D01*
X7456000Y4845000D02*
X7456000Y4036000D01*
X9600000Y12099000D02*
G75*
G03*
X10000000Y12099000I200000J0D01*
G01*
X7454000Y7107000D02*
G75*
G03*
X7654005Y7108000I100000J1000D01*
G01*
X5350000Y12099000D02*
X5350000Y12399000D01*
X6706000Y9486000D02*
X7456000Y9486000D01*
X4926000Y1786000D02*
G75*
G03*
X4926000Y1986000I0J100000D01*
G01*
X5388500Y1986000D02*
X6706000Y1986000D01*
X7456000Y9486000D02*
X7454000Y7107000D01*
X7456000Y3286000D02*
X7456000Y3937000D01*
X7654005Y7108000D02*
X7656000Y9686000D01*
X2856000Y8495000D02*
G75*
G03*
X2655980Y8497000I-100000J2000D01*
G01*
X7656000Y6707000D02*
G75*
G03*
X7456000Y6707000I-100000J0D01*
G01*
X300000Y12099000D02*
G75*
G03*
X700000Y12099000I200000J0D01*
G01*
X5326000Y1786000D02*
X6906000Y1786000D01*
X2856000Y6083500D02*
X2856000Y3286000D01*
X7456000Y3286000D02*
X6706000Y3286000D01*
X2855969Y6083501D02*
G75*
G03*
X2656000Y6086000I-99969J2499D01*
G01*
X7456000Y5243500D02*
G75*
G03*
X7656001Y5243000I100000J-500D01*
G01*
X4926000Y1786000D02*
X3406000Y1786000D01*
X2656000Y9686000D02*
X3406000Y9686000D01*
X3606000Y9486000D02*
X2856000Y9486000D01*
X4056000Y3986000D02*
G75*
G03*
X4056000Y3986000I-200000J0D01*
G01*
X2656000Y3086000D02*
X2656000Y6086000D01*
X4950000Y12099000D02*
G75*
G03*
X5350000Y12099000I200000J0D01*
G01*
X7656000Y3086000D02*
X7656000Y4845000D01*
X5326000Y1986000D02*
X5388500Y1986000D01*
X2656000Y6486000D02*
G75*
G03*
X2856000Y6486000I100000J0D01*
G01*
X3606000Y9486000D02*
X3606000Y10786000D01*
X700000Y12099000D02*
X700000Y12399000D01*
X700000Y6399000D02*
G75*
G03*
X700000Y6399000I-200000J0D01*
G01*
X4506000Y8736000D02*
G75*
G03*
X4506000Y8736000I-200000J0D01*
G01*
X6906000Y3086000D02*
X6906000Y1786000D01*
X5368500Y10786000D02*
X5306000Y10786000D01*
X2856000Y9486000D02*
X2856000Y8898500D01*
X6106000Y8736000D02*
G75*
G03*
X6106000Y8736000I-200000J0D01*
G01*
X7455760Y4035938D02*
G75*
G03*
X7456000Y3937000I-193760J-49938D01*
G01*
X6906000Y10986000D02*
X6906000Y9686000D01*
X6706000Y10786000D02*
X6706000Y9486000D01*
X3406000Y9686000D02*
X3406000Y10986000D01*
X7656000Y3086000D02*
X6906000Y3086000D01*
X3406000Y1786000D02*
X3406000Y3086000D01*
X700000Y12399000D02*
G75*
G03*
X300000Y12399000I-200000J0D01*
G01*
X5350000Y12399000D02*
G75*
G03*
X4950000Y12399000I-200000J0D01*
G01*
X10000000Y499000D02*
G75*
G03*
X10000000Y499000I-200000J0D01*
G01*
X5306000Y10986000D02*
G75*
G03*
X5306000Y10786000I0J-100000D01*
G01*
X2856000Y8495000D02*
X2856000Y6486000D01*
X2655929Y8896000D02*
G75*
G03*
X2856000Y8898500I100051J0D01*
G01*
X5326000Y1986000D02*
G75*
G03*
X5326000Y1786000I0J-100000D01*
G01*
X4903500Y10786000D02*
X3606000Y10786000D01*
X9600000Y12099000D02*
X9600000Y12399000D01*
X3406000Y10986000D02*
X4906000Y10986031D01*
X10000000Y12399000D02*
G75*
G03*
X9600000Y12399000I-200000J0D01*
G01*
X4903500Y10786000D02*
G75*
G03*
X4906000Y10986031I2500J100000D01*
G01*
X7656000Y6707000D02*
X7656001Y5243000D01*
X3606000Y3286000D02*
X2856000Y3286000D01*
X5350000Y499000D02*
G75*
G03*
X5350000Y499000I-200000J0D01*
G01*
X3606000Y1986000D02*
X3606000Y3286000D01*
X7456000Y5243500D02*
X7456000Y6707000D01*
X4950000Y12099000D02*
X4950000Y12399000D01*
X6906000Y9686000D02*
X7656000Y9686000D01*
X3606000Y1986000D02*
X4926000Y1986000D01*
X6706000Y1986000D02*
X6706000Y3286000D01*
X700000Y499000D02*
G75*
G03*
X700000Y499000I-200000J0D01*
G01*
X10000000Y12099000D02*
X10000000Y12399000D01*
X5306000Y10986000D02*
X6906000Y10986000D01*
X3406000Y3086000D02*
X2656000Y3086000D01*
X7656000Y4845000D02*
G75*
G03*
X7456000Y4845000I-100000J0D01*
G01*
D11*
D12*
X2931540Y9019700D02*
X2971540Y8979700D01*
X2971540Y9019700D02*
X2931540Y8979700D01*
X3061080Y8516980D02*
X3101080Y8476980D01*
X3101080Y8516980D02*
X3061080Y8476980D01*
X3166000Y8036000D02*
X3206000Y7996000D01*
X3206000Y8036000D02*
X3166000Y7996000D01*
X3166000Y7926000D02*
X3206000Y7886000D01*
X3206000Y7926000D02*
X3166000Y7886000D01*
X3166000Y7266000D02*
X3206000Y7226000D01*
X3206000Y7266000D02*
X3166000Y7226000D01*
X3207500Y3994000D02*
X3247500Y3954000D01*
X3247500Y3994000D02*
X3207500Y3954000D01*
X3251580Y8666640D02*
X3291580Y8626640D01*
X3291580Y8666640D02*
X3251580Y8626640D01*
X3486000Y8738500D02*
X3526000Y8698500D01*
X3526000Y8738500D02*
X3486000Y8698500D01*
X3506000Y6546000D02*
X3546000Y6506000D01*
X3546000Y6546000D02*
X3506000Y6506000D01*
X3506000Y6126000D02*
X3546000Y6086000D01*
X3546000Y6126000D02*
X3506000Y6086000D01*
X3577500Y3476500D02*
X3617500Y3436500D01*
X3617500Y3476500D02*
X3577500Y3436500D01*
X3706000Y8556000D02*
X3746000Y8516000D01*
X3746000Y8556000D02*
X3706000Y8516000D01*
X3836000Y8556000D02*
X3876000Y8516000D01*
X3876000Y8556000D02*
X3836000Y8516000D01*
X3876000Y6116000D02*
X3916000Y6076000D01*
X3916000Y6116000D02*
X3876000Y6076000D01*
X3951000Y7403550D02*
X3991000Y7363550D01*
X3991000Y7403550D02*
X3951000Y7363550D01*
X3970400Y10442100D02*
X4010400Y10402100D01*
X4010400Y10442100D02*
X3970400Y10402100D01*
X4112640Y5362100D02*
X4152640Y5322100D01*
X4152640Y5362100D02*
X4112640Y5322100D01*
X4117500Y3766500D02*
X4157500Y3726500D01*
X4157500Y3766500D02*
X4117500Y3726500D01*
X4176000Y6546000D02*
X4216000Y6506000D01*
X4216000Y6546000D02*
X4176000Y6506000D01*
X4201540Y9197500D02*
X4241540Y9157500D01*
X4241540Y9197500D02*
X4201540Y9157500D01*
X4243000Y6149000D02*
X4283000Y6109000D01*
X4283000Y6149000D02*
X4243000Y6109000D01*
X4295500Y3448500D02*
X4335500Y3408500D01*
X4335500Y3448500D02*
X4295500Y3408500D01*
X4389500Y5494180D02*
X4429500Y5454180D01*
X4429500Y5494180D02*
X4389500Y5454180D01*
X4390000Y5114000D02*
X4430000Y5074000D01*
X4430000Y5114000D02*
X4390000Y5074000D01*
X4390000Y4991950D02*
X4430000Y4951950D01*
X4430000Y4991950D02*
X4390000Y4951950D01*
X4396000Y6546000D02*
X4436000Y6506000D01*
X4436000Y6546000D02*
X4396000Y6506000D01*
X4447920Y5806600D02*
X4487920Y5766600D01*
X4487920Y5806600D02*
X4447920Y5766600D01*
X4540000Y3264000D02*
X4580000Y3224000D01*
X4580000Y3264000D02*
X4540000Y3224000D01*
X4576000Y6118000D02*
X4616000Y6078000D01*
X4616000Y6118000D02*
X4576000Y6078000D01*
X4650230Y4244230D02*
X4690230Y4204230D01*
X4690230Y4244230D02*
X4650230Y4204230D01*
X4680730Y8498270D02*
X4720730Y8458270D01*
X4720730Y8498270D02*
X4680730Y8458270D01*
X4828920Y8882540D02*
X4868920Y8842540D01*
X4868920Y8882540D02*
X4828920Y8842540D01*
X4832000Y5008500D02*
X4872000Y4968500D01*
X4872000Y5008500D02*
X4832000Y4968500D01*
X4846000Y3926000D02*
X4886000Y3886000D01*
X4886000Y3926000D02*
X4846000Y3886000D01*
X4851780Y4361340D02*
X4891780Y4321340D01*
X4891780Y4361340D02*
X4851780Y4321340D01*
X4968620Y6451760D02*
X5008620Y6411760D01*
X5008620Y6451760D02*
X4968620Y6411760D01*
X4968620Y4539140D02*
X5008620Y4499140D01*
X5008620Y4539140D02*
X4968620Y4499140D01*
X4981320Y7749700D02*
X5021320Y7709700D01*
X5021320Y7749700D02*
X4981320Y7709700D01*
X5128640Y5214780D02*
X5168640Y5174780D01*
X5168640Y5214780D02*
X5128640Y5174780D01*
X5240400Y7960520D02*
X5280400Y7920520D01*
X5280400Y7960520D02*
X5240400Y7920520D01*
X5291200Y5080160D02*
X5331200Y5040160D01*
X5331200Y5080160D02*
X5291200Y5040160D01*
X5316600Y4407060D02*
X5356600Y4367060D01*
X5356600Y4407060D02*
X5316600Y4367060D01*
X5328396Y4100551D02*
X5368396Y4060551D01*
X5368396Y4100551D02*
X5328396Y4060551D01*
X5331840Y4000660D02*
X5371840Y3960660D01*
X5371840Y4000660D02*
X5331840Y3960660D01*
X5339460Y4219100D02*
X5379460Y4179100D01*
X5379460Y4219100D02*
X5339460Y4179100D01*
X5402960Y8300880D02*
X5442960Y8260880D01*
X5442960Y8300880D02*
X5402960Y8260880D01*
X5501860Y7900680D02*
X5541860Y7860680D01*
X5541860Y7900680D02*
X5501860Y7860680D01*
X5536000Y2266000D02*
X5576000Y2226000D01*
X5576000Y2266000D02*
X5536000Y2226000D01*
X5537580Y4655980D02*
X5577580Y4615980D01*
X5577580Y4655980D02*
X5537580Y4615980D01*
X5598540Y7150260D02*
X5638540Y7110260D01*
X5638540Y7150260D02*
X5598540Y7110260D01*
X5679820Y4661060D02*
X5719820Y4621060D01*
X5719820Y4661060D02*
X5679820Y4621060D01*
X5687440Y3761900D02*
X5727440Y3721900D01*
X5727440Y3761900D02*
X5687440Y3721900D01*
X5794120Y7630320D02*
X5834120Y7590320D01*
X5834120Y7630320D02*
X5794120Y7590320D01*
X5819680Y3130800D02*
X5859680Y3090800D01*
X5859680Y3130800D02*
X5819680Y3090800D01*
X5841390Y5319620D02*
X5881390Y5279620D01*
X5881390Y5319620D02*
X5841390Y5279620D01*
X6001860Y7900680D02*
X6041860Y7860680D01*
X6041860Y7900680D02*
X6001860Y7860680D01*
X6082680Y3096800D02*
X6122680Y3056800D01*
X6122680Y3096800D02*
X6082680Y3056800D01*
X6126860Y7900680D02*
X6166860Y7860680D01*
X6166860Y7900680D02*
X6126860Y7860680D01*
X6164960Y3642520D02*
X6204960Y3602520D01*
X6204960Y3642520D02*
X6164960Y3602520D01*
X6241160Y4465480D02*
X6281160Y4425480D01*
X6281160Y4465480D02*
X6241160Y4425480D01*
X6241390Y5079620D02*
X6281390Y5039620D01*
X6281390Y5079620D02*
X6241390Y5039620D01*
X6291960Y4696620D02*
X6331960Y4656620D01*
X6331960Y4696620D02*
X6291960Y4656620D01*
X6297140Y8643780D02*
X6337140Y8603780D01*
X6337140Y8643780D02*
X6297140Y8603780D01*
X6314820Y5862480D02*
X6354820Y5822480D01*
X6354820Y5862480D02*
X6314820Y5822480D01*
X6324980Y2532540D02*
X6364980Y2492540D01*
X6364980Y2532540D02*
X6324980Y2492540D01*
X6495160Y4097180D02*
X6535160Y4057180D01*
X6535160Y4097180D02*
X6495160Y4057180D01*
X6495160Y3997230D02*
X6535160Y3957230D01*
X6535160Y3997230D02*
X6495160Y3957230D01*
X6499980Y9560720D02*
X6539980Y9520720D01*
X6539980Y9560720D02*
X6499980Y9520720D01*
X6670420Y6299360D02*
X6710420Y6259360D01*
X6710420Y6299360D02*
X6670420Y6259360D01*
X6754240Y7775100D02*
X6794240Y7735100D01*
X6794240Y7775100D02*
X6754240Y7735100D01*
X6876160Y8135780D02*
X6916160Y8095780D01*
X6916160Y8135780D02*
X6876160Y8095780D01*
X6939660Y4318160D02*
X6979660Y4278160D01*
X6979660Y4318160D02*
X6939660Y4278160D01*
X6993000Y6873400D02*
X7033000Y6833400D01*
X7033000Y6873400D02*
X6993000Y6833400D01*
X7033640Y8004910D02*
X7073640Y7964910D01*
X7073640Y8004910D02*
X7033640Y7964910D01*
X7117460Y6388260D02*
X7157460Y6348260D01*
X7157460Y6388260D02*
X7117460Y6348260D01*
X7127620Y6992780D02*
X7167620Y6952780D01*
X7167620Y6992780D02*
X7127620Y6952780D01*
X7127620Y5656740D02*
X7167620Y5616740D01*
X7167620Y5656740D02*
X7127620Y5616740D01*
X7158100Y4953160D02*
X7198100Y4913160D01*
X7198100Y4953160D02*
X7158100Y4913160D01*
X7192330Y8004910D02*
X7232330Y7964910D01*
X7232330Y8004910D02*
X7192330Y7964910D01*
X7269860Y3431700D02*
X7309860Y3391700D01*
X7309860Y3431700D02*
X7269860Y3391700D01*
X7340980Y6997860D02*
X7380980Y6957860D01*
X7380980Y6997860D02*
X7340980Y6957860D01*
D13*
X7134000Y9213000D02*
G75*
G03*
X7134000Y9213000I-40000J0D01*
G01*
X7134000Y8313000D02*
G75*
G03*
X7134000Y8313000I-40000J0D01*
G01*
D10*
X4935280Y6123620D02*
X4935280Y6023620D01*
X4885280Y6073620D02*
X4985280Y6073620D01*
X5189280Y6123620D02*
X5189280Y6023620D01*
X5139280Y6073620D02*
X5239280Y6073620D01*
X5443280Y6123620D02*
X5443280Y6023620D01*
X5393280Y6073620D02*
X5493280Y6073620D01*
X5697280Y6123620D02*
X5697280Y6023620D01*
X5647280Y6073620D02*
X5747280Y6073620D01*
X6675180Y5478460D02*
X6675180Y5378460D01*
X6625180Y5428460D02*
X6725180Y5428460D01*
X6675180Y5224460D02*
X6675180Y5124460D01*
X6625180Y5174460D02*
X6725180Y5174460D01*
X6929180Y5478460D02*
X6929180Y5378460D01*
X6879180Y5428460D02*
X6979180Y5428460D01*
X6929180Y5224460D02*
X6929180Y5124460D01*
X6879180Y5174460D02*
X6979180Y5174460D01*
X7183180Y5478460D02*
X7183180Y5378460D01*
X7133180Y5428460D02*
X7233180Y5428460D01*
X7183180Y5224460D02*
X7183180Y5124460D01*
X7133180Y5174460D02*
X7233180Y5174460D01*
D14*
X4824311Y9423089D02*
X4824311Y9500871D01*
X4746529Y9500871D01*
X4746529Y9423089D01*
X4824311Y9423089D01*
X5078311Y9423089D02*
X5078311Y9500871D01*
X5000529Y9500871D01*
X5000529Y9423089D01*
X5078311Y9423089D01*
X5332311Y9423089D02*
X5332311Y9500871D01*
X5254529Y9500871D01*
X5254529Y9423089D01*
X5332311Y9423089D01*
D15*
X3936000Y2601000D02*
X4001000Y2666000D01*
X3936000Y2731000D01*
X3871000Y2666000D01*
X3936000Y2601000D01*
X4436000Y2601000D02*
X4501000Y2666000D01*
X4436000Y2731000D01*
X4371000Y2666000D01*
X4436000Y2601000D01*
X4896000Y10021000D02*
X4961000Y10086000D01*
X4896000Y10151000D01*
X4831000Y10086000D01*
X4896000Y10021000D01*
X4936000Y2601000D02*
X5001000Y2666000D01*
X4936000Y2731000D01*
X4871000Y2666000D01*
X4936000Y2601000D01*
X5396000Y10021000D02*
X5461000Y10086000D01*
X5396000Y10151000D01*
X5331000Y10086000D01*
X5396000Y10021000D01*
X5896000Y10021000D02*
X5961000Y10086000D01*
X5896000Y10151000D01*
X5831000Y10086000D01*
X5896000Y10021000D01*
X6396000Y10021000D02*
X6461000Y10086000D01*
X6396000Y10151000D01*
X6331000Y10086000D01*
X6396000Y10021000D01*
D11*
X255777Y-317484D02*
X255777Y-117484D01*
X255777Y-117484D02*
X303396Y-117484D01*
X303396Y-117484D02*
X331967Y-127008D01*
X331967Y-127008D02*
X351015Y-146055D01*
X351015Y-146055D02*
X360539Y-165103D01*
X360539Y-165103D02*
X370062Y-203198D01*
X370062Y-203198D02*
X370062Y-231769D01*
X370062Y-231769D02*
X360539Y-269865D01*
X360539Y-269865D02*
X351015Y-288912D01*
X351015Y-288912D02*
X331967Y-307960D01*
X331967Y-307960D02*
X303396Y-317484D01*
X303396Y-317484D02*
X255777Y-317484D01*
X455777Y-317484D02*
X455777Y-184150D01*
X455777Y-222246D02*
X465301Y-203198D01*
X465301Y-203198D02*
X474824Y-193674D01*
X474824Y-193674D02*
X493872Y-184150D01*
X493872Y-184150D02*
X512920Y-184150D01*
X579586Y-317484D02*
X579586Y-184150D01*
X579586Y-117484D02*
X570063Y-127008D01*
X570063Y-127008D02*
X579586Y-136531D01*
X579586Y-136531D02*
X589110Y-127008D01*
X589110Y-127008D02*
X579586Y-117484D01*
X579586Y-117484D02*
X579586Y-136531D01*
X703396Y-317484D02*
X684348Y-307960D01*
X684348Y-307960D02*
X674824Y-288912D01*
X674824Y-288912D02*
X674824Y-117484D01*
X808158Y-317484D02*
X789110Y-307960D01*
X789110Y-307960D02*
X779586Y-288912D01*
X779586Y-288912D02*
X779586Y-117484D01*
X1036729Y-317484D02*
X1036729Y-117484D01*
X1036729Y-117484D02*
X1103396Y-260341D01*
X1103396Y-260341D02*
X1170063Y-117484D01*
X1170063Y-117484D02*
X1170063Y-317484D01*
X1351015Y-317484D02*
X1351015Y-212722D01*
X1351015Y-212722D02*
X1341491Y-193674D01*
X1341491Y-193674D02*
X1322444Y-184150D01*
X1322444Y-184150D02*
X1284348Y-184150D01*
X1284348Y-184150D02*
X1265301Y-193674D01*
X1351015Y-307960D02*
X1331967Y-317484D01*
X1331967Y-317484D02*
X1284348Y-317484D01*
X1284348Y-317484D02*
X1265301Y-307960D01*
X1265301Y-307960D02*
X1255777Y-288912D01*
X1255777Y-288912D02*
X1255777Y-269865D01*
X1255777Y-269865D02*
X1265301Y-250817D01*
X1265301Y-250817D02*
X1284348Y-241293D01*
X1284348Y-241293D02*
X1331967Y-241293D01*
X1331967Y-241293D02*
X1351015Y-231769D01*
X1446253Y-184150D02*
X1446253Y-384150D01*
X1446253Y-193674D02*
X1465301Y-184150D01*
X1465301Y-184150D02*
X1503396Y-184150D01*
X1503396Y-184150D02*
X1522443Y-193674D01*
X1522443Y-193674D02*
X1531967Y-203198D01*
X1531967Y-203198D02*
X1541491Y-222246D01*
X1541491Y-222246D02*
X1541491Y-279389D01*
X1541491Y-279389D02*
X1531967Y-298436D01*
X1531967Y-298436D02*
X1522443Y-307960D01*
X1522443Y-307960D02*
X1503396Y-317484D01*
X1503396Y-317484D02*
X1465301Y-317484D01*
X1465301Y-317484D02*
X1446253Y-307960D01*
X1627205Y-298436D02*
X1636729Y-307960D01*
X1636729Y-307960D02*
X1627205Y-317484D01*
X1627205Y-317484D02*
X1617682Y-307960D01*
X1617682Y-307960D02*
X1627205Y-298436D01*
X1627205Y-298436D02*
X1627205Y-317484D01*
X1627205Y-193674D02*
X1636729Y-203198D01*
X1636729Y-203198D02*
X1627205Y-212722D01*
X1627205Y-212722D02*
X1617682Y-203198D01*
X1617682Y-203198D02*
X1627205Y-193674D01*
X1627205Y-193674D02*
X1627205Y-212722D01*
D12*
X-45000Y-626000D02*
X-5000Y-666000D01*
X-5000Y-626000D02*
X-45000Y-666000D01*
D11*
X293872Y-537484D02*
X312920Y-537484D01*
X312920Y-537484D02*
X331967Y-547008D01*
X331967Y-547008D02*
X341491Y-556531D01*
X341491Y-556531D02*
X351015Y-575579D01*
X351015Y-575579D02*
X360539Y-613674D01*
X360539Y-613674D02*
X360539Y-661293D01*
X360539Y-661293D02*
X351015Y-699388D01*
X351015Y-699388D02*
X341491Y-718436D01*
X341491Y-718436D02*
X331967Y-727960D01*
X331967Y-727960D02*
X312920Y-737484D01*
X312920Y-737484D02*
X293872Y-737484D01*
X293872Y-737484D02*
X274824Y-727960D01*
X274824Y-727960D02*
X265301Y-718436D01*
X265301Y-718436D02*
X255777Y-699388D01*
X255777Y-699388D02*
X246253Y-661293D01*
X246253Y-661293D02*
X246253Y-613674D01*
X246253Y-613674D02*
X255777Y-575579D01*
X255777Y-575579D02*
X265301Y-556531D01*
X265301Y-556531D02*
X274824Y-547008D01*
X274824Y-547008D02*
X293872Y-537484D01*
X446253Y-718436D02*
X455777Y-727960D01*
X455777Y-727960D02*
X446253Y-737484D01*
X446253Y-737484D02*
X436729Y-727960D01*
X436729Y-727960D02*
X446253Y-718436D01*
X446253Y-718436D02*
X446253Y-737484D01*
X627205Y-604150D02*
X627205Y-737484D01*
X579586Y-527960D02*
X531967Y-670817D01*
X531967Y-670817D02*
X655777Y-670817D01*
X770062Y-537484D02*
X789110Y-537484D01*
X789110Y-537484D02*
X808158Y-547008D01*
X808158Y-547008D02*
X817682Y-556531D01*
X817682Y-556531D02*
X827205Y-575579D01*
X827205Y-575579D02*
X836729Y-613674D01*
X836729Y-613674D02*
X836729Y-661293D01*
X836729Y-661293D02*
X827205Y-699388D01*
X827205Y-699388D02*
X817682Y-718436D01*
X817682Y-718436D02*
X808158Y-727960D01*
X808158Y-727960D02*
X789110Y-737484D01*
X789110Y-737484D02*
X770062Y-737484D01*
X770062Y-737484D02*
X751015Y-727960D01*
X751015Y-727960D02*
X741491Y-718436D01*
X741491Y-718436D02*
X731967Y-699388D01*
X731967Y-699388D02*
X722443Y-661293D01*
X722443Y-661293D02*
X722443Y-613674D01*
X722443Y-613674D02*
X731967Y-575579D01*
X731967Y-575579D02*
X741491Y-556531D01*
X741491Y-556531D02*
X751015Y-547008D01*
X751015Y-547008D02*
X770062Y-537484D01*
X960539Y-537484D02*
X979586Y-537484D01*
X979586Y-537484D02*
X998634Y-547008D01*
X998634Y-547008D02*
X1008158Y-556531D01*
X1008158Y-556531D02*
X1017682Y-575579D01*
X1017682Y-575579D02*
X1027205Y-613674D01*
X1027205Y-613674D02*
X1027205Y-661293D01*
X1027205Y-661293D02*
X1017682Y-699388D01*
X1017682Y-699388D02*
X1008158Y-718436D01*
X1008158Y-718436D02*
X998634Y-727960D01*
X998634Y-727960D02*
X979586Y-737484D01*
X979586Y-737484D02*
X960539Y-737484D01*
X960539Y-737484D02*
X941491Y-727960D01*
X941491Y-727960D02*
X931967Y-718436D01*
X931967Y-718436D02*
X922443Y-699388D01*
X922443Y-699388D02*
X912920Y-661293D01*
X912920Y-661293D02*
X912920Y-613674D01*
X912920Y-613674D02*
X922443Y-575579D01*
X922443Y-575579D02*
X931967Y-556531D01*
X931967Y-556531D02*
X941491Y-547008D01*
X941491Y-547008D02*
X960539Y-537484D01*
X1112920Y-737484D02*
X1112920Y-604150D01*
X1112920Y-623198D02*
X1122444Y-613674D01*
X1122444Y-613674D02*
X1141491Y-604150D01*
X1141491Y-604150D02*
X1170063Y-604150D01*
X1170063Y-604150D02*
X1189110Y-613674D01*
X1189110Y-613674D02*
X1198634Y-632722D01*
X1198634Y-632722D02*
X1198634Y-737484D01*
X1198634Y-632722D02*
X1208158Y-613674D01*
X1208158Y-613674D02*
X1227205Y-604150D01*
X1227205Y-604150D02*
X1255777Y-604150D01*
X1255777Y-604150D02*
X1274825Y-613674D01*
X1274825Y-613674D02*
X1284348Y-632722D01*
X1284348Y-632722D02*
X1284348Y-737484D01*
X1379586Y-737484D02*
X1379586Y-604150D01*
X1379586Y-623198D02*
X1389110Y-613674D01*
X1389110Y-613674D02*
X1408158Y-604150D01*
X1408158Y-604150D02*
X1436729Y-604150D01*
X1436729Y-604150D02*
X1455777Y-613674D01*
X1455777Y-613674D02*
X1465301Y-632722D01*
X1465301Y-632722D02*
X1465301Y-737484D01*
X1465301Y-632722D02*
X1474824Y-613674D01*
X1474824Y-613674D02*
X1493872Y-604150D01*
X1493872Y-604150D02*
X1522443Y-604150D01*
X1522443Y-604150D02*
X1541491Y-613674D01*
X1541491Y-613674D02*
X1551015Y-632722D01*
X1551015Y-632722D02*
X1551015Y-737484D01*
X1941491Y-527960D02*
X1770063Y-785103D01*
X2198634Y-537484D02*
X2217682Y-537484D01*
X2217682Y-537484D02*
X2236729Y-547008D01*
X2236729Y-547008D02*
X2246253Y-556531D01*
X2246253Y-556531D02*
X2255777Y-575579D01*
X2255777Y-575579D02*
X2265301Y-613674D01*
X2265301Y-613674D02*
X2265301Y-661293D01*
X2265301Y-661293D02*
X2255777Y-699388D01*
X2255777Y-699388D02*
X2246253Y-718436D01*
X2246253Y-718436D02*
X2236729Y-727960D01*
X2236729Y-727960D02*
X2217682Y-737484D01*
X2217682Y-737484D02*
X2198634Y-737484D01*
X2198634Y-737484D02*
X2179587Y-727960D01*
X2179587Y-727960D02*
X2170063Y-718436D01*
X2170063Y-718436D02*
X2160539Y-699388D01*
X2160539Y-699388D02*
X2151015Y-661293D01*
X2151015Y-661293D02*
X2151015Y-613674D01*
X2151015Y-613674D02*
X2160539Y-575579D01*
X2160539Y-575579D02*
X2170063Y-556531D01*
X2170063Y-556531D02*
X2179587Y-547008D01*
X2179587Y-547008D02*
X2198634Y-537484D01*
X2351015Y-718436D02*
X2360539Y-727960D01*
X2360539Y-727960D02*
X2351015Y-737484D01*
X2351015Y-737484D02*
X2341491Y-727960D01*
X2341491Y-727960D02*
X2351015Y-718436D01*
X2351015Y-718436D02*
X2351015Y-737484D01*
X2484348Y-537484D02*
X2503396Y-537484D01*
X2503396Y-537484D02*
X2522444Y-547008D01*
X2522444Y-547008D02*
X2531968Y-556531D01*
X2531968Y-556531D02*
X2541491Y-575579D01*
X2541491Y-575579D02*
X2551015Y-613674D01*
X2551015Y-613674D02*
X2551015Y-661293D01*
X2551015Y-661293D02*
X2541491Y-699388D01*
X2541491Y-699388D02*
X2531968Y-718436D01*
X2531968Y-718436D02*
X2522444Y-727960D01*
X2522444Y-727960D02*
X2503396Y-737484D01*
X2503396Y-737484D02*
X2484348Y-737484D01*
X2484348Y-737484D02*
X2465301Y-727960D01*
X2465301Y-727960D02*
X2455777Y-718436D01*
X2455777Y-718436D02*
X2446253Y-699388D01*
X2446253Y-699388D02*
X2436729Y-661293D01*
X2436729Y-661293D02*
X2436729Y-613674D01*
X2436729Y-613674D02*
X2446253Y-575579D01*
X2446253Y-575579D02*
X2455777Y-556531D01*
X2455777Y-556531D02*
X2465301Y-547008D01*
X2465301Y-547008D02*
X2484348Y-537484D01*
X2741491Y-737484D02*
X2627206Y-737484D01*
X2684348Y-737484D02*
X2684348Y-537484D01*
X2684348Y-537484D02*
X2665301Y-566055D01*
X2665301Y-566055D02*
X2646253Y-585103D01*
X2646253Y-585103D02*
X2627206Y-594627D01*
X2922444Y-537484D02*
X2827206Y-537484D01*
X2827206Y-537484D02*
X2817682Y-632722D01*
X2817682Y-632722D02*
X2827206Y-623198D01*
X2827206Y-623198D02*
X2846253Y-613674D01*
X2846253Y-613674D02*
X2893872Y-613674D01*
X2893872Y-613674D02*
X2912920Y-623198D01*
X2912920Y-623198D02*
X2922444Y-632722D01*
X2922444Y-632722D02*
X2931967Y-651770D01*
X2931967Y-651770D02*
X2931967Y-699388D01*
X2931967Y-699388D02*
X2922444Y-718436D01*
X2922444Y-718436D02*
X2912920Y-727960D01*
X2912920Y-727960D02*
X2893872Y-737484D01*
X2893872Y-737484D02*
X2846253Y-737484D01*
X2846253Y-737484D02*
X2827206Y-727960D01*
X2827206Y-727960D02*
X2817682Y-718436D01*
X2998634Y-537484D02*
X3131967Y-537484D01*
X3131967Y-537484D02*
X3046253Y-737484D01*
X3198634Y-537484D02*
X3198634Y-575579D01*
X3274825Y-537484D02*
X3274825Y-575579D01*
X3570063Y-813674D02*
X3560539Y-804150D01*
X3560539Y-804150D02*
X3541491Y-775579D01*
X3541491Y-775579D02*
X3531968Y-756531D01*
X3531968Y-756531D02*
X3522444Y-727960D01*
X3522444Y-727960D02*
X3512920Y-680341D01*
X3512920Y-680341D02*
X3512920Y-642246D01*
X3512920Y-642246D02*
X3522444Y-594627D01*
X3522444Y-594627D02*
X3531968Y-566055D01*
X3531968Y-566055D02*
X3541491Y-547008D01*
X3541491Y-547008D02*
X3560539Y-518436D01*
X3560539Y-518436D02*
X3570063Y-508912D01*
X3674825Y-623198D02*
X3655777Y-613674D01*
X3655777Y-613674D02*
X3646253Y-604150D01*
X3646253Y-604150D02*
X3636729Y-585103D01*
X3636729Y-585103D02*
X3636729Y-575579D01*
X3636729Y-575579D02*
X3646253Y-556531D01*
X3646253Y-556531D02*
X3655777Y-547008D01*
X3655777Y-547008D02*
X3674825Y-537484D01*
X3674825Y-537484D02*
X3712920Y-537484D01*
X3712920Y-537484D02*
X3731968Y-547008D01*
X3731968Y-547008D02*
X3741491Y-556531D01*
X3741491Y-556531D02*
X3751015Y-575579D01*
X3751015Y-575579D02*
X3751015Y-585103D01*
X3751015Y-585103D02*
X3741491Y-604150D01*
X3741491Y-604150D02*
X3731968Y-613674D01*
X3731968Y-613674D02*
X3712920Y-623198D01*
X3712920Y-623198D02*
X3674825Y-623198D01*
X3674825Y-623198D02*
X3655777Y-632722D01*
X3655777Y-632722D02*
X3646253Y-642246D01*
X3646253Y-642246D02*
X3636729Y-661293D01*
X3636729Y-661293D02*
X3636729Y-699388D01*
X3636729Y-699388D02*
X3646253Y-718436D01*
X3646253Y-718436D02*
X3655777Y-727960D01*
X3655777Y-727960D02*
X3674825Y-737484D01*
X3674825Y-737484D02*
X3712920Y-737484D01*
X3712920Y-737484D02*
X3731968Y-727960D01*
X3731968Y-727960D02*
X3741491Y-718436D01*
X3741491Y-718436D02*
X3751015Y-699388D01*
X3751015Y-699388D02*
X3751015Y-661293D01*
X3751015Y-661293D02*
X3741491Y-642246D01*
X3741491Y-642246D02*
X3731968Y-632722D01*
X3731968Y-632722D02*
X3712920Y-623198D01*
X3941491Y-737484D02*
X3827206Y-737484D01*
X3884348Y-737484D02*
X3884348Y-537484D01*
X3884348Y-537484D02*
X3865301Y-566055D01*
X3865301Y-566055D02*
X3846253Y-585103D01*
X3846253Y-585103D02*
X3827206Y-594627D01*
X4179587Y-737484D02*
X4179587Y-537484D01*
X4265301Y-737484D02*
X4265301Y-632722D01*
X4265301Y-632722D02*
X4255777Y-613674D01*
X4255777Y-613674D02*
X4236730Y-604150D01*
X4236730Y-604150D02*
X4208158Y-604150D01*
X4208158Y-604150D02*
X4189110Y-613674D01*
X4189110Y-613674D02*
X4179587Y-623198D01*
X4389111Y-737484D02*
X4370063Y-727960D01*
X4370063Y-727960D02*
X4360539Y-718436D01*
X4360539Y-718436D02*
X4351015Y-699388D01*
X4351015Y-699388D02*
X4351015Y-642246D01*
X4351015Y-642246D02*
X4360539Y-623198D01*
X4360539Y-623198D02*
X4370063Y-613674D01*
X4370063Y-613674D02*
X4389111Y-604150D01*
X4389111Y-604150D02*
X4417682Y-604150D01*
X4417682Y-604150D02*
X4436730Y-613674D01*
X4436730Y-613674D02*
X4446253Y-623198D01*
X4446253Y-623198D02*
X4455777Y-642246D01*
X4455777Y-642246D02*
X4455777Y-699388D01*
X4455777Y-699388D02*
X4446253Y-718436D01*
X4446253Y-718436D02*
X4436730Y-727960D01*
X4436730Y-727960D02*
X4417682Y-737484D01*
X4417682Y-737484D02*
X4389111Y-737484D01*
X4570063Y-737484D02*
X4551015Y-727960D01*
X4551015Y-727960D02*
X4541492Y-708912D01*
X4541492Y-708912D02*
X4541492Y-537484D01*
X4722444Y-727960D02*
X4703396Y-737484D01*
X4703396Y-737484D02*
X4665301Y-737484D01*
X4665301Y-737484D02*
X4646253Y-727960D01*
X4646253Y-727960D02*
X4636730Y-708912D01*
X4636730Y-708912D02*
X4636730Y-632722D01*
X4636730Y-632722D02*
X4646253Y-613674D01*
X4646253Y-613674D02*
X4665301Y-604150D01*
X4665301Y-604150D02*
X4703396Y-604150D01*
X4703396Y-604150D02*
X4722444Y-613674D01*
X4722444Y-613674D02*
X4731968Y-632722D01*
X4731968Y-632722D02*
X4731968Y-651770D01*
X4731968Y-651770D02*
X4636730Y-670817D01*
X4808158Y-727960D02*
X4827206Y-737484D01*
X4827206Y-737484D02*
X4865301Y-737484D01*
X4865301Y-737484D02*
X4884349Y-727960D01*
X4884349Y-727960D02*
X4893873Y-708912D01*
X4893873Y-708912D02*
X4893873Y-699388D01*
X4893873Y-699388D02*
X4884349Y-680341D01*
X4884349Y-680341D02*
X4865301Y-670817D01*
X4865301Y-670817D02*
X4836730Y-670817D01*
X4836730Y-670817D02*
X4817682Y-661293D01*
X4817682Y-661293D02*
X4808158Y-642246D01*
X4808158Y-642246D02*
X4808158Y-632722D01*
X4808158Y-632722D02*
X4817682Y-613674D01*
X4817682Y-613674D02*
X4836730Y-604150D01*
X4836730Y-604150D02*
X4865301Y-604150D01*
X4865301Y-604150D02*
X4884349Y-613674D01*
X4960539Y-813674D02*
X4970063Y-804150D01*
X4970063Y-804150D02*
X4989111Y-775579D01*
X4989111Y-775579D02*
X4998634Y-756531D01*
X4998634Y-756531D02*
X5008158Y-727960D01*
X5008158Y-727960D02*
X5017682Y-680341D01*
X5017682Y-680341D02*
X5017682Y-642246D01*
X5017682Y-642246D02*
X5008158Y-594627D01*
X5008158Y-594627D02*
X4998634Y-566055D01*
X4998634Y-566055D02*
X4989111Y-547008D01*
X4989111Y-547008D02*
X4970063Y-518436D01*
X4970063Y-518436D02*
X4960539Y-508912D01*
D13*
X-5000Y-910000D02*
G75*
G03*
X-5000Y-910000I-40000J0D01*
G01*
D11*
X293872Y-801484D02*
X312920Y-801484D01*
X312920Y-801484D02*
X331967Y-811008D01*
X331967Y-811008D02*
X341491Y-820531D01*
X341491Y-820531D02*
X351015Y-839579D01*
X351015Y-839579D02*
X360539Y-877674D01*
X360539Y-877674D02*
X360539Y-925293D01*
X360539Y-925293D02*
X351015Y-963388D01*
X351015Y-963388D02*
X341491Y-982436D01*
X341491Y-982436D02*
X331967Y-991960D01*
X331967Y-991960D02*
X312920Y-1001484D01*
X312920Y-1001484D02*
X293872Y-1001484D01*
X293872Y-1001484D02*
X274824Y-991960D01*
X274824Y-991960D02*
X265301Y-982436D01*
X265301Y-982436D02*
X255777Y-963388D01*
X255777Y-963388D02*
X246253Y-925293D01*
X246253Y-925293D02*
X246253Y-877674D01*
X246253Y-877674D02*
X255777Y-839579D01*
X255777Y-839579D02*
X265301Y-820531D01*
X265301Y-820531D02*
X274824Y-811008D01*
X274824Y-811008D02*
X293872Y-801484D01*
X446253Y-982436D02*
X455777Y-991960D01*
X455777Y-991960D02*
X446253Y-1001484D01*
X446253Y-1001484D02*
X436729Y-991960D01*
X436729Y-991960D02*
X446253Y-982436D01*
X446253Y-982436D02*
X446253Y-1001484D01*
X570063Y-887198D02*
X551015Y-877674D01*
X551015Y-877674D02*
X541491Y-868150D01*
X541491Y-868150D02*
X531967Y-849103D01*
X531967Y-849103D02*
X531967Y-839579D01*
X531967Y-839579D02*
X541491Y-820531D01*
X541491Y-820531D02*
X551015Y-811008D01*
X551015Y-811008D02*
X570063Y-801484D01*
X570063Y-801484D02*
X608158Y-801484D01*
X608158Y-801484D02*
X627205Y-811008D01*
X627205Y-811008D02*
X636729Y-820531D01*
X636729Y-820531D02*
X646253Y-839579D01*
X646253Y-839579D02*
X646253Y-849103D01*
X646253Y-849103D02*
X636729Y-868150D01*
X636729Y-868150D02*
X627205Y-877674D01*
X627205Y-877674D02*
X608158Y-887198D01*
X608158Y-887198D02*
X570063Y-887198D01*
X570063Y-887198D02*
X551015Y-896722D01*
X551015Y-896722D02*
X541491Y-906246D01*
X541491Y-906246D02*
X531967Y-925293D01*
X531967Y-925293D02*
X531967Y-963388D01*
X531967Y-963388D02*
X541491Y-982436D01*
X541491Y-982436D02*
X551015Y-991960D01*
X551015Y-991960D02*
X570063Y-1001484D01*
X570063Y-1001484D02*
X608158Y-1001484D01*
X608158Y-1001484D02*
X627205Y-991960D01*
X627205Y-991960D02*
X636729Y-982436D01*
X636729Y-982436D02*
X646253Y-963388D01*
X646253Y-963388D02*
X646253Y-925293D01*
X646253Y-925293D02*
X636729Y-906246D01*
X636729Y-906246D02*
X627205Y-896722D01*
X627205Y-896722D02*
X608158Y-887198D01*
X770062Y-801484D02*
X789110Y-801484D01*
X789110Y-801484D02*
X808158Y-811008D01*
X808158Y-811008D02*
X817682Y-820531D01*
X817682Y-820531D02*
X827205Y-839579D01*
X827205Y-839579D02*
X836729Y-877674D01*
X836729Y-877674D02*
X836729Y-925293D01*
X836729Y-925293D02*
X827205Y-963388D01*
X827205Y-963388D02*
X817682Y-982436D01*
X817682Y-982436D02*
X808158Y-991960D01*
X808158Y-991960D02*
X789110Y-1001484D01*
X789110Y-1001484D02*
X770062Y-1001484D01*
X770062Y-1001484D02*
X751015Y-991960D01*
X751015Y-991960D02*
X741491Y-982436D01*
X741491Y-982436D02*
X731967Y-963388D01*
X731967Y-963388D02*
X722443Y-925293D01*
X722443Y-925293D02*
X722443Y-877674D01*
X722443Y-877674D02*
X731967Y-839579D01*
X731967Y-839579D02*
X741491Y-820531D01*
X741491Y-820531D02*
X751015Y-811008D01*
X751015Y-811008D02*
X770062Y-801484D01*
X960539Y-801484D02*
X979586Y-801484D01*
X979586Y-801484D02*
X998634Y-811008D01*
X998634Y-811008D02*
X1008158Y-820531D01*
X1008158Y-820531D02*
X1017682Y-839579D01*
X1017682Y-839579D02*
X1027205Y-877674D01*
X1027205Y-877674D02*
X1027205Y-925293D01*
X1027205Y-925293D02*
X1017682Y-963388D01*
X1017682Y-963388D02*
X1008158Y-982436D01*
X1008158Y-982436D02*
X998634Y-991960D01*
X998634Y-991960D02*
X979586Y-1001484D01*
X979586Y-1001484D02*
X960539Y-1001484D01*
X960539Y-1001484D02*
X941491Y-991960D01*
X941491Y-991960D02*
X931967Y-982436D01*
X931967Y-982436D02*
X922443Y-963388D01*
X922443Y-963388D02*
X912920Y-925293D01*
X912920Y-925293D02*
X912920Y-877674D01*
X912920Y-877674D02*
X922443Y-839579D01*
X922443Y-839579D02*
X931967Y-820531D01*
X931967Y-820531D02*
X941491Y-811008D01*
X941491Y-811008D02*
X960539Y-801484D01*
X1112920Y-1001484D02*
X1112920Y-868150D01*
X1112920Y-887198D02*
X1122444Y-877674D01*
X1122444Y-877674D02*
X1141491Y-868150D01*
X1141491Y-868150D02*
X1170063Y-868150D01*
X1170063Y-868150D02*
X1189110Y-877674D01*
X1189110Y-877674D02*
X1198634Y-896722D01*
X1198634Y-896722D02*
X1198634Y-1001484D01*
X1198634Y-896722D02*
X1208158Y-877674D01*
X1208158Y-877674D02*
X1227205Y-868150D01*
X1227205Y-868150D02*
X1255777Y-868150D01*
X1255777Y-868150D02*
X1274825Y-877674D01*
X1274825Y-877674D02*
X1284348Y-896722D01*
X1284348Y-896722D02*
X1284348Y-1001484D01*
X1379586Y-1001484D02*
X1379586Y-868150D01*
X1379586Y-887198D02*
X1389110Y-877674D01*
X1389110Y-877674D02*
X1408158Y-868150D01*
X1408158Y-868150D02*
X1436729Y-868150D01*
X1436729Y-868150D02*
X1455777Y-877674D01*
X1455777Y-877674D02*
X1465301Y-896722D01*
X1465301Y-896722D02*
X1465301Y-1001484D01*
X1465301Y-896722D02*
X1474824Y-877674D01*
X1474824Y-877674D02*
X1493872Y-868150D01*
X1493872Y-868150D02*
X1522443Y-868150D01*
X1522443Y-868150D02*
X1541491Y-877674D01*
X1541491Y-877674D02*
X1551015Y-896722D01*
X1551015Y-896722D02*
X1551015Y-1001484D01*
X1941491Y-791960D02*
X1770063Y-1049103D01*
X2198634Y-801484D02*
X2217682Y-801484D01*
X2217682Y-801484D02*
X2236729Y-811008D01*
X2236729Y-811008D02*
X2246253Y-820531D01*
X2246253Y-820531D02*
X2255777Y-839579D01*
X2255777Y-839579D02*
X2265301Y-877674D01*
X2265301Y-877674D02*
X2265301Y-925293D01*
X2265301Y-925293D02*
X2255777Y-963388D01*
X2255777Y-963388D02*
X2246253Y-982436D01*
X2246253Y-982436D02*
X2236729Y-991960D01*
X2236729Y-991960D02*
X2217682Y-1001484D01*
X2217682Y-1001484D02*
X2198634Y-1001484D01*
X2198634Y-1001484D02*
X2179587Y-991960D01*
X2179587Y-991960D02*
X2170063Y-982436D01*
X2170063Y-982436D02*
X2160539Y-963388D01*
X2160539Y-963388D02*
X2151015Y-925293D01*
X2151015Y-925293D02*
X2151015Y-877674D01*
X2151015Y-877674D02*
X2160539Y-839579D01*
X2160539Y-839579D02*
X2170063Y-820531D01*
X2170063Y-820531D02*
X2179587Y-811008D01*
X2179587Y-811008D02*
X2198634Y-801484D01*
X2351015Y-982436D02*
X2360539Y-991960D01*
X2360539Y-991960D02*
X2351015Y-1001484D01*
X2351015Y-1001484D02*
X2341491Y-991960D01*
X2341491Y-991960D02*
X2351015Y-982436D01*
X2351015Y-982436D02*
X2351015Y-1001484D01*
X2484348Y-801484D02*
X2503396Y-801484D01*
X2503396Y-801484D02*
X2522444Y-811008D01*
X2522444Y-811008D02*
X2531968Y-820531D01*
X2531968Y-820531D02*
X2541491Y-839579D01*
X2541491Y-839579D02*
X2551015Y-877674D01*
X2551015Y-877674D02*
X2551015Y-925293D01*
X2551015Y-925293D02*
X2541491Y-963388D01*
X2541491Y-963388D02*
X2531968Y-982436D01*
X2531968Y-982436D02*
X2522444Y-991960D01*
X2522444Y-991960D02*
X2503396Y-1001484D01*
X2503396Y-1001484D02*
X2484348Y-1001484D01*
X2484348Y-1001484D02*
X2465301Y-991960D01*
X2465301Y-991960D02*
X2455777Y-982436D01*
X2455777Y-982436D02*
X2446253Y-963388D01*
X2446253Y-963388D02*
X2436729Y-925293D01*
X2436729Y-925293D02*
X2436729Y-877674D01*
X2436729Y-877674D02*
X2446253Y-839579D01*
X2446253Y-839579D02*
X2455777Y-820531D01*
X2455777Y-820531D02*
X2465301Y-811008D01*
X2465301Y-811008D02*
X2484348Y-801484D01*
X2617682Y-801484D02*
X2741491Y-801484D01*
X2741491Y-801484D02*
X2674825Y-877674D01*
X2674825Y-877674D02*
X2703396Y-877674D01*
X2703396Y-877674D02*
X2722444Y-887198D01*
X2722444Y-887198D02*
X2731968Y-896722D01*
X2731968Y-896722D02*
X2741491Y-915769D01*
X2741491Y-915769D02*
X2741491Y-963388D01*
X2741491Y-963388D02*
X2731968Y-982436D01*
X2731968Y-982436D02*
X2722444Y-991960D01*
X2722444Y-991960D02*
X2703396Y-1001484D01*
X2703396Y-1001484D02*
X2646253Y-1001484D01*
X2646253Y-1001484D02*
X2627206Y-991960D01*
X2627206Y-991960D02*
X2617682Y-982436D01*
X2931967Y-1001484D02*
X2817682Y-1001484D01*
X2874825Y-1001484D02*
X2874825Y-801484D01*
X2874825Y-801484D02*
X2855777Y-830055D01*
X2855777Y-830055D02*
X2836729Y-849103D01*
X2836729Y-849103D02*
X2817682Y-858627D01*
X3112920Y-801484D02*
X3017682Y-801484D01*
X3017682Y-801484D02*
X3008158Y-896722D01*
X3008158Y-896722D02*
X3017682Y-887198D01*
X3017682Y-887198D02*
X3036729Y-877674D01*
X3036729Y-877674D02*
X3084348Y-877674D01*
X3084348Y-877674D02*
X3103396Y-887198D01*
X3103396Y-887198D02*
X3112920Y-896722D01*
X3112920Y-896722D02*
X3122444Y-915769D01*
X3122444Y-915769D02*
X3122444Y-963388D01*
X3122444Y-963388D02*
X3112920Y-982436D01*
X3112920Y-982436D02*
X3103396Y-991960D01*
X3103396Y-991960D02*
X3084348Y-1001484D01*
X3084348Y-1001484D02*
X3036729Y-1001484D01*
X3036729Y-1001484D02*
X3017682Y-991960D01*
X3017682Y-991960D02*
X3008158Y-982436D01*
X3198634Y-801484D02*
X3198634Y-839579D01*
X3274825Y-801484D02*
X3274825Y-839579D01*
X3570063Y-1077674D02*
X3560539Y-1068150D01*
X3560539Y-1068150D02*
X3541491Y-1039579D01*
X3541491Y-1039579D02*
X3531968Y-1020531D01*
X3531968Y-1020531D02*
X3522444Y-991960D01*
X3522444Y-991960D02*
X3512920Y-944341D01*
X3512920Y-944341D02*
X3512920Y-906246D01*
X3512920Y-906246D02*
X3522444Y-858627D01*
X3522444Y-858627D02*
X3531968Y-830055D01*
X3531968Y-830055D02*
X3541491Y-811008D01*
X3541491Y-811008D02*
X3560539Y-782436D01*
X3560539Y-782436D02*
X3570063Y-772912D01*
X3636729Y-820531D02*
X3646253Y-811008D01*
X3646253Y-811008D02*
X3665301Y-801484D01*
X3665301Y-801484D02*
X3712920Y-801484D01*
X3712920Y-801484D02*
X3731968Y-811008D01*
X3731968Y-811008D02*
X3741491Y-820531D01*
X3741491Y-820531D02*
X3751015Y-839579D01*
X3751015Y-839579D02*
X3751015Y-858627D01*
X3751015Y-858627D02*
X3741491Y-887198D01*
X3741491Y-887198D02*
X3627206Y-1001484D01*
X3627206Y-1001484D02*
X3751015Y-1001484D01*
X3989110Y-1001484D02*
X3989110Y-801484D01*
X4074825Y-1001484D02*
X4074825Y-896722D01*
X4074825Y-896722D02*
X4065301Y-877674D01*
X4065301Y-877674D02*
X4046253Y-868150D01*
X4046253Y-868150D02*
X4017682Y-868150D01*
X4017682Y-868150D02*
X3998634Y-877674D01*
X3998634Y-877674D02*
X3989110Y-887198D01*
X4198634Y-1001484D02*
X4179587Y-991960D01*
X4179587Y-991960D02*
X4170063Y-982436D01*
X4170063Y-982436D02*
X4160539Y-963388D01*
X4160539Y-963388D02*
X4160539Y-906246D01*
X4160539Y-906246D02*
X4170063Y-887198D01*
X4170063Y-887198D02*
X4179587Y-877674D01*
X4179587Y-877674D02*
X4198634Y-868150D01*
X4198634Y-868150D02*
X4227206Y-868150D01*
X4227206Y-868150D02*
X4246253Y-877674D01*
X4246253Y-877674D02*
X4255777Y-887198D01*
X4255777Y-887198D02*
X4265301Y-906246D01*
X4265301Y-906246D02*
X4265301Y-963388D01*
X4265301Y-963388D02*
X4255777Y-982436D01*
X4255777Y-982436D02*
X4246253Y-991960D01*
X4246253Y-991960D02*
X4227206Y-1001484D01*
X4227206Y-1001484D02*
X4198634Y-1001484D01*
X4379587Y-1001484D02*
X4360539Y-991960D01*
X4360539Y-991960D02*
X4351015Y-972912D01*
X4351015Y-972912D02*
X4351015Y-801484D01*
X4531968Y-991960D02*
X4512920Y-1001484D01*
X4512920Y-1001484D02*
X4474825Y-1001484D01*
X4474825Y-1001484D02*
X4455777Y-991960D01*
X4455777Y-991960D02*
X4446253Y-972912D01*
X4446253Y-972912D02*
X4446253Y-896722D01*
X4446253Y-896722D02*
X4455777Y-877674D01*
X4455777Y-877674D02*
X4474825Y-868150D01*
X4474825Y-868150D02*
X4512920Y-868150D01*
X4512920Y-868150D02*
X4531968Y-877674D01*
X4531968Y-877674D02*
X4541492Y-896722D01*
X4541492Y-896722D02*
X4541492Y-915769D01*
X4541492Y-915769D02*
X4446253Y-934817D01*
X4617682Y-991960D02*
X4636730Y-1001484D01*
X4636730Y-1001484D02*
X4674825Y-1001484D01*
X4674825Y-1001484D02*
X4693873Y-991960D01*
X4693873Y-991960D02*
X4703396Y-972912D01*
X4703396Y-972912D02*
X4703396Y-963388D01*
X4703396Y-963388D02*
X4693873Y-944341D01*
X4693873Y-944341D02*
X4674825Y-934817D01*
X4674825Y-934817D02*
X4646253Y-934817D01*
X4646253Y-934817D02*
X4627206Y-925293D01*
X4627206Y-925293D02*
X4617682Y-906246D01*
X4617682Y-906246D02*
X4617682Y-896722D01*
X4617682Y-896722D02*
X4627206Y-877674D01*
X4627206Y-877674D02*
X4646253Y-868150D01*
X4646253Y-868150D02*
X4674825Y-868150D01*
X4674825Y-868150D02*
X4693873Y-877674D01*
X4770063Y-1077674D02*
X4779587Y-1068150D01*
X4779587Y-1068150D02*
X4798634Y-1039579D01*
X4798634Y-1039579D02*
X4808158Y-1020531D01*
X4808158Y-1020531D02*
X4817682Y-991960D01*
X4817682Y-991960D02*
X4827206Y-944341D01*
X4827206Y-944341D02*
X4827206Y-906246D01*
X4827206Y-906246D02*
X4817682Y-858627D01*
X4817682Y-858627D02*
X4808158Y-830055D01*
X4808158Y-830055D02*
X4798634Y-811008D01*
X4798634Y-811008D02*
X4779587Y-782436D01*
X4779587Y-782436D02*
X4770063Y-772912D01*
D10*
X-55000Y-1124000D02*
X-55000Y-1224000D01*
X-105000Y-1174000D02*
X-5000Y-1174000D01*
D11*
X360539Y-1265484D02*
X246253Y-1265484D01*
X303396Y-1265484D02*
X303396Y-1065484D01*
X303396Y-1065484D02*
X284348Y-1094055D01*
X284348Y-1094055D02*
X265301Y-1113103D01*
X265301Y-1113103D02*
X246253Y-1122627D01*
X446253Y-1246436D02*
X455777Y-1255960D01*
X455777Y-1255960D02*
X446253Y-1265484D01*
X446253Y-1265484D02*
X436729Y-1255960D01*
X436729Y-1255960D02*
X446253Y-1246436D01*
X446253Y-1246436D02*
X446253Y-1265484D01*
X579586Y-1065484D02*
X598634Y-1065484D01*
X598634Y-1065484D02*
X617682Y-1075008D01*
X617682Y-1075008D02*
X627205Y-1084531D01*
X627205Y-1084531D02*
X636729Y-1103579D01*
X636729Y-1103579D02*
X646253Y-1141674D01*
X646253Y-1141674D02*
X646253Y-1189293D01*
X646253Y-1189293D02*
X636729Y-1227389D01*
X636729Y-1227389D02*
X627205Y-1246436D01*
X627205Y-1246436D02*
X617682Y-1255960D01*
X617682Y-1255960D02*
X598634Y-1265484D01*
X598634Y-1265484D02*
X579586Y-1265484D01*
X579586Y-1265484D02*
X560539Y-1255960D01*
X560539Y-1255960D02*
X551015Y-1246436D01*
X551015Y-1246436D02*
X541491Y-1227389D01*
X541491Y-1227389D02*
X531967Y-1189293D01*
X531967Y-1189293D02*
X531967Y-1141674D01*
X531967Y-1141674D02*
X541491Y-1103579D01*
X541491Y-1103579D02*
X551015Y-1084531D01*
X551015Y-1084531D02*
X560539Y-1075008D01*
X560539Y-1075008D02*
X579586Y-1065484D01*
X770062Y-1065484D02*
X789110Y-1065484D01*
X789110Y-1065484D02*
X808158Y-1075008D01*
X808158Y-1075008D02*
X817682Y-1084531D01*
X817682Y-1084531D02*
X827205Y-1103579D01*
X827205Y-1103579D02*
X836729Y-1141674D01*
X836729Y-1141674D02*
X836729Y-1189293D01*
X836729Y-1189293D02*
X827205Y-1227389D01*
X827205Y-1227389D02*
X817682Y-1246436D01*
X817682Y-1246436D02*
X808158Y-1255960D01*
X808158Y-1255960D02*
X789110Y-1265484D01*
X789110Y-1265484D02*
X770062Y-1265484D01*
X770062Y-1265484D02*
X751015Y-1255960D01*
X751015Y-1255960D02*
X741491Y-1246436D01*
X741491Y-1246436D02*
X731967Y-1227389D01*
X731967Y-1227389D02*
X722443Y-1189293D01*
X722443Y-1189293D02*
X722443Y-1141674D01*
X722443Y-1141674D02*
X731967Y-1103579D01*
X731967Y-1103579D02*
X741491Y-1084531D01*
X741491Y-1084531D02*
X751015Y-1075008D01*
X751015Y-1075008D02*
X770062Y-1065484D01*
X960539Y-1065484D02*
X979586Y-1065484D01*
X979586Y-1065484D02*
X998634Y-1075008D01*
X998634Y-1075008D02*
X1008158Y-1084531D01*
X1008158Y-1084531D02*
X1017682Y-1103579D01*
X1017682Y-1103579D02*
X1027205Y-1141674D01*
X1027205Y-1141674D02*
X1027205Y-1189293D01*
X1027205Y-1189293D02*
X1017682Y-1227389D01*
X1017682Y-1227389D02*
X1008158Y-1246436D01*
X1008158Y-1246436D02*
X998634Y-1255960D01*
X998634Y-1255960D02*
X979586Y-1265484D01*
X979586Y-1265484D02*
X960539Y-1265484D01*
X960539Y-1265484D02*
X941491Y-1255960D01*
X941491Y-1255960D02*
X931967Y-1246436D01*
X931967Y-1246436D02*
X922443Y-1227389D01*
X922443Y-1227389D02*
X912920Y-1189293D01*
X912920Y-1189293D02*
X912920Y-1141674D01*
X912920Y-1141674D02*
X922443Y-1103579D01*
X922443Y-1103579D02*
X931967Y-1084531D01*
X931967Y-1084531D02*
X941491Y-1075008D01*
X941491Y-1075008D02*
X960539Y-1065484D01*
X1112920Y-1265484D02*
X1112920Y-1132150D01*
X1112920Y-1151198D02*
X1122444Y-1141674D01*
X1122444Y-1141674D02*
X1141491Y-1132150D01*
X1141491Y-1132150D02*
X1170063Y-1132150D01*
X1170063Y-1132150D02*
X1189110Y-1141674D01*
X1189110Y-1141674D02*
X1198634Y-1160722D01*
X1198634Y-1160722D02*
X1198634Y-1265484D01*
X1198634Y-1160722D02*
X1208158Y-1141674D01*
X1208158Y-1141674D02*
X1227205Y-1132150D01*
X1227205Y-1132150D02*
X1255777Y-1132150D01*
X1255777Y-1132150D02*
X1274825Y-1141674D01*
X1274825Y-1141674D02*
X1284348Y-1160722D01*
X1284348Y-1160722D02*
X1284348Y-1265484D01*
X1379586Y-1265484D02*
X1379586Y-1132150D01*
X1379586Y-1151198D02*
X1389110Y-1141674D01*
X1389110Y-1141674D02*
X1408158Y-1132150D01*
X1408158Y-1132150D02*
X1436729Y-1132150D01*
X1436729Y-1132150D02*
X1455777Y-1141674D01*
X1455777Y-1141674D02*
X1465301Y-1160722D01*
X1465301Y-1160722D02*
X1465301Y-1265484D01*
X1465301Y-1160722D02*
X1474824Y-1141674D01*
X1474824Y-1141674D02*
X1493872Y-1132150D01*
X1493872Y-1132150D02*
X1522443Y-1132150D01*
X1522443Y-1132150D02*
X1541491Y-1141674D01*
X1541491Y-1141674D02*
X1551015Y-1160722D01*
X1551015Y-1160722D02*
X1551015Y-1265484D01*
X1941491Y-1055960D02*
X1770063Y-1313103D01*
X2198634Y-1065484D02*
X2217682Y-1065484D01*
X2217682Y-1065484D02*
X2236729Y-1075008D01*
X2236729Y-1075008D02*
X2246253Y-1084531D01*
X2246253Y-1084531D02*
X2255777Y-1103579D01*
X2255777Y-1103579D02*
X2265301Y-1141674D01*
X2265301Y-1141674D02*
X2265301Y-1189293D01*
X2265301Y-1189293D02*
X2255777Y-1227389D01*
X2255777Y-1227389D02*
X2246253Y-1246436D01*
X2246253Y-1246436D02*
X2236729Y-1255960D01*
X2236729Y-1255960D02*
X2217682Y-1265484D01*
X2217682Y-1265484D02*
X2198634Y-1265484D01*
X2198634Y-1265484D02*
X2179587Y-1255960D01*
X2179587Y-1255960D02*
X2170063Y-1246436D01*
X2170063Y-1246436D02*
X2160539Y-1227389D01*
X2160539Y-1227389D02*
X2151015Y-1189293D01*
X2151015Y-1189293D02*
X2151015Y-1141674D01*
X2151015Y-1141674D02*
X2160539Y-1103579D01*
X2160539Y-1103579D02*
X2170063Y-1084531D01*
X2170063Y-1084531D02*
X2179587Y-1075008D01*
X2179587Y-1075008D02*
X2198634Y-1065484D01*
X2351015Y-1246436D02*
X2360539Y-1255960D01*
X2360539Y-1255960D02*
X2351015Y-1265484D01*
X2351015Y-1265484D02*
X2341491Y-1255960D01*
X2341491Y-1255960D02*
X2351015Y-1246436D01*
X2351015Y-1246436D02*
X2351015Y-1265484D01*
X2484348Y-1065484D02*
X2503396Y-1065484D01*
X2503396Y-1065484D02*
X2522444Y-1075008D01*
X2522444Y-1075008D02*
X2531968Y-1084531D01*
X2531968Y-1084531D02*
X2541491Y-1103579D01*
X2541491Y-1103579D02*
X2551015Y-1141674D01*
X2551015Y-1141674D02*
X2551015Y-1189293D01*
X2551015Y-1189293D02*
X2541491Y-1227389D01*
X2541491Y-1227389D02*
X2531968Y-1246436D01*
X2531968Y-1246436D02*
X2522444Y-1255960D01*
X2522444Y-1255960D02*
X2503396Y-1265484D01*
X2503396Y-1265484D02*
X2484348Y-1265484D01*
X2484348Y-1265484D02*
X2465301Y-1255960D01*
X2465301Y-1255960D02*
X2455777Y-1246436D01*
X2455777Y-1246436D02*
X2446253Y-1227389D01*
X2446253Y-1227389D02*
X2436729Y-1189293D01*
X2436729Y-1189293D02*
X2436729Y-1141674D01*
X2436729Y-1141674D02*
X2446253Y-1103579D01*
X2446253Y-1103579D02*
X2455777Y-1084531D01*
X2455777Y-1084531D02*
X2465301Y-1075008D01*
X2465301Y-1075008D02*
X2484348Y-1065484D01*
X2617682Y-1065484D02*
X2741491Y-1065484D01*
X2741491Y-1065484D02*
X2674825Y-1141674D01*
X2674825Y-1141674D02*
X2703396Y-1141674D01*
X2703396Y-1141674D02*
X2722444Y-1151198D01*
X2722444Y-1151198D02*
X2731968Y-1160722D01*
X2731968Y-1160722D02*
X2741491Y-1179770D01*
X2741491Y-1179770D02*
X2741491Y-1227389D01*
X2741491Y-1227389D02*
X2731968Y-1246436D01*
X2731968Y-1246436D02*
X2722444Y-1255960D01*
X2722444Y-1255960D02*
X2703396Y-1265484D01*
X2703396Y-1265484D02*
X2646253Y-1265484D01*
X2646253Y-1265484D02*
X2627206Y-1255960D01*
X2627206Y-1255960D02*
X2617682Y-1246436D01*
X2836729Y-1265484D02*
X2874825Y-1265484D01*
X2874825Y-1265484D02*
X2893872Y-1255960D01*
X2893872Y-1255960D02*
X2903396Y-1246436D01*
X2903396Y-1246436D02*
X2922444Y-1217865D01*
X2922444Y-1217865D02*
X2931967Y-1179770D01*
X2931967Y-1179770D02*
X2931967Y-1103579D01*
X2931967Y-1103579D02*
X2922444Y-1084531D01*
X2922444Y-1084531D02*
X2912920Y-1075008D01*
X2912920Y-1075008D02*
X2893872Y-1065484D01*
X2893872Y-1065484D02*
X2855777Y-1065484D01*
X2855777Y-1065484D02*
X2836729Y-1075008D01*
X2836729Y-1075008D02*
X2827206Y-1084531D01*
X2827206Y-1084531D02*
X2817682Y-1103579D01*
X2817682Y-1103579D02*
X2817682Y-1151198D01*
X2817682Y-1151198D02*
X2827206Y-1170246D01*
X2827206Y-1170246D02*
X2836729Y-1179770D01*
X2836729Y-1179770D02*
X2855777Y-1189293D01*
X2855777Y-1189293D02*
X2893872Y-1189293D01*
X2893872Y-1189293D02*
X2912920Y-1179770D01*
X2912920Y-1179770D02*
X2922444Y-1170246D01*
X2922444Y-1170246D02*
X2931967Y-1151198D01*
X3103396Y-1132150D02*
X3103396Y-1265484D01*
X3055777Y-1055960D02*
X3008158Y-1198817D01*
X3008158Y-1198817D02*
X3131967Y-1198817D01*
X3198634Y-1065484D02*
X3198634Y-1103579D01*
X3274825Y-1065484D02*
X3274825Y-1103579D01*
X3570063Y-1341674D02*
X3560539Y-1332150D01*
X3560539Y-1332150D02*
X3541491Y-1303579D01*
X3541491Y-1303579D02*
X3531968Y-1284531D01*
X3531968Y-1284531D02*
X3522444Y-1255960D01*
X3522444Y-1255960D02*
X3512920Y-1208341D01*
X3512920Y-1208341D02*
X3512920Y-1170246D01*
X3512920Y-1170246D02*
X3522444Y-1122627D01*
X3522444Y-1122627D02*
X3531968Y-1094055D01*
X3531968Y-1094055D02*
X3541491Y-1075008D01*
X3541491Y-1075008D02*
X3560539Y-1046436D01*
X3560539Y-1046436D02*
X3570063Y-1036912D01*
X3751015Y-1265484D02*
X3636729Y-1265484D01*
X3693872Y-1265484D02*
X3693872Y-1065484D01*
X3693872Y-1065484D02*
X3674825Y-1094055D01*
X3674825Y-1094055D02*
X3655777Y-1113103D01*
X3655777Y-1113103D02*
X3636729Y-1122627D01*
X3874825Y-1065484D02*
X3893872Y-1065484D01*
X3893872Y-1065484D02*
X3912920Y-1075008D01*
X3912920Y-1075008D02*
X3922444Y-1084531D01*
X3922444Y-1084531D02*
X3931968Y-1103579D01*
X3931968Y-1103579D02*
X3941491Y-1141674D01*
X3941491Y-1141674D02*
X3941491Y-1189293D01*
X3941491Y-1189293D02*
X3931968Y-1227389D01*
X3931968Y-1227389D02*
X3922444Y-1246436D01*
X3922444Y-1246436D02*
X3912920Y-1255960D01*
X3912920Y-1255960D02*
X3893872Y-1265484D01*
X3893872Y-1265484D02*
X3874825Y-1265484D01*
X3874825Y-1265484D02*
X3855777Y-1255960D01*
X3855777Y-1255960D02*
X3846253Y-1246436D01*
X3846253Y-1246436D02*
X3836729Y-1227389D01*
X3836729Y-1227389D02*
X3827206Y-1189293D01*
X3827206Y-1189293D02*
X3827206Y-1141674D01*
X3827206Y-1141674D02*
X3836729Y-1103579D01*
X3836729Y-1103579D02*
X3846253Y-1084531D01*
X3846253Y-1084531D02*
X3855777Y-1075008D01*
X3855777Y-1075008D02*
X3874825Y-1065484D01*
X4179587Y-1265484D02*
X4179587Y-1065484D01*
X4265301Y-1265484D02*
X4265301Y-1160722D01*
X4265301Y-1160722D02*
X4255777Y-1141674D01*
X4255777Y-1141674D02*
X4236730Y-1132150D01*
X4236730Y-1132150D02*
X4208158Y-1132150D01*
X4208158Y-1132150D02*
X4189110Y-1141674D01*
X4189110Y-1141674D02*
X4179587Y-1151198D01*
X4389111Y-1265484D02*
X4370063Y-1255960D01*
X4370063Y-1255960D02*
X4360539Y-1246436D01*
X4360539Y-1246436D02*
X4351015Y-1227389D01*
X4351015Y-1227389D02*
X4351015Y-1170246D01*
X4351015Y-1170246D02*
X4360539Y-1151198D01*
X4360539Y-1151198D02*
X4370063Y-1141674D01*
X4370063Y-1141674D02*
X4389111Y-1132150D01*
X4389111Y-1132150D02*
X4417682Y-1132150D01*
X4417682Y-1132150D02*
X4436730Y-1141674D01*
X4436730Y-1141674D02*
X4446253Y-1151198D01*
X4446253Y-1151198D02*
X4455777Y-1170246D01*
X4455777Y-1170246D02*
X4455777Y-1227389D01*
X4455777Y-1227389D02*
X4446253Y-1246436D01*
X4446253Y-1246436D02*
X4436730Y-1255960D01*
X4436730Y-1255960D02*
X4417682Y-1265484D01*
X4417682Y-1265484D02*
X4389111Y-1265484D01*
X4570063Y-1265484D02*
X4551015Y-1255960D01*
X4551015Y-1255960D02*
X4541492Y-1236912D01*
X4541492Y-1236912D02*
X4541492Y-1065484D01*
X4722444Y-1255960D02*
X4703396Y-1265484D01*
X4703396Y-1265484D02*
X4665301Y-1265484D01*
X4665301Y-1265484D02*
X4646253Y-1255960D01*
X4646253Y-1255960D02*
X4636730Y-1236912D01*
X4636730Y-1236912D02*
X4636730Y-1160722D01*
X4636730Y-1160722D02*
X4646253Y-1141674D01*
X4646253Y-1141674D02*
X4665301Y-1132150D01*
X4665301Y-1132150D02*
X4703396Y-1132150D01*
X4703396Y-1132150D02*
X4722444Y-1141674D01*
X4722444Y-1141674D02*
X4731968Y-1160722D01*
X4731968Y-1160722D02*
X4731968Y-1179770D01*
X4731968Y-1179770D02*
X4636730Y-1198817D01*
X4808158Y-1255960D02*
X4827206Y-1265484D01*
X4827206Y-1265484D02*
X4865301Y-1265484D01*
X4865301Y-1265484D02*
X4884349Y-1255960D01*
X4884349Y-1255960D02*
X4893873Y-1236912D01*
X4893873Y-1236912D02*
X4893873Y-1227389D01*
X4893873Y-1227389D02*
X4884349Y-1208341D01*
X4884349Y-1208341D02*
X4865301Y-1198817D01*
X4865301Y-1198817D02*
X4836730Y-1198817D01*
X4836730Y-1198817D02*
X4817682Y-1189293D01*
X4817682Y-1189293D02*
X4808158Y-1170246D01*
X4808158Y-1170246D02*
X4808158Y-1160722D01*
X4808158Y-1160722D02*
X4817682Y-1141674D01*
X4817682Y-1141674D02*
X4836730Y-1132150D01*
X4836730Y-1132150D02*
X4865301Y-1132150D01*
X4865301Y-1132150D02*
X4884349Y-1141674D01*
X4960539Y-1341674D02*
X4970063Y-1332150D01*
X4970063Y-1332150D02*
X4989111Y-1303579D01*
X4989111Y-1303579D02*
X4998634Y-1284531D01*
X4998634Y-1284531D02*
X5008158Y-1255960D01*
X5008158Y-1255960D02*
X5017682Y-1208341D01*
X5017682Y-1208341D02*
X5017682Y-1170246D01*
X5017682Y-1170246D02*
X5008158Y-1122627D01*
X5008158Y-1122627D02*
X4998634Y-1094055D01*
X4998634Y-1094055D02*
X4989111Y-1075008D01*
X4989111Y-1075008D02*
X4970063Y-1046436D01*
X4970063Y-1046436D02*
X4960539Y-1036912D01*
D14*
X-21109Y-1476891D02*
X-21109Y-1399109D01*
X-98891Y-1399109D01*
X-98891Y-1476891D01*
X-21109Y-1476891D01*
D11*
X360539Y-1529484D02*
X246253Y-1529484D01*
X303396Y-1529484D02*
X303396Y-1329484D01*
X303396Y-1329484D02*
X284348Y-1358055D01*
X284348Y-1358055D02*
X265301Y-1377103D01*
X265301Y-1377103D02*
X246253Y-1386627D01*
X446253Y-1510436D02*
X455777Y-1519960D01*
X455777Y-1519960D02*
X446253Y-1529484D01*
X446253Y-1529484D02*
X436729Y-1519960D01*
X436729Y-1519960D02*
X446253Y-1510436D01*
X446253Y-1510436D02*
X446253Y-1529484D01*
X646253Y-1529484D02*
X531967Y-1529484D01*
X589110Y-1529484D02*
X589110Y-1329484D01*
X589110Y-1329484D02*
X570063Y-1358055D01*
X570063Y-1358055D02*
X551015Y-1377103D01*
X551015Y-1377103D02*
X531967Y-1386627D01*
X770062Y-1329484D02*
X789110Y-1329484D01*
X789110Y-1329484D02*
X808158Y-1339008D01*
X808158Y-1339008D02*
X817682Y-1348531D01*
X817682Y-1348531D02*
X827205Y-1367579D01*
X827205Y-1367579D02*
X836729Y-1405674D01*
X836729Y-1405674D02*
X836729Y-1453293D01*
X836729Y-1453293D02*
X827205Y-1491388D01*
X827205Y-1491388D02*
X817682Y-1510436D01*
X817682Y-1510436D02*
X808158Y-1519960D01*
X808158Y-1519960D02*
X789110Y-1529484D01*
X789110Y-1529484D02*
X770062Y-1529484D01*
X770062Y-1529484D02*
X751015Y-1519960D01*
X751015Y-1519960D02*
X741491Y-1510436D01*
X741491Y-1510436D02*
X731967Y-1491388D01*
X731967Y-1491388D02*
X722443Y-1453293D01*
X722443Y-1453293D02*
X722443Y-1405674D01*
X722443Y-1405674D02*
X731967Y-1367579D01*
X731967Y-1367579D02*
X741491Y-1348531D01*
X741491Y-1348531D02*
X751015Y-1339008D01*
X751015Y-1339008D02*
X770062Y-1329484D01*
X960539Y-1329484D02*
X979586Y-1329484D01*
X979586Y-1329484D02*
X998634Y-1339008D01*
X998634Y-1339008D02*
X1008158Y-1348531D01*
X1008158Y-1348531D02*
X1017682Y-1367579D01*
X1017682Y-1367579D02*
X1027205Y-1405674D01*
X1027205Y-1405674D02*
X1027205Y-1453293D01*
X1027205Y-1453293D02*
X1017682Y-1491388D01*
X1017682Y-1491388D02*
X1008158Y-1510436D01*
X1008158Y-1510436D02*
X998634Y-1519960D01*
X998634Y-1519960D02*
X979586Y-1529484D01*
X979586Y-1529484D02*
X960539Y-1529484D01*
X960539Y-1529484D02*
X941491Y-1519960D01*
X941491Y-1519960D02*
X931967Y-1510436D01*
X931967Y-1510436D02*
X922443Y-1491388D01*
X922443Y-1491388D02*
X912920Y-1453293D01*
X912920Y-1453293D02*
X912920Y-1405674D01*
X912920Y-1405674D02*
X922443Y-1367579D01*
X922443Y-1367579D02*
X931967Y-1348531D01*
X931967Y-1348531D02*
X941491Y-1339008D01*
X941491Y-1339008D02*
X960539Y-1329484D01*
X1112920Y-1529484D02*
X1112920Y-1396150D01*
X1112920Y-1415198D02*
X1122444Y-1405674D01*
X1122444Y-1405674D02*
X1141491Y-1396150D01*
X1141491Y-1396150D02*
X1170063Y-1396150D01*
X1170063Y-1396150D02*
X1189110Y-1405674D01*
X1189110Y-1405674D02*
X1198634Y-1424722D01*
X1198634Y-1424722D02*
X1198634Y-1529484D01*
X1198634Y-1424722D02*
X1208158Y-1405674D01*
X1208158Y-1405674D02*
X1227205Y-1396150D01*
X1227205Y-1396150D02*
X1255777Y-1396150D01*
X1255777Y-1396150D02*
X1274825Y-1405674D01*
X1274825Y-1405674D02*
X1284348Y-1424722D01*
X1284348Y-1424722D02*
X1284348Y-1529484D01*
X1379586Y-1529484D02*
X1379586Y-1396150D01*
X1379586Y-1415198D02*
X1389110Y-1405674D01*
X1389110Y-1405674D02*
X1408158Y-1396150D01*
X1408158Y-1396150D02*
X1436729Y-1396150D01*
X1436729Y-1396150D02*
X1455777Y-1405674D01*
X1455777Y-1405674D02*
X1465301Y-1424722D01*
X1465301Y-1424722D02*
X1465301Y-1529484D01*
X1465301Y-1424722D02*
X1474824Y-1405674D01*
X1474824Y-1405674D02*
X1493872Y-1396150D01*
X1493872Y-1396150D02*
X1522443Y-1396150D01*
X1522443Y-1396150D02*
X1541491Y-1405674D01*
X1541491Y-1405674D02*
X1551015Y-1424722D01*
X1551015Y-1424722D02*
X1551015Y-1529484D01*
X1941491Y-1319960D02*
X1770063Y-1577103D01*
X2198634Y-1329484D02*
X2217682Y-1329484D01*
X2217682Y-1329484D02*
X2236729Y-1339008D01*
X2236729Y-1339008D02*
X2246253Y-1348531D01*
X2246253Y-1348531D02*
X2255777Y-1367579D01*
X2255777Y-1367579D02*
X2265301Y-1405674D01*
X2265301Y-1405674D02*
X2265301Y-1453293D01*
X2265301Y-1453293D02*
X2255777Y-1491388D01*
X2255777Y-1491388D02*
X2246253Y-1510436D01*
X2246253Y-1510436D02*
X2236729Y-1519960D01*
X2236729Y-1519960D02*
X2217682Y-1529484D01*
X2217682Y-1529484D02*
X2198634Y-1529484D01*
X2198634Y-1529484D02*
X2179587Y-1519960D01*
X2179587Y-1519960D02*
X2170063Y-1510436D01*
X2170063Y-1510436D02*
X2160539Y-1491388D01*
X2160539Y-1491388D02*
X2151015Y-1453293D01*
X2151015Y-1453293D02*
X2151015Y-1405674D01*
X2151015Y-1405674D02*
X2160539Y-1367579D01*
X2160539Y-1367579D02*
X2170063Y-1348531D01*
X2170063Y-1348531D02*
X2179587Y-1339008D01*
X2179587Y-1339008D02*
X2198634Y-1329484D01*
X2351015Y-1510436D02*
X2360539Y-1519960D01*
X2360539Y-1519960D02*
X2351015Y-1529484D01*
X2351015Y-1529484D02*
X2341491Y-1519960D01*
X2341491Y-1519960D02*
X2351015Y-1510436D01*
X2351015Y-1510436D02*
X2351015Y-1529484D01*
X2484348Y-1329484D02*
X2503396Y-1329484D01*
X2503396Y-1329484D02*
X2522444Y-1339008D01*
X2522444Y-1339008D02*
X2531968Y-1348531D01*
X2531968Y-1348531D02*
X2541491Y-1367579D01*
X2541491Y-1367579D02*
X2551015Y-1405674D01*
X2551015Y-1405674D02*
X2551015Y-1453293D01*
X2551015Y-1453293D02*
X2541491Y-1491388D01*
X2541491Y-1491388D02*
X2531968Y-1510436D01*
X2531968Y-1510436D02*
X2522444Y-1519960D01*
X2522444Y-1519960D02*
X2503396Y-1529484D01*
X2503396Y-1529484D02*
X2484348Y-1529484D01*
X2484348Y-1529484D02*
X2465301Y-1519960D01*
X2465301Y-1519960D02*
X2455777Y-1510436D01*
X2455777Y-1510436D02*
X2446253Y-1491388D01*
X2446253Y-1491388D02*
X2436729Y-1453293D01*
X2436729Y-1453293D02*
X2436729Y-1405674D01*
X2436729Y-1405674D02*
X2446253Y-1367579D01*
X2446253Y-1367579D02*
X2455777Y-1348531D01*
X2455777Y-1348531D02*
X2465301Y-1339008D01*
X2465301Y-1339008D02*
X2484348Y-1329484D01*
X2722444Y-1396150D02*
X2722444Y-1529484D01*
X2674825Y-1319960D02*
X2627206Y-1462817D01*
X2627206Y-1462817D02*
X2751015Y-1462817D01*
X2808158Y-1329484D02*
X2931967Y-1329484D01*
X2931967Y-1329484D02*
X2865301Y-1405674D01*
X2865301Y-1405674D02*
X2893872Y-1405674D01*
X2893872Y-1405674D02*
X2912920Y-1415198D01*
X2912920Y-1415198D02*
X2922444Y-1424722D01*
X2922444Y-1424722D02*
X2931967Y-1443769D01*
X2931967Y-1443769D02*
X2931967Y-1491388D01*
X2931967Y-1491388D02*
X2922444Y-1510436D01*
X2922444Y-1510436D02*
X2912920Y-1519960D01*
X2912920Y-1519960D02*
X2893872Y-1529484D01*
X2893872Y-1529484D02*
X2836729Y-1529484D01*
X2836729Y-1529484D02*
X2817682Y-1519960D01*
X2817682Y-1519960D02*
X2808158Y-1510436D01*
X2998634Y-1329484D02*
X3122444Y-1329484D01*
X3122444Y-1329484D02*
X3055777Y-1405674D01*
X3055777Y-1405674D02*
X3084348Y-1405674D01*
X3084348Y-1405674D02*
X3103396Y-1415198D01*
X3103396Y-1415198D02*
X3112920Y-1424722D01*
X3112920Y-1424722D02*
X3122444Y-1443769D01*
X3122444Y-1443769D02*
X3122444Y-1491388D01*
X3122444Y-1491388D02*
X3112920Y-1510436D01*
X3112920Y-1510436D02*
X3103396Y-1519960D01*
X3103396Y-1519960D02*
X3084348Y-1529484D01*
X3084348Y-1529484D02*
X3027206Y-1529484D01*
X3027206Y-1529484D02*
X3008158Y-1519960D01*
X3008158Y-1519960D02*
X2998634Y-1510436D01*
X3198634Y-1329484D02*
X3198634Y-1367579D01*
X3274825Y-1329484D02*
X3274825Y-1367579D01*
X3570063Y-1605674D02*
X3560539Y-1596150D01*
X3560539Y-1596150D02*
X3541491Y-1567579D01*
X3541491Y-1567579D02*
X3531968Y-1548531D01*
X3531968Y-1548531D02*
X3522444Y-1519960D01*
X3522444Y-1519960D02*
X3512920Y-1472341D01*
X3512920Y-1472341D02*
X3512920Y-1434246D01*
X3512920Y-1434246D02*
X3522444Y-1386627D01*
X3522444Y-1386627D02*
X3531968Y-1358055D01*
X3531968Y-1358055D02*
X3541491Y-1339008D01*
X3541491Y-1339008D02*
X3560539Y-1310436D01*
X3560539Y-1310436D02*
X3570063Y-1300912D01*
X3627206Y-1329484D02*
X3751015Y-1329484D01*
X3751015Y-1329484D02*
X3684348Y-1405674D01*
X3684348Y-1405674D02*
X3712920Y-1405674D01*
X3712920Y-1405674D02*
X3731968Y-1415198D01*
X3731968Y-1415198D02*
X3741491Y-1424722D01*
X3741491Y-1424722D02*
X3751015Y-1443769D01*
X3751015Y-1443769D02*
X3751015Y-1491388D01*
X3751015Y-1491388D02*
X3741491Y-1510436D01*
X3741491Y-1510436D02*
X3731968Y-1519960D01*
X3731968Y-1519960D02*
X3712920Y-1529484D01*
X3712920Y-1529484D02*
X3655777Y-1529484D01*
X3655777Y-1529484D02*
X3636729Y-1519960D01*
X3636729Y-1519960D02*
X3627206Y-1510436D01*
X3989110Y-1529484D02*
X3989110Y-1329484D01*
X4074825Y-1529484D02*
X4074825Y-1424722D01*
X4074825Y-1424722D02*
X4065301Y-1405674D01*
X4065301Y-1405674D02*
X4046253Y-1396150D01*
X4046253Y-1396150D02*
X4017682Y-1396150D01*
X4017682Y-1396150D02*
X3998634Y-1405674D01*
X3998634Y-1405674D02*
X3989110Y-1415198D01*
X4198634Y-1529484D02*
X4179587Y-1519960D01*
X4179587Y-1519960D02*
X4170063Y-1510436D01*
X4170063Y-1510436D02*
X4160539Y-1491388D01*
X4160539Y-1491388D02*
X4160539Y-1434246D01*
X4160539Y-1434246D02*
X4170063Y-1415198D01*
X4170063Y-1415198D02*
X4179587Y-1405674D01*
X4179587Y-1405674D02*
X4198634Y-1396150D01*
X4198634Y-1396150D02*
X4227206Y-1396150D01*
X4227206Y-1396150D02*
X4246253Y-1405674D01*
X4246253Y-1405674D02*
X4255777Y-1415198D01*
X4255777Y-1415198D02*
X4265301Y-1434246D01*
X4265301Y-1434246D02*
X4265301Y-1491388D01*
X4265301Y-1491388D02*
X4255777Y-1510436D01*
X4255777Y-1510436D02*
X4246253Y-1519960D01*
X4246253Y-1519960D02*
X4227206Y-1529484D01*
X4227206Y-1529484D02*
X4198634Y-1529484D01*
X4379587Y-1529484D02*
X4360539Y-1519960D01*
X4360539Y-1519960D02*
X4351015Y-1500912D01*
X4351015Y-1500912D02*
X4351015Y-1329484D01*
X4531968Y-1519960D02*
X4512920Y-1529484D01*
X4512920Y-1529484D02*
X4474825Y-1529484D01*
X4474825Y-1529484D02*
X4455777Y-1519960D01*
X4455777Y-1519960D02*
X4446253Y-1500912D01*
X4446253Y-1500912D02*
X4446253Y-1424722D01*
X4446253Y-1424722D02*
X4455777Y-1405674D01*
X4455777Y-1405674D02*
X4474825Y-1396150D01*
X4474825Y-1396150D02*
X4512920Y-1396150D01*
X4512920Y-1396150D02*
X4531968Y-1405674D01*
X4531968Y-1405674D02*
X4541492Y-1424722D01*
X4541492Y-1424722D02*
X4541492Y-1443769D01*
X4541492Y-1443769D02*
X4446253Y-1462817D01*
X4617682Y-1519960D02*
X4636730Y-1529484D01*
X4636730Y-1529484D02*
X4674825Y-1529484D01*
X4674825Y-1529484D02*
X4693873Y-1519960D01*
X4693873Y-1519960D02*
X4703396Y-1500912D01*
X4703396Y-1500912D02*
X4703396Y-1491388D01*
X4703396Y-1491388D02*
X4693873Y-1472341D01*
X4693873Y-1472341D02*
X4674825Y-1462817D01*
X4674825Y-1462817D02*
X4646253Y-1462817D01*
X4646253Y-1462817D02*
X4627206Y-1453293D01*
X4627206Y-1453293D02*
X4617682Y-1434246D01*
X4617682Y-1434246D02*
X4617682Y-1424722D01*
X4617682Y-1424722D02*
X4627206Y-1405674D01*
X4627206Y-1405674D02*
X4646253Y-1396150D01*
X4646253Y-1396150D02*
X4674825Y-1396150D01*
X4674825Y-1396150D02*
X4693873Y-1405674D01*
X4770063Y-1605674D02*
X4779587Y-1596150D01*
X4779587Y-1596150D02*
X4798634Y-1567579D01*
X4798634Y-1567579D02*
X4808158Y-1548531D01*
X4808158Y-1548531D02*
X4817682Y-1519960D01*
X4817682Y-1519960D02*
X4827206Y-1472341D01*
X4827206Y-1472341D02*
X4827206Y-1434246D01*
X4827206Y-1434246D02*
X4817682Y-1386627D01*
X4817682Y-1386627D02*
X4808158Y-1358055D01*
X4808158Y-1358055D02*
X4798634Y-1339008D01*
X4798634Y-1339008D02*
X4779587Y-1310436D01*
X4779587Y-1310436D02*
X4770063Y-1300912D01*
D15*
X-70000Y-1767000D02*
X-5000Y-1702000D01*
X-70000Y-1637000D01*
X-135000Y-1702000D01*
X-70000Y-1767000D01*
D11*
X360539Y-1793484D02*
X246253Y-1793484D01*
X303396Y-1793484D02*
X303396Y-1593484D01*
X303396Y-1593484D02*
X284348Y-1622055D01*
X284348Y-1622055D02*
X265301Y-1641103D01*
X265301Y-1641103D02*
X246253Y-1650627D01*
X446253Y-1774436D02*
X455777Y-1783960D01*
X455777Y-1783960D02*
X446253Y-1793484D01*
X446253Y-1793484D02*
X436729Y-1783960D01*
X436729Y-1783960D02*
X446253Y-1774436D01*
X446253Y-1774436D02*
X446253Y-1793484D01*
X522443Y-1593484D02*
X646253Y-1593484D01*
X646253Y-1593484D02*
X579586Y-1669674D01*
X579586Y-1669674D02*
X608158Y-1669674D01*
X608158Y-1669674D02*
X627205Y-1679198D01*
X627205Y-1679198D02*
X636729Y-1688722D01*
X636729Y-1688722D02*
X646253Y-1707769D01*
X646253Y-1707769D02*
X646253Y-1755388D01*
X646253Y-1755388D02*
X636729Y-1774436D01*
X636729Y-1774436D02*
X627205Y-1783960D01*
X627205Y-1783960D02*
X608158Y-1793484D01*
X608158Y-1793484D02*
X551015Y-1793484D01*
X551015Y-1793484D02*
X531967Y-1783960D01*
X531967Y-1783960D02*
X522443Y-1774436D01*
X770062Y-1593484D02*
X789110Y-1593484D01*
X789110Y-1593484D02*
X808158Y-1603008D01*
X808158Y-1603008D02*
X817682Y-1612531D01*
X817682Y-1612531D02*
X827205Y-1631579D01*
X827205Y-1631579D02*
X836729Y-1669674D01*
X836729Y-1669674D02*
X836729Y-1717293D01*
X836729Y-1717293D02*
X827205Y-1755388D01*
X827205Y-1755388D02*
X817682Y-1774436D01*
X817682Y-1774436D02*
X808158Y-1783960D01*
X808158Y-1783960D02*
X789110Y-1793484D01*
X789110Y-1793484D02*
X770062Y-1793484D01*
X770062Y-1793484D02*
X751015Y-1783960D01*
X751015Y-1783960D02*
X741491Y-1774436D01*
X741491Y-1774436D02*
X731967Y-1755388D01*
X731967Y-1755388D02*
X722443Y-1717293D01*
X722443Y-1717293D02*
X722443Y-1669674D01*
X722443Y-1669674D02*
X731967Y-1631579D01*
X731967Y-1631579D02*
X741491Y-1612531D01*
X741491Y-1612531D02*
X751015Y-1603008D01*
X751015Y-1603008D02*
X770062Y-1593484D01*
X960539Y-1593484D02*
X979586Y-1593484D01*
X979586Y-1593484D02*
X998634Y-1603008D01*
X998634Y-1603008D02*
X1008158Y-1612531D01*
X1008158Y-1612531D02*
X1017682Y-1631579D01*
X1017682Y-1631579D02*
X1027205Y-1669674D01*
X1027205Y-1669674D02*
X1027205Y-1717293D01*
X1027205Y-1717293D02*
X1017682Y-1755388D01*
X1017682Y-1755388D02*
X1008158Y-1774436D01*
X1008158Y-1774436D02*
X998634Y-1783960D01*
X998634Y-1783960D02*
X979586Y-1793484D01*
X979586Y-1793484D02*
X960539Y-1793484D01*
X960539Y-1793484D02*
X941491Y-1783960D01*
X941491Y-1783960D02*
X931967Y-1774436D01*
X931967Y-1774436D02*
X922443Y-1755388D01*
X922443Y-1755388D02*
X912920Y-1717293D01*
X912920Y-1717293D02*
X912920Y-1669674D01*
X912920Y-1669674D02*
X922443Y-1631579D01*
X922443Y-1631579D02*
X931967Y-1612531D01*
X931967Y-1612531D02*
X941491Y-1603008D01*
X941491Y-1603008D02*
X960539Y-1593484D01*
X1112920Y-1793484D02*
X1112920Y-1660150D01*
X1112920Y-1679198D02*
X1122444Y-1669674D01*
X1122444Y-1669674D02*
X1141491Y-1660150D01*
X1141491Y-1660150D02*
X1170063Y-1660150D01*
X1170063Y-1660150D02*
X1189110Y-1669674D01*
X1189110Y-1669674D02*
X1198634Y-1688722D01*
X1198634Y-1688722D02*
X1198634Y-1793484D01*
X1198634Y-1688722D02*
X1208158Y-1669674D01*
X1208158Y-1669674D02*
X1227205Y-1660150D01*
X1227205Y-1660150D02*
X1255777Y-1660150D01*
X1255777Y-1660150D02*
X1274825Y-1669674D01*
X1274825Y-1669674D02*
X1284348Y-1688722D01*
X1284348Y-1688722D02*
X1284348Y-1793484D01*
X1379586Y-1793484D02*
X1379586Y-1660150D01*
X1379586Y-1679198D02*
X1389110Y-1669674D01*
X1389110Y-1669674D02*
X1408158Y-1660150D01*
X1408158Y-1660150D02*
X1436729Y-1660150D01*
X1436729Y-1660150D02*
X1455777Y-1669674D01*
X1455777Y-1669674D02*
X1465301Y-1688722D01*
X1465301Y-1688722D02*
X1465301Y-1793484D01*
X1465301Y-1688722D02*
X1474824Y-1669674D01*
X1474824Y-1669674D02*
X1493872Y-1660150D01*
X1493872Y-1660150D02*
X1522443Y-1660150D01*
X1522443Y-1660150D02*
X1541491Y-1669674D01*
X1541491Y-1669674D02*
X1551015Y-1688722D01*
X1551015Y-1688722D02*
X1551015Y-1793484D01*
X1941491Y-1583960D02*
X1770063Y-1841103D01*
X2198634Y-1593484D02*
X2217682Y-1593484D01*
X2217682Y-1593484D02*
X2236729Y-1603008D01*
X2236729Y-1603008D02*
X2246253Y-1612531D01*
X2246253Y-1612531D02*
X2255777Y-1631579D01*
X2255777Y-1631579D02*
X2265301Y-1669674D01*
X2265301Y-1669674D02*
X2265301Y-1717293D01*
X2265301Y-1717293D02*
X2255777Y-1755388D01*
X2255777Y-1755388D02*
X2246253Y-1774436D01*
X2246253Y-1774436D02*
X2236729Y-1783960D01*
X2236729Y-1783960D02*
X2217682Y-1793484D01*
X2217682Y-1793484D02*
X2198634Y-1793484D01*
X2198634Y-1793484D02*
X2179587Y-1783960D01*
X2179587Y-1783960D02*
X2170063Y-1774436D01*
X2170063Y-1774436D02*
X2160539Y-1755388D01*
X2160539Y-1755388D02*
X2151015Y-1717293D01*
X2151015Y-1717293D02*
X2151015Y-1669674D01*
X2151015Y-1669674D02*
X2160539Y-1631579D01*
X2160539Y-1631579D02*
X2170063Y-1612531D01*
X2170063Y-1612531D02*
X2179587Y-1603008D01*
X2179587Y-1603008D02*
X2198634Y-1593484D01*
X2351015Y-1774436D02*
X2360539Y-1783960D01*
X2360539Y-1783960D02*
X2351015Y-1793484D01*
X2351015Y-1793484D02*
X2341491Y-1783960D01*
X2341491Y-1783960D02*
X2351015Y-1774436D01*
X2351015Y-1774436D02*
X2351015Y-1793484D01*
X2484348Y-1593484D02*
X2503396Y-1593484D01*
X2503396Y-1593484D02*
X2522444Y-1603008D01*
X2522444Y-1603008D02*
X2531968Y-1612531D01*
X2531968Y-1612531D02*
X2541491Y-1631579D01*
X2541491Y-1631579D02*
X2551015Y-1669674D01*
X2551015Y-1669674D02*
X2551015Y-1717293D01*
X2551015Y-1717293D02*
X2541491Y-1755388D01*
X2541491Y-1755388D02*
X2531968Y-1774436D01*
X2531968Y-1774436D02*
X2522444Y-1783960D01*
X2522444Y-1783960D02*
X2503396Y-1793484D01*
X2503396Y-1793484D02*
X2484348Y-1793484D01*
X2484348Y-1793484D02*
X2465301Y-1783960D01*
X2465301Y-1783960D02*
X2455777Y-1774436D01*
X2455777Y-1774436D02*
X2446253Y-1755388D01*
X2446253Y-1755388D02*
X2436729Y-1717293D01*
X2436729Y-1717293D02*
X2436729Y-1669674D01*
X2436729Y-1669674D02*
X2446253Y-1631579D01*
X2446253Y-1631579D02*
X2455777Y-1612531D01*
X2455777Y-1612531D02*
X2465301Y-1603008D01*
X2465301Y-1603008D02*
X2484348Y-1593484D01*
X2731968Y-1593484D02*
X2636729Y-1593484D01*
X2636729Y-1593484D02*
X2627206Y-1688722D01*
X2627206Y-1688722D02*
X2636729Y-1679198D01*
X2636729Y-1679198D02*
X2655777Y-1669674D01*
X2655777Y-1669674D02*
X2703396Y-1669674D01*
X2703396Y-1669674D02*
X2722444Y-1679198D01*
X2722444Y-1679198D02*
X2731968Y-1688722D01*
X2731968Y-1688722D02*
X2741491Y-1707769D01*
X2741491Y-1707769D02*
X2741491Y-1755388D01*
X2741491Y-1755388D02*
X2731968Y-1774436D01*
X2731968Y-1774436D02*
X2722444Y-1783960D01*
X2722444Y-1783960D02*
X2703396Y-1793484D01*
X2703396Y-1793484D02*
X2655777Y-1793484D01*
X2655777Y-1793484D02*
X2636729Y-1783960D01*
X2636729Y-1783960D02*
X2627206Y-1774436D01*
X2931967Y-1793484D02*
X2817682Y-1793484D01*
X2874825Y-1793484D02*
X2874825Y-1593484D01*
X2874825Y-1593484D02*
X2855777Y-1622055D01*
X2855777Y-1622055D02*
X2836729Y-1641103D01*
X2836729Y-1641103D02*
X2817682Y-1650627D01*
X3008158Y-1612531D02*
X3017682Y-1603008D01*
X3017682Y-1603008D02*
X3036729Y-1593484D01*
X3036729Y-1593484D02*
X3084348Y-1593484D01*
X3084348Y-1593484D02*
X3103396Y-1603008D01*
X3103396Y-1603008D02*
X3112920Y-1612531D01*
X3112920Y-1612531D02*
X3122444Y-1631579D01*
X3122444Y-1631579D02*
X3122444Y-1650627D01*
X3122444Y-1650627D02*
X3112920Y-1679198D01*
X3112920Y-1679198D02*
X2998634Y-1793484D01*
X2998634Y-1793484D02*
X3122444Y-1793484D01*
X3198634Y-1593484D02*
X3198634Y-1631579D01*
X3274825Y-1593484D02*
X3274825Y-1631579D01*
X3570063Y-1869674D02*
X3560539Y-1860150D01*
X3560539Y-1860150D02*
X3541491Y-1831579D01*
X3541491Y-1831579D02*
X3531968Y-1812531D01*
X3531968Y-1812531D02*
X3522444Y-1783960D01*
X3522444Y-1783960D02*
X3512920Y-1736341D01*
X3512920Y-1736341D02*
X3512920Y-1698246D01*
X3512920Y-1698246D02*
X3522444Y-1650627D01*
X3522444Y-1650627D02*
X3531968Y-1622055D01*
X3531968Y-1622055D02*
X3541491Y-1603008D01*
X3541491Y-1603008D02*
X3560539Y-1574436D01*
X3560539Y-1574436D02*
X3570063Y-1564912D01*
X3627206Y-1593484D02*
X3760539Y-1593484D01*
X3760539Y-1593484D02*
X3674825Y-1793484D01*
X3989110Y-1793484D02*
X3989110Y-1593484D01*
X4074825Y-1793484D02*
X4074825Y-1688722D01*
X4074825Y-1688722D02*
X4065301Y-1669674D01*
X4065301Y-1669674D02*
X4046253Y-1660150D01*
X4046253Y-1660150D02*
X4017682Y-1660150D01*
X4017682Y-1660150D02*
X3998634Y-1669674D01*
X3998634Y-1669674D02*
X3989110Y-1679198D01*
X4198634Y-1793484D02*
X4179587Y-1783960D01*
X4179587Y-1783960D02*
X4170063Y-1774436D01*
X4170063Y-1774436D02*
X4160539Y-1755388D01*
X4160539Y-1755388D02*
X4160539Y-1698246D01*
X4160539Y-1698246D02*
X4170063Y-1679198D01*
X4170063Y-1679198D02*
X4179587Y-1669674D01*
X4179587Y-1669674D02*
X4198634Y-1660150D01*
X4198634Y-1660150D02*
X4227206Y-1660150D01*
X4227206Y-1660150D02*
X4246253Y-1669674D01*
X4246253Y-1669674D02*
X4255777Y-1679198D01*
X4255777Y-1679198D02*
X4265301Y-1698246D01*
X4265301Y-1698246D02*
X4265301Y-1755388D01*
X4265301Y-1755388D02*
X4255777Y-1774436D01*
X4255777Y-1774436D02*
X4246253Y-1783960D01*
X4246253Y-1783960D02*
X4227206Y-1793484D01*
X4227206Y-1793484D02*
X4198634Y-1793484D01*
X4379587Y-1793484D02*
X4360539Y-1783960D01*
X4360539Y-1783960D02*
X4351015Y-1764912D01*
X4351015Y-1764912D02*
X4351015Y-1593484D01*
X4531968Y-1783960D02*
X4512920Y-1793484D01*
X4512920Y-1793484D02*
X4474825Y-1793484D01*
X4474825Y-1793484D02*
X4455777Y-1783960D01*
X4455777Y-1783960D02*
X4446253Y-1764912D01*
X4446253Y-1764912D02*
X4446253Y-1688722D01*
X4446253Y-1688722D02*
X4455777Y-1669674D01*
X4455777Y-1669674D02*
X4474825Y-1660150D01*
X4474825Y-1660150D02*
X4512920Y-1660150D01*
X4512920Y-1660150D02*
X4531968Y-1669674D01*
X4531968Y-1669674D02*
X4541492Y-1688722D01*
X4541492Y-1688722D02*
X4541492Y-1707769D01*
X4541492Y-1707769D02*
X4446253Y-1726817D01*
X4617682Y-1783960D02*
X4636730Y-1793484D01*
X4636730Y-1793484D02*
X4674825Y-1793484D01*
X4674825Y-1793484D02*
X4693873Y-1783960D01*
X4693873Y-1783960D02*
X4703396Y-1764912D01*
X4703396Y-1764912D02*
X4703396Y-1755388D01*
X4703396Y-1755388D02*
X4693873Y-1736341D01*
X4693873Y-1736341D02*
X4674825Y-1726817D01*
X4674825Y-1726817D02*
X4646253Y-1726817D01*
X4646253Y-1726817D02*
X4627206Y-1717293D01*
X4627206Y-1717293D02*
X4617682Y-1698246D01*
X4617682Y-1698246D02*
X4617682Y-1688722D01*
X4617682Y-1688722D02*
X4627206Y-1669674D01*
X4627206Y-1669674D02*
X4646253Y-1660150D01*
X4646253Y-1660150D02*
X4674825Y-1660150D01*
X4674825Y-1660150D02*
X4693873Y-1669674D01*
X4770063Y-1869674D02*
X4779587Y-1860150D01*
X4779587Y-1860150D02*
X4798634Y-1831579D01*
X4798634Y-1831579D02*
X4808158Y-1812531D01*
X4808158Y-1812531D02*
X4817682Y-1783960D01*
X4817682Y-1783960D02*
X4827206Y-1736341D01*
X4827206Y-1736341D02*
X4827206Y-1698246D01*
X4827206Y-1698246D02*
X4817682Y-1650627D01*
X4817682Y-1650627D02*
X4808158Y-1622055D01*
X4808158Y-1622055D02*
X4798634Y-1603008D01*
X4798634Y-1603008D02*
X4779587Y-1574436D01*
X4779587Y-1574436D02*
X4770063Y-1564912D01*
M02*
