%TF.GenerationSoftware,KiCad,Pcbnew,7.0.1*%
%TF.CreationDate,2023-05-17T13:30:03+02:00*%
%TF.ProjectId,Modbus_master,4d6f6462-7573-45f6-9d61-737465722e6b,rev?*%
%TF.SameCoordinates,Original*%
%TF.FileFunction,Soldermask,Top*%
%TF.FilePolarity,Negative*%
%FSLAX46Y46*%
G04 Gerber Fmt 4.6, Leading zero omitted, Abs format (unit mm)*
G04 Created by KiCad (PCBNEW 7.0.1) date 2023-05-17 13:30:03*
%MOMM*%
%LPD*%
G01*
G04 APERTURE LIST*
G04 Aperture macros list*
%AMRoundRect*
0 Rectangle with rounded corners*
0 $1 Rounding radius*
0 $2 $3 $4 $5 $6 $7 $8 $9 X,Y pos of 4 corners*
0 Add a 4 corners polygon primitive as box body*
4,1,4,$2,$3,$4,$5,$6,$7,$8,$9,$2,$3,0*
0 Add four circle primitives for the rounded corners*
1,1,$1+$1,$2,$3*
1,1,$1+$1,$4,$5*
1,1,$1+$1,$6,$7*
1,1,$1+$1,$8,$9*
0 Add four rect primitives between the rounded corners*
20,1,$1+$1,$2,$3,$4,$5,0*
20,1,$1+$1,$4,$5,$6,$7,0*
20,1,$1+$1,$6,$7,$8,$9,0*
20,1,$1+$1,$8,$9,$2,$3,0*%
G04 Aperture macros list end*
%ADD10C,0.010000*%
%ADD11RoundRect,0.140000X0.170000X-0.140000X0.170000X0.140000X-0.170000X0.140000X-0.170000X-0.140000X0*%
%ADD12R,1.700000X1.700000*%
%ADD13O,1.700000X1.700000*%
%ADD14RoundRect,0.225000X0.375000X-0.225000X0.375000X0.225000X-0.375000X0.225000X-0.375000X-0.225000X0*%
%ADD15RoundRect,0.135000X0.185000X-0.135000X0.185000X0.135000X-0.185000X0.135000X-0.185000X-0.135000X0*%
%ADD16RoundRect,0.250000X0.250000X0.475000X-0.250000X0.475000X-0.250000X-0.475000X0.250000X-0.475000X0*%
%ADD17RoundRect,0.140000X-0.170000X0.140000X-0.170000X-0.140000X0.170000X-0.140000X0.170000X0.140000X0*%
%ADD18C,0.750000*%
%ADD19R,1.140000X0.800000*%
%ADD20R,2.100000X0.700000*%
%ADD21R,0.450000X0.700000*%
%ADD22RoundRect,0.135000X-0.185000X0.135000X-0.185000X-0.135000X0.185000X-0.135000X0.185000X0.135000X0*%
%ADD23C,0.500000*%
%ADD24O,1.600000X0.600000*%
%ADD25O,0.600000X1.600000*%
%ADD26R,1.100000X0.900000*%
%ADD27R,0.900000X1.100000*%
%ADD28R,2.600000X3.100000*%
%ADD29RoundRect,0.250000X-0.650000X0.325000X-0.650000X-0.325000X0.650000X-0.325000X0.650000X0.325000X0*%
%ADD30RoundRect,0.135000X-0.135000X-0.185000X0.135000X-0.185000X0.135000X0.185000X-0.135000X0.185000X0*%
%ADD31RoundRect,0.062500X0.062500X-0.117500X0.062500X0.117500X-0.062500X0.117500X-0.062500X-0.117500X0*%
%ADD32RoundRect,0.075000X0.662500X0.075000X-0.662500X0.075000X-0.662500X-0.075000X0.662500X-0.075000X0*%
%ADD33RoundRect,0.075000X0.075000X0.662500X-0.075000X0.662500X-0.075000X-0.662500X0.075000X-0.662500X0*%
%ADD34RoundRect,0.225000X-0.225000X-0.375000X0.225000X-0.375000X0.225000X0.375000X-0.225000X0.375000X0*%
%ADD35R,1.400000X1.600000*%
%ADD36RoundRect,0.218750X0.256250X-0.218750X0.256250X0.218750X-0.256250X0.218750X-0.256250X-0.218750X0*%
%ADD37C,1.600000*%
%ADD38R,2.600000X2.600000*%
%ADD39C,2.600000*%
%ADD40R,1.800000X1.200000*%
%ADD41RoundRect,0.140000X0.140000X0.170000X-0.140000X0.170000X-0.140000X-0.170000X0.140000X-0.170000X0*%
%ADD42RoundRect,0.135000X0.135000X0.185000X-0.135000X0.185000X-0.135000X-0.185000X0.135000X-0.185000X0*%
%ADD43RoundRect,0.250000X-1.000000X-0.650000X1.000000X-0.650000X1.000000X0.650000X-1.000000X0.650000X0*%
%ADD44R,1.000000X0.350000*%
%ADD45R,1.050000X1.000000*%
%ADD46R,2.200000X1.050000*%
%ADD47RoundRect,0.250000X0.450000X-0.262500X0.450000X0.262500X-0.450000X0.262500X-0.450000X-0.262500X0*%
%ADD48RoundRect,0.150000X-0.150000X0.825000X-0.150000X-0.825000X0.150000X-0.825000X0.150000X0.825000X0*%
%ADD49R,0.320000X0.320000*%
%ADD50RoundRect,0.100000X-0.100000X0.637500X-0.100000X-0.637500X0.100000X-0.637500X0.100000X0.637500X0*%
%ADD51R,1.905000X2.000000*%
%ADD52O,1.905000X2.000000*%
%ADD53RoundRect,0.140000X-0.140000X-0.170000X0.140000X-0.170000X0.140000X0.170000X-0.140000X0.170000X0*%
G04 APERTURE END LIST*
%TO.C,U4*%
D10*
X119210000Y-85130000D02*
X116410000Y-85130000D01*
X116410000Y-82860000D01*
X117440000Y-81830000D01*
X119210000Y-81830000D01*
X119210000Y-85130000D01*
G36*
X119210000Y-85130000D02*
G01*
X116410000Y-85130000D01*
X116410000Y-82860000D01*
X117440000Y-81830000D01*
X119210000Y-81830000D01*
X119210000Y-85130000D01*
G37*
%TD*%
D11*
%TO.C,C6*%
X152860000Y-114910000D03*
X152860000Y-113950000D03*
%TD*%
D12*
%TO.C,J5*%
X147630000Y-98700000D03*
D13*
X147630000Y-96160000D03*
X150170000Y-98700000D03*
X150170000Y-96160000D03*
X152710000Y-98700000D03*
X152710000Y-96160000D03*
%TD*%
D14*
%TO.C,D5*%
X143060000Y-83780000D03*
X143060000Y-80480000D03*
%TD*%
D15*
%TO.C,R27*%
X139560000Y-95750000D03*
X139560000Y-94730000D03*
%TD*%
D16*
%TO.C,C10*%
X134375000Y-65925000D03*
X132475000Y-65925000D03*
%TD*%
D17*
%TO.C,C12*%
X129475000Y-73645000D03*
X129475000Y-74605000D03*
%TD*%
D18*
%TO.C,J2*%
X112870000Y-104800000D03*
X112870000Y-113300000D03*
D19*
X125100000Y-110050000D03*
X125100000Y-107510000D03*
X125100000Y-104970000D03*
X125100000Y-111320000D03*
X125100000Y-108780000D03*
X125100000Y-106240000D03*
X125100000Y-112270000D03*
D20*
X123620000Y-103300000D03*
X111620000Y-103300000D03*
X111620000Y-116300000D03*
X123620000Y-116300000D03*
%TD*%
D21*
%TO.C,Q1*%
X133180000Y-126220000D03*
X131880000Y-126220000D03*
X132530000Y-128220000D03*
%TD*%
D15*
%TO.C,R4*%
X119660000Y-98640000D03*
X119660000Y-97620000D03*
%TD*%
D17*
%TO.C,C3*%
X114560000Y-99050000D03*
X114560000Y-100010000D03*
%TD*%
D22*
%TO.C,R6*%
X143570000Y-123040000D03*
X143570000Y-124060000D03*
%TD*%
D23*
%TO.C,mouse-bite-2mm-slot*%
X155810000Y-111290000D03*
X157310000Y-111290000D03*
X155810000Y-110540000D03*
X157310000Y-110540000D03*
X155810000Y-109790000D03*
X157310000Y-109790000D03*
%TD*%
D22*
%TO.C,R11*%
X132250000Y-122940000D03*
X132250000Y-123960000D03*
%TD*%
D24*
%TO.C,U4*%
X112860000Y-80830000D03*
X112860000Y-81930000D03*
X112860000Y-83030000D03*
X112860000Y-84130000D03*
X112860000Y-85230000D03*
X112860000Y-86330000D03*
X112860000Y-87430000D03*
X112860000Y-88530000D03*
X112860000Y-89630000D03*
X112860000Y-90730000D03*
X112860000Y-91830000D03*
X112860000Y-92930000D03*
D25*
X116310000Y-95680000D03*
X117410000Y-95680000D03*
X118510000Y-95680000D03*
X119610000Y-95680000D03*
X120710000Y-95680000D03*
X121810000Y-95680000D03*
X122910000Y-95680000D03*
X124010000Y-95680000D03*
X125110000Y-95680000D03*
D24*
X128560000Y-92930000D03*
X128560000Y-91830000D03*
X128560000Y-90730000D03*
X128560000Y-89630000D03*
X128560000Y-88530000D03*
X128560000Y-87430000D03*
X128560000Y-86330000D03*
X128560000Y-85230000D03*
X128560000Y-84130000D03*
X128560000Y-83030000D03*
X128560000Y-81930000D03*
X128560000Y-80830000D03*
D25*
X125110000Y-78080000D03*
X124010000Y-78080000D03*
X122910000Y-78080000D03*
X121810000Y-78080000D03*
X120710000Y-78080000D03*
X119610000Y-78080000D03*
X118510000Y-78080000D03*
X117410000Y-78080000D03*
X116310000Y-78080000D03*
D26*
X115360000Y-81980000D03*
X115360000Y-83380000D03*
X115360000Y-84780000D03*
X115360000Y-86180000D03*
X115360000Y-87580000D03*
X115360000Y-88980000D03*
X115360000Y-90380000D03*
X115360000Y-91780000D03*
D27*
X116510000Y-93180000D03*
X117910000Y-93180000D03*
X119310000Y-93180000D03*
X120710000Y-93180000D03*
X122110000Y-93180000D03*
X123510000Y-93180000D03*
X124910000Y-93180000D03*
D26*
X126060000Y-91780000D03*
X126060000Y-90380000D03*
X126060000Y-88980000D03*
X126060000Y-87580000D03*
X126060000Y-86180000D03*
D27*
X123510000Y-80580000D03*
X122110000Y-80580000D03*
X120710000Y-80580000D03*
X119310000Y-80580000D03*
X117910000Y-80580000D03*
X116510000Y-80580000D03*
D28*
X117810000Y-86880000D03*
X117810000Y-90280000D03*
X120710000Y-90280000D03*
X123610000Y-90280000D03*
X123610000Y-86880000D03*
X123610000Y-83480000D03*
X120710000Y-83480000D03*
X120710000Y-86880000D03*
%TD*%
D23*
%TO.C,mouse-bite-2mm-slot*%
X107810000Y-98880000D03*
X109310000Y-98880000D03*
X107810000Y-98130000D03*
X109310000Y-98130000D03*
X107810000Y-97380000D03*
X109310000Y-97380000D03*
%TD*%
%TO.C,mouse-bite-2mm-slot*%
X132810000Y-52880000D03*
X132810000Y-51380000D03*
X132060000Y-52880000D03*
X132060000Y-51380000D03*
X131310000Y-52880000D03*
X131310000Y-51380000D03*
%TD*%
D22*
%TO.C,R21*%
X139385000Y-82182500D03*
X139385000Y-83202500D03*
%TD*%
D15*
%TO.C,R2*%
X116360000Y-98640000D03*
X116360000Y-97620000D03*
%TD*%
%TO.C,R32*%
X131132500Y-100090000D03*
X131132500Y-99070000D03*
%TD*%
D29*
%TO.C,C16*%
X116060000Y-70855000D03*
X116060000Y-73805000D03*
%TD*%
D15*
%TO.C,R7*%
X125950000Y-119760000D03*
X125950000Y-118740000D03*
%TD*%
D30*
%TO.C,R25*%
X119862500Y-56742500D03*
X120882500Y-56742500D03*
%TD*%
D22*
%TO.C,R24*%
X141460000Y-93320000D03*
X141460000Y-94340000D03*
%TD*%
D15*
%TO.C,R10*%
X127700000Y-119770000D03*
X127700000Y-118750000D03*
%TD*%
D31*
%TO.C,D9*%
X113990000Y-71420000D03*
X113990000Y-72260000D03*
%TD*%
D17*
%TO.C,C4*%
X118460000Y-99150000D03*
X118460000Y-100110000D03*
%TD*%
D32*
%TO.C,U1*%
X148322500Y-119092500D03*
X148322500Y-118592500D03*
X148322500Y-118092500D03*
X148322500Y-117592500D03*
X148322500Y-117092500D03*
X148322500Y-116592500D03*
X148322500Y-116092500D03*
X148322500Y-115592500D03*
X148322500Y-115092500D03*
X148322500Y-114592500D03*
X148322500Y-114092500D03*
X148322500Y-113592500D03*
X148322500Y-113092500D03*
X148322500Y-112592500D03*
X148322500Y-112092500D03*
X148322500Y-111592500D03*
X148322500Y-111092500D03*
X148322500Y-110592500D03*
X148322500Y-110092500D03*
X148322500Y-109592500D03*
X148322500Y-109092500D03*
X148322500Y-108592500D03*
X148322500Y-108092500D03*
X148322500Y-107592500D03*
X148322500Y-107092500D03*
D33*
X146660000Y-105430000D03*
X146160000Y-105430000D03*
X145660000Y-105430000D03*
X145160000Y-105430000D03*
X144660000Y-105430000D03*
X144160000Y-105430000D03*
X143660000Y-105430000D03*
X143160000Y-105430000D03*
X142660000Y-105430000D03*
X142160000Y-105430000D03*
X141660000Y-105430000D03*
X141160000Y-105430000D03*
X140660000Y-105430000D03*
X140160000Y-105430000D03*
X139660000Y-105430000D03*
X139160000Y-105430000D03*
X138660000Y-105430000D03*
X138160000Y-105430000D03*
X137660000Y-105430000D03*
X137160000Y-105430000D03*
X136660000Y-105430000D03*
X136160000Y-105430000D03*
X135660000Y-105430000D03*
X135160000Y-105430000D03*
X134660000Y-105430000D03*
D32*
X132997500Y-107092500D03*
X132997500Y-107592500D03*
X132997500Y-108092500D03*
X132997500Y-108592500D03*
X132997500Y-109092500D03*
X132997500Y-109592500D03*
X132997500Y-110092500D03*
X132997500Y-110592500D03*
X132997500Y-111092500D03*
X132997500Y-111592500D03*
X132997500Y-112092500D03*
X132997500Y-112592500D03*
X132997500Y-113092500D03*
X132997500Y-113592500D03*
X132997500Y-114092500D03*
X132997500Y-114592500D03*
X132997500Y-115092500D03*
X132997500Y-115592500D03*
X132997500Y-116092500D03*
X132997500Y-116592500D03*
X132997500Y-117092500D03*
X132997500Y-117592500D03*
X132997500Y-118092500D03*
X132997500Y-118592500D03*
X132997500Y-119092500D03*
D33*
X134660000Y-120755000D03*
X135160000Y-120755000D03*
X135660000Y-120755000D03*
X136160000Y-120755000D03*
X136660000Y-120755000D03*
X137160000Y-120755000D03*
X137660000Y-120755000D03*
X138160000Y-120755000D03*
X138660000Y-120755000D03*
X139160000Y-120755000D03*
X139660000Y-120755000D03*
X140160000Y-120755000D03*
X140660000Y-120755000D03*
X141160000Y-120755000D03*
X141660000Y-120755000D03*
X142160000Y-120755000D03*
X142660000Y-120755000D03*
X143160000Y-120755000D03*
X143660000Y-120755000D03*
X144160000Y-120755000D03*
X144660000Y-120755000D03*
X145160000Y-120755000D03*
X145660000Y-120755000D03*
X146160000Y-120755000D03*
X146660000Y-120755000D03*
%TD*%
D34*
%TO.C,D2*%
X139975000Y-68925000D03*
X143275000Y-68925000D03*
%TD*%
D21*
%TO.C,Q5*%
X115675000Y-126425000D03*
X116975000Y-126425000D03*
X116325000Y-124425000D03*
%TD*%
D35*
%TO.C,SW1*%
X142910000Y-128740000D03*
X142910000Y-135940000D03*
X145910000Y-128740000D03*
X145910000Y-135940000D03*
%TD*%
D15*
%TO.C,R30*%
X113425000Y-126235000D03*
X113425000Y-125215000D03*
%TD*%
D17*
%TO.C,C15*%
X118060000Y-71250000D03*
X118060000Y-72210000D03*
%TD*%
D22*
%TO.C,R18*%
X134860000Y-122920000D03*
X134860000Y-123940000D03*
%TD*%
D15*
%TO.C,R20*%
X122982500Y-57687500D03*
X122982500Y-56667500D03*
%TD*%
D22*
%TO.C,R8*%
X145160000Y-123020000D03*
X145160000Y-124040000D03*
%TD*%
D11*
%TO.C,C9*%
X150460000Y-114910000D03*
X150460000Y-113950000D03*
%TD*%
D36*
%TO.C,D10*%
X119960000Y-60317500D03*
X119960000Y-58742500D03*
%TD*%
D11*
%TO.C,C8*%
X151660000Y-114910000D03*
X151660000Y-113950000D03*
%TD*%
D36*
%TO.C,D7*%
X124790000Y-60267500D03*
X124790000Y-58692500D03*
%TD*%
D37*
%TO.C,C13*%
X151940000Y-77860000D03*
X151940000Y-68860000D03*
%TD*%
D38*
%TO.C,J1*%
X120360000Y-134330000D03*
D39*
X125360000Y-134330000D03*
X130360000Y-134330000D03*
%TD*%
D15*
%TO.C,R26*%
X137960000Y-95750000D03*
X137960000Y-94730000D03*
%TD*%
D40*
%TO.C,Y1*%
X138797500Y-100180000D03*
X142797500Y-100180000D03*
X142797500Y-97780000D03*
X138797500Y-97780000D03*
%TD*%
D41*
%TO.C,C1*%
X141220000Y-101730000D03*
X140260000Y-101730000D03*
%TD*%
D42*
%TO.C,R3*%
X122270000Y-100030000D03*
X121250000Y-100030000D03*
%TD*%
D23*
%TO.C,mouse-bite-2mm-slot*%
X107810000Y-74770000D03*
X109310000Y-74770000D03*
X107810000Y-74020000D03*
X109310000Y-74020000D03*
X107810000Y-73270000D03*
X109310000Y-73270000D03*
%TD*%
D22*
%TO.C,R16*%
X137260000Y-130920000D03*
X137260000Y-131940000D03*
%TD*%
D43*
%TO.C,D8*%
X149560000Y-86830000D03*
X153560000Y-86830000D03*
%TD*%
D23*
%TO.C,mouse-bite-2mm-slot*%
X133010000Y-142880000D03*
X133010000Y-141380000D03*
X132260000Y-142880000D03*
X132260000Y-141380000D03*
X131510000Y-142880000D03*
X131510000Y-141380000D03*
%TD*%
D44*
%TO.C,D1*%
X129780000Y-109770000D03*
X129780000Y-109120000D03*
X129780000Y-108470000D03*
X127880000Y-108470000D03*
X127880000Y-109120000D03*
X127880000Y-109770000D03*
%TD*%
D15*
%TO.C,R23*%
X119330000Y-66900000D03*
X119330000Y-65880000D03*
%TD*%
D21*
%TO.C,Q2*%
X136310000Y-126230000D03*
X135010000Y-126230000D03*
X135660000Y-128230000D03*
%TD*%
%TO.C,Q4*%
X119310000Y-64230000D03*
X120610000Y-64230000D03*
X119960000Y-62230000D03*
%TD*%
D14*
%TO.C,D6*%
X146330000Y-83770000D03*
X146330000Y-80470000D03*
%TD*%
D45*
%TO.C,J3*%
X131510000Y-81830000D03*
D46*
X133035000Y-80355000D03*
X133035000Y-83305000D03*
%TD*%
D21*
%TO.C,Q3*%
X139450000Y-126220000D03*
X138150000Y-126220000D03*
X138800000Y-128220000D03*
%TD*%
D47*
%TO.C,R19*%
X144790000Y-78402500D03*
X144790000Y-76577500D03*
%TD*%
D15*
%TO.C,R5*%
X124175000Y-119760000D03*
X124175000Y-118740000D03*
%TD*%
D22*
%TO.C,R13*%
X129630000Y-103210000D03*
X129630000Y-104230000D03*
%TD*%
D48*
%TO.C,U2*%
X127965000Y-121755000D03*
X126695000Y-121755000D03*
X125425000Y-121755000D03*
X124155000Y-121755000D03*
X124155000Y-126705000D03*
X125425000Y-126705000D03*
X126695000Y-126705000D03*
X127965000Y-126705000D03*
%TD*%
D15*
%TO.C,R31*%
X119575000Y-128360000D03*
X119575000Y-127340000D03*
%TD*%
D12*
%TO.C,J6*%
X132075000Y-89005000D03*
D13*
X132075000Y-91545000D03*
X132075000Y-94085000D03*
X132075000Y-96625000D03*
%TD*%
D22*
%TO.C,R15*%
X135260000Y-130920000D03*
X135260000Y-131940000D03*
%TD*%
D15*
%TO.C,R12*%
X131070000Y-104220000D03*
X131070000Y-103200000D03*
%TD*%
D49*
%TO.C,D3*%
X138060000Y-136130000D03*
X138060000Y-135470000D03*
X137400000Y-135470000D03*
X137400000Y-136130000D03*
%TD*%
D50*
%TO.C,U5*%
X139960000Y-85807500D03*
X139310000Y-85807500D03*
X138660000Y-85807500D03*
X138010000Y-85807500D03*
X137360000Y-85807500D03*
X136710000Y-85807500D03*
X136060000Y-85807500D03*
X136060000Y-91532500D03*
X136710000Y-91532500D03*
X137360000Y-91532500D03*
X138010000Y-91532500D03*
X138660000Y-91532500D03*
X139310000Y-91532500D03*
X139960000Y-91532500D03*
%TD*%
D30*
%TO.C,R9*%
X137650000Y-123950000D03*
X138670000Y-123950000D03*
%TD*%
D22*
%TO.C,R22*%
X137785000Y-82182500D03*
X137785000Y-83202500D03*
%TD*%
D17*
%TO.C,C2*%
X143460000Y-95150000D03*
X143460000Y-96110000D03*
%TD*%
D22*
%TO.C,R14*%
X133560000Y-122920000D03*
X133560000Y-123940000D03*
%TD*%
D51*
%TO.C,U3*%
X134550000Y-68725000D03*
D52*
X132010000Y-68725000D03*
X129470000Y-68725000D03*
%TD*%
D38*
%TO.C,J4*%
X144960000Y-60130000D03*
D39*
X139960000Y-60130000D03*
X134960000Y-60130000D03*
X129960000Y-60130000D03*
%TD*%
D53*
%TO.C,C11*%
X143250000Y-66510000D03*
X144210000Y-66510000D03*
%TD*%
D22*
%TO.C,R1*%
X147110000Y-91340000D03*
X147110000Y-92360000D03*
%TD*%
D53*
%TO.C,C5*%
X122780000Y-101130000D03*
X123740000Y-101130000D03*
%TD*%
D22*
%TO.C,R28*%
X111875000Y-125190000D03*
X111875000Y-126210000D03*
%TD*%
D15*
%TO.C,R29*%
X121250000Y-128360000D03*
X121250000Y-127340000D03*
%TD*%
D23*
%TO.C,mouse-bite-2mm-slot*%
X155790000Y-92660000D03*
X157290000Y-92660000D03*
X155790000Y-91910000D03*
X157290000Y-91910000D03*
X155790000Y-91160000D03*
X157290000Y-91160000D03*
%TD*%
D15*
%TO.C,R33*%
X132542500Y-100085000D03*
X132542500Y-99065000D03*
%TD*%
D17*
%TO.C,C7*%
X125460000Y-100030000D03*
X125460000Y-100990000D03*
%TD*%
D15*
%TO.C,R17*%
X139160000Y-131940000D03*
X139160000Y-130920000D03*
%TD*%
D17*
%TO.C,C14*%
X119260000Y-71250000D03*
X119260000Y-72210000D03*
%TD*%
M02*
