%TF.GenerationSoftware,KiCad,Pcbnew,7.0.7*%
%TF.CreationDate,2023-10-05T08:39:18+02:00*%
%TF.ProjectId,Modbus_master,4d6f6462-7573-45f6-9d61-737465722e6b,rev?*%
%TF.SameCoordinates,PX4d3f640PY9988330*%
%TF.FileFunction,Drillmap*%
%TF.FilePolarity,Positive*%
%FSLAX45Y45*%
G04 Gerber Fmt 4.5, Leading zero omitted, Abs format (unit mm)*
G04 Created by KiCad (PCBNEW 7.0.7) date 2023-10-05 08:39:18*
%MOMM*%
%LPD*%
G01*
G04 APERTURE LIST*
%ADD10C,0.100000*%
%ADD11C,0.200000*%
%ADD12C,0.050000*%
%ADD13C,0.075000*%
G04 APERTURE END LIST*
D10*
X2656000Y6486000D02*
X2655980Y8497000D01*
X0Y12899000D02*
X10400000Y12899000D01*
X10400000Y-1000D01*
X0Y-1000D01*
X0Y12899000D01*
X2655921Y8896000D02*
X2656000Y9686000D01*
X10000000Y6399000D02*
G75*
G03*
X10000000Y6399000I-200000J0D01*
G01*
X300000Y12099000D02*
X300000Y12399000D01*
X6706000Y10786000D02*
X5368500Y10786000D01*
X7456000Y4845000D02*
X7456000Y4036000D01*
X9600000Y12099000D02*
G75*
G03*
X10000000Y12099000I200000J0D01*
G01*
X7454000Y7107000D02*
G75*
G03*
X7654005Y7108000I100000J1000D01*
G01*
X5350000Y12099000D02*
X5350000Y12399000D01*
X6706000Y9486000D02*
X7456000Y9486000D01*
X4926000Y1786000D02*
G75*
G03*
X4926000Y1986000I0J100000D01*
G01*
X5388500Y1986000D02*
X6706000Y1986000D01*
X7456000Y9486000D02*
X7454000Y7107000D01*
X7456000Y3286000D02*
X7456000Y3937000D01*
X7654005Y7108000D02*
X7656000Y9686000D01*
X2856000Y8495000D02*
G75*
G03*
X2655980Y8497000I-100000J2000D01*
G01*
X7656000Y6707000D02*
G75*
G03*
X7456000Y6707000I-100000J0D01*
G01*
X300000Y12099000D02*
G75*
G03*
X700000Y12099000I200000J0D01*
G01*
X5326000Y1786000D02*
X6906000Y1786000D01*
X2856000Y6083500D02*
X2856000Y3286000D01*
X7456000Y3286000D02*
X6706000Y3286000D01*
X2855969Y6083501D02*
G75*
G03*
X2656000Y6086000I-99969J2499D01*
G01*
X7456000Y5243500D02*
G75*
G03*
X7656001Y5243000I100000J-500D01*
G01*
X4926000Y1786000D02*
X3406000Y1786000D01*
X2656000Y9686000D02*
X3406000Y9686000D01*
X3606000Y9486000D02*
X2856000Y9486000D01*
X4056000Y3986000D02*
G75*
G03*
X4056000Y3986000I-200000J0D01*
G01*
X2656000Y3086000D02*
X2656000Y6086000D01*
X4950000Y12099000D02*
G75*
G03*
X5350000Y12099000I200000J0D01*
G01*
X7656000Y3086000D02*
X7656000Y4845000D01*
X5326000Y1986000D02*
X5388500Y1986000D01*
X2656000Y6486000D02*
G75*
G03*
X2856000Y6486000I100000J0D01*
G01*
X3606000Y9486000D02*
X3606000Y10786000D01*
X700000Y12099000D02*
X700000Y12399000D01*
X700000Y6399000D02*
G75*
G03*
X700000Y6399000I-200000J0D01*
G01*
X4506000Y8736000D02*
G75*
G03*
X4506000Y8736000I-200000J0D01*
G01*
X6906000Y3086000D02*
X6906000Y1786000D01*
X5368500Y10786000D02*
X5306000Y10786000D01*
X2856000Y9486000D02*
X2856000Y8898500D01*
X6106000Y8736000D02*
G75*
G03*
X6106000Y8736000I-200000J0D01*
G01*
X7455760Y4035938D02*
G75*
G03*
X7456000Y3937000I-193760J-49938D01*
G01*
X6906000Y10986000D02*
X6906000Y9686000D01*
X6706000Y10786000D02*
X6706000Y9486000D01*
X3406000Y9686000D02*
X3406000Y10986000D01*
X7656000Y3086000D02*
X6906000Y3086000D01*
X3406000Y1786000D02*
X3406000Y3086000D01*
X700000Y12399000D02*
G75*
G03*
X300000Y12399000I-200000J0D01*
G01*
X5350000Y12399000D02*
G75*
G03*
X4950000Y12399000I-200000J0D01*
G01*
X10000000Y499000D02*
G75*
G03*
X10000000Y499000I-200000J0D01*
G01*
X5306000Y10986000D02*
G75*
G03*
X5306000Y10786000I0J-100000D01*
G01*
X2856000Y8495000D02*
X2856000Y6486000D01*
X2655929Y8896000D02*
G75*
G03*
X2856000Y8898500I100051J0D01*
G01*
X5326000Y1986000D02*
G75*
G03*
X5326000Y1786000I0J-100000D01*
G01*
X4903500Y10786000D02*
X3606000Y10786000D01*
X9600000Y12099000D02*
X9600000Y12399000D01*
X3406000Y10986000D02*
X4906000Y10986031D01*
X10000000Y12399000D02*
G75*
G03*
X9600000Y12399000I-200000J0D01*
G01*
X4903500Y10786000D02*
G75*
G03*
X4906000Y10986031I2500J100000D01*
G01*
X7656000Y6707000D02*
X7656001Y5243000D01*
X3606000Y3286000D02*
X2856000Y3286000D01*
X5350000Y499000D02*
G75*
G03*
X5350000Y499000I-200000J0D01*
G01*
X3606000Y1986000D02*
X3606000Y3286000D01*
X7456000Y5243500D02*
X7456000Y6707000D01*
X4950000Y12099000D02*
X4950000Y12399000D01*
X6906000Y9686000D02*
X7656000Y9686000D01*
X3606000Y1986000D02*
X4926000Y1986000D01*
X6706000Y1986000D02*
X6706000Y3286000D01*
X700000Y499000D02*
G75*
G03*
X700000Y499000I-200000J0D01*
G01*
X10000000Y12099000D02*
X10000000Y12399000D01*
X5306000Y10986000D02*
X6906000Y10986000D01*
X3406000Y3086000D02*
X2656000Y3086000D01*
X7656000Y4845000D02*
G75*
G03*
X7456000Y4845000I-100000J0D01*
G01*
D11*
D12*
X2656000Y8797000D02*
X2706000Y8747000D01*
X2706000Y8797000D02*
X2656000Y8747000D01*
X2656000Y8722000D02*
X2706000Y8672000D01*
X2706000Y8722000D02*
X2656000Y8672000D01*
X2656000Y8647000D02*
X2706000Y8597000D01*
X2706000Y8647000D02*
X2656000Y8597000D01*
X2656000Y6386000D02*
X2706000Y6336000D01*
X2706000Y6386000D02*
X2656000Y6336000D01*
X2656000Y6311000D02*
X2706000Y6261000D01*
X2706000Y6311000D02*
X2656000Y6261000D01*
X2656000Y6236000D02*
X2706000Y6186000D01*
X2706000Y6236000D02*
X2656000Y6186000D01*
X2806000Y8797000D02*
X2856000Y8747000D01*
X2856000Y8797000D02*
X2806000Y8747000D01*
X2806000Y8722000D02*
X2856000Y8672000D01*
X2856000Y8722000D02*
X2806000Y8672000D01*
X2806000Y8647000D02*
X2856000Y8597000D01*
X2856000Y8647000D02*
X2806000Y8597000D01*
X2806000Y6386000D02*
X2856000Y6336000D01*
X2856000Y6386000D02*
X2806000Y6336000D01*
X2806000Y6311000D02*
X2856000Y6261000D01*
X2856000Y6311000D02*
X2806000Y6261000D01*
X2806000Y6236000D02*
X2856000Y6186000D01*
X2856000Y6236000D02*
X2806000Y6186000D01*
X5006000Y10986000D02*
X5056000Y10936000D01*
X5056000Y10986000D02*
X5006000Y10936000D01*
X5006000Y10836000D02*
X5056000Y10786000D01*
X5056000Y10836000D02*
X5006000Y10786000D01*
X5026000Y1986000D02*
X5076000Y1936000D01*
X5076000Y1986000D02*
X5026000Y1936000D01*
X5026000Y1836000D02*
X5076000Y1786000D01*
X5076000Y1836000D02*
X5026000Y1786000D01*
X5081000Y10986000D02*
X5131000Y10936000D01*
X5131000Y10986000D02*
X5081000Y10936000D01*
X5081000Y10836000D02*
X5131000Y10786000D01*
X5131000Y10836000D02*
X5081000Y10786000D01*
X5101000Y1986000D02*
X5151000Y1936000D01*
X5151000Y1986000D02*
X5101000Y1936000D01*
X5101000Y1836000D02*
X5151000Y1786000D01*
X5151000Y1836000D02*
X5101000Y1786000D01*
X5156000Y10986000D02*
X5206000Y10936000D01*
X5206000Y10986000D02*
X5156000Y10936000D01*
X5156000Y10836000D02*
X5206000Y10786000D01*
X5206000Y10836000D02*
X5156000Y10786000D01*
X5176000Y1986000D02*
X5226000Y1936000D01*
X5226000Y1986000D02*
X5176000Y1936000D01*
X5176000Y1836000D02*
X5226000Y1786000D01*
X5226000Y1836000D02*
X5176000Y1786000D01*
X7454000Y7008000D02*
X7504000Y6958000D01*
X7504000Y7008000D02*
X7454000Y6958000D01*
X7454000Y6933000D02*
X7504000Y6883000D01*
X7504000Y6933000D02*
X7454000Y6883000D01*
X7454000Y6858000D02*
X7504000Y6808000D01*
X7504000Y6858000D02*
X7454000Y6808000D01*
X7456000Y5145000D02*
X7506000Y5095000D01*
X7506000Y5145000D02*
X7456000Y5095000D01*
X7456000Y5070000D02*
X7506000Y5020000D01*
X7506000Y5070000D02*
X7456000Y5020000D01*
X7456000Y4995000D02*
X7506000Y4945000D01*
X7506000Y4995000D02*
X7456000Y4945000D01*
X7604000Y7008000D02*
X7654000Y6958000D01*
X7654000Y7008000D02*
X7604000Y6958000D01*
X7604000Y6933000D02*
X7654000Y6883000D01*
X7654000Y6933000D02*
X7604000Y6883000D01*
X7604000Y6858000D02*
X7654000Y6808000D01*
X7654000Y6858000D02*
X7604000Y6808000D01*
X7606000Y5145000D02*
X7656000Y5095000D01*
X7656000Y5145000D02*
X7606000Y5095000D01*
X7606000Y5070000D02*
X7656000Y5020000D01*
X7656000Y5070000D02*
X7606000Y5020000D01*
X7606000Y4995000D02*
X7656000Y4945000D01*
X7656000Y4995000D02*
X7606000Y4945000D01*
D13*
X3224500Y5619000D02*
G75*
G03*
X3224500Y5619000I-37500J0D01*
G01*
X3224500Y4769000D02*
G75*
G03*
X3224500Y4769000I-37500J0D01*
G01*
D11*
X255777Y-317484D02*
X255777Y-117484D01*
X255777Y-117484D02*
X303396Y-117484D01*
X303396Y-117484D02*
X331967Y-127008D01*
X331967Y-127008D02*
X351015Y-146055D01*
X351015Y-146055D02*
X360539Y-165103D01*
X360539Y-165103D02*
X370062Y-203198D01*
X370062Y-203198D02*
X370062Y-231769D01*
X370062Y-231769D02*
X360539Y-269865D01*
X360539Y-269865D02*
X351015Y-288912D01*
X351015Y-288912D02*
X331967Y-307960D01*
X331967Y-307960D02*
X303396Y-317484D01*
X303396Y-317484D02*
X255777Y-317484D01*
X455777Y-317484D02*
X455777Y-184150D01*
X455777Y-222246D02*
X465301Y-203198D01*
X465301Y-203198D02*
X474824Y-193674D01*
X474824Y-193674D02*
X493872Y-184150D01*
X493872Y-184150D02*
X512920Y-184150D01*
X579586Y-317484D02*
X579586Y-184150D01*
X579586Y-117484D02*
X570063Y-127008D01*
X570063Y-127008D02*
X579586Y-136531D01*
X579586Y-136531D02*
X589110Y-127008D01*
X589110Y-127008D02*
X579586Y-117484D01*
X579586Y-117484D02*
X579586Y-136531D01*
X703396Y-317484D02*
X684348Y-307960D01*
X684348Y-307960D02*
X674824Y-288912D01*
X674824Y-288912D02*
X674824Y-117484D01*
X808158Y-317484D02*
X789110Y-307960D01*
X789110Y-307960D02*
X779586Y-288912D01*
X779586Y-288912D02*
X779586Y-117484D01*
X1036729Y-317484D02*
X1036729Y-117484D01*
X1036729Y-117484D02*
X1103396Y-260341D01*
X1103396Y-260341D02*
X1170063Y-117484D01*
X1170063Y-117484D02*
X1170063Y-317484D01*
X1351015Y-317484D02*
X1351015Y-212722D01*
X1351015Y-212722D02*
X1341491Y-193674D01*
X1341491Y-193674D02*
X1322444Y-184150D01*
X1322444Y-184150D02*
X1284348Y-184150D01*
X1284348Y-184150D02*
X1265301Y-193674D01*
X1351015Y-307960D02*
X1331967Y-317484D01*
X1331967Y-317484D02*
X1284348Y-317484D01*
X1284348Y-317484D02*
X1265301Y-307960D01*
X1265301Y-307960D02*
X1255777Y-288912D01*
X1255777Y-288912D02*
X1255777Y-269865D01*
X1255777Y-269865D02*
X1265301Y-250817D01*
X1265301Y-250817D02*
X1284348Y-241293D01*
X1284348Y-241293D02*
X1331967Y-241293D01*
X1331967Y-241293D02*
X1351015Y-231769D01*
X1446253Y-184150D02*
X1446253Y-384150D01*
X1446253Y-193674D02*
X1465301Y-184150D01*
X1465301Y-184150D02*
X1503396Y-184150D01*
X1503396Y-184150D02*
X1522443Y-193674D01*
X1522443Y-193674D02*
X1531967Y-203198D01*
X1531967Y-203198D02*
X1541491Y-222246D01*
X1541491Y-222246D02*
X1541491Y-279389D01*
X1541491Y-279389D02*
X1531967Y-298436D01*
X1531967Y-298436D02*
X1522443Y-307960D01*
X1522443Y-307960D02*
X1503396Y-317484D01*
X1503396Y-317484D02*
X1465301Y-317484D01*
X1465301Y-317484D02*
X1446253Y-307960D01*
X1627205Y-298436D02*
X1636729Y-307960D01*
X1636729Y-307960D02*
X1627205Y-317484D01*
X1627205Y-317484D02*
X1617682Y-307960D01*
X1617682Y-307960D02*
X1627205Y-298436D01*
X1627205Y-298436D02*
X1627205Y-317484D01*
X1627205Y-193674D02*
X1636729Y-203198D01*
X1636729Y-203198D02*
X1627205Y-212722D01*
X1627205Y-212722D02*
X1617682Y-203198D01*
X1617682Y-203198D02*
X1627205Y-193674D01*
X1627205Y-193674D02*
X1627205Y-212722D01*
D12*
X-55000Y-621000D02*
X-5000Y-671000D01*
X-5000Y-621000D02*
X-55000Y-671000D01*
D11*
X293872Y-537484D02*
X312920Y-537484D01*
X312920Y-537484D02*
X331967Y-547008D01*
X331967Y-547008D02*
X341491Y-556531D01*
X341491Y-556531D02*
X351015Y-575579D01*
X351015Y-575579D02*
X360539Y-613674D01*
X360539Y-613674D02*
X360539Y-661293D01*
X360539Y-661293D02*
X351015Y-699388D01*
X351015Y-699388D02*
X341491Y-718436D01*
X341491Y-718436D02*
X331967Y-727960D01*
X331967Y-727960D02*
X312920Y-737484D01*
X312920Y-737484D02*
X293872Y-737484D01*
X293872Y-737484D02*
X274824Y-727960D01*
X274824Y-727960D02*
X265301Y-718436D01*
X265301Y-718436D02*
X255777Y-699388D01*
X255777Y-699388D02*
X246253Y-661293D01*
X246253Y-661293D02*
X246253Y-613674D01*
X246253Y-613674D02*
X255777Y-575579D01*
X255777Y-575579D02*
X265301Y-556531D01*
X265301Y-556531D02*
X274824Y-547008D01*
X274824Y-547008D02*
X293872Y-537484D01*
X446253Y-718436D02*
X455777Y-727960D01*
X455777Y-727960D02*
X446253Y-737484D01*
X446253Y-737484D02*
X436729Y-727960D01*
X436729Y-727960D02*
X446253Y-718436D01*
X446253Y-718436D02*
X446253Y-737484D01*
X636729Y-537484D02*
X541491Y-537484D01*
X541491Y-537484D02*
X531967Y-632722D01*
X531967Y-632722D02*
X541491Y-623198D01*
X541491Y-623198D02*
X560539Y-613674D01*
X560539Y-613674D02*
X608158Y-613674D01*
X608158Y-613674D02*
X627205Y-623198D01*
X627205Y-623198D02*
X636729Y-632722D01*
X636729Y-632722D02*
X646253Y-651770D01*
X646253Y-651770D02*
X646253Y-699388D01*
X646253Y-699388D02*
X636729Y-718436D01*
X636729Y-718436D02*
X627205Y-727960D01*
X627205Y-727960D02*
X608158Y-737484D01*
X608158Y-737484D02*
X560539Y-737484D01*
X560539Y-737484D02*
X541491Y-727960D01*
X541491Y-727960D02*
X531967Y-718436D01*
X770062Y-537484D02*
X789110Y-537484D01*
X789110Y-537484D02*
X808158Y-547008D01*
X808158Y-547008D02*
X817682Y-556531D01*
X817682Y-556531D02*
X827205Y-575579D01*
X827205Y-575579D02*
X836729Y-613674D01*
X836729Y-613674D02*
X836729Y-661293D01*
X836729Y-661293D02*
X827205Y-699388D01*
X827205Y-699388D02*
X817682Y-718436D01*
X817682Y-718436D02*
X808158Y-727960D01*
X808158Y-727960D02*
X789110Y-737484D01*
X789110Y-737484D02*
X770062Y-737484D01*
X770062Y-737484D02*
X751015Y-727960D01*
X751015Y-727960D02*
X741491Y-718436D01*
X741491Y-718436D02*
X731967Y-699388D01*
X731967Y-699388D02*
X722443Y-661293D01*
X722443Y-661293D02*
X722443Y-613674D01*
X722443Y-613674D02*
X731967Y-575579D01*
X731967Y-575579D02*
X741491Y-556531D01*
X741491Y-556531D02*
X751015Y-547008D01*
X751015Y-547008D02*
X770062Y-537484D01*
X960539Y-537484D02*
X979586Y-537484D01*
X979586Y-537484D02*
X998634Y-547008D01*
X998634Y-547008D02*
X1008158Y-556531D01*
X1008158Y-556531D02*
X1017682Y-575579D01*
X1017682Y-575579D02*
X1027205Y-613674D01*
X1027205Y-613674D02*
X1027205Y-661293D01*
X1027205Y-661293D02*
X1017682Y-699388D01*
X1017682Y-699388D02*
X1008158Y-718436D01*
X1008158Y-718436D02*
X998634Y-727960D01*
X998634Y-727960D02*
X979586Y-737484D01*
X979586Y-737484D02*
X960539Y-737484D01*
X960539Y-737484D02*
X941491Y-727960D01*
X941491Y-727960D02*
X931967Y-718436D01*
X931967Y-718436D02*
X922443Y-699388D01*
X922443Y-699388D02*
X912920Y-661293D01*
X912920Y-661293D02*
X912920Y-613674D01*
X912920Y-613674D02*
X922443Y-575579D01*
X922443Y-575579D02*
X931967Y-556531D01*
X931967Y-556531D02*
X941491Y-547008D01*
X941491Y-547008D02*
X960539Y-537484D01*
X1112920Y-737484D02*
X1112920Y-604150D01*
X1112920Y-623198D02*
X1122444Y-613674D01*
X1122444Y-613674D02*
X1141491Y-604150D01*
X1141491Y-604150D02*
X1170063Y-604150D01*
X1170063Y-604150D02*
X1189110Y-613674D01*
X1189110Y-613674D02*
X1198634Y-632722D01*
X1198634Y-632722D02*
X1198634Y-737484D01*
X1198634Y-632722D02*
X1208158Y-613674D01*
X1208158Y-613674D02*
X1227205Y-604150D01*
X1227205Y-604150D02*
X1255777Y-604150D01*
X1255777Y-604150D02*
X1274825Y-613674D01*
X1274825Y-613674D02*
X1284348Y-632722D01*
X1284348Y-632722D02*
X1284348Y-737484D01*
X1379586Y-737484D02*
X1379586Y-604150D01*
X1379586Y-623198D02*
X1389110Y-613674D01*
X1389110Y-613674D02*
X1408158Y-604150D01*
X1408158Y-604150D02*
X1436729Y-604150D01*
X1436729Y-604150D02*
X1455777Y-613674D01*
X1455777Y-613674D02*
X1465301Y-632722D01*
X1465301Y-632722D02*
X1465301Y-737484D01*
X1465301Y-632722D02*
X1474824Y-613674D01*
X1474824Y-613674D02*
X1493872Y-604150D01*
X1493872Y-604150D02*
X1522443Y-604150D01*
X1522443Y-604150D02*
X1541491Y-613674D01*
X1541491Y-613674D02*
X1551015Y-632722D01*
X1551015Y-632722D02*
X1551015Y-737484D01*
X1941491Y-527960D02*
X1770063Y-785103D01*
X2198634Y-537484D02*
X2217682Y-537484D01*
X2217682Y-537484D02*
X2236729Y-547008D01*
X2236729Y-547008D02*
X2246253Y-556531D01*
X2246253Y-556531D02*
X2255777Y-575579D01*
X2255777Y-575579D02*
X2265301Y-613674D01*
X2265301Y-613674D02*
X2265301Y-661293D01*
X2265301Y-661293D02*
X2255777Y-699388D01*
X2255777Y-699388D02*
X2246253Y-718436D01*
X2246253Y-718436D02*
X2236729Y-727960D01*
X2236729Y-727960D02*
X2217682Y-737484D01*
X2217682Y-737484D02*
X2198634Y-737484D01*
X2198634Y-737484D02*
X2179587Y-727960D01*
X2179587Y-727960D02*
X2170063Y-718436D01*
X2170063Y-718436D02*
X2160539Y-699388D01*
X2160539Y-699388D02*
X2151015Y-661293D01*
X2151015Y-661293D02*
X2151015Y-613674D01*
X2151015Y-613674D02*
X2160539Y-575579D01*
X2160539Y-575579D02*
X2170063Y-556531D01*
X2170063Y-556531D02*
X2179587Y-547008D01*
X2179587Y-547008D02*
X2198634Y-537484D01*
X2351015Y-718436D02*
X2360539Y-727960D01*
X2360539Y-727960D02*
X2351015Y-737484D01*
X2351015Y-737484D02*
X2341491Y-727960D01*
X2341491Y-727960D02*
X2351015Y-718436D01*
X2351015Y-718436D02*
X2351015Y-737484D01*
X2484348Y-537484D02*
X2503396Y-537484D01*
X2503396Y-537484D02*
X2522444Y-547008D01*
X2522444Y-547008D02*
X2531968Y-556531D01*
X2531968Y-556531D02*
X2541491Y-575579D01*
X2541491Y-575579D02*
X2551015Y-613674D01*
X2551015Y-613674D02*
X2551015Y-661293D01*
X2551015Y-661293D02*
X2541491Y-699388D01*
X2541491Y-699388D02*
X2531968Y-718436D01*
X2531968Y-718436D02*
X2522444Y-727960D01*
X2522444Y-727960D02*
X2503396Y-737484D01*
X2503396Y-737484D02*
X2484348Y-737484D01*
X2484348Y-737484D02*
X2465301Y-727960D01*
X2465301Y-727960D02*
X2455777Y-718436D01*
X2455777Y-718436D02*
X2446253Y-699388D01*
X2446253Y-699388D02*
X2436729Y-661293D01*
X2436729Y-661293D02*
X2436729Y-613674D01*
X2436729Y-613674D02*
X2446253Y-575579D01*
X2446253Y-575579D02*
X2455777Y-556531D01*
X2455777Y-556531D02*
X2465301Y-547008D01*
X2465301Y-547008D02*
X2484348Y-537484D01*
X2741491Y-737484D02*
X2627206Y-737484D01*
X2684348Y-737484D02*
X2684348Y-537484D01*
X2684348Y-537484D02*
X2665301Y-566055D01*
X2665301Y-566055D02*
X2646253Y-585103D01*
X2646253Y-585103D02*
X2627206Y-594627D01*
X2836729Y-737484D02*
X2874825Y-737484D01*
X2874825Y-737484D02*
X2893872Y-727960D01*
X2893872Y-727960D02*
X2903396Y-718436D01*
X2903396Y-718436D02*
X2922444Y-689865D01*
X2922444Y-689865D02*
X2931967Y-651770D01*
X2931967Y-651770D02*
X2931967Y-575579D01*
X2931967Y-575579D02*
X2922444Y-556531D01*
X2922444Y-556531D02*
X2912920Y-547008D01*
X2912920Y-547008D02*
X2893872Y-537484D01*
X2893872Y-537484D02*
X2855777Y-537484D01*
X2855777Y-537484D02*
X2836729Y-547008D01*
X2836729Y-547008D02*
X2827206Y-556531D01*
X2827206Y-556531D02*
X2817682Y-575579D01*
X2817682Y-575579D02*
X2817682Y-623198D01*
X2817682Y-623198D02*
X2827206Y-642246D01*
X2827206Y-642246D02*
X2836729Y-651770D01*
X2836729Y-651770D02*
X2855777Y-661293D01*
X2855777Y-661293D02*
X2893872Y-661293D01*
X2893872Y-661293D02*
X2912920Y-651770D01*
X2912920Y-651770D02*
X2922444Y-642246D01*
X2922444Y-642246D02*
X2931967Y-623198D01*
X2998634Y-537484D02*
X3131967Y-537484D01*
X3131967Y-537484D02*
X3046253Y-737484D01*
X3198634Y-537484D02*
X3198634Y-575579D01*
X3274825Y-537484D02*
X3274825Y-575579D01*
X3570063Y-813674D02*
X3560539Y-804150D01*
X3560539Y-804150D02*
X3541491Y-775579D01*
X3541491Y-775579D02*
X3531968Y-756531D01*
X3531968Y-756531D02*
X3522444Y-727960D01*
X3522444Y-727960D02*
X3512920Y-680341D01*
X3512920Y-680341D02*
X3512920Y-642246D01*
X3512920Y-642246D02*
X3522444Y-594627D01*
X3522444Y-594627D02*
X3531968Y-566055D01*
X3531968Y-566055D02*
X3541491Y-547008D01*
X3541491Y-547008D02*
X3560539Y-518436D01*
X3560539Y-518436D02*
X3570063Y-508912D01*
X3627206Y-537484D02*
X3751015Y-537484D01*
X3751015Y-537484D02*
X3684348Y-613674D01*
X3684348Y-613674D02*
X3712920Y-613674D01*
X3712920Y-613674D02*
X3731968Y-623198D01*
X3731968Y-623198D02*
X3741491Y-632722D01*
X3741491Y-632722D02*
X3751015Y-651770D01*
X3751015Y-651770D02*
X3751015Y-699388D01*
X3751015Y-699388D02*
X3741491Y-718436D01*
X3741491Y-718436D02*
X3731968Y-727960D01*
X3731968Y-727960D02*
X3712920Y-737484D01*
X3712920Y-737484D02*
X3655777Y-737484D01*
X3655777Y-737484D02*
X3636729Y-727960D01*
X3636729Y-727960D02*
X3627206Y-718436D01*
X3922444Y-537484D02*
X3884348Y-537484D01*
X3884348Y-537484D02*
X3865301Y-547008D01*
X3865301Y-547008D02*
X3855777Y-556531D01*
X3855777Y-556531D02*
X3836729Y-585103D01*
X3836729Y-585103D02*
X3827206Y-623198D01*
X3827206Y-623198D02*
X3827206Y-699388D01*
X3827206Y-699388D02*
X3836729Y-718436D01*
X3836729Y-718436D02*
X3846253Y-727960D01*
X3846253Y-727960D02*
X3865301Y-737484D01*
X3865301Y-737484D02*
X3903396Y-737484D01*
X3903396Y-737484D02*
X3922444Y-727960D01*
X3922444Y-727960D02*
X3931968Y-718436D01*
X3931968Y-718436D02*
X3941491Y-699388D01*
X3941491Y-699388D02*
X3941491Y-651770D01*
X3941491Y-651770D02*
X3931968Y-632722D01*
X3931968Y-632722D02*
X3922444Y-623198D01*
X3922444Y-623198D02*
X3903396Y-613674D01*
X3903396Y-613674D02*
X3865301Y-613674D01*
X3865301Y-613674D02*
X3846253Y-623198D01*
X3846253Y-623198D02*
X3836729Y-632722D01*
X3836729Y-632722D02*
X3827206Y-651770D01*
X4179587Y-737484D02*
X4179587Y-537484D01*
X4265301Y-737484D02*
X4265301Y-632722D01*
X4265301Y-632722D02*
X4255777Y-613674D01*
X4255777Y-613674D02*
X4236730Y-604150D01*
X4236730Y-604150D02*
X4208158Y-604150D01*
X4208158Y-604150D02*
X4189110Y-613674D01*
X4189110Y-613674D02*
X4179587Y-623198D01*
X4389111Y-737484D02*
X4370063Y-727960D01*
X4370063Y-727960D02*
X4360539Y-718436D01*
X4360539Y-718436D02*
X4351015Y-699388D01*
X4351015Y-699388D02*
X4351015Y-642246D01*
X4351015Y-642246D02*
X4360539Y-623198D01*
X4360539Y-623198D02*
X4370063Y-613674D01*
X4370063Y-613674D02*
X4389111Y-604150D01*
X4389111Y-604150D02*
X4417682Y-604150D01*
X4417682Y-604150D02*
X4436730Y-613674D01*
X4436730Y-613674D02*
X4446253Y-623198D01*
X4446253Y-623198D02*
X4455777Y-642246D01*
X4455777Y-642246D02*
X4455777Y-699388D01*
X4455777Y-699388D02*
X4446253Y-718436D01*
X4446253Y-718436D02*
X4436730Y-727960D01*
X4436730Y-727960D02*
X4417682Y-737484D01*
X4417682Y-737484D02*
X4389111Y-737484D01*
X4570063Y-737484D02*
X4551015Y-727960D01*
X4551015Y-727960D02*
X4541492Y-708912D01*
X4541492Y-708912D02*
X4541492Y-537484D01*
X4722444Y-727960D02*
X4703396Y-737484D01*
X4703396Y-737484D02*
X4665301Y-737484D01*
X4665301Y-737484D02*
X4646253Y-727960D01*
X4646253Y-727960D02*
X4636730Y-708912D01*
X4636730Y-708912D02*
X4636730Y-632722D01*
X4636730Y-632722D02*
X4646253Y-613674D01*
X4646253Y-613674D02*
X4665301Y-604150D01*
X4665301Y-604150D02*
X4703396Y-604150D01*
X4703396Y-604150D02*
X4722444Y-613674D01*
X4722444Y-613674D02*
X4731968Y-632722D01*
X4731968Y-632722D02*
X4731968Y-651770D01*
X4731968Y-651770D02*
X4636730Y-670817D01*
X4808158Y-727960D02*
X4827206Y-737484D01*
X4827206Y-737484D02*
X4865301Y-737484D01*
X4865301Y-737484D02*
X4884349Y-727960D01*
X4884349Y-727960D02*
X4893873Y-708912D01*
X4893873Y-708912D02*
X4893873Y-699388D01*
X4893873Y-699388D02*
X4884349Y-680341D01*
X4884349Y-680341D02*
X4865301Y-670817D01*
X4865301Y-670817D02*
X4836730Y-670817D01*
X4836730Y-670817D02*
X4817682Y-661293D01*
X4817682Y-661293D02*
X4808158Y-642246D01*
X4808158Y-642246D02*
X4808158Y-632722D01*
X4808158Y-632722D02*
X4817682Y-613674D01*
X4817682Y-613674D02*
X4836730Y-604150D01*
X4836730Y-604150D02*
X4865301Y-604150D01*
X4865301Y-604150D02*
X4884349Y-613674D01*
X4960539Y-813674D02*
X4970063Y-804150D01*
X4970063Y-804150D02*
X4989111Y-775579D01*
X4989111Y-775579D02*
X4998634Y-756531D01*
X4998634Y-756531D02*
X5008158Y-727960D01*
X5008158Y-727960D02*
X5017682Y-680341D01*
X5017682Y-680341D02*
X5017682Y-642246D01*
X5017682Y-642246D02*
X5008158Y-594627D01*
X5008158Y-594627D02*
X4998634Y-566055D01*
X4998634Y-566055D02*
X4989111Y-547008D01*
X4989111Y-547008D02*
X4970063Y-518436D01*
X4970063Y-518436D02*
X4960539Y-508912D01*
X5322444Y-813674D02*
X5312920Y-804150D01*
X5312920Y-804150D02*
X5293873Y-775579D01*
X5293873Y-775579D02*
X5284349Y-756531D01*
X5284349Y-756531D02*
X5274825Y-727960D01*
X5274825Y-727960D02*
X5265301Y-680341D01*
X5265301Y-680341D02*
X5265301Y-642246D01*
X5265301Y-642246D02*
X5274825Y-594627D01*
X5274825Y-594627D02*
X5284349Y-566055D01*
X5284349Y-566055D02*
X5293873Y-547008D01*
X5293873Y-547008D02*
X5312920Y-518436D01*
X5312920Y-518436D02*
X5322444Y-508912D01*
X5398634Y-604150D02*
X5398634Y-737484D01*
X5398634Y-623198D02*
X5408158Y-613674D01*
X5408158Y-613674D02*
X5427206Y-604150D01*
X5427206Y-604150D02*
X5455777Y-604150D01*
X5455777Y-604150D02*
X5474825Y-613674D01*
X5474825Y-613674D02*
X5484349Y-632722D01*
X5484349Y-632722D02*
X5484349Y-737484D01*
X5608158Y-737484D02*
X5589111Y-727960D01*
X5589111Y-727960D02*
X5579587Y-718436D01*
X5579587Y-718436D02*
X5570063Y-699388D01*
X5570063Y-699388D02*
X5570063Y-642246D01*
X5570063Y-642246D02*
X5579587Y-623198D01*
X5579587Y-623198D02*
X5589111Y-613674D01*
X5589111Y-613674D02*
X5608158Y-604150D01*
X5608158Y-604150D02*
X5636730Y-604150D01*
X5636730Y-604150D02*
X5655777Y-613674D01*
X5655777Y-613674D02*
X5665301Y-623198D01*
X5665301Y-623198D02*
X5674825Y-642246D01*
X5674825Y-642246D02*
X5674825Y-699388D01*
X5674825Y-699388D02*
X5665301Y-718436D01*
X5665301Y-718436D02*
X5655777Y-727960D01*
X5655777Y-727960D02*
X5636730Y-737484D01*
X5636730Y-737484D02*
X5608158Y-737484D01*
X5731968Y-604150D02*
X5808158Y-604150D01*
X5760539Y-537484D02*
X5760539Y-708912D01*
X5760539Y-708912D02*
X5770063Y-727960D01*
X5770063Y-727960D02*
X5789111Y-737484D01*
X5789111Y-737484D02*
X5808158Y-737484D01*
X6027206Y-604150D02*
X6027206Y-804150D01*
X6027206Y-613674D02*
X6046253Y-604150D01*
X6046253Y-604150D02*
X6084349Y-604150D01*
X6084349Y-604150D02*
X6103396Y-613674D01*
X6103396Y-613674D02*
X6112920Y-623198D01*
X6112920Y-623198D02*
X6122444Y-642246D01*
X6122444Y-642246D02*
X6122444Y-699388D01*
X6122444Y-699388D02*
X6112920Y-718436D01*
X6112920Y-718436D02*
X6103396Y-727960D01*
X6103396Y-727960D02*
X6084349Y-737484D01*
X6084349Y-737484D02*
X6046253Y-737484D01*
X6046253Y-737484D02*
X6027206Y-727960D01*
X6236730Y-737484D02*
X6217682Y-727960D01*
X6217682Y-727960D02*
X6208158Y-708912D01*
X6208158Y-708912D02*
X6208158Y-537484D01*
X6398634Y-737484D02*
X6398634Y-632722D01*
X6398634Y-632722D02*
X6389111Y-613674D01*
X6389111Y-613674D02*
X6370063Y-604150D01*
X6370063Y-604150D02*
X6331968Y-604150D01*
X6331968Y-604150D02*
X6312920Y-613674D01*
X6398634Y-727960D02*
X6379587Y-737484D01*
X6379587Y-737484D02*
X6331968Y-737484D01*
X6331968Y-737484D02*
X6312920Y-727960D01*
X6312920Y-727960D02*
X6303396Y-708912D01*
X6303396Y-708912D02*
X6303396Y-689865D01*
X6303396Y-689865D02*
X6312920Y-670817D01*
X6312920Y-670817D02*
X6331968Y-661293D01*
X6331968Y-661293D02*
X6379587Y-661293D01*
X6379587Y-661293D02*
X6398634Y-651770D01*
X6465301Y-604150D02*
X6541492Y-604150D01*
X6493873Y-537484D02*
X6493873Y-708912D01*
X6493873Y-708912D02*
X6503396Y-727960D01*
X6503396Y-727960D02*
X6522444Y-737484D01*
X6522444Y-737484D02*
X6541492Y-737484D01*
X6684349Y-727960D02*
X6665301Y-737484D01*
X6665301Y-737484D02*
X6627206Y-737484D01*
X6627206Y-737484D02*
X6608158Y-727960D01*
X6608158Y-727960D02*
X6598634Y-708912D01*
X6598634Y-708912D02*
X6598634Y-632722D01*
X6598634Y-632722D02*
X6608158Y-613674D01*
X6608158Y-613674D02*
X6627206Y-604150D01*
X6627206Y-604150D02*
X6665301Y-604150D01*
X6665301Y-604150D02*
X6684349Y-613674D01*
X6684349Y-613674D02*
X6693873Y-632722D01*
X6693873Y-632722D02*
X6693873Y-651770D01*
X6693873Y-651770D02*
X6598634Y-670817D01*
X6865301Y-737484D02*
X6865301Y-537484D01*
X6865301Y-727960D02*
X6846254Y-737484D01*
X6846254Y-737484D02*
X6808158Y-737484D01*
X6808158Y-737484D02*
X6789111Y-727960D01*
X6789111Y-727960D02*
X6779587Y-718436D01*
X6779587Y-718436D02*
X6770063Y-699388D01*
X6770063Y-699388D02*
X6770063Y-642246D01*
X6770063Y-642246D02*
X6779587Y-623198D01*
X6779587Y-623198D02*
X6789111Y-613674D01*
X6789111Y-613674D02*
X6808158Y-604150D01*
X6808158Y-604150D02*
X6846254Y-604150D01*
X6846254Y-604150D02*
X6865301Y-613674D01*
X6941492Y-813674D02*
X6951015Y-804150D01*
X6951015Y-804150D02*
X6970063Y-775579D01*
X6970063Y-775579D02*
X6979587Y-756531D01*
X6979587Y-756531D02*
X6989111Y-727960D01*
X6989111Y-727960D02*
X6998634Y-680341D01*
X6998634Y-680341D02*
X6998634Y-642246D01*
X6998634Y-642246D02*
X6989111Y-594627D01*
X6989111Y-594627D02*
X6979587Y-566055D01*
X6979587Y-566055D02*
X6970063Y-547008D01*
X6970063Y-547008D02*
X6951015Y-518436D01*
X6951015Y-518436D02*
X6941492Y-508912D01*
D13*
X-5000Y-910000D02*
G75*
G03*
X-5000Y-910000I-37500J0D01*
G01*
D11*
X293872Y-801484D02*
X312920Y-801484D01*
X312920Y-801484D02*
X331967Y-811008D01*
X331967Y-811008D02*
X341491Y-820531D01*
X341491Y-820531D02*
X351015Y-839579D01*
X351015Y-839579D02*
X360539Y-877674D01*
X360539Y-877674D02*
X360539Y-925293D01*
X360539Y-925293D02*
X351015Y-963388D01*
X351015Y-963388D02*
X341491Y-982436D01*
X341491Y-982436D02*
X331967Y-991960D01*
X331967Y-991960D02*
X312920Y-1001484D01*
X312920Y-1001484D02*
X293872Y-1001484D01*
X293872Y-1001484D02*
X274824Y-991960D01*
X274824Y-991960D02*
X265301Y-982436D01*
X265301Y-982436D02*
X255777Y-963388D01*
X255777Y-963388D02*
X246253Y-925293D01*
X246253Y-925293D02*
X246253Y-877674D01*
X246253Y-877674D02*
X255777Y-839579D01*
X255777Y-839579D02*
X265301Y-820531D01*
X265301Y-820531D02*
X274824Y-811008D01*
X274824Y-811008D02*
X293872Y-801484D01*
X446253Y-982436D02*
X455777Y-991960D01*
X455777Y-991960D02*
X446253Y-1001484D01*
X446253Y-1001484D02*
X436729Y-991960D01*
X436729Y-991960D02*
X446253Y-982436D01*
X446253Y-982436D02*
X446253Y-1001484D01*
X522443Y-801484D02*
X655777Y-801484D01*
X655777Y-801484D02*
X570063Y-1001484D01*
X827205Y-801484D02*
X731967Y-801484D01*
X731967Y-801484D02*
X722443Y-896722D01*
X722443Y-896722D02*
X731967Y-887198D01*
X731967Y-887198D02*
X751015Y-877674D01*
X751015Y-877674D02*
X798634Y-877674D01*
X798634Y-877674D02*
X817682Y-887198D01*
X817682Y-887198D02*
X827205Y-896722D01*
X827205Y-896722D02*
X836729Y-915769D01*
X836729Y-915769D02*
X836729Y-963388D01*
X836729Y-963388D02*
X827205Y-982436D01*
X827205Y-982436D02*
X817682Y-991960D01*
X817682Y-991960D02*
X798634Y-1001484D01*
X798634Y-1001484D02*
X751015Y-1001484D01*
X751015Y-1001484D02*
X731967Y-991960D01*
X731967Y-991960D02*
X722443Y-982436D01*
X960539Y-801484D02*
X979586Y-801484D01*
X979586Y-801484D02*
X998634Y-811008D01*
X998634Y-811008D02*
X1008158Y-820531D01*
X1008158Y-820531D02*
X1017682Y-839579D01*
X1017682Y-839579D02*
X1027205Y-877674D01*
X1027205Y-877674D02*
X1027205Y-925293D01*
X1027205Y-925293D02*
X1017682Y-963388D01*
X1017682Y-963388D02*
X1008158Y-982436D01*
X1008158Y-982436D02*
X998634Y-991960D01*
X998634Y-991960D02*
X979586Y-1001484D01*
X979586Y-1001484D02*
X960539Y-1001484D01*
X960539Y-1001484D02*
X941491Y-991960D01*
X941491Y-991960D02*
X931967Y-982436D01*
X931967Y-982436D02*
X922443Y-963388D01*
X922443Y-963388D02*
X912920Y-925293D01*
X912920Y-925293D02*
X912920Y-877674D01*
X912920Y-877674D02*
X922443Y-839579D01*
X922443Y-839579D02*
X931967Y-820531D01*
X931967Y-820531D02*
X941491Y-811008D01*
X941491Y-811008D02*
X960539Y-801484D01*
X1112920Y-1001484D02*
X1112920Y-868150D01*
X1112920Y-887198D02*
X1122444Y-877674D01*
X1122444Y-877674D02*
X1141491Y-868150D01*
X1141491Y-868150D02*
X1170063Y-868150D01*
X1170063Y-868150D02*
X1189110Y-877674D01*
X1189110Y-877674D02*
X1198634Y-896722D01*
X1198634Y-896722D02*
X1198634Y-1001484D01*
X1198634Y-896722D02*
X1208158Y-877674D01*
X1208158Y-877674D02*
X1227205Y-868150D01*
X1227205Y-868150D02*
X1255777Y-868150D01*
X1255777Y-868150D02*
X1274825Y-877674D01*
X1274825Y-877674D02*
X1284348Y-896722D01*
X1284348Y-896722D02*
X1284348Y-1001484D01*
X1379586Y-1001484D02*
X1379586Y-868150D01*
X1379586Y-887198D02*
X1389110Y-877674D01*
X1389110Y-877674D02*
X1408158Y-868150D01*
X1408158Y-868150D02*
X1436729Y-868150D01*
X1436729Y-868150D02*
X1455777Y-877674D01*
X1455777Y-877674D02*
X1465301Y-896722D01*
X1465301Y-896722D02*
X1465301Y-1001484D01*
X1465301Y-896722D02*
X1474824Y-877674D01*
X1474824Y-877674D02*
X1493872Y-868150D01*
X1493872Y-868150D02*
X1522443Y-868150D01*
X1522443Y-868150D02*
X1541491Y-877674D01*
X1541491Y-877674D02*
X1551015Y-896722D01*
X1551015Y-896722D02*
X1551015Y-1001484D01*
X1941491Y-791960D02*
X1770063Y-1049103D01*
X2198634Y-801484D02*
X2217682Y-801484D01*
X2217682Y-801484D02*
X2236729Y-811008D01*
X2236729Y-811008D02*
X2246253Y-820531D01*
X2246253Y-820531D02*
X2255777Y-839579D01*
X2255777Y-839579D02*
X2265301Y-877674D01*
X2265301Y-877674D02*
X2265301Y-925293D01*
X2265301Y-925293D02*
X2255777Y-963388D01*
X2255777Y-963388D02*
X2246253Y-982436D01*
X2246253Y-982436D02*
X2236729Y-991960D01*
X2236729Y-991960D02*
X2217682Y-1001484D01*
X2217682Y-1001484D02*
X2198634Y-1001484D01*
X2198634Y-1001484D02*
X2179587Y-991960D01*
X2179587Y-991960D02*
X2170063Y-982436D01*
X2170063Y-982436D02*
X2160539Y-963388D01*
X2160539Y-963388D02*
X2151015Y-925293D01*
X2151015Y-925293D02*
X2151015Y-877674D01*
X2151015Y-877674D02*
X2160539Y-839579D01*
X2160539Y-839579D02*
X2170063Y-820531D01*
X2170063Y-820531D02*
X2179587Y-811008D01*
X2179587Y-811008D02*
X2198634Y-801484D01*
X2351015Y-982436D02*
X2360539Y-991960D01*
X2360539Y-991960D02*
X2351015Y-1001484D01*
X2351015Y-1001484D02*
X2341491Y-991960D01*
X2341491Y-991960D02*
X2351015Y-982436D01*
X2351015Y-982436D02*
X2351015Y-1001484D01*
X2484348Y-801484D02*
X2503396Y-801484D01*
X2503396Y-801484D02*
X2522444Y-811008D01*
X2522444Y-811008D02*
X2531968Y-820531D01*
X2531968Y-820531D02*
X2541491Y-839579D01*
X2541491Y-839579D02*
X2551015Y-877674D01*
X2551015Y-877674D02*
X2551015Y-925293D01*
X2551015Y-925293D02*
X2541491Y-963388D01*
X2541491Y-963388D02*
X2531968Y-982436D01*
X2531968Y-982436D02*
X2522444Y-991960D01*
X2522444Y-991960D02*
X2503396Y-1001484D01*
X2503396Y-1001484D02*
X2484348Y-1001484D01*
X2484348Y-1001484D02*
X2465301Y-991960D01*
X2465301Y-991960D02*
X2455777Y-982436D01*
X2455777Y-982436D02*
X2446253Y-963388D01*
X2446253Y-963388D02*
X2436729Y-925293D01*
X2436729Y-925293D02*
X2436729Y-877674D01*
X2436729Y-877674D02*
X2446253Y-839579D01*
X2446253Y-839579D02*
X2455777Y-820531D01*
X2455777Y-820531D02*
X2465301Y-811008D01*
X2465301Y-811008D02*
X2484348Y-801484D01*
X2627206Y-820531D02*
X2636729Y-811008D01*
X2636729Y-811008D02*
X2655777Y-801484D01*
X2655777Y-801484D02*
X2703396Y-801484D01*
X2703396Y-801484D02*
X2722444Y-811008D01*
X2722444Y-811008D02*
X2731968Y-820531D01*
X2731968Y-820531D02*
X2741491Y-839579D01*
X2741491Y-839579D02*
X2741491Y-858627D01*
X2741491Y-858627D02*
X2731968Y-887198D01*
X2731968Y-887198D02*
X2617682Y-1001484D01*
X2617682Y-1001484D02*
X2741491Y-1001484D01*
X2836729Y-1001484D02*
X2874825Y-1001484D01*
X2874825Y-1001484D02*
X2893872Y-991960D01*
X2893872Y-991960D02*
X2903396Y-982436D01*
X2903396Y-982436D02*
X2922444Y-953865D01*
X2922444Y-953865D02*
X2931967Y-915769D01*
X2931967Y-915769D02*
X2931967Y-839579D01*
X2931967Y-839579D02*
X2922444Y-820531D01*
X2922444Y-820531D02*
X2912920Y-811008D01*
X2912920Y-811008D02*
X2893872Y-801484D01*
X2893872Y-801484D02*
X2855777Y-801484D01*
X2855777Y-801484D02*
X2836729Y-811008D01*
X2836729Y-811008D02*
X2827206Y-820531D01*
X2827206Y-820531D02*
X2817682Y-839579D01*
X2817682Y-839579D02*
X2817682Y-887198D01*
X2817682Y-887198D02*
X2827206Y-906246D01*
X2827206Y-906246D02*
X2836729Y-915769D01*
X2836729Y-915769D02*
X2855777Y-925293D01*
X2855777Y-925293D02*
X2893872Y-925293D01*
X2893872Y-925293D02*
X2912920Y-915769D01*
X2912920Y-915769D02*
X2922444Y-906246D01*
X2922444Y-906246D02*
X2931967Y-887198D01*
X3112920Y-801484D02*
X3017682Y-801484D01*
X3017682Y-801484D02*
X3008158Y-896722D01*
X3008158Y-896722D02*
X3017682Y-887198D01*
X3017682Y-887198D02*
X3036729Y-877674D01*
X3036729Y-877674D02*
X3084348Y-877674D01*
X3084348Y-877674D02*
X3103396Y-887198D01*
X3103396Y-887198D02*
X3112920Y-896722D01*
X3112920Y-896722D02*
X3122444Y-915769D01*
X3122444Y-915769D02*
X3122444Y-963388D01*
X3122444Y-963388D02*
X3112920Y-982436D01*
X3112920Y-982436D02*
X3103396Y-991960D01*
X3103396Y-991960D02*
X3084348Y-1001484D01*
X3084348Y-1001484D02*
X3036729Y-1001484D01*
X3036729Y-1001484D02*
X3017682Y-991960D01*
X3017682Y-991960D02*
X3008158Y-982436D01*
X3198634Y-801484D02*
X3198634Y-839579D01*
X3274825Y-801484D02*
X3274825Y-839579D01*
X3570063Y-1077674D02*
X3560539Y-1068150D01*
X3560539Y-1068150D02*
X3541491Y-1039579D01*
X3541491Y-1039579D02*
X3531968Y-1020531D01*
X3531968Y-1020531D02*
X3522444Y-991960D01*
X3522444Y-991960D02*
X3512920Y-944341D01*
X3512920Y-944341D02*
X3512920Y-906246D01*
X3512920Y-906246D02*
X3522444Y-858627D01*
X3522444Y-858627D02*
X3531968Y-830055D01*
X3531968Y-830055D02*
X3541491Y-811008D01*
X3541491Y-811008D02*
X3560539Y-782436D01*
X3560539Y-782436D02*
X3570063Y-772912D01*
X3636729Y-820531D02*
X3646253Y-811008D01*
X3646253Y-811008D02*
X3665301Y-801484D01*
X3665301Y-801484D02*
X3712920Y-801484D01*
X3712920Y-801484D02*
X3731968Y-811008D01*
X3731968Y-811008D02*
X3741491Y-820531D01*
X3741491Y-820531D02*
X3751015Y-839579D01*
X3751015Y-839579D02*
X3751015Y-858627D01*
X3751015Y-858627D02*
X3741491Y-887198D01*
X3741491Y-887198D02*
X3627206Y-1001484D01*
X3627206Y-1001484D02*
X3751015Y-1001484D01*
X3989110Y-1001484D02*
X3989110Y-801484D01*
X4074825Y-1001484D02*
X4074825Y-896722D01*
X4074825Y-896722D02*
X4065301Y-877674D01*
X4065301Y-877674D02*
X4046253Y-868150D01*
X4046253Y-868150D02*
X4017682Y-868150D01*
X4017682Y-868150D02*
X3998634Y-877674D01*
X3998634Y-877674D02*
X3989110Y-887198D01*
X4198634Y-1001484D02*
X4179587Y-991960D01*
X4179587Y-991960D02*
X4170063Y-982436D01*
X4170063Y-982436D02*
X4160539Y-963388D01*
X4160539Y-963388D02*
X4160539Y-906246D01*
X4160539Y-906246D02*
X4170063Y-887198D01*
X4170063Y-887198D02*
X4179587Y-877674D01*
X4179587Y-877674D02*
X4198634Y-868150D01*
X4198634Y-868150D02*
X4227206Y-868150D01*
X4227206Y-868150D02*
X4246253Y-877674D01*
X4246253Y-877674D02*
X4255777Y-887198D01*
X4255777Y-887198D02*
X4265301Y-906246D01*
X4265301Y-906246D02*
X4265301Y-963388D01*
X4265301Y-963388D02*
X4255777Y-982436D01*
X4255777Y-982436D02*
X4246253Y-991960D01*
X4246253Y-991960D02*
X4227206Y-1001484D01*
X4227206Y-1001484D02*
X4198634Y-1001484D01*
X4379587Y-1001484D02*
X4360539Y-991960D01*
X4360539Y-991960D02*
X4351015Y-972912D01*
X4351015Y-972912D02*
X4351015Y-801484D01*
X4531968Y-991960D02*
X4512920Y-1001484D01*
X4512920Y-1001484D02*
X4474825Y-1001484D01*
X4474825Y-1001484D02*
X4455777Y-991960D01*
X4455777Y-991960D02*
X4446253Y-972912D01*
X4446253Y-972912D02*
X4446253Y-896722D01*
X4446253Y-896722D02*
X4455777Y-877674D01*
X4455777Y-877674D02*
X4474825Y-868150D01*
X4474825Y-868150D02*
X4512920Y-868150D01*
X4512920Y-868150D02*
X4531968Y-877674D01*
X4531968Y-877674D02*
X4541492Y-896722D01*
X4541492Y-896722D02*
X4541492Y-915769D01*
X4541492Y-915769D02*
X4446253Y-934817D01*
X4617682Y-991960D02*
X4636730Y-1001484D01*
X4636730Y-1001484D02*
X4674825Y-1001484D01*
X4674825Y-1001484D02*
X4693873Y-991960D01*
X4693873Y-991960D02*
X4703396Y-972912D01*
X4703396Y-972912D02*
X4703396Y-963388D01*
X4703396Y-963388D02*
X4693873Y-944341D01*
X4693873Y-944341D02*
X4674825Y-934817D01*
X4674825Y-934817D02*
X4646253Y-934817D01*
X4646253Y-934817D02*
X4627206Y-925293D01*
X4627206Y-925293D02*
X4617682Y-906246D01*
X4617682Y-906246D02*
X4617682Y-896722D01*
X4617682Y-896722D02*
X4627206Y-877674D01*
X4627206Y-877674D02*
X4646253Y-868150D01*
X4646253Y-868150D02*
X4674825Y-868150D01*
X4674825Y-868150D02*
X4693873Y-877674D01*
X4770063Y-1077674D02*
X4779587Y-1068150D01*
X4779587Y-1068150D02*
X4798634Y-1039579D01*
X4798634Y-1039579D02*
X4808158Y-1020531D01*
X4808158Y-1020531D02*
X4817682Y-991960D01*
X4817682Y-991960D02*
X4827206Y-944341D01*
X4827206Y-944341D02*
X4827206Y-906246D01*
X4827206Y-906246D02*
X4817682Y-858627D01*
X4817682Y-858627D02*
X4808158Y-830055D01*
X4808158Y-830055D02*
X4798634Y-811008D01*
X4798634Y-811008D02*
X4779587Y-782436D01*
X4779587Y-782436D02*
X4770063Y-772912D01*
X5131968Y-1077674D02*
X5122444Y-1068150D01*
X5122444Y-1068150D02*
X5103396Y-1039579D01*
X5103396Y-1039579D02*
X5093873Y-1020531D01*
X5093873Y-1020531D02*
X5084349Y-991960D01*
X5084349Y-991960D02*
X5074825Y-944341D01*
X5074825Y-944341D02*
X5074825Y-906246D01*
X5074825Y-906246D02*
X5084349Y-858627D01*
X5084349Y-858627D02*
X5093873Y-830055D01*
X5093873Y-830055D02*
X5103396Y-811008D01*
X5103396Y-811008D02*
X5122444Y-782436D01*
X5122444Y-782436D02*
X5131968Y-772912D01*
X5208158Y-868150D02*
X5208158Y-1001484D01*
X5208158Y-887198D02*
X5217682Y-877674D01*
X5217682Y-877674D02*
X5236730Y-868150D01*
X5236730Y-868150D02*
X5265301Y-868150D01*
X5265301Y-868150D02*
X5284349Y-877674D01*
X5284349Y-877674D02*
X5293873Y-896722D01*
X5293873Y-896722D02*
X5293873Y-1001484D01*
X5417682Y-1001484D02*
X5398634Y-991960D01*
X5398634Y-991960D02*
X5389111Y-982436D01*
X5389111Y-982436D02*
X5379587Y-963388D01*
X5379587Y-963388D02*
X5379587Y-906246D01*
X5379587Y-906246D02*
X5389111Y-887198D01*
X5389111Y-887198D02*
X5398634Y-877674D01*
X5398634Y-877674D02*
X5417682Y-868150D01*
X5417682Y-868150D02*
X5446254Y-868150D01*
X5446254Y-868150D02*
X5465301Y-877674D01*
X5465301Y-877674D02*
X5474825Y-887198D01*
X5474825Y-887198D02*
X5484349Y-906246D01*
X5484349Y-906246D02*
X5484349Y-963388D01*
X5484349Y-963388D02*
X5474825Y-982436D01*
X5474825Y-982436D02*
X5465301Y-991960D01*
X5465301Y-991960D02*
X5446254Y-1001484D01*
X5446254Y-1001484D02*
X5417682Y-1001484D01*
X5541492Y-868150D02*
X5617682Y-868150D01*
X5570063Y-801484D02*
X5570063Y-972912D01*
X5570063Y-972912D02*
X5579587Y-991960D01*
X5579587Y-991960D02*
X5598634Y-1001484D01*
X5598634Y-1001484D02*
X5617682Y-1001484D01*
X5836730Y-868150D02*
X5836730Y-1068150D01*
X5836730Y-877674D02*
X5855777Y-868150D01*
X5855777Y-868150D02*
X5893873Y-868150D01*
X5893873Y-868150D02*
X5912920Y-877674D01*
X5912920Y-877674D02*
X5922444Y-887198D01*
X5922444Y-887198D02*
X5931968Y-906246D01*
X5931968Y-906246D02*
X5931968Y-963388D01*
X5931968Y-963388D02*
X5922444Y-982436D01*
X5922444Y-982436D02*
X5912920Y-991960D01*
X5912920Y-991960D02*
X5893873Y-1001484D01*
X5893873Y-1001484D02*
X5855777Y-1001484D01*
X5855777Y-1001484D02*
X5836730Y-991960D01*
X6046253Y-1001484D02*
X6027206Y-991960D01*
X6027206Y-991960D02*
X6017682Y-972912D01*
X6017682Y-972912D02*
X6017682Y-801484D01*
X6208158Y-1001484D02*
X6208158Y-896722D01*
X6208158Y-896722D02*
X6198634Y-877674D01*
X6198634Y-877674D02*
X6179587Y-868150D01*
X6179587Y-868150D02*
X6141492Y-868150D01*
X6141492Y-868150D02*
X6122444Y-877674D01*
X6208158Y-991960D02*
X6189111Y-1001484D01*
X6189111Y-1001484D02*
X6141492Y-1001484D01*
X6141492Y-1001484D02*
X6122444Y-991960D01*
X6122444Y-991960D02*
X6112920Y-972912D01*
X6112920Y-972912D02*
X6112920Y-953865D01*
X6112920Y-953865D02*
X6122444Y-934817D01*
X6122444Y-934817D02*
X6141492Y-925293D01*
X6141492Y-925293D02*
X6189111Y-925293D01*
X6189111Y-925293D02*
X6208158Y-915769D01*
X6274825Y-868150D02*
X6351015Y-868150D01*
X6303396Y-801484D02*
X6303396Y-972912D01*
X6303396Y-972912D02*
X6312920Y-991960D01*
X6312920Y-991960D02*
X6331968Y-1001484D01*
X6331968Y-1001484D02*
X6351015Y-1001484D01*
X6493873Y-991960D02*
X6474825Y-1001484D01*
X6474825Y-1001484D02*
X6436730Y-1001484D01*
X6436730Y-1001484D02*
X6417682Y-991960D01*
X6417682Y-991960D02*
X6408158Y-972912D01*
X6408158Y-972912D02*
X6408158Y-896722D01*
X6408158Y-896722D02*
X6417682Y-877674D01*
X6417682Y-877674D02*
X6436730Y-868150D01*
X6436730Y-868150D02*
X6474825Y-868150D01*
X6474825Y-868150D02*
X6493873Y-877674D01*
X6493873Y-877674D02*
X6503396Y-896722D01*
X6503396Y-896722D02*
X6503396Y-915769D01*
X6503396Y-915769D02*
X6408158Y-934817D01*
X6674825Y-1001484D02*
X6674825Y-801484D01*
X6674825Y-991960D02*
X6655777Y-1001484D01*
X6655777Y-1001484D02*
X6617682Y-1001484D01*
X6617682Y-1001484D02*
X6598634Y-991960D01*
X6598634Y-991960D02*
X6589111Y-982436D01*
X6589111Y-982436D02*
X6579587Y-963388D01*
X6579587Y-963388D02*
X6579587Y-906246D01*
X6579587Y-906246D02*
X6589111Y-887198D01*
X6589111Y-887198D02*
X6598634Y-877674D01*
X6598634Y-877674D02*
X6617682Y-868150D01*
X6617682Y-868150D02*
X6655777Y-868150D01*
X6655777Y-868150D02*
X6674825Y-877674D01*
X6751015Y-1077674D02*
X6760539Y-1068150D01*
X6760539Y-1068150D02*
X6779587Y-1039579D01*
X6779587Y-1039579D02*
X6789111Y-1020531D01*
X6789111Y-1020531D02*
X6798634Y-991960D01*
X6798634Y-991960D02*
X6808158Y-944341D01*
X6808158Y-944341D02*
X6808158Y-906246D01*
X6808158Y-906246D02*
X6798634Y-858627D01*
X6798634Y-858627D02*
X6789111Y-830055D01*
X6789111Y-830055D02*
X6779587Y-811008D01*
X6779587Y-811008D02*
X6760539Y-782436D01*
X6760539Y-782436D02*
X6751015Y-772912D01*
M02*
