%TF.GenerationSoftware,KiCad,Pcbnew,7.0.7*%
%TF.CreationDate,2023-10-05T08:38:53+02:00*%
%TF.ProjectId,Modbus_master,4d6f6462-7573-45f6-9d61-737465722e6b,rev?*%
%TF.SameCoordinates,PX4d3f640PY9988330*%
%TF.FileFunction,Legend,Top*%
%TF.FilePolarity,Positive*%
%FSLAX46Y46*%
G04 Gerber Fmt 4.6, Leading zero omitted, Abs format (unit mm)*
G04 Created by KiCad (PCBNEW 7.0.7) date 2023-10-05 08:38:53*
%MOMM*%
%LPD*%
G01*
G04 APERTURE LIST*
%ADD10C,0.150000*%
%ADD11C,0.254000*%
%ADD12C,0.200000*%
%ADD13C,0.100000*%
%ADD14C,0.120000*%
%ADD15C,0.127000*%
%ADD16C,0.110000*%
%ADD17C,0.400000*%
G04 APERTURE END LIST*
D10*
X54966077Y106139820D02*
X54632744Y107139820D01*
X54632744Y107139820D02*
X54299411Y106139820D01*
X53394649Y107044581D02*
X53442268Y107092200D01*
X53442268Y107092200D02*
X53585125Y107139820D01*
X53585125Y107139820D02*
X53680363Y107139820D01*
X53680363Y107139820D02*
X53823220Y107092200D01*
X53823220Y107092200D02*
X53918458Y106996962D01*
X53918458Y106996962D02*
X53966077Y106901724D01*
X53966077Y106901724D02*
X54013696Y106711248D01*
X54013696Y106711248D02*
X54013696Y106568391D01*
X54013696Y106568391D02*
X53966077Y106377915D01*
X53966077Y106377915D02*
X53918458Y106282677D01*
X53918458Y106282677D02*
X53823220Y106187439D01*
X53823220Y106187439D02*
X53680363Y106139820D01*
X53680363Y106139820D02*
X53585125Y106139820D01*
X53585125Y106139820D02*
X53442268Y106187439D01*
X53442268Y106187439D02*
X53394649Y106235058D01*
X52394649Y107044581D02*
X52442268Y107092200D01*
X52442268Y107092200D02*
X52585125Y107139820D01*
X52585125Y107139820D02*
X52680363Y107139820D01*
X52680363Y107139820D02*
X52823220Y107092200D01*
X52823220Y107092200D02*
X52918458Y106996962D01*
X52918458Y106996962D02*
X52966077Y106901724D01*
X52966077Y106901724D02*
X53013696Y106711248D01*
X53013696Y106711248D02*
X53013696Y106568391D01*
X53013696Y106568391D02*
X52966077Y106377915D01*
X52966077Y106377915D02*
X52918458Y106282677D01*
X52918458Y106282677D02*
X52823220Y106187439D01*
X52823220Y106187439D02*
X52680363Y106139820D01*
X52680363Y106139820D02*
X52585125Y106139820D01*
X52585125Y106139820D02*
X52442268Y106187439D01*
X52442268Y106187439D02*
X52394649Y106235058D01*
X44056660Y20725896D02*
X44532850Y20725896D01*
X43961422Y20440181D02*
X44294755Y21440181D01*
X44294755Y21440181D02*
X44628088Y20440181D01*
X44961422Y20821134D02*
X45723327Y20821134D01*
X45342374Y20440181D02*
X45342374Y21202086D01*
X49499411Y106177439D02*
X49594649Y106129820D01*
X49594649Y106129820D02*
X49737506Y106129820D01*
X49737506Y106129820D02*
X49880363Y106177439D01*
X49880363Y106177439D02*
X49975601Y106272677D01*
X49975601Y106272677D02*
X50023220Y106367915D01*
X50023220Y106367915D02*
X50070839Y106558391D01*
X50070839Y106558391D02*
X50070839Y106701248D01*
X50070839Y106701248D02*
X50023220Y106891724D01*
X50023220Y106891724D02*
X49975601Y106986962D01*
X49975601Y106986962D02*
X49880363Y107082200D01*
X49880363Y107082200D02*
X49737506Y107129820D01*
X49737506Y107129820D02*
X49642268Y107129820D01*
X49642268Y107129820D02*
X49499411Y107082200D01*
X49499411Y107082200D02*
X49451792Y107034581D01*
X49451792Y107034581D02*
X49451792Y106701248D01*
X49451792Y106701248D02*
X49642268Y106701248D01*
X49023220Y107129820D02*
X49023220Y106129820D01*
X49023220Y106129820D02*
X48451792Y107129820D01*
X48451792Y107129820D02*
X48451792Y106129820D01*
X47975601Y107129820D02*
X47975601Y106129820D01*
X47975601Y106129820D02*
X47737506Y106129820D01*
X47737506Y106129820D02*
X47594649Y106177439D01*
X47594649Y106177439D02*
X47499411Y106272677D01*
X47499411Y106272677D02*
X47451792Y106367915D01*
X47451792Y106367915D02*
X47404173Y106558391D01*
X47404173Y106558391D02*
X47404173Y106701248D01*
X47404173Y106701248D02*
X47451792Y106891724D01*
X47451792Y106891724D02*
X47499411Y106986962D01*
X47499411Y106986962D02*
X47594649Y107082200D01*
X47594649Y107082200D02*
X47737506Y107129820D01*
X47737506Y107129820D02*
X47975601Y107129820D01*
X39322612Y20948991D02*
X39465469Y20901372D01*
X39465469Y20901372D02*
X39513088Y20853753D01*
X39513088Y20853753D02*
X39560707Y20758515D01*
X39560707Y20758515D02*
X39560707Y20615658D01*
X39560707Y20615658D02*
X39513088Y20520420D01*
X39513088Y20520420D02*
X39465469Y20472800D01*
X39465469Y20472800D02*
X39370231Y20425181D01*
X39370231Y20425181D02*
X38989279Y20425181D01*
X38989279Y20425181D02*
X38989279Y21425181D01*
X38989279Y21425181D02*
X39322612Y21425181D01*
X39322612Y21425181D02*
X39417850Y21377562D01*
X39417850Y21377562D02*
X39465469Y21329943D01*
X39465469Y21329943D02*
X39513088Y21234705D01*
X39513088Y21234705D02*
X39513088Y21139467D01*
X39513088Y21139467D02*
X39465469Y21044229D01*
X39465469Y21044229D02*
X39417850Y20996610D01*
X39417850Y20996610D02*
X39322612Y20948991D01*
X39322612Y20948991D02*
X38989279Y20948991D01*
X39989279Y20806134D02*
X40751184Y20806134D01*
X59569411Y106187439D02*
X59664649Y106139820D01*
X59664649Y106139820D02*
X59807506Y106139820D01*
X59807506Y106139820D02*
X59950363Y106187439D01*
X59950363Y106187439D02*
X60045601Y106282677D01*
X60045601Y106282677D02*
X60093220Y106377915D01*
X60093220Y106377915D02*
X60140839Y106568391D01*
X60140839Y106568391D02*
X60140839Y106711248D01*
X60140839Y106711248D02*
X60093220Y106901724D01*
X60093220Y106901724D02*
X60045601Y106996962D01*
X60045601Y106996962D02*
X59950363Y107092200D01*
X59950363Y107092200D02*
X59807506Y107139820D01*
X59807506Y107139820D02*
X59712268Y107139820D01*
X59712268Y107139820D02*
X59569411Y107092200D01*
X59569411Y107092200D02*
X59521792Y107044581D01*
X59521792Y107044581D02*
X59521792Y106711248D01*
X59521792Y106711248D02*
X59712268Y106711248D01*
X59093220Y107139820D02*
X59093220Y106139820D01*
X59093220Y106139820D02*
X58521792Y107139820D01*
X58521792Y107139820D02*
X58521792Y106139820D01*
X58045601Y107139820D02*
X58045601Y106139820D01*
X58045601Y106139820D02*
X57807506Y106139820D01*
X57807506Y106139820D02*
X57664649Y106187439D01*
X57664649Y106187439D02*
X57569411Y106282677D01*
X57569411Y106282677D02*
X57521792Y106377915D01*
X57521792Y106377915D02*
X57474173Y106568391D01*
X57474173Y106568391D02*
X57474173Y106711248D01*
X57474173Y106711248D02*
X57521792Y106901724D01*
X57521792Y106901724D02*
X57569411Y106996962D01*
X57569411Y106996962D02*
X57664649Y107092200D01*
X57664649Y107092200D02*
X57807506Y107139820D01*
X57807506Y107139820D02*
X58045601Y107139820D01*
X48615588Y21405062D02*
X48520350Y21452681D01*
X48520350Y21452681D02*
X48377493Y21452681D01*
X48377493Y21452681D02*
X48234636Y21405062D01*
X48234636Y21405062D02*
X48139398Y21309824D01*
X48139398Y21309824D02*
X48091779Y21214586D01*
X48091779Y21214586D02*
X48044160Y21024110D01*
X48044160Y21024110D02*
X48044160Y20881253D01*
X48044160Y20881253D02*
X48091779Y20690777D01*
X48091779Y20690777D02*
X48139398Y20595539D01*
X48139398Y20595539D02*
X48234636Y20500300D01*
X48234636Y20500300D02*
X48377493Y20452681D01*
X48377493Y20452681D02*
X48472731Y20452681D01*
X48472731Y20452681D02*
X48615588Y20500300D01*
X48615588Y20500300D02*
X48663207Y20547920D01*
X48663207Y20547920D02*
X48663207Y20881253D01*
X48663207Y20881253D02*
X48472731Y20881253D01*
X49091779Y20452681D02*
X49091779Y21452681D01*
X49091779Y21452681D02*
X49663207Y20452681D01*
X49663207Y20452681D02*
X49663207Y21452681D01*
X50139398Y20452681D02*
X50139398Y21452681D01*
X50139398Y21452681D02*
X50377493Y21452681D01*
X50377493Y21452681D02*
X50520350Y21405062D01*
X50520350Y21405062D02*
X50615588Y21309824D01*
X50615588Y21309824D02*
X50663207Y21214586D01*
X50663207Y21214586D02*
X50710826Y21024110D01*
X50710826Y21024110D02*
X50710826Y20881253D01*
X50710826Y20881253D02*
X50663207Y20690777D01*
X50663207Y20690777D02*
X50615588Y20595539D01*
X50615588Y20595539D02*
X50520350Y20500300D01*
X50520350Y20500300D02*
X50377493Y20452681D01*
X50377493Y20452681D02*
X50139398Y20452681D01*
X65166077Y106129820D02*
X64832744Y107129820D01*
X64832744Y107129820D02*
X64499411Y106129820D01*
X63594649Y107034581D02*
X63642268Y107082200D01*
X63642268Y107082200D02*
X63785125Y107129820D01*
X63785125Y107129820D02*
X63880363Y107129820D01*
X63880363Y107129820D02*
X64023220Y107082200D01*
X64023220Y107082200D02*
X64118458Y106986962D01*
X64118458Y106986962D02*
X64166077Y106891724D01*
X64166077Y106891724D02*
X64213696Y106701248D01*
X64213696Y106701248D02*
X64213696Y106558391D01*
X64213696Y106558391D02*
X64166077Y106367915D01*
X64166077Y106367915D02*
X64118458Y106272677D01*
X64118458Y106272677D02*
X64023220Y106177439D01*
X64023220Y106177439D02*
X63880363Y106129820D01*
X63880363Y106129820D02*
X63785125Y106129820D01*
X63785125Y106129820D02*
X63642268Y106177439D01*
X63642268Y106177439D02*
X63594649Y106225058D01*
X62594649Y107034581D02*
X62642268Y107082200D01*
X62642268Y107082200D02*
X62785125Y107129820D01*
X62785125Y107129820D02*
X62880363Y107129820D01*
X62880363Y107129820D02*
X63023220Y107082200D01*
X63023220Y107082200D02*
X63118458Y106986962D01*
X63118458Y106986962D02*
X63166077Y106891724D01*
X63166077Y106891724D02*
X63213696Y106701248D01*
X63213696Y106701248D02*
X63213696Y106558391D01*
X63213696Y106558391D02*
X63166077Y106367915D01*
X63166077Y106367915D02*
X63118458Y106272677D01*
X63118458Y106272677D02*
X63023220Y106177439D01*
X63023220Y106177439D02*
X62880363Y106129820D01*
X62880363Y106129820D02*
X62785125Y106129820D01*
X62785125Y106129820D02*
X62642268Y106177439D01*
X62642268Y106177439D02*
X62594649Y106225058D01*
X49843922Y114140181D02*
X50415350Y114140181D01*
X50129636Y113140181D02*
X50129636Y114140181D01*
X50939160Y114140181D02*
X51129636Y114140181D01*
X51129636Y114140181D02*
X51224874Y114092562D01*
X51224874Y114092562D02*
X51320112Y113997324D01*
X51320112Y113997324D02*
X51367731Y113806848D01*
X51367731Y113806848D02*
X51367731Y113473515D01*
X51367731Y113473515D02*
X51320112Y113283039D01*
X51320112Y113283039D02*
X51224874Y113187800D01*
X51224874Y113187800D02*
X51129636Y113140181D01*
X51129636Y113140181D02*
X50939160Y113140181D01*
X50939160Y113140181D02*
X50843922Y113187800D01*
X50843922Y113187800D02*
X50748684Y113283039D01*
X50748684Y113283039D02*
X50701065Y113473515D01*
X50701065Y113473515D02*
X50701065Y113806848D01*
X50701065Y113806848D02*
X50748684Y113997324D01*
X50748684Y113997324D02*
X50843922Y114092562D01*
X50843922Y114092562D02*
X50939160Y114140181D01*
X51796303Y113140181D02*
X51796303Y114140181D01*
X51796303Y114140181D02*
X52177255Y114140181D01*
X52177255Y114140181D02*
X52272493Y114092562D01*
X52272493Y114092562D02*
X52320112Y114044943D01*
X52320112Y114044943D02*
X52367731Y113949705D01*
X52367731Y113949705D02*
X52367731Y113806848D01*
X52367731Y113806848D02*
X52320112Y113711610D01*
X52320112Y113711610D02*
X52272493Y113663991D01*
X52272493Y113663991D02*
X52177255Y113616372D01*
X52177255Y113616372D02*
X51796303Y113616372D01*
D11*
X57728837Y72232482D02*
X57728837Y73502482D01*
X59059314Y72353435D02*
X58998838Y72292958D01*
X58998838Y72292958D02*
X58817409Y72232482D01*
X58817409Y72232482D02*
X58696457Y72232482D01*
X58696457Y72232482D02*
X58515028Y72292958D01*
X58515028Y72292958D02*
X58394076Y72413911D01*
X58394076Y72413911D02*
X58333599Y72534863D01*
X58333599Y72534863D02*
X58273123Y72776768D01*
X58273123Y72776768D02*
X58273123Y72958197D01*
X58273123Y72958197D02*
X58333599Y73200101D01*
X58333599Y73200101D02*
X58394076Y73321054D01*
X58394076Y73321054D02*
X58515028Y73442006D01*
X58515028Y73442006D02*
X58696457Y73502482D01*
X58696457Y73502482D02*
X58817409Y73502482D01*
X58817409Y73502482D02*
X58998838Y73442006D01*
X58998838Y73442006D02*
X59059314Y73381530D01*
X60268838Y72232482D02*
X59543123Y72232482D01*
X59905980Y72232482D02*
X59905980Y73502482D01*
X59905980Y73502482D02*
X59785028Y73321054D01*
X59785028Y73321054D02*
X59664076Y73200101D01*
X59664076Y73200101D02*
X59543123Y73139625D01*
X55116418Y24394282D02*
X55116418Y25664282D01*
X55116418Y25664282D02*
X55418799Y25664282D01*
X55418799Y25664282D02*
X55600228Y25603806D01*
X55600228Y25603806D02*
X55721180Y25482854D01*
X55721180Y25482854D02*
X55781657Y25361901D01*
X55781657Y25361901D02*
X55842133Y25119997D01*
X55842133Y25119997D02*
X55842133Y24938568D01*
X55842133Y24938568D02*
X55781657Y24696663D01*
X55781657Y24696663D02*
X55721180Y24575711D01*
X55721180Y24575711D02*
X55600228Y24454758D01*
X55600228Y24454758D02*
X55418799Y24394282D01*
X55418799Y24394282D02*
X55116418Y24394282D01*
X56325942Y25543330D02*
X56386418Y25603806D01*
X56386418Y25603806D02*
X56507371Y25664282D01*
X56507371Y25664282D02*
X56809752Y25664282D01*
X56809752Y25664282D02*
X56930704Y25603806D01*
X56930704Y25603806D02*
X56991180Y25543330D01*
X56991180Y25543330D02*
X57051657Y25422378D01*
X57051657Y25422378D02*
X57051657Y25301425D01*
X57051657Y25301425D02*
X56991180Y25119997D01*
X56991180Y25119997D02*
X56265466Y24394282D01*
X56265466Y24394282D02*
X57051657Y24394282D01*
D10*
X72238980Y32585334D02*
X72286600Y32537715D01*
X72286600Y32537715D02*
X72334219Y32394858D01*
X72334219Y32394858D02*
X72334219Y32299620D01*
X72334219Y32299620D02*
X72286600Y32156763D01*
X72286600Y32156763D02*
X72191361Y32061525D01*
X72191361Y32061525D02*
X72096123Y32013906D01*
X72096123Y32013906D02*
X71905647Y31966287D01*
X71905647Y31966287D02*
X71762790Y31966287D01*
X71762790Y31966287D02*
X71572314Y32013906D01*
X71572314Y32013906D02*
X71477076Y32061525D01*
X71477076Y32061525D02*
X71381838Y32156763D01*
X71381838Y32156763D02*
X71334219Y32299620D01*
X71334219Y32299620D02*
X71334219Y32394858D01*
X71334219Y32394858D02*
X71381838Y32537715D01*
X71381838Y32537715D02*
X71429457Y32585334D01*
X71334219Y33442477D02*
X71334219Y33252001D01*
X71334219Y33252001D02*
X71381838Y33156763D01*
X71381838Y33156763D02*
X71429457Y33109144D01*
X71429457Y33109144D02*
X71572314Y33013906D01*
X71572314Y33013906D02*
X71762790Y32966287D01*
X71762790Y32966287D02*
X72143742Y32966287D01*
X72143742Y32966287D02*
X72238980Y33013906D01*
X72238980Y33013906D02*
X72286600Y33061525D01*
X72286600Y33061525D02*
X72334219Y33156763D01*
X72334219Y33156763D02*
X72334219Y33347239D01*
X72334219Y33347239D02*
X72286600Y33442477D01*
X72286600Y33442477D02*
X72238980Y33490096D01*
X72238980Y33490096D02*
X72143742Y33537715D01*
X72143742Y33537715D02*
X71905647Y33537715D01*
X71905647Y33537715D02*
X71810409Y33490096D01*
X71810409Y33490096D02*
X71762790Y33442477D01*
X71762790Y33442477D02*
X71715171Y33347239D01*
X71715171Y33347239D02*
X71715171Y33156763D01*
X71715171Y33156763D02*
X71762790Y33061525D01*
X71762790Y33061525D02*
X71810409Y33013906D01*
X71810409Y33013906D02*
X71905647Y32966287D01*
X68259580Y65347143D02*
X68307200Y65299524D01*
X68307200Y65299524D02*
X68354819Y65156667D01*
X68354819Y65156667D02*
X68354819Y65061429D01*
X68354819Y65061429D02*
X68307200Y64918572D01*
X68307200Y64918572D02*
X68211961Y64823334D01*
X68211961Y64823334D02*
X68116723Y64775715D01*
X68116723Y64775715D02*
X67926247Y64728096D01*
X67926247Y64728096D02*
X67783390Y64728096D01*
X67783390Y64728096D02*
X67592914Y64775715D01*
X67592914Y64775715D02*
X67497676Y64823334D01*
X67497676Y64823334D02*
X67402438Y64918572D01*
X67402438Y64918572D02*
X67354819Y65061429D01*
X67354819Y65061429D02*
X67354819Y65156667D01*
X67354819Y65156667D02*
X67402438Y65299524D01*
X67402438Y65299524D02*
X67450057Y65347143D01*
X68354819Y66299524D02*
X68354819Y65728096D01*
X68354819Y66013810D02*
X67354819Y66013810D01*
X67354819Y66013810D02*
X67497676Y65918572D01*
X67497676Y65918572D02*
X67592914Y65823334D01*
X67592914Y65823334D02*
X67640533Y65728096D01*
X67354819Y66632858D02*
X67354819Y67299524D01*
X67354819Y67299524D02*
X68354819Y66870953D01*
X68656666Y50185181D02*
X68656666Y49470896D01*
X68656666Y49470896D02*
X68609047Y49328039D01*
X68609047Y49328039D02*
X68513809Y49232800D01*
X68513809Y49232800D02*
X68370952Y49185181D01*
X68370952Y49185181D02*
X68275714Y49185181D01*
X69561428Y50185181D02*
X69370952Y50185181D01*
X69370952Y50185181D02*
X69275714Y50137562D01*
X69275714Y50137562D02*
X69228095Y50089943D01*
X69228095Y50089943D02*
X69132857Y49947086D01*
X69132857Y49947086D02*
X69085238Y49756610D01*
X69085238Y49756610D02*
X69085238Y49375658D01*
X69085238Y49375658D02*
X69132857Y49280420D01*
X69132857Y49280420D02*
X69180476Y49232800D01*
X69180476Y49232800D02*
X69275714Y49185181D01*
X69275714Y49185181D02*
X69466190Y49185181D01*
X69466190Y49185181D02*
X69561428Y49232800D01*
X69561428Y49232800D02*
X69609047Y49280420D01*
X69609047Y49280420D02*
X69656666Y49375658D01*
X69656666Y49375658D02*
X69656666Y49613753D01*
X69656666Y49613753D02*
X69609047Y49708991D01*
X69609047Y49708991D02*
X69561428Y49756610D01*
X69561428Y49756610D02*
X69466190Y49804229D01*
X69466190Y49804229D02*
X69275714Y49804229D01*
X69275714Y49804229D02*
X69180476Y49756610D01*
X69180476Y49756610D02*
X69132857Y49708991D01*
X69132857Y49708991D02*
X69085238Y49613753D01*
X64647819Y91398506D02*
X63647819Y91398506D01*
X63647819Y91398506D02*
X63647819Y91636601D01*
X63647819Y91636601D02*
X63695438Y91779458D01*
X63695438Y91779458D02*
X63790676Y91874696D01*
X63790676Y91874696D02*
X63885914Y91922315D01*
X63885914Y91922315D02*
X64076390Y91969934D01*
X64076390Y91969934D02*
X64219247Y91969934D01*
X64219247Y91969934D02*
X64409723Y91922315D01*
X64409723Y91922315D02*
X64504961Y91874696D01*
X64504961Y91874696D02*
X64600200Y91779458D01*
X64600200Y91779458D02*
X64647819Y91636601D01*
X64647819Y91636601D02*
X64647819Y91398506D01*
X63647819Y92874696D02*
X63647819Y92398506D01*
X63647819Y92398506D02*
X64124009Y92350887D01*
X64124009Y92350887D02*
X64076390Y92398506D01*
X64076390Y92398506D02*
X64028771Y92493744D01*
X64028771Y92493744D02*
X64028771Y92731839D01*
X64028771Y92731839D02*
X64076390Y92827077D01*
X64076390Y92827077D02*
X64124009Y92874696D01*
X64124009Y92874696D02*
X64219247Y92922315D01*
X64219247Y92922315D02*
X64457342Y92922315D01*
X64457342Y92922315D02*
X64552580Y92874696D01*
X64552580Y92874696D02*
X64600200Y92827077D01*
X64600200Y92827077D02*
X64647819Y92731839D01*
X64647819Y92731839D02*
X64647819Y92493744D01*
X64647819Y92493744D02*
X64600200Y92398506D01*
X64600200Y92398506D02*
X64552580Y92350887D01*
X73854819Y66847143D02*
X73378628Y66513810D01*
X73854819Y66275715D02*
X72854819Y66275715D01*
X72854819Y66275715D02*
X72854819Y66656667D01*
X72854819Y66656667D02*
X72902438Y66751905D01*
X72902438Y66751905D02*
X72950057Y66799524D01*
X72950057Y66799524D02*
X73045295Y66847143D01*
X73045295Y66847143D02*
X73188152Y66847143D01*
X73188152Y66847143D02*
X73283390Y66799524D01*
X73283390Y66799524D02*
X73331009Y66751905D01*
X73331009Y66751905D02*
X73378628Y66656667D01*
X73378628Y66656667D02*
X73378628Y66275715D01*
X72854819Y67180477D02*
X72854819Y67799524D01*
X72854819Y67799524D02*
X73235771Y67466191D01*
X73235771Y67466191D02*
X73235771Y67609048D01*
X73235771Y67609048D02*
X73283390Y67704286D01*
X73283390Y67704286D02*
X73331009Y67751905D01*
X73331009Y67751905D02*
X73426247Y67799524D01*
X73426247Y67799524D02*
X73664342Y67799524D01*
X73664342Y67799524D02*
X73759580Y67751905D01*
X73759580Y67751905D02*
X73807200Y67704286D01*
X73807200Y67704286D02*
X73854819Y67609048D01*
X73854819Y67609048D02*
X73854819Y67323334D01*
X73854819Y67323334D02*
X73807200Y67228096D01*
X73807200Y67228096D02*
X73759580Y67180477D01*
X72854819Y68418572D02*
X72854819Y68513810D01*
X72854819Y68513810D02*
X72902438Y68609048D01*
X72902438Y68609048D02*
X72950057Y68656667D01*
X72950057Y68656667D02*
X73045295Y68704286D01*
X73045295Y68704286D02*
X73235771Y68751905D01*
X73235771Y68751905D02*
X73473866Y68751905D01*
X73473866Y68751905D02*
X73664342Y68704286D01*
X73664342Y68704286D02*
X73759580Y68656667D01*
X73759580Y68656667D02*
X73807200Y68609048D01*
X73807200Y68609048D02*
X73854819Y68513810D01*
X73854819Y68513810D02*
X73854819Y68418572D01*
X73854819Y68418572D02*
X73807200Y68323334D01*
X73807200Y68323334D02*
X73759580Y68275715D01*
X73759580Y68275715D02*
X73664342Y68228096D01*
X73664342Y68228096D02*
X73473866Y68180477D01*
X73473866Y68180477D02*
X73235771Y68180477D01*
X73235771Y68180477D02*
X73045295Y68228096D01*
X73045295Y68228096D02*
X72950057Y68275715D01*
X72950057Y68275715D02*
X72902438Y68323334D01*
X72902438Y68323334D02*
X72854819Y68418572D01*
X57157380Y90548343D02*
X57205000Y90500724D01*
X57205000Y90500724D02*
X57252619Y90357867D01*
X57252619Y90357867D02*
X57252619Y90262629D01*
X57252619Y90262629D02*
X57205000Y90119772D01*
X57205000Y90119772D02*
X57109761Y90024534D01*
X57109761Y90024534D02*
X57014523Y89976915D01*
X57014523Y89976915D02*
X56824047Y89929296D01*
X56824047Y89929296D02*
X56681190Y89929296D01*
X56681190Y89929296D02*
X56490714Y89976915D01*
X56490714Y89976915D02*
X56395476Y90024534D01*
X56395476Y90024534D02*
X56300238Y90119772D01*
X56300238Y90119772D02*
X56252619Y90262629D01*
X56252619Y90262629D02*
X56252619Y90357867D01*
X56252619Y90357867D02*
X56300238Y90500724D01*
X56300238Y90500724D02*
X56347857Y90548343D01*
X57252619Y91500724D02*
X57252619Y90929296D01*
X57252619Y91215010D02*
X56252619Y91215010D01*
X56252619Y91215010D02*
X56395476Y91119772D01*
X56395476Y91119772D02*
X56490714Y91024534D01*
X56490714Y91024534D02*
X56538333Y90929296D01*
X56252619Y92119772D02*
X56252619Y92215010D01*
X56252619Y92215010D02*
X56300238Y92310248D01*
X56300238Y92310248D02*
X56347857Y92357867D01*
X56347857Y92357867D02*
X56443095Y92405486D01*
X56443095Y92405486D02*
X56633571Y92453105D01*
X56633571Y92453105D02*
X56871666Y92453105D01*
X56871666Y92453105D02*
X57062142Y92405486D01*
X57062142Y92405486D02*
X57157380Y92357867D01*
X57157380Y92357867D02*
X57205000Y92310248D01*
X57205000Y92310248D02*
X57252619Y92215010D01*
X57252619Y92215010D02*
X57252619Y92119772D01*
X57252619Y92119772D02*
X57205000Y92024534D01*
X57205000Y92024534D02*
X57157380Y91976915D01*
X57157380Y91976915D02*
X57062142Y91929296D01*
X57062142Y91929296D02*
X56871666Y91881677D01*
X56871666Y91881677D02*
X56633571Y91881677D01*
X56633571Y91881677D02*
X56443095Y91929296D01*
X56443095Y91929296D02*
X56347857Y91976915D01*
X56347857Y91976915D02*
X56300238Y92024534D01*
X56300238Y92024534D02*
X56252619Y92119772D01*
X41657142Y92730420D02*
X41609523Y92682800D01*
X41609523Y92682800D02*
X41466666Y92635181D01*
X41466666Y92635181D02*
X41371428Y92635181D01*
X41371428Y92635181D02*
X41228571Y92682800D01*
X41228571Y92682800D02*
X41133333Y92778039D01*
X41133333Y92778039D02*
X41085714Y92873277D01*
X41085714Y92873277D02*
X41038095Y93063753D01*
X41038095Y93063753D02*
X41038095Y93206610D01*
X41038095Y93206610D02*
X41085714Y93397086D01*
X41085714Y93397086D02*
X41133333Y93492324D01*
X41133333Y93492324D02*
X41228571Y93587562D01*
X41228571Y93587562D02*
X41371428Y93635181D01*
X41371428Y93635181D02*
X41466666Y93635181D01*
X41466666Y93635181D02*
X41609523Y93587562D01*
X41609523Y93587562D02*
X41657142Y93539943D01*
X42609523Y92635181D02*
X42038095Y92635181D01*
X42323809Y92635181D02*
X42323809Y93635181D01*
X42323809Y93635181D02*
X42228571Y93492324D01*
X42228571Y93492324D02*
X42133333Y93397086D01*
X42133333Y93397086D02*
X42038095Y93349467D01*
X42990476Y93539943D02*
X43038095Y93587562D01*
X43038095Y93587562D02*
X43133333Y93635181D01*
X43133333Y93635181D02*
X43371428Y93635181D01*
X43371428Y93635181D02*
X43466666Y93587562D01*
X43466666Y93587562D02*
X43514285Y93539943D01*
X43514285Y93539943D02*
X43561904Y93444705D01*
X43561904Y93444705D02*
X43561904Y93349467D01*
X43561904Y93349467D02*
X43514285Y93206610D01*
X43514285Y93206610D02*
X42942857Y92635181D01*
X42942857Y92635181D02*
X43561904Y92635181D01*
D11*
X32746667Y42885682D02*
X32746667Y41978539D01*
X32746667Y41978539D02*
X32686190Y41797111D01*
X32686190Y41797111D02*
X32565238Y41676158D01*
X32565238Y41676158D02*
X32383809Y41615682D01*
X32383809Y41615682D02*
X32262857Y41615682D01*
X33290952Y42764730D02*
X33351428Y42825206D01*
X33351428Y42825206D02*
X33472381Y42885682D01*
X33472381Y42885682D02*
X33774762Y42885682D01*
X33774762Y42885682D02*
X33895714Y42825206D01*
X33895714Y42825206D02*
X33956190Y42764730D01*
X33956190Y42764730D02*
X34016667Y42643778D01*
X34016667Y42643778D02*
X34016667Y42522825D01*
X34016667Y42522825D02*
X33956190Y42341397D01*
X33956190Y42341397D02*
X33230476Y41615682D01*
X33230476Y41615682D02*
X34016667Y41615682D01*
D10*
X53859580Y83347143D02*
X53907200Y83299524D01*
X53907200Y83299524D02*
X53954819Y83156667D01*
X53954819Y83156667D02*
X53954819Y83061429D01*
X53954819Y83061429D02*
X53907200Y82918572D01*
X53907200Y82918572D02*
X53811961Y82823334D01*
X53811961Y82823334D02*
X53716723Y82775715D01*
X53716723Y82775715D02*
X53526247Y82728096D01*
X53526247Y82728096D02*
X53383390Y82728096D01*
X53383390Y82728096D02*
X53192914Y82775715D01*
X53192914Y82775715D02*
X53097676Y82823334D01*
X53097676Y82823334D02*
X53002438Y82918572D01*
X53002438Y82918572D02*
X52954819Y83061429D01*
X52954819Y83061429D02*
X52954819Y83156667D01*
X52954819Y83156667D02*
X53002438Y83299524D01*
X53002438Y83299524D02*
X53050057Y83347143D01*
X53954819Y84299524D02*
X53954819Y83728096D01*
X53954819Y84013810D02*
X52954819Y84013810D01*
X52954819Y84013810D02*
X53097676Y83918572D01*
X53097676Y83918572D02*
X53192914Y83823334D01*
X53192914Y83823334D02*
X53240533Y83728096D01*
X53954819Y84775715D02*
X53954819Y84966191D01*
X53954819Y84966191D02*
X53907200Y85061429D01*
X53907200Y85061429D02*
X53859580Y85109048D01*
X53859580Y85109048D02*
X53716723Y85204286D01*
X53716723Y85204286D02*
X53526247Y85251905D01*
X53526247Y85251905D02*
X53145295Y85251905D01*
X53145295Y85251905D02*
X53050057Y85204286D01*
X53050057Y85204286D02*
X53002438Y85156667D01*
X53002438Y85156667D02*
X52954819Y85061429D01*
X52954819Y85061429D02*
X52954819Y84870953D01*
X52954819Y84870953D02*
X53002438Y84775715D01*
X53002438Y84775715D02*
X53050057Y84728096D01*
X53050057Y84728096D02*
X53145295Y84680477D01*
X53145295Y84680477D02*
X53383390Y84680477D01*
X53383390Y84680477D02*
X53478628Y84728096D01*
X53478628Y84728096D02*
X53526247Y84775715D01*
X53526247Y84775715D02*
X53573866Y84870953D01*
X53573866Y84870953D02*
X53573866Y85061429D01*
X53573866Y85061429D02*
X53526247Y85156667D01*
X53526247Y85156667D02*
X53478628Y85204286D01*
X53478628Y85204286D02*
X53383390Y85251905D01*
X36993333Y62605181D02*
X36660000Y63081372D01*
X36421905Y62605181D02*
X36421905Y63605181D01*
X36421905Y63605181D02*
X36802857Y63605181D01*
X36802857Y63605181D02*
X36898095Y63557562D01*
X36898095Y63557562D02*
X36945714Y63509943D01*
X36945714Y63509943D02*
X36993333Y63414705D01*
X36993333Y63414705D02*
X36993333Y63271848D01*
X36993333Y63271848D02*
X36945714Y63176610D01*
X36945714Y63176610D02*
X36898095Y63128991D01*
X36898095Y63128991D02*
X36802857Y63081372D01*
X36802857Y63081372D02*
X36421905Y63081372D01*
X37850476Y63271848D02*
X37850476Y62605181D01*
X37612381Y63652800D02*
X37374286Y62938515D01*
X37374286Y62938515D02*
X37993333Y62938515D01*
X31793333Y60900420D02*
X31745714Y60852800D01*
X31745714Y60852800D02*
X31602857Y60805181D01*
X31602857Y60805181D02*
X31507619Y60805181D01*
X31507619Y60805181D02*
X31364762Y60852800D01*
X31364762Y60852800D02*
X31269524Y60948039D01*
X31269524Y60948039D02*
X31221905Y61043277D01*
X31221905Y61043277D02*
X31174286Y61233753D01*
X31174286Y61233753D02*
X31174286Y61376610D01*
X31174286Y61376610D02*
X31221905Y61567086D01*
X31221905Y61567086D02*
X31269524Y61662324D01*
X31269524Y61662324D02*
X31364762Y61757562D01*
X31364762Y61757562D02*
X31507619Y61805181D01*
X31507619Y61805181D02*
X31602857Y61805181D01*
X31602857Y61805181D02*
X31745714Y61757562D01*
X31745714Y61757562D02*
X31793333Y61709943D01*
X32126667Y61805181D02*
X32745714Y61805181D01*
X32745714Y61805181D02*
X32412381Y61424229D01*
X32412381Y61424229D02*
X32555238Y61424229D01*
X32555238Y61424229D02*
X32650476Y61376610D01*
X32650476Y61376610D02*
X32698095Y61328991D01*
X32698095Y61328991D02*
X32745714Y61233753D01*
X32745714Y61233753D02*
X32745714Y60995658D01*
X32745714Y60995658D02*
X32698095Y60900420D01*
X32698095Y60900420D02*
X32650476Y60852800D01*
X32650476Y60852800D02*
X32555238Y60805181D01*
X32555238Y60805181D02*
X32269524Y60805181D01*
X32269524Y60805181D02*
X32174286Y60852800D01*
X32174286Y60852800D02*
X32126667Y60900420D01*
X61940133Y28633181D02*
X61606800Y29109372D01*
X61368705Y28633181D02*
X61368705Y29633181D01*
X61368705Y29633181D02*
X61749657Y29633181D01*
X61749657Y29633181D02*
X61844895Y29585562D01*
X61844895Y29585562D02*
X61892514Y29537943D01*
X61892514Y29537943D02*
X61940133Y29442705D01*
X61940133Y29442705D02*
X61940133Y29299848D01*
X61940133Y29299848D02*
X61892514Y29204610D01*
X61892514Y29204610D02*
X61844895Y29156991D01*
X61844895Y29156991D02*
X61749657Y29109372D01*
X61749657Y29109372D02*
X61368705Y29109372D01*
X62416324Y28633181D02*
X62606800Y28633181D01*
X62606800Y28633181D02*
X62702038Y28680800D01*
X62702038Y28680800D02*
X62749657Y28728420D01*
X62749657Y28728420D02*
X62844895Y28871277D01*
X62844895Y28871277D02*
X62892514Y29061753D01*
X62892514Y29061753D02*
X62892514Y29442705D01*
X62892514Y29442705D02*
X62844895Y29537943D01*
X62844895Y29537943D02*
X62797276Y29585562D01*
X62797276Y29585562D02*
X62702038Y29633181D01*
X62702038Y29633181D02*
X62511562Y29633181D01*
X62511562Y29633181D02*
X62416324Y29585562D01*
X62416324Y29585562D02*
X62368705Y29537943D01*
X62368705Y29537943D02*
X62321086Y29442705D01*
X62321086Y29442705D02*
X62321086Y29204610D01*
X62321086Y29204610D02*
X62368705Y29109372D01*
X62368705Y29109372D02*
X62416324Y29061753D01*
X62416324Y29061753D02*
X62511562Y29014134D01*
X62511562Y29014134D02*
X62702038Y29014134D01*
X62702038Y29014134D02*
X62797276Y29061753D01*
X62797276Y29061753D02*
X62844895Y29109372D01*
X62844895Y29109372D02*
X62892514Y29204610D01*
X29288095Y83085181D02*
X29288095Y82275658D01*
X29288095Y82275658D02*
X29335714Y82180420D01*
X29335714Y82180420D02*
X29383333Y82132800D01*
X29383333Y82132800D02*
X29478571Y82085181D01*
X29478571Y82085181D02*
X29669047Y82085181D01*
X29669047Y82085181D02*
X29764285Y82132800D01*
X29764285Y82132800D02*
X29811904Y82180420D01*
X29811904Y82180420D02*
X29859523Y82275658D01*
X29859523Y82275658D02*
X29859523Y83085181D01*
X30764285Y82751848D02*
X30764285Y82085181D01*
X30526190Y83132800D02*
X30288095Y82418515D01*
X30288095Y82418515D02*
X30907142Y82418515D01*
X49759580Y78547143D02*
X49807200Y78499524D01*
X49807200Y78499524D02*
X49854819Y78356667D01*
X49854819Y78356667D02*
X49854819Y78261429D01*
X49854819Y78261429D02*
X49807200Y78118572D01*
X49807200Y78118572D02*
X49711961Y78023334D01*
X49711961Y78023334D02*
X49616723Y77975715D01*
X49616723Y77975715D02*
X49426247Y77928096D01*
X49426247Y77928096D02*
X49283390Y77928096D01*
X49283390Y77928096D02*
X49092914Y77975715D01*
X49092914Y77975715D02*
X48997676Y78023334D01*
X48997676Y78023334D02*
X48902438Y78118572D01*
X48902438Y78118572D02*
X48854819Y78261429D01*
X48854819Y78261429D02*
X48854819Y78356667D01*
X48854819Y78356667D02*
X48902438Y78499524D01*
X48902438Y78499524D02*
X48950057Y78547143D01*
X49854819Y79499524D02*
X49854819Y78928096D01*
X49854819Y79213810D02*
X48854819Y79213810D01*
X48854819Y79213810D02*
X48997676Y79118572D01*
X48997676Y79118572D02*
X49092914Y79023334D01*
X49092914Y79023334D02*
X49140533Y78928096D01*
X49283390Y80070953D02*
X49235771Y79975715D01*
X49235771Y79975715D02*
X49188152Y79928096D01*
X49188152Y79928096D02*
X49092914Y79880477D01*
X49092914Y79880477D02*
X49045295Y79880477D01*
X49045295Y79880477D02*
X48950057Y79928096D01*
X48950057Y79928096D02*
X48902438Y79975715D01*
X48902438Y79975715D02*
X48854819Y80070953D01*
X48854819Y80070953D02*
X48854819Y80261429D01*
X48854819Y80261429D02*
X48902438Y80356667D01*
X48902438Y80356667D02*
X48950057Y80404286D01*
X48950057Y80404286D02*
X49045295Y80451905D01*
X49045295Y80451905D02*
X49092914Y80451905D01*
X49092914Y80451905D02*
X49188152Y80404286D01*
X49188152Y80404286D02*
X49235771Y80356667D01*
X49235771Y80356667D02*
X49283390Y80261429D01*
X49283390Y80261429D02*
X49283390Y80070953D01*
X49283390Y80070953D02*
X49331009Y79975715D01*
X49331009Y79975715D02*
X49378628Y79928096D01*
X49378628Y79928096D02*
X49473866Y79880477D01*
X49473866Y79880477D02*
X49664342Y79880477D01*
X49664342Y79880477D02*
X49759580Y79928096D01*
X49759580Y79928096D02*
X49807200Y79975715D01*
X49807200Y79975715D02*
X49854819Y80070953D01*
X49854819Y80070953D02*
X49854819Y80261429D01*
X49854819Y80261429D02*
X49807200Y80356667D01*
X49807200Y80356667D02*
X49759580Y80404286D01*
X49759580Y80404286D02*
X49664342Y80451905D01*
X49664342Y80451905D02*
X49473866Y80451905D01*
X49473866Y80451905D02*
X49378628Y80404286D01*
X49378628Y80404286D02*
X49331009Y80356667D01*
X49331009Y80356667D02*
X49283390Y80261429D01*
X29854819Y86447143D02*
X29378628Y86113810D01*
X29854819Y85875715D02*
X28854819Y85875715D01*
X28854819Y85875715D02*
X28854819Y86256667D01*
X28854819Y86256667D02*
X28902438Y86351905D01*
X28902438Y86351905D02*
X28950057Y86399524D01*
X28950057Y86399524D02*
X29045295Y86447143D01*
X29045295Y86447143D02*
X29188152Y86447143D01*
X29188152Y86447143D02*
X29283390Y86399524D01*
X29283390Y86399524D02*
X29331009Y86351905D01*
X29331009Y86351905D02*
X29378628Y86256667D01*
X29378628Y86256667D02*
X29378628Y85875715D01*
X28950057Y86828096D02*
X28902438Y86875715D01*
X28902438Y86875715D02*
X28854819Y86970953D01*
X28854819Y86970953D02*
X28854819Y87209048D01*
X28854819Y87209048D02*
X28902438Y87304286D01*
X28902438Y87304286D02*
X28950057Y87351905D01*
X28950057Y87351905D02*
X29045295Y87399524D01*
X29045295Y87399524D02*
X29140533Y87399524D01*
X29140533Y87399524D02*
X29283390Y87351905D01*
X29283390Y87351905D02*
X29854819Y86780477D01*
X29854819Y86780477D02*
X29854819Y87399524D01*
X28854819Y88256667D02*
X28854819Y88066191D01*
X28854819Y88066191D02*
X28902438Y87970953D01*
X28902438Y87970953D02*
X28950057Y87923334D01*
X28950057Y87923334D02*
X29092914Y87828096D01*
X29092914Y87828096D02*
X29283390Y87780477D01*
X29283390Y87780477D02*
X29664342Y87780477D01*
X29664342Y87780477D02*
X29759580Y87828096D01*
X29759580Y87828096D02*
X29807200Y87875715D01*
X29807200Y87875715D02*
X29854819Y87970953D01*
X29854819Y87970953D02*
X29854819Y88161429D01*
X29854819Y88161429D02*
X29807200Y88256667D01*
X29807200Y88256667D02*
X29759580Y88304286D01*
X29759580Y88304286D02*
X29664342Y88351905D01*
X29664342Y88351905D02*
X29426247Y88351905D01*
X29426247Y88351905D02*
X29331009Y88304286D01*
X29331009Y88304286D02*
X29283390Y88256667D01*
X29283390Y88256667D02*
X29235771Y88161429D01*
X29235771Y88161429D02*
X29235771Y87970953D01*
X29235771Y87970953D02*
X29283390Y87875715D01*
X29283390Y87875715D02*
X29331009Y87828096D01*
X29331009Y87828096D02*
X29426247Y87780477D01*
X33493333Y62905181D02*
X33160000Y63381372D01*
X32921905Y62905181D02*
X32921905Y63905181D01*
X32921905Y63905181D02*
X33302857Y63905181D01*
X33302857Y63905181D02*
X33398095Y63857562D01*
X33398095Y63857562D02*
X33445714Y63809943D01*
X33445714Y63809943D02*
X33493333Y63714705D01*
X33493333Y63714705D02*
X33493333Y63571848D01*
X33493333Y63571848D02*
X33445714Y63476610D01*
X33445714Y63476610D02*
X33398095Y63428991D01*
X33398095Y63428991D02*
X33302857Y63381372D01*
X33302857Y63381372D02*
X32921905Y63381372D01*
X33874286Y63809943D02*
X33921905Y63857562D01*
X33921905Y63857562D02*
X34017143Y63905181D01*
X34017143Y63905181D02*
X34255238Y63905181D01*
X34255238Y63905181D02*
X34350476Y63857562D01*
X34350476Y63857562D02*
X34398095Y63809943D01*
X34398095Y63809943D02*
X34445714Y63714705D01*
X34445714Y63714705D02*
X34445714Y63619467D01*
X34445714Y63619467D02*
X34398095Y63476610D01*
X34398095Y63476610D02*
X33826667Y62905181D01*
X33826667Y62905181D02*
X34445714Y62905181D01*
X47674019Y54022743D02*
X47197828Y53689410D01*
X47674019Y53451315D02*
X46674019Y53451315D01*
X46674019Y53451315D02*
X46674019Y53832267D01*
X46674019Y53832267D02*
X46721638Y53927505D01*
X46721638Y53927505D02*
X46769257Y53975124D01*
X46769257Y53975124D02*
X46864495Y54022743D01*
X46864495Y54022743D02*
X47007352Y54022743D01*
X47007352Y54022743D02*
X47102590Y53975124D01*
X47102590Y53975124D02*
X47150209Y53927505D01*
X47150209Y53927505D02*
X47197828Y53832267D01*
X47197828Y53832267D02*
X47197828Y53451315D01*
X47674019Y54975124D02*
X47674019Y54403696D01*
X47674019Y54689410D02*
X46674019Y54689410D01*
X46674019Y54689410D02*
X46816876Y54594172D01*
X46816876Y54594172D02*
X46912114Y54498934D01*
X46912114Y54498934D02*
X46959733Y54403696D01*
X47674019Y55927505D02*
X47674019Y55356077D01*
X47674019Y55641791D02*
X46674019Y55641791D01*
X46674019Y55641791D02*
X46816876Y55546553D01*
X46816876Y55546553D02*
X46912114Y55451315D01*
X46912114Y55451315D02*
X46959733Y55356077D01*
X34117142Y85100420D02*
X34069523Y85052800D01*
X34069523Y85052800D02*
X33926666Y85005181D01*
X33926666Y85005181D02*
X33831428Y85005181D01*
X33831428Y85005181D02*
X33688571Y85052800D01*
X33688571Y85052800D02*
X33593333Y85148039D01*
X33593333Y85148039D02*
X33545714Y85243277D01*
X33545714Y85243277D02*
X33498095Y85433753D01*
X33498095Y85433753D02*
X33498095Y85576610D01*
X33498095Y85576610D02*
X33545714Y85767086D01*
X33545714Y85767086D02*
X33593333Y85862324D01*
X33593333Y85862324D02*
X33688571Y85957562D01*
X33688571Y85957562D02*
X33831428Y86005181D01*
X33831428Y86005181D02*
X33926666Y86005181D01*
X33926666Y86005181D02*
X34069523Y85957562D01*
X34069523Y85957562D02*
X34117142Y85909943D01*
X35069523Y85005181D02*
X34498095Y85005181D01*
X34783809Y85005181D02*
X34783809Y86005181D01*
X34783809Y86005181D02*
X34688571Y85862324D01*
X34688571Y85862324D02*
X34593333Y85767086D01*
X34593333Y85767086D02*
X34498095Y85719467D01*
X35926666Y86005181D02*
X35736190Y86005181D01*
X35736190Y86005181D02*
X35640952Y85957562D01*
X35640952Y85957562D02*
X35593333Y85909943D01*
X35593333Y85909943D02*
X35498095Y85767086D01*
X35498095Y85767086D02*
X35450476Y85576610D01*
X35450476Y85576610D02*
X35450476Y85195658D01*
X35450476Y85195658D02*
X35498095Y85100420D01*
X35498095Y85100420D02*
X35545714Y85052800D01*
X35545714Y85052800D02*
X35640952Y85005181D01*
X35640952Y85005181D02*
X35831428Y85005181D01*
X35831428Y85005181D02*
X35926666Y85052800D01*
X35926666Y85052800D02*
X35974285Y85100420D01*
X35974285Y85100420D02*
X36021904Y85195658D01*
X36021904Y85195658D02*
X36021904Y85433753D01*
X36021904Y85433753D02*
X35974285Y85528991D01*
X35974285Y85528991D02*
X35926666Y85576610D01*
X35926666Y85576610D02*
X35831428Y85624229D01*
X35831428Y85624229D02*
X35640952Y85624229D01*
X35640952Y85624229D02*
X35545714Y85576610D01*
X35545714Y85576610D02*
X35498095Y85528991D01*
X35498095Y85528991D02*
X35450476Y85433753D01*
X44833333Y42860181D02*
X44500000Y43336372D01*
X44261905Y42860181D02*
X44261905Y43860181D01*
X44261905Y43860181D02*
X44642857Y43860181D01*
X44642857Y43860181D02*
X44738095Y43812562D01*
X44738095Y43812562D02*
X44785714Y43764943D01*
X44785714Y43764943D02*
X44833333Y43669705D01*
X44833333Y43669705D02*
X44833333Y43526848D01*
X44833333Y43526848D02*
X44785714Y43431610D01*
X44785714Y43431610D02*
X44738095Y43383991D01*
X44738095Y43383991D02*
X44642857Y43336372D01*
X44642857Y43336372D02*
X44261905Y43336372D01*
X45166667Y43860181D02*
X45833333Y43860181D01*
X45833333Y43860181D02*
X45404762Y42860181D01*
X38554642Y105122681D02*
X38221309Y105598872D01*
X37983214Y105122681D02*
X37983214Y106122681D01*
X37983214Y106122681D02*
X38364166Y106122681D01*
X38364166Y106122681D02*
X38459404Y106075062D01*
X38459404Y106075062D02*
X38507023Y106027443D01*
X38507023Y106027443D02*
X38554642Y105932205D01*
X38554642Y105932205D02*
X38554642Y105789348D01*
X38554642Y105789348D02*
X38507023Y105694110D01*
X38507023Y105694110D02*
X38459404Y105646491D01*
X38459404Y105646491D02*
X38364166Y105598872D01*
X38364166Y105598872D02*
X37983214Y105598872D01*
X38935595Y106027443D02*
X38983214Y106075062D01*
X38983214Y106075062D02*
X39078452Y106122681D01*
X39078452Y106122681D02*
X39316547Y106122681D01*
X39316547Y106122681D02*
X39411785Y106075062D01*
X39411785Y106075062D02*
X39459404Y106027443D01*
X39459404Y106027443D02*
X39507023Y105932205D01*
X39507023Y105932205D02*
X39507023Y105836967D01*
X39507023Y105836967D02*
X39459404Y105694110D01*
X39459404Y105694110D02*
X38887976Y105122681D01*
X38887976Y105122681D02*
X39507023Y105122681D01*
X40411785Y106122681D02*
X39935595Y106122681D01*
X39935595Y106122681D02*
X39887976Y105646491D01*
X39887976Y105646491D02*
X39935595Y105694110D01*
X39935595Y105694110D02*
X40030833Y105741729D01*
X40030833Y105741729D02*
X40268928Y105741729D01*
X40268928Y105741729D02*
X40364166Y105694110D01*
X40364166Y105694110D02*
X40411785Y105646491D01*
X40411785Y105646491D02*
X40459404Y105551253D01*
X40459404Y105551253D02*
X40459404Y105313158D01*
X40459404Y105313158D02*
X40411785Y105217920D01*
X40411785Y105217920D02*
X40364166Y105170300D01*
X40364166Y105170300D02*
X40268928Y105122681D01*
X40268928Y105122681D02*
X40030833Y105122681D01*
X40030833Y105122681D02*
X39935595Y105170300D01*
X39935595Y105170300D02*
X39887976Y105217920D01*
X68054819Y70747143D02*
X67578628Y70413810D01*
X68054819Y70175715D02*
X67054819Y70175715D01*
X67054819Y70175715D02*
X67054819Y70556667D01*
X67054819Y70556667D02*
X67102438Y70651905D01*
X67102438Y70651905D02*
X67150057Y70699524D01*
X67150057Y70699524D02*
X67245295Y70747143D01*
X67245295Y70747143D02*
X67388152Y70747143D01*
X67388152Y70747143D02*
X67483390Y70699524D01*
X67483390Y70699524D02*
X67531009Y70651905D01*
X67531009Y70651905D02*
X67578628Y70556667D01*
X67578628Y70556667D02*
X67578628Y70175715D01*
X67150057Y71128096D02*
X67102438Y71175715D01*
X67102438Y71175715D02*
X67054819Y71270953D01*
X67054819Y71270953D02*
X67054819Y71509048D01*
X67054819Y71509048D02*
X67102438Y71604286D01*
X67102438Y71604286D02*
X67150057Y71651905D01*
X67150057Y71651905D02*
X67245295Y71699524D01*
X67245295Y71699524D02*
X67340533Y71699524D01*
X67340533Y71699524D02*
X67483390Y71651905D01*
X67483390Y71651905D02*
X68054819Y71080477D01*
X68054819Y71080477D02*
X68054819Y71699524D01*
X67483390Y72270953D02*
X67435771Y72175715D01*
X67435771Y72175715D02*
X67388152Y72128096D01*
X67388152Y72128096D02*
X67292914Y72080477D01*
X67292914Y72080477D02*
X67245295Y72080477D01*
X67245295Y72080477D02*
X67150057Y72128096D01*
X67150057Y72128096D02*
X67102438Y72175715D01*
X67102438Y72175715D02*
X67054819Y72270953D01*
X67054819Y72270953D02*
X67054819Y72461429D01*
X67054819Y72461429D02*
X67102438Y72556667D01*
X67102438Y72556667D02*
X67150057Y72604286D01*
X67150057Y72604286D02*
X67245295Y72651905D01*
X67245295Y72651905D02*
X67292914Y72651905D01*
X67292914Y72651905D02*
X67388152Y72604286D01*
X67388152Y72604286D02*
X67435771Y72556667D01*
X67435771Y72556667D02*
X67483390Y72461429D01*
X67483390Y72461429D02*
X67483390Y72270953D01*
X67483390Y72270953D02*
X67531009Y72175715D01*
X67531009Y72175715D02*
X67578628Y72128096D01*
X67578628Y72128096D02*
X67673866Y72080477D01*
X67673866Y72080477D02*
X67864342Y72080477D01*
X67864342Y72080477D02*
X67959580Y72128096D01*
X67959580Y72128096D02*
X68007200Y72175715D01*
X68007200Y72175715D02*
X68054819Y72270953D01*
X68054819Y72270953D02*
X68054819Y72461429D01*
X68054819Y72461429D02*
X68007200Y72556667D01*
X68007200Y72556667D02*
X67959580Y72604286D01*
X67959580Y72604286D02*
X67864342Y72651905D01*
X67864342Y72651905D02*
X67673866Y72651905D01*
X67673866Y72651905D02*
X67578628Y72604286D01*
X67578628Y72604286D02*
X67531009Y72556667D01*
X67531009Y72556667D02*
X67483390Y72461429D01*
X47987142Y41355181D02*
X47653809Y41831372D01*
X47415714Y41355181D02*
X47415714Y42355181D01*
X47415714Y42355181D02*
X47796666Y42355181D01*
X47796666Y42355181D02*
X47891904Y42307562D01*
X47891904Y42307562D02*
X47939523Y42259943D01*
X47939523Y42259943D02*
X47987142Y42164705D01*
X47987142Y42164705D02*
X47987142Y42021848D01*
X47987142Y42021848D02*
X47939523Y41926610D01*
X47939523Y41926610D02*
X47891904Y41878991D01*
X47891904Y41878991D02*
X47796666Y41831372D01*
X47796666Y41831372D02*
X47415714Y41831372D01*
X48939523Y41355181D02*
X48368095Y41355181D01*
X48653809Y41355181D02*
X48653809Y42355181D01*
X48653809Y42355181D02*
X48558571Y42212324D01*
X48558571Y42212324D02*
X48463333Y42117086D01*
X48463333Y42117086D02*
X48368095Y42069467D01*
X49796666Y42021848D02*
X49796666Y41355181D01*
X49558571Y42402800D02*
X49320476Y41688515D01*
X49320476Y41688515D02*
X49939523Y41688515D01*
X31964819Y88601906D02*
X30964819Y88601906D01*
X30964819Y88601906D02*
X30964819Y88840001D01*
X30964819Y88840001D02*
X31012438Y88982858D01*
X31012438Y88982858D02*
X31107676Y89078096D01*
X31107676Y89078096D02*
X31202914Y89125715D01*
X31202914Y89125715D02*
X31393390Y89173334D01*
X31393390Y89173334D02*
X31536247Y89173334D01*
X31536247Y89173334D02*
X31726723Y89125715D01*
X31726723Y89125715D02*
X31821961Y89078096D01*
X31821961Y89078096D02*
X31917200Y88982858D01*
X31917200Y88982858D02*
X31964819Y88840001D01*
X31964819Y88840001D02*
X31964819Y88601906D01*
X31964819Y89649525D02*
X31964819Y89840001D01*
X31964819Y89840001D02*
X31917200Y89935239D01*
X31917200Y89935239D02*
X31869580Y89982858D01*
X31869580Y89982858D02*
X31726723Y90078096D01*
X31726723Y90078096D02*
X31536247Y90125715D01*
X31536247Y90125715D02*
X31155295Y90125715D01*
X31155295Y90125715D02*
X31060057Y90078096D01*
X31060057Y90078096D02*
X31012438Y90030477D01*
X31012438Y90030477D02*
X30964819Y89935239D01*
X30964819Y89935239D02*
X30964819Y89744763D01*
X30964819Y89744763D02*
X31012438Y89649525D01*
X31012438Y89649525D02*
X31060057Y89601906D01*
X31060057Y89601906D02*
X31155295Y89554287D01*
X31155295Y89554287D02*
X31393390Y89554287D01*
X31393390Y89554287D02*
X31488628Y89601906D01*
X31488628Y89601906D02*
X31536247Y89649525D01*
X31536247Y89649525D02*
X31583866Y89744763D01*
X31583866Y89744763D02*
X31583866Y89935239D01*
X31583866Y89935239D02*
X31536247Y90030477D01*
X31536247Y90030477D02*
X31488628Y90078096D01*
X31488628Y90078096D02*
X31393390Y90125715D01*
X36203333Y59710420D02*
X36155714Y59662800D01*
X36155714Y59662800D02*
X36012857Y59615181D01*
X36012857Y59615181D02*
X35917619Y59615181D01*
X35917619Y59615181D02*
X35774762Y59662800D01*
X35774762Y59662800D02*
X35679524Y59758039D01*
X35679524Y59758039D02*
X35631905Y59853277D01*
X35631905Y59853277D02*
X35584286Y60043753D01*
X35584286Y60043753D02*
X35584286Y60186610D01*
X35584286Y60186610D02*
X35631905Y60377086D01*
X35631905Y60377086D02*
X35679524Y60472324D01*
X35679524Y60472324D02*
X35774762Y60567562D01*
X35774762Y60567562D02*
X35917619Y60615181D01*
X35917619Y60615181D02*
X36012857Y60615181D01*
X36012857Y60615181D02*
X36155714Y60567562D01*
X36155714Y60567562D02*
X36203333Y60519943D01*
X37060476Y60281848D02*
X37060476Y59615181D01*
X36822381Y60662800D02*
X36584286Y59948515D01*
X36584286Y59948515D02*
X37203333Y59948515D01*
X66671295Y48791781D02*
X66671295Y47982258D01*
X66671295Y47982258D02*
X66718914Y47887020D01*
X66718914Y47887020D02*
X66766533Y47839400D01*
X66766533Y47839400D02*
X66861771Y47791781D01*
X66861771Y47791781D02*
X67052247Y47791781D01*
X67052247Y47791781D02*
X67147485Y47839400D01*
X67147485Y47839400D02*
X67195104Y47887020D01*
X67195104Y47887020D02*
X67242723Y47982258D01*
X67242723Y47982258D02*
X67242723Y48791781D01*
X68242723Y47791781D02*
X67671295Y47791781D01*
X67957009Y47791781D02*
X67957009Y48791781D01*
X67957009Y48791781D02*
X67861771Y48648924D01*
X67861771Y48648924D02*
X67766533Y48553686D01*
X67766533Y48553686D02*
X67671295Y48506067D01*
X63561905Y93435181D02*
X63561905Y94435181D01*
X63561905Y94435181D02*
X63800000Y94435181D01*
X63800000Y94435181D02*
X63942857Y94387562D01*
X63942857Y94387562D02*
X64038095Y94292324D01*
X64038095Y94292324D02*
X64085714Y94197086D01*
X64085714Y94197086D02*
X64133333Y94006610D01*
X64133333Y94006610D02*
X64133333Y93863753D01*
X64133333Y93863753D02*
X64085714Y93673277D01*
X64085714Y93673277D02*
X64038095Y93578039D01*
X64038095Y93578039D02*
X63942857Y93482800D01*
X63942857Y93482800D02*
X63800000Y93435181D01*
X63800000Y93435181D02*
X63561905Y93435181D01*
X64990476Y94101848D02*
X64990476Y93435181D01*
X64752381Y94482800D02*
X64514286Y93768515D01*
X64514286Y93768515D02*
X65133333Y93768515D01*
X34579761Y37314943D02*
X34484523Y37362562D01*
X34484523Y37362562D02*
X34389285Y37457800D01*
X34389285Y37457800D02*
X34246428Y37600658D01*
X34246428Y37600658D02*
X34151190Y37648277D01*
X34151190Y37648277D02*
X34055952Y37648277D01*
X34103571Y37410181D02*
X34008333Y37457800D01*
X34008333Y37457800D02*
X33913095Y37553039D01*
X33913095Y37553039D02*
X33865476Y37743515D01*
X33865476Y37743515D02*
X33865476Y38076848D01*
X33865476Y38076848D02*
X33913095Y38267324D01*
X33913095Y38267324D02*
X34008333Y38362562D01*
X34008333Y38362562D02*
X34103571Y38410181D01*
X34103571Y38410181D02*
X34294047Y38410181D01*
X34294047Y38410181D02*
X34389285Y38362562D01*
X34389285Y38362562D02*
X34484523Y38267324D01*
X34484523Y38267324D02*
X34532142Y38076848D01*
X34532142Y38076848D02*
X34532142Y37743515D01*
X34532142Y37743515D02*
X34484523Y37553039D01*
X34484523Y37553039D02*
X34389285Y37457800D01*
X34389285Y37457800D02*
X34294047Y37410181D01*
X34294047Y37410181D02*
X34103571Y37410181D01*
X35484523Y37410181D02*
X34913095Y37410181D01*
X35198809Y37410181D02*
X35198809Y38410181D01*
X35198809Y38410181D02*
X35103571Y38267324D01*
X35103571Y38267324D02*
X35008333Y38172086D01*
X35008333Y38172086D02*
X34913095Y38124467D01*
X63945067Y18485000D02*
X64087924Y18437381D01*
X64087924Y18437381D02*
X64326019Y18437381D01*
X64326019Y18437381D02*
X64421257Y18485000D01*
X64421257Y18485000D02*
X64468876Y18532620D01*
X64468876Y18532620D02*
X64516495Y18627858D01*
X64516495Y18627858D02*
X64516495Y18723096D01*
X64516495Y18723096D02*
X64468876Y18818334D01*
X64468876Y18818334D02*
X64421257Y18865953D01*
X64421257Y18865953D02*
X64326019Y18913572D01*
X64326019Y18913572D02*
X64135543Y18961191D01*
X64135543Y18961191D02*
X64040305Y19008810D01*
X64040305Y19008810D02*
X63992686Y19056429D01*
X63992686Y19056429D02*
X63945067Y19151667D01*
X63945067Y19151667D02*
X63945067Y19246905D01*
X63945067Y19246905D02*
X63992686Y19342143D01*
X63992686Y19342143D02*
X64040305Y19389762D01*
X64040305Y19389762D02*
X64135543Y19437381D01*
X64135543Y19437381D02*
X64373638Y19437381D01*
X64373638Y19437381D02*
X64516495Y19389762D01*
X64849829Y19437381D02*
X65087924Y18437381D01*
X65087924Y18437381D02*
X65278400Y19151667D01*
X65278400Y19151667D02*
X65468876Y18437381D01*
X65468876Y18437381D02*
X65706972Y19437381D01*
X66611733Y18437381D02*
X66040305Y18437381D01*
X66326019Y18437381D02*
X66326019Y19437381D01*
X66326019Y19437381D02*
X66230781Y19294524D01*
X66230781Y19294524D02*
X66135543Y19199286D01*
X66135543Y19199286D02*
X66040305Y19151667D01*
X32904819Y37022143D02*
X32428628Y36688810D01*
X32904819Y36450715D02*
X31904819Y36450715D01*
X31904819Y36450715D02*
X31904819Y36831667D01*
X31904819Y36831667D02*
X31952438Y36926905D01*
X31952438Y36926905D02*
X32000057Y36974524D01*
X32000057Y36974524D02*
X32095295Y37022143D01*
X32095295Y37022143D02*
X32238152Y37022143D01*
X32238152Y37022143D02*
X32333390Y36974524D01*
X32333390Y36974524D02*
X32381009Y36926905D01*
X32381009Y36926905D02*
X32428628Y36831667D01*
X32428628Y36831667D02*
X32428628Y36450715D01*
X32904819Y37974524D02*
X32904819Y37403096D01*
X32904819Y37688810D02*
X31904819Y37688810D01*
X31904819Y37688810D02*
X32047676Y37593572D01*
X32047676Y37593572D02*
X32142914Y37498334D01*
X32142914Y37498334D02*
X32190533Y37403096D01*
X32333390Y38545953D02*
X32285771Y38450715D01*
X32285771Y38450715D02*
X32238152Y38403096D01*
X32238152Y38403096D02*
X32142914Y38355477D01*
X32142914Y38355477D02*
X32095295Y38355477D01*
X32095295Y38355477D02*
X32000057Y38403096D01*
X32000057Y38403096D02*
X31952438Y38450715D01*
X31952438Y38450715D02*
X31904819Y38545953D01*
X31904819Y38545953D02*
X31904819Y38736429D01*
X31904819Y38736429D02*
X31952438Y38831667D01*
X31952438Y38831667D02*
X32000057Y38879286D01*
X32000057Y38879286D02*
X32095295Y38926905D01*
X32095295Y38926905D02*
X32142914Y38926905D01*
X32142914Y38926905D02*
X32238152Y38879286D01*
X32238152Y38879286D02*
X32285771Y38831667D01*
X32285771Y38831667D02*
X32333390Y38736429D01*
X32333390Y38736429D02*
X32333390Y38545953D01*
X32333390Y38545953D02*
X32381009Y38450715D01*
X32381009Y38450715D02*
X32428628Y38403096D01*
X32428628Y38403096D02*
X32523866Y38355477D01*
X32523866Y38355477D02*
X32714342Y38355477D01*
X32714342Y38355477D02*
X32809580Y38403096D01*
X32809580Y38403096D02*
X32857200Y38450715D01*
X32857200Y38450715D02*
X32904819Y38545953D01*
X32904819Y38545953D02*
X32904819Y38736429D01*
X32904819Y38736429D02*
X32857200Y38831667D01*
X32857200Y38831667D02*
X32809580Y38879286D01*
X32809580Y38879286D02*
X32714342Y38926905D01*
X32714342Y38926905D02*
X32523866Y38926905D01*
X32523866Y38926905D02*
X32428628Y38879286D01*
X32428628Y38879286D02*
X32381009Y38831667D01*
X32381009Y38831667D02*
X32333390Y38736429D01*
X37289580Y91197143D02*
X37337200Y91149524D01*
X37337200Y91149524D02*
X37384819Y91006667D01*
X37384819Y91006667D02*
X37384819Y90911429D01*
X37384819Y90911429D02*
X37337200Y90768572D01*
X37337200Y90768572D02*
X37241961Y90673334D01*
X37241961Y90673334D02*
X37146723Y90625715D01*
X37146723Y90625715D02*
X36956247Y90578096D01*
X36956247Y90578096D02*
X36813390Y90578096D01*
X36813390Y90578096D02*
X36622914Y90625715D01*
X36622914Y90625715D02*
X36527676Y90673334D01*
X36527676Y90673334D02*
X36432438Y90768572D01*
X36432438Y90768572D02*
X36384819Y90911429D01*
X36384819Y90911429D02*
X36384819Y91006667D01*
X36384819Y91006667D02*
X36432438Y91149524D01*
X36432438Y91149524D02*
X36480057Y91197143D01*
X37384819Y92149524D02*
X37384819Y91578096D01*
X37384819Y91863810D02*
X36384819Y91863810D01*
X36384819Y91863810D02*
X36527676Y91768572D01*
X36527676Y91768572D02*
X36622914Y91673334D01*
X36622914Y91673334D02*
X36670533Y91578096D01*
X36384819Y93054286D02*
X36384819Y92578096D01*
X36384819Y92578096D02*
X36861009Y92530477D01*
X36861009Y92530477D02*
X36813390Y92578096D01*
X36813390Y92578096D02*
X36765771Y92673334D01*
X36765771Y92673334D02*
X36765771Y92911429D01*
X36765771Y92911429D02*
X36813390Y93006667D01*
X36813390Y93006667D02*
X36861009Y93054286D01*
X36861009Y93054286D02*
X36956247Y93101905D01*
X36956247Y93101905D02*
X37194342Y93101905D01*
X37194342Y93101905D02*
X37289580Y93054286D01*
X37289580Y93054286D02*
X37337200Y93006667D01*
X37337200Y93006667D02*
X37384819Y92911429D01*
X37384819Y92911429D02*
X37384819Y92673334D01*
X37384819Y92673334D02*
X37337200Y92578096D01*
X37337200Y92578096D02*
X37289580Y92530477D01*
X42167142Y105237681D02*
X41833809Y105713872D01*
X41595714Y105237681D02*
X41595714Y106237681D01*
X41595714Y106237681D02*
X41976666Y106237681D01*
X41976666Y106237681D02*
X42071904Y106190062D01*
X42071904Y106190062D02*
X42119523Y106142443D01*
X42119523Y106142443D02*
X42167142Y106047205D01*
X42167142Y106047205D02*
X42167142Y105904348D01*
X42167142Y105904348D02*
X42119523Y105809110D01*
X42119523Y105809110D02*
X42071904Y105761491D01*
X42071904Y105761491D02*
X41976666Y105713872D01*
X41976666Y105713872D02*
X41595714Y105713872D01*
X42548095Y106142443D02*
X42595714Y106190062D01*
X42595714Y106190062D02*
X42690952Y106237681D01*
X42690952Y106237681D02*
X42929047Y106237681D01*
X42929047Y106237681D02*
X43024285Y106190062D01*
X43024285Y106190062D02*
X43071904Y106142443D01*
X43071904Y106142443D02*
X43119523Y106047205D01*
X43119523Y106047205D02*
X43119523Y105951967D01*
X43119523Y105951967D02*
X43071904Y105809110D01*
X43071904Y105809110D02*
X42500476Y105237681D01*
X42500476Y105237681D02*
X43119523Y105237681D01*
X43500476Y106142443D02*
X43548095Y106190062D01*
X43548095Y106190062D02*
X43643333Y106237681D01*
X43643333Y106237681D02*
X43881428Y106237681D01*
X43881428Y106237681D02*
X43976666Y106190062D01*
X43976666Y106190062D02*
X44024285Y106142443D01*
X44024285Y106142443D02*
X44071904Y106047205D01*
X44071904Y106047205D02*
X44071904Y105951967D01*
X44071904Y105951967D02*
X44024285Y105809110D01*
X44024285Y105809110D02*
X43452857Y105237681D01*
X43452857Y105237681D02*
X44071904Y105237681D01*
X63185542Y28563181D02*
X62852209Y29039372D01*
X62614114Y28563181D02*
X62614114Y29563181D01*
X62614114Y29563181D02*
X62995066Y29563181D01*
X62995066Y29563181D02*
X63090304Y29515562D01*
X63090304Y29515562D02*
X63137923Y29467943D01*
X63137923Y29467943D02*
X63185542Y29372705D01*
X63185542Y29372705D02*
X63185542Y29229848D01*
X63185542Y29229848D02*
X63137923Y29134610D01*
X63137923Y29134610D02*
X63090304Y29086991D01*
X63090304Y29086991D02*
X62995066Y29039372D01*
X62995066Y29039372D02*
X62614114Y29039372D01*
X64137923Y28563181D02*
X63566495Y28563181D01*
X63852209Y28563181D02*
X63852209Y29563181D01*
X63852209Y29563181D02*
X63756971Y29420324D01*
X63756971Y29420324D02*
X63661733Y29325086D01*
X63661733Y29325086D02*
X63566495Y29277467D01*
X64756971Y29563181D02*
X64852209Y29563181D01*
X64852209Y29563181D02*
X64947447Y29515562D01*
X64947447Y29515562D02*
X64995066Y29467943D01*
X64995066Y29467943D02*
X65042685Y29372705D01*
X65042685Y29372705D02*
X65090304Y29182229D01*
X65090304Y29182229D02*
X65090304Y28944134D01*
X65090304Y28944134D02*
X65042685Y28753658D01*
X65042685Y28753658D02*
X64995066Y28658420D01*
X64995066Y28658420D02*
X64947447Y28610800D01*
X64947447Y28610800D02*
X64852209Y28563181D01*
X64852209Y28563181D02*
X64756971Y28563181D01*
X64756971Y28563181D02*
X64661733Y28610800D01*
X64661733Y28610800D02*
X64614114Y28658420D01*
X64614114Y28658420D02*
X64566495Y28753658D01*
X64566495Y28753658D02*
X64518876Y28944134D01*
X64518876Y28944134D02*
X64518876Y29182229D01*
X64518876Y29182229D02*
X64566495Y29372705D01*
X64566495Y29372705D02*
X64614114Y29467943D01*
X64614114Y29467943D02*
X64661733Y29515562D01*
X64661733Y29515562D02*
X64756971Y29563181D01*
X69754580Y32585334D02*
X69802200Y32537715D01*
X69802200Y32537715D02*
X69849819Y32394858D01*
X69849819Y32394858D02*
X69849819Y32299620D01*
X69849819Y32299620D02*
X69802200Y32156763D01*
X69802200Y32156763D02*
X69706961Y32061525D01*
X69706961Y32061525D02*
X69611723Y32013906D01*
X69611723Y32013906D02*
X69421247Y31966287D01*
X69421247Y31966287D02*
X69278390Y31966287D01*
X69278390Y31966287D02*
X69087914Y32013906D01*
X69087914Y32013906D02*
X68992676Y32061525D01*
X68992676Y32061525D02*
X68897438Y32156763D01*
X68897438Y32156763D02*
X68849819Y32299620D01*
X68849819Y32299620D02*
X68849819Y32394858D01*
X68849819Y32394858D02*
X68897438Y32537715D01*
X68897438Y32537715D02*
X68945057Y32585334D01*
X69849819Y33061525D02*
X69849819Y33252001D01*
X69849819Y33252001D02*
X69802200Y33347239D01*
X69802200Y33347239D02*
X69754580Y33394858D01*
X69754580Y33394858D02*
X69611723Y33490096D01*
X69611723Y33490096D02*
X69421247Y33537715D01*
X69421247Y33537715D02*
X69040295Y33537715D01*
X69040295Y33537715D02*
X68945057Y33490096D01*
X68945057Y33490096D02*
X68897438Y33442477D01*
X68897438Y33442477D02*
X68849819Y33347239D01*
X68849819Y33347239D02*
X68849819Y33156763D01*
X68849819Y33156763D02*
X68897438Y33061525D01*
X68897438Y33061525D02*
X68945057Y33013906D01*
X68945057Y33013906D02*
X69040295Y32966287D01*
X69040295Y32966287D02*
X69278390Y32966287D01*
X69278390Y32966287D02*
X69373628Y33013906D01*
X69373628Y33013906D02*
X69421247Y33061525D01*
X69421247Y33061525D02*
X69468866Y33156763D01*
X69468866Y33156763D02*
X69468866Y33347239D01*
X69468866Y33347239D02*
X69421247Y33442477D01*
X69421247Y33442477D02*
X69373628Y33490096D01*
X69373628Y33490096D02*
X69278390Y33537715D01*
X37714819Y100721906D02*
X36714819Y100721906D01*
X36714819Y100721906D02*
X36714819Y100960001D01*
X36714819Y100960001D02*
X36762438Y101102858D01*
X36762438Y101102858D02*
X36857676Y101198096D01*
X36857676Y101198096D02*
X36952914Y101245715D01*
X36952914Y101245715D02*
X37143390Y101293334D01*
X37143390Y101293334D02*
X37286247Y101293334D01*
X37286247Y101293334D02*
X37476723Y101245715D01*
X37476723Y101245715D02*
X37571961Y101198096D01*
X37571961Y101198096D02*
X37667200Y101102858D01*
X37667200Y101102858D02*
X37714819Y100960001D01*
X37714819Y100960001D02*
X37714819Y100721906D01*
X36714819Y101626668D02*
X36714819Y102293334D01*
X36714819Y102293334D02*
X37714819Y101864763D01*
X70946780Y32585334D02*
X70994400Y32537715D01*
X70994400Y32537715D02*
X71042019Y32394858D01*
X71042019Y32394858D02*
X71042019Y32299620D01*
X71042019Y32299620D02*
X70994400Y32156763D01*
X70994400Y32156763D02*
X70899161Y32061525D01*
X70899161Y32061525D02*
X70803923Y32013906D01*
X70803923Y32013906D02*
X70613447Y31966287D01*
X70613447Y31966287D02*
X70470590Y31966287D01*
X70470590Y31966287D02*
X70280114Y32013906D01*
X70280114Y32013906D02*
X70184876Y32061525D01*
X70184876Y32061525D02*
X70089638Y32156763D01*
X70089638Y32156763D02*
X70042019Y32299620D01*
X70042019Y32299620D02*
X70042019Y32394858D01*
X70042019Y32394858D02*
X70089638Y32537715D01*
X70089638Y32537715D02*
X70137257Y32585334D01*
X70470590Y33156763D02*
X70422971Y33061525D01*
X70422971Y33061525D02*
X70375352Y33013906D01*
X70375352Y33013906D02*
X70280114Y32966287D01*
X70280114Y32966287D02*
X70232495Y32966287D01*
X70232495Y32966287D02*
X70137257Y33013906D01*
X70137257Y33013906D02*
X70089638Y33061525D01*
X70089638Y33061525D02*
X70042019Y33156763D01*
X70042019Y33156763D02*
X70042019Y33347239D01*
X70042019Y33347239D02*
X70089638Y33442477D01*
X70089638Y33442477D02*
X70137257Y33490096D01*
X70137257Y33490096D02*
X70232495Y33537715D01*
X70232495Y33537715D02*
X70280114Y33537715D01*
X70280114Y33537715D02*
X70375352Y33490096D01*
X70375352Y33490096D02*
X70422971Y33442477D01*
X70422971Y33442477D02*
X70470590Y33347239D01*
X70470590Y33347239D02*
X70470590Y33156763D01*
X70470590Y33156763D02*
X70518209Y33061525D01*
X70518209Y33061525D02*
X70565828Y33013906D01*
X70565828Y33013906D02*
X70661066Y32966287D01*
X70661066Y32966287D02*
X70851542Y32966287D01*
X70851542Y32966287D02*
X70946780Y33013906D01*
X70946780Y33013906D02*
X70994400Y33061525D01*
X70994400Y33061525D02*
X71042019Y33156763D01*
X71042019Y33156763D02*
X71042019Y33347239D01*
X71042019Y33347239D02*
X70994400Y33442477D01*
X70994400Y33442477D02*
X70946780Y33490096D01*
X70946780Y33490096D02*
X70851542Y33537715D01*
X70851542Y33537715D02*
X70661066Y33537715D01*
X70661066Y33537715D02*
X70565828Y33490096D01*
X70565828Y33490096D02*
X70518209Y33442477D01*
X70518209Y33442477D02*
X70470590Y33347239D01*
X43011905Y98585181D02*
X43011905Y99585181D01*
X43011905Y99585181D02*
X43250000Y99585181D01*
X43250000Y99585181D02*
X43392857Y99537562D01*
X43392857Y99537562D02*
X43488095Y99442324D01*
X43488095Y99442324D02*
X43535714Y99347086D01*
X43535714Y99347086D02*
X43583333Y99156610D01*
X43583333Y99156610D02*
X43583333Y99013753D01*
X43583333Y99013753D02*
X43535714Y98823277D01*
X43535714Y98823277D02*
X43488095Y98728039D01*
X43488095Y98728039D02*
X43392857Y98632800D01*
X43392857Y98632800D02*
X43250000Y98585181D01*
X43250000Y98585181D02*
X43011905Y98585181D01*
X43916667Y99585181D02*
X44535714Y99585181D01*
X44535714Y99585181D02*
X44202381Y99204229D01*
X44202381Y99204229D02*
X44345238Y99204229D01*
X44345238Y99204229D02*
X44440476Y99156610D01*
X44440476Y99156610D02*
X44488095Y99108991D01*
X44488095Y99108991D02*
X44535714Y99013753D01*
X44535714Y99013753D02*
X44535714Y98775658D01*
X44535714Y98775658D02*
X44488095Y98680420D01*
X44488095Y98680420D02*
X44440476Y98632800D01*
X44440476Y98632800D02*
X44345238Y98585181D01*
X44345238Y98585181D02*
X44059524Y98585181D01*
X44059524Y98585181D02*
X43964286Y98632800D01*
X43964286Y98632800D02*
X43916667Y98680420D01*
X65457142Y81630420D02*
X65409523Y81582800D01*
X65409523Y81582800D02*
X65266666Y81535181D01*
X65266666Y81535181D02*
X65171428Y81535181D01*
X65171428Y81535181D02*
X65028571Y81582800D01*
X65028571Y81582800D02*
X64933333Y81678039D01*
X64933333Y81678039D02*
X64885714Y81773277D01*
X64885714Y81773277D02*
X64838095Y81963753D01*
X64838095Y81963753D02*
X64838095Y82106610D01*
X64838095Y82106610D02*
X64885714Y82297086D01*
X64885714Y82297086D02*
X64933333Y82392324D01*
X64933333Y82392324D02*
X65028571Y82487562D01*
X65028571Y82487562D02*
X65171428Y82535181D01*
X65171428Y82535181D02*
X65266666Y82535181D01*
X65266666Y82535181D02*
X65409523Y82487562D01*
X65409523Y82487562D02*
X65457142Y82439943D01*
X66409523Y81535181D02*
X65838095Y81535181D01*
X66123809Y81535181D02*
X66123809Y82535181D01*
X66123809Y82535181D02*
X66028571Y82392324D01*
X66028571Y82392324D02*
X65933333Y82297086D01*
X65933333Y82297086D02*
X65838095Y82249467D01*
X66742857Y82535181D02*
X67361904Y82535181D01*
X67361904Y82535181D02*
X67028571Y82154229D01*
X67028571Y82154229D02*
X67171428Y82154229D01*
X67171428Y82154229D02*
X67266666Y82106610D01*
X67266666Y82106610D02*
X67314285Y82058991D01*
X67314285Y82058991D02*
X67361904Y81963753D01*
X67361904Y81963753D02*
X67361904Y81725658D01*
X67361904Y81725658D02*
X67314285Y81630420D01*
X67314285Y81630420D02*
X67266666Y81582800D01*
X67266666Y81582800D02*
X67171428Y81535181D01*
X67171428Y81535181D02*
X66885714Y81535181D01*
X66885714Y81535181D02*
X66790476Y81582800D01*
X66790476Y81582800D02*
X66742857Y81630420D01*
X46491666Y32085181D02*
X46491666Y31370896D01*
X46491666Y31370896D02*
X46444047Y31228039D01*
X46444047Y31228039D02*
X46348809Y31132800D01*
X46348809Y31132800D02*
X46205952Y31085181D01*
X46205952Y31085181D02*
X46110714Y31085181D01*
X47491666Y31085181D02*
X46920238Y31085181D01*
X47205952Y31085181D02*
X47205952Y32085181D01*
X47205952Y32085181D02*
X47110714Y31942324D01*
X47110714Y31942324D02*
X47015476Y31847086D01*
X47015476Y31847086D02*
X46920238Y31799467D01*
X69859742Y66639981D02*
X69526409Y67116172D01*
X69288314Y66639981D02*
X69288314Y67639981D01*
X69288314Y67639981D02*
X69669266Y67639981D01*
X69669266Y67639981D02*
X69764504Y67592362D01*
X69764504Y67592362D02*
X69812123Y67544743D01*
X69812123Y67544743D02*
X69859742Y67449505D01*
X69859742Y67449505D02*
X69859742Y67306648D01*
X69859742Y67306648D02*
X69812123Y67211410D01*
X69812123Y67211410D02*
X69764504Y67163791D01*
X69764504Y67163791D02*
X69669266Y67116172D01*
X69669266Y67116172D02*
X69288314Y67116172D01*
X70240695Y67544743D02*
X70288314Y67592362D01*
X70288314Y67592362D02*
X70383552Y67639981D01*
X70383552Y67639981D02*
X70621647Y67639981D01*
X70621647Y67639981D02*
X70716885Y67592362D01*
X70716885Y67592362D02*
X70764504Y67544743D01*
X70764504Y67544743D02*
X70812123Y67449505D01*
X70812123Y67449505D02*
X70812123Y67354267D01*
X70812123Y67354267D02*
X70764504Y67211410D01*
X70764504Y67211410D02*
X70193076Y66639981D01*
X70193076Y66639981D02*
X70812123Y66639981D01*
X71288314Y66639981D02*
X71478790Y66639981D01*
X71478790Y66639981D02*
X71574028Y66687600D01*
X71574028Y66687600D02*
X71621647Y66735220D01*
X71621647Y66735220D02*
X71716885Y66878077D01*
X71716885Y66878077D02*
X71764504Y67068553D01*
X71764504Y67068553D02*
X71764504Y67449505D01*
X71764504Y67449505D02*
X71716885Y67544743D01*
X71716885Y67544743D02*
X71669266Y67592362D01*
X71669266Y67592362D02*
X71574028Y67639981D01*
X71574028Y67639981D02*
X71383552Y67639981D01*
X71383552Y67639981D02*
X71288314Y67592362D01*
X71288314Y67592362D02*
X71240695Y67544743D01*
X71240695Y67544743D02*
X71193076Y67449505D01*
X71193076Y67449505D02*
X71193076Y67211410D01*
X71193076Y67211410D02*
X71240695Y67116172D01*
X71240695Y67116172D02*
X71288314Y67068553D01*
X71288314Y67068553D02*
X71383552Y67020934D01*
X71383552Y67020934D02*
X71574028Y67020934D01*
X71574028Y67020934D02*
X71669266Y67068553D01*
X71669266Y67068553D02*
X71716885Y67116172D01*
X71716885Y67116172D02*
X71764504Y67211410D01*
X58071409Y54636172D02*
X58071409Y54159981D01*
X57738076Y55159981D02*
X58071409Y54636172D01*
X58071409Y54636172D02*
X58404742Y55159981D01*
X59261885Y54159981D02*
X58690457Y54159981D01*
X58976171Y54159981D02*
X58976171Y55159981D01*
X58976171Y55159981D02*
X58880933Y55017124D01*
X58880933Y55017124D02*
X58785695Y54921886D01*
X58785695Y54921886D02*
X58690457Y54874267D01*
X55859180Y52009734D02*
X55906800Y51962115D01*
X55906800Y51962115D02*
X55954419Y51819258D01*
X55954419Y51819258D02*
X55954419Y51724020D01*
X55954419Y51724020D02*
X55906800Y51581163D01*
X55906800Y51581163D02*
X55811561Y51485925D01*
X55811561Y51485925D02*
X55716323Y51438306D01*
X55716323Y51438306D02*
X55525847Y51390687D01*
X55525847Y51390687D02*
X55382990Y51390687D01*
X55382990Y51390687D02*
X55192514Y51438306D01*
X55192514Y51438306D02*
X55097276Y51485925D01*
X55097276Y51485925D02*
X55002038Y51581163D01*
X55002038Y51581163D02*
X54954419Y51724020D01*
X54954419Y51724020D02*
X54954419Y51819258D01*
X54954419Y51819258D02*
X55002038Y51962115D01*
X55002038Y51962115D02*
X55049657Y52009734D01*
X55954419Y52962115D02*
X55954419Y52390687D01*
X55954419Y52676401D02*
X54954419Y52676401D01*
X54954419Y52676401D02*
X55097276Y52581163D01*
X55097276Y52581163D02*
X55192514Y52485925D01*
X55192514Y52485925D02*
X55240133Y52390687D01*
X40293333Y61705181D02*
X39960000Y62181372D01*
X39721905Y61705181D02*
X39721905Y62705181D01*
X39721905Y62705181D02*
X40102857Y62705181D01*
X40102857Y62705181D02*
X40198095Y62657562D01*
X40198095Y62657562D02*
X40245714Y62609943D01*
X40245714Y62609943D02*
X40293333Y62514705D01*
X40293333Y62514705D02*
X40293333Y62371848D01*
X40293333Y62371848D02*
X40245714Y62276610D01*
X40245714Y62276610D02*
X40198095Y62228991D01*
X40198095Y62228991D02*
X40102857Y62181372D01*
X40102857Y62181372D02*
X39721905Y62181372D01*
X40626667Y62705181D02*
X41245714Y62705181D01*
X41245714Y62705181D02*
X40912381Y62324229D01*
X40912381Y62324229D02*
X41055238Y62324229D01*
X41055238Y62324229D02*
X41150476Y62276610D01*
X41150476Y62276610D02*
X41198095Y62228991D01*
X41198095Y62228991D02*
X41245714Y62133753D01*
X41245714Y62133753D02*
X41245714Y61895658D01*
X41245714Y61895658D02*
X41198095Y61800420D01*
X41198095Y61800420D02*
X41150476Y61752800D01*
X41150476Y61752800D02*
X41055238Y61705181D01*
X41055238Y61705181D02*
X40769524Y61705181D01*
X40769524Y61705181D02*
X40674286Y61752800D01*
X40674286Y61752800D02*
X40626667Y61800420D01*
X55405942Y29313181D02*
X55072609Y29789372D01*
X54834514Y29313181D02*
X54834514Y30313181D01*
X54834514Y30313181D02*
X55215466Y30313181D01*
X55215466Y30313181D02*
X55310704Y30265562D01*
X55310704Y30265562D02*
X55358323Y30217943D01*
X55358323Y30217943D02*
X55405942Y30122705D01*
X55405942Y30122705D02*
X55405942Y29979848D01*
X55405942Y29979848D02*
X55358323Y29884610D01*
X55358323Y29884610D02*
X55310704Y29836991D01*
X55310704Y29836991D02*
X55215466Y29789372D01*
X55215466Y29789372D02*
X54834514Y29789372D01*
X56358323Y29313181D02*
X55786895Y29313181D01*
X56072609Y29313181D02*
X56072609Y30313181D01*
X56072609Y30313181D02*
X55977371Y30170324D01*
X55977371Y30170324D02*
X55882133Y30075086D01*
X55882133Y30075086D02*
X55786895Y30027467D01*
X57215466Y30313181D02*
X57024990Y30313181D01*
X57024990Y30313181D02*
X56929752Y30265562D01*
X56929752Y30265562D02*
X56882133Y30217943D01*
X56882133Y30217943D02*
X56786895Y30075086D01*
X56786895Y30075086D02*
X56739276Y29884610D01*
X56739276Y29884610D02*
X56739276Y29503658D01*
X56739276Y29503658D02*
X56786895Y29408420D01*
X56786895Y29408420D02*
X56834514Y29360800D01*
X56834514Y29360800D02*
X56929752Y29313181D01*
X56929752Y29313181D02*
X57120228Y29313181D01*
X57120228Y29313181D02*
X57215466Y29360800D01*
X57215466Y29360800D02*
X57263085Y29408420D01*
X57263085Y29408420D02*
X57310704Y29503658D01*
X57310704Y29503658D02*
X57310704Y29741753D01*
X57310704Y29741753D02*
X57263085Y29836991D01*
X57263085Y29836991D02*
X57215466Y29884610D01*
X57215466Y29884610D02*
X57120228Y29932229D01*
X57120228Y29932229D02*
X56929752Y29932229D01*
X56929752Y29932229D02*
X56834514Y29884610D01*
X56834514Y29884610D02*
X56786895Y29836991D01*
X56786895Y29836991D02*
X56739276Y29741753D01*
X68721505Y60930181D02*
X68721505Y61930181D01*
X68721505Y61930181D02*
X68959600Y61930181D01*
X68959600Y61930181D02*
X69102457Y61882562D01*
X69102457Y61882562D02*
X69197695Y61787324D01*
X69197695Y61787324D02*
X69245314Y61692086D01*
X69245314Y61692086D02*
X69292933Y61501610D01*
X69292933Y61501610D02*
X69292933Y61358753D01*
X69292933Y61358753D02*
X69245314Y61168277D01*
X69245314Y61168277D02*
X69197695Y61073039D01*
X69197695Y61073039D02*
X69102457Y60977800D01*
X69102457Y60977800D02*
X68959600Y60930181D01*
X68959600Y60930181D02*
X68721505Y60930181D01*
X70150076Y61930181D02*
X69959600Y61930181D01*
X69959600Y61930181D02*
X69864362Y61882562D01*
X69864362Y61882562D02*
X69816743Y61834943D01*
X69816743Y61834943D02*
X69721505Y61692086D01*
X69721505Y61692086D02*
X69673886Y61501610D01*
X69673886Y61501610D02*
X69673886Y61120658D01*
X69673886Y61120658D02*
X69721505Y61025420D01*
X69721505Y61025420D02*
X69769124Y60977800D01*
X69769124Y60977800D02*
X69864362Y60930181D01*
X69864362Y60930181D02*
X70054838Y60930181D01*
X70054838Y60930181D02*
X70150076Y60977800D01*
X70150076Y60977800D02*
X70197695Y61025420D01*
X70197695Y61025420D02*
X70245314Y61120658D01*
X70245314Y61120658D02*
X70245314Y61358753D01*
X70245314Y61358753D02*
X70197695Y61453991D01*
X70197695Y61453991D02*
X70150076Y61501610D01*
X70150076Y61501610D02*
X70054838Y61549229D01*
X70054838Y61549229D02*
X69864362Y61549229D01*
X69864362Y61549229D02*
X69769124Y61501610D01*
X69769124Y61501610D02*
X69721505Y61453991D01*
X69721505Y61453991D02*
X69673886Y61358753D01*
X46899105Y42690781D02*
X46899105Y43690781D01*
X46899105Y43690781D02*
X47137200Y43690781D01*
X47137200Y43690781D02*
X47280057Y43643162D01*
X47280057Y43643162D02*
X47375295Y43547924D01*
X47375295Y43547924D02*
X47422914Y43452686D01*
X47422914Y43452686D02*
X47470533Y43262210D01*
X47470533Y43262210D02*
X47470533Y43119353D01*
X47470533Y43119353D02*
X47422914Y42928877D01*
X47422914Y42928877D02*
X47375295Y42833639D01*
X47375295Y42833639D02*
X47280057Y42738400D01*
X47280057Y42738400D02*
X47137200Y42690781D01*
X47137200Y42690781D02*
X46899105Y42690781D01*
X48422914Y42690781D02*
X47851486Y42690781D01*
X48137200Y42690781D02*
X48137200Y43690781D01*
X48137200Y43690781D02*
X48041962Y43547924D01*
X48041962Y43547924D02*
X47946724Y43452686D01*
X47946724Y43452686D02*
X47851486Y43405067D01*
X39767142Y94275181D02*
X39433809Y94751372D01*
X39195714Y94275181D02*
X39195714Y95275181D01*
X39195714Y95275181D02*
X39576666Y95275181D01*
X39576666Y95275181D02*
X39671904Y95227562D01*
X39671904Y95227562D02*
X39719523Y95179943D01*
X39719523Y95179943D02*
X39767142Y95084705D01*
X39767142Y95084705D02*
X39767142Y94941848D01*
X39767142Y94941848D02*
X39719523Y94846610D01*
X39719523Y94846610D02*
X39671904Y94798991D01*
X39671904Y94798991D02*
X39576666Y94751372D01*
X39576666Y94751372D02*
X39195714Y94751372D01*
X40148095Y95179943D02*
X40195714Y95227562D01*
X40195714Y95227562D02*
X40290952Y95275181D01*
X40290952Y95275181D02*
X40529047Y95275181D01*
X40529047Y95275181D02*
X40624285Y95227562D01*
X40624285Y95227562D02*
X40671904Y95179943D01*
X40671904Y95179943D02*
X40719523Y95084705D01*
X40719523Y95084705D02*
X40719523Y94989467D01*
X40719523Y94989467D02*
X40671904Y94846610D01*
X40671904Y94846610D02*
X40100476Y94275181D01*
X40100476Y94275181D02*
X40719523Y94275181D01*
X41052857Y95275181D02*
X41671904Y95275181D01*
X41671904Y95275181D02*
X41338571Y94894229D01*
X41338571Y94894229D02*
X41481428Y94894229D01*
X41481428Y94894229D02*
X41576666Y94846610D01*
X41576666Y94846610D02*
X41624285Y94798991D01*
X41624285Y94798991D02*
X41671904Y94703753D01*
X41671904Y94703753D02*
X41671904Y94465658D01*
X41671904Y94465658D02*
X41624285Y94370420D01*
X41624285Y94370420D02*
X41576666Y94322800D01*
X41576666Y94322800D02*
X41481428Y94275181D01*
X41481428Y94275181D02*
X41195714Y94275181D01*
X41195714Y94275181D02*
X41100476Y94322800D01*
X41100476Y94322800D02*
X41052857Y94370420D01*
X37560057Y97614762D02*
X37512438Y97519524D01*
X37512438Y97519524D02*
X37417200Y97424286D01*
X37417200Y97424286D02*
X37274342Y97281429D01*
X37274342Y97281429D02*
X37226723Y97186191D01*
X37226723Y97186191D02*
X37226723Y97090953D01*
X37464819Y97138572D02*
X37417200Y97043334D01*
X37417200Y97043334D02*
X37321961Y96948096D01*
X37321961Y96948096D02*
X37131485Y96900477D01*
X37131485Y96900477D02*
X36798152Y96900477D01*
X36798152Y96900477D02*
X36607676Y96948096D01*
X36607676Y96948096D02*
X36512438Y97043334D01*
X36512438Y97043334D02*
X36464819Y97138572D01*
X36464819Y97138572D02*
X36464819Y97329048D01*
X36464819Y97329048D02*
X36512438Y97424286D01*
X36512438Y97424286D02*
X36607676Y97519524D01*
X36607676Y97519524D02*
X36798152Y97567143D01*
X36798152Y97567143D02*
X37131485Y97567143D01*
X37131485Y97567143D02*
X37321961Y97519524D01*
X37321961Y97519524D02*
X37417200Y97424286D01*
X37417200Y97424286D02*
X37464819Y97329048D01*
X37464819Y97329048D02*
X37464819Y97138572D01*
X36560057Y97948096D02*
X36512438Y97995715D01*
X36512438Y97995715D02*
X36464819Y98090953D01*
X36464819Y98090953D02*
X36464819Y98329048D01*
X36464819Y98329048D02*
X36512438Y98424286D01*
X36512438Y98424286D02*
X36560057Y98471905D01*
X36560057Y98471905D02*
X36655295Y98519524D01*
X36655295Y98519524D02*
X36750533Y98519524D01*
X36750533Y98519524D02*
X36893390Y98471905D01*
X36893390Y98471905D02*
X37464819Y97900477D01*
X37464819Y97900477D02*
X37464819Y98519524D01*
X63061905Y83835181D02*
X63061905Y84835181D01*
X63061905Y84835181D02*
X63300000Y84835181D01*
X63300000Y84835181D02*
X63442857Y84787562D01*
X63442857Y84787562D02*
X63538095Y84692324D01*
X63538095Y84692324D02*
X63585714Y84597086D01*
X63585714Y84597086D02*
X63633333Y84406610D01*
X63633333Y84406610D02*
X63633333Y84263753D01*
X63633333Y84263753D02*
X63585714Y84073277D01*
X63585714Y84073277D02*
X63538095Y83978039D01*
X63538095Y83978039D02*
X63442857Y83882800D01*
X63442857Y83882800D02*
X63300000Y83835181D01*
X63300000Y83835181D02*
X63061905Y83835181D01*
X64204762Y84406610D02*
X64109524Y84454229D01*
X64109524Y84454229D02*
X64061905Y84501848D01*
X64061905Y84501848D02*
X64014286Y84597086D01*
X64014286Y84597086D02*
X64014286Y84644705D01*
X64014286Y84644705D02*
X64061905Y84739943D01*
X64061905Y84739943D02*
X64109524Y84787562D01*
X64109524Y84787562D02*
X64204762Y84835181D01*
X64204762Y84835181D02*
X64395238Y84835181D01*
X64395238Y84835181D02*
X64490476Y84787562D01*
X64490476Y84787562D02*
X64538095Y84739943D01*
X64538095Y84739943D02*
X64585714Y84644705D01*
X64585714Y84644705D02*
X64585714Y84597086D01*
X64585714Y84597086D02*
X64538095Y84501848D01*
X64538095Y84501848D02*
X64490476Y84454229D01*
X64490476Y84454229D02*
X64395238Y84406610D01*
X64395238Y84406610D02*
X64204762Y84406610D01*
X64204762Y84406610D02*
X64109524Y84358991D01*
X64109524Y84358991D02*
X64061905Y84311372D01*
X64061905Y84311372D02*
X64014286Y84216134D01*
X64014286Y84216134D02*
X64014286Y84025658D01*
X64014286Y84025658D02*
X64061905Y83930420D01*
X64061905Y83930420D02*
X64109524Y83882800D01*
X64109524Y83882800D02*
X64204762Y83835181D01*
X64204762Y83835181D02*
X64395238Y83835181D01*
X64395238Y83835181D02*
X64490476Y83882800D01*
X64490476Y83882800D02*
X64538095Y83930420D01*
X64538095Y83930420D02*
X64585714Y84025658D01*
X64585714Y84025658D02*
X64585714Y84216134D01*
X64585714Y84216134D02*
X64538095Y84311372D01*
X64538095Y84311372D02*
X64490476Y84358991D01*
X64490476Y84358991D02*
X64395238Y84406610D01*
X46554819Y85381667D02*
X47269104Y85381667D01*
X47269104Y85381667D02*
X47411961Y85334048D01*
X47411961Y85334048D02*
X47507200Y85238810D01*
X47507200Y85238810D02*
X47554819Y85095953D01*
X47554819Y85095953D02*
X47554819Y85000715D01*
X46888152Y86286429D02*
X47554819Y86286429D01*
X46507200Y86048334D02*
X47221485Y85810239D01*
X47221485Y85810239D02*
X47221485Y86429286D01*
X67356019Y89947143D02*
X66879828Y89613810D01*
X67356019Y89375715D02*
X66356019Y89375715D01*
X66356019Y89375715D02*
X66356019Y89756667D01*
X66356019Y89756667D02*
X66403638Y89851905D01*
X66403638Y89851905D02*
X66451257Y89899524D01*
X66451257Y89899524D02*
X66546495Y89947143D01*
X66546495Y89947143D02*
X66689352Y89947143D01*
X66689352Y89947143D02*
X66784590Y89899524D01*
X66784590Y89899524D02*
X66832209Y89851905D01*
X66832209Y89851905D02*
X66879828Y89756667D01*
X66879828Y89756667D02*
X66879828Y89375715D01*
X66451257Y90328096D02*
X66403638Y90375715D01*
X66403638Y90375715D02*
X66356019Y90470953D01*
X66356019Y90470953D02*
X66356019Y90709048D01*
X66356019Y90709048D02*
X66403638Y90804286D01*
X66403638Y90804286D02*
X66451257Y90851905D01*
X66451257Y90851905D02*
X66546495Y90899524D01*
X66546495Y90899524D02*
X66641733Y90899524D01*
X66641733Y90899524D02*
X66784590Y90851905D01*
X66784590Y90851905D02*
X67356019Y90280477D01*
X67356019Y90280477D02*
X67356019Y90899524D01*
X66689352Y91756667D02*
X67356019Y91756667D01*
X66308400Y91518572D02*
X67022685Y91280477D01*
X67022685Y91280477D02*
X67022685Y91899524D01*
X41107142Y42010181D02*
X40773809Y42486372D01*
X40535714Y42010181D02*
X40535714Y43010181D01*
X40535714Y43010181D02*
X40916666Y43010181D01*
X40916666Y43010181D02*
X41011904Y42962562D01*
X41011904Y42962562D02*
X41059523Y42914943D01*
X41059523Y42914943D02*
X41107142Y42819705D01*
X41107142Y42819705D02*
X41107142Y42676848D01*
X41107142Y42676848D02*
X41059523Y42581610D01*
X41059523Y42581610D02*
X41011904Y42533991D01*
X41011904Y42533991D02*
X40916666Y42486372D01*
X40916666Y42486372D02*
X40535714Y42486372D01*
X42059523Y42010181D02*
X41488095Y42010181D01*
X41773809Y42010181D02*
X41773809Y43010181D01*
X41773809Y43010181D02*
X41678571Y42867324D01*
X41678571Y42867324D02*
X41583333Y42772086D01*
X41583333Y42772086D02*
X41488095Y42724467D01*
X42440476Y42914943D02*
X42488095Y42962562D01*
X42488095Y42962562D02*
X42583333Y43010181D01*
X42583333Y43010181D02*
X42821428Y43010181D01*
X42821428Y43010181D02*
X42916666Y42962562D01*
X42916666Y42962562D02*
X42964285Y42914943D01*
X42964285Y42914943D02*
X43011904Y42819705D01*
X43011904Y42819705D02*
X43011904Y42724467D01*
X43011904Y42724467D02*
X42964285Y42581610D01*
X42964285Y42581610D02*
X42392857Y42010181D01*
X42392857Y42010181D02*
X43011904Y42010181D01*
X50920142Y47811381D02*
X50586809Y48287572D01*
X50348714Y47811381D02*
X50348714Y48811381D01*
X50348714Y48811381D02*
X50729666Y48811381D01*
X50729666Y48811381D02*
X50824904Y48763762D01*
X50824904Y48763762D02*
X50872523Y48716143D01*
X50872523Y48716143D02*
X50920142Y48620905D01*
X50920142Y48620905D02*
X50920142Y48478048D01*
X50920142Y48478048D02*
X50872523Y48382810D01*
X50872523Y48382810D02*
X50824904Y48335191D01*
X50824904Y48335191D02*
X50729666Y48287572D01*
X50729666Y48287572D02*
X50348714Y48287572D01*
X51301095Y48716143D02*
X51348714Y48763762D01*
X51348714Y48763762D02*
X51443952Y48811381D01*
X51443952Y48811381D02*
X51682047Y48811381D01*
X51682047Y48811381D02*
X51777285Y48763762D01*
X51777285Y48763762D02*
X51824904Y48716143D01*
X51824904Y48716143D02*
X51872523Y48620905D01*
X51872523Y48620905D02*
X51872523Y48525667D01*
X51872523Y48525667D02*
X51824904Y48382810D01*
X51824904Y48382810D02*
X51253476Y47811381D01*
X51253476Y47811381D02*
X51872523Y47811381D01*
X52824904Y47811381D02*
X52253476Y47811381D01*
X52539190Y47811381D02*
X52539190Y48811381D01*
X52539190Y48811381D02*
X52443952Y48668524D01*
X52443952Y48668524D02*
X52348714Y48573286D01*
X52348714Y48573286D02*
X52253476Y48525667D01*
X47884819Y35858096D02*
X48694342Y35858096D01*
X48694342Y35858096D02*
X48789580Y35905715D01*
X48789580Y35905715D02*
X48837200Y35953334D01*
X48837200Y35953334D02*
X48884819Y36048572D01*
X48884819Y36048572D02*
X48884819Y36239048D01*
X48884819Y36239048D02*
X48837200Y36334286D01*
X48837200Y36334286D02*
X48789580Y36381905D01*
X48789580Y36381905D02*
X48694342Y36429524D01*
X48694342Y36429524D02*
X47884819Y36429524D01*
X47980057Y36858096D02*
X47932438Y36905715D01*
X47932438Y36905715D02*
X47884819Y37000953D01*
X47884819Y37000953D02*
X47884819Y37239048D01*
X47884819Y37239048D02*
X47932438Y37334286D01*
X47932438Y37334286D02*
X47980057Y37381905D01*
X47980057Y37381905D02*
X48075295Y37429524D01*
X48075295Y37429524D02*
X48170533Y37429524D01*
X48170533Y37429524D02*
X48313390Y37381905D01*
X48313390Y37381905D02*
X48884819Y36810477D01*
X48884819Y36810477D02*
X48884819Y37429524D01*
X38904819Y34897143D02*
X38428628Y34563810D01*
X38904819Y34325715D02*
X37904819Y34325715D01*
X37904819Y34325715D02*
X37904819Y34706667D01*
X37904819Y34706667D02*
X37952438Y34801905D01*
X37952438Y34801905D02*
X38000057Y34849524D01*
X38000057Y34849524D02*
X38095295Y34897143D01*
X38095295Y34897143D02*
X38238152Y34897143D01*
X38238152Y34897143D02*
X38333390Y34849524D01*
X38333390Y34849524D02*
X38381009Y34801905D01*
X38381009Y34801905D02*
X38428628Y34706667D01*
X38428628Y34706667D02*
X38428628Y34325715D01*
X38904819Y35849524D02*
X38904819Y35278096D01*
X38904819Y35563810D02*
X37904819Y35563810D01*
X37904819Y35563810D02*
X38047676Y35468572D01*
X38047676Y35468572D02*
X38142914Y35373334D01*
X38142914Y35373334D02*
X38190533Y35278096D01*
X38904819Y36325715D02*
X38904819Y36516191D01*
X38904819Y36516191D02*
X38857200Y36611429D01*
X38857200Y36611429D02*
X38809580Y36659048D01*
X38809580Y36659048D02*
X38666723Y36754286D01*
X38666723Y36754286D02*
X38476247Y36801905D01*
X38476247Y36801905D02*
X38095295Y36801905D01*
X38095295Y36801905D02*
X38000057Y36754286D01*
X38000057Y36754286D02*
X37952438Y36706667D01*
X37952438Y36706667D02*
X37904819Y36611429D01*
X37904819Y36611429D02*
X37904819Y36420953D01*
X37904819Y36420953D02*
X37952438Y36325715D01*
X37952438Y36325715D02*
X38000057Y36278096D01*
X38000057Y36278096D02*
X38095295Y36230477D01*
X38095295Y36230477D02*
X38333390Y36230477D01*
X38333390Y36230477D02*
X38428628Y36278096D01*
X38428628Y36278096D02*
X38476247Y36325715D01*
X38476247Y36325715D02*
X38523866Y36420953D01*
X38523866Y36420953D02*
X38523866Y36611429D01*
X38523866Y36611429D02*
X38476247Y36706667D01*
X38476247Y36706667D02*
X38428628Y36754286D01*
X38428628Y36754286D02*
X38333390Y36801905D01*
X46477619Y60402867D02*
X47191904Y60402867D01*
X47191904Y60402867D02*
X47334761Y60355248D01*
X47334761Y60355248D02*
X47430000Y60260010D01*
X47430000Y60260010D02*
X47477619Y60117153D01*
X47477619Y60117153D02*
X47477619Y60021915D01*
X46477619Y60783820D02*
X46477619Y61402867D01*
X46477619Y61402867D02*
X46858571Y61069534D01*
X46858571Y61069534D02*
X46858571Y61212391D01*
X46858571Y61212391D02*
X46906190Y61307629D01*
X46906190Y61307629D02*
X46953809Y61355248D01*
X46953809Y61355248D02*
X47049047Y61402867D01*
X47049047Y61402867D02*
X47287142Y61402867D01*
X47287142Y61402867D02*
X47382380Y61355248D01*
X47382380Y61355248D02*
X47430000Y61307629D01*
X47430000Y61307629D02*
X47477619Y61212391D01*
X47477619Y61212391D02*
X47477619Y60926677D01*
X47477619Y60926677D02*
X47430000Y60831439D01*
X47430000Y60831439D02*
X47382380Y60783820D01*
X52256342Y29287781D02*
X51923009Y29763972D01*
X51684914Y29287781D02*
X51684914Y30287781D01*
X51684914Y30287781D02*
X52065866Y30287781D01*
X52065866Y30287781D02*
X52161104Y30240162D01*
X52161104Y30240162D02*
X52208723Y30192543D01*
X52208723Y30192543D02*
X52256342Y30097305D01*
X52256342Y30097305D02*
X52256342Y29954448D01*
X52256342Y29954448D02*
X52208723Y29859210D01*
X52208723Y29859210D02*
X52161104Y29811591D01*
X52161104Y29811591D02*
X52065866Y29763972D01*
X52065866Y29763972D02*
X51684914Y29763972D01*
X53208723Y29287781D02*
X52637295Y29287781D01*
X52923009Y29287781D02*
X52923009Y30287781D01*
X52923009Y30287781D02*
X52827771Y30144924D01*
X52827771Y30144924D02*
X52732533Y30049686D01*
X52732533Y30049686D02*
X52637295Y30002067D01*
X54113485Y30287781D02*
X53637295Y30287781D01*
X53637295Y30287781D02*
X53589676Y29811591D01*
X53589676Y29811591D02*
X53637295Y29859210D01*
X53637295Y29859210D02*
X53732533Y29906829D01*
X53732533Y29906829D02*
X53970628Y29906829D01*
X53970628Y29906829D02*
X54065866Y29859210D01*
X54065866Y29859210D02*
X54113485Y29811591D01*
X54113485Y29811591D02*
X54161104Y29716353D01*
X54161104Y29716353D02*
X54161104Y29478258D01*
X54161104Y29478258D02*
X54113485Y29383020D01*
X54113485Y29383020D02*
X54065866Y29335400D01*
X54065866Y29335400D02*
X53970628Y29287781D01*
X53970628Y29287781D02*
X53732533Y29287781D01*
X53732533Y29287781D02*
X53637295Y29335400D01*
X53637295Y29335400D02*
X53589676Y29383020D01*
X47407819Y48063343D02*
X46931628Y47730010D01*
X47407819Y47491915D02*
X46407819Y47491915D01*
X46407819Y47491915D02*
X46407819Y47872867D01*
X46407819Y47872867D02*
X46455438Y47968105D01*
X46455438Y47968105D02*
X46503057Y48015724D01*
X46503057Y48015724D02*
X46598295Y48063343D01*
X46598295Y48063343D02*
X46741152Y48063343D01*
X46741152Y48063343D02*
X46836390Y48015724D01*
X46836390Y48015724D02*
X46884009Y47968105D01*
X46884009Y47968105D02*
X46931628Y47872867D01*
X46931628Y47872867D02*
X46931628Y47491915D01*
X46503057Y48444296D02*
X46455438Y48491915D01*
X46455438Y48491915D02*
X46407819Y48587153D01*
X46407819Y48587153D02*
X46407819Y48825248D01*
X46407819Y48825248D02*
X46455438Y48920486D01*
X46455438Y48920486D02*
X46503057Y48968105D01*
X46503057Y48968105D02*
X46598295Y49015724D01*
X46598295Y49015724D02*
X46693533Y49015724D01*
X46693533Y49015724D02*
X46836390Y48968105D01*
X46836390Y48968105D02*
X47407819Y48396677D01*
X47407819Y48396677D02*
X47407819Y49015724D01*
X46407819Y49634772D02*
X46407819Y49730010D01*
X46407819Y49730010D02*
X46455438Y49825248D01*
X46455438Y49825248D02*
X46503057Y49872867D01*
X46503057Y49872867D02*
X46598295Y49920486D01*
X46598295Y49920486D02*
X46788771Y49968105D01*
X46788771Y49968105D02*
X47026866Y49968105D01*
X47026866Y49968105D02*
X47217342Y49920486D01*
X47217342Y49920486D02*
X47312580Y49872867D01*
X47312580Y49872867D02*
X47360200Y49825248D01*
X47360200Y49825248D02*
X47407819Y49730010D01*
X47407819Y49730010D02*
X47407819Y49634772D01*
X47407819Y49634772D02*
X47360200Y49539534D01*
X47360200Y49539534D02*
X47312580Y49491915D01*
X47312580Y49491915D02*
X47217342Y49444296D01*
X47217342Y49444296D02*
X47026866Y49396677D01*
X47026866Y49396677D02*
X46788771Y49396677D01*
X46788771Y49396677D02*
X46598295Y49444296D01*
X46598295Y49444296D02*
X46503057Y49491915D01*
X46503057Y49491915D02*
X46455438Y49539534D01*
X46455438Y49539534D02*
X46407819Y49634772D01*
X67054819Y74028096D02*
X67864342Y74028096D01*
X67864342Y74028096D02*
X67959580Y74075715D01*
X67959580Y74075715D02*
X68007200Y74123334D01*
X68007200Y74123334D02*
X68054819Y74218572D01*
X68054819Y74218572D02*
X68054819Y74409048D01*
X68054819Y74409048D02*
X68007200Y74504286D01*
X68007200Y74504286D02*
X67959580Y74551905D01*
X67959580Y74551905D02*
X67864342Y74599524D01*
X67864342Y74599524D02*
X67054819Y74599524D01*
X67054819Y75551905D02*
X67054819Y75075715D01*
X67054819Y75075715D02*
X67531009Y75028096D01*
X67531009Y75028096D02*
X67483390Y75075715D01*
X67483390Y75075715D02*
X67435771Y75170953D01*
X67435771Y75170953D02*
X67435771Y75409048D01*
X67435771Y75409048D02*
X67483390Y75504286D01*
X67483390Y75504286D02*
X67531009Y75551905D01*
X67531009Y75551905D02*
X67626247Y75599524D01*
X67626247Y75599524D02*
X67864342Y75599524D01*
X67864342Y75599524D02*
X67959580Y75551905D01*
X67959580Y75551905D02*
X68007200Y75504286D01*
X68007200Y75504286D02*
X68054819Y75409048D01*
X68054819Y75409048D02*
X68054819Y75170953D01*
X68054819Y75170953D02*
X68007200Y75075715D01*
X68007200Y75075715D02*
X67959580Y75028096D01*
X58163942Y29613181D02*
X57830609Y30089372D01*
X57592514Y29613181D02*
X57592514Y30613181D01*
X57592514Y30613181D02*
X57973466Y30613181D01*
X57973466Y30613181D02*
X58068704Y30565562D01*
X58068704Y30565562D02*
X58116323Y30517943D01*
X58116323Y30517943D02*
X58163942Y30422705D01*
X58163942Y30422705D02*
X58163942Y30279848D01*
X58163942Y30279848D02*
X58116323Y30184610D01*
X58116323Y30184610D02*
X58068704Y30136991D01*
X58068704Y30136991D02*
X57973466Y30089372D01*
X57973466Y30089372D02*
X57592514Y30089372D01*
X59116323Y29613181D02*
X58544895Y29613181D01*
X58830609Y29613181D02*
X58830609Y30613181D01*
X58830609Y30613181D02*
X58735371Y30470324D01*
X58735371Y30470324D02*
X58640133Y30375086D01*
X58640133Y30375086D02*
X58544895Y30327467D01*
X59449657Y30613181D02*
X60068704Y30613181D01*
X60068704Y30613181D02*
X59735371Y30232229D01*
X59735371Y30232229D02*
X59878228Y30232229D01*
X59878228Y30232229D02*
X59973466Y30184610D01*
X59973466Y30184610D02*
X60021085Y30136991D01*
X60021085Y30136991D02*
X60068704Y30041753D01*
X60068704Y30041753D02*
X60068704Y29803658D01*
X60068704Y29803658D02*
X60021085Y29708420D01*
X60021085Y29708420D02*
X59973466Y29660800D01*
X59973466Y29660800D02*
X59878228Y29613181D01*
X59878228Y29613181D02*
X59592514Y29613181D01*
X59592514Y29613181D02*
X59497276Y29660800D01*
X59497276Y29660800D02*
X59449657Y29708420D01*
X31354819Y86447143D02*
X30878628Y86113810D01*
X31354819Y85875715D02*
X30354819Y85875715D01*
X30354819Y85875715D02*
X30354819Y86256667D01*
X30354819Y86256667D02*
X30402438Y86351905D01*
X30402438Y86351905D02*
X30450057Y86399524D01*
X30450057Y86399524D02*
X30545295Y86447143D01*
X30545295Y86447143D02*
X30688152Y86447143D01*
X30688152Y86447143D02*
X30783390Y86399524D01*
X30783390Y86399524D02*
X30831009Y86351905D01*
X30831009Y86351905D02*
X30878628Y86256667D01*
X30878628Y86256667D02*
X30878628Y85875715D01*
X30450057Y86828096D02*
X30402438Y86875715D01*
X30402438Y86875715D02*
X30354819Y86970953D01*
X30354819Y86970953D02*
X30354819Y87209048D01*
X30354819Y87209048D02*
X30402438Y87304286D01*
X30402438Y87304286D02*
X30450057Y87351905D01*
X30450057Y87351905D02*
X30545295Y87399524D01*
X30545295Y87399524D02*
X30640533Y87399524D01*
X30640533Y87399524D02*
X30783390Y87351905D01*
X30783390Y87351905D02*
X31354819Y86780477D01*
X31354819Y86780477D02*
X31354819Y87399524D01*
X30354819Y87732858D02*
X30354819Y88399524D01*
X30354819Y88399524D02*
X31354819Y87970953D01*
X63853333Y54350420D02*
X63805714Y54302800D01*
X63805714Y54302800D02*
X63662857Y54255181D01*
X63662857Y54255181D02*
X63567619Y54255181D01*
X63567619Y54255181D02*
X63424762Y54302800D01*
X63424762Y54302800D02*
X63329524Y54398039D01*
X63329524Y54398039D02*
X63281905Y54493277D01*
X63281905Y54493277D02*
X63234286Y54683753D01*
X63234286Y54683753D02*
X63234286Y54826610D01*
X63234286Y54826610D02*
X63281905Y55017086D01*
X63281905Y55017086D02*
X63329524Y55112324D01*
X63329524Y55112324D02*
X63424762Y55207562D01*
X63424762Y55207562D02*
X63567619Y55255181D01*
X63567619Y55255181D02*
X63662857Y55255181D01*
X63662857Y55255181D02*
X63805714Y55207562D01*
X63805714Y55207562D02*
X63853333Y55159943D01*
X64234286Y55159943D02*
X64281905Y55207562D01*
X64281905Y55207562D02*
X64377143Y55255181D01*
X64377143Y55255181D02*
X64615238Y55255181D01*
X64615238Y55255181D02*
X64710476Y55207562D01*
X64710476Y55207562D02*
X64758095Y55159943D01*
X64758095Y55159943D02*
X64805714Y55064705D01*
X64805714Y55064705D02*
X64805714Y54969467D01*
X64805714Y54969467D02*
X64758095Y54826610D01*
X64758095Y54826610D02*
X64186667Y54255181D01*
X64186667Y54255181D02*
X64805714Y54255181D01*
X44038095Y97235181D02*
X44038095Y96425658D01*
X44038095Y96425658D02*
X44085714Y96330420D01*
X44085714Y96330420D02*
X44133333Y96282800D01*
X44133333Y96282800D02*
X44228571Y96235181D01*
X44228571Y96235181D02*
X44419047Y96235181D01*
X44419047Y96235181D02*
X44514285Y96282800D01*
X44514285Y96282800D02*
X44561904Y96330420D01*
X44561904Y96330420D02*
X44609523Y96425658D01*
X44609523Y96425658D02*
X44609523Y97235181D01*
X44990476Y97235181D02*
X45609523Y97235181D01*
X45609523Y97235181D02*
X45276190Y96854229D01*
X45276190Y96854229D02*
X45419047Y96854229D01*
X45419047Y96854229D02*
X45514285Y96806610D01*
X45514285Y96806610D02*
X45561904Y96758991D01*
X45561904Y96758991D02*
X45609523Y96663753D01*
X45609523Y96663753D02*
X45609523Y96425658D01*
X45609523Y96425658D02*
X45561904Y96330420D01*
X45561904Y96330420D02*
X45514285Y96282800D01*
X45514285Y96282800D02*
X45419047Y96235181D01*
X45419047Y96235181D02*
X45133333Y96235181D01*
X45133333Y96235181D02*
X45038095Y96282800D01*
X45038095Y96282800D02*
X44990476Y96330420D01*
X58066666Y97335181D02*
X58066666Y96620896D01*
X58066666Y96620896D02*
X58019047Y96478039D01*
X58019047Y96478039D02*
X57923809Y96382800D01*
X57923809Y96382800D02*
X57780952Y96335181D01*
X57780952Y96335181D02*
X57685714Y96335181D01*
X59019047Y97335181D02*
X58542857Y97335181D01*
X58542857Y97335181D02*
X58495238Y96858991D01*
X58495238Y96858991D02*
X58542857Y96906610D01*
X58542857Y96906610D02*
X58638095Y96954229D01*
X58638095Y96954229D02*
X58876190Y96954229D01*
X58876190Y96954229D02*
X58971428Y96906610D01*
X58971428Y96906610D02*
X59019047Y96858991D01*
X59019047Y96858991D02*
X59066666Y96763753D01*
X59066666Y96763753D02*
X59066666Y96525658D01*
X59066666Y96525658D02*
X59019047Y96430420D01*
X59019047Y96430420D02*
X58971428Y96382800D01*
X58971428Y96382800D02*
X58876190Y96335181D01*
X58876190Y96335181D02*
X58638095Y96335181D01*
X58638095Y96335181D02*
X58542857Y96382800D01*
X58542857Y96382800D02*
X58495238Y96430420D01*
X50833333Y79735181D02*
X50357143Y79735181D01*
X50357143Y79735181D02*
X50357143Y80735181D01*
X51690476Y79735181D02*
X51119048Y79735181D01*
X51404762Y79735181D02*
X51404762Y80735181D01*
X51404762Y80735181D02*
X51309524Y80592324D01*
X51309524Y80592324D02*
X51214286Y80497086D01*
X51214286Y80497086D02*
X51119048Y80449467D01*
X66659580Y94247143D02*
X66707200Y94199524D01*
X66707200Y94199524D02*
X66754819Y94056667D01*
X66754819Y94056667D02*
X66754819Y93961429D01*
X66754819Y93961429D02*
X66707200Y93818572D01*
X66707200Y93818572D02*
X66611961Y93723334D01*
X66611961Y93723334D02*
X66516723Y93675715D01*
X66516723Y93675715D02*
X66326247Y93628096D01*
X66326247Y93628096D02*
X66183390Y93628096D01*
X66183390Y93628096D02*
X65992914Y93675715D01*
X65992914Y93675715D02*
X65897676Y93723334D01*
X65897676Y93723334D02*
X65802438Y93818572D01*
X65802438Y93818572D02*
X65754819Y93961429D01*
X65754819Y93961429D02*
X65754819Y94056667D01*
X65754819Y94056667D02*
X65802438Y94199524D01*
X65802438Y94199524D02*
X65850057Y94247143D01*
X66754819Y95199524D02*
X66754819Y94628096D01*
X66754819Y94913810D02*
X65754819Y94913810D01*
X65754819Y94913810D02*
X65897676Y94818572D01*
X65897676Y94818572D02*
X65992914Y94723334D01*
X65992914Y94723334D02*
X66040533Y94628096D01*
X66754819Y96151905D02*
X66754819Y95580477D01*
X66754819Y95866191D02*
X65754819Y95866191D01*
X65754819Y95866191D02*
X65897676Y95770953D01*
X65897676Y95770953D02*
X65992914Y95675715D01*
X65992914Y95675715D02*
X66040533Y95580477D01*
X71353333Y47535181D02*
X71020000Y48011372D01*
X70781905Y47535181D02*
X70781905Y48535181D01*
X70781905Y48535181D02*
X71162857Y48535181D01*
X71162857Y48535181D02*
X71258095Y48487562D01*
X71258095Y48487562D02*
X71305714Y48439943D01*
X71305714Y48439943D02*
X71353333Y48344705D01*
X71353333Y48344705D02*
X71353333Y48201848D01*
X71353333Y48201848D02*
X71305714Y48106610D01*
X71305714Y48106610D02*
X71258095Y48058991D01*
X71258095Y48058991D02*
X71162857Y48011372D01*
X71162857Y48011372D02*
X70781905Y48011372D01*
X72305714Y47535181D02*
X71734286Y47535181D01*
X72020000Y47535181D02*
X72020000Y48535181D01*
X72020000Y48535181D02*
X71924762Y48392324D01*
X71924762Y48392324D02*
X71829524Y48297086D01*
X71829524Y48297086D02*
X71734286Y48249467D01*
X40193333Y59400420D02*
X40145714Y59352800D01*
X40145714Y59352800D02*
X40002857Y59305181D01*
X40002857Y59305181D02*
X39907619Y59305181D01*
X39907619Y59305181D02*
X39764762Y59352800D01*
X39764762Y59352800D02*
X39669524Y59448039D01*
X39669524Y59448039D02*
X39621905Y59543277D01*
X39621905Y59543277D02*
X39574286Y59733753D01*
X39574286Y59733753D02*
X39574286Y59876610D01*
X39574286Y59876610D02*
X39621905Y60067086D01*
X39621905Y60067086D02*
X39669524Y60162324D01*
X39669524Y60162324D02*
X39764762Y60257562D01*
X39764762Y60257562D02*
X39907619Y60305181D01*
X39907619Y60305181D02*
X40002857Y60305181D01*
X40002857Y60305181D02*
X40145714Y60257562D01*
X40145714Y60257562D02*
X40193333Y60209943D01*
X41098095Y60305181D02*
X40621905Y60305181D01*
X40621905Y60305181D02*
X40574286Y59828991D01*
X40574286Y59828991D02*
X40621905Y59876610D01*
X40621905Y59876610D02*
X40717143Y59924229D01*
X40717143Y59924229D02*
X40955238Y59924229D01*
X40955238Y59924229D02*
X41050476Y59876610D01*
X41050476Y59876610D02*
X41098095Y59828991D01*
X41098095Y59828991D02*
X41145714Y59733753D01*
X41145714Y59733753D02*
X41145714Y59495658D01*
X41145714Y59495658D02*
X41098095Y59400420D01*
X41098095Y59400420D02*
X41050476Y59352800D01*
X41050476Y59352800D02*
X40955238Y59305181D01*
X40955238Y59305181D02*
X40717143Y59305181D01*
X40717143Y59305181D02*
X40621905Y59352800D01*
X40621905Y59352800D02*
X40574286Y59400420D01*
X31254819Y37548334D02*
X30778628Y37215001D01*
X31254819Y36976906D02*
X30254819Y36976906D01*
X30254819Y36976906D02*
X30254819Y37357858D01*
X30254819Y37357858D02*
X30302438Y37453096D01*
X30302438Y37453096D02*
X30350057Y37500715D01*
X30350057Y37500715D02*
X30445295Y37548334D01*
X30445295Y37548334D02*
X30588152Y37548334D01*
X30588152Y37548334D02*
X30683390Y37500715D01*
X30683390Y37500715D02*
X30731009Y37453096D01*
X30731009Y37453096D02*
X30778628Y37357858D01*
X30778628Y37357858D02*
X30778628Y36976906D01*
X30254819Y38453096D02*
X30254819Y37976906D01*
X30254819Y37976906D02*
X30731009Y37929287D01*
X30731009Y37929287D02*
X30683390Y37976906D01*
X30683390Y37976906D02*
X30635771Y38072144D01*
X30635771Y38072144D02*
X30635771Y38310239D01*
X30635771Y38310239D02*
X30683390Y38405477D01*
X30683390Y38405477D02*
X30731009Y38453096D01*
X30731009Y38453096D02*
X30826247Y38500715D01*
X30826247Y38500715D02*
X31064342Y38500715D01*
X31064342Y38500715D02*
X31159580Y38453096D01*
X31159580Y38453096D02*
X31207200Y38405477D01*
X31207200Y38405477D02*
X31254819Y38310239D01*
X31254819Y38310239D02*
X31254819Y38072144D01*
X31254819Y38072144D02*
X31207200Y37976906D01*
X31207200Y37976906D02*
X31159580Y37929287D01*
X40754819Y35348334D02*
X40278628Y35015001D01*
X40754819Y34776906D02*
X39754819Y34776906D01*
X39754819Y34776906D02*
X39754819Y35157858D01*
X39754819Y35157858D02*
X39802438Y35253096D01*
X39802438Y35253096D02*
X39850057Y35300715D01*
X39850057Y35300715D02*
X39945295Y35348334D01*
X39945295Y35348334D02*
X40088152Y35348334D01*
X40088152Y35348334D02*
X40183390Y35300715D01*
X40183390Y35300715D02*
X40231009Y35253096D01*
X40231009Y35253096D02*
X40278628Y35157858D01*
X40278628Y35157858D02*
X40278628Y34776906D01*
X39754819Y36205477D02*
X39754819Y36015001D01*
X39754819Y36015001D02*
X39802438Y35919763D01*
X39802438Y35919763D02*
X39850057Y35872144D01*
X39850057Y35872144D02*
X39992914Y35776906D01*
X39992914Y35776906D02*
X40183390Y35729287D01*
X40183390Y35729287D02*
X40564342Y35729287D01*
X40564342Y35729287D02*
X40659580Y35776906D01*
X40659580Y35776906D02*
X40707200Y35824525D01*
X40707200Y35824525D02*
X40754819Y35919763D01*
X40754819Y35919763D02*
X40754819Y36110239D01*
X40754819Y36110239D02*
X40707200Y36205477D01*
X40707200Y36205477D02*
X40659580Y36253096D01*
X40659580Y36253096D02*
X40564342Y36300715D01*
X40564342Y36300715D02*
X40326247Y36300715D01*
X40326247Y36300715D02*
X40231009Y36253096D01*
X40231009Y36253096D02*
X40183390Y36205477D01*
X40183390Y36205477D02*
X40135771Y36110239D01*
X40135771Y36110239D02*
X40135771Y35919763D01*
X40135771Y35919763D02*
X40183390Y35824525D01*
X40183390Y35824525D02*
X40231009Y35776906D01*
X40231009Y35776906D02*
X40326247Y35729287D01*
X49655219Y54549734D02*
X49179028Y54216401D01*
X49655219Y53978306D02*
X48655219Y53978306D01*
X48655219Y53978306D02*
X48655219Y54359258D01*
X48655219Y54359258D02*
X48702838Y54454496D01*
X48702838Y54454496D02*
X48750457Y54502115D01*
X48750457Y54502115D02*
X48845695Y54549734D01*
X48845695Y54549734D02*
X48988552Y54549734D01*
X48988552Y54549734D02*
X49083790Y54502115D01*
X49083790Y54502115D02*
X49131409Y54454496D01*
X49131409Y54454496D02*
X49179028Y54359258D01*
X49179028Y54359258D02*
X49179028Y53978306D01*
X49083790Y55121163D02*
X49036171Y55025925D01*
X49036171Y55025925D02*
X48988552Y54978306D01*
X48988552Y54978306D02*
X48893314Y54930687D01*
X48893314Y54930687D02*
X48845695Y54930687D01*
X48845695Y54930687D02*
X48750457Y54978306D01*
X48750457Y54978306D02*
X48702838Y55025925D01*
X48702838Y55025925D02*
X48655219Y55121163D01*
X48655219Y55121163D02*
X48655219Y55311639D01*
X48655219Y55311639D02*
X48702838Y55406877D01*
X48702838Y55406877D02*
X48750457Y55454496D01*
X48750457Y55454496D02*
X48845695Y55502115D01*
X48845695Y55502115D02*
X48893314Y55502115D01*
X48893314Y55502115D02*
X48988552Y55454496D01*
X48988552Y55454496D02*
X49036171Y55406877D01*
X49036171Y55406877D02*
X49083790Y55311639D01*
X49083790Y55311639D02*
X49083790Y55121163D01*
X49083790Y55121163D02*
X49131409Y55025925D01*
X49131409Y55025925D02*
X49179028Y54978306D01*
X49179028Y54978306D02*
X49274266Y54930687D01*
X49274266Y54930687D02*
X49464742Y54930687D01*
X49464742Y54930687D02*
X49559980Y54978306D01*
X49559980Y54978306D02*
X49607600Y55025925D01*
X49607600Y55025925D02*
X49655219Y55121163D01*
X49655219Y55121163D02*
X49655219Y55311639D01*
X49655219Y55311639D02*
X49607600Y55406877D01*
X49607600Y55406877D02*
X49559980Y55454496D01*
X49559980Y55454496D02*
X49464742Y55502115D01*
X49464742Y55502115D02*
X49274266Y55502115D01*
X49274266Y55502115D02*
X49179028Y55454496D01*
X49179028Y55454496D02*
X49131409Y55406877D01*
X49131409Y55406877D02*
X49083790Y55311639D01*
X44393333Y62000420D02*
X44345714Y61952800D01*
X44345714Y61952800D02*
X44202857Y61905181D01*
X44202857Y61905181D02*
X44107619Y61905181D01*
X44107619Y61905181D02*
X43964762Y61952800D01*
X43964762Y61952800D02*
X43869524Y62048039D01*
X43869524Y62048039D02*
X43821905Y62143277D01*
X43821905Y62143277D02*
X43774286Y62333753D01*
X43774286Y62333753D02*
X43774286Y62476610D01*
X43774286Y62476610D02*
X43821905Y62667086D01*
X43821905Y62667086D02*
X43869524Y62762324D01*
X43869524Y62762324D02*
X43964762Y62857562D01*
X43964762Y62857562D02*
X44107619Y62905181D01*
X44107619Y62905181D02*
X44202857Y62905181D01*
X44202857Y62905181D02*
X44345714Y62857562D01*
X44345714Y62857562D02*
X44393333Y62809943D01*
X44726667Y62905181D02*
X45393333Y62905181D01*
X45393333Y62905181D02*
X44964762Y61905181D01*
X58403142Y29211581D02*
X58069809Y29687772D01*
X57831714Y29211581D02*
X57831714Y30211581D01*
X57831714Y30211581D02*
X58212666Y30211581D01*
X58212666Y30211581D02*
X58307904Y30163962D01*
X58307904Y30163962D02*
X58355523Y30116343D01*
X58355523Y30116343D02*
X58403142Y30021105D01*
X58403142Y30021105D02*
X58403142Y29878248D01*
X58403142Y29878248D02*
X58355523Y29783010D01*
X58355523Y29783010D02*
X58307904Y29735391D01*
X58307904Y29735391D02*
X58212666Y29687772D01*
X58212666Y29687772D02*
X57831714Y29687772D01*
X59355523Y29211581D02*
X58784095Y29211581D01*
X59069809Y29211581D02*
X59069809Y30211581D01*
X59069809Y30211581D02*
X58974571Y30068724D01*
X58974571Y30068724D02*
X58879333Y29973486D01*
X58879333Y29973486D02*
X58784095Y29925867D01*
X59688857Y30211581D02*
X60355523Y30211581D01*
X60355523Y30211581D02*
X59926952Y29211581D01*
X39269580Y91177143D02*
X39317200Y91129524D01*
X39317200Y91129524D02*
X39364819Y90986667D01*
X39364819Y90986667D02*
X39364819Y90891429D01*
X39364819Y90891429D02*
X39317200Y90748572D01*
X39317200Y90748572D02*
X39221961Y90653334D01*
X39221961Y90653334D02*
X39126723Y90605715D01*
X39126723Y90605715D02*
X38936247Y90558096D01*
X38936247Y90558096D02*
X38793390Y90558096D01*
X38793390Y90558096D02*
X38602914Y90605715D01*
X38602914Y90605715D02*
X38507676Y90653334D01*
X38507676Y90653334D02*
X38412438Y90748572D01*
X38412438Y90748572D02*
X38364819Y90891429D01*
X38364819Y90891429D02*
X38364819Y90986667D01*
X38364819Y90986667D02*
X38412438Y91129524D01*
X38412438Y91129524D02*
X38460057Y91177143D01*
X39364819Y92129524D02*
X39364819Y91558096D01*
X39364819Y91843810D02*
X38364819Y91843810D01*
X38364819Y91843810D02*
X38507676Y91748572D01*
X38507676Y91748572D02*
X38602914Y91653334D01*
X38602914Y91653334D02*
X38650533Y91558096D01*
X38698152Y92986667D02*
X39364819Y92986667D01*
X38317200Y92748572D02*
X39031485Y92510477D01*
X39031485Y92510477D02*
X39031485Y93129524D01*
D12*
%TO.C,IC1*%
X54368600Y66806800D02*
X52968600Y66806800D01*
X52968600Y66806800D02*
X52968600Y68206800D01*
X52968600Y77406800D02*
X52968600Y78806800D01*
X52968600Y78806800D02*
X54368600Y78806800D01*
X64968600Y77406800D02*
X64968600Y78806800D01*
X64968600Y78806800D02*
X63568600Y78806800D01*
X63568600Y66806800D02*
X64968600Y66806800D01*
X64968600Y66806800D02*
X64968600Y68206800D01*
D13*
X66568600Y69056800D02*
X66568600Y69056800D01*
X66668600Y69056800D02*
X66668600Y69056800D01*
X66568600Y69056800D02*
G75*
G03*
X66668600Y69056800I50000J0D01*
G01*
X66668600Y69056800D02*
G75*
G03*
X66568600Y69056800I-50000J0D01*
G01*
D12*
%TO.C,D2*%
X56253800Y23918600D02*
X55853800Y23918600D01*
X56253800Y26018600D02*
X55853800Y26018600D01*
D13*
X54453800Y25518600D02*
X54453800Y25518600D01*
X54353800Y25518600D02*
X54353800Y25518600D01*
X54453800Y25518600D02*
G75*
G03*
X54353800Y25518600I-50000J0D01*
G01*
X54353800Y25518600D02*
G75*
G03*
X54453800Y25518600I50000J0D01*
G01*
D14*
%TO.C,C6*%
X71319400Y34644164D02*
X71319400Y34859836D01*
X72039400Y34644164D02*
X72039400Y34859836D01*
%TO.C,C17*%
X67320800Y68457164D02*
X67320800Y68672836D01*
X68040800Y68457164D02*
X68040800Y68672836D01*
%TO.C,J6*%
X65421800Y50414600D02*
X65421800Y51744600D01*
X66751800Y50414600D02*
X65421800Y50414600D01*
X68021800Y50414600D02*
X73161800Y50414600D01*
X68021800Y50414600D02*
X68021800Y53014600D01*
X73161800Y50414600D02*
X73161800Y55614600D01*
X65421800Y53014600D02*
X65421800Y55614600D01*
X68021800Y53014600D02*
X65421800Y53014600D01*
X65421800Y55614600D02*
X73161800Y55614600D01*
%TO.C,D5*%
X58753000Y92876600D02*
X58753000Y90876600D01*
X58753000Y92876600D02*
X62763000Y92876600D01*
X58753000Y90876600D02*
X62763000Y90876600D01*
%TO.C,R30*%
X72112441Y69398600D02*
X71805159Y69398600D01*
X72112441Y70158600D02*
X71805159Y70158600D01*
%TO.C,C10*%
X56237800Y94129948D02*
X56237800Y94652452D01*
X57707800Y94129948D02*
X57707800Y94652452D01*
%TO.C,C12*%
X44658200Y94242436D02*
X44658200Y94026764D01*
X43938200Y94242436D02*
X43938200Y94026764D01*
D12*
%TO.C,J2*%
X41230000Y57335000D02*
X32230000Y57335000D01*
X44405000Y57165000D02*
X44455000Y57115000D01*
X44355000Y57115000D02*
X44355000Y57115000D01*
X44355000Y57115000D02*
X44355000Y57115000D01*
X29870000Y56890000D02*
X29870000Y45490000D01*
X43590000Y45490000D02*
X43590000Y47890000D01*
X32230000Y45045000D02*
X41230000Y45045000D01*
X44355000Y57115000D02*
G75*
G03*
X44455000Y57115000I50000J0D01*
G01*
X44355000Y57115000D02*
G75*
G03*
X44455000Y57115000I50000J0D01*
G01*
X44455000Y57115000D02*
G75*
G03*
X44355000Y57115000I-50000J0D01*
G01*
D14*
%TO.C,C19*%
X51540000Y81882164D02*
X51540000Y82097836D01*
X52260000Y81882164D02*
X52260000Y82097836D01*
%TO.C,R4*%
X38280000Y62706359D02*
X38280000Y63013641D01*
X39040000Y62706359D02*
X39040000Y63013641D01*
%TO.C,C3*%
X33920000Y61567836D02*
X33920000Y61352164D01*
X33200000Y61567836D02*
X33200000Y61352164D01*
%TO.C,R9*%
X62686800Y30841641D02*
X62686800Y30534359D01*
X61926800Y30841641D02*
X61926800Y30534359D01*
D13*
%TO.C,mouse-bite-2mm-slot*%
X76560000Y48450000D02*
G75*
G03*
X74560000Y48450000I-1000000J0D01*
G01*
X74560000Y52450000D02*
G75*
G03*
X76560000Y52450000I1000000J0D01*
G01*
D15*
%TO.C,U4*%
X31860000Y82910000D02*
X34660000Y82910000D01*
X31860000Y80810000D02*
X31860000Y82910000D01*
X31860000Y65310000D02*
X31860000Y67410000D01*
X34660000Y65310000D02*
X31860000Y65310000D01*
X44760000Y82910000D02*
X47560000Y82910000D01*
X44760000Y65310000D02*
X47560000Y65310000D01*
X47560000Y82910000D02*
X47560000Y80810000D01*
X47560000Y65310000D02*
X47560000Y67410000D01*
D12*
X30360000Y80660000D02*
G75*
G03*
X30360000Y80660000I-100000J0D01*
G01*
D14*
%TO.C,C18*%
X48240000Y81902164D02*
X48240000Y82117836D01*
X48960000Y81902164D02*
X48960000Y82117836D01*
D13*
%TO.C,mouse-bite-2mm-slot*%
X28560000Y60860000D02*
G75*
G03*
X26560000Y60860000I-1000000J0D01*
G01*
X26560000Y64860000D02*
G75*
G03*
X28560000Y64860000I1000000J0D01*
G01*
X53060000Y109860000D02*
G75*
G03*
X53060000Y107860000I0J-1000000D01*
G01*
X49060000Y107860000D02*
G75*
G03*
X49060000Y109860000I0J1000000D01*
G01*
D14*
%TO.C,R26*%
X29997000Y84613441D02*
X29997000Y84306159D01*
X29237000Y84613441D02*
X29237000Y84306159D01*
%TO.C,R2*%
X34980000Y62706359D02*
X34980000Y63013641D01*
X35740000Y62706359D02*
X35740000Y63013641D01*
%TO.C,R11*%
X48718800Y51844959D02*
X48718800Y52152241D01*
X49478800Y51844959D02*
X49478800Y52152241D01*
%TO.C,C16*%
X35970000Y89371252D02*
X35970000Y87948748D01*
X34150000Y89371252D02*
X34150000Y87948748D01*
%TO.C,R7*%
X44570000Y41586359D02*
X44570000Y41893641D01*
X45330000Y41586359D02*
X45330000Y41893641D01*
%TO.C,R25*%
X39218859Y104627500D02*
X39526141Y104627500D01*
X39218859Y103867500D02*
X39526141Y103867500D01*
%TO.C,R28*%
X69161559Y70336400D02*
X69468841Y70336400D01*
X69161559Y69576400D02*
X69468841Y69576400D01*
%TO.C,R14*%
X46320000Y41576359D02*
X46320000Y41883641D01*
X47080000Y41576359D02*
X47080000Y41883641D01*
%TO.C,D9*%
X33390000Y90010000D02*
X32590000Y90010000D01*
X33390000Y88650000D02*
X33390000Y90010000D01*
X32590000Y88650000D02*
X32590000Y90010000D01*
%TO.C,C4*%
X37820000Y61467836D02*
X37820000Y61252164D01*
X37100000Y61467836D02*
X37100000Y61252164D01*
%TO.C,U1*%
X66243200Y33374100D02*
X66243200Y34074100D01*
X66243200Y34074100D02*
X67533200Y34074100D01*
X66243200Y47594100D02*
X66243200Y46894100D01*
X65543200Y33374100D02*
X66243200Y33374100D01*
X65543200Y47594100D02*
X66243200Y47594100D01*
X52723200Y33374100D02*
X52023200Y33374100D01*
X52723200Y47594100D02*
X52023200Y47594100D01*
X52023200Y33374100D02*
X52023200Y34074100D01*
X52023200Y47594100D02*
X52023200Y46894100D01*
%TO.C,D4*%
X58676800Y95924600D02*
X58676800Y93924600D01*
X58676800Y95924600D02*
X62686800Y95924600D01*
X58676800Y93924600D02*
X62686800Y93924600D01*
%TO.C,Q1*%
X36485000Y34885000D02*
X36485000Y36295000D01*
X34165000Y36295000D02*
X34165000Y34265000D01*
X34165000Y36295000D02*
X34825000Y36295000D01*
X35825000Y36295000D02*
X36485000Y36295000D01*
%TO.C,SW1*%
X61058400Y27272200D02*
X61058400Y26097200D01*
%TO.C,R18*%
X32045000Y35111359D02*
X32045000Y35418641D01*
X32805000Y35111359D02*
X32805000Y35418641D01*
%TO.C,C15*%
X37420000Y89367836D02*
X37420000Y89152164D01*
X36700000Y89367836D02*
X36700000Y89152164D01*
%TO.C,R22*%
X41602500Y103658859D02*
X41602500Y103966141D01*
X42362500Y103658859D02*
X42362500Y103966141D01*
%TO.C,R10*%
X64058400Y30841641D02*
X64058400Y30534359D01*
X63298400Y30841641D02*
X63298400Y30534359D01*
%TO.C,C9*%
X69135000Y34644164D02*
X69135000Y34859836D01*
X69855000Y34644164D02*
X69855000Y34859836D01*
%TO.C,D7*%
X38225000Y99975000D02*
X39695000Y99975000D01*
X39695000Y99975000D02*
X39695000Y102260000D01*
X38225000Y102260000D02*
X38225000Y99975000D01*
%TO.C,C8*%
X70227200Y34644164D02*
X70227200Y34859836D01*
X70947200Y34644164D02*
X70947200Y34859836D01*
%TO.C,D3*%
X43055000Y100025000D02*
X44525000Y100025000D01*
X44525000Y100025000D02*
X44525000Y102310000D01*
X43055000Y102310000D02*
X43055000Y100025000D01*
D16*
%TO.C,C13*%
X67690000Y80730000D02*
X68690000Y80730000D01*
D13*
X74190000Y80730000D02*
X73090000Y80730000D01*
X67690000Y94530000D02*
X67690000Y80730000D01*
X68790000Y94530000D02*
X67690000Y94530000D01*
X74090000Y94530000D02*
X73090000Y94530000D01*
X74090000Y94530000D02*
X74190000Y94530000D01*
X74190000Y94530000D02*
X74190000Y80730000D01*
D14*
%TO.C,J1*%
X36560000Y22000000D02*
X36560000Y21360000D01*
X36560000Y21360000D02*
X36960000Y21360000D01*
X36800000Y30720000D02*
X36800000Y21600000D01*
X36800000Y30720000D02*
X51920000Y30720000D01*
X36800000Y23160000D02*
X51920000Y23160000D01*
X36800000Y22060000D02*
X51920000Y22060000D01*
X36800000Y21600000D02*
X51920000Y21600000D01*
X37812000Y25379000D02*
X37706000Y25272000D01*
X38078000Y25113000D02*
X37972000Y25006000D01*
X40748000Y28314000D02*
X40641000Y28207000D01*
X41014000Y28048000D02*
X40907000Y27941000D01*
X43102000Y25668000D02*
X42707000Y25272000D01*
X43353000Y25386000D02*
X42973000Y25006000D01*
X45748000Y28314000D02*
X45368000Y27934000D01*
X46014000Y28048000D02*
X45619000Y27652000D01*
X48102000Y25668000D02*
X47707000Y25272000D01*
X48353000Y25386000D02*
X47973000Y25006000D01*
X50748000Y28314000D02*
X50368000Y27934000D01*
X51014000Y28048000D02*
X50619000Y27652000D01*
X51920000Y30720000D02*
X51920000Y21600000D01*
X41540000Y26660000D02*
G75*
G03*
X41540000Y26660000I-2180000J0D01*
G01*
X46540000Y26660000D02*
G75*
G03*
X46540000Y26660000I-2180000J0D01*
G01*
X51540000Y26660000D02*
G75*
G03*
X51540000Y26660000I-2180000J0D01*
G01*
%TO.C,R29*%
X70766241Y68204800D02*
X70458959Y68204800D01*
X70766241Y68964800D02*
X70458959Y68964800D01*
D17*
%TO.C,Y1*%
X57313900Y50596200D02*
G75*
G03*
X57313900Y50596200I-50000J0D01*
G01*
D14*
%TO.C,C1*%
X57028000Y52154636D02*
X57028000Y51938964D01*
X56308000Y52154636D02*
X56308000Y51938964D01*
%TO.C,R3*%
X40913641Y60580000D02*
X40606359Y60580000D01*
X40913641Y61340000D02*
X40606359Y61340000D01*
D13*
%TO.C,mouse-bite-2mm-slot*%
X28560000Y84970000D02*
G75*
G03*
X26560000Y84970000I-1000000J0D01*
G01*
X26560000Y88970000D02*
G75*
G03*
X28560000Y88970000I1000000J0D01*
G01*
D14*
%TO.C,R16*%
X56510000Y28143641D02*
X56510000Y27836359D01*
X55750000Y28143641D02*
X55750000Y27836359D01*
%TO.C,D6*%
X65959600Y60405000D02*
X65959600Y57105000D01*
X65959600Y60405000D02*
X71469600Y60405000D01*
X65959600Y57105000D02*
X71469600Y57105000D01*
D13*
%TO.C,mouse-bite-2mm-slot*%
X53260000Y19860000D02*
G75*
G03*
X53260000Y17860000I0J-1000000D01*
G01*
X49260000Y17860000D02*
G75*
G03*
X49260000Y19860000I0J1000000D01*
G01*
%TO.C,D1*%
X48477200Y44040600D02*
X48277200Y44040600D01*
X48477200Y44190600D02*
X48477200Y44040600D01*
X48277200Y44040600D02*
X48102200Y44040600D01*
X48752200Y44065600D02*
G75*
G03*
X48752200Y44065600I-25000J0D01*
G01*
D14*
%TO.C,R23*%
X37950000Y94446359D02*
X37950000Y94753641D01*
X38710000Y94446359D02*
X38710000Y94753641D01*
%TO.C,Q2*%
X40120000Y97080000D02*
X40120000Y98490000D01*
X37800000Y98490000D02*
X37800000Y96460000D01*
X37800000Y98490000D02*
X38460000Y98490000D01*
X39460000Y98490000D02*
X40120000Y98490000D01*
%TO.C,D8*%
X62461400Y87237800D02*
X62461400Y85237800D01*
X62461400Y87237800D02*
X66471400Y87237800D01*
X62461400Y85237800D02*
X66471400Y85237800D01*
%TO.C,J4*%
X48900000Y84355000D02*
X49540000Y84355000D01*
X49540000Y84355000D02*
X49540000Y83725000D01*
X51700000Y84355000D02*
X51060000Y84355000D01*
X48950000Y87075000D02*
X51650000Y87075000D01*
%TO.C,R24*%
X64264136Y89970000D02*
X64718264Y89970000D01*
X64264136Y88500000D02*
X64718264Y88500000D01*
%TO.C,R12*%
X42795000Y41586359D02*
X42795000Y41893641D01*
X43555000Y41586359D02*
X43555000Y41893641D01*
%TO.C,R21*%
X48623000Y48179841D02*
X48623000Y47872559D01*
X47863000Y48179841D02*
X47863000Y47872559D01*
%TO.C,U2*%
X47620000Y36760000D02*
X47620000Y40210000D01*
X47620000Y36760000D02*
X47620000Y34810000D01*
X42500000Y36760000D02*
X42500000Y38710000D01*
X42500000Y36760000D02*
X42500000Y34810000D01*
%TO.C,R19*%
X38195000Y32986359D02*
X38195000Y33293641D01*
X38955000Y32986359D02*
X38955000Y33293641D01*
%TO.C,J3*%
X48022800Y59406200D02*
X48022800Y60736200D01*
X49352800Y59406200D02*
X48022800Y59406200D01*
X50622800Y59406200D02*
X58302800Y59406200D01*
X50622800Y59406200D02*
X50622800Y62066200D01*
X58302800Y59406200D02*
X58302800Y62066200D01*
X50622800Y62066200D02*
X58302800Y62066200D01*
%TO.C,R15*%
X55235000Y28143641D02*
X55235000Y27836359D01*
X54475000Y28143641D02*
X54475000Y27836359D01*
%TO.C,R20*%
X49303000Y47882559D02*
X49303000Y48189841D01*
X50063000Y47882559D02*
X50063000Y48189841D01*
%TO.C,U5*%
X73603600Y74706200D02*
X73603600Y78306200D01*
X73603600Y74706200D02*
X73603600Y72506200D01*
X68383600Y74706200D02*
X68383600Y76906200D01*
X68383600Y74706200D02*
X68383600Y72506200D01*
%TO.C,R13*%
X56743159Y30668000D02*
X57050441Y30668000D01*
X56743159Y29908000D02*
X57050441Y29908000D01*
%TO.C,R27*%
X31190800Y84613441D02*
X31190800Y84306159D01*
X30430800Y84613441D02*
X30430800Y84306159D01*
%TO.C,C2*%
X63953400Y51865364D02*
X63953400Y52081036D01*
X64673400Y51865364D02*
X64673400Y52081036D01*
%TO.C,U3*%
X55514200Y91349800D02*
X55514200Y95990800D01*
X55514200Y91349800D02*
X45274200Y91349800D01*
X55514200Y92859800D02*
X45274200Y92859800D01*
X55514200Y95990800D02*
X45274200Y95990800D01*
X52244200Y91349800D02*
X52244200Y92859800D01*
X48543200Y91349800D02*
X48543200Y92859800D01*
X45274200Y91349800D02*
X45274200Y95990800D01*
%TO.C,J5*%
X66760000Y105520000D02*
X66760000Y106160000D01*
X66760000Y106160000D02*
X66360000Y106160000D01*
X66520000Y96800000D02*
X66520000Y105920000D01*
X66520000Y96800000D02*
X46399000Y96800000D01*
X66520000Y104360000D02*
X46399000Y104360000D01*
X66520000Y105460000D02*
X46399000Y105460000D01*
X66520000Y105920000D02*
X46399000Y105920000D01*
X65508000Y102141000D02*
X65614000Y102248000D01*
X65242000Y102407000D02*
X65348000Y102514000D01*
X62572000Y99206000D02*
X62679000Y99313000D01*
X62306000Y99472000D02*
X62413000Y99579000D01*
X60218000Y101852000D02*
X60613000Y102248000D01*
X59967000Y102134000D02*
X60347000Y102514000D01*
X57572000Y99206000D02*
X57952000Y99586000D01*
X57306000Y99472000D02*
X57701000Y99868000D01*
X55218000Y101852000D02*
X55613000Y102248000D01*
X54967000Y102134000D02*
X55347000Y102514000D01*
X52572000Y99206000D02*
X52952000Y99586000D01*
X52306000Y99472000D02*
X52701000Y99868000D01*
X50218000Y101852000D02*
X50613000Y102248000D01*
X49967000Y102134000D02*
X50347000Y102514000D01*
X47572000Y99206000D02*
X47952000Y99586000D01*
X47306000Y99472000D02*
X47701000Y99868000D01*
X46399000Y96800000D02*
X46399000Y105920000D01*
X66140000Y100860000D02*
G75*
G03*
X66140000Y100860000I-2180000J0D01*
G01*
X61140000Y100860000D02*
G75*
G03*
X61140000Y100860000I-2180000J0D01*
G01*
X56140000Y100860000D02*
G75*
G03*
X56140000Y100860000I-2180000J0D01*
G01*
X51140000Y100860000D02*
G75*
G03*
X51140000Y100860000I-2180000J0D01*
G01*
%TO.C,L1*%
X49820000Y81936359D02*
X49820000Y82243641D01*
X50580000Y81936359D02*
X50580000Y82243641D01*
%TO.C,C11*%
X64611964Y95767200D02*
X64827636Y95767200D01*
X64611964Y95047200D02*
X64827636Y95047200D01*
%TO.C,R1*%
X71119359Y49737000D02*
X71426641Y49737000D01*
X71119359Y48977000D02*
X71426641Y48977000D01*
%TO.C,C5*%
X42152164Y60220000D02*
X42367836Y60220000D01*
X42152164Y59500000D02*
X42367836Y59500000D01*
%TO.C,R5*%
X31255000Y35443641D02*
X31255000Y35136359D01*
X30495000Y35443641D02*
X30495000Y35136359D01*
%TO.C,R6*%
X39870000Y32986359D02*
X39870000Y33293641D01*
X40630000Y32986359D02*
X40630000Y33293641D01*
D13*
%TO.C,mouse-bite-2mm-slot*%
X76540000Y67080000D02*
G75*
G03*
X74540000Y67080000I-1000000J0D01*
G01*
X74540000Y71080000D02*
G75*
G03*
X76540000Y71080000I1000000J0D01*
G01*
D14*
%TO.C,R8*%
X47306700Y51841359D02*
X47306700Y52148641D01*
X48066700Y51841359D02*
X48066700Y52148641D01*
%TO.C,C7*%
X44820000Y60587836D02*
X44820000Y60372164D01*
X44100000Y60587836D02*
X44100000Y60372164D01*
%TO.C,R17*%
X57015000Y27836359D02*
X57015000Y28143641D01*
X57775000Y27836359D02*
X57775000Y28143641D01*
%TO.C,C14*%
X38620000Y89367836D02*
X38620000Y89152164D01*
X37900000Y89367836D02*
X37900000Y89152164D01*
%TD*%
M02*
