M48
; DRILL file {KiCad 7.0.1} date Wed May 17 13:30:48 2023
; FORMAT={-:-/ absolute / metric / decimal}
; #@! TF.CreationDate,2023-05-17T13:30:48+02:00
; #@! TF.GenerationSoftware,Kicad,Pcbnew,7.0.1
; #@! TF.FileFunction,NonPlated,1,2,NPTH
FMAT,2
METRIC
; #@! TA.AperFunction,NonPlated,NPTH,ComponentDrill
T1C0.500
; #@! TA.AperFunction,NonPlated,NPTH,ComponentDrill
T2C0.750
%
G90
G05
T1
X107.81Y-73.27
X107.81Y-74.02
X107.81Y-74.77
X107.81Y-97.38
X107.81Y-98.13
X107.81Y-98.88
X109.31Y-73.27
X109.31Y-74.02
X109.31Y-74.77
X109.31Y-97.38
X109.31Y-98.13
X109.31Y-98.88
X131.31Y-51.38
X131.31Y-52.88
X131.51Y-141.38
X131.51Y-142.88
X132.06Y-51.38
X132.06Y-52.88
X132.26Y-141.38
X132.26Y-142.88
X132.81Y-51.38
X132.81Y-52.88
X133.01Y-141.38
X133.01Y-142.88
X155.79Y-91.16
X155.79Y-91.91
X155.79Y-92.66
X155.81Y-109.79
X155.81Y-110.54
X155.81Y-111.29
X157.29Y-91.16
X157.29Y-91.91
X157.29Y-92.66
X157.31Y-109.79
X157.31Y-110.54
X157.31Y-111.29
T2
X112.87Y-104.8
X112.87Y-113.3
T0
M30
