M48
; DRILL file {KiCad 7.0.7} date Thu Oct  5 08:39:10 2023
; FORMAT={-:-/ absolute / metric / decimal}
; #@! TF.CreationDate,2023-10-05T08:39:10+02:00
; #@! TF.GenerationSoftware,Kicad,Pcbnew,7.0.7
; #@! TF.FileFunction,Plated,1,2,PTH
FMAT,2
METRIC
; #@! TA.AperFunction,Plated,PTH,ViaDrill
T1C0.400
; #@! TA.AperFunction,Plated,PTH,ComponentDrill
T2C0.800
; #@! TA.AperFunction,Plated,PTH,ComponentDrill
T3C1.000
; #@! TA.AperFunction,Plated,PTH,ComponentDrill
T4C1.100
; #@! TA.AperFunction,Plated,PTH,ComponentDrill
T5C1.300
%
G90
G05
T1
X29.515Y89.997
X30.811Y84.97
X31.86Y80.16
X31.86Y79.06
X31.86Y72.46
X32.275Y39.74
X32.716Y86.466
X35.06Y87.185
X35.26Y65.26
X35.26Y61.06
X35.975Y34.565
X37.26Y85.36
X38.56Y85.36
X38.96Y60.96
X39.71Y73.835
X39.904Y104.221
X41.326Y53.421
X41.375Y37.465
X41.96Y65.26
X42.215Y91.775
X42.63Y61.29
X43.155Y34.285
X44.095Y54.742
X44.1Y50.94
X44.1Y49.72
X44.16Y65.26
X44.679Y57.866
X45.6Y32.44
X45.96Y60.98
X46.702Y42.242
X47.007Y84.783
X48.489Y88.625
X48.52Y49.885
X48.66Y39.06
X48.718Y43.413
X49.886Y64.318
X49.886Y45.191
X50.013Y77.297
X51.486Y51.948
X52.604Y79.405
X53.112Y50.602
X53.366Y43.871
X53.484Y40.806
X53.518Y39.807
X53.595Y41.991
X54.23Y82.809
X55.219Y78.807
X55.56Y22.46
X55.576Y46.36
X56.185Y71.303
X56.998Y46.411
X57.074Y37.419
X58.141Y76.103
X58.397Y31.108
X58.614Y52.996
X60.219Y78.807
X61.027Y30.768
X61.469Y78.807
X61.85Y36.225
X62.612Y44.455
X62.614Y50.596
X63.12Y46.766
X63.171Y86.238
X63.348Y58.425
X63.45Y25.125
X65.152Y40.772
X65.152Y39.772
X65.2Y95.407
X66.904Y62.794
X67.742Y77.551
X68.962Y81.158
X69.597Y42.982
X70.13Y68.534
X70.536Y79.849
X71.375Y63.683
X71.476Y69.728
X71.476Y56.367
X71.781Y49.332
X72.123Y79.849
X72.899Y34.117
X73.61Y69.779
T2
X70.94Y92.13
X70.94Y83.13
T3
X49.353Y60.736
X51.893Y60.736
X54.433Y60.736
X56.973Y60.736
X66.752Y54.285
X66.752Y51.745
X69.292Y54.285
X69.292Y51.745
X71.832Y54.285
X71.832Y51.745
T4
X47.854Y94.62
X50.394Y94.62
X52.934Y94.62
T5
X39.36Y26.66
X44.36Y26.66
X48.96Y100.86
X49.36Y26.66
X53.96Y100.86
X58.96Y100.86
X63.96Y100.86
T0
M30
