M48
; DRILL file {KiCad 7.0.7} date Thu Oct  5 08:39:10 2023
; FORMAT={-:-/ absolute / metric / decimal}
; #@! TF.CreationDate,2023-10-05T08:39:10+02:00
; #@! TF.GenerationSoftware,Kicad,Pcbnew,7.0.7
; #@! TF.FileFunction,NonPlated,1,2,NPTH
FMAT,2
METRIC
; #@! TA.AperFunction,NonPlated,NPTH,ComponentDrill
T1C0.500
; #@! TA.AperFunction,NonPlated,NPTH,ComponentDrill
T2C0.750
%
G90
G05
T1
X26.81Y87.72
X26.81Y86.97
X26.81Y86.22
X26.81Y63.61
X26.81Y62.86
X26.81Y62.11
X28.31Y87.72
X28.31Y86.97
X28.31Y86.22
X28.31Y63.61
X28.31Y62.86
X28.31Y62.11
X50.31Y109.61
X50.31Y108.11
X50.51Y19.61
X50.51Y18.11
X51.06Y109.61
X51.06Y108.11
X51.26Y19.61
X51.26Y18.11
X51.81Y109.61
X51.81Y108.11
X52.01Y19.61
X52.01Y18.11
X74.79Y69.83
X74.79Y69.08
X74.79Y68.33
X74.81Y51.2
X74.81Y50.45
X74.81Y49.7
X76.29Y69.83
X76.29Y69.08
X76.29Y68.33
X76.31Y51.2
X76.31Y50.45
X76.31Y49.7
T2
X31.87Y56.19
X31.87Y47.69
T0
M30
